<?xml version="1.0" encoding="UTF-8" standalone="no"?>
<!DOCTYPE svg PUBLIC "-//W3C//DTD SVG 1.1//EN"
 "http://www.w3.org/Graphics/SVG/1.1/DTD/svg11.dtd">
<!-- Generated by graphviz version 12.2.1 (20241206.2353)
 -->
<!-- Title: Graph Legend Pages: 1 -->
<svg width="510pt" height="168pt"
 viewBox="0.00 0.00 510.25 167.75" xmlns="http://www.w3.org/2000/svg" xmlns:xlink="http://www.w3.org/1999/xlink">
<g id="page0,1_graph0" class="graph" transform="scale(1 1) rotate(0) translate(4 163.75)">
<title>Graph Legend</title>
<!-- Node9 -->
<g id="Node000009" class="node">
<title>Node9</title>
<g id="a_Node000009"><a xlink:title=" ">
<polygon fill="#999999" stroke="#666666" points="291.62,-20.75 234.38,-20.75 234.38,0 291.62,0 291.62,-20.75"/>
<text text-anchor="middle" x="263" y="-7.25" font-family="Helvetica,sans-Serif" font-size="10.00">Inherited</text>
</a>
</g>
</g>
<!-- Node10 -->
<g id="Node000010" class="node">
<title>Node10</title>
<g id="a_Node000010"><a xlink:title=" ">
<polygon fill="white" stroke="#666666" points="64,-90.25 0,-90.25 0,-69.5 64,-69.5 64,-90.25"/>
<text text-anchor="middle" x="32" y="-76.75" font-family="Helvetica,sans-Serif" font-size="10.00">PublicBase</text>
</a>
</g>
</g>
<!-- Node10&#45;&gt;Node9 -->
<g id="edge1" class="edge">
<title>Node10&#45;&gt;Node9</title>
<g id="a_edge1"><a xlink:title=" ">
<path fill="none" stroke="#63b8ff" d="M75.03,-66.3C121.44,-52.74 194.03,-31.53 234.07,-19.83"/>
<polygon fill="#63b8ff" stroke="#63b8ff" points="74.19,-62.9 65.57,-69.06 76.15,-69.62 74.19,-62.9"/>
</a>
</g>
</g>
<!-- Node11 -->
<g id="Node000011" class="node">
<title>Node11</title>
<g id="a_Node000011"><a xlink:title=" ">
<polygon fill="#fff0f0" stroke="red" points="62.88,-159.75 1.12,-159.75 1.12,-139 62.88,-139 62.88,-159.75"/>
<text text-anchor="middle" x="32" y="-146.25" font-family="Helvetica,sans-Serif" font-size="10.00">Truncated</text>
</a>
</g>
</g>
<!-- Node11&#45;&gt;Node10 -->
<g id="edge2" class="edge">
<title>Node11&#45;&gt;Node10</title>
<g id="a_edge2"><a xlink:title=" ">
<path fill="none" stroke="#63b8ff" d="M32,-127.57C32,-115.22 32,-100.15 32,-90.53"/>
<polygon fill="#63b8ff" stroke="#63b8ff" points="28.5,-127.19 32,-137.19 35.5,-127.19 28.5,-127.19"/>
</a>
</g>
</g>
<!-- Node13 -->
<g id="node4" class="node">
<title>Node13</title>
<g id="a_node4"><a xlink:title=" ">
<polygon fill="white" stroke="#666666" points="163.62,-90.25 82.38,-90.25 82.38,-69.5 163.62,-69.5 163.62,-90.25"/>
<text text-anchor="middle" x="123" y="-76.75" font-family="Helvetica,sans-Serif" font-size="10.00">ProtectedBase</text>
</a>
</g>
</g>
<!-- Node13&#45;&gt;Node9 -->
<g id="edge3" class="edge">
<title>Node13&#45;&gt;Node9</title>
<g id="a_edge3"><a xlink:title=" ">
<path fill="none" stroke="darkgreen" d="M153.43,-64.2C180.45,-51.18 219.18,-32.5 242.62,-21.2"/>
<polygon fill="darkgreen" stroke="darkgreen" points="152.21,-60.91 144.72,-68.4 155.25,-67.21 152.21,-60.91"/>
</a>
</g>
</g>
<!-- Node14 -->
<g id="node5" class="node">
<title>Node14</title>
<g id="a_node5"><a xlink:title=" ">
<polygon fill="white" stroke="#666666" points="249.88,-90.25 182.12,-90.25 182.12,-69.5 249.88,-69.5 249.88,-90.25"/>
<text text-anchor="middle" x="216" y="-76.75" font-family="Helvetica,sans-Serif" font-size="10.00">PrivateBase</text>
</a>
</g>
</g>
<!-- Node14&#45;&gt;Node9 -->
<g id="edge4" class="edge">
<title>Node14&#45;&gt;Node9</title>
<g id="a_edge4"><a xlink:title=" ">
<path fill="none" stroke="#8b1a1a" d="M229.16,-59.97C237.98,-47.3 249.23,-31.15 256.28,-21.03"/>
<polygon fill="#8b1a1a" stroke="#8b1a1a" points="226.44,-57.76 223.6,-67.96 232.19,-61.76 226.44,-57.76"/>
</a>
</g>
</g>
<!-- Node15 -->
<g id="Node000015" class="node">
<title>Node15</title>
<g id="a_Node000015"><a xlink:title=" ">
<polygon fill="#e0e0e0" stroke="#999999" points="353.88,-90.25 268.12,-90.25 268.12,-69.5 353.88,-69.5 353.88,-90.25"/>
<text text-anchor="middle" x="311" y="-76.75" font-family="Helvetica,sans-Serif" font-size="10.00">Undocumented</text>
</a>
</g>
</g>
<!-- Node15&#45;&gt;Node9 -->
<g id="edge5" class="edge">
<title>Node15&#45;&gt;Node9</title>
<g id="a_edge5"><a xlink:title=" ">
<path fill="none" stroke="#63b8ff" d="M297.56,-59.97C288.55,-47.3 277.06,-31.15 269.86,-21.03"/>
<polygon fill="#63b8ff" stroke="#63b8ff" points="294.6,-61.85 303.25,-67.97 300.3,-57.79 294.6,-61.85"/>
</a>
</g>
</g>
<!-- Node16 -->
<g id="node7" class="node">
<title>Node16</title>
<g id="a_node7"><a xlink:title=" ">
<polygon fill="white" stroke="#666666" points="445.88,-90.25 372.12,-90.25 372.12,-69.5 445.88,-69.5 445.88,-90.25"/>
<text text-anchor="middle" x="409" y="-76.75" font-family="Helvetica,sans-Serif" font-size="10.00">Templ&lt; int &gt;</text>
</a>
</g>
</g>
<!-- Node16&#45;&gt;Node9 -->
<g id="edge6" class="edge">
<title>Node16&#45;&gt;Node9</title>
<g id="a_edge6"><a xlink:title=" ">
<path fill="none" stroke="#63b8ff" d="M377.64,-64.37C349.45,-51.34 308.81,-32.55 284.26,-21.2"/>
<polygon fill="#63b8ff" stroke="#63b8ff" points="375.85,-67.41 386.4,-68.42 378.79,-61.05 375.85,-67.41"/>
</a>
</g>
</g>
<!-- Node17 -->
<g id="node8" class="node">
<title>Node17</title>
<g id="a_node8"><a xlink:title=" ">
<polygon fill="white" stroke="#666666" points="442.88,-159.75 375.12,-159.75 375.12,-139 442.88,-139 442.88,-159.75"/>
<text text-anchor="middle" x="409" y="-146.25" font-family="Helvetica,sans-Serif" font-size="10.00">Templ&lt; T &gt;</text>
</a>
</g>
</g>
<!-- Node17&#45;&gt;Node16 -->
<g id="edge7" class="edge">
<title>Node17&#45;&gt;Node16</title>
<g id="a_edge7"><a xlink:title=" ">
<path fill="none" stroke="orange" stroke-dasharray="5,2" d="M409,-127.57C409,-115.22 409,-100.15 409,-90.53"/>
<polygon fill="orange" stroke="orange" points="405.5,-127.19 409,-137.19 412.5,-127.19 405.5,-127.19"/>
</a>
</g>
<text text-anchor="middle" x="423.25" y="-111.5" font-family="Helvetica,sans-Serif" font-size="10.00" fill="grey">&lt; int &gt;</text>
</g>
<!-- Node18 -->
<g id="node9" class="node">
<title>Node18</title>
<g id="a_node9"><a xlink:title=" ">
<polygon fill="white" stroke="#666666" points="502.25,-90.25 463.75,-90.25 463.75,-69.5 502.25,-69.5 502.25,-90.25"/>
<text text-anchor="middle" x="483" y="-76.75" font-family="Helvetica,sans-Serif" font-size="10.00">Used</text>
</a>
</g>
</g>
<!-- Node18&#45;&gt;Node9 -->
<g id="edge8" class="edge">
<title>Node18&#45;&gt;Node9</title>
<g id="a_edge8"><a xlink:title=" ">
<path fill="none" stroke="#9a32cd" stroke-dasharray="5,2" d="M452.6,-68.79C390.11,-48.97 327.64,-30.37 292.03,-19.88"/>
<polygon fill="#9a32cd" stroke="#9a32cd" points="451.41,-72.09 462,-71.79 453.53,-65.42 451.41,-72.09"/>
</a>
</g>
<text text-anchor="middle" x="426.73" y="-42" font-family="Helvetica,sans-Serif" font-size="10.00" fill="grey">m_usedClass</text>
</g>
</g>
</svg>
