<?xml version="1.0" encoding="UTF-8" standalone="no"?>
<!DOCTYPE svg PUBLIC "-//W3C//DTD SVG 1.1//EN"
 "http://www.w3.org/Graphics/SVG/1.1/DTD/svg11.dtd">
<!-- Generated by graphviz version 12.2.1 (20241206.2353)
 -->
<!-- Title: FLASH Exported Constants Pages: 1 -->
<!--zoomable 769 -->

<svg id="main" version="1.1" xmlns="http://www.w3.org/2000/svg" xmlns:xlink="http://www.w3.org/1999/xlink" xml:space="preserve" onload="init(evt)">

<style type="text/css"><![CDATA[
.node, .edge {opacity: 0.7;}
.node.selected, .edge.selected {opacity: 1;}
.edge:hover path { stroke: red; }
.edge:hover polygon { stroke: red; fill: red; }
]]></style>

<defs>
  <circle id="rim" cx="0" cy="0" r="7"/>
  <circle id="rim2" cx="0" cy="0" r="3.5"/>
  <g id="zoomPlus">
    <use xlink:href="#rim" fill="#404040"><set attributeName="fill" to="#808080" begin="zoomplus.mouseover" end="zoomplus.mouseout"/></use>
    <path d="M-4,0h8M0,-4v8" fill="none" stroke="white" stroke-width="1.5" pointer-events="none"/>
  </g>
  <g id="zoomMin">
    <use xlink:href="#rim" fill="#404040"><set attributeName="fill" to="#808080" begin="zoomminus.mouseover" end="zoomminus.mouseout"/></use>
    <path d="M-4,0h8" fill="none" stroke="white" stroke-width="1.5" pointer-events="none"/>
  </g>
  <g id="arrowUp" transform="translate(30 24)">
    <use xlink:href="#rim"/>
    <path pointer-events="none" fill="none" stroke="white" stroke-width="1.5" d="M0,-3.0v7 M-2.5,-0.5L0,-3.0L2.5,-0.5"/>
  </g>
  <g id="arrowRight" transform="rotate(90) translate(36 -43)">
    <use xlink:href="#rim"/>
    <path pointer-events="none" fill="none" stroke="white" stroke-width="1.5" d="M0,-3.0v7 M-2.5,-0.5L0,-3.0L2.5,-0.5"/>
  </g>
  <g id="arrowDown" transform="rotate(180) translate(-30 -48)">
    <use xlink:href="#rim"/>
    <path pointer-events="none" fill="none" stroke="white" stroke-width="1.5" d="M0,-3.0v7 M-2.5,-0.5L0,-3.0L2.5,-0.5"/>
  </g>
  <g id="arrowLeft" transform="rotate(270) translate(-36 17)">
    <use xlink:href="#rim"/>
    <path pointer-events="none" fill="none" stroke="white" stroke-width="1.5" d="M0,-3.0v7 M-2.5,-0.5L0,-3.0L2.5,-0.5"/>
  </g>
  <g id="resetDef">
    <use xlink:href="#rim2" fill="#404040"><set attributeName="fill" to="#808080" begin="reset.mouseover" end="reset.mouseout"/></use>
  </g>
</defs>
<script type="application/ecmascript">
var viewWidth = 442;
var viewHeight = 769;
var sectionId = 'dynsection-0';
</script>
<script type="application/ecmascript" xlink:href="svg.min.js"/>
<svg id="graph" class="graph">
<g id="viewport">
<title>FLASH Exported Constants</title>
<!-- Node2 -->
<g id="Node000002" class="node">
<title>Node2</title>
<g id="a_Node000002"><a xlink:href="group__FLASHEx.html" target="_top" xlink:title="FLASH HAL Extension module driver.">
<polygon fill="white" stroke="#666666" points="56.5,-377.75 0,-377.75 0,-357 56.5,-357 56.5,-377.75"/>
<text text-anchor="middle" x="28.25" y="-364.25" font-family="Helvetica,sans-Serif" font-size="10.00">FLASHEx</text>
</a>
</g>
</g>
<!-- Node1 -->
<g id="Node000001" class="node">
<title>Node1</title>
<g id="a_Node000001"><a xlink:title=" ">
<polygon fill="#999999" stroke="#666666" points="230.75,-377.75 92.5,-377.75 92.5,-357 230.75,-357 230.75,-377.75"/>
<text text-anchor="middle" x="161.62" y="-364.25" font-family="Helvetica,sans-Serif" font-size="10.00">FLASH Exported Constants</text>
</a>
</g>
</g>
<!-- Node2&#45;&gt;Node1 -->
<g id="edge1" class="edge">
<title>Node2&#45;&gt;Node1</title>
<path fill="none" stroke="black" d="M68.2,-367.38C75.81,-367.38 84,-367.38 92.25,-367.38"/>
<polygon fill="black" stroke="black" points="68.3,-363.88 58.3,-367.38 68.3,-370.88 68.3,-363.88"/>
</g>
<!-- Node12 -->
<g id="Node000012" class="node">
<title>Node12</title>
<g id="a_Node000012"><a xlink:href="group__FLASHEx__Advanced__Option__Type.html" target="_top" xlink:title=" ">
<polygon fill="white" stroke="#666666" points="424.88,-760.75 275.38,-760.75 275.38,-740 424.88,-740 424.88,-760.75"/>
<text text-anchor="middle" x="350.12" y="-747.25" font-family="Helvetica,sans-Serif" font-size="10.00">FLASH Advanced Option Type</text>
</a>
</g>
</g>
<!-- Node11 -->
<g id="Node000011" class="node">
<title>Node11</title>
<g id="a_Node000011"><a xlink:href="group__FLASHEx__BOR__Reset__Level.html" target="_top" xlink:title=" ">
<polygon fill="white" stroke="#666666" points="410.25,-721.75 290,-721.75 290,-701 410.25,-701 410.25,-721.75"/>
<text text-anchor="middle" x="350.12" y="-708.25" font-family="Helvetica,sans-Serif" font-size="10.00">FLASH BOR Reset Level</text>
</a>
</g>
</g>
<!-- Node14 -->
<g id="Node000014" class="node">
<title>Node14</title>
<g id="a_Node000014"><a xlink:href="group__FLASHEx__Banks.html" target="_top" xlink:title=" ">
<polygon fill="white" stroke="#666666" points="387.75,-682.75 312.5,-682.75 312.5,-662 387.75,-662 387.75,-682.75"/>
<text text-anchor="middle" x="350.12" y="-669.25" font-family="Helvetica,sans-Serif" font-size="10.00">FLASH Banks</text>
</a>
</g>
</g>
<!-- Node19 -->
<g id="Node000019" class="node">
<title>Node19</title>
<g id="a_Node000019"><a xlink:href="group__FLASHEx__Dual__Boot.html" target="_top" xlink:title=" ">
<polygon fill="white" stroke="#666666" points="396.38,-643.75 303.88,-643.75 303.88,-623 396.38,-623 396.38,-643.75"/>
<text text-anchor="middle" x="350.12" y="-630.25" font-family="Helvetica,sans-Serif" font-size="10.00">FLASH Dual Boot</text>
</a>
</g>
</g>
<!-- Node1&#45;&gt;Node12 -->
<g id="edge11" class="edge">
<title>Node1&#45;&gt;Node12</title>
<path fill="none" stroke="black" d="M161.87,-389.48C161.01,-452.61 167.62,-635.24 266.75,-730.38 270.57,-734.04 274.95,-737.08 279.65,-739.58"/>
<polygon fill="black" stroke="black" points="165.37,-389.8 162.1,-379.72 158.37,-389.64 165.37,-389.8"/>
</g>
<!-- Node1&#45;&gt;Node11 -->
<g id="edge10" class="edge">
<title>Node1&#45;&gt;Node11</title>
<path fill="none" stroke="black" d="M162.77,-389.41C164.4,-447.88 177.24,-608.16 266.75,-691.38 273.22,-697.39 281.18,-701.68 289.58,-704.73"/>
<polygon fill="black" stroke="black" points="166.27,-389.42 162.59,-379.48 159.27,-389.54 166.27,-389.42"/>
</g>
<!-- Node1&#45;&gt;Node14 -->
<g id="edge13" class="edge">
<title>Node1&#45;&gt;Node14</title>
<path fill="none" stroke="black" d="M163.87,-389.27C168.14,-442.75 186.75,-580.88 266.75,-652.38 279.15,-663.46 296.65,-668.65 312.34,-671"/>
<polygon fill="black" stroke="black" points="167.39,-389.36 163.2,-379.63 160.4,-389.84 167.39,-389.36"/>
</g>
<!-- Node1&#45;&gt;Node19 -->
<g id="edge18" class="edge">
<title>Node1&#45;&gt;Node19</title>
<path fill="none" stroke="black" d="M165.33,-389.5C172.46,-437.88 196.35,-553.56 266.75,-613.38 277.07,-622.14 290.61,-627.19 303.72,-630.06"/>
<polygon fill="black" stroke="black" points="168.82,-389.16 164,-379.73 161.88,-390.11 168.82,-389.16"/>
</g>
<!-- Node15 -->
<g id="Node000015" class="node">
<title>Node15</title>
<g id="a_Node000015"><a xlink:href="group__FLASHEx__MassErase__bit.html" target="_top" xlink:title=" ">
<polygon fill="white" stroke="#666666" points="406.12,-604.75 294.12,-604.75 294.12,-584 406.12,-584 406.12,-604.75"/>
<text text-anchor="middle" x="350.12" y="-591.25" font-family="Helvetica,sans-Serif" font-size="10.00">FLASH Mass Erase bit</text>
</a>
</g>
</g>
<!-- Node1&#45;&gt;Node15 -->
<g id="edge14" class="edge">
<title>Node1&#45;&gt;Node15</title>
<path fill="none" stroke="black" d="M167.04,-389.03C176.91,-431.7 204.94,-526.74 266.75,-575.38 274.59,-581.55 284.08,-585.78 293.79,-588.67"/>
<polygon fill="black" stroke="black" points="170.51,-388.52 164.95,-379.5 163.67,-390.01 170.51,-388.52"/>
</g>
<!-- Node8 -->
<g id="Node000008" class="node">
<title>Node8</title>
<g id="a_Node000008"><a xlink:href="group__FLASHEx__Option__Bytes__IWatchdog.html" target="_top" xlink:title=" ">
<polygon fill="white" stroke="#666666" points="403.12,-566.12 297.12,-566.12 297.12,-532.62 403.12,-532.62 403.12,-566.12"/>
<text text-anchor="start" x="305.12" y="-552.62" font-family="Helvetica,sans-Serif" font-size="10.00">FLASH Option Bytes</text>
<text text-anchor="middle" x="350.12" y="-539.88" font-family="Helvetica,sans-Serif" font-size="10.00"> IWatchdog</text>
</a>
</g>
</g>
<!-- Node1&#45;&gt;Node8 -->
<g id="edge7" class="edge">
<title>Node1&#45;&gt;Node8</title>
<path fill="none" stroke="black" d="M171.05,-388.28C185.59,-421.73 218.53,-487.17 266.75,-523.38 275.62,-530.04 286.25,-535.02 296.88,-538.74"/>
<polygon fill="black" stroke="black" points="174.37,-387.14 167.27,-379.28 167.92,-389.86 174.37,-387.14"/>
</g>
<!-- Node18 -->
<g id="Node000018" class="node">
<title>Node18</title>
<g id="a_Node000018"><a xlink:href="group__FLASHEx__Option__Bytes__PC__ReadWrite__Protection.html" target="_top" xlink:title=" ">
<polygon fill="white" stroke="#666666" points="415.12,-514.12 285.12,-514.12 285.12,-480.62 415.12,-480.62 415.12,-514.12"/>
<text text-anchor="start" x="293.12" y="-500.62" font-family="Helvetica,sans-Serif" font-size="10.00">FLASH Option Bytes</text>
<text text-anchor="middle" x="350.12" y="-487.88" font-family="Helvetica,sans-Serif" font-size="10.00"> PC ReadWrite Protection</text>
</a>
</g>
</g>
<!-- Node1&#45;&gt;Node18 -->
<g id="edge17" class="edge">
<title>Node1&#45;&gt;Node18</title>
<path fill="none" stroke="black" d="M177.49,-387.18C195.98,-410.49 229.67,-448.88 266.75,-471.38 272.39,-474.8 278.53,-477.81 284.82,-480.46"/>
<polygon fill="black" stroke="black" points="180.35,-385.15 171.46,-379.39 174.82,-389.44 180.35,-385.15"/>
</g>
<!-- Node7 -->
<g id="Node000007" class="node">
<title>Node7</title>
<g id="a_Node000007"><a xlink:href="group__FLASHEx__Option__Bytes__Read__Protection.html" target="_top" xlink:title=" ">
<polygon fill="white" stroke="#666666" points="403.12,-462.12 297.12,-462.12 297.12,-428.62 403.12,-428.62 403.12,-462.12"/>
<text text-anchor="start" x="305.12" y="-448.62" font-family="Helvetica,sans-Serif" font-size="10.00">FLASH Option Bytes</text>
<text text-anchor="middle" x="350.12" y="-435.88" font-family="Helvetica,sans-Serif" font-size="10.00"> Read Protection</text>
</a>
</g>
</g>
<!-- Node1&#45;&gt;Node7 -->
<g id="edge6" class="edge">
<title>Node1&#45;&gt;Node7</title>
<path fill="none" stroke="black" d="M191.76,-383.48C212.33,-394.46 240.75,-408.86 266.75,-419.38 276.34,-423.26 286.75,-426.93 296.83,-430.24"/>
<polygon fill="black" stroke="black" points="193.57,-380.48 183.11,-378.81 190.25,-386.64 193.57,-380.48"/>
</g>
<!-- Node17 -->
<g id="Node000017" class="node">
<title>Node17</title>
<g id="a_Node000017"><a xlink:href="group__FLASHEx__Option__Bytes__Write__Protection.html" target="_top" xlink:title=" ">
<polygon fill="white" stroke="#666666" points="403.12,-410.12 297.12,-410.12 297.12,-376.62 403.12,-376.62 403.12,-410.12"/>
<text text-anchor="start" x="305.12" y="-396.62" font-family="Helvetica,sans-Serif" font-size="10.00">FLASH Option Bytes</text>
<text text-anchor="middle" x="350.12" y="-383.88" font-family="Helvetica,sans-Serif" font-size="10.00"> Write Protection</text>
</a>
</g>
</g>
<!-- Node1&#45;&gt;Node17 -->
<g id="edge16" class="edge">
<title>Node1&#45;&gt;Node17</title>
<path fill="none" stroke="black" d="M242.36,-378.49C260.78,-381.06 279.92,-383.73 296.82,-386.08"/>
<polygon fill="black" stroke="black" points="242.9,-375.03 232.51,-377.12 241.93,-381.97 242.9,-375.03"/>
</g>
<!-- Node10 -->
<g id="Node000010" class="node">
<title>Node10</title>
<g id="a_Node000010"><a xlink:href="group__FLASHEx__Option__Bytes__nRST__STDBY.html" target="_top" xlink:title=" ">
<polygon fill="white" stroke="#666666" points="403.12,-358.12 297.12,-358.12 297.12,-324.62 403.12,-324.62 403.12,-358.12"/>
<text text-anchor="start" x="305.12" y="-344.62" font-family="Helvetica,sans-Serif" font-size="10.00">FLASH Option Bytes</text>
<text text-anchor="middle" x="350.12" y="-331.88" font-family="Helvetica,sans-Serif" font-size="10.00"> nRST_STDBY</text>
</a>
</g>
</g>
<!-- Node1&#45;&gt;Node10 -->
<g id="edge9" class="edge">
<title>Node1&#45;&gt;Node10</title>
<path fill="none" stroke="black" d="M242.36,-356.26C260.78,-353.69 279.92,-351.02 296.82,-348.67"/>
<polygon fill="black" stroke="black" points="241.93,-352.78 232.51,-357.63 242.9,-359.72 241.93,-352.78"/>
</g>
<!-- Node9 -->
<g id="Node000009" class="node">
<title>Node9</title>
<g id="a_Node000009"><a xlink:href="group__FLASHEx__Option__Bytes__nRST__STOP.html" target="_top" xlink:title=" ">
<polygon fill="white" stroke="#666666" points="403.12,-306.12 297.12,-306.12 297.12,-272.62 403.12,-272.62 403.12,-306.12"/>
<text text-anchor="start" x="305.12" y="-292.62" font-family="Helvetica,sans-Serif" font-size="10.00">FLASH Option Bytes</text>
<text text-anchor="middle" x="350.12" y="-279.88" font-family="Helvetica,sans-Serif" font-size="10.00"> nRST_STOP</text>
</a>
</g>
</g>
<!-- Node1&#45;&gt;Node9 -->
<g id="edge8" class="edge">
<title>Node1&#45;&gt;Node9</title>
<path fill="none" stroke="black" d="M191.76,-351.27C212.33,-340.29 240.75,-325.89 266.75,-315.38 276.34,-311.49 286.75,-307.82 296.83,-304.51"/>
<polygon fill="black" stroke="black" points="190.25,-348.11 183.11,-355.94 193.57,-354.27 190.25,-348.11"/>
</g>
<!-- Node6 -->
<g id="Node000006" class="node">
<title>Node6</title>
<g id="a_Node000006"><a xlink:href="group__FLASHEx__Option__Type.html" target="_top" xlink:title=" ">
<polygon fill="white" stroke="#666666" points="402,-254.75 298.25,-254.75 298.25,-234 402,-234 402,-254.75"/>
<text text-anchor="middle" x="350.12" y="-241.25" font-family="Helvetica,sans-Serif" font-size="10.00">FLASH Option Type</text>
</a>
</g>
</g>
<!-- Node1&#45;&gt;Node6 -->
<g id="edge5" class="edge">
<title>Node1&#45;&gt;Node6</title>
<path fill="none" stroke="black" d="M176.92,-347.44C195.06,-323.66 228.61,-284.49 266.75,-263.38 276.25,-258.11 287.14,-254.31 297.83,-251.55"/>
<polygon fill="black" stroke="black" points="174.18,-345.26 171.02,-355.37 179.8,-349.43 174.18,-345.26"/>
</g>
<!-- Node16 -->
<g id="Node000016" class="node">
<title>Node16</title>
<g id="a_Node000016"><a xlink:href="group__FLASHEx__Sectors.html" target="_top" xlink:title=" ">
<polygon fill="white" stroke="#666666" points="390.75,-215.75 309.5,-215.75 309.5,-195 390.75,-195 390.75,-215.75"/>
<text text-anchor="middle" x="350.12" y="-202.25" font-family="Helvetica,sans-Serif" font-size="10.00">FLASH Sectors</text>
</a>
</g>
</g>
<!-- Node1&#45;&gt;Node16 -->
<g id="edge15" class="edge">
<title>Node1&#45;&gt;Node16</title>
<path fill="none" stroke="black" d="M171.95,-346.68C187.15,-315.37 220.31,-256.34 266.75,-225.38 279.24,-217.05 294.85,-212.18 309.12,-209.34"/>
<polygon fill="black" stroke="black" points="168.89,-344.94 167.81,-355.48 175.23,-347.92 168.89,-344.94"/>
</g>
<!-- Node20 -->
<g id="Node000020" class="node">
<title>Node20</title>
<g id="a_Node000020"><a xlink:href="group__FLASHEx__Selection__Protection__Mode.html" target="_top" xlink:title=" ">
<polygon fill="white" stroke="#666666" points="433.5,-176.75 266.75,-176.75 266.75,-156 433.5,-156 433.5,-176.75"/>
<text text-anchor="middle" x="350.12" y="-163.25" font-family="Helvetica,sans-Serif" font-size="10.00">FLASH Selection Protection Mode</text>
</a>
</g>
</g>
<!-- Node1&#45;&gt;Node20 -->
<g id="edge19" class="edge">
<title>Node1&#45;&gt;Node20</title>
<path fill="none" stroke="black" d="M168.76,-345.97C180.85,-307.72 211.53,-227.79 266.75,-186.38 271.69,-182.67 277.23,-179.64 283.04,-177.16"/>
<polygon fill="black" stroke="black" points="165.46,-344.78 165.91,-355.37 172.16,-346.81 165.46,-344.78"/>
</g>
<!-- Node3 -->
<g id="Node000003" class="node">
<title>Node3</title>
<g id="a_Node000003"><a xlink:href="group__FLASHEx__Type__Erase.html" target="_top" xlink:title=" ">
<polygon fill="white" stroke="#666666" points="398.62,-137.75 301.62,-137.75 301.62,-117 398.62,-117 398.62,-137.75"/>
<text text-anchor="middle" x="350.12" y="-124.25" font-family="Helvetica,sans-Serif" font-size="10.00">FLASH Type Erase</text>
</a>
</g>
</g>
<!-- Node1&#45;&gt;Node3 -->
<g id="edge2" class="edge">
<title>Node1&#45;&gt;Node3</title>
<path fill="none" stroke="black" d="M166.51,-345.47C175.58,-300.96 202.5,-199.7 266.75,-147.38 276.56,-139.38 289.08,-134.5 301.38,-131.55"/>
<polygon fill="black" stroke="black" points="163.09,-344.7 164.65,-355.18 169.97,-346.02 163.09,-344.7"/>
</g>
<!-- Node4 -->
<g id="Node000004" class="node">
<title>Node4</title>
<g id="a_Node000004"><a xlink:href="group__FLASHEx__Voltage__Range.html" target="_top" xlink:title=" ">
<polygon fill="white" stroke="#666666" points="407.25,-98.75 293,-98.75 293,-78 407.25,-78 407.25,-98.75"/>
<text text-anchor="middle" x="350.12" y="-85.25" font-family="Helvetica,sans-Serif" font-size="10.00">FLASH Voltage Range</text>
</a>
</g>
</g>
<!-- Node1&#45;&gt;Node4 -->
<g id="edge3" class="edge">
<title>Node1&#45;&gt;Node4</title>
<path fill="none" stroke="black" d="M164.82,-345.13C171.01,-294.87 193.26,-171.97 266.75,-108.38 274.21,-101.92 283.4,-97.48 292.92,-94.43"/>
<polygon fill="black" stroke="black" points="161.35,-344.69 163.71,-355.01 168.31,-345.47 161.35,-344.69"/>
</g>
<!-- Node5 -->
<g id="Node000005" class="node">
<title>Node5</title>
<g id="a_Node000005"><a xlink:href="group__FLASHEx__WRP__State.html" target="_top" xlink:title=" ">
<polygon fill="white" stroke="#666666" points="397.88,-59.75 302.38,-59.75 302.38,-39 397.88,-39 397.88,-59.75"/>
<text text-anchor="middle" x="350.12" y="-46.25" font-family="Helvetica,sans-Serif" font-size="10.00">FLASH WRP State</text>
</a>
</g>
</g>
<!-- Node1&#45;&gt;Node5 -->
<g id="edge4" class="edge">
<title>Node1&#45;&gt;Node5</title>
<path fill="none" stroke="black" d="M163.49,-345.27C166.88,-289.96 183.68,-144.68 266.75,-69.38 276.45,-60.58 289.37,-55.48 302.08,-52.57"/>
<polygon fill="black" stroke="black" points="159.99,-345.07 162.98,-355.24 166.98,-345.43 159.99,-345.07"/>
</g>
<!-- Node13 -->
<g id="Node000013" class="node">
<title>Node13</title>
<g id="a_Node000013"><a xlink:href="group__FLASH__Latency.html" target="_top" xlink:title=" ">
<polygon fill="white" stroke="#666666" points="391.5,-20.75 308.75,-20.75 308.75,0 391.5,0 391.5,-20.75"/>
<text text-anchor="middle" x="350.12" y="-7.25" font-family="Helvetica,sans-Serif" font-size="10.00">FLASH Latency</text>
</a>
</g>
</g>
<!-- Node1&#45;&gt;Node13 -->
<g id="edge12" class="edge">
<title>Node1&#45;&gt;Node13</title>
<path fill="none" stroke="black" d="M162.45,-345.27C163.24,-285.17 174.07,-117.53 266.75,-30.38 277.9,-19.89 293.59,-14.62 308.28,-12.07"/>
<polygon fill="black" stroke="black" points="158.95,-345.16 162.42,-355.17 165.95,-345.18 158.95,-345.16"/>
</g>
</g>
</svg>

<g id="navigator" transform="translate(0 0)" fill="#404254">
  <rect fill="#f2f5e9" fill-opacity="0.5" stroke="#606060" stroke-width=".5" x="0" y="0" width="60" height="60"/>
  <use id="zoomplus" xlink:href="#zoomPlus" x="17" y="9" onmousedown="handleZoom(evt,'in')"/>
  <use id="zoomminus" xlink:href="#zoomMin" x="42" y="9" onmousedown="handleZoom(evt,'out')"/>
  <use id="reset" xlink:href="#resetDef" x="30" y="36" onmousedown="handleReset()"/>
   <use id="arrowup" xlink:href="#arrowUp" x="0" y="0" onmousedown="handlePan(0,-1)"/>
  <use id="arrowright" xlink:href="#arrowRight" x="0" y="0" onmousedown="handlePan(1,0)"/>
  <use id="arrowdown" xlink:href="#arrowDown" x="0" y="0" onmousedown="handlePan(0,1)"/>
  <use id="arrowleft" xlink:href="#arrowLeft" x="0" y="0" onmousedown="handlePan(-1,0)"/>
</g>
<svg viewBox="0 0 15 15" width="100%" height="30px" preserveAspectRatio="xMaxYMin meet">
 <g id="arrow_out" transform="scale(0.3 0.3)">
  <a xlink:href="group__FLASHEx__Exported__Constants_org.svg" target="_base">
   <rect id="button" ry="5" rx="5" y="6" x="6" height="38" width="38"
        fill="#f2f5e9" fill-opacity="0.5" stroke="#606060" stroke-width="1.0"/>
   <path id="arrow"
     d="M 11.500037,31.436501 C 11.940474,20.09759 22.043105,11.32322 32.158766,21.979434 L 37.068811,17.246167 C 37.068811,17.246167 37.088388,32 37.088388,32 L 22.160133,31.978069 C 22.160133,31.978069 26.997745,27.140456 26.997745,27.140456 C 18.528582,18.264221 13.291696,25.230495 11.500037,31.436501 z"
     style="fill:#404040;"/>
  </a>
 </g>
</svg>

<style type='text/css'>
<![CDATA[
[data-mouse-over-selected='false'] { opacity: 0.7; }
[data-mouse-over-selected='true']  { opacity: 1.0; }
]]>
</style>
<script type="application/ecmascript"><![CDATA[
document.addEventListener('DOMContentLoaded', (event) => {
  highlightEdges();
  highlightAdjacentNodes();
});
]]></script>
</svg>
