<?xml version="1.0" encoding="UTF-8" standalone="no"?>
<!DOCTYPE svg PUBLIC "-//W3C//DTD SVG 1.1//EN"
 "http://www.w3.org/Graphics/SVG/1.1/DTD/svg11.dtd">
<!-- Generated by graphviz version 2.43.0 (0)
 -->
<!-- Title: I2C Exported Types Pages: 1 -->
<svg width="370pt" height="220pt"
 viewBox="0.00 0.00 370.00 220.00" xmlns="http://www.w3.org/2000/svg" xmlns:xlink="http://www.w3.org/1999/xlink">

<svg id="main" version="1.1" xmlns="http://www.w3.org/2000/svg" xmlns:xlink="http://www.w3.org/1999/xlink" xml:space="preserve" onload="init(evt)">
<style type="text/css"><![CDATA[
.node, .edge {opacity: 0.7;}
.node.selected, .edge.selected {opacity: 1;}
.edge:hover path { stroke: red; }
.edge:hover polygon { stroke: red; fill: red; }
]]></style>
<script type="application/ecmascript" xlink:href="svg.min.js"/>
<svg id="graph" class="graph">
<g id="graph0" class="graph" transform="scale(1 1) rotate(0) translate(4 216)">
<title>I2C Exported Types</title>
<!-- Node5 -->
<g id="Node000005" class="node">
<title>Node5</title>
<g id="a_Node000005"><a xlink:href="group__HAL__mode__structure__definition.html" target="_top" xlink:title="HAL Mode structure definition.">
<polygon fill="white" stroke="#666666" points="344.5,-212 231.5,-212 231.5,-182 344.5,-182 344.5,-212"/>
<text text-anchor="start" x="239.5" y="-200" font-family="Helvetica,sans-Serif" font-size="10.00">HAL mode structure</text>
<text text-anchor="middle" x="288" y="-189" font-family="Helvetica,sans-Serif" font-size="10.00"> definition</text>
</a>
</g>
</g>
<!-- Node4 -->
<g id="Node000004" class="node">
<title>Node4</title>
<g id="a_Node000004"><a xlink:href="group__HAL__state__structure__definition.html" target="_top" xlink:title="HAL State structure definition.">
<polygon fill="white" stroke="#666666" points="343,-164 233,-164 233,-134 343,-134 343,-164"/>
<text text-anchor="start" x="241" y="-152" font-family="Helvetica,sans-Serif" font-size="10.00">HAL state structure</text>
<text text-anchor="middle" x="288" y="-141" font-family="Helvetica,sans-Serif" font-size="10.00"> definition</text>
</a>
</g>
</g>
<!-- Node2 -->
<g id="Node000002" class="node">
<title>Node2</title>
<g id="a_Node000002"><a xlink:href="group__I2C.html" target="_top" xlink:title="I2C HAL module driver.">
<polygon fill="white" stroke="#666666" points="32,-110.5 0,-110.5 0,-91.5 32,-91.5 32,-110.5"/>
<text text-anchor="middle" x="16" y="-98.5" font-family="Helvetica,sans-Serif" font-size="10.00">I2C</text>
</a>
</g>
</g>
<!-- Node1 -->
<g id="Node000001" class="node">
<title>Node1</title>
<g id="a_Node000001"><a xlink:title=" ">
<polygon fill="#999999" stroke="#666666" points="178,-110.5 68,-110.5 68,-91.5 178,-91.5 178,-110.5"/>
<text text-anchor="middle" x="123" y="-98.5" font-family="Helvetica,sans-Serif" font-size="10.00">I2C Exported Types</text>
</a>
</g>
</g>
<!-- Node2&#45;&gt;Node1 -->
<g id="edge1" class="edge">
<title>Node2&#45;&gt;Node1</title>
<path fill="none" stroke="black" d="M42.15,-101C49.89,-101 58.73,-101 67.65,-101"/>
<polygon fill="black" stroke="black" points="42.04,-97.5 32.04,-101 42.04,-104.5 42.04,-97.5"/>
</g>
<!-- Node3 -->
<g id="Node000003" class="node">
<title>Node3</title>
<g id="a_Node000003"><a xlink:href="group__I2C__Configuration__Structure__definition.html" target="_top" xlink:title="I2C Configuration Structure definition.">
<polygon fill="white" stroke="#666666" points="362,-116 214,-116 214,-86 362,-86 362,-116"/>
<text text-anchor="start" x="222" y="-104" font-family="Helvetica,sans-Serif" font-size="10.00">I2C Configuration Structure</text>
<text text-anchor="middle" x="288" y="-93" font-family="Helvetica,sans-Serif" font-size="10.00"> definition</text>
</a>
</g>
</g>
<!-- Node6 -->
<g id="Node000006" class="node">
<title>Node6</title>
<g id="a_Node000006"><a xlink:href="group__I2C__Error__Code__definition.html" target="_top" xlink:title="I2C Error Code definition.">
<polygon fill="white" stroke="#666666" points="355.5,-67.5 220.5,-67.5 220.5,-48.5 355.5,-48.5 355.5,-67.5"/>
<text text-anchor="middle" x="288" y="-55.5" font-family="Helvetica,sans-Serif" font-size="10.00">I2C Error Code definition</text>
</a>
</g>
</g>
<!-- Node1&#45;&gt;Node5 -->
<g id="edge4" class="edge">
<title>Node1&#45;&gt;Node5</title>
<path fill="none" stroke="black" d="M141.21,-117.92C158.39,-134.01 186.18,-157.94 214,-173 220.1,-176.3 226.73,-179.25 233.43,-181.86"/>
<polygon fill="black" stroke="black" points="143.32,-115.1 133.67,-110.72 138.48,-120.16 143.32,-115.1"/>
</g>
<!-- Node1&#45;&gt;Node4 -->
<g id="edge3" class="edge">
<title>Node1&#45;&gt;Node4</title>
<path fill="none" stroke="black" d="M166.31,-113.46C187.56,-119.72 213.48,-127.35 235.85,-133.94"/>
<polygon fill="black" stroke="black" points="167.18,-110.07 156.59,-110.6 165.2,-116.78 167.18,-110.07"/>
</g>
<!-- Node1&#45;&gt;Node3 -->
<g id="edge2" class="edge">
<title>Node1&#45;&gt;Node3</title>
<path fill="none" stroke="black" d="M188.33,-101C196.7,-101 205.32,-101 213.81,-101"/>
<polygon fill="black" stroke="black" points="188.28,-97.5 178.28,-101 188.28,-104.5 188.28,-97.5"/>
</g>
<!-- Node1&#45;&gt;Node6 -->
<g id="edge5" class="edge">
<title>Node1&#45;&gt;Node6</title>
<path fill="none" stroke="black" d="M169.52,-88.8C183.76,-85 199.53,-80.81 214,-77 225.78,-73.9 238.63,-70.54 250.23,-67.53"/>
<polygon fill="black" stroke="black" points="168.22,-85.53 159.47,-91.49 170.03,-92.29 168.22,-85.53"/>
</g>
<!-- Node7 -->
<g id="Node000007" class="node">
<title>Node7</title>
<g id="a_Node000007"><a xlink:href="group__I2C__handle__Structure__definition.html" target="_top" xlink:title="I2C handle Structure definition.">
<polygon fill="white" stroke="#666666" points="346,-30 230,-30 230,0 346,0 346,-30"/>
<text text-anchor="start" x="238" y="-18" font-family="Helvetica,sans-Serif" font-size="10.00">I2C handle Structure</text>
<text text-anchor="middle" x="288" y="-7" font-family="Helvetica,sans-Serif" font-size="10.00"> definition</text>
</a>
</g>
</g>
<!-- Node1&#45;&gt;Node7 -->
<g id="edge6" class="edge">
<title>Node1&#45;&gt;Node7</title>
<path fill="none" stroke="black" d="M143.85,-84.85C161.43,-71.16 188.24,-51.78 214,-39 220.57,-35.74 227.69,-32.77 234.82,-30.12"/>
<polygon fill="black" stroke="black" points="141.21,-82.47 135.55,-91.42 145.56,-87.95 141.21,-82.47"/>
</g>
</g>
</svg>
</svg>

<style type='text/css'>
<![CDATA[
[data-mouse-over-selected='false'] { opacity: 0.7; }
[data-mouse-over-selected='true']  { opacity: 1.0; }
]]>
</style>
<script type="application/ecmascript"><![CDATA[
document.addEventListener('DOMContentLoaded', (event) => {
  highlightEdges();
  highlightAdjacentNodes();
});
]]></script>
</svg>
