<?xml version="1.0" encoding="UTF-8" standalone="no"?>
<!DOCTYPE svg PUBLIC "-//W3C//DTD SVG 1.1//EN"
 "http://www.w3.org/Graphics/SVG/1.1/DTD/svg11.dtd">
<!-- Generated by graphviz version 12.2.1 (20241206.2353)
 -->
<!-- Title: DMA Exported Functions Pages: 1 -->
<svg width="377pt" height="119pt"
 viewBox="0.00 0.00 377.00 119.12" xmlns="http://www.w3.org/2000/svg" xmlns:xlink="http://www.w3.org/1999/xlink">

<svg id="main" version="1.1" xmlns="http://www.w3.org/2000/svg" xmlns:xlink="http://www.w3.org/1999/xlink" xml:space="preserve">

<style type="text/css"><![CDATA[
.node, .edge {opacity: 0.7;}
.node.selected, .edge.selected {opacity: 1;}
.edge:hover path { stroke: red; }
.edge:hover polygon { stroke: red; fill: red; }
]]></style>
<script type="application/ecmascript" xlink:href="svg.min.js"/>
<svg id="graph" class="graph">
<g id="graph0" class="graph" transform="scale(1 1) rotate(0) translate(4 115.12)">
<title>DMA Exported Functions</title>
<!-- Node2 -->
<g id="Node000002" class="node">
<title>Node2</title>
<g id="a_Node000002"><a xlink:href="group__DMA.html" target="_top" xlink:title="DMA HAL module driver.">
<polygon fill="white" stroke="#666666" points="37,-59.75 0,-59.75 0,-39 37,-39 37,-59.75"/>
<text text-anchor="middle" x="18.5" y="-46.25" font-family="Helvetica,sans-Serif" font-size="10.00">DMA</text>
</a>
</g>
</g>
<!-- Node1 -->
<g id="Node000001" class="node">
<title>Node1</title>
<g id="a_Node000001"><a xlink:title="DMA Exported functions.">
<polygon fill="#999999" stroke="#666666" points="200,-59.75 73,-59.75 73,-39 200,-39 200,-59.75"/>
<text text-anchor="middle" x="136.5" y="-46.25" font-family="Helvetica,sans-Serif" font-size="10.00">DMA Exported Functions</text>
</a>
</g>
</g>
<!-- Node2&#45;&gt;Node1 -->
<g id="edge1" class="edge">
<title>Node2&#45;&gt;Node1</title>
<path fill="none" stroke="black" d="M48.79,-49.38C56.11,-49.38 64.24,-49.38 72.51,-49.38"/>
<polygon fill="black" stroke="black" points="48.88,-45.88 38.88,-49.38 48.88,-52.88 48.88,-45.88"/>
</g>
<!-- Node3 -->
<g id="Node000003" class="node">
<title>Node3</title>
<g id="a_Node000003"><a xlink:href="group__DMA__Exported__Functions__Group1.html" target="_top" xlink:title="Initialization and de&#45;initialization functions.">
<polygon fill="white" stroke="#666666" points="369,-111.12 236,-111.12 236,-77.62 369,-77.62 369,-111.12"/>
<text text-anchor="start" x="244" y="-97.62" font-family="Helvetica,sans-Serif" font-size="10.00">Initialization and</text>
<text text-anchor="middle" x="302.5" y="-84.88" font-family="Helvetica,sans-Serif" font-size="10.00"> de&#45;initialization functions</text>
</a>
</g>
</g>
<!-- Node1&#45;&gt;Node3 -->
<g id="edge2" class="edge">
<title>Node1&#45;&gt;Node3</title>
<path fill="none" stroke="black" d="M187.62,-63.13C203.78,-67.56 221.9,-72.53 238.84,-77.18"/>
<polygon fill="black" stroke="black" points="188.81,-59.83 178.24,-60.55 186.96,-66.58 188.81,-59.83"/>
</g>
<!-- Node4 -->
<g id="Node000004" class="node">
<title>Node4</title>
<g id="a_Node000004"><a xlink:href="group__DMA__Exported__Functions__Group2.html" target="_top" xlink:title="I/O operation functions.">
<polygon fill="white" stroke="#666666" points="363,-59.75 242,-59.75 242,-39 363,-39 363,-59.75"/>
<text text-anchor="middle" x="302.5" y="-46.25" font-family="Helvetica,sans-Serif" font-size="10.00">I/O operation functions</text>
</a>
</g>
</g>
<!-- Node1&#45;&gt;Node4 -->
<g id="edge3" class="edge">
<title>Node1&#45;&gt;Node4</title>
<path fill="none" stroke="black" d="M211.68,-49.38C221.73,-49.38 231.94,-49.38 241.7,-49.38"/>
<polygon fill="black" stroke="black" points="211.95,-45.88 201.95,-49.38 211.95,-52.88 211.95,-45.88"/>
</g>
<!-- Node5 -->
<g id="Node000005" class="node">
<title>Node5</title>
<g id="a_Node000005"><a xlink:href="group__DMA__Exported__Functions__Group3.html" target="_top" xlink:title="Peripheral State functions.">
<polygon fill="white" stroke="#666666" points="368.62,-20.75 236.38,-20.75 236.38,0 368.62,0 368.62,-20.75"/>
<text text-anchor="middle" x="302.5" y="-7.25" font-family="Helvetica,sans-Serif" font-size="10.00">Peripheral State functions</text>
</a>
</g>
</g>
<!-- Node1&#45;&gt;Node5 -->
<g id="edge4" class="edge">
<title>Node1&#45;&gt;Node5</title>
<path fill="none" stroke="black" d="M194.11,-35.91C214.25,-31.12 236.66,-25.79 255.78,-21.25"/>
<polygon fill="black" stroke="black" points="193.57,-32.44 184.66,-38.16 195.19,-39.25 193.57,-32.44"/>
</g>
</g>
</svg>
</svg>

<style type='text/css'>
<![CDATA[
[data-mouse-over-selected='false'] { opacity: 0.7; }
[data-mouse-over-selected='true']  { opacity: 1.0; }
]]>
</style>
<script type="application/ecmascript"><![CDATA[
document.addEventListener('DOMContentLoaded', (event) => {
  highlightEdges();
  highlightAdjacentNodes();
});
]]></script>
</svg>
