<?xml version="1.0" encoding="UTF-8" standalone="no"?>
<!DOCTYPE svg PUBLIC "-//W3C//DTD SVG 1.1//EN"
 "http://www.w3.org/Graphics/SVG/1.1/DTD/svg11.dtd">
<!-- Generated by graphviz version 12.2.1 (20241206.2353)
 -->
<!-- Title: RCC Private Constants Pages: 1 -->
<svg width="373pt" height="29pt"
 viewBox="0.00 0.00 373.25 28.75" xmlns="http://www.w3.org/2000/svg" xmlns:xlink="http://www.w3.org/1999/xlink">
<g id="page0,1_graph0" class="graph" transform="scale(1 1) rotate(0) translate(4 24.75)">
<title>RCC Private Constants</title>
<!-- Node2 -->
<g id="Node000002" class="node">
<title>Node2</title>
<g id="a_Node000002"><a xlink:href="group__RCC.html" target="_top" xlink:title="RCC HAL module driver.">
<polygon fill="white" stroke="#666666" points="35.5,-20.75 0,-20.75 0,0 35.5,0 35.5,-20.75"/>
<text text-anchor="middle" x="17.75" y="-7.25" font-family="Helvetica,sans-Serif" font-size="10.00">RCC</text>
</a>
</g>
</g>
<!-- Node1 -->
<g id="Node000001" class="node">
<title>Node1</title>
<g id="a_Node000001"><a xlink:title=" ">
<polygon fill="#999999" stroke="#666666" points="188.75,-20.75 71.5,-20.75 71.5,0 188.75,0 188.75,-20.75"/>
<text text-anchor="middle" x="130.12" y="-7.25" font-family="Helvetica,sans-Serif" font-size="10.00">RCC Private Constants</text>
</a>
</g>
</g>
<!-- Node2&#45;&gt;Node1 -->
<g id="edge1" class="edge">
<title>Node2&#45;&gt;Node1</title>
<path fill="none" stroke="black" d="M47.5,-10.38C54.87,-10.38 63.07,-10.38 71.35,-10.38"/>
<polygon fill="black" stroke="black" points="47.51,-6.88 37.51,-10.38 47.51,-13.88 47.51,-6.88"/>
</g>
<!-- Node3 -->
<g id="Node000003" class="node">
<title>Node3</title>
<g id="a_Node000003"><a xlink:href="group__RCC__BitAddress__AliasRegion.html" target="_top" xlink:title="RCC registers bit address in the alias region.">
<polygon fill="white" stroke="#666666" points="365.25,-20.75 224.75,-20.75 224.75,0 365.25,0 365.25,-20.75"/>
<text text-anchor="middle" x="295" y="-7.25" font-family="Helvetica,sans-Serif" font-size="10.00">RCC BitAddress AliasRegion</text>
</a>
</g>
</g>
<!-- Node1&#45;&gt;Node3 -->
<g id="edge2" class="edge">
<title>Node1&#45;&gt;Node3</title>
<path fill="none" stroke="black" d="M200.44,-10.38C208.35,-10.38 216.41,-10.38 224.32,-10.38"/>
<polygon fill="black" stroke="black" points="200.52,-6.88 190.52,-10.38 200.52,-13.88 200.52,-6.88"/>
</g>
</g>
</svg>
