<?xml version="1.0" encoding="UTF-8" standalone="no"?>
<!DOCTYPE svg PUBLIC "-//W3C//DTD SVG 1.1//EN"
 "http://www.w3.org/Graphics/SVG/1.1/DTD/svg11.dtd">
<!-- Generated by graphviz version 2.43.0 (0)
 -->
<!-- Title: TIMEx Pages: 1 -->
<svg width="391pt" height="278pt"
 viewBox="0.00 0.00 391.00 278.00" xmlns="http://www.w3.org/2000/svg" xmlns:xlink="http://www.w3.org/1999/xlink">
<g id="graph0" class="graph" transform="scale(1 1) rotate(0) translate(4 274)">
<title>TIMEx</title>
<!-- Node2 -->
<g id="Node000002" class="node">
<title>Node2</title>
<g id="a_Node000002"><a xlink:href="group__STM32F4xx__HAL__Driver.html" target="_top" xlink:title=" ">
<polygon fill="white" stroke="#666666" points="134,-144.5 0,-144.5 0,-125.5 134,-125.5 134,-144.5"/>
<text text-anchor="middle" x="67" y="-132.5" font-family="Helvetica,sans-Serif" font-size="10.00">STM32F4xx_HAL_Driver</text>
</a>
</g>
</g>
<!-- Node1 -->
<g id="Node000001" class="node">
<title>Node1</title>
<g id="a_Node000001"><a xlink:title="TIM Extended HAL module driver.">
<polygon fill="#999999" stroke="#666666" points="217,-144.5 170,-144.5 170,-125.5 217,-125.5 217,-144.5"/>
<text text-anchor="middle" x="193.5" y="-132.5" font-family="Helvetica,sans-Serif" font-size="10.00">TIMEx</text>
</a>
</g>
</g>
<!-- Node2&#45;&gt;Node1 -->
<g id="edge1" class="edge">
<title>Node2&#45;&gt;Node1</title>
<path fill="none" stroke="black" d="M144.35,-135C153.53,-135 162.28,-135 169.74,-135"/>
<polygon fill="black" stroke="black" points="144.26,-131.5 134.26,-135 144.26,-138.5 144.26,-131.5"/>
</g>
<!-- Node4 -->
<g id="Node000004" class="node">
<title>Node4</title>
<g id="a_Node000004"><a xlink:href="group__TIMEx__Exported__Constants.html" target="_top" xlink:title=" ">
<polygon fill="white" stroke="#666666" points="383,-270 253,-270 253,-240 383,-240 383,-270"/>
<text text-anchor="start" x="261" y="-258" font-family="Helvetica,sans-Serif" font-size="10.00">TIM Extended Exported</text>
<text text-anchor="middle" x="318" y="-247" font-family="Helvetica,sans-Serif" font-size="10.00"> Constants</text>
</a>
</g>
</g>
<!-- Node1&#45;&gt;Node4 -->
<g id="edge3" class="edge">
<title>Node1&#45;&gt;Node4</title>
<path fill="none" stroke="black" d="M201.6,-153.99C210.52,-175.46 227.8,-210.15 253,-231 257.11,-234.4 261.76,-237.35 266.62,-239.9"/>
<polygon fill="black" stroke="black" points="204.82,-152.63 197.89,-144.62 198.32,-155.21 204.82,-152.63"/>
</g>
<!-- Node7 -->
<g id="Node000007" class="node">
<title>Node7</title>
<g id="a_Node000007"><a xlink:href="group__TIMEx__Exported__Functions.html" target="_top" xlink:title=" ">
<polygon fill="white" stroke="#666666" points="383,-222 253,-222 253,-192 383,-192 383,-222"/>
<text text-anchor="start" x="261" y="-210" font-family="Helvetica,sans-Serif" font-size="10.00">TIM Extended Exported</text>
<text text-anchor="middle" x="318" y="-199" font-family="Helvetica,sans-Serif" font-size="10.00"> Functions</text>
</a>
</g>
</g>
<!-- Node1&#45;&gt;Node7 -->
<g id="edge6" class="edge">
<title>Node1&#45;&gt;Node7</title>
<path fill="none" stroke="black" d="M211.41,-151.42C222.53,-161.55 237.8,-174.24 253,-183 258.65,-186.26 264.83,-189.23 271.05,-191.88"/>
<polygon fill="black" stroke="black" points="213.8,-148.86 204.1,-144.59 209.02,-153.97 213.8,-148.86"/>
</g>
<!-- Node5 -->
<g id="Node000005" class="node">
<title>Node5</title>
<g id="a_Node000005"><a xlink:href="group__TIMEx__Exported__Macros.html" target="_top" xlink:title=" ">
<polygon fill="white" stroke="#666666" points="383,-174 253,-174 253,-144 383,-144 383,-174"/>
<text text-anchor="start" x="261" y="-162" font-family="Helvetica,sans-Serif" font-size="10.00">TIM Extended Exported</text>
<text text-anchor="middle" x="318" y="-151" font-family="Helvetica,sans-Serif" font-size="10.00"> Macros</text>
</a>
</g>
</g>
<!-- Node1&#45;&gt;Node5 -->
<g id="edge4" class="edge">
<title>Node1&#45;&gt;Node5</title>
<path fill="none" stroke="black" d="M227.22,-141.41C235.22,-142.98 244.05,-144.71 252.97,-146.45"/>
<polygon fill="black" stroke="black" points="227.74,-137.95 217.25,-139.46 226.39,-144.82 227.74,-137.95"/>
</g>
<!-- Node3 -->
<g id="Node000003" class="node">
<title>Node3</title>
<g id="a_Node000003"><a xlink:href="group__TIMEx__Exported__Types.html" target="_top" xlink:title=" ">
<polygon fill="white" stroke="#666666" points="383,-126 253,-126 253,-96 383,-96 383,-126"/>
<text text-anchor="start" x="261" y="-114" font-family="Helvetica,sans-Serif" font-size="10.00">TIM Extended Exported</text>
<text text-anchor="middle" x="318" y="-103" font-family="Helvetica,sans-Serif" font-size="10.00"> Types</text>
</a>
</g>
</g>
<!-- Node1&#45;&gt;Node3 -->
<g id="edge2" class="edge">
<title>Node1&#45;&gt;Node3</title>
<path fill="none" stroke="black" d="M227.22,-128.59C235.22,-127.02 244.05,-125.29 252.97,-123.55"/>
<polygon fill="black" stroke="black" points="226.39,-125.18 217.25,-130.54 227.74,-132.05 226.39,-125.18"/>
</g>
<!-- Node8 -->
<g id="Node000008" class="node">
<title>Node8</title>
<g id="a_Node000008"><a xlink:href="group__TIMEx__Private__Functions.html" target="_top" xlink:title=" ">
<polygon fill="white" stroke="#666666" points="378.5,-78 257.5,-78 257.5,-48 378.5,-48 378.5,-78"/>
<text text-anchor="start" x="265.5" y="-66" font-family="Helvetica,sans-Serif" font-size="10.00">TIM Extended Private</text>
<text text-anchor="middle" x="318" y="-55" font-family="Helvetica,sans-Serif" font-size="10.00"> Functions</text>
</a>
</g>
</g>
<!-- Node1&#45;&gt;Node8 -->
<g id="edge7" class="edge">
<title>Node1&#45;&gt;Node8</title>
<path fill="none" stroke="black" d="M211.41,-118.58C222.53,-108.45 237.8,-95.76 253,-87 258.65,-83.74 264.83,-80.77 271.05,-78.12"/>
<polygon fill="black" stroke="black" points="209.02,-116.03 204.1,-125.41 213.8,-121.14 209.02,-116.03"/>
</g>
<!-- Node6 -->
<g id="Node000006" class="node">
<title>Node6</title>
<g id="a_Node000006"><a xlink:href="group__TIMEx__Private__Macros.html" target="_top" xlink:title=" ">
<polygon fill="white" stroke="#666666" points="378.5,-30 257.5,-30 257.5,0 378.5,0 378.5,-30"/>
<text text-anchor="start" x="265.5" y="-18" font-family="Helvetica,sans-Serif" font-size="10.00">TIM Extended Private</text>
<text text-anchor="middle" x="318" y="-7" font-family="Helvetica,sans-Serif" font-size="10.00"> Macros</text>
</a>
</g>
</g>
<!-- Node1&#45;&gt;Node6 -->
<g id="edge5" class="edge">
<title>Node1&#45;&gt;Node6</title>
<path fill="none" stroke="black" d="M201.6,-116.01C210.52,-94.54 227.8,-59.85 253,-39 257.11,-35.6 261.76,-32.65 266.62,-30.1"/>
<polygon fill="black" stroke="black" points="198.32,-114.79 197.89,-125.38 204.82,-117.37 198.32,-114.79"/>
</g>
</g>
</svg>
