<?xml version="1.0" encoding="UTF-8" standalone="no"?>
<!DOCTYPE svg PUBLIC "-//W3C//DTD SVG 1.1//EN"
 "http://www.w3.org/Graphics/SVG/1.1/DTD/svg11.dtd">
<!-- Generated by graphviz version 12.2.1 (20241206.2353)
 -->
<!-- Title: CORTEX Pages: 1 -->
<svg width="395pt" height="68pt"
 viewBox="0.00 0.00 395.00 67.75" xmlns="http://www.w3.org/2000/svg" xmlns:xlink="http://www.w3.org/1999/xlink">
<g id="page0,1_graph0" class="graph" transform="scale(1 1) rotate(0) translate(4 63.75)">
<title>CORTEX</title>
<!-- Node1 -->
<g id="Node000001" class="node">
<title>Node1</title>
<g id="a_Node000001"><a xlink:title=" ">
<polygon fill="#999999" stroke="#666666" points="204.5,-39.75 150.25,-39.75 150.25,-19 204.5,-19 204.5,-39.75"/>
<text text-anchor="middle" x="177.38" y="-26.25" font-family="Helvetica,sans-Serif" font-size="10.00">CORTEX</text>
</a>
</g>
</g>
<!-- Node3 -->
<g id="Node000003" class="node">
<title>Node3</title>
<g id="a_Node000003"><a xlink:href="group__CORTEX__LL__Exported__Constants.html" target="_top" xlink:title=" ">
<polygon fill="white" stroke="#666666" points="387,-59.75 240.5,-59.75 240.5,-39 387,-39 387,-59.75"/>
<text text-anchor="middle" x="313.75" y="-46.25" font-family="Helvetica,sans-Serif" font-size="10.00">CORTEX Exported Constants</text>
</a>
</g>
</g>
<!-- Node1&#45;&gt;Node3 -->
<g id="edge2" class="edge">
<title>Node1&#45;&gt;Node3</title>
<path fill="none" stroke="black" d="M216.23,-35.01C223.79,-36.13 231.97,-37.35 240.25,-38.58"/>
<polygon fill="black" stroke="black" points="216.83,-31.56 206.42,-33.55 215.8,-38.48 216.83,-31.56"/>
</g>
<!-- Node4 -->
<g id="Node000004" class="node">
<title>Node4</title>
<g id="a_Node000004"><a xlink:href="group__CORTEX__LL__Exported__Functions.html" target="_top" xlink:title=" ">
<polygon fill="white" stroke="#666666" points="385.88,-20.75 241.62,-20.75 241.62,0 385.88,0 385.88,-20.75"/>
<text text-anchor="middle" x="313.75" y="-7.25" font-family="Helvetica,sans-Serif" font-size="10.00">CORTEX Exported Functions</text>
</a>
</g>
</g>
<!-- Node1&#45;&gt;Node4 -->
<g id="edge3" class="edge">
<title>Node1&#45;&gt;Node4</title>
<path fill="none" stroke="black" d="M216.3,-24.01C224.18,-22.9 232.73,-21.69 241.38,-20.47"/>
<polygon fill="black" stroke="black" points="215.83,-20.54 206.42,-25.41 216.81,-27.47 215.83,-20.54"/>
</g>
<!-- Node2 -->
<g id="Node000002" class="node">
<title>Node2</title>
<g id="a_Node000002"><a xlink:href="group__STM32F4xx__LL__Driver.html" target="_top" xlink:title=" ">
<polygon fill="white" stroke="#666666" points="114.25,-39.75 0,-39.75 0,-19 114.25,-19 114.25,-39.75"/>
<text text-anchor="middle" x="57.12" y="-26.25" font-family="Helvetica,sans-Serif" font-size="10.00">STM32F4xx_LL_Driver</text>
</a>
</g>
</g>
<!-- Node2&#45;&gt;Node1 -->
<g id="edge1" class="edge">
<title>Node2&#45;&gt;Node1</title>
<path fill="none" stroke="black" d="M125.77,-29.38C134.3,-29.38 142.59,-29.38 149.91,-29.38"/>
<polygon fill="black" stroke="black" points="125.99,-25.88 115.99,-29.38 125.99,-32.88 125.99,-25.88"/>
</g>
</g>
</svg>
