<?xml version="1.0" encoding="UTF-8" standalone="no"?>
<!DOCTYPE svg PUBLIC "-//W3C//DTD SVG 1.1//EN"
 "http://www.w3.org/Graphics/SVG/1.1/DTD/svg11.dtd">
<!-- Generated by graphviz version 12.2.1 (20241206.2353)
 -->
<!-- Title: I2C Exported Constants Pages: 1 -->
<svg width="400pt" height="392pt"
 viewBox="0.00 0.00 400.25 391.75" xmlns="http://www.w3.org/2000/svg" xmlns:xlink="http://www.w3.org/1999/xlink">

<svg id="main" version="1.1" xmlns="http://www.w3.org/2000/svg" xmlns:xlink="http://www.w3.org/1999/xlink" xml:space="preserve">

<style type="text/css"><![CDATA[
.node, .edge {opacity: 0.7;}
.node.selected, .edge.selected {opacity: 1;}
.edge:hover path { stroke: red; }
.edge:hover polygon { stroke: red; fill: red; }
]]></style>
<script type="application/ecmascript" xlink:href="svg.min.js"/>
<svg id="graph" class="graph">
<g id="graph0" class="graph" transform="scale(1 1) rotate(0) translate(4 387.75)">
<title>I2C Exported Constants</title>
<!-- Node2 -->
<g id="Node000002" class="node">
<title>Node2</title>
<g id="a_Node000002"><a xlink:href="group__I2C.html" target="_top" xlink:title="I2C HAL module driver.">
<polygon fill="white" stroke="#666666" points="31,-195.75 0,-195.75 0,-175 31,-175 31,-195.75"/>
<text text-anchor="middle" x="15.5" y="-182.25" font-family="Helvetica,sans-Serif" font-size="10.00">I2C</text>
</a>
</g>
</g>
<!-- Node1 -->
<g id="Node000001" class="node">
<title>Node1</title>
<g id="a_Node000001"><a xlink:title=" ">
<polygon fill="#999999" stroke="#666666" points="190.25,-195.75 67,-195.75 67,-175 190.25,-175 190.25,-195.75"/>
<text text-anchor="middle" x="128.62" y="-182.25" font-family="Helvetica,sans-Serif" font-size="10.00">I2C Exported Constants</text>
</a>
</g>
</g>
<!-- Node2&#45;&gt;Node1 -->
<g id="edge1" class="edge">
<title>Node2&#45;&gt;Node1</title>
<path fill="none" stroke="black" d="M42.75,-185.38C50.05,-185.38 58.31,-185.38 66.73,-185.38"/>
<polygon fill="black" stroke="black" points="43,-181.88 33,-185.38 43,-188.88 43,-181.88"/>
</g>
<!-- Node12 -->
<g id="Node000012" class="node">
<title>Node12</title>
<g id="a_Node000012"><a xlink:href="group__I2C__Flag__definition.html" target="_top" xlink:title=" ">
<polygon fill="white" stroke="#666666" points="358.88,-383.75 259.62,-383.75 259.62,-363 358.88,-363 358.88,-383.75"/>
<text text-anchor="middle" x="309.25" y="-370.25" font-family="Helvetica,sans-Serif" font-size="10.00">I2C Flag definition</text>
</a>
</g>
</g>
<!-- Node1&#45;&gt;Node12 -->
<g id="edge11" class="edge">
<title>Node1&#45;&gt;Node12</title>
<path fill="none" stroke="black" d="M135.71,-206.92C147.12,-243.26 175.33,-316.5 226.25,-354.38 235.86,-361.53 247.73,-366.05 259.43,-368.89"/>
<polygon fill="black" stroke="black" points="139.13,-206.13 132.9,-197.56 132.42,-208.14 139.13,-206.13"/>
</g>
<!-- Node11 -->
<g id="Node000011" class="node">
<title>Node11</title>
<g id="a_Node000011"><a xlink:href="group__I2C__Interrupt__configuration__definition.html" target="_top" xlink:title="I2C Interrupt definition Elements values convention: 0xXXXXXXXX.">
<polygon fill="white" stroke="#666666" points="377.62,-345.12 240.88,-345.12 240.88,-311.62 377.62,-311.62 377.62,-345.12"/>
<text text-anchor="start" x="248.88" y="-331.62" font-family="Helvetica,sans-Serif" font-size="10.00">I2C Interrupt configuration</text>
<text text-anchor="middle" x="309.25" y="-318.88" font-family="Helvetica,sans-Serif" font-size="10.00"> definition</text>
</a>
</g>
</g>
<!-- Node1&#45;&gt;Node11 -->
<g id="edge10" class="edge">
<title>Node1&#45;&gt;Node11</title>
<path fill="none" stroke="black" d="M141.31,-205.79C157.26,-231.88 188.25,-276.73 226.25,-302.38 231.2,-305.72 236.61,-308.65 242.21,-311.22"/>
<polygon fill="black" stroke="black" points="144.49,-204.29 136.37,-197.48 138.47,-207.86 144.49,-204.29"/>
</g>
<!-- Node8 -->
<g id="Node000008" class="node">
<title>Node8</title>
<g id="a_Node000008"><a xlink:href="group__I2C__Memory__Address__Size.html" target="_top" xlink:title=" ">
<polygon fill="white" stroke="#666666" points="373.12,-293.75 245.38,-293.75 245.38,-273 373.12,-273 373.12,-293.75"/>
<text text-anchor="middle" x="309.25" y="-280.25" font-family="Helvetica,sans-Serif" font-size="10.00">I2C Memory Address Size</text>
</a>
</g>
</g>
<!-- Node1&#45;&gt;Node8 -->
<g id="edge7" class="edge">
<title>Node1&#45;&gt;Node8</title>
<path fill="none" stroke="black" d="M147.8,-204.24C166.02,-222.06 195.69,-248.27 226.25,-263.38 233.74,-267.08 241.96,-270.12 250.21,-272.62"/>
<polygon fill="black" stroke="black" points="150.43,-201.92 140.89,-197.31 145.47,-206.86 150.43,-201.92"/>
</g>
<!-- Node9 -->
<g id="Node000009" class="node">
<title>Node9</title>
<g id="a_Node000009"><a xlink:href="group__I2C__XferDirection__definition.html" target="_top" xlink:title=" ">
<polygon fill="white" stroke="#666666" points="378.38,-254.75 240.12,-254.75 240.12,-234 378.38,-234 378.38,-254.75"/>
<text text-anchor="middle" x="309.25" y="-241.25" font-family="Helvetica,sans-Serif" font-size="10.00">I2C XferDirection definition</text>
</a>
</g>
</g>
<!-- Node1&#45;&gt;Node9 -->
<g id="edge8" class="edge">
<title>Node1&#45;&gt;Node9</title>
<path fill="none" stroke="black" d="M163.93,-200.63C182.2,-208.39 205.19,-217.6 226.25,-224.38 236.71,-227.74 248.08,-230.85 258.93,-233.57"/>
<polygon fill="black" stroke="black" points="165.45,-197.47 154.88,-196.73 162.68,-203.9 165.45,-197.47"/>
</g>
<!-- Node10 -->
<g id="Node000010" class="node">
<title>Node10</title>
<g id="a_Node000010"><a xlink:href="group__I2C__XferOptions__definition.html" target="_top" xlink:title=" ">
<polygon fill="white" stroke="#666666" points="376.12,-215.75 242.38,-215.75 242.38,-195 376.12,-195 376.12,-215.75"/>
<text text-anchor="middle" x="309.25" y="-202.25" font-family="Helvetica,sans-Serif" font-size="10.00">I2C XferOptions definition</text>
</a>
</g>
</g>
<!-- Node1&#45;&gt;Node10 -->
<g id="edge9" class="edge">
<title>Node1&#45;&gt;Node10</title>
<path fill="none" stroke="black" d="M201.66,-193.44C215,-194.93 228.89,-196.49 242.05,-197.96"/>
<polygon fill="black" stroke="black" points="202.43,-190 192.1,-192.37 201.65,-196.96 202.43,-190"/>
</g>
<!-- Node4 -->
<g id="Node000004" class="node">
<title>Node4</title>
<g id="a_Node000004"><a xlink:href="group__I2C__addressing__mode.html" target="_top" xlink:title=" ">
<polygon fill="white" stroke="#666666" points="364.88,-176.75 253.62,-176.75 253.62,-156 364.88,-156 364.88,-176.75"/>
<text text-anchor="middle" x="309.25" y="-163.25" font-family="Helvetica,sans-Serif" font-size="10.00">I2C addressing mode</text>
</a>
</g>
</g>
<!-- Node1&#45;&gt;Node4 -->
<g id="edge3" class="edge">
<title>Node1&#45;&gt;Node4</title>
<path fill="none" stroke="black" d="M201.73,-177.71C218.91,-175.88 236.97,-173.96 253.24,-172.23"/>
<polygon fill="black" stroke="black" points="201.68,-174.19 192.1,-178.73 202.42,-181.15 201.68,-174.19"/>
</g>
<!-- Node5 -->
<g id="Node000005" class="node">
<title>Node5</title>
<g id="a_Node000005"><a xlink:href="group__I2C__dual__addressing__mode.html" target="_top" xlink:title=" ">
<polygon fill="white" stroke="#666666" points="375.75,-137.75 242.75,-137.75 242.75,-117 375.75,-117 375.75,-137.75"/>
<text text-anchor="middle" x="309.25" y="-124.25" font-family="Helvetica,sans-Serif" font-size="10.00">I2C dual addressing mode</text>
</a>
</g>
</g>
<!-- Node1&#45;&gt;Node5 -->
<g id="edge4" class="edge">
<title>Node1&#45;&gt;Node5</title>
<path fill="none" stroke="black" d="M164.71,-170.25C182.87,-162.76 205.52,-153.95 226.25,-147.38 236.87,-144.01 248.41,-140.88 259.39,-138.14"/>
<polygon fill="black" stroke="black" points="163.59,-166.92 155.71,-174.01 166.29,-173.38 163.59,-166.92"/>
</g>
<!-- Node3 -->
<g id="Node000003" class="node">
<title>Node3</title>
<g id="a_Node000003"><a xlink:href="group__I2C__duty__cycle__in__fast__mode.html" target="_top" xlink:title=" ">
<polygon fill="white" stroke="#666666" points="376.88,-98.75 241.62,-98.75 241.62,-78 376.88,-78 376.88,-98.75"/>
<text text-anchor="middle" x="309.25" y="-85.25" font-family="Helvetica,sans-Serif" font-size="10.00">I2C duty cycle in fast mode</text>
</a>
</g>
</g>
<!-- Node1&#45;&gt;Node3 -->
<g id="edge2" class="edge">
<title>Node1&#45;&gt;Node3</title>
<path fill="none" stroke="black" d="M147.84,-166.77C166.1,-149.17 195.8,-123.31 226.25,-108.38 233.75,-104.7 241.97,-101.66 250.23,-99.17"/>
<polygon fill="black" stroke="black" points="145.59,-164.08 140.92,-173.59 150.5,-169.06 145.59,-164.08"/>
</g>
<!-- Node6 -->
<g id="Node000006" class="node">
<title>Node6</title>
<g id="a_Node000006"><a xlink:href="group__I2C__general__call__addressing__mode.html" target="_top" xlink:title=" ">
<polygon fill="white" stroke="#666666" points="392.25,-59.75 226.25,-59.75 226.25,-39 392.25,-39 392.25,-59.75"/>
<text text-anchor="middle" x="309.25" y="-46.25" font-family="Helvetica,sans-Serif" font-size="10.00">I2C general call addressing mode</text>
</a>
</g>
</g>
<!-- Node1&#45;&gt;Node6 -->
<g id="edge5" class="edge">
<title>Node1&#45;&gt;Node6</title>
<path fill="none" stroke="black" d="M140.86,-165.13C156.5,-138.89 187.36,-93.64 226.25,-69.38 232.22,-65.65 238.83,-62.62 245.64,-60.16"/>
<polygon fill="black" stroke="black" points="138.01,-163.07 136.04,-173.48 144.07,-166.57 138.01,-163.07"/>
</g>
<!-- Node7 -->
<g id="Node000007" class="node">
<title>Node7</title>
<g id="a_Node000007"><a xlink:href="group__I2C__nostretch__mode.html" target="_top" xlink:title=" ">
<polygon fill="white" stroke="#666666" points="361.88,-20.75 256.62,-20.75 256.62,0 361.88,0 361.88,-20.75"/>
<text text-anchor="middle" x="309.25" y="-7.25" font-family="Helvetica,sans-Serif" font-size="10.00">I2C nostretch mode</text>
</a>
</g>
</g>
<!-- Node1&#45;&gt;Node7 -->
<g id="edge6" class="edge">
<title>Node1&#45;&gt;Node7</title>
<path fill="none" stroke="black" d="M136.8,-164.25C149.37,-130.51 178.68,-64.79 226.25,-30.38 235.04,-24.02 245.59,-19.67 256.17,-16.69"/>
<polygon fill="black" stroke="black" points="133.63,-162.72 133.55,-173.32 140.22,-165.08 133.63,-162.72"/>
</g>
</g>
</svg>
</svg>

<style type='text/css'>
<![CDATA[
[data-mouse-over-selected='false'] { opacity: 0.7; }
[data-mouse-over-selected='true']  { opacity: 1.0; }
]]>
</style>
<script type="application/ecmascript"><![CDATA[
document.addEventListener('DOMContentLoaded', (event) => {
  highlightEdges();
  highlightAdjacentNodes();
});
]]></script>
</svg>
