<?xml version="1.0" encoding="UTF-8" standalone="no"?>
<!DOCTYPE svg PUBLIC "-//W3C//DTD SVG 1.1//EN"
 "http://www.w3.org/Graphics/SVG/1.1/DTD/svg11.dtd">
<!-- Generated by graphviz version 12.2.1 (20241206.2353)
 -->
<!-- Title: RTC Exported Constants Pages: 1 -->
<!--zoomable 712 -->

<svg id="main" version="1.1" xmlns="http://www.w3.org/2000/svg" xmlns:xlink="http://www.w3.org/1999/xlink" xml:space="preserve" onload="init(evt)">

<style type="text/css"><![CDATA[
.node, .edge {opacity: 0.7;}
.node.selected, .edge.selected {opacity: 1;}
.edge:hover path { stroke: red; }
.edge:hover polygon { stroke: red; fill: red; }
]]></style>

<defs>
  <circle id="rim" cx="0" cy="0" r="7"/>
  <circle id="rim2" cx="0" cy="0" r="3.5"/>
  <g id="zoomPlus">
    <use xlink:href="#rim" fill="#404040"><set attributeName="fill" to="#808080" begin="zoomplus.mouseover" end="zoomplus.mouseout"/></use>
    <path d="M-4,0h8M0,-4v8" fill="none" stroke="white" stroke-width="1.5" pointer-events="none"/>
  </g>
  <g id="zoomMin">
    <use xlink:href="#rim" fill="#404040"><set attributeName="fill" to="#808080" begin="zoomminus.mouseover" end="zoomminus.mouseout"/></use>
    <path d="M-4,0h8" fill="none" stroke="white" stroke-width="1.5" pointer-events="none"/>
  </g>
  <g id="arrowUp" transform="translate(30 24)">
    <use xlink:href="#rim"/>
    <path pointer-events="none" fill="none" stroke="white" stroke-width="1.5" d="M0,-3.0v7 M-2.5,-0.5L0,-3.0L2.5,-0.5"/>
  </g>
  <g id="arrowRight" transform="rotate(90) translate(36 -43)">
    <use xlink:href="#rim"/>
    <path pointer-events="none" fill="none" stroke="white" stroke-width="1.5" d="M0,-3.0v7 M-2.5,-0.5L0,-3.0L2.5,-0.5"/>
  </g>
  <g id="arrowDown" transform="rotate(180) translate(-30 -48)">
    <use xlink:href="#rim"/>
    <path pointer-events="none" fill="none" stroke="white" stroke-width="1.5" d="M0,-3.0v7 M-2.5,-0.5L0,-3.0L2.5,-0.5"/>
  </g>
  <g id="arrowLeft" transform="rotate(270) translate(-36 17)">
    <use xlink:href="#rim"/>
    <path pointer-events="none" fill="none" stroke="white" stroke-width="1.5" d="M0,-3.0v7 M-2.5,-0.5L0,-3.0L2.5,-0.5"/>
  </g>
  <g id="resetDef">
    <use xlink:href="#rim2" fill="#404040"><set attributeName="fill" to="#808080" begin="reset.mouseover" end="reset.mouseout"/></use>
  </g>
</defs>
<script type="application/ecmascript">
var viewWidth = 391;
var viewHeight = 712;
var sectionId = 'dynsection-0';
</script>
<script type="application/ecmascript" xlink:href="svg.min.js"/>
<svg id="graph" class="graph">
<g id="viewport">
<title>RTC Exported Constants</title>
<!-- Node2 -->
<g id="Node000002" class="node">
<title>Node2</title>
<g id="a_Node000002"><a xlink:href="group__RTC.html" target="_top" xlink:title="RTC HAL module driver.">
<polygon fill="white" stroke="#666666" points="34.75,-371.75 0,-371.75 0,-351 34.75,-351 34.75,-371.75"/>
<text text-anchor="middle" x="17.38" y="-358.25" font-family="Helvetica,sans-Serif" font-size="10.00">RTC</text>
</a>
</g>
</g>
<!-- Node1 -->
<g id="Node000001" class="node">
<title>Node1</title>
<g id="a_Node000001"><a xlink:title=" ">
<polygon fill="#999999" stroke="#666666" points="197.75,-371.75 70.75,-371.75 70.75,-351 197.75,-351 197.75,-371.75"/>
<text text-anchor="middle" x="134.25" y="-358.25" font-family="Helvetica,sans-Serif" font-size="10.00">RTC Exported Constants</text>
</a>
</g>
</g>
<!-- Node2&#45;&gt;Node1 -->
<g id="edge1" class="edge">
<title>Node2&#45;&gt;Node1</title>
<path fill="none" stroke="black" d="M46.31,-361.38C53.71,-361.38 62,-361.38 70.46,-361.38"/>
<polygon fill="black" stroke="black" points="46.35,-357.88 36.35,-361.38 46.35,-364.88 46.35,-357.88"/>
</g>
<!-- Node7 -->
<g id="Node000007" class="node">
<title>Node7</title>
<g id="a_Node000007"><a xlink:href="group__RTC__AM__PM__Definitions.html" target="_top" xlink:title=" ">
<polygon fill="white" stroke="#666666" points="367.5,-703.75 248.75,-703.75 248.75,-683 367.5,-683 367.5,-703.75"/>
<text text-anchor="middle" x="308.12" y="-690.25" font-family="Helvetica,sans-Serif" font-size="10.00">RTC AM PM Definitions</text>
</a>
</g>
</g>
<!-- Node13 -->
<g id="Node000013" class="node">
<title>Node13</title>
<g id="a_Node000013"><a xlink:href="group__RTC__AlarmDateWeekDay__Definitions.html" target="_top" xlink:title=" ">
<polygon fill="white" stroke="#666666" points="373.88,-665.12 242.38,-665.12 242.38,-631.62 373.88,-631.62 373.88,-665.12"/>
<text text-anchor="start" x="250.38" y="-651.62" font-family="Helvetica,sans-Serif" font-size="10.00">RTC Alarm Date WeekDay</text>
<text text-anchor="middle" x="308.12" y="-638.88" font-family="Helvetica,sans-Serif" font-size="10.00"> Definitions</text>
</a>
</g>
</g>
<!-- Node14 -->
<g id="Node000014" class="node">
<title>Node14</title>
<g id="a_Node000014"><a xlink:href="group__RTC__AlarmMask__Definitions.html" target="_top" xlink:title=" ">
<polygon fill="white" stroke="#666666" points="378.38,-613.75 237.88,-613.75 237.88,-593 378.38,-593 378.38,-613.75"/>
<text text-anchor="middle" x="308.12" y="-600.25" font-family="Helvetica,sans-Serif" font-size="10.00">RTC Alarm Mask Definitions</text>
</a>
</g>
</g>
<!-- Node16 -->
<g id="Node000016" class="node">
<title>Node16</title>
<g id="a_Node000016"><a xlink:href="group__RTC__Alarm__Sub__Seconds__Masks__Definitions.html" target="_top" xlink:title=" ">
<polygon fill="white" stroke="#666666" points="369.38,-575.12 246.88,-575.12 246.88,-541.62 369.38,-541.62 369.38,-575.12"/>
<text text-anchor="start" x="254.88" y="-561.62" font-family="Helvetica,sans-Serif" font-size="10.00">RTC Alarm Sub Seconds</text>
<text text-anchor="middle" x="308.12" y="-548.88" font-family="Helvetica,sans-Serif" font-size="10.00"> Masks Definitions</text>
</a>
</g>
</g>
<!-- Node15 -->
<g id="Node000015" class="node">
<title>Node15</title>
<g id="a_Node000015"><a xlink:href="group__RTC__Alarms__Definitions.html" target="_top" xlink:title=" ">
<polygon fill="white" stroke="#666666" points="367.88,-523.75 248.38,-523.75 248.38,-503 367.88,-503 367.88,-523.75"/>
<text text-anchor="middle" x="308.12" y="-510.25" font-family="Helvetica,sans-Serif" font-size="10.00">RTC Alarms Definitions</text>
</a>
</g>
</g>
<!-- Node8 -->
<g id="Node000008" class="node">
<title>Node8</title>
<g id="a_Node000008"><a xlink:href="group__RTC__DayLightSaving__Definitions.html" target="_top" xlink:title=" ">
<polygon fill="white" stroke="#666666" points="362.25,-485.12 254,-485.12 254,-451.62 362.25,-451.62 362.25,-485.12"/>
<text text-anchor="start" x="262" y="-471.62" font-family="Helvetica,sans-Serif" font-size="10.00">RTC DayLight Saving</text>
<text text-anchor="middle" x="308.12" y="-458.88" font-family="Helvetica,sans-Serif" font-size="10.00"> Definitions</text>
</a>
</g>
</g>
<!-- Node1&#45;&gt;Node7 -->
<g id="edge6" class="edge">
<title>Node1&#45;&gt;Node7</title>
<path fill="none" stroke="black" d="M135.32,-383.34C136.74,-440.24 148.69,-593.59 233.75,-674.38 238.04,-678.45 243.09,-681.68 248.5,-684.24"/>
<polygon fill="black" stroke="black" points="138.82,-383.62 135.17,-373.68 131.82,-383.73 138.82,-383.62"/>
</g>
<!-- Node1&#45;&gt;Node13 -->
<g id="edge12" class="edge">
<title>Node1&#45;&gt;Node13</title>
<path fill="none" stroke="black" d="M137.35,-383.24C143.25,-432.76 164.38,-554.4 233.75,-622.38 237.23,-625.78 241.17,-628.74 245.39,-631.32"/>
<polygon fill="black" stroke="black" points="140.85,-383.1 136.3,-373.54 133.89,-383.86 140.85,-383.1"/>
</g>
<!-- Node1&#45;&gt;Node14 -->
<g id="edge13" class="edge">
<title>Node1&#45;&gt;Node14</title>
<path fill="none" stroke="black" d="M138.51,-383.46C146.35,-428.38 170.49,-530.64 233.75,-584.38 237.56,-587.61 241.86,-590.31 246.41,-592.55"/>
<polygon fill="black" stroke="black" points="141.98,-382.97 136.93,-373.66 135.07,-384.1 141.98,-382.97"/>
</g>
<!-- Node1&#45;&gt;Node16 -->
<g id="edge15" class="edge">
<title>Node1&#45;&gt;Node16</title>
<path fill="none" stroke="black" d="M141.98,-382.57C154.41,-418.43 184.31,-491.21 233.75,-532.38 237.8,-535.75 242.32,-538.7 247.07,-541.27"/>
<polygon fill="black" stroke="black" points="145.39,-381.73 138.91,-373.35 138.75,-383.95 145.39,-381.73"/>
</g>
<!-- Node1&#45;&gt;Node15 -->
<g id="edge14" class="edge">
<title>Node1&#45;&gt;Node15</title>
<path fill="none" stroke="black" d="M144.8,-381.93C159.59,-411.45 190.87,-465.46 233.75,-494.38 238.55,-497.61 243.87,-500.3 249.38,-502.53"/>
<polygon fill="black" stroke="black" points="148.12,-380.76 140.61,-373.28 141.82,-383.81 148.12,-380.76"/>
</g>
<!-- Node1&#45;&gt;Node8 -->
<g id="edge7" class="edge">
<title>Node1&#45;&gt;Node8</title>
<path fill="none" stroke="black" d="M153.81,-380.04C172.59,-398.06 203.13,-425.07 233.75,-442.38 239.99,-445.9 246.78,-449.08 253.65,-451.9"/>
<polygon fill="black" stroke="black" points="156.51,-377.78 146.91,-373.29 151.61,-382.79 156.51,-377.78"/>
</g>
<!-- Node18 -->
<g id="Node000018" class="node">
<title>Node18</title>
<g id="a_Node000018"><a xlink:href="group__RTC__Flags__Definitions.html" target="_top" xlink:title=" ">
<polygon fill="white" stroke="#666666" points="364.5,-433.75 251.75,-433.75 251.75,-413 364.5,-413 364.5,-433.75"/>
<text text-anchor="middle" x="308.12" y="-420.25" font-family="Helvetica,sans-Serif" font-size="10.00">RTC Flags Definitions</text>
</a>
</g>
</g>
<!-- Node1&#45;&gt;Node18 -->
<g id="edge17" class="edge">
<title>Node1&#45;&gt;Node18</title>
<path fill="none" stroke="black" d="M168.44,-376.87C187.33,-385.35 211.59,-395.67 233.75,-403.38 243.23,-406.67 253.55,-409.77 263.37,-412.5"/>
<polygon fill="black" stroke="black" points="169.92,-373.7 159.36,-372.75 167.02,-380.07 169.92,-373.7"/>
</g>
<!-- Node3 -->
<g id="Node000003" class="node">
<title>Node3</title>
<g id="a_Node000003"><a xlink:href="group__RTC__Hour__Formats.html" target="_top" xlink:title=" ">
<polygon fill="white" stroke="#666666" points="358.12,-394.75 258.12,-394.75 258.12,-374 358.12,-374 358.12,-394.75"/>
<text text-anchor="middle" x="308.12" y="-381.25" font-family="Helvetica,sans-Serif" font-size="10.00">RTC Hour Formats</text>
</a>
</g>
</g>
<!-- Node1&#45;&gt;Node3 -->
<g id="edge2" class="edge">
<title>Node1&#45;&gt;Node3</title>
<path fill="none" stroke="black" d="M209.07,-371.25C225.54,-373.46 242.63,-375.74 257.83,-377.78"/>
<polygon fill="black" stroke="black" points="209.66,-367.8 199.29,-369.94 208.73,-374.74 209.66,-367.8"/>
</g>
<!-- Node10 -->
<g id="Node000010" class="node">
<title>Node10</title>
<g id="a_Node000010"><a xlink:href="group__RTC__Input__parameter__format__definitions.html" target="_top" xlink:title=" ">
<polygon fill="white" stroke="#666666" points="363.38,-356.12 252.88,-356.12 252.88,-322.62 363.38,-322.62 363.38,-356.12"/>
<text text-anchor="start" x="260.88" y="-342.62" font-family="Helvetica,sans-Serif" font-size="10.00">RTC Input Parameter</text>
<text text-anchor="middle" x="308.12" y="-329.88" font-family="Helvetica,sans-Serif" font-size="10.00"> Format Definitions</text>
</a>
</g>
</g>
<!-- Node1&#45;&gt;Node10 -->
<g id="edge9" class="edge">
<title>Node1&#45;&gt;Node10</title>
<path fill="none" stroke="black" d="M208.88,-351.95C223.54,-350.07 238.7,-348.13 252.58,-346.36"/>
<polygon fill="black" stroke="black" points="208.76,-348.44 199.29,-353.18 209.65,-355.38 208.76,-348.44"/>
</g>
<!-- Node17 -->
<g id="Node000017" class="node">
<title>Node17</title>
<g id="a_Node000017"><a xlink:href="group__RTC__Interrupts__Definitions.html" target="_top" xlink:title=" ">
<polygon fill="white" stroke="#666666" points="374.62,-304.75 241.62,-304.75 241.62,-284 374.62,-284 374.62,-304.75"/>
<text text-anchor="middle" x="308.12" y="-291.25" font-family="Helvetica,sans-Serif" font-size="10.00">RTC Interrupts Definitions</text>
</a>
</g>
</g>
<!-- Node1&#45;&gt;Node17 -->
<g id="edge16" class="edge">
<title>Node1&#45;&gt;Node17</title>
<path fill="none" stroke="black" d="M164.32,-345.3C183.58,-335.13 209.66,-322.26 233.75,-313.38 242.02,-310.32 250.99,-307.57 259.72,-305.16"/>
<polygon fill="black" stroke="black" points="162.86,-342.11 155.7,-349.92 166.17,-348.28 162.86,-342.11"/>
</g>
<!-- Node11 -->
<g id="Node000011" class="node">
<title>Node11</title>
<g id="a_Node000011"><a xlink:href="group__RTC__Month__Date__Definitions.html" target="_top" xlink:title=" ">
<polygon fill="white" stroke="#666666" points="378.75,-266.12 237.5,-266.12 237.5,-232.62 378.75,-232.62 378.75,-266.12"/>
<text text-anchor="start" x="245.5" y="-252.62" font-family="Helvetica,sans-Serif" font-size="10.00">RTC Month Date Definitions</text>
<text text-anchor="middle" x="308.12" y="-239.88" font-family="Helvetica,sans-Serif" font-size="10.00"> (in BCD format)</text>
</a>
</g>
</g>
<!-- Node1&#45;&gt;Node11 -->
<g id="edge10" class="edge">
<title>Node1&#45;&gt;Node11</title>
<path fill="none" stroke="black" d="M152.69,-342.41C171.21,-323.24 202.11,-293.87 233.75,-275.38 239.35,-272.1 245.43,-269.14 251.61,-266.49"/>
<polygon fill="black" stroke="black" points="150.25,-339.9 145.91,-349.57 155.33,-344.72 150.25,-339.9"/>
</g>
<!-- Node5 -->
<g id="Node000005" class="node">
<title>Node5</title>
<g id="a_Node000005"><a xlink:href="group__RTC__Output__Polarity__Definitions.html" target="_top" xlink:title=" ">
<polygon fill="white" stroke="#666666" points="360.75,-214.12 255.5,-214.12 255.5,-180.62 360.75,-180.62 360.75,-214.12"/>
<text text-anchor="start" x="263.5" y="-200.62" font-family="Helvetica,sans-Serif" font-size="10.00">RTC Output Polarity</text>
<text text-anchor="middle" x="308.12" y="-187.88" font-family="Helvetica,sans-Serif" font-size="10.00"> Definitions</text>
</a>
</g>
</g>
<!-- Node1&#45;&gt;Node5 -->
<g id="edge4" class="edge">
<title>Node1&#45;&gt;Node5</title>
<path fill="none" stroke="black" d="M144.95,-340.54C159.93,-310.53 191.43,-255.26 233.75,-223.38 240.23,-218.5 247.7,-214.47 255.34,-211.18"/>
<polygon fill="black" stroke="black" points="141.9,-338.81 140.69,-349.34 148.2,-341.86 141.9,-338.81"/>
</g>
<!-- Node6 -->
<g id="Node000006" class="node">
<title>Node6</title>
<g id="a_Node000006"><a xlink:href="group__RTC__Output__Type__ALARM__OUT.html" target="_top" xlink:title=" ">
<polygon fill="white" stroke="#666666" points="382.5,-162.75 233.75,-162.75 233.75,-142 382.5,-142 382.5,-162.75"/>
<text text-anchor="middle" x="308.12" y="-149.25" font-family="Helvetica,sans-Serif" font-size="10.00">RTC Output Type ALARM OUT</text>
</a>
</g>
</g>
<!-- Node1&#45;&gt;Node6 -->
<g id="edge5" class="edge">
<title>Node1&#45;&gt;Node6</title>
<path fill="none" stroke="black" d="M140.23,-339.85C150.53,-300.23 178.05,-215.77 233.75,-171.38 237.87,-168.09 242.49,-165.37 247.36,-163.12"/>
<polygon fill="black" stroke="black" points="136.88,-338.8 137.88,-349.35 143.68,-340.48 136.88,-338.8"/>
</g>
<!-- Node4 -->
<g id="Node000004" class="node">
<title>Node4</title>
<g id="a_Node000004"><a xlink:href="group__RTC__Output__selection__Definitions.html" target="_top" xlink:title=" ">
<polygon fill="white" stroke="#666666" points="364.12,-124.12 252.12,-124.12 252.12,-90.62 364.12,-90.62 364.12,-124.12"/>
<text text-anchor="start" x="260.12" y="-110.62" font-family="Helvetica,sans-Serif" font-size="10.00">RTC Output Selection</text>
<text text-anchor="middle" x="308.12" y="-97.88" font-family="Helvetica,sans-Serif" font-size="10.00"> Definitions</text>
</a>
</g>
</g>
<!-- Node1&#45;&gt;Node4 -->
<g id="edge3" class="edge">
<title>Node1&#45;&gt;Node4</title>
<path fill="none" stroke="black" d="M138.76,-339.26C147.05,-294.19 171.98,-191.12 233.75,-133.38 238.98,-128.48 245.19,-124.5 251.75,-121.27"/>
<polygon fill="black" stroke="black" points="135.31,-338.63 137.07,-349.08 142.21,-339.82 135.31,-338.63"/>
</g>
<!-- Node9 -->
<g id="Node000009" class="node">
<title>Node9</title>
<g id="a_Node000009"><a xlink:href="group__RTC__StoreOperation__Definitions.html" target="_top" xlink:title=" ">
<polygon fill="white" stroke="#666666" points="362.62,-72.12 253.62,-72.12 253.62,-38.62 362.62,-38.62 362.62,-72.12"/>
<text text-anchor="start" x="261.62" y="-58.62" font-family="Helvetica,sans-Serif" font-size="10.00">RTC Store Operation</text>
<text text-anchor="middle" x="308.12" y="-45.88" font-family="Helvetica,sans-Serif" font-size="10.00"> Definitions</text>
</a>
</g>
</g>
<!-- Node1&#45;&gt;Node9 -->
<g id="edge8" class="edge">
<title>Node1&#45;&gt;Node9</title>
<path fill="none" stroke="black" d="M136.71,-339.34C141.35,-287.21 160.11,-155.18 233.75,-81.38 239.29,-75.83 246.08,-71.46 253.28,-68.02"/>
<polygon fill="black" stroke="black" points="133.25,-338.77 135.95,-349.02 140.23,-339.32 133.25,-338.77"/>
</g>
<!-- Node12 -->
<g id="Node000012" class="node">
<title>Node12</title>
<g id="a_Node000012"><a xlink:href="group__RTC__WeekDay__Definitions.html" target="_top" xlink:title=" ">
<polygon fill="white" stroke="#666666" points="373.12,-20.75 243.12,-20.75 243.12,0 373.12,0 373.12,-20.75"/>
<text text-anchor="middle" x="308.12" y="-7.25" font-family="Helvetica,sans-Serif" font-size="10.00">RTC WeekDay Definitions</text>
</a>
</g>
</g>
<!-- Node1&#45;&gt;Node12 -->
<g id="edge11" class="edge">
<title>Node1&#45;&gt;Node12</title>
<path fill="none" stroke="black" d="M134.85,-339.29C135.05,-280 144.1,-115.94 233.75,-29.38 237.16,-26.08 241.06,-23.34 245.25,-21.06"/>
<polygon fill="black" stroke="black" points="131.35,-339.09 134.92,-349.07 138.35,-339.05 131.35,-339.09"/>
</g>
</g>
</svg>

<g id="navigator" transform="translate(0 0)" fill="#404254">
  <rect fill="#f2f5e9" fill-opacity="0.5" stroke="#606060" stroke-width=".5" x="0" y="0" width="60" height="60"/>
  <use id="zoomplus" xlink:href="#zoomPlus" x="17" y="9" onmousedown="handleZoom(evt,'in')"/>
  <use id="zoomminus" xlink:href="#zoomMin" x="42" y="9" onmousedown="handleZoom(evt,'out')"/>
  <use id="reset" xlink:href="#resetDef" x="30" y="36" onmousedown="handleReset()"/>
   <use id="arrowup" xlink:href="#arrowUp" x="0" y="0" onmousedown="handlePan(0,-1)"/>
  <use id="arrowright" xlink:href="#arrowRight" x="0" y="0" onmousedown="handlePan(1,0)"/>
  <use id="arrowdown" xlink:href="#arrowDown" x="0" y="0" onmousedown="handlePan(0,1)"/>
  <use id="arrowleft" xlink:href="#arrowLeft" x="0" y="0" onmousedown="handlePan(-1,0)"/>
</g>
<svg viewBox="0 0 15 15" width="100%" height="30px" preserveAspectRatio="xMaxYMin meet">
 <g id="arrow_out" transform="scale(0.3 0.3)">
  <a xlink:href="group__RTC__Exported__Constants_org.svg" target="_base">
   <rect id="button" ry="5" rx="5" y="6" x="6" height="38" width="38"
        fill="#f2f5e9" fill-opacity="0.5" stroke="#606060" stroke-width="1.0"/>
   <path id="arrow"
     d="M 11.500037,31.436501 C 11.940474,20.09759 22.043105,11.32322 32.158766,21.979434 L 37.068811,17.246167 C 37.068811,17.246167 37.088388,32 37.088388,32 L 22.160133,31.978069 C 22.160133,31.978069 26.997745,27.140456 26.997745,27.140456 C 18.528582,18.264221 13.291696,25.230495 11.500037,31.436501 z"
     style="fill:#404040;"/>
  </a>
 </g>
</svg>

<style type='text/css'>
<![CDATA[
[data-mouse-over-selected='false'] { opacity: 0.7; }
[data-mouse-over-selected='true']  { opacity: 1.0; }
]]>
</style>
<script type="application/ecmascript"><![CDATA[
document.addEventListener('DOMContentLoaded', (event) => {
  highlightEdges();
  highlightAdjacentNodes();
});
]]></script>
</svg>
