<?xml version="1.0" encoding="UTF-8" standalone="no"?>
<!DOCTYPE svg PUBLIC "-//W3C//DTD SVG 1.1//EN"
 "http://www.w3.org/Graphics/SVG/1.1/DTD/svg11.dtd">
<!-- Generated by graphviz version 12.2.1 (20241206.2353)
 -->
<!-- Title: FMC Low Layer Exported Constants Pages: 1 -->
<svg width="388pt" height="94pt"
 viewBox="0.00 0.00 387.50 93.50" xmlns="http://www.w3.org/2000/svg" xmlns:xlink="http://www.w3.org/1999/xlink">

<svg id="main" version="1.1" xmlns="http://www.w3.org/2000/svg" xmlns:xlink="http://www.w3.org/1999/xlink" xml:space="preserve">

<style type="text/css"><![CDATA[
.node, .edge {opacity: 0.7;}
.node.selected, .edge.selected {opacity: 1;}
.edge:hover path { stroke: red; }
.edge:hover polygon { stroke: red; fill: red; }
]]></style>
<script type="application/ecmascript" xlink:href="svg.min.js"/>
<svg id="graph" class="graph">
<g id="graph0" class="graph" transform="scale(1 1) rotate(0) translate(4 89.5)">
<title>FMC Low Layer Exported Constants</title>
<!-- Node2 -->
<g id="Node000002" class="node">
<title>Node2</title>
<g id="a_Node000002"><a xlink:href="group__FMC__LL.html" target="_top" xlink:title=" ">
<polygon fill="white" stroke="#666666" points="52.75,-53.12 0,-53.12 0,-32.38 52.75,-32.38 52.75,-53.12"/>
<text text-anchor="middle" x="26.38" y="-39.62" font-family="Helvetica,sans-Serif" font-size="10.00">FMC_LL</text>
</a>
</g>
</g>
<!-- Node1 -->
<g id="Node000001" class="node">
<title>Node1</title>
<g id="a_Node000001"><a xlink:title=" ">
<polygon fill="#999999" stroke="#666666" points="216.5,-59.5 88.75,-59.5 88.75,-26 216.5,-26 216.5,-59.5"/>
<text text-anchor="start" x="96.75" y="-46" font-family="Helvetica,sans-Serif" font-size="10.00">FMC Low Layer Exported</text>
<text text-anchor="middle" x="152.62" y="-33.25" font-family="Helvetica,sans-Serif" font-size="10.00"> Constants</text>
</a>
</g>
</g>
<!-- Node2&#45;&gt;Node1 -->
<g id="edge1" class="edge">
<title>Node2&#45;&gt;Node1</title>
<path fill="none" stroke="black" d="M64.48,-42.75C72.08,-42.75 80.27,-42.75 88.49,-42.75"/>
<polygon fill="black" stroke="black" points="64.63,-39.25 54.63,-42.75 64.63,-46.25 64.63,-39.25"/>
</g>
<!-- Node4 -->
<g id="Node000004" class="node">
<title>Node4</title>
<g id="a_Node000004"><a xlink:href="group__FMC__LL__Flag__definition.html" target="_top" xlink:title=" ">
<polygon fill="white" stroke="#666666" points="369.38,-85.5 262.62,-85.5 262.62,-52 369.38,-52 369.38,-85.5"/>
<text text-anchor="start" x="270.62" y="-72" font-family="Helvetica,sans-Serif" font-size="10.00">FMC Low Layer Flag</text>
<text text-anchor="middle" x="316" y="-59.25" font-family="Helvetica,sans-Serif" font-size="10.00"> definition</text>
</a>
</g>
</g>
<!-- Node1&#45;&gt;Node4 -->
<g id="edge3" class="edge">
<title>Node1&#45;&gt;Node4</title>
<path fill="none" stroke="black" d="M227.96,-54.73C239.55,-56.59 251.31,-58.49 262.29,-60.26"/>
<polygon fill="black" stroke="black" points="228.87,-51.33 218.44,-53.19 227.75,-58.24 228.87,-51.33"/>
</g>
<!-- Node3 -->
<g id="Node000003" class="node">
<title>Node3</title>
<g id="a_Node000003"><a xlink:href="group__FMC__LL__Interrupt__definition.html" target="_top" xlink:title=" ">
<polygon fill="white" stroke="#666666" points="379.5,-33.5 252.5,-33.5 252.5,0 379.5,0 379.5,-33.5"/>
<text text-anchor="start" x="260.5" y="-20" font-family="Helvetica,sans-Serif" font-size="10.00">FMC Low Layer Interrupt</text>
<text text-anchor="middle" x="316" y="-7.25" font-family="Helvetica,sans-Serif" font-size="10.00"> definition</text>
</a>
</g>
</g>
<!-- Node1&#45;&gt;Node3 -->
<g id="edge2" class="edge">
<title>Node1&#45;&gt;Node3</title>
<path fill="none" stroke="black" d="M228.18,-30.74C236.19,-29.45 244.28,-28.14 252.13,-26.88"/>
<polygon fill="black" stroke="black" points="227.75,-27.26 218.44,-32.31 228.87,-34.17 227.75,-27.26"/>
</g>
</g>
</svg>
</svg>

<style type='text/css'>
<![CDATA[
[data-mouse-over-selected='false'] { opacity: 0.7; }
[data-mouse-over-selected='true']  { opacity: 1.0; }
]]>
</style>
<script type="application/ecmascript"><![CDATA[
document.addEventListener('DOMContentLoaded', (event) => {
  highlightEdges();
  highlightAdjacentNodes();
});
]]></script>
</svg>
