<?xml version="1.0" encoding="UTF-8" standalone="no"?>
<!DOCTYPE svg PUBLIC "-//W3C//DTD SVG 1.1//EN"
 "http://www.w3.org/Graphics/SVG/1.1/DTD/svg11.dtd">
<!-- Generated by graphviz version 12.2.1 (20241206.2353)
 -->
<!-- Title: PWR Pages: 1 -->
<svg width="370pt" height="224pt"
 viewBox="0.00 0.00 370.25 223.75" xmlns="http://www.w3.org/2000/svg" xmlns:xlink="http://www.w3.org/1999/xlink">

<svg id="main" version="1.1" xmlns="http://www.w3.org/2000/svg" xmlns:xlink="http://www.w3.org/1999/xlink" xml:space="preserve">

<style type="text/css"><![CDATA[
.node, .edge {opacity: 0.7;}
.node.selected, .edge.selected {opacity: 1;}
.edge:hover path { stroke: red; }
.edge:hover polygon { stroke: red; fill: red; }
]]></style>
<script type="application/ecmascript" xlink:href="svg.min.js"/>
<svg id="graph" class="graph">
<g id="graph0" class="graph" transform="scale(1 1) rotate(0) translate(4 219.75)">
<title>PWR</title>
<!-- Node1 -->
<g id="Node000001" class="node">
<title>Node1</title>
<g id="a_Node000001"><a xlink:title="PWR HAL module driver.">
<polygon fill="#999999" stroke="#666666" points="196.25,-117.75 158.5,-117.75 158.5,-97 196.25,-97 196.25,-117.75"/>
<text text-anchor="middle" x="177.38" y="-104.25" font-family="Helvetica,sans-Serif" font-size="10.00">PWR</text>
</a>
</g>
</g>
<!-- Node4 -->
<g id="Node000004" class="node">
<title>Node4</title>
<g id="a_Node000004"><a xlink:href="group__PWR__Exported__Constants.html" target="_top" xlink:title=" ">
<polygon fill="white" stroke="#666666" points="362.25,-215.75 232.25,-215.75 232.25,-195 362.25,-195 362.25,-215.75"/>
<text text-anchor="middle" x="297.25" y="-202.25" font-family="Helvetica,sans-Serif" font-size="10.00">PWR Exported Constants</text>
</a>
</g>
</g>
<!-- Node1&#45;&gt;Node4 -->
<g id="edge3" class="edge">
<title>Node1&#45;&gt;Node4</title>
<path fill="none" stroke="black" d="M187.91,-128.31C196.96,-145.94 212.15,-170.58 232.25,-185.38 237.31,-189.1 243.09,-192.15 249.05,-194.63"/>
<polygon fill="black" stroke="black" points="191.16,-126.98 183.64,-119.52 184.86,-130.04 191.16,-126.98"/>
</g>
<!-- Node8 -->
<g id="Node000008" class="node">
<title>Node8</title>
<g id="a_Node000008"><a xlink:href="group__PWR__Exported__Functions.html" target="_top" xlink:title=" ">
<polygon fill="white" stroke="#666666" points="361.12,-176.75 233.38,-176.75 233.38,-156 361.12,-156 361.12,-176.75"/>
<text text-anchor="middle" x="297.25" y="-163.25" font-family="Helvetica,sans-Serif" font-size="10.00">PWR Exported Functions</text>
</a>
</g>
</g>
<!-- Node1&#45;&gt;Node8 -->
<g id="edge7" class="edge">
<title>Node1&#45;&gt;Node8</title>
<path fill="none" stroke="black" d="M199.24,-124.91C208.83,-132.32 220.64,-140.55 232.25,-146.38 239.33,-149.92 247.16,-153 254.85,-155.6"/>
<polygon fill="black" stroke="black" points="201.65,-122.36 191.65,-118.85 197.28,-127.83 201.65,-122.36"/>
</g>
<!-- Node5 -->
<g id="Node000005" class="node">
<title>Node5</title>
<g id="a_Node000005"><a xlink:href="group__PWR__Exported__Macro.html" target="_top" xlink:title=" ">
<polygon fill="white" stroke="#666666" points="352.88,-137.75 241.62,-137.75 241.62,-117 352.88,-117 352.88,-137.75"/>
<text text-anchor="middle" x="297.25" y="-124.25" font-family="Helvetica,sans-Serif" font-size="10.00">PWR Exported Macro</text>
</a>
</g>
</g>
<!-- Node1&#45;&gt;Node5 -->
<g id="edge4" class="edge">
<title>Node1&#45;&gt;Node5</title>
<path fill="none" stroke="black" d="M207.68,-112.35C217.89,-114.08 229.71,-116.09 241.32,-118.06"/>
<polygon fill="black" stroke="black" points="208.47,-108.93 198.03,-110.71 207.3,-115.83 208.47,-108.93"/>
</g>
<!-- Node3 -->
<g id="Node000003" class="node">
<title>Node3</title>
<g id="a_Node000003"><a xlink:href="group__PWR__Exported__Types.html" target="_top" xlink:title=" ">
<polygon fill="white" stroke="#666666" points="352.12,-98.75 242.38,-98.75 242.38,-78 352.12,-78 352.12,-98.75"/>
<text text-anchor="middle" x="297.25" y="-85.25" font-family="Helvetica,sans-Serif" font-size="10.00">PWR Exported Types</text>
</a>
</g>
</g>
<!-- Node1&#45;&gt;Node3 -->
<g id="edge2" class="edge">
<title>Node1&#45;&gt;Node3</title>
<path fill="none" stroke="black" d="M207.87,-102.62C218.27,-100.94 230.31,-99 242.1,-97.1"/>
<polygon fill="black" stroke="black" points="207.34,-99.16 198.03,-104.21 208.46,-106.07 207.34,-99.16"/>
</g>
<!-- Node6 -->
<g id="Node000006" class="node">
<title>Node6</title>
<g id="a_Node000006"><a xlink:href="group__PWR__Private__Constants.html" target="_top" xlink:title=" ">
<polygon fill="white" stroke="#666666" points="357,-59.75 237.5,-59.75 237.5,-39 357,-39 357,-59.75"/>
<text text-anchor="middle" x="297.25" y="-46.25" font-family="Helvetica,sans-Serif" font-size="10.00">PWR Private Constants</text>
</a>
</g>
</g>
<!-- Node1&#45;&gt;Node6 -->
<g id="edge5" class="edge">
<title>Node1&#45;&gt;Node6</title>
<path fill="none" stroke="black" d="M199.98,-89.8C209.46,-82.73 220.98,-74.94 232.25,-69.38 239.35,-65.87 247.19,-62.82 254.88,-60.22"/>
<polygon fill="black" stroke="black" points="197.91,-86.98 192.14,-95.87 202.19,-92.52 197.91,-86.98"/>
</g>
<!-- Node7 -->
<g id="Node000007" class="node">
<title>Node7</title>
<g id="a_Node000007"><a xlink:href="group__PWR__Private__Macros.html" target="_top" xlink:title=" ">
<polygon fill="white" stroke="#666666" points="349.88,-20.75 244.62,-20.75 244.62,0 349.88,0 349.88,-20.75"/>
<text text-anchor="middle" x="297.25" y="-7.25" font-family="Helvetica,sans-Serif" font-size="10.00">PWR Private Macros</text>
</a>
</g>
</g>
<!-- Node1&#45;&gt;Node7 -->
<g id="edge6" class="edge">
<title>Node1&#45;&gt;Node7</title>
<path fill="none" stroke="black" d="M188.11,-86.46C197.21,-69.08 212.37,-44.91 232.25,-30.38 237.32,-26.66 243.1,-23.63 249.07,-21.15"/>
<polygon fill="black" stroke="black" points="184.99,-84.86 183.69,-95.38 191.26,-87.97 184.99,-84.86"/>
</g>
<!-- Node2 -->
<g id="Node000002" class="node">
<title>Node2</title>
<g id="a_Node000002"><a xlink:href="group__STM32F4xx__HAL__Driver.html" target="_top" xlink:title=" ">
<polygon fill="white" stroke="#666666" points="122.5,-117.75 0,-117.75 0,-97 122.5,-97 122.5,-117.75"/>
<text text-anchor="middle" x="61.25" y="-104.25" font-family="Helvetica,sans-Serif" font-size="10.00">STM32F4xx_HAL_Driver</text>
</a>
</g>
</g>
<!-- Node2&#45;&gt;Node1 -->
<g id="edge1" class="edge">
<title>Node2&#45;&gt;Node1</title>
<path fill="none" stroke="black" d="M134.42,-107.38C143.28,-107.38 151.61,-107.38 158.48,-107.38"/>
<polygon fill="black" stroke="black" points="134.5,-103.88 124.5,-107.38 134.5,-110.88 134.5,-103.88"/>
</g>
</g>
</svg>
</svg>

<style type='text/css'>
<![CDATA[
[data-mouse-over-selected='false'] { opacity: 0.7; }
[data-mouse-over-selected='true']  { opacity: 1.0; }
]]>
</style>
<script type="application/ecmascript"><![CDATA[
document.addEventListener('DOMContentLoaded', (event) => {
  highlightEdges();
  highlightAdjacentNodes();
});
]]></script>
</svg>
