<?xml version="1.0" encoding="UTF-8" standalone="no"?>
<!DOCTYPE svg PUBLIC "-//W3C//DTD SVG 1.1//EN"
 "http://www.w3.org/Graphics/SVG/1.1/DTD/svg11.dtd">
<!-- Generated by graphviz version 2.43.0 (0)
 -->
<!-- Title: FLASH_Exported_Functions Pages: 1 -->
<svg width="427pt" height="134pt"
 viewBox="0.00 0.00 427.00 134.00" xmlns="http://www.w3.org/2000/svg" xmlns:xlink="http://www.w3.org/1999/xlink">

<svg id="main" version="1.1" xmlns="http://www.w3.org/2000/svg" xmlns:xlink="http://www.w3.org/1999/xlink" xml:space="preserve">

<style type="text/css"><![CDATA[
.node, .edge {opacity: 0.7;}
.node.selected, .edge.selected {opacity: 1;}
.edge:hover path { stroke: red; }
.edge:hover polygon { stroke: red; fill: red; }
]]></style>
<script type="application/ecmascript" xlink:href="svg.min.js"/>
<svg id="graph" class="graph">
<g id="graph0" class="graph" transform="scale(1 1) rotate(0) translate(4 130)">
<title>FLASH_Exported_Functions</title>
<!-- Node2 -->
<g id="Node000002" class="node">
<title>Node2</title>
<g id="a_Node000002"><a xlink:href="group__FLASH.html" target="_top" xlink:title="FLASH HAL module driver.">
<polygon fill="white" stroke="#666666" points="49,-72.5 0,-72.5 0,-53.5 49,-53.5 49,-72.5"/>
<text text-anchor="middle" x="24.5" y="-60.5" font-family="Helvetica,sans-Serif" font-size="10.00">FLASH</text>
</a>
</g>
</g>
<!-- Node1 -->
<g id="Node000001" class="node">
<title>Node1</title>
<g id="a_Node000001"><a xlink:title=" ">
<polygon fill="#999999" stroke="#666666" points="234,-72.5 85,-72.5 85,-53.5 234,-53.5 234,-72.5"/>
<text text-anchor="middle" x="159.5" y="-60.5" font-family="Helvetica,sans-Serif" font-size="10.00">FLASH_Exported_Functions</text>
</a>
</g>
</g>
<!-- Node2&#45;&gt;Node1 -->
<g id="edge1" class="edge">
<title>Node2&#45;&gt;Node1</title>
<path fill="none" stroke="black" d="M59.42,-63C67.27,-63 75.92,-63 84.74,-63"/>
<polygon fill="black" stroke="black" points="59.28,-59.5 49.28,-63 59.28,-66.5 59.28,-59.5"/>
</g>
<!-- Node3 -->
<g id="Node000003" class="node">
<title>Node3</title>
<g id="a_Node000003"><a xlink:href="group__FLASH__Exported__Functions__Group1.html" target="_top" xlink:title=" ">
<polygon fill="white" stroke="#666666" points="419,-126 270,-126 270,-96 419,-96 419,-126"/>
<text text-anchor="start" x="278" y="-114" font-family="Helvetica,sans-Serif" font-size="10.00">FLASH_Exported_Functions</text>
<text text-anchor="middle" x="344.5" y="-103" font-family="Helvetica,sans-Serif" font-size="10.00">_Group1</text>
</a>
</g>
</g>
<!-- Node1&#45;&gt;Node3 -->
<g id="edge2" class="edge">
<title>Node1&#45;&gt;Node3</title>
<path fill="none" stroke="black" d="M207.03,-75.2C231.07,-81.51 260.62,-89.26 286.07,-95.94"/>
<polygon fill="black" stroke="black" points="207.65,-71.75 197.09,-72.6 205.88,-78.52 207.65,-71.75"/>
</g>
<!-- Node4 -->
<g id="Node000004" class="node">
<title>Node4</title>
<g id="a_Node000004"><a xlink:href="group__FLASH__Exported__Functions__Group2.html" target="_top" xlink:title=" ">
<polygon fill="white" stroke="#666666" points="419,-78 270,-78 270,-48 419,-48 419,-78"/>
<text text-anchor="start" x="278" y="-66" font-family="Helvetica,sans-Serif" font-size="10.00">FLASH_Exported_Functions</text>
<text text-anchor="middle" x="344.5" y="-55" font-family="Helvetica,sans-Serif" font-size="10.00">_Group2</text>
</a>
</g>
</g>
<!-- Node1&#45;&gt;Node4 -->
<g id="edge3" class="edge">
<title>Node1&#45;&gt;Node4</title>
<path fill="none" stroke="black" d="M244.39,-63C252.84,-63 261.38,-63 269.71,-63"/>
<polygon fill="black" stroke="black" points="244.14,-59.5 234.14,-63 244.14,-66.5 244.14,-59.5"/>
</g>
<!-- Node5 -->
<g id="Node000005" class="node">
<title>Node5</title>
<g id="a_Node000005"><a xlink:href="group__FLASH__Exported__Functions__Group3.html" target="_top" xlink:title=" ">
<polygon fill="white" stroke="#666666" points="419,-30 270,-30 270,0 419,0 419,-30"/>
<text text-anchor="start" x="278" y="-18" font-family="Helvetica,sans-Serif" font-size="10.00">FLASH_Exported_Functions</text>
<text text-anchor="middle" x="344.5" y="-7" font-family="Helvetica,sans-Serif" font-size="10.00">_Group3</text>
</a>
</g>
</g>
<!-- Node1&#45;&gt;Node5 -->
<g id="edge4" class="edge">
<title>Node1&#45;&gt;Node5</title>
<path fill="none" stroke="black" d="M207.03,-50.8C231.07,-44.49 260.62,-36.74 286.07,-30.06"/>
<polygon fill="black" stroke="black" points="205.88,-47.48 197.09,-53.4 207.65,-54.25 205.88,-47.48"/>
</g>
</g>
</svg>
</svg>

<style type='text/css'>
<![CDATA[
[data-mouse-over-selected='false'] { opacity: 0.7; }
[data-mouse-over-selected='true']  { opacity: 1.0; }
]]>
</style>
<script type="application/ecmascript"><![CDATA[
document.addEventListener('DOMContentLoaded', (event) => {
  highlightEdges();
  highlightAdjacentNodes();
});
]]></script>
</svg>
