<?xml version="1.0" encoding="UTF-8" standalone="no"?>
<!DOCTYPE svg PUBLIC "-//W3C//DTD SVG 1.1//EN"
 "http://www.w3.org/Graphics/SVG/1.1/DTD/svg11.dtd">
<!-- Generated by graphviz version 12.2.1 (20241206.2353)
 -->
<!-- Title: I2C Exported Types Pages: 1 -->
<svg width="353pt" height="236pt"
 viewBox="0.00 0.00 353.00 235.50" xmlns="http://www.w3.org/2000/svg" xmlns:xlink="http://www.w3.org/1999/xlink">
<g id="page0,1_graph0" class="graph" transform="scale(1 1) rotate(0) translate(4 231.5)">
<title>I2C Exported Types</title>
<!-- Node5 -->
<g id="Node000005" class="node">
<title>Node5</title>
<g id="a_Node000005"><a xlink:href="group__HAL__mode__structure__definition.html" target="_top" xlink:title="HAL Mode structure definition.">
<polygon fill="white" stroke="#666666" points="328.12,-227.5 222.88,-227.5 222.88,-194 328.12,-194 328.12,-227.5"/>
<text text-anchor="start" x="230.88" y="-214" font-family="Helvetica,sans-Serif" font-size="10.00">HAL mode structure</text>
<text text-anchor="middle" x="275.5" y="-201.25" font-family="Helvetica,sans-Serif" font-size="10.00"> definition</text>
</a>
</g>
</g>
<!-- Node4 -->
<g id="Node000004" class="node">
<title>Node4</title>
<g id="a_Node000004"><a xlink:href="group__HAL__state__structure__definition.html" target="_top" xlink:title="HAL State structure definition.">
<polygon fill="white" stroke="#666666" points="326.25,-175.5 224.75,-175.5 224.75,-142 326.25,-142 326.25,-175.5"/>
<text text-anchor="start" x="232.75" y="-162" font-family="Helvetica,sans-Serif" font-size="10.00">HAL state structure</text>
<text text-anchor="middle" x="275.5" y="-149.25" font-family="Helvetica,sans-Serif" font-size="10.00"> definition</text>
</a>
</g>
</g>
<!-- Node2 -->
<g id="Node000002" class="node">
<title>Node2</title>
<g id="a_Node000002"><a xlink:href="group__I2C.html" target="_top" xlink:title="I2C HAL module driver.">
<polygon fill="white" stroke="#666666" points="31,-117.12 0,-117.12 0,-96.38 31,-96.38 31,-117.12"/>
<text text-anchor="middle" x="15.5" y="-103.62" font-family="Helvetica,sans-Serif" font-size="10.00">I2C</text>
</a>
</g>
</g>
<!-- Node1 -->
<g id="Node000001" class="node">
<title>Node1</title>
<g id="a_Node000001"><a xlink:title=" ">
<polygon fill="#999999" stroke="#666666" points="170,-117.12 67,-117.12 67,-96.38 170,-96.38 170,-117.12"/>
<text text-anchor="middle" x="118.5" y="-103.62" font-family="Helvetica,sans-Serif" font-size="10.00">I2C Exported Types</text>
</a>
</g>
</g>
<!-- Node2&#45;&gt;Node1 -->
<g id="edge1" class="edge">
<title>Node2&#45;&gt;Node1</title>
<path fill="none" stroke="black" d="M42.73,-106.75C50.06,-106.75 58.27,-106.75 66.51,-106.75"/>
<polygon fill="black" stroke="black" points="42.92,-103.25 32.92,-106.75 42.92,-110.25 42.92,-103.25"/>
</g>
<!-- Node3 -->
<g id="Node000003" class="node">
<title>Node3</title>
<g id="a_Node000003"><a xlink:href="group__I2C__Configuration__Structure__definition.html" target="_top" xlink:title="I2C Configuration Structure definition.">
<polygon fill="white" stroke="#666666" points="345,-123.5 206,-123.5 206,-90 345,-90 345,-123.5"/>
<text text-anchor="start" x="214" y="-110" font-family="Helvetica,sans-Serif" font-size="10.00">I2C Configuration Structure</text>
<text text-anchor="middle" x="275.5" y="-97.25" font-family="Helvetica,sans-Serif" font-size="10.00"> definition</text>
</a>
</g>
</g>
<!-- Node6 -->
<g id="Node000006" class="node">
<title>Node6</title>
<g id="a_Node000006"><a xlink:href="group__I2C__Error__Code__definition.html" target="_top" xlink:title="I2C Error Code definition.">
<polygon fill="white" stroke="#666666" points="339.75,-72.12 211.25,-72.12 211.25,-51.38 339.75,-51.38 339.75,-72.12"/>
<text text-anchor="middle" x="275.5" y="-58.62" font-family="Helvetica,sans-Serif" font-size="10.00">I2C Error Code definition</text>
</a>
</g>
</g>
<!-- Node1&#45;&gt;Node5 -->
<g id="edge4" class="edge">
<title>Node1&#45;&gt;Node5</title>
<path fill="none" stroke="black" d="M136.51,-125.69C152.9,-142.99 179.11,-168.33 206,-184.75 211.32,-188 217.11,-190.96 223,-193.62"/>
<polygon fill="black" stroke="black" points="139.28,-123.52 129.91,-118.57 134.14,-128.28 139.28,-123.52"/>
</g>
<!-- Node1&#45;&gt;Node4 -->
<g id="edge3" class="edge">
<title>Node1&#45;&gt;Node4</title>
<path fill="none" stroke="black" d="M162.47,-121.16C181.68,-127.61 204.44,-135.25 224.42,-141.95"/>
<polygon fill="black" stroke="black" points="163.64,-117.87 153.05,-118.01 161.42,-124.5 163.64,-117.87"/>
</g>
<!-- Node1&#45;&gt;Node3 -->
<g id="edge2" class="edge">
<title>Node1&#45;&gt;Node3</title>
<path fill="none" stroke="black" d="M181.62,-106.75C189.51,-106.75 197.62,-106.75 205.61,-106.75"/>
<polygon fill="black" stroke="black" points="181.77,-103.25 171.77,-106.75 181.77,-110.25 181.77,-103.25"/>
</g>
<!-- Node1&#45;&gt;Node6 -->
<g id="edge5" class="edge">
<title>Node1&#45;&gt;Node6</title>
<path fill="none" stroke="black" d="M165.46,-92.74C178.54,-88.8 192.82,-84.56 206,-80.75 215.37,-78.04 225.48,-75.2 234.98,-72.56"/>
<polygon fill="black" stroke="black" points="164.81,-89.28 156.25,-95.52 166.84,-95.98 164.81,-89.28"/>
</g>
<!-- Node7 -->
<g id="Node000007" class="node">
<title>Node7</title>
<g id="a_Node000007"><a xlink:href="group__I2C__handle__Structure__definition.html" target="_top" xlink:title="I2C handle Structure definition.">
<polygon fill="white" stroke="#666666" points="329.25,-33.5 221.75,-33.5 221.75,0 329.25,0 329.25,-33.5"/>
<text text-anchor="start" x="229.75" y="-20" font-family="Helvetica,sans-Serif" font-size="10.00">I2C handle Structure</text>
<text text-anchor="middle" x="275.5" y="-7.25" font-family="Helvetica,sans-Serif" font-size="10.00"> definition</text>
</a>
</g>
</g>
<!-- Node1&#45;&gt;Node7 -->
<g id="edge6" class="edge">
<title>Node1&#45;&gt;Node7</title>
<path fill="none" stroke="black" d="M140.15,-88.93C157.02,-75.01 181.93,-55.9 206,-42.75 211.81,-39.58 218.08,-36.62 224.39,-33.93"/>
<polygon fill="black" stroke="black" points="138.23,-85.97 132.82,-95.08 142.73,-91.33 138.23,-85.97"/>
</g>
</g>
</svg>
