<?xml version="1.0" encoding="UTF-8" standalone="no"?>
<!DOCTYPE svg PUBLIC "-//W3C//DTD SVG 1.1//EN"
 "http://www.w3.org/Graphics/SVG/1.1/DTD/svg11.dtd">
<!-- Generated by graphviz version 12.2.1 (20241206.2353)
 -->
<!-- Title: IWDG Pages: 1 -->
<svg width="381pt" height="224pt"
 viewBox="0.00 0.00 380.75 223.75" xmlns="http://www.w3.org/2000/svg" xmlns:xlink="http://www.w3.org/1999/xlink">

<svg id="main" version="1.1" xmlns="http://www.w3.org/2000/svg" xmlns:xlink="http://www.w3.org/1999/xlink" xml:space="preserve">

<style type="text/css"><![CDATA[
.node, .edge {opacity: 0.7;}
.node.selected, .edge.selected {opacity: 1;}
.edge:hover path { stroke: red; }
.edge:hover polygon { stroke: red; fill: red; }
]]></style>
<script type="application/ecmascript" xlink:href="svg.min.js"/>
<svg id="graph" class="graph">
<g id="graph0" class="graph" transform="scale(1 1) rotate(0) translate(4 219.75)">
<title>IWDG</title>
<!-- Node1 -->
<g id="Node000001" class="node">
<title>Node1</title>
<g id="a_Node000001"><a xlink:title=" ">
<polygon fill="#999999" stroke="#666666" points="201.5,-117.75 158.5,-117.75 158.5,-97 201.5,-97 201.5,-117.75"/>
<text text-anchor="middle" x="180" y="-104.25" font-family="Helvetica,sans-Serif" font-size="10.00">IWDG</text>
</a>
</g>
</g>
<!-- Node4 -->
<g id="Node000004" class="node">
<title>Node4</title>
<g id="a_Node000004"><a xlink:href="group__IWDG__Exported__Constants.html" target="_top" xlink:title=" ">
<polygon fill="white" stroke="#666666" points="372.75,-215.75 237.5,-215.75 237.5,-195 372.75,-195 372.75,-215.75"/>
<text text-anchor="middle" x="305.12" y="-202.25" font-family="Helvetica,sans-Serif" font-size="10.00">IWDG Exported Constants</text>
</a>
</g>
</g>
<!-- Node1&#45;&gt;Node4 -->
<g id="edge3" class="edge">
<title>Node1&#45;&gt;Node4</title>
<path fill="none" stroke="black" d="M191.21,-128.37C200.82,-146.03 216.83,-170.69 237.5,-185.38 242.72,-189.08 248.63,-192.11 254.73,-194.59"/>
<polygon fill="black" stroke="black" points="194.34,-126.81 186.64,-119.53 188.12,-130.02 194.34,-126.81"/>
</g>
<!-- Node6 -->
<g id="Node000006" class="node">
<title>Node6</title>
<g id="a_Node000006"><a xlink:href="group__IWDG__Exported__Functions.html" target="_top" xlink:title=" ">
<polygon fill="white" stroke="#666666" points="371.62,-176.75 238.62,-176.75 238.62,-156 371.62,-156 371.62,-176.75"/>
<text text-anchor="middle" x="305.12" y="-163.25" font-family="Helvetica,sans-Serif" font-size="10.00">IWDG Exported Functions</text>
</a>
</g>
</g>
<!-- Node1&#45;&gt;Node6 -->
<g id="edge5" class="edge">
<title>Node1&#45;&gt;Node6</title>
<path fill="none" stroke="black" d="M202.65,-124.69C212.78,-132.16 225.29,-140.51 237.5,-146.38 244.9,-149.93 253.07,-153.01 261.08,-155.61"/>
<polygon fill="black" stroke="black" points="205.03,-122.11 194.95,-118.83 200.79,-127.68 205.03,-122.11"/>
</g>
<!-- Node5 -->
<g id="Node000005" class="node">
<title>Node5</title>
<g id="a_Node000005"><a xlink:href="group__IWDG__Exported__Macros.html" target="_top" xlink:title=" ">
<polygon fill="white" stroke="#666666" points="365.62,-137.75 244.62,-137.75 244.62,-117 365.62,-117 365.62,-137.75"/>
<text text-anchor="middle" x="305.12" y="-124.25" font-family="Helvetica,sans-Serif" font-size="10.00">IWDG Exported Macros</text>
</a>
</g>
</g>
<!-- Node1&#45;&gt;Node5 -->
<g id="edge4" class="edge">
<title>Node1&#45;&gt;Node5</title>
<path fill="none" stroke="black" d="M212.93,-112.56C222.58,-114.13 233.51,-115.9 244.36,-117.67"/>
<polygon fill="black" stroke="black" points="213.81,-109.16 203.38,-111.01 212.69,-116.07 213.81,-109.16"/>
</g>
<!-- Node3 -->
<g id="Node000003" class="node">
<title>Node3</title>
<g id="a_Node000003"><a xlink:href="group__IWDG__Exported__Types.html" target="_top" xlink:title=" ">
<polygon fill="white" stroke="#666666" points="362.62,-98.75 247.62,-98.75 247.62,-78 362.62,-78 362.62,-98.75"/>
<text text-anchor="middle" x="305.12" y="-85.25" font-family="Helvetica,sans-Serif" font-size="10.00">IWDG Exported Types</text>
</a>
</g>
</g>
<!-- Node1&#45;&gt;Node3 -->
<g id="edge2" class="edge">
<title>Node1&#45;&gt;Node3</title>
<path fill="none" stroke="black" d="M213.01,-102.44C223.51,-100.82 235.51,-98.96 247.29,-97.15"/>
<polygon fill="black" stroke="black" points="212.73,-98.94 203.38,-103.92 213.8,-105.85 212.73,-98.94"/>
</g>
<!-- Node7 -->
<g id="Node000007" class="node">
<title>Node7</title>
<g id="a_Node000007"><a xlink:href="group__IWDG__Private__Constants.html" target="_top" xlink:title=" ">
<polygon fill="white" stroke="#666666" points="367.5,-59.75 242.75,-59.75 242.75,-39 367.5,-39 367.5,-59.75"/>
<text text-anchor="middle" x="305.12" y="-46.25" font-family="Helvetica,sans-Serif" font-size="10.00">IWDG Private Constants</text>
</a>
</g>
</g>
<!-- Node1&#45;&gt;Node7 -->
<g id="edge6" class="edge">
<title>Node1&#45;&gt;Node7</title>
<path fill="none" stroke="black" d="M203.43,-90.01C213.44,-82.88 225.64,-74.99 237.5,-69.38 244.92,-65.86 253.1,-62.81 261.12,-60.21"/>
<polygon fill="black" stroke="black" points="201.43,-87.14 195.46,-95.89 205.58,-92.77 201.43,-87.14"/>
</g>
<!-- Node8 -->
<g id="Node000008" class="node">
<title>Node8</title>
<g id="a_Node000008"><a xlink:href="group__IWDG__Private__Macros.html" target="_top" xlink:title=" ">
<polygon fill="white" stroke="#666666" points="360.38,-20.75 249.88,-20.75 249.88,0 360.38,0 360.38,-20.75"/>
<text text-anchor="middle" x="305.12" y="-7.25" font-family="Helvetica,sans-Serif" font-size="10.00">IWDG Private Macros</text>
</a>
</g>
</g>
<!-- Node1&#45;&gt;Node8 -->
<g id="edge7" class="edge">
<title>Node1&#45;&gt;Node8</title>
<path fill="none" stroke="black" d="M191.13,-86.9C200.77,-69.45 216.86,-44.95 237.5,-30.38 242.73,-26.68 248.65,-23.66 254.75,-21.19"/>
<polygon fill="black" stroke="black" points="188.24,-84.88 186.68,-95.36 194.43,-88.14 188.24,-84.88"/>
</g>
<!-- Node2 -->
<g id="Node000002" class="node">
<title>Node2</title>
<g id="a_Node000002"><a xlink:href="group__STM32F4xx__HAL__Driver.html" target="_top" xlink:title=" ">
<polygon fill="white" stroke="#666666" points="122.5,-117.75 0,-117.75 0,-97 122.5,-97 122.5,-117.75"/>
<text text-anchor="middle" x="61.25" y="-104.25" font-family="Helvetica,sans-Serif" font-size="10.00">STM32F4xx_HAL_Driver</text>
</a>
</g>
</g>
<!-- Node2&#45;&gt;Node1 -->
<g id="edge1" class="edge">
<title>Node2&#45;&gt;Node1</title>
<path fill="none" stroke="black" d="M133.98,-107.38C142.77,-107.38 151.13,-107.38 158.21,-107.38"/>
<polygon fill="black" stroke="black" points="134.19,-103.88 124.19,-107.38 134.19,-110.88 134.19,-103.88"/>
</g>
</g>
</svg>
</svg>

<style type='text/css'>
<![CDATA[
[data-mouse-over-selected='false'] { opacity: 0.7; }
[data-mouse-over-selected='true']  { opacity: 1.0; }
]]>
</style>
<script type="application/ecmascript"><![CDATA[
document.addEventListener('DOMContentLoaded', (event) => {
  highlightEdges();
  highlightAdjacentNodes();
});
]]></script>
</svg>
