<?xml version="1.0" encoding="UTF-8" standalone="no"?>
<!DOCTYPE svg PUBLIC "-//W3C//DTD SVG 1.1//EN"
 "http://www.w3.org/Graphics/SVG/1.1/DTD/svg11.dtd">
<!-- Generated by graphviz version 2.43.0 (0)
 -->
<!-- Title: TIM Exported Functions Pages: 1 -->
<svg width="409pt" height="395pt"
 viewBox="0.00 0.00 409.00 395.00" xmlns="http://www.w3.org/2000/svg" xmlns:xlink="http://www.w3.org/1999/xlink">

<svg id="main" version="1.1" xmlns="http://www.w3.org/2000/svg" xmlns:xlink="http://www.w3.org/1999/xlink" xml:space="preserve" onload="init(evt)">
<style type="text/css"><![CDATA[
.node, .edge {opacity: 0.7;}
.node.selected, .edge.selected {opacity: 1;}
.edge:hover path { stroke: red; }
.edge:hover polygon { stroke: red; fill: red; }
]]></style>
<script type="application/ecmascript" xlink:href="svg.min.js"/>
<svg id="graph" class="graph">
<g id="graph0" class="graph" transform="scale(1 1) rotate(0) translate(4 391)">
<title>TIM Exported Functions</title>
<!-- Node2 -->
<g id="Node000002" class="node">
<title>Node2</title>
<g id="a_Node000002"><a xlink:href="group__TIM.html" target="_top" xlink:title="TIM HAL module driver.">
<polygon fill="white" stroke="#666666" points="35,-197 0,-197 0,-178 35,-178 35,-197"/>
<text text-anchor="middle" x="17.5" y="-185" font-family="Helvetica,sans-Serif" font-size="10.00">TIM</text>
</a>
</g>
</g>
<!-- Node1 -->
<g id="Node000001" class="node">
<title>Node1</title>
<g id="a_Node000001"><a xlink:title=" ">
<polygon fill="#999999" stroke="#666666" points="202,-197 71,-197 71,-178 202,-178 202,-197"/>
<text text-anchor="middle" x="136.5" y="-185" font-family="Helvetica,sans-Serif" font-size="10.00">TIM Exported Functions</text>
</a>
</g>
</g>
<!-- Node2&#45;&gt;Node1 -->
<g id="edge1" class="edge">
<title>Node2&#45;&gt;Node1</title>
<path fill="none" stroke="black" d="M45.17,-187.5C52.93,-187.5 61.76,-187.5 70.79,-187.5"/>
<polygon fill="black" stroke="black" points="45.02,-184 35.02,-187.5 45.02,-191 45.02,-184"/>
</g>
<!-- Node6 -->
<g id="Node000006" class="node">
<title>Node6</title>
<g id="a_Node000006"><a xlink:href="group__TIM__Exported__Functions__Group1.html" target="_top" xlink:title="Time Base functions.">
<polygon fill="white" stroke="#666666" points="388,-387 251,-387 251,-368 388,-368 388,-387"/>
<text text-anchor="middle" x="319.5" y="-375" font-family="Helvetica,sans-Serif" font-size="10.00">TIM Time Base functions</text>
</a>
</g>
</g>
<!-- Node1&#45;&gt;Node6 -->
<g id="edge5" class="edge">
<title>Node1&#45;&gt;Node6</title>
<path fill="none" stroke="black" d="M143.2,-206.79C154.83,-242.59 184.76,-319.22 238,-358.5 243.2,-362.34 249.06,-365.41 255.19,-367.87"/>
<polygon fill="black" stroke="black" points="146.5,-205.58 140.18,-197.08 139.81,-207.67 146.5,-205.58"/>
</g>
<!-- Node5 -->
<g id="Node000005" class="node">
<title>Node5</title>
<g id="a_Node000005"><a xlink:href="group__TIM__Exported__Functions__Group10.html" target="_top" xlink:title="Peripheral State functions.">
<polygon fill="white" stroke="#666666" points="377.5,-349.5 261.5,-349.5 261.5,-319.5 377.5,-319.5 377.5,-349.5"/>
<text text-anchor="start" x="269.5" y="-337.5" font-family="Helvetica,sans-Serif" font-size="10.00">TIM Peripheral State</text>
<text text-anchor="middle" x="319.5" y="-326.5" font-family="Helvetica,sans-Serif" font-size="10.00"> functions</text>
</a>
</g>
</g>
<!-- Node1&#45;&gt;Node5 -->
<g id="edge4" class="edge">
<title>Node1&#45;&gt;Node5</title>
<path fill="none" stroke="black" d="M147.68,-205.95C163.5,-232.91 196.51,-282.86 238,-310.5 245.04,-315.19 253.02,-318.99 261.16,-322.05"/>
<polygon fill="black" stroke="black" points="150.65,-204.09 142.65,-197.14 144.57,-207.56 150.65,-204.09"/>
</g>
<!-- Node7 -->
<g id="Node000007" class="node">
<title>Node7</title>
<g id="a_Node000007"><a xlink:href="group__TIM__Exported__Functions__Group2.html" target="_top" xlink:title="TIM Output Compare functions.">
<polygon fill="white" stroke="#666666" points="378.5,-301.5 260.5,-301.5 260.5,-271.5 378.5,-271.5 378.5,-301.5"/>
<text text-anchor="start" x="268.5" y="-289.5" font-family="Helvetica,sans-Serif" font-size="10.00">TIM Output Compare</text>
<text text-anchor="middle" x="319.5" y="-278.5" font-family="Helvetica,sans-Serif" font-size="10.00"> functions</text>
</a>
</g>
</g>
<!-- Node1&#45;&gt;Node7 -->
<g id="edge6" class="edge">
<title>Node1&#45;&gt;Node7</title>
<path fill="none" stroke="black" d="M155.44,-204C174.6,-220.83 206.48,-246.67 238,-262.5 245.04,-266.03 252.69,-269.15 260.38,-271.85"/>
<polygon fill="black" stroke="black" points="157.6,-201.24 147.82,-197.18 152.94,-206.45 157.6,-201.24"/>
</g>
<!-- Node8 -->
<g id="Node000008" class="node">
<title>Node8</title>
<g id="a_Node000008"><a xlink:href="group__TIM__Exported__Functions__Group3.html" target="_top" xlink:title="TIM PWM functions.">
<polygon fill="white" stroke="#666666" points="374.5,-253 264.5,-253 264.5,-234 374.5,-234 374.5,-253"/>
<text text-anchor="middle" x="319.5" y="-241" font-family="Helvetica,sans-Serif" font-size="10.00">TIM PWM functions</text>
</a>
</g>
</g>
<!-- Node1&#45;&gt;Node8 -->
<g id="edge7" class="edge">
<title>Node1&#45;&gt;Node8</title>
<path fill="none" stroke="black" d="M169.29,-200.84C188.87,-208.73 214.61,-218.5 238,-225.5 248.43,-228.62 259.76,-231.47 270.54,-233.94"/>
<polygon fill="black" stroke="black" points="170.52,-197.56 159.94,-197.03 167.88,-204.05 170.52,-197.56"/>
</g>
<!-- Node9 -->
<g id="Node000009" class="node">
<title>Node9</title>
<g id="a_Node000009"><a xlink:href="group__TIM__Exported__Functions__Group4.html" target="_top" xlink:title="TIM Input Capture functions.">
<polygon fill="white" stroke="#666666" points="395.5,-216 243.5,-216 243.5,-197 395.5,-197 395.5,-216"/>
<text text-anchor="middle" x="319.5" y="-204" font-family="Helvetica,sans-Serif" font-size="10.00">TIM Input Capture functions</text>
</a>
</g>
</g>
<!-- Node1&#45;&gt;Node9 -->
<g id="edge8" class="edge">
<title>Node1&#45;&gt;Node9</title>
<path fill="none" stroke="black" d="M212.26,-195.35C222.56,-196.43 233.14,-197.54 243.45,-198.62"/>
<polygon fill="black" stroke="black" points="212.39,-191.84 202.08,-194.28 211.66,-198.8 212.39,-191.84"/>
</g>
<!-- Node10 -->
<g id="Node000010" class="node">
<title>Node10</title>
<g id="a_Node000010"><a xlink:href="group__TIM__Exported__Functions__Group5.html" target="_top" xlink:title="TIM One Pulse functions.">
<polygon fill="white" stroke="#666666" points="386.5,-179 252.5,-179 252.5,-160 386.5,-160 386.5,-179"/>
<text text-anchor="middle" x="319.5" y="-167" font-family="Helvetica,sans-Serif" font-size="10.00">TIM One Pulse functions</text>
</a>
</g>
</g>
<!-- Node1&#45;&gt;Node10 -->
<g id="edge9" class="edge">
<title>Node1&#45;&gt;Node10</title>
<path fill="none" stroke="black" d="M212.17,-180.07C225.52,-178.75 239.34,-177.37 252.42,-176.07"/>
<polygon fill="black" stroke="black" points="211.68,-176.61 202.08,-181.08 212.38,-183.57 211.68,-176.61"/>
</g>
<!-- Node11 -->
<g id="Node000011" class="node">
<title>Node11</title>
<g id="a_Node000011"><a xlink:href="group__TIM__Exported__Functions__Group6.html" target="_top" xlink:title="TIM Encoder functions.">
<polygon fill="white" stroke="#666666" points="382,-142 257,-142 257,-123 382,-123 382,-142"/>
<text text-anchor="middle" x="319.5" y="-130" font-family="Helvetica,sans-Serif" font-size="10.00">TIM Encoder functions</text>
</a>
</g>
</g>
<!-- Node1&#45;&gt;Node11 -->
<g id="edge10" class="edge">
<title>Node1&#45;&gt;Node11</title>
<path fill="none" stroke="black" d="M171.2,-174.36C190.57,-167.08 215.45,-158.18 238,-151.5 249.57,-148.08 262.21,-144.85 273.98,-142.07"/>
<polygon fill="black" stroke="black" points="169.72,-171.18 161.62,-178 172.21,-177.72 169.72,-171.18"/>
</g>
<!-- Node12 -->
<g id="Node000012" class="node">
<title>Node12</title>
<g id="a_Node000012"><a xlink:href="group__TIM__Exported__Functions__Group7.html" target="_top" xlink:title="IRQ handler management.">
<polygon fill="white" stroke="#666666" points="401,-105 238,-105 238,-86 401,-86 401,-105"/>
<text text-anchor="middle" x="319.5" y="-93" font-family="Helvetica,sans-Serif" font-size="10.00">TIM IRQ handler management</text>
</a>
</g>
</g>
<!-- Node1&#45;&gt;Node12 -->
<g id="edge11" class="edge">
<title>Node1&#45;&gt;Node12</title>
<path fill="none" stroke="black" d="M155.35,-171.1C174.43,-154.44 206.24,-129.07 238,-114.5 246.35,-110.67 255.56,-107.57 264.67,-105.07"/>
<polygon fill="black" stroke="black" points="152.89,-168.6 147.76,-177.86 157.55,-173.82 152.89,-168.6"/>
</g>
<!-- Node3 -->
<g id="Node000003" class="node">
<title>Node3</title>
<g id="a_Node000003"><a xlink:href="group__TIM__Exported__Functions__Group8.html" target="_top" xlink:title="Peripheral Control functions.">
<polygon fill="white" stroke="#666666" points="382,-67.5 257,-67.5 257,-37.5 382,-37.5 382,-67.5"/>
<text text-anchor="start" x="265" y="-55.5" font-family="Helvetica,sans-Serif" font-size="10.00">TIM Peripheral Control</text>
<text text-anchor="middle" x="319.5" y="-44.5" font-family="Helvetica,sans-Serif" font-size="10.00"> functions</text>
</a>
</g>
</g>
<!-- Node1&#45;&gt;Node3 -->
<g id="edge2" class="edge">
<title>Node1&#45;&gt;Node3</title>
<path fill="none" stroke="black" d="M149.17,-169.69C165.97,-145.4 199.27,-102.09 238,-77.5 244.05,-73.66 250.74,-70.37 257.59,-67.56"/>
<polygon fill="black" stroke="black" points="146.25,-167.75 143.55,-177.99 152.05,-171.67 146.25,-167.75"/>
</g>
<!-- Node4 -->
<g id="Node000004" class="node">
<title>Node4</title>
<g id="a_Node000004"><a xlink:href="group__TIM__Exported__Functions__Group9.html" target="_top" xlink:title="TIM Callbacks functions.">
<polygon fill="white" stroke="#666666" points="386,-19 253,-19 253,0 386,0 386,-19"/>
<text text-anchor="middle" x="319.5" y="-7" font-family="Helvetica,sans-Serif" font-size="10.00">TIM Callbacks functions</text>
</a>
</g>
</g>
<!-- Node1&#45;&gt;Node4 -->
<g id="edge3" class="edge">
<title>Node1&#45;&gt;Node4</title>
<path fill="none" stroke="black" d="M144.12,-168.16C156.76,-134.28 187.62,-64.43 238,-28.5 243.38,-24.66 249.42,-21.59 255.72,-19.14"/>
<polygon fill="black" stroke="black" points="140.75,-167.21 140.66,-177.8 147.33,-169.57 140.75,-167.21"/>
</g>
</g>
</svg>
</svg>

<style type='text/css'>
<![CDATA[
[data-mouse-over-selected='false'] { opacity: 0.7; }
[data-mouse-over-selected='true']  { opacity: 1.0; }
]]>
</style>
<script type="application/ecmascript"><![CDATA[
document.addEventListener('DOMContentLoaded', (event) => {
  highlightEdges();
  highlightAdjacentNodes();
});
]]></script>
</svg>
