<?xml version="1.0" encoding="UTF-8" standalone="no"?>
<!DOCTYPE svg PUBLIC "-//W3C//DTD SVG 1.1//EN"
 "http://www.w3.org/Graphics/SVG/1.1/DTD/svg11.dtd">
<!-- Generated by graphviz version 2.43.0 (0)
 -->
<!-- Title: TIM Pages: 1 -->
<svg width="382pt" height="249pt"
 viewBox="0.00 0.00 382.00 249.00" xmlns="http://www.w3.org/2000/svg" xmlns:xlink="http://www.w3.org/1999/xlink">

<svg id="main" version="1.1" xmlns="http://www.w3.org/2000/svg" xmlns:xlink="http://www.w3.org/1999/xlink" xml:space="preserve">

<style type="text/css"><![CDATA[
.node, .edge {opacity: 0.7;}
.node.selected, .edge.selected {opacity: 1;}
.edge:hover path { stroke: red; }
.edge:hover polygon { stroke: red; fill: red; }
]]></style>
<script type="application/ecmascript" xlink:href="svg.min.js"/>
<svg id="graph" class="graph">
<g id="graph0" class="graph" transform="scale(1 1) rotate(0) translate(4 245)">
<title>TIM</title>
<!-- Node2 -->
<g id="Node000002" class="node">
<title>Node2</title>
<g id="a_Node000002"><a xlink:href="group__STM32F4xx__HAL__Driver.html" target="_top" xlink:title=" ">
<polygon fill="white" stroke="#666666" points="134,-130 0,-130 0,-111 134,-111 134,-130"/>
<text text-anchor="middle" x="67" y="-118" font-family="Helvetica,sans-Serif" font-size="10.00">STM32F4xx_HAL_Driver</text>
</a>
</g>
</g>
<!-- Node1 -->
<g id="Node000001" class="node">
<title>Node1</title>
<g id="a_Node000001"><a xlink:title="TIM HAL module driver.">
<polygon fill="#999999" stroke="#666666" points="205,-130 170,-130 170,-111 205,-111 205,-130"/>
<text text-anchor="middle" x="187.5" y="-118" font-family="Helvetica,sans-Serif" font-size="10.00">TIM</text>
</a>
</g>
</g>
<!-- Node2&#45;&gt;Node1 -->
<g id="edge1" class="edge">
<title>Node2&#45;&gt;Node1</title>
<path fill="none" stroke="black" d="M144.21,-120.5C153.66,-120.5 162.49,-120.5 169.6,-120.5"/>
<polygon fill="black" stroke="black" points="144.18,-117 134.18,-120.5 144.18,-124 144.18,-117"/>
</g>
<!-- Node4 -->
<g id="Node000004" class="node">
<title>Node4</title>
<g id="a_Node000004"><a xlink:href="group__TIM__Exported__Constants.html" target="_top" xlink:title=" ">
<polygon fill="white" stroke="#666666" points="374,-241 241,-241 241,-222 374,-222 374,-241"/>
<text text-anchor="middle" x="307.5" y="-229" font-family="Helvetica,sans-Serif" font-size="10.00">TIM Exported Constants</text>
</a>
</g>
</g>
<!-- Node1&#45;&gt;Node4 -->
<g id="edge3" class="edge">
<title>Node1&#45;&gt;Node4</title>
<path fill="none" stroke="black" d="M194.3,-139.57C201.72,-160.75 216.61,-194.47 241,-213.5 245.37,-216.91 250.34,-219.67 255.55,-221.91"/>
<polygon fill="black" stroke="black" points="197.61,-138.45 191.17,-130.04 190.96,-140.63 197.61,-138.45"/>
</g>
<!-- Node9 -->
<g id="Node000009" class="node">
<title>Node9</title>
<g id="a_Node000009"><a xlink:href="group__TIM__Exported__Functions.html" target="_top" xlink:title=" ">
<polygon fill="white" stroke="#666666" points="373,-204 242,-204 242,-185 373,-185 373,-204"/>
<text text-anchor="middle" x="307.5" y="-192" font-family="Helvetica,sans-Serif" font-size="10.00">TIM Exported Functions</text>
</a>
</g>
</g>
<!-- Node1&#45;&gt;Node9 -->
<g id="edge8" class="edge">
<title>Node1&#45;&gt;Node9</title>
<path fill="none" stroke="black" d="M201.23,-138.63C210.82,-151.01 225.02,-166.86 241,-176.5 246.65,-179.91 252.97,-182.69 259.39,-184.95"/>
<polygon fill="black" stroke="black" points="203.87,-136.32 195.1,-130.37 198.24,-140.49 203.87,-136.32"/>
</g>
<!-- Node5 -->
<g id="Node000005" class="node">
<title>Node5</title>
<g id="a_Node000005"><a xlink:href="group__TIM__Exported__Macros.html" target="_top" xlink:title=" ">
<polygon fill="white" stroke="#666666" points="367,-167 248,-167 248,-148 367,-148 367,-167"/>
<text text-anchor="middle" x="307.5" y="-155" font-family="Helvetica,sans-Serif" font-size="10.00">TIM Exported Macros</text>
</a>
</g>
</g>
<!-- Node1&#45;&gt;Node5 -->
<g id="edge4" class="edge">
<title>Node1&#45;&gt;Node5</title>
<path fill="none" stroke="black" d="M214.95,-130.54C223.25,-133.56 232.46,-136.79 241,-139.5 250.22,-142.43 260.25,-145.33 269.63,-147.92"/>
<polygon fill="black" stroke="black" points="216,-127.19 205.41,-127 213.57,-133.76 216,-127.19"/>
</g>
<!-- Node3 -->
<g id="Node000003" class="node">
<title>Node3</title>
<g id="a_Node000003"><a xlink:href="group__TIM__Exported__Types.html" target="_top" xlink:title=" ">
<polygon fill="white" stroke="#666666" points="363.5,-130 251.5,-130 251.5,-111 363.5,-111 363.5,-130"/>
<text text-anchor="middle" x="307.5" y="-118" font-family="Helvetica,sans-Serif" font-size="10.00">TIM Exported Types</text>
</a>
</g>
</g>
<!-- Node1&#45;&gt;Node3 -->
<g id="edge2" class="edge">
<title>Node1&#45;&gt;Node3</title>
<path fill="none" stroke="black" d="M215.45,-120.5C226.12,-120.5 238.8,-120.5 251.25,-120.5"/>
<polygon fill="black" stroke="black" points="215.16,-117 205.16,-120.5 215.16,-124 215.16,-117"/>
</g>
<!-- Node6 -->
<g id="Node000006" class="node">
<title>Node6</title>
<g id="a_Node000006"><a xlink:href="group__TIM__Private__Constants.html" target="_top" xlink:title=" ">
<polygon fill="white" stroke="#666666" points="369.5,-93 245.5,-93 245.5,-74 369.5,-74 369.5,-93"/>
<text text-anchor="middle" x="307.5" y="-81" font-family="Helvetica,sans-Serif" font-size="10.00">TIM Private Constants</text>
</a>
</g>
</g>
<!-- Node1&#45;&gt;Node6 -->
<g id="edge5" class="edge">
<title>Node1&#45;&gt;Node6</title>
<path fill="none" stroke="black" d="M215.01,-111.13C223.31,-108.28 232.51,-105.19 241,-102.5 251.16,-99.29 262.27,-95.98 272.41,-93.05"/>
<polygon fill="black" stroke="black" points="213.75,-107.87 205.46,-114.46 216.05,-114.48 213.75,-107.87"/>
</g>
<!-- Node8 -->
<g id="Node000008" class="node">
<title>Node8</title>
<g id="a_Node000008"><a xlink:href="group__TIM__Private__Functions.html" target="_top" xlink:title=" ">
<polygon fill="white" stroke="#666666" points="368.5,-56 246.5,-56 246.5,-37 368.5,-37 368.5,-56"/>
<text text-anchor="middle" x="307.5" y="-44" font-family="Helvetica,sans-Serif" font-size="10.00">TIM Private Functions</text>
</a>
</g>
</g>
<!-- Node1&#45;&gt;Node8 -->
<g id="edge7" class="edge">
<title>Node1&#45;&gt;Node8</title>
<path fill="none" stroke="black" d="M201.33,-102.77C210.98,-90.64 225.2,-75.09 241,-65.5 247.38,-61.63 254.58,-58.51 261.82,-56.02"/>
<polygon fill="black" stroke="black" points="198.45,-100.78 195.17,-110.85 204.01,-105.03 198.45,-100.78"/>
</g>
<!-- Node7 -->
<g id="Node000007" class="node">
<title>Node7</title>
<g id="a_Node000007"><a xlink:href="group__TIM__Private__Macros.html" target="_top" xlink:title=" ">
<polygon fill="white" stroke="#666666" points="362.5,-19 252.5,-19 252.5,0 362.5,0 362.5,-19"/>
<text text-anchor="middle" x="307.5" y="-7" font-family="Helvetica,sans-Serif" font-size="10.00">TIM Private Macros</text>
</a>
</g>
</g>
<!-- Node1&#45;&gt;Node7 -->
<g id="edge6" class="edge">
<title>Node1&#45;&gt;Node7</title>
<path fill="none" stroke="black" d="M194.62,-101.09C202.21,-80.15 217.14,-47.3 241,-28.5 245.93,-24.62 251.63,-21.53 257.56,-19.07"/>
<polygon fill="black" stroke="black" points="191.22,-100.22 191.32,-110.81 197.85,-102.47 191.22,-100.22"/>
</g>
</g>
</svg>
</svg>

<style type='text/css'>
<![CDATA[
[data-mouse-over-selected='false'] { opacity: 0.7; }
[data-mouse-over-selected='true']  { opacity: 1.0; }
]]>
</style>
<script type="application/ecmascript"><![CDATA[
document.addEventListener('DOMContentLoaded', (event) => {
  highlightEdges();
  highlightAdjacentNodes();
});
]]></script>
</svg>
