<?xml version="1.0" encoding="UTF-8" standalone="no"?>
<!DOCTYPE svg PUBLIC "-//W3C//DTD SVG 1.1//EN"
 "http://www.w3.org/Graphics/SVG/1.1/DTD/svg11.dtd">
<!-- Generated by graphviz version 12.2.1 (20241206.2353)
 -->
<!-- Title: USART Exported Constants Pages: 1 -->
<svg width="404pt" height="458pt"
 viewBox="0.00 0.00 404.00 457.75" xmlns="http://www.w3.org/2000/svg" xmlns:xlink="http://www.w3.org/1999/xlink">
<g id="page0,1_graph0" class="graph" transform="scale(1 1) rotate(0) translate(4 453.75)">
<title>USART Exported Constants</title>
<!-- Node2 -->
<g id="Node000002" class="node">
<title>Node2</title>
<g id="a_Node000002"><a xlink:href="group__USART.html" target="_top" xlink:title="HAL USART Synchronous module driver.">
<polygon fill="white" stroke="#666666" points="46,-234.75 0,-234.75 0,-214 46,-214 46,-234.75"/>
<text text-anchor="middle" x="23" y="-221.25" font-family="Helvetica,sans-Serif" font-size="10.00">USART</text>
</a>
</g>
</g>
<!-- Node1 -->
<g id="Node000001" class="node">
<title>Node1</title>
<g id="a_Node000001"><a xlink:title=" ">
<polygon fill="#999999" stroke="#666666" points="220.25,-234.75 82,-234.75 82,-214 220.25,-214 220.25,-234.75"/>
<text text-anchor="middle" x="151.12" y="-221.25" font-family="Helvetica,sans-Serif" font-size="10.00">USART Exported Constants</text>
</a>
</g>
</g>
<!-- Node2&#45;&gt;Node1 -->
<g id="edge1" class="edge">
<title>Node2&#45;&gt;Node1</title>
<path fill="none" stroke="black" d="M57.65,-224.38C65.1,-224.38 73.25,-224.38 81.53,-224.38"/>
<polygon fill="black" stroke="black" points="57.77,-220.88 47.77,-224.38 57.77,-227.88 57.77,-220.88"/>
</g>
<!-- Node8 -->
<g id="Node000008" class="node">
<title>Node8</title>
<g id="a_Node000008"><a xlink:href="group__USART__Clock.html" target="_top" xlink:title=" ">
<polygon fill="white" stroke="#666666" points="363,-449.75 289.25,-449.75 289.25,-429 363,-429 363,-449.75"/>
<text text-anchor="middle" x="326.12" y="-436.25" font-family="Helvetica,sans-Serif" font-size="10.00">USART Clock</text>
</a>
</g>
</g>
<!-- Node10 -->
<g id="Node000010" class="node">
<title>Node10</title>
<g id="a_Node000010"><a xlink:href="group__USART__Clock__Phase.html" target="_top" xlink:title=" ">
<polygon fill="white" stroke="#666666" points="377.62,-410.75 274.62,-410.75 274.62,-390 377.62,-390 377.62,-410.75"/>
<text text-anchor="middle" x="326.12" y="-397.25" font-family="Helvetica,sans-Serif" font-size="10.00">USART Clock Phase</text>
</a>
</g>
</g>
<!-- Node9 -->
<g id="Node000009" class="node">
<title>Node9</title>
<g id="a_Node000009"><a xlink:href="group__USART__Clock__Polarity.html" target="_top" xlink:title=" ">
<polygon fill="white" stroke="#666666" points="381.38,-371.75 270.88,-371.75 270.88,-351 381.38,-351 381.38,-371.75"/>
<text text-anchor="middle" x="326.12" y="-358.25" font-family="Helvetica,sans-Serif" font-size="10.00">USART Clock Polarity</text>
</a>
</g>
</g>
<!-- Node3 -->
<g id="Node000003" class="node">
<title>Node3</title>
<g id="a_Node000003"><a xlink:href="group__USART__Error__Code.html" target="_top" xlink:title="USART Error Code.">
<polygon fill="white" stroke="#666666" points="375,-332.75 277.25,-332.75 277.25,-312 375,-312 375,-332.75"/>
<text text-anchor="middle" x="326.12" y="-319.25" font-family="Helvetica,sans-Serif" font-size="10.00">USART Error Code</text>
</a>
</g>
</g>
<!-- Node1&#45;&gt;Node8 -->
<g id="edge7" class="edge">
<title>Node1&#45;&gt;Node8</title>
<path fill="none" stroke="black" d="M157.64,-246.06C169.03,-286.37 198.98,-372.93 256.25,-419.38 265.53,-426.9 277.54,-431.6 288.92,-434.53"/>
<polygon fill="black" stroke="black" points="161.07,-245.34 155.09,-236.6 154.31,-247.16 161.07,-245.34"/>
</g>
<!-- Node1&#45;&gt;Node10 -->
<g id="edge9" class="edge">
<title>Node1&#45;&gt;Node10</title>
<path fill="none" stroke="black" d="M160.46,-245.41C174.86,-279.04 207.62,-344.73 256.25,-380.38 261.67,-384.35 267.87,-387.54 274.28,-390.09"/>
<polygon fill="black" stroke="black" points="163.77,-244.26 156.71,-236.35 157.3,-246.93 163.77,-244.26"/>
</g>
<!-- Node1&#45;&gt;Node9 -->
<g id="edge8" class="edge">
<title>Node1&#45;&gt;Node9</title>
<path fill="none" stroke="black" d="M164.78,-244.56C182.21,-270.73 216.06,-316 256.25,-341.38 262.04,-345.03 268.52,-348.04 275.13,-350.51"/>
<polygon fill="black" stroke="black" points="167.93,-243 159.55,-236.51 162.06,-246.81 167.93,-243"/>
</g>
<!-- Node1&#45;&gt;Node3 -->
<g id="edge2" class="edge">
<title>Node1&#45;&gt;Node3</title>
<path fill="none" stroke="black" d="M171.86,-242.63C191.79,-260.19 224.15,-286.36 256.25,-302.38 263.38,-305.93 271.25,-308.96 279.04,-311.5"/>
<polygon fill="black" stroke="black" points="174.28,-240.1 164.5,-236.02 169.6,-245.31 174.28,-240.1"/>
</g>
<!-- Node13 -->
<g id="Node000013" class="node">
<title>Node13</title>
<g id="a_Node000013"><a xlink:href="group__USART__Flags.html" target="_top" xlink:title=" ">
<polygon fill="white" stroke="#666666" points="362.62,-293.75 289.62,-293.75 289.62,-273 362.62,-273 362.62,-293.75"/>
<text text-anchor="middle" x="326.12" y="-280.25" font-family="Helvetica,sans-Serif" font-size="10.00">USART Flags</text>
</a>
</g>
</g>
<!-- Node1&#45;&gt;Node13 -->
<g id="edge12" class="edge">
<title>Node1&#45;&gt;Node13</title>
<path fill="none" stroke="black" d="M189.99,-239.35C209.63,-246.91 234.09,-256.02 256.25,-263.38 266.89,-266.91 278.56,-270.43 289.22,-273.51"/>
<polygon fill="black" stroke="black" points="191.33,-236.11 180.74,-235.76 188.8,-242.64 191.33,-236.11"/>
</g>
<!-- Node14 -->
<g id="Node000014" class="node">
<title>Node14</title>
<g id="a_Node000014"><a xlink:href="group__USART__Interrupt__definition.html" target="_top" xlink:title=" ">
<polygon fill="white" stroke="#666666" points="396,-254.75 256.25,-254.75 256.25,-234 396,-234 396,-254.75"/>
<text text-anchor="middle" x="326.12" y="-241.25" font-family="Helvetica,sans-Serif" font-size="10.00">USART Interrupts Definition</text>
</a>
</g>
</g>
<!-- Node1&#45;&gt;Node14 -->
<g id="edge13" class="edge">
<title>Node1&#45;&gt;Node14</title>
<path fill="none" stroke="black" d="M231.77,-233.58C239.81,-234.51 247.92,-235.45 255.83,-236.36"/>
<polygon fill="black" stroke="black" points="232.34,-230.13 222,-232.45 231.53,-237.08 232.34,-230.13"/>
</g>
<!-- Node11 -->
<g id="Node000011" class="node">
<title>Node11</title>
<g id="a_Node000011"><a xlink:href="group__USART__Last__Bit.html" target="_top" xlink:title=" ">
<polygon fill="white" stroke="#666666" points="366.75,-215.75 285.5,-215.75 285.5,-195 366.75,-195 366.75,-215.75"/>
<text text-anchor="middle" x="326.12" y="-202.25" font-family="Helvetica,sans-Serif" font-size="10.00">USART Last Bit</text>
</a>
</g>
</g>
<!-- Node1&#45;&gt;Node11 -->
<g id="edge10" class="edge">
<title>Node1&#45;&gt;Node11</title>
<path fill="none" stroke="black" d="M231.91,-215.61C250.37,-213.58 269.25,-211.51 285.14,-209.77"/>
<polygon fill="black" stroke="black" points="231.56,-212.13 222,-216.7 232.33,-219.09 231.56,-212.13"/>
</g>
<!-- Node7 -->
<g id="Node000007" class="node">
<title>Node7</title>
<g id="a_Node000007"><a xlink:href="group__USART__Mode.html" target="_top" xlink:title=" ">
<polygon fill="white" stroke="#666666" points="363,-176.75 289.25,-176.75 289.25,-156 363,-156 363,-176.75"/>
<text text-anchor="middle" x="326.12" y="-163.25" font-family="Helvetica,sans-Serif" font-size="10.00">USART Mode</text>
</a>
</g>
</g>
<!-- Node1&#45;&gt;Node7 -->
<g id="edge6" class="edge">
<title>Node1&#45;&gt;Node7</title>
<path fill="none" stroke="black" d="M190.84,-209.54C210.35,-202.25 234.44,-193.51 256.25,-186.38 266.78,-182.93 278.32,-179.46 288.88,-176.4"/>
<polygon fill="black" stroke="black" points="189.77,-206.2 181.65,-213 192.24,-212.76 189.77,-206.2"/>
</g>
<!-- Node12 -->
<g id="Node000012" class="node">
<title>Node12</title>
<g id="a_Node000012"><a xlink:href="group__USART__NACK__State.html" target="_top" xlink:title=" ">
<polygon fill="white" stroke="#666666" points="376.12,-137.75 276.12,-137.75 276.12,-117 376.12,-117 376.12,-137.75"/>
<text text-anchor="middle" x="326.12" y="-124.25" font-family="Helvetica,sans-Serif" font-size="10.00">USART NACK State</text>
</a>
</g>
</g>
<!-- Node1&#45;&gt;Node12 -->
<g id="edge11" class="edge">
<title>Node1&#45;&gt;Node12</title>
<path fill="none" stroke="black" d="M172.23,-206.08C192.22,-188.77 224.42,-163.13 256.25,-147.38 263.5,-143.78 271.51,-140.73 279.43,-138.17"/>
<polygon fill="black" stroke="black" points="170.02,-203.37 164.84,-212.61 174.65,-208.62 170.02,-203.37"/>
</g>
<!-- Node6 -->
<g id="Node000006" class="node">
<title>Node6</title>
<g id="a_Node000006"><a xlink:href="group__USART__Parity.html" target="_top" xlink:title=" ">
<polygon fill="white" stroke="#666666" points="363,-98.75 289.25,-98.75 289.25,-78 363,-78 363,-98.75"/>
<text text-anchor="middle" x="326.12" y="-85.25" font-family="Helvetica,sans-Serif" font-size="10.00">USART Parity</text>
</a>
</g>
</g>
<!-- Node1&#45;&gt;Node6 -->
<g id="edge5" class="edge">
<title>Node1&#45;&gt;Node6</title>
<path fill="none" stroke="black" d="M165.05,-204.02C182.59,-178.02 216.37,-133.43 256.25,-108.38 266.06,-102.21 277.83,-97.89 288.84,-94.88"/>
<polygon fill="black" stroke="black" points="162.15,-202.06 159.58,-212.33 168,-205.9 162.15,-202.06"/>
</g>
<!-- Node5 -->
<g id="Node000005" class="node">
<title>Node5</title>
<g id="a_Node000005"><a xlink:href="group__USART__Stop__Bits.html" target="_top" xlink:title=" ">
<polygon fill="white" stroke="#666666" points="395.62,-59.75 256.62,-59.75 256.62,-39 395.62,-39 395.62,-59.75"/>
<text text-anchor="middle" x="326.12" y="-46.25" font-family="Helvetica,sans-Serif" font-size="10.00">USART Number of Stop Bits</text>
</a>
</g>
</g>
<!-- Node1&#45;&gt;Node5 -->
<g id="edge4" class="edge">
<title>Node1&#45;&gt;Node5</title>
<path fill="none" stroke="black" d="M160.5,-203.48C174.95,-170.06 207.78,-104.79 256.25,-69.38 261.38,-65.63 267.2,-62.58 273.23,-60.1"/>
<polygon fill="black" stroke="black" points="157.36,-201.89 156.74,-212.47 163.82,-204.59 157.36,-201.89"/>
</g>
<!-- Node4 -->
<g id="Node000004" class="node">
<title>Node4</title>
<g id="a_Node000004"><a xlink:href="group__USART__Word__Length.html" target="_top" xlink:title=" ">
<polygon fill="white" stroke="#666666" points="380.25,-20.75 272,-20.75 272,0 380.25,0 380.25,-20.75"/>
<text text-anchor="middle" x="326.12" y="-7.25" font-family="Helvetica,sans-Serif" font-size="10.00">USART Word Length</text>
</a>
</g>
</g>
<!-- Node1&#45;&gt;Node4 -->
<g id="edge3" class="edge">
<title>Node1&#45;&gt;Node4</title>
<path fill="none" stroke="black" d="M157.68,-202.8C169.12,-162.7 199.16,-76.58 256.25,-30.38 260.9,-26.62 266.22,-23.56 271.81,-21.08"/>
<polygon fill="black" stroke="black" points="154.36,-201.64 155.11,-212.21 161.12,-203.48 154.36,-201.64"/>
</g>
</g>
</svg>
