<?xml version="1.0" encoding="UTF-8" standalone="no"?>
<!DOCTYPE svg PUBLIC "-//W3C//DTD SVG 1.1//EN"
 "http://www.w3.org/Graphics/SVG/1.1/DTD/svg11.dtd">
<!-- Generated by graphviz version 12.2.1 (20241206.2353)
 -->
<!-- Title: CRC Exported Functions Pages: 1 -->
<svg width="374pt" height="132pt"
 viewBox="0.00 0.00 374.00 132.12" xmlns="http://www.w3.org/2000/svg" xmlns:xlink="http://www.w3.org/1999/xlink">

<svg id="main" version="1.1" xmlns="http://www.w3.org/2000/svg" xmlns:xlink="http://www.w3.org/1999/xlink" xml:space="preserve">

<style type="text/css"><![CDATA[
.node, .edge {opacity: 0.7;}
.node.selected, .edge.selected {opacity: 1;}
.edge:hover path { stroke: red; }
.edge:hover polygon { stroke: red; fill: red; }
]]></style>
<script type="application/ecmascript" xlink:href="svg.min.js"/>
<svg id="graph" class="graph">
<g id="graph0" class="graph" transform="scale(1 1) rotate(0) translate(4 128.12)">
<title>CRC Exported Functions</title>
<!-- Node2 -->
<g id="Node000002" class="node">
<title>Node2</title>
<g id="a_Node000002"><a xlink:href="group__CRC.html" target="_top" xlink:title="CRC HAL module driver.">
<polygon fill="white" stroke="#666666" points="35.5,-65.75 0,-65.75 0,-45 35.5,-45 35.5,-65.75"/>
<text text-anchor="middle" x="17.75" y="-52.25" font-family="Helvetica,sans-Serif" font-size="10.00">CRC</text>
</a>
</g>
</g>
<!-- Node1 -->
<g id="Node000001" class="node">
<title>Node1</title>
<g id="a_Node000001"><a xlink:title=" ">
<polygon fill="#999999" stroke="#666666" points="197,-65.75 71.5,-65.75 71.5,-45 197,-45 197,-65.75"/>
<text text-anchor="middle" x="134.25" y="-52.25" font-family="Helvetica,sans-Serif" font-size="10.00">CRC Exported Functions</text>
</a>
</g>
</g>
<!-- Node2&#45;&gt;Node1 -->
<g id="edge1" class="edge">
<title>Node2&#45;&gt;Node1</title>
<path fill="none" stroke="black" d="M47.12,-55.38C54.49,-55.38 62.74,-55.38 71.13,-55.38"/>
<polygon fill="black" stroke="black" points="47.16,-51.88 37.16,-55.38 47.16,-58.88 47.16,-51.88"/>
</g>
<!-- Node3 -->
<g id="Node000003" class="node">
<title>Node3</title>
<g id="a_Node000003"><a xlink:href="group__CRC__Exported__Functions__Group1.html" target="_top" xlink:title=" ">
<polygon fill="white" stroke="#666666" points="366,-124.12 233,-124.12 233,-90.62 366,-90.62 366,-124.12"/>
<text text-anchor="start" x="241" y="-110.62" font-family="Helvetica,sans-Serif" font-size="10.00">Initialization and</text>
<text text-anchor="middle" x="299.5" y="-97.88" font-family="Helvetica,sans-Serif" font-size="10.00"> de&#45;initialization functions</text>
</a>
</g>
</g>
<!-- Node1&#45;&gt;Node3 -->
<g id="edge2" class="edge">
<title>Node1&#45;&gt;Node3</title>
<path fill="none" stroke="black" d="M180.02,-69.64C199.95,-75.98 223.58,-83.51 244.47,-90.17"/>
<polygon fill="black" stroke="black" points="181.11,-66.31 170.52,-66.61 178.98,-72.98 181.11,-66.31"/>
</g>
<!-- Node4 -->
<g id="Node000004" class="node">
<title>Node4</title>
<g id="a_Node000004"><a xlink:href="group__CRC__Exported__Functions__Group2.html" target="_top" xlink:title=" ">
<polygon fill="white" stroke="#666666" points="349.5,-72.12 249.5,-72.12 249.5,-38.62 349.5,-38.62 349.5,-72.12"/>
<text text-anchor="start" x="257.5" y="-58.62" font-family="Helvetica,sans-Serif" font-size="10.00">Peripheral Control</text>
<text text-anchor="middle" x="299.5" y="-45.88" font-family="Helvetica,sans-Serif" font-size="10.00"> functions</text>
</a>
</g>
</g>
<!-- Node1&#45;&gt;Node4 -->
<g id="edge3" class="edge">
<title>Node1&#45;&gt;Node4</title>
<path fill="none" stroke="black" d="M208.81,-55.38C222.48,-55.38 236.45,-55.38 249.17,-55.38"/>
<polygon fill="black" stroke="black" points="208.95,-51.88 198.95,-55.38 208.95,-58.88 208.95,-51.88"/>
</g>
<!-- Node5 -->
<g id="Node000005" class="node">
<title>Node5</title>
<g id="a_Node000005"><a xlink:href="group__CRC__Exported__Functions__Group3.html" target="_top" xlink:title=" ">
<polygon fill="white" stroke="#666666" points="365.62,-20.75 233.38,-20.75 233.38,0 365.62,0 365.62,-20.75"/>
<text text-anchor="middle" x="299.5" y="-7.25" font-family="Helvetica,sans-Serif" font-size="10.00">Peripheral State functions</text>
</a>
</g>
</g>
<!-- Node1&#45;&gt;Node5 -->
<g id="edge4" class="edge">
<title>Node1&#45;&gt;Node5</title>
<path fill="none" stroke="black" d="M185.27,-41.59C209.01,-35.04 236.96,-27.34 259.15,-21.22"/>
<polygon fill="black" stroke="black" points="184.52,-38.16 175.81,-44.19 186.38,-44.91 184.52,-38.16"/>
</g>
</g>
</svg>
</svg>

<style type='text/css'>
<![CDATA[
[data-mouse-over-selected='false'] { opacity: 0.7; }
[data-mouse-over-selected='true']  { opacity: 1.0; }
]]>
</style>
<script type="application/ecmascript"><![CDATA[
document.addEventListener('DOMContentLoaded', (event) => {
  highlightEdges();
  highlightAdjacentNodes();
});
]]></script>
</svg>
