<?xml version="1.0" encoding="UTF-8" standalone="no"?>
<!DOCTYPE svg PUBLIC "-//W3C//DTD SVG 1.1//EN"
 "http://www.w3.org/Graphics/SVG/1.1/DTD/svg11.dtd">
<!-- Generated by graphviz version 12.2.1 (20241206.2353)
 -->
<!-- Title: CRYPEx Pages: 1 -->
<svg width="395pt" height="302pt"
 viewBox="0.00 0.00 395.00 301.75" xmlns="http://www.w3.org/2000/svg" xmlns:xlink="http://www.w3.org/1999/xlink">

<svg id="main" version="1.1" xmlns="http://www.w3.org/2000/svg" xmlns:xlink="http://www.w3.org/1999/xlink" xml:space="preserve">

<style type="text/css"><![CDATA[
.node, .edge {opacity: 0.7;}
.node.selected, .edge.selected {opacity: 1;}
.edge:hover path { stroke: red; }
.edge:hover polygon { stroke: red; fill: red; }
]]></style>
<script type="application/ecmascript" xlink:href="svg.min.js"/>
<svg id="graph" class="graph">
<g id="graph0" class="graph" transform="scale(1 1) rotate(0) translate(4 297.75)">
<title>CRYPEx</title>
<!-- Node1 -->
<g id="Node000001" class="node">
<title>Node1</title>
<g id="a_Node000001"><a xlink:title=" ">
<polygon fill="#999999" stroke="#666666" points="209.75,-156.75 158.5,-156.75 158.5,-136 209.75,-136 209.75,-156.75"/>
<text text-anchor="middle" x="184.12" y="-143.25" font-family="Helvetica,sans-Serif" font-size="10.00">CRYPEx</text>
</a>
</g>
</g>
<!-- Node4 -->
<g id="Node000004" class="node">
<title>Node4</title>
<g id="a_Node000004"><a xlink:href="group__CRYPEx__Exported__Constants.html" target="_top" xlink:title=" ">
<polygon fill="white" stroke="#666666" points="387,-293.75 245.75,-293.75 245.75,-273 387,-273 387,-293.75"/>
<text text-anchor="middle" x="316.38" y="-280.25" font-family="Helvetica,sans-Serif" font-size="10.00">CRYPEx Exported constants</text>
</a>
</g>
</g>
<!-- Node1&#45;&gt;Node4 -->
<g id="edge3" class="edge">
<title>Node1&#45;&gt;Node4</title>
<path fill="none" stroke="black" d="M190.62,-167.94C198.45,-194.3 215.34,-238.47 245.75,-263.38 250.32,-267.12 255.56,-270.16 261.07,-272.64"/>
<polygon fill="black" stroke="black" points="194.01,-167.07 187.97,-158.36 187.26,-168.93 194.01,-167.07"/>
</g>
<!-- Node10 -->
<g id="Node000010" class="node">
<title>Node10</title>
<g id="a_Node000010"><a xlink:href="group__CRYPEx__Exported__Functions.html" target="_top" xlink:title=" ">
<polygon fill="white" stroke="#666666" points="387,-254.75 245.75,-254.75 245.75,-234 387,-234 387,-254.75"/>
<text text-anchor="middle" x="316.38" y="-241.25" font-family="Helvetica,sans-Serif" font-size="10.00">CRYPEx Exported Functions</text>
</a>
</g>
</g>
<!-- Node1&#45;&gt;Node10 -->
<g id="edge9" class="edge">
<title>Node1&#45;&gt;Node10</title>
<path fill="none" stroke="black" d="M196.24,-167.17C206.75,-184.88 224.11,-209.73 245.75,-224.38 251.27,-228.11 257.49,-231.16 263.88,-233.64"/>
<polygon fill="black" stroke="black" points="199.33,-165.51 191.36,-158.53 193.24,-168.96 199.33,-165.51"/>
</g>
<!-- Node3 -->
<g id="Node000003" class="node">
<title>Node3</title>
<g id="a_Node000003"><a xlink:href="group__CRYPEx__Exported__Types.html" target="_top" xlink:title=" ">
<polygon fill="white" stroke="#666666" points="376.88,-215.75 255.88,-215.75 255.88,-195 376.88,-195 376.88,-215.75"/>
<text text-anchor="middle" x="316.38" y="-202.25" font-family="Helvetica,sans-Serif" font-size="10.00">CRYPEx Exported types</text>
</a>
</g>
</g>
<!-- Node1&#45;&gt;Node3 -->
<g id="edge2" class="edge">
<title>Node1&#45;&gt;Node3</title>
<path fill="none" stroke="black" d="M208.16,-163.46C219.11,-170.98 232.66,-179.44 245.75,-185.38 253.54,-188.91 262.1,-191.97 270.48,-194.57"/>
<polygon fill="black" stroke="black" points="210.33,-160.71 200.14,-157.78 206.28,-166.42 210.33,-160.71"/>
</g>
<!-- Node7 -->
<g id="Node000007" class="node">
<title>Node7</title>
<g id="a_Node000007"><a xlink:href="group__CRYPEx__Private__Constants.html" target="_top" xlink:title=" ">
<polygon fill="white" stroke="#666666" points="382.88,-176.75 249.88,-176.75 249.88,-156 382.88,-156 382.88,-176.75"/>
<text text-anchor="middle" x="316.38" y="-163.25" font-family="Helvetica,sans-Serif" font-size="10.00">CRYPEx Private Constants</text>
</a>
</g>
</g>
<!-- Node1&#45;&gt;Node7 -->
<g id="edge6" class="edge">
<title>Node1&#45;&gt;Node7</title>
<path fill="none" stroke="black" d="M221.53,-151.97C230.27,-153.31 239.86,-154.78 249.47,-156.26"/>
<polygon fill="black" stroke="black" points="222.15,-148.52 211.73,-150.46 221.09,-155.44 222.15,-148.52"/>
</g>
<!-- Node9 -->
<g id="Node000009" class="node">
<title>Node9</title>
<g id="a_Node000009"><a xlink:href="group__CRYPEx__Private__Functions.html" target="_top" xlink:title=" ">
<polygon fill="white" stroke="#666666" points="381.75,-137.75 251,-137.75 251,-117 381.75,-117 381.75,-137.75"/>
<text text-anchor="middle" x="316.38" y="-124.25" font-family="Helvetica,sans-Serif" font-size="10.00">CRYPEx Private Functions</text>
</a>
</g>
</g>
<!-- Node1&#45;&gt;Node9 -->
<g id="edge8" class="edge">
<title>Node1&#45;&gt;Node9</title>
<path fill="none" stroke="black" d="M221.54,-141.06C230.6,-139.74 240.59,-138.28 250.57,-136.83"/>
<polygon fill="black" stroke="black" points="221.13,-137.59 211.74,-142.49 222.14,-144.51 221.13,-137.59"/>
</g>
<!-- Node8 -->
<g id="Node000008" class="node">
<title>Node8</title>
<g id="a_Node000008"><a xlink:href="group__CRYPEx__Private__Macros.html" target="_top" xlink:title=" ">
<polygon fill="white" stroke="#666666" points="375.75,-98.75 257,-98.75 257,-78 375.75,-78 375.75,-98.75"/>
<text text-anchor="middle" x="316.38" y="-85.25" font-family="Helvetica,sans-Serif" font-size="10.00">CRYPEx Private Macros</text>
</a>
</g>
</g>
<!-- Node1&#45;&gt;Node8 -->
<g id="edge7" class="edge">
<title>Node1&#45;&gt;Node8</title>
<path fill="none" stroke="black" d="M208.65,-129.47C219.54,-122.22 232.9,-114.11 245.75,-108.38 253.67,-104.84 262.38,-101.75 270.88,-99.14"/>
<polygon fill="black" stroke="black" points="206.94,-126.39 200.68,-134.94 210.9,-132.17 206.94,-126.39"/>
</g>
<!-- Node5 -->
<g id="Node000005" class="node">
<title>Node5</title>
<g id="a_Node000005"><a xlink:href="group__CRYPEx__Private__Types.html" target="_top" xlink:title=" ">
<polygon fill="white" stroke="#666666" points="372.75,-59.75 260,-59.75 260,-39 372.75,-39 372.75,-59.75"/>
<text text-anchor="middle" x="316.38" y="-46.25" font-family="Helvetica,sans-Serif" font-size="10.00">CRYPEx Private Types</text>
</a>
</g>
</g>
<!-- Node1&#45;&gt;Node5 -->
<g id="edge4" class="edge">
<title>Node1&#45;&gt;Node5</title>
<path fill="none" stroke="black" d="M196.31,-125.85C206.85,-108.36 224.23,-83.84 245.75,-69.38 251.28,-65.66 257.51,-62.62 263.9,-60.14"/>
<polygon fill="black" stroke="black" points="193.36,-123.95 191.4,-134.36 199.43,-127.44 193.36,-123.95"/>
</g>
<!-- Node6 -->
<g id="Node000006" class="node">
<title>Node6</title>
<g id="a_Node000006"><a xlink:href="group__CRYPEx__Private__Variables.html" target="_top" xlink:title=" ">
<polygon fill="white" stroke="#666666" points="380.25,-20.75 252.5,-20.75 252.5,0 380.25,0 380.25,-20.75"/>
<text text-anchor="middle" x="316.38" y="-7.25" font-family="Helvetica,sans-Serif" font-size="10.00">CRYPEx Private Variables</text>
</a>
</g>
</g>
<!-- Node1&#45;&gt;Node6 -->
<g id="edge5" class="edge">
<title>Node1&#45;&gt;Node6</title>
<path fill="none" stroke="black" d="M190.79,-124.6C198.72,-98.41 215.66,-54.93 245.75,-30.38 250.33,-26.64 255.57,-23.6 261.09,-21.13"/>
<polygon fill="black" stroke="black" points="187.45,-123.56 188.09,-134.13 194.18,-125.46 187.45,-123.56"/>
</g>
<!-- Node2 -->
<g id="Node000002" class="node">
<title>Node2</title>
<g id="a_Node000002"><a xlink:href="group__STM32F4xx__HAL__Driver.html" target="_top" xlink:title=" ">
<polygon fill="white" stroke="#666666" points="122.5,-156.75 0,-156.75 0,-136 122.5,-136 122.5,-156.75"/>
<text text-anchor="middle" x="61.25" y="-143.25" font-family="Helvetica,sans-Serif" font-size="10.00">STM32F4xx_HAL_Driver</text>
</a>
</g>
</g>
<!-- Node2&#45;&gt;Node1 -->
<g id="edge1" class="edge">
<title>Node2&#45;&gt;Node1</title>
<path fill="none" stroke="black" d="M134.06,-146.38C142.63,-146.38 150.87,-146.38 158.08,-146.38"/>
<polygon fill="black" stroke="black" points="134.2,-142.88 124.2,-146.38 134.2,-149.88 134.2,-142.88"/>
</g>
</g>
</svg>
</svg>

<style type='text/css'>
<![CDATA[
[data-mouse-over-selected='false'] { opacity: 0.7; }
[data-mouse-over-selected='true']  { opacity: 1.0; }
]]>
</style>
<script type="application/ecmascript"><![CDATA[
document.addEventListener('DOMContentLoaded', (event) => {
  highlightEdges();
  highlightAdjacentNodes();
});
]]></script>
</svg>
