<?xml version="1.0" encoding="UTF-8" standalone="no"?>
<!DOCTYPE svg PUBLIC "-//W3C//DTD SVG 1.1//EN"
 "http://www.w3.org/Graphics/SVG/1.1/DTD/svg11.dtd">
<!-- Generated by graphviz version 12.2.1 (20241206.2353)
 -->
<!-- Title: FSMC Low Layer Exported Constants Pages: 1 -->
<svg width="403pt" height="132pt"
 viewBox="0.00 0.00 403.25 132.12" xmlns="http://www.w3.org/2000/svg" xmlns:xlink="http://www.w3.org/1999/xlink">
<g id="page0,1_graph0" class="graph" transform="scale(1 1) rotate(0) translate(4 128.12)">
<title>FSMC Low Layer Exported Constants</title>
<!-- Node2 -->
<g id="Node000002" class="node">
<title>Node2</title>
<g id="a_Node000002"><a xlink:href="group__FSMC__LL.html" target="_top" xlink:title=" ">
<polygon fill="white" stroke="#666666" points="58,-79.12 0,-79.12 0,-58.38 58,-58.38 58,-79.12"/>
<text text-anchor="middle" x="29" y="-65.62" font-family="Helvetica,sans-Serif" font-size="10.00">FSMC_LL</text>
</a>
</g>
</g>
<!-- Node1 -->
<g id="Node000001" class="node">
<title>Node1</title>
<g id="a_Node000001"><a xlink:title=" ">
<polygon fill="#999999" stroke="#666666" points="227,-85.5 94,-85.5 94,-52 227,-52 227,-85.5"/>
<text text-anchor="start" x="102" y="-72" font-family="Helvetica,sans-Serif" font-size="10.00">FSMC Low Layer Exported</text>
<text text-anchor="middle" x="160.5" y="-59.25" font-family="Helvetica,sans-Serif" font-size="10.00"> Constants</text>
</a>
</g>
</g>
<!-- Node2&#45;&gt;Node1 -->
<g id="edge1" class="edge">
<title>Node2&#45;&gt;Node1</title>
<path fill="none" stroke="black" d="M69.84,-68.75C77.44,-68.75 85.57,-68.75 93.73,-68.75"/>
<polygon fill="black" stroke="black" points="69.93,-65.25 59.93,-68.75 69.93,-72.25 69.93,-65.25"/>
</g>
<!-- Node5 -->
<g id="Node000005" class="node">
<title>Node5</title>
<g id="a_Node000005"><a xlink:href="group__FSMC__LL__Alias__definition.html" target="_top" xlink:title=" ">
<polygon fill="white" stroke="#666666" points="384.75,-124.12 273.5,-124.12 273.5,-103.38 384.75,-103.38 384.75,-124.12"/>
<text text-anchor="middle" x="329.12" y="-110.62" font-family="Helvetica,sans-Serif" font-size="10.00">FSMC Alias definition</text>
</a>
</g>
</g>
<!-- Node1&#45;&gt;Node5 -->
<g id="edge4" class="edge">
<title>Node1&#45;&gt;Node5</title>
<path fill="none" stroke="black" d="M236.01,-88.87C253.9,-93.7 272.33,-98.68 287.97,-102.9"/>
<polygon fill="black" stroke="black" points="237,-85.51 226.43,-86.29 235.17,-92.27 237,-85.51"/>
</g>
<!-- Node4 -->
<g id="Node000004" class="node">
<title>Node4</title>
<g id="a_Node000004"><a xlink:href="group__FSMC__LL__Flag__definition.html" target="_top" xlink:title=" ">
<polygon fill="white" stroke="#666666" points="385.12,-85.5 273.12,-85.5 273.12,-52 385.12,-52 385.12,-85.5"/>
<text text-anchor="start" x="281.12" y="-72" font-family="Helvetica,sans-Serif" font-size="10.00">FSMC Low Layer Flag</text>
<text text-anchor="middle" x="329.12" y="-59.25" font-family="Helvetica,sans-Serif" font-size="10.00"> definition</text>
</a>
</g>
</g>
<!-- Node1&#45;&gt;Node4 -->
<g id="edge3" class="edge">
<title>Node1&#45;&gt;Node4</title>
<path fill="none" stroke="black" d="M238.73,-68.75C250.18,-68.75 261.8,-68.75 272.69,-68.75"/>
<polygon fill="black" stroke="black" points="238.87,-65.25 228.87,-68.75 238.87,-72.25 238.87,-65.25"/>
</g>
<!-- Node3 -->
<g id="Node000003" class="node">
<title>Node3</title>
<g id="a_Node000003"><a xlink:href="group__FSMC__LL__Interrupt__definition.html" target="_top" xlink:title=" ">
<polygon fill="white" stroke="#666666" points="395.25,-33.5 263,-33.5 263,0 395.25,0 395.25,-33.5"/>
<text text-anchor="start" x="271" y="-20" font-family="Helvetica,sans-Serif" font-size="10.00">FSMC Low Layer Interrupt</text>
<text text-anchor="middle" x="329.12" y="-7.25" font-family="Helvetica,sans-Serif" font-size="10.00"> definition</text>
</a>
</g>
</g>
<!-- Node1&#45;&gt;Node3 -->
<g id="edge2" class="edge">
<title>Node1&#45;&gt;Node3</title>
<path fill="none" stroke="black" d="M227.33,-48.21C242.41,-43.5 258.29,-38.54 272.88,-33.99"/>
<polygon fill="black" stroke="black" points="226.47,-44.81 217.97,-51.13 228.55,-51.49 226.47,-44.81"/>
</g>
</g>
</svg>
