<?xml version="1.0" encoding="UTF-8" standalone="no"?>
<!DOCTYPE svg PUBLIC "-//W3C//DTD SVG 1.1//EN"
 "http://www.w3.org/Graphics/SVG/1.1/DTD/svg11.dtd">
<!-- Generated by graphviz version 2.43.0 (0)
 -->
<!-- Title: RTC Exported Constants Pages: 1 -->
<!--zoomable 676 -->

<svg id="main" version="1.1" xmlns="http://www.w3.org/2000/svg" xmlns:xlink="http://www.w3.org/1999/xlink" xml:space="preserve" onload="init(evt)">
<style type="text/css"><![CDATA[
.node, .edge {opacity: 0.7;}
.node.selected, .edge.selected {opacity: 1;}
.edge:hover path { stroke: red; }
.edge:hover polygon { stroke: red; fill: red; }
]]></style>

<defs>
  <circle id="rim" cx="0" cy="0" r="7"/>
  <circle id="rim2" cx="0" cy="0" r="3.5"/>
  <g id="zoomPlus">
    <use xlink:href="#rim" fill="#404040"><set attributeName="fill" to="#808080" begin="zoomplus.mouseover" end="zoomplus.mouseout"/></use>
    <path d="M-4,0h8M0,-4v8" fill="none" stroke="white" stroke-width="1.5" pointer-events="none"/>
  </g>
  <g id="zoomMin">
    <use xlink:href="#rim" fill="#404040"><set attributeName="fill" to="#808080" begin="zoomminus.mouseover" end="zoomminus.mouseout"/></use>
    <path d="M-4,0h8" fill="none" stroke="white" stroke-width="1.5" pointer-events="none"/>
  </g>
  <g id="arrowUp" transform="translate(30 24)">
    <use xlink:href="#rim"/>
    <path pointer-events="none" fill="none" stroke="white" stroke-width="1.5" d="M0,-3.0v7 M-2.5,-0.5L0,-3.0L2.5,-0.5"/>
  </g>
  <g id="arrowRight" transform="rotate(90) translate(36 -43)">
    <use xlink:href="#rim"/>
    <path pointer-events="none" fill="none" stroke="white" stroke-width="1.5" d="M0,-3.0v7 M-2.5,-0.5L0,-3.0L2.5,-0.5"/>
  </g>
  <g id="arrowDown" transform="rotate(180) translate(-30 -48)">
    <use xlink:href="#rim"/>
    <path pointer-events="none" fill="none" stroke="white" stroke-width="1.5" d="M0,-3.0v7 M-2.5,-0.5L0,-3.0L2.5,-0.5"/>
  </g>
  <g id="arrowLeft" transform="rotate(270) translate(-36 17)">
    <use xlink:href="#rim"/>
    <path pointer-events="none" fill="none" stroke="white" stroke-width="1.5" d="M0,-3.0v7 M-2.5,-0.5L0,-3.0L2.5,-0.5"/>
  </g>
  <g id="resetDef">
    <use xlink:href="#rim2" fill="#404040"><set attributeName="fill" to="#808080" begin="reset.mouseover" end="reset.mouseout"/></use>
  </g>
</defs>
<script type="application/ecmascript">
var viewWidth = 406;
var viewHeight = 676;
var sectionId = 'dynsection-0';
</script>
<script type="application/ecmascript" xlink:href="svg.min.js"/>
<svg id="graph" class="graph">
<g id="viewport">
<title>RTC Exported Constants</title>
<!-- Node2 -->
<g id="Node000002" class="node">
<title>Node2</title>
<g id="a_Node000002"><a xlink:href="group__RTC.html" target="_top" xlink:title="RTC HAL module driver.">
<polygon fill="white" stroke="#666666" points="35,-351 0,-351 0,-332 35,-332 35,-351"/>
<text text-anchor="middle" x="17.5" y="-339" font-family="Helvetica,sans-Serif" font-size="10.00">RTC</text>
</a>
</g>
</g>
<!-- Node1 -->
<g id="Node000001" class="node">
<title>Node1</title>
<g id="a_Node000001"><a xlink:title=" ">
<polygon fill="#999999" stroke="#666666" points="204,-351 71,-351 71,-332 204,-332 204,-351"/>
<text text-anchor="middle" x="137.5" y="-339" font-family="Helvetica,sans-Serif" font-size="10.00">RTC Exported Constants</text>
</a>
</g>
</g>
<!-- Node2&#45;&gt;Node1 -->
<g id="edge1" class="edge">
<title>Node2&#45;&gt;Node1</title>
<path fill="none" stroke="black" d="M45.33,-341.5C53.09,-341.5 61.93,-341.5 70.97,-341.5"/>
<polygon fill="black" stroke="black" points="45.16,-338 35.16,-341.5 45.16,-345 45.16,-338"/>
</g>
<!-- Node7 -->
<g id="Node000007" class="node">
<title>Node7</title>
<g id="a_Node000007"><a xlink:href="group__RTC__AM__PM__Definitions.html" target="_top" xlink:title=" ">
<polygon fill="white" stroke="#666666" points="382.5,-668 255.5,-668 255.5,-649 382.5,-649 382.5,-668"/>
<text text-anchor="middle" x="319" y="-656" font-family="Helvetica,sans-Serif" font-size="10.00">RTC AM PM Definitions</text>
</a>
</g>
</g>
<!-- Node13 -->
<g id="Node000013" class="node">
<title>Node13</title>
<g id="a_Node000013"><a xlink:href="group__RTC__AlarmDateWeekDay__Definitions.html" target="_top" xlink:title=" ">
<polygon fill="white" stroke="#666666" points="390.5,-630.5 247.5,-630.5 247.5,-600.5 390.5,-600.5 390.5,-630.5"/>
<text text-anchor="start" x="255.5" y="-618.5" font-family="Helvetica,sans-Serif" font-size="10.00">RTC Alarm Date WeekDay</text>
<text text-anchor="middle" x="319" y="-607.5" font-family="Helvetica,sans-Serif" font-size="10.00"> Definitions</text>
</a>
</g>
</g>
<!-- Node14 -->
<g id="Node000014" class="node">
<title>Node14</title>
<g id="a_Node000014"><a xlink:href="group__RTC__AlarmMask__Definitions.html" target="_top" xlink:title=" ">
<polygon fill="white" stroke="#666666" points="395,-582 243,-582 243,-563 395,-563 395,-582"/>
<text text-anchor="middle" x="319" y="-570" font-family="Helvetica,sans-Serif" font-size="10.00">RTC Alarm Mask Definitions</text>
</a>
</g>
</g>
<!-- Node16 -->
<g id="Node000016" class="node">
<title>Node16</title>
<g id="a_Node000016"><a xlink:href="group__RTC__Alarm__Sub__Seconds__Masks__Definitions.html" target="_top" xlink:title=" ">
<polygon fill="white" stroke="#666666" points="384.5,-544.5 253.5,-544.5 253.5,-514.5 384.5,-514.5 384.5,-544.5"/>
<text text-anchor="start" x="261.5" y="-532.5" font-family="Helvetica,sans-Serif" font-size="10.00">RTC Alarm Sub Seconds</text>
<text text-anchor="middle" x="319" y="-521.5" font-family="Helvetica,sans-Serif" font-size="10.00"> Masks Definitions</text>
</a>
</g>
</g>
<!-- Node15 -->
<g id="Node000015" class="node">
<title>Node15</title>
<g id="a_Node000015"><a xlink:href="group__RTC__Alarms__Definitions.html" target="_top" xlink:title=" ">
<polygon fill="white" stroke="#666666" points="383,-496 255,-496 255,-477 383,-477 383,-496"/>
<text text-anchor="middle" x="319" y="-484" font-family="Helvetica,sans-Serif" font-size="10.00">RTC Alarms Definitions</text>
</a>
</g>
</g>
<!-- Node8 -->
<g id="Node000008" class="node">
<title>Node8</title>
<g id="a_Node000008"><a xlink:href="group__RTC__DayLightSaving__Definitions.html" target="_top" xlink:title=" ">
<polygon fill="white" stroke="#666666" points="377.5,-458.5 260.5,-458.5 260.5,-428.5 377.5,-428.5 377.5,-458.5"/>
<text text-anchor="start" x="268.5" y="-446.5" font-family="Helvetica,sans-Serif" font-size="10.00">RTC DayLight Saving</text>
<text text-anchor="middle" x="319" y="-435.5" font-family="Helvetica,sans-Serif" font-size="10.00"> Definitions</text>
</a>
</g>
</g>
<!-- Node1&#45;&gt;Node7 -->
<g id="edge6" class="edge">
<title>Node1&#45;&gt;Node7</title>
<path fill="none" stroke="black" d="M139.04,-361.46C141.63,-415.02 156.39,-563.05 240,-639.5 244.53,-643.64 249.8,-646.92 255.43,-649.51"/>
<polygon fill="black" stroke="black" points="142.53,-361.11 138.65,-351.26 135.54,-361.39 142.53,-361.11"/>
</g>
<!-- Node1&#45;&gt;Node13 -->
<g id="edge12" class="edge">
<title>Node1&#45;&gt;Node13</title>
<path fill="none" stroke="black" d="M140.76,-361.1C147.2,-407.96 169.97,-527.32 240,-591.5 243.76,-594.95 248.01,-597.9 252.52,-600.43"/>
<polygon fill="black" stroke="black" points="144.21,-360.54 139.48,-351.06 137.27,-361.42 144.21,-360.54"/>
</g>
<!-- Node1&#45;&gt;Node14 -->
<g id="edge13" class="edge">
<title>Node1&#45;&gt;Node14</title>
<path fill="none" stroke="black" d="M142.07,-361.2C150.78,-403.33 177.17,-502.52 240,-553.5 244.76,-557.36 250.19,-560.46 255.92,-562.94"/>
<polygon fill="black" stroke="black" points="145.5,-360.49 140.15,-351.34 138.63,-361.83 145.5,-360.49"/>
</g>
<!-- Node1&#45;&gt;Node16 -->
<g id="edge15" class="edge">
<title>Node1&#45;&gt;Node16</title>
<path fill="none" stroke="black" d="M145.32,-361.1C158.29,-395.49 189.78,-466.72 240,-505.5 244.49,-508.96 249.47,-511.93 254.7,-514.47"/>
<polygon fill="black" stroke="black" points="148.47,-359.52 141.76,-351.32 141.89,-361.91 148.47,-359.52"/>
</g>
<!-- Node1&#45;&gt;Node15 -->
<g id="edge14" class="edge">
<title>Node1&#45;&gt;Node15</title>
<path fill="none" stroke="black" d="M148.3,-360.27C163.86,-388.15 196.92,-440.14 240,-467.5 246.12,-471.39 252.97,-474.48 260,-476.94"/>
<polygon fill="black" stroke="black" points="151.22,-358.31 143.37,-351.18 145.06,-361.64 151.22,-358.31"/>
</g>
<!-- Node1&#45;&gt;Node8 -->
<g id="edge7" class="edge">
<title>Node1&#45;&gt;Node8</title>
<path fill="none" stroke="black" d="M155.68,-357.84C174.87,-375.3 207.52,-402.72 240,-419.5 246.42,-422.82 253.38,-425.76 260.4,-428.36"/>
<polygon fill="black" stroke="black" points="158.04,-355.25 148.32,-351.03 153.28,-360.39 158.04,-355.25"/>
</g>
<!-- Node18 -->
<g id="Node000018" class="node">
<title>Node18</title>
<g id="a_Node000018"><a xlink:href="group__RTC__Flags__Definitions.html" target="_top" xlink:title=" ">
<polygon fill="white" stroke="#666666" points="378.5,-410 259.5,-410 259.5,-391 378.5,-391 378.5,-410"/>
<text text-anchor="middle" x="319" y="-398" font-family="Helvetica,sans-Serif" font-size="10.00">RTC Flags Definitions</text>
</a>
</g>
</g>
<!-- Node1&#45;&gt;Node18 -->
<g id="edge17" class="edge">
<title>Node1&#45;&gt;Node18</title>
<path fill="none" stroke="black" d="M168.73,-355.17C188.67,-363.82 215.54,-374.79 240,-382.5 249.94,-385.63 260.75,-388.48 271.07,-390.93"/>
<polygon fill="black" stroke="black" points="170.09,-351.94 159.53,-351.13 167.28,-358.35 170.09,-351.94"/>
</g>
<!-- Node3 -->
<g id="Node000003" class="node">
<title>Node3</title>
<g id="a_Node000003"><a xlink:href="group__RTC__Hour__Formats.html" target="_top" xlink:title=" ">
<polygon fill="white" stroke="#666666" points="371,-373 267,-373 267,-354 371,-354 371,-373"/>
<text text-anchor="middle" x="319" y="-361" font-family="Helvetica,sans-Serif" font-size="10.00">RTC Hour Formats</text>
</a>
</g>
</g>
<!-- Node1&#45;&gt;Node3 -->
<g id="edge2" class="edge">
<title>Node1&#45;&gt;Node3</title>
<path fill="none" stroke="black" d="M214.4,-350.8C232.13,-352.98 250.6,-355.24 266.95,-357.24"/>
<polygon fill="black" stroke="black" points="214.42,-347.28 204.07,-349.54 213.57,-354.23 214.42,-347.28"/>
</g>
<!-- Node10 -->
<g id="Node000010" class="node">
<title>Node10</title>
<g id="a_Node000010"><a xlink:href="group__RTC__Input__parameter__format__definitions.html" target="_top" xlink:title=" ">
<polygon fill="white" stroke="#666666" points="377,-335.5 261,-335.5 261,-305.5 377,-305.5 377,-335.5"/>
<text text-anchor="start" x="269" y="-323.5" font-family="Helvetica,sans-Serif" font-size="10.00">RTC Input Parameter</text>
<text text-anchor="middle" x="319" y="-312.5" font-family="Helvetica,sans-Serif" font-size="10.00"> Format Definitions</text>
</a>
</g>
</g>
<!-- Node1&#45;&gt;Node10 -->
<g id="edge9" class="edge">
<title>Node1&#45;&gt;Node10</title>
<path fill="none" stroke="black" d="M214.23,-332.64C229.86,-330.81 246.07,-328.91 260.91,-327.18"/>
<polygon fill="black" stroke="black" points="213.59,-329.19 204.07,-333.83 214.4,-336.14 213.59,-329.19"/>
</g>
<!-- Node17 -->
<g id="Node000017" class="node">
<title>Node17</title>
<g id="a_Node000017"><a xlink:href="group__RTC__Interrupts__Definitions.html" target="_top" xlink:title=" ">
<polygon fill="white" stroke="#666666" points="389,-287 249,-287 249,-268 389,-268 389,-287"/>
<text text-anchor="middle" x="319" y="-275" font-family="Helvetica,sans-Serif" font-size="10.00">RTC Interrupts Definitions</text>
</a>
</g>
</g>
<!-- Node1&#45;&gt;Node17 -->
<g id="edge16" class="edge">
<title>Node1&#45;&gt;Node17</title>
<path fill="none" stroke="black" d="M166.74,-327.35C186.8,-317.7 214.6,-305.15 240,-296.5 250.42,-292.95 261.84,-289.78 272.65,-287.1"/>
<polygon fill="black" stroke="black" points="165.01,-324.3 157.55,-331.82 168.07,-330.59 165.01,-324.3"/>
</g>
<!-- Node11 -->
<g id="Node000011" class="node">
<title>Node11</title>
<g id="a_Node000011"><a xlink:href="group__RTC__Month__Date__Definitions.html" target="_top" xlink:title=" ">
<polygon fill="white" stroke="#666666" points="394,-249.5 244,-249.5 244,-219.5 394,-219.5 394,-249.5"/>
<text text-anchor="start" x="252" y="-237.5" font-family="Helvetica,sans-Serif" font-size="10.00">RTC Month Date Definitions</text>
<text text-anchor="middle" x="319" y="-226.5" font-family="Helvetica,sans-Serif" font-size="10.00"> (in BCD format)</text>
</a>
</g>
</g>
<!-- Node1&#45;&gt;Node11 -->
<g id="edge10" class="edge">
<title>Node1&#45;&gt;Node11</title>
<path fill="none" stroke="black" d="M155.26,-324.64C174.3,-306.32 207.03,-277.29 240,-259.5 247.01,-255.72 254.68,-252.39 262.4,-249.51"/>
<polygon fill="black" stroke="black" points="152.67,-322.27 147.98,-331.77 157.57,-327.27 152.67,-322.27"/>
</g>
<!-- Node5 -->
<g id="Node000005" class="node">
<title>Node5</title>
<g id="a_Node000005"><a xlink:href="group__RTC__Output__Polarity__Definitions.html" target="_top" xlink:title=" ">
<polygon fill="white" stroke="#666666" points="374.5,-201.5 263.5,-201.5 263.5,-171.5 374.5,-171.5 374.5,-201.5"/>
<text text-anchor="start" x="271.5" y="-189.5" font-family="Helvetica,sans-Serif" font-size="10.00">RTC Output Polarity</text>
<text text-anchor="middle" x="319" y="-178.5" font-family="Helvetica,sans-Serif" font-size="10.00"> Definitions</text>
</a>
</g>
</g>
<!-- Node1&#45;&gt;Node5 -->
<g id="edge4" class="edge">
<title>Node1&#45;&gt;Node5</title>
<path fill="none" stroke="black" d="M147.89,-323.1C163.3,-294.74 196.61,-240.51 240,-210.5 246.99,-205.66 254.99,-201.78 263.14,-198.66"/>
<polygon fill="black" stroke="black" points="144.78,-321.49 143.2,-331.97 150.97,-324.76 144.78,-321.49"/>
</g>
<!-- Node6 -->
<g id="Node000006" class="node">
<title>Node6</title>
<g id="a_Node000006"><a xlink:href="group__RTC__Output__Type__ALARM__OUT.html" target="_top" xlink:title=" ">
<polygon fill="white" stroke="#666666" points="398,-153 240,-153 240,-134 398,-134 398,-153"/>
<text text-anchor="middle" x="319" y="-141" font-family="Helvetica,sans-Serif" font-size="10.00">RTC Output Type ALARM OUT</text>
</a>
</g>
</g>
<!-- Node1&#45;&gt;Node6 -->
<g id="edge5" class="edge">
<title>Node1&#45;&gt;Node6</title>
<path fill="none" stroke="black" d="M143.91,-321.88C155.22,-284.72 184.98,-204.07 240,-162.5 245.12,-158.64 250.91,-155.55 256.98,-153.08"/>
<polygon fill="black" stroke="black" points="140.42,-321.35 140.99,-331.93 147.15,-323.31 140.42,-321.35"/>
</g>
<!-- Node4 -->
<g id="Node000004" class="node">
<title>Node4</title>
<g id="a_Node000004"><a xlink:href="group__RTC__Output__selection__Definitions.html" target="_top" xlink:title=" ">
<polygon fill="white" stroke="#666666" points="378.5,-115.5 259.5,-115.5 259.5,-85.5 378.5,-85.5 378.5,-115.5"/>
<text text-anchor="start" x="267.5" y="-103.5" font-family="Helvetica,sans-Serif" font-size="10.00">RTC Output Selection</text>
<text text-anchor="middle" x="319" y="-92.5" font-family="Helvetica,sans-Serif" font-size="10.00"> Definitions</text>
</a>
</g>
</g>
<!-- Node1&#45;&gt;Node4 -->
<g id="edge3" class="edge">
<title>Node1&#45;&gt;Node4</title>
<path fill="none" stroke="black" d="M142.24,-321.78C151.28,-279.53 178.28,-179.72 240,-125.5 245.66,-120.53 252.32,-116.54 259.33,-113.35"/>
<polygon fill="black" stroke="black" points="138.8,-321.16 140.24,-331.65 145.66,-322.55 138.8,-321.16"/>
</g>
<!-- Node9 -->
<g id="Node000009" class="node">
<title>Node9</title>
<g id="a_Node000009"><a xlink:href="group__RTC__StoreOperation__Definitions.html" target="_top" xlink:title=" ">
<polygon fill="white" stroke="#666666" points="376,-67.5 262,-67.5 262,-37.5 376,-37.5 376,-67.5"/>
<text text-anchor="start" x="270" y="-55.5" font-family="Helvetica,sans-Serif" font-size="10.00">RTC Store Operation</text>
<text text-anchor="middle" x="319" y="-44.5" font-family="Helvetica,sans-Serif" font-size="10.00"> Definitions</text>
</a>
</g>
</g>
<!-- Node1&#45;&gt;Node9 -->
<g id="edge8" class="edge">
<title>Node1&#45;&gt;Node9</title>
<path fill="none" stroke="black" d="M140.26,-321.73C145.69,-272.83 166.54,-145.18 240,-76.5 246.21,-70.69 253.79,-66.29 261.77,-62.95"/>
<polygon fill="black" stroke="black" points="136.76,-321.6 139.24,-331.91 143.72,-322.31 136.76,-321.6"/>
</g>
<!-- Node12 -->
<g id="Node000012" class="node">
<title>Node12</title>
<g id="a_Node000012"><a xlink:href="group__RTC__WeekDay__Definitions.html" target="_top" xlink:title=" ">
<polygon fill="white" stroke="#666666" points="389,-19 249,-19 249,0 389,0 389,-19"/>
<text text-anchor="middle" x="319" y="-7" font-family="Helvetica,sans-Serif" font-size="10.00">RTC WeekDay Definitions</text>
</a>
</g>
</g>
<!-- Node1&#45;&gt;Node12 -->
<g id="edge11" class="edge">
<title>Node1&#45;&gt;Node12</title>
<path fill="none" stroke="black" d="M138.67,-321.67C140.25,-266.43 152.63,-109.58 240,-28.5 244.09,-24.71 248.8,-21.64 253.85,-19.15"/>
<polygon fill="black" stroke="black" points="135.16,-321.78 138.47,-331.85 142.16,-321.92 135.16,-321.78"/>
</g>
</g>
</svg>

<g id="navigator" transform="translate(0 0)" fill="#404254">
  <rect fill="#f2f5e9" fill-opacity="0.5" stroke="#606060" stroke-width=".5" x="0" y="0" width="60" height="60"/>
  <use id="zoomplus" xlink:href="#zoomPlus" x="17" y="9" onmousedown="handleZoom(evt,'in')"/>
  <use id="zoomminus" xlink:href="#zoomMin" x="42" y="9" onmousedown="handleZoom(evt,'out')"/>
  <use id="reset" xlink:href="#resetDef" x="30" y="36" onmousedown="handleReset()"/>
   <use id="arrowup" xlink:href="#arrowUp" x="0" y="0" onmousedown="handlePan(0,-1)"/>
  <use id="arrowright" xlink:href="#arrowRight" x="0" y="0" onmousedown="handlePan(1,0)"/>
  <use id="arrowdown" xlink:href="#arrowDown" x="0" y="0" onmousedown="handlePan(0,1)"/>
  <use id="arrowleft" xlink:href="#arrowLeft" x="0" y="0" onmousedown="handlePan(-1,0)"/>
</g>
<svg viewBox="0 0 15 15" width="100%" height="30px" preserveAspectRatio="xMaxYMin meet">
 <g id="arrow_out" transform="scale(0.3 0.3)">
  <a xlink:href="group__RTC__Exported__Constants_org.svg" target="_base">
   <rect id="button" ry="5" rx="5" y="6" x="6" height="38" width="38"
        fill="#f2f5e9" fill-opacity="0.5" stroke="#606060" stroke-width="1.0"/>
   <path id="arrow"
     d="M 11.500037,31.436501 C 11.940474,20.09759 22.043105,11.32322 32.158766,21.979434 L 37.068811,17.246167 C 37.068811,17.246167 37.088388,32 37.088388,32 L 22.160133,31.978069 C 22.160133,31.978069 26.997745,27.140456 26.997745,27.140456 C 18.528582,18.264221 13.291696,25.230495 11.500037,31.436501 z"
     style="fill:#404040;"/>
  </a>
 </g>
</svg>

<style type='text/css'>
<![CDATA[
[data-mouse-over-selected='false'] { opacity: 0.7; }
[data-mouse-over-selected='true']  { opacity: 1.0; }
]]>
</style>
<script type="application/ecmascript"><![CDATA[
document.addEventListener('DOMContentLoaded', (event) => {
  highlightEdges();
  highlightAdjacentNodes();
});
]]></script>
</svg>
