<?xml version="1.0" encoding="UTF-8" standalone="no"?>
<!DOCTYPE svg PUBLIC "-//W3C//DTD SVG 1.1//EN"
 "http://www.w3.org/Graphics/SVG/1.1/DTD/svg11.dtd">
<!-- Generated by graphviz version 2.43.0 (0)
 -->
<!-- Title: TIM Exported Constants Pages: 1 -->
<svg width="403pt" height="1965pt"
 viewBox="0.00 0.00 403.00 1964.50" xmlns="http://www.w3.org/2000/svg" xmlns:xlink="http://www.w3.org/1999/xlink">
<g id="graph0" class="graph" transform="scale(1 1) rotate(0) translate(4 1960.5)">
<title>TIM Exported Constants</title>
<!-- Node52 -->
<g id="Node000052" class="node">
<title>Node52</title>
<g id="a_Node000052"><a xlink:href="group__Channel__CC__State.html" target="_top" xlink:title=" ">
<polygon fill="white" stroke="#666666" points="379,-1956.5 256,-1956.5 256,-1926.5 379,-1926.5 379,-1956.5"/>
<text text-anchor="start" x="264" y="-1944.5" font-family="Helvetica,sans-Serif" font-size="10.00">TIM Capture/Compare</text>
<text text-anchor="middle" x="317.5" y="-1933.5" font-family="Helvetica,sans-Serif" font-size="10.00"> Channel State</text>
</a>
</g>
</g>
<!-- Node51 -->
<g id="Node000051" class="node">
<title>Node51</title>
<g id="a_Node000051"><a xlink:href="group__DMA__Handle__index.html" target="_top" xlink:title=" ">
<polygon fill="white" stroke="#666666" points="381.5,-1908 253.5,-1908 253.5,-1889 381.5,-1889 381.5,-1908"/>
<text text-anchor="middle" x="317.5" y="-1896" font-family="Helvetica,sans-Serif" font-size="10.00">TIM DMA Handle Index</text>
</a>
</g>
</g>
<!-- Node2 -->
<g id="Node000002" class="node">
<title>Node2</title>
<g id="a_Node000002"><a xlink:href="group__TIM.html" target="_top" xlink:title="TIM HAL module driver.">
<polygon fill="white" stroke="#666666" points="35,-1026 0,-1026 0,-1007 35,-1007 35,-1026"/>
<text text-anchor="middle" x="17.5" y="-1014" font-family="Helvetica,sans-Serif" font-size="10.00">TIM</text>
</a>
</g>
</g>
<!-- Node1 -->
<g id="Node000001" class="node">
<title>Node1</title>
<g id="a_Node000001"><a xlink:title=" ">
<polygon fill="#999999" stroke="#666666" points="204,-1026 71,-1026 71,-1007 204,-1007 204,-1026"/>
<text text-anchor="middle" x="137.5" y="-1014" font-family="Helvetica,sans-Serif" font-size="10.00">TIM Exported Constants</text>
</a>
</g>
</g>
<!-- Node2&#45;&gt;Node1 -->
<g id="edge1" class="edge">
<title>Node2&#45;&gt;Node1</title>
<path fill="none" stroke="black" d="M45.33,-1016.5C53.09,-1016.5 61.93,-1016.5 70.97,-1016.5"/>
<polygon fill="black" stroke="black" points="45.16,-1013 35.16,-1016.5 45.16,-1020 45.16,-1013"/>
</g>
<!-- Node41 -->
<g id="Node000041" class="node">
<title>Node41</title>
<g id="a_Node000041"><a xlink:href="group__TIM__AOE__Bit__Set__Reset.html" target="_top" xlink:title=" ">
<polygon fill="white" stroke="#666666" points="379.5,-1870.5 255.5,-1870.5 255.5,-1840.5 379.5,-1840.5 379.5,-1870.5"/>
<text text-anchor="start" x="263.5" y="-1858.5" font-family="Helvetica,sans-Serif" font-size="10.00">TIM Automatic Output</text>
<text text-anchor="middle" x="317.5" y="-1847.5" font-family="Helvetica,sans-Serif" font-size="10.00"> Enable</text>
</a>
</g>
</g>
<!-- Node12 -->
<g id="Node000012" class="node">
<title>Node12</title>
<g id="a_Node000012"><a xlink:href="group__TIM__AutoReloadPreload.html" target="_top" xlink:title=" ">
<polygon fill="white" stroke="#666666" points="386,-1822 249,-1822 249,-1803 386,-1803 386,-1822"/>
<text text-anchor="middle" x="317.5" y="-1810" font-family="Helvetica,sans-Serif" font-size="10.00">TIM Auto&#45;Reload Preload</text>
</a>
</g>
</g>
<!-- Node39 -->
<g id="Node000039" class="node">
<title>Node39</title>
<g id="a_Node000039"><a xlink:href="group__TIM__Break__Input__enable__disable.html" target="_top" xlink:title=" ">
<polygon fill="white" stroke="#666666" points="382.5,-1785 252.5,-1785 252.5,-1766 382.5,-1766 382.5,-1785"/>
<text text-anchor="middle" x="317.5" y="-1773" font-family="Helvetica,sans-Serif" font-size="10.00">TIM Break Input Enable</text>
</a>
</g>
</g>
<!-- Node40 -->
<g id="Node000040" class="node">
<title>Node40</title>
<g id="a_Node000040"><a xlink:href="group__TIM__Break__Polarity.html" target="_top" xlink:title=" ">
<polygon fill="white" stroke="#666666" points="384.5,-1748 250.5,-1748 250.5,-1729 384.5,-1729 384.5,-1748"/>
<text text-anchor="middle" x="317.5" y="-1736" font-family="Helvetica,sans-Serif" font-size="10.00">TIM Break Input Polarity</text>
</a>
</g>
</g>
<!-- Node28 -->
<g id="Node000028" class="node">
<title>Node28</title>
<g id="a_Node000028"><a xlink:href="group__TIM__CC__DMA__Request.html" target="_top" xlink:title=" ">
<polygon fill="white" stroke="#666666" points="392,-1711 243,-1711 243,-1692 392,-1692 392,-1711"/>
<text text-anchor="middle" x="317.5" y="-1699" font-family="Helvetica,sans-Serif" font-size="10.00">CCx DMA request selection</text>
</a>
</g>
</g>
<!-- Node30 -->
<g id="Node000030" class="node">
<title>Node30</title>
<g id="a_Node000030"><a xlink:href="group__TIM__Channel.html" target="_top" xlink:title=" ">
<polygon fill="white" stroke="#666666" points="356,-1674 279,-1674 279,-1655 356,-1655 356,-1674"/>
<text text-anchor="middle" x="317.5" y="-1662" font-family="Helvetica,sans-Serif" font-size="10.00">TIM Channel</text>
</a>
</g>
</g>
<!-- Node34 -->
<g id="Node000034" class="node">
<title>Node34</title>
<g id="a_Node000034"><a xlink:href="group__TIM__ClearInput__Polarity.html" target="_top" xlink:title=" ">
<polygon fill="white" stroke="#666666" points="383,-1637 252,-1637 252,-1618 383,-1618 383,-1637"/>
<text text-anchor="middle" x="317.5" y="-1625" font-family="Helvetica,sans-Serif" font-size="10.00">TIM Clear Input Polarity</text>
</a>
</g>
</g>
<!-- Node35 -->
<g id="Node000035" class="node">
<title>Node35</title>
<g id="a_Node000035"><a xlink:href="group__TIM__ClearInput__Prescaler.html" target="_top" xlink:title=" ">
<polygon fill="white" stroke="#666666" points="387,-1600 248,-1600 248,-1581 387,-1581 387,-1600"/>
<text text-anchor="middle" x="317.5" y="-1588" font-family="Helvetica,sans-Serif" font-size="10.00">TIM Clear Input Prescaler</text>
</a>
</g>
</g>
<!-- Node3 -->
<g id="Node000003" class="node">
<title>Node3</title>
<g id="a_Node000003"><a xlink:href="group__TIM__ClearInput__Source.html" target="_top" xlink:title=" ">
<polygon fill="white" stroke="#666666" points="381,-1563 254,-1563 254,-1544 381,-1544 381,-1563"/>
<text text-anchor="middle" x="317.5" y="-1551" font-family="Helvetica,sans-Serif" font-size="10.00">TIM Clear Input Source</text>
</a>
</g>
</g>
<!-- Node10 -->
<g id="Node000010" class="node">
<title>Node10</title>
<g id="a_Node000010"><a xlink:href="group__TIM__ClockDivision.html" target="_top" xlink:title=" ">
<polygon fill="white" stroke="#666666" points="371,-1526 264,-1526 264,-1507 371,-1507 371,-1526"/>
<text text-anchor="middle" x="317.5" y="-1514" font-family="Helvetica,sans-Serif" font-size="10.00">TIM Clock Division</text>
</a>
</g>
</g>
<!-- Node32 -->
<g id="Node000032" class="node">
<title>Node32</title>
<g id="a_Node000032"><a xlink:href="group__TIM__Clock__Polarity.html" target="_top" xlink:title=" ">
<polygon fill="white" stroke="#666666" points="370,-1489 265,-1489 265,-1470 370,-1470 370,-1489"/>
<text text-anchor="middle" x="317.5" y="-1477" font-family="Helvetica,sans-Serif" font-size="10.00">TIM Clock Polarity</text>
</a>
</g>
</g>
<!-- Node33 -->
<g id="Node000033" class="node">
<title>Node33</title>
<g id="a_Node000033"><a xlink:href="group__TIM__Clock__Prescaler.html" target="_top" xlink:title=" ">
<polygon fill="white" stroke="#666666" points="374,-1452 261,-1452 261,-1433 374,-1433 374,-1452"/>
<text text-anchor="middle" x="317.5" y="-1440" font-family="Helvetica,sans-Serif" font-size="10.00">TIM Clock Prescaler</text>
</a>
</g>
</g>
<!-- Node31 -->
<g id="Node000031" class="node">
<title>Node31</title>
<g id="a_Node000031"><a xlink:href="group__TIM__Clock__Source.html" target="_top" xlink:title=" ">
<polygon fill="white" stroke="#666666" points="368,-1415 267,-1415 267,-1396 368,-1396 368,-1415"/>
<text text-anchor="middle" x="317.5" y="-1403" font-family="Helvetica,sans-Serif" font-size="10.00">TIM Clock Source</text>
</a>
</g>
</g>
<!-- Node26 -->
<g id="Node000026" class="node">
<title>Node26</title>
<g id="a_Node000026"><a xlink:href="group__TIM__Commutation__Source.html" target="_top" xlink:title=" ">
<polygon fill="white" stroke="#666666" points="387.5,-1378 247.5,-1378 247.5,-1359 387.5,-1359 387.5,-1378"/>
<text text-anchor="middle" x="317.5" y="-1366" font-family="Helvetica,sans-Serif" font-size="10.00">TIM Commutation Source</text>
</a>
</g>
</g>
<!-- Node9 -->
<g id="Node000009" class="node">
<title>Node9</title>
<g id="a_Node000009"><a xlink:href="group__TIM__Counter__Mode.html" target="_top" xlink:title=" ">
<polygon fill="white" stroke="#666666" points="370.5,-1341 264.5,-1341 264.5,-1322 370.5,-1322 370.5,-1341"/>
<text text-anchor="middle" x="317.5" y="-1329" font-family="Helvetica,sans-Serif" font-size="10.00">TIM Counter Mode</text>
</a>
</g>
</g>
<!-- Node4 -->
<g id="Node000004" class="node">
<title>Node4</title>
<g id="a_Node000004"><a xlink:href="group__TIM__DMA__Base__address.html" target="_top" xlink:title=" ">
<polygon fill="white" stroke="#666666" points="382.5,-1304 252.5,-1304 252.5,-1285 382.5,-1285 382.5,-1304"/>
<text text-anchor="middle" x="317.5" y="-1292" font-family="Helvetica,sans-Serif" font-size="10.00">TIM DMA Base Address</text>
</a>
</g>
</g>
<!-- Node50 -->
<g id="Node000050" class="node">
<title>Node50</title>
<g id="a_Node000050"><a xlink:href="group__TIM__DMA__Burst__Length.html" target="_top" xlink:title=" ">
<polygon fill="white" stroke="#666666" points="380,-1267 255,-1267 255,-1248 380,-1248 380,-1267"/>
<text text-anchor="middle" x="317.5" y="-1255" font-family="Helvetica,sans-Serif" font-size="10.00">TIM DMA Burst Length</text>
</a>
</g>
</g>
<!-- Node27 -->
<g id="Node000027" class="node">
<title>Node27</title>
<g id="a_Node000027"><a xlink:href="group__TIM__DMA__sources.html" target="_top" xlink:title=" ">
<polygon fill="white" stroke="#666666" points="368.5,-1230 266.5,-1230 266.5,-1211 368.5,-1211 368.5,-1230"/>
<text text-anchor="middle" x="317.5" y="-1218" font-family="Helvetica,sans-Serif" font-size="10.00">TIM DMA Sources</text>
</a>
</g>
</g>
<!-- Node7 -->
<g id="Node000007" class="node">
<title>Node7</title>
<g id="a_Node000007"><a xlink:href="group__TIM__ETR__Polarity.html" target="_top" xlink:title=" ">
<polygon fill="white" stroke="#666666" points="366,-1193 269,-1193 269,-1174 366,-1174 366,-1193"/>
<text text-anchor="middle" x="317.5" y="-1181" font-family="Helvetica,sans-Serif" font-size="10.00">TIM ETR Polarity</text>
</a>
</g>
</g>
<!-- Node8 -->
<g id="Node000008" class="node">
<title>Node8</title>
<g id="a_Node000008"><a xlink:href="group__TIM__ETR__Prescaler.html" target="_top" xlink:title=" ">
<polygon fill="white" stroke="#666666" points="369.5,-1156 265.5,-1156 265.5,-1137 369.5,-1137 369.5,-1156"/>
<text text-anchor="middle" x="317.5" y="-1144" font-family="Helvetica,sans-Serif" font-size="10.00">TIM ETR Prescaler</text>
</a>
</g>
</g>
<!-- Node20 -->
<g id="Node000020" class="node">
<title>Node20</title>
<g id="a_Node000020"><a xlink:href="group__TIM__Encoder__Input__Polarity.html" target="_top" xlink:title=" ">
<polygon fill="white" stroke="#666666" points="390,-1119 245,-1119 245,-1100 390,-1100 390,-1119"/>
<text text-anchor="middle" x="317.5" y="-1107" font-family="Helvetica,sans-Serif" font-size="10.00">TIM Encoder Input Polarity</text>
</a>
</g>
</g>
<!-- Node24 -->
<g id="Node000024" class="node">
<title>Node24</title>
<g id="a_Node000024"><a xlink:href="group__TIM__Encoder__Mode.html" target="_top" xlink:title=" ">
<polygon fill="white" stroke="#666666" points="371,-1082 264,-1082 264,-1063 371,-1063 371,-1082"/>
<text text-anchor="middle" x="317.5" y="-1070" font-family="Helvetica,sans-Serif" font-size="10.00">TIM Encoder Mode</text>
</a>
</g>
</g>
<!-- Node5 -->
<g id="Node000005" class="node">
<title>Node5</title>
<g id="a_Node000005"><a xlink:href="group__TIM__Event__Source.html" target="_top" xlink:title=" ">
<polygon fill="white" stroke="#666666" points="368,-1045 267,-1045 267,-1026 368,-1026 368,-1045"/>
<text text-anchor="middle" x="317.5" y="-1033" font-family="Helvetica,sans-Serif" font-size="10.00">TIM Event Source</text>
</a>
</g>
</g>
<!-- Node1&#45;&gt;Node52 -->
<g id="edge51" class="edge">
<title>Node1&#45;&gt;Node52</title>
<path fill="none" stroke="black" d="M139.44,-1036.11C145.6,-1161.41 181.8,-1846.91 240,-1917.5 244.34,-1922.76 249.82,-1926.89 255.85,-1930.12"/>
<polygon fill="black" stroke="black" points="142.93,-1035.87 138.95,-1026.05 135.94,-1036.21 142.93,-1035.87"/>
</g>
<!-- Node1&#45;&gt;Node51 -->
<g id="edge50" class="edge">
<title>Node1&#45;&gt;Node51</title>
<path fill="none" stroke="black" d="M139.5,-1036.46C145.87,-1159.7 182.22,-1813.91 240,-1879.5 243.8,-1883.81 248.41,-1887.22 253.47,-1889.91"/>
<polygon fill="black" stroke="black" points="142.99,-1036.04 138.98,-1026.23 135.99,-1036.4 142.99,-1036.04"/>
</g>
<!-- Node1&#45;&gt;Node41 -->
<g id="edge40" class="edge">
<title>Node1&#45;&gt;Node41</title>
<path fill="none" stroke="black" d="M138.17,-1036.31C136.73,-1148.72 135.01,-1705.67 240,-1831.5 244.19,-1836.52 249.42,-1840.51 255.17,-1843.67"/>
<polygon fill="black" stroke="black" points="141.68,-1036.14 138.32,-1026.09 134.68,-1036.04 141.68,-1036.14"/>
</g>
<!-- Node1&#45;&gt;Node12 -->
<g id="edge11" class="edge">
<title>Node1&#45;&gt;Node12</title>
<path fill="none" stroke="black" d="M138.17,-1036.22C136.73,-1145.77 135.27,-1678.58 240,-1794.5 243.02,-1797.84 246.53,-1800.62 250.36,-1802.93"/>
<polygon fill="black" stroke="black" points="141.67,-1036.27 138.31,-1026.22 134.67,-1036.17 141.67,-1036.27"/>
</g>
<!-- Node1&#45;&gt;Node39 -->
<g id="edge38" class="edge">
<title>Node1&#45;&gt;Node39</title>
<path fill="none" stroke="black" d="M138.31,-1036.28C137.69,-1142.83 140.12,-1647.66 240,-1757.5 243.49,-1761.34 247.63,-1764.43 252.14,-1766.92"/>
<polygon fill="black" stroke="black" points="141.81,-1036.28 138.38,-1026.26 134.81,-1036.23 141.81,-1036.28"/>
</g>
<!-- Node1&#45;&gt;Node40 -->
<g id="edge39" class="edge">
<title>Node1&#45;&gt;Node40</title>
<path fill="none" stroke="black" d="M138.47,-1036.26C138.69,-1139.56 144.95,-1616.7 240,-1720.5 243.04,-1723.82 246.57,-1726.58 250.41,-1728.88"/>
<polygon fill="black" stroke="black" points="141.97,-1036.26 138.46,-1026.26 134.97,-1036.26 141.97,-1036.26"/>
</g>
<!-- Node1&#45;&gt;Node28 -->
<g id="edge27" class="edge">
<title>Node1&#45;&gt;Node28</title>
<path fill="none" stroke="black" d="M138.64,-1036.46C139.76,-1136.88 149.83,-1585.8 240,-1683.5 243.05,-1686.81 246.59,-1689.56 250.44,-1691.85"/>
<polygon fill="black" stroke="black" points="142.14,-1036.18 138.55,-1026.22 135.14,-1036.25 142.14,-1036.18"/>
</g>
<!-- Node1&#45;&gt;Node30 -->
<g id="edge29" class="edge">
<title>Node1&#45;&gt;Node30</title>
<path fill="none" stroke="black" d="M138.83,-1036.27C140.86,-1132.91 154.58,-1554.76 240,-1646.5 249.86,-1657.08 264.66,-1661.99 278.64,-1664.1"/>
<polygon fill="black" stroke="black" points="142.33,-1036.07 138.64,-1026.14 135.33,-1036.2 142.33,-1036.07"/>
</g>
<!-- Node1&#45;&gt;Node34 -->
<g id="edge33" class="edge">
<title>Node1&#45;&gt;Node34</title>
<path fill="none" stroke="black" d="M139.05,-1036.26C142.04,-1129.43 159.38,-1523.76 240,-1609.5 243.46,-1613.18 247.51,-1616.17 251.92,-1618.59"/>
<polygon fill="black" stroke="black" points="142.54,-1035.9 138.74,-1026.01 135.54,-1036.11 142.54,-1035.9"/>
</g>
<!-- Node1&#45;&gt;Node35 -->
<g id="edge34" class="edge">
<title>Node1&#45;&gt;Node35</title>
<path fill="none" stroke="black" d="M139.3,-1036.45C143.33,-1126.33 164.22,-1492.79 240,-1572.5 243.2,-1575.86 246.89,-1578.65 250.9,-1580.95"/>
<polygon fill="black" stroke="black" points="142.79,-1036.11 138.87,-1026.27 135.8,-1036.41 142.79,-1036.11"/>
</g>
<!-- Node1&#45;&gt;Node3 -->
<g id="edge2" class="edge">
<title>Node1&#45;&gt;Node3</title>
<path fill="none" stroke="black" d="M139.57,-1036.2C144.62,-1121.94 168.92,-1461.67 240,-1535.5 243.97,-1539.63 248.7,-1542.89 253.83,-1545.45"/>
<polygon fill="black" stroke="black" points="143.05,-1035.82 138.99,-1026.03 136.06,-1036.22 143.05,-1035.82"/>
</g>
<!-- Node1&#45;&gt;Node10 -->
<g id="edge9" class="edge">
<title>Node1&#45;&gt;Node10</title>
<path fill="none" stroke="black" d="M139.92,-1036.6C146.15,-1119.11 173.79,-1430.72 240,-1498.5 246.48,-1505.14 254.92,-1509.52 263.81,-1512.37"/>
<polygon fill="black" stroke="black" points="143.37,-1035.86 139.15,-1026.14 136.39,-1036.37 143.37,-1035.86"/>
</g>
<!-- Node1&#45;&gt;Node32 -->
<g id="edge31" class="edge">
<title>Node1&#45;&gt;Node32</title>
<path fill="none" stroke="black" d="M140.29,-1036.55C147.71,-1114.95 178.52,-1399.6 240,-1461.5 246.73,-1468.28 255.5,-1472.69 264.69,-1475.53"/>
<polygon fill="black" stroke="black" points="143.74,-1035.8 139.34,-1026.16 136.77,-1036.44 143.74,-1035.8"/>
</g>
<!-- Node1&#45;&gt;Node33 -->
<g id="edge32" class="edge">
<title>Node1&#45;&gt;Node33</title>
<path fill="none" stroke="black" d="M140.71,-1036.29C149.34,-1110.17 183.18,-1368.4 240,-1424.5 245.83,-1430.25 253.12,-1434.3 260.88,-1437.12"/>
<polygon fill="black" stroke="black" points="144.15,-1035.62 139.54,-1026.08 137.2,-1036.41 144.15,-1035.62"/>
</g>
<!-- Node1&#45;&gt;Node31 -->
<g id="edge30" class="edge">
<title>Node1&#45;&gt;Node31</title>
<path fill="none" stroke="black" d="M141.23,-1036.28C151.21,-1105.76 187.87,-1337.22 240,-1387.5 247.36,-1394.6 256.98,-1399.09 266.9,-1401.88"/>
<polygon fill="black" stroke="black" points="144.68,-1035.65 139.81,-1026.24 137.74,-1036.63 144.68,-1035.65"/>
</g>
<!-- Node1&#45;&gt;Node26 -->
<g id="edge25" class="edge">
<title>Node1&#45;&gt;Node26</title>
<path fill="none" stroke="black" d="M138.16,-1036.52C138.34,-1094.41 147.16,-1263.42 240,-1350.5 243.58,-1353.86 247.67,-1356.63 252.05,-1358.91"/>
<polygon fill="black" stroke="black" points="141.66,-1036.22 138.22,-1026.2 134.66,-1036.18 141.66,-1036.22"/>
</g>
<!-- Node1&#45;&gt;Node9 -->
<g id="edge8" class="edge">
<title>Node1&#45;&gt;Node9</title>
<path fill="none" stroke="black" d="M139.04,-1036.43C141.6,-1089.9 156.31,-1237.65 240,-1313.5 246.87,-1319.73 255.49,-1323.92 264.45,-1326.72"/>
<polygon fill="black" stroke="black" points="142.53,-1036.1 138.64,-1026.24 135.53,-1036.37 142.53,-1036.1"/>
</g>
<!-- Node1&#45;&gt;Node4 -->
<g id="edge3" class="edge">
<title>Node1&#45;&gt;Node4</title>
<path fill="none" stroke="black" d="M140.11,-1036.21C145.19,-1084.91 165.3,-1211.66 240,-1276.5 243.92,-1279.9 248.35,-1282.68 253.07,-1284.97"/>
<polygon fill="black" stroke="black" points="143.58,-1035.7 139.16,-1026.07 136.61,-1036.36 143.58,-1035.7"/>
</g>
<!-- Node1&#45;&gt;Node50 -->
<g id="edge49" class="edge">
<title>Node1&#45;&gt;Node50</title>
<path fill="none" stroke="black" d="M141.55,-1036.34C149.38,-1080.17 174.37,-1185.62 240,-1239.5 244.43,-1243.14 249.46,-1246.06 254.79,-1248.42"/>
<polygon fill="black" stroke="black" points="144.98,-1035.66 139.88,-1026.37 138.08,-1036.81 144.98,-1035.66"/>
</g>
<!-- Node1&#45;&gt;Node27 -->
<g id="edge26" class="edge">
<title>Node1&#45;&gt;Node27</title>
<path fill="none" stroke="black" d="M143.36,-1035.88C153.99,-1074.06 183.01,-1159.07 240,-1202.5 247.7,-1208.37 257.02,-1212.37 266.46,-1215.08"/>
<polygon fill="black" stroke="black" points="146.69,-1034.79 140.74,-1026.02 139.93,-1036.59 146.69,-1034.79"/>
</g>
<!-- Node1&#45;&gt;Node7 -->
<g id="edge6" class="edge">
<title>Node1&#45;&gt;Node7</title>
<path fill="none" stroke="black" d="M146.16,-1035.98C159.88,-1068.22 191.79,-1132.38 240,-1165.5 248.55,-1171.37 258.76,-1175.34 268.9,-1178.03"/>
<polygon fill="black" stroke="black" points="149.25,-1034.28 142.21,-1026.36 142.77,-1036.94 149.25,-1034.28"/>
</g>
<!-- Node1&#45;&gt;Node8 -->
<g id="edge7" class="edge">
<title>Node1&#45;&gt;Node8</title>
<path fill="none" stroke="black" d="M149.76,-1034.65C166.32,-1059.78 199.71,-1104.74 240,-1128.5 247.76,-1133.07 256.6,-1136.49 265.45,-1139.03"/>
<polygon fill="black" stroke="black" points="152.6,-1032.6 144.25,-1026.08 146.71,-1036.38 152.6,-1032.6"/>
</g>
<!-- Node1&#45;&gt;Node20 -->
<g id="edge19" class="edge">
<title>Node1&#45;&gt;Node20</title>
<path fill="none" stroke="black" d="M156.16,-1033.09C175.35,-1050.22 207.61,-1076.5 240,-1091.5 247.3,-1094.88 255.31,-1097.66 263.29,-1099.94"/>
<polygon fill="black" stroke="black" points="158.29,-1030.3 148.54,-1026.16 153.58,-1035.48 158.29,-1030.3"/>
</g>
<!-- Node1&#45;&gt;Node24 -->
<g id="edge23" class="edge">
<title>Node1&#45;&gt;Node24</title>
<path fill="none" stroke="black" d="M171.04,-1029.89C190.77,-1037.7 216.59,-1047.39 240,-1054.5 250.18,-1057.59 261.26,-1060.47 271.75,-1062.98"/>
<polygon fill="black" stroke="black" points="172.18,-1026.57 161.59,-1026.11 169.58,-1033.07 172.18,-1026.57"/>
</g>
<!-- Node1&#45;&gt;Node5 -->
<g id="edge4" class="edge">
<title>Node1&#45;&gt;Node5</title>
<path fill="none" stroke="black" d="M214.4,-1024.6C232.19,-1026.5 250.7,-1028.48 266.99,-1030.22"/>
<polygon fill="black" stroke="black" points="214.34,-1021.08 204.02,-1023.49 213.59,-1028.04 214.34,-1021.08"/>
</g>
<!-- Node29 -->
<g id="Node000029" class="node">
<title>Node29</title>
<g id="a_Node000029"><a xlink:href="group__TIM__Flag__definition.html" target="_top" xlink:title=" ">
<polygon fill="white" stroke="#666666" points="372,-1008 263,-1008 263,-989 372,-989 372,-1008"/>
<text text-anchor="middle" x="317.5" y="-996" font-family="Helvetica,sans-Serif" font-size="10.00">TIM Flag Definition</text>
</a>
</g>
</g>
<!-- Node1&#45;&gt;Node29 -->
<g id="edge28" class="edge">
<title>Node1&#45;&gt;Node29</title>
<path fill="none" stroke="black" d="M214.11,-1008.85C230.47,-1007.2 247.45,-1005.48 262.77,-1003.93"/>
<polygon fill="black" stroke="black" points="213.62,-1005.39 204.02,-1009.87 214.32,-1012.35 213.62,-1005.39"/>
</g>
<!-- Node19 -->
<g id="Node000019" class="node">
<title>Node19</title>
<g id="a_Node000019"><a xlink:href="group__TIM__Input__Capture__Polarity.html" target="_top" xlink:title=" ">
<polygon fill="white" stroke="#666666" points="389.5,-971 245.5,-971 245.5,-952 389.5,-952 389.5,-971"/>
<text text-anchor="middle" x="317.5" y="-959" font-family="Helvetica,sans-Serif" font-size="10.00">TIM Input Capture Polarity</text>
</a>
</g>
</g>
<!-- Node1&#45;&gt;Node19 -->
<g id="edge18" class="edge">
<title>Node1&#45;&gt;Node19</title>
<path fill="none" stroke="black" d="M171.85,-1003.21C191.5,-995.67 216.94,-986.39 240,-979.5 250.2,-976.45 261.28,-973.59 271.77,-971.09"/>
<polygon fill="black" stroke="black" points="170.49,-999.99 162.43,-1006.86 173.02,-1006.51 170.49,-999.99"/>
</g>
<!-- Node22 -->
<g id="Node000022" class="node">
<title>Node22</title>
<g id="a_Node000022"><a xlink:href="group__TIM__Input__Capture__Prescaler.html" target="_top" xlink:title=" ">
<polygon fill="white" stroke="#666666" points="393.5,-934 241.5,-934 241.5,-915 393.5,-915 393.5,-934"/>
<text text-anchor="middle" x="317.5" y="-922" font-family="Helvetica,sans-Serif" font-size="10.00">TIM Input Capture Prescaler</text>
</a>
</g>
</g>
<!-- Node1&#45;&gt;Node22 -->
<g id="edge21" class="edge">
<title>Node1&#45;&gt;Node22</title>
<path fill="none" stroke="black" d="M156.2,-1000.14C175.42,-983.25 207.72,-957.33 240,-942.5 247.32,-939.14 255.32,-936.37 263.31,-934.1"/>
<polygon fill="black" stroke="black" points="153.68,-997.7 148.57,-1006.98 158.35,-1002.91 153.68,-997.7"/>
</g>
<!-- Node21 -->
<g id="Node000021" class="node">
<title>Node21</title>
<g id="a_Node000021"><a xlink:href="group__TIM__Input__Capture__Selection.html" target="_top" xlink:title=" ">
<polygon fill="white" stroke="#666666" points="393.5,-897 241.5,-897 241.5,-878 393.5,-878 393.5,-897"/>
<text text-anchor="middle" x="317.5" y="-885" font-family="Helvetica,sans-Serif" font-size="10.00">TIM Input Capture Selection</text>
</a>
</g>
</g>
<!-- Node1&#45;&gt;Node21 -->
<g id="edge20" class="edge">
<title>Node1&#45;&gt;Node21</title>
<path fill="none" stroke="black" d="M150.05,-998.14C166.75,-973.17 200.06,-928.93 240,-905.5 245.88,-902.05 252.39,-899.26 259.04,-897"/>
<polygon fill="black" stroke="black" points="147.01,-996.39 144.48,-1006.68 152.87,-1000.22 147.01,-996.39"/>
</g>
<!-- Node6 -->
<g id="Node000006" class="node">
<title>Node6</title>
<g id="a_Node000006"><a xlink:href="group__TIM__Input__Channel__Polarity.html" target="_top" xlink:title=" ">
<polygon fill="white" stroke="#666666" points="390.5,-860 244.5,-860 244.5,-841 390.5,-841 390.5,-860"/>
<text text-anchor="middle" x="317.5" y="-848" font-family="Helvetica,sans-Serif" font-size="10.00">TIM Input Channel polarity</text>
</a>
</g>
</g>
<!-- Node1&#45;&gt;Node6 -->
<g id="edge5" class="edge">
<title>Node1&#45;&gt;Node6</title>
<path fill="none" stroke="black" d="M146.2,-997.15C159.97,-965.13 191.96,-901.39 240,-868.5 244.95,-865.11 250.46,-862.35 256.19,-860.11"/>
<polygon fill="black" stroke="black" points="142.83,-996.13 142.23,-1006.7 149.3,-998.81 142.83,-996.13"/>
</g>
<!-- Node25 -->
<g id="Node000025" class="node">
<title>Node25</title>
<g id="a_Node000025"><a xlink:href="group__TIM__Interrupt__definition.html" target="_top" xlink:title=" ">
<polygon fill="white" stroke="#666666" points="382.5,-823 252.5,-823 252.5,-804 382.5,-804 382.5,-823"/>
<text text-anchor="middle" x="317.5" y="-811" font-family="Helvetica,sans-Serif" font-size="10.00">TIM interrupt Definition</text>
</a>
</g>
</g>
<!-- Node1&#45;&gt;Node25 -->
<g id="edge24" class="edge">
<title>Node1&#45;&gt;Node25</title>
<path fill="none" stroke="black" d="M143.54,-996.69C154.35,-958.46 183.46,-874.48 240,-831.5 244.45,-828.11 249.44,-825.35 254.68,-823.1"/>
<polygon fill="black" stroke="black" points="140.1,-996.03 140.87,-1006.59 146.86,-997.85 140.1,-996.03"/>
</g>
<!-- Node38 -->
<g id="Node000038" class="node">
<title>Node38</title>
<g id="a_Node000038"><a xlink:href="group__TIM__Lock__level.html" target="_top" xlink:title=" ">
<polygon fill="white" stroke="#666666" points="361,-786 274,-786 274,-767 361,-767 361,-786"/>
<text text-anchor="middle" x="317.5" y="-774" font-family="Helvetica,sans-Serif" font-size="10.00">TIM Lock level</text>
</a>
</g>
</g>
<!-- Node1&#45;&gt;Node38 -->
<g id="edge37" class="edge">
<title>Node1&#45;&gt;Node38</title>
<path fill="none" stroke="black" d="M141.58,-996.74C149.46,-953.11 174.57,-848.12 240,-794.5 249.5,-786.72 261.77,-782.18 273.7,-779.57"/>
<polygon fill="black" stroke="black" points="138.12,-996.23 139.9,-1006.67 145.02,-997.4 138.12,-996.23"/>
</g>
<!-- Node42 -->
<g id="Node000042" class="node">
<title>Node42</title>
<g id="a_Node000042"><a xlink:href="group__TIM__Master__Mode__Selection.html" target="_top" xlink:title=" ">
<polygon fill="white" stroke="#666666" points="392,-749 243,-749 243,-730 392,-730 392,-749"/>
<text text-anchor="middle" x="317.5" y="-737" font-family="Helvetica,sans-Serif" font-size="10.00">TIM Master Mode Selection</text>
</a>
</g>
</g>
<!-- Node1&#45;&gt;Node42 -->
<g id="edge41" class="edge">
<title>Node1&#45;&gt;Node42</title>
<path fill="none" stroke="black" d="M140.14,-996.87C145.28,-948.35 165.51,-822.08 240,-757.5 243.92,-754.1 248.36,-751.32 253.08,-749.04"/>
<polygon fill="black" stroke="black" points="136.64,-996.68 139.17,-1006.96 143.61,-997.34 136.64,-996.68"/>
</g>
<!-- Node43 -->
<g id="Node000043" class="node">
<title>Node43</title>
<g id="a_Node000043"><a xlink:href="group__TIM__Master__Slave__Mode.html" target="_top" xlink:title=" ">
<polygon fill="white" stroke="#666666" points="383,-712 252,-712 252,-693 383,-693 383,-712"/>
<text text-anchor="middle" x="317.5" y="-700" font-family="Helvetica,sans-Serif" font-size="10.00">TIM Master/Slave Mode</text>
</a>
</g>
</g>
<!-- Node1&#45;&gt;Node43 -->
<g id="edge42" class="edge">
<title>Node1&#45;&gt;Node43</title>
<path fill="none" stroke="black" d="M139.06,-996.64C141.68,-943.34 156.52,-796.08 240,-720.5 243.74,-717.11 248,-714.33 252.55,-712.04"/>
<polygon fill="black" stroke="black" points="135.56,-996.66 138.66,-1006.79 142.55,-996.93 135.56,-996.66"/>
</g>
<!-- Node37 -->
<g id="Node000037" class="node">
<title>Node37</title>
<g id="a_Node000037"><a xlink:href="group__TIM__OSSI__Off__State__Selection__for__Idle__mode__state.html" target="_top" xlink:title=" ">
<polygon fill="white" stroke="#666666" points="393,-674.5 242,-674.5 242,-644.5 393,-644.5 393,-674.5"/>
<text text-anchor="start" x="250" y="-662.5" font-family="Helvetica,sans-Serif" font-size="10.00">TIM OSSI OffState Selection</text>
<text text-anchor="middle" x="317.5" y="-651.5" font-family="Helvetica,sans-Serif" font-size="10.00"> for Idle mode state</text>
</a>
</g>
</g>
<!-- Node1&#45;&gt;Node37 -->
<g id="edge36" class="edge">
<title>Node1&#45;&gt;Node37</title>
<path fill="none" stroke="black" d="M138.5,-996.86C139.58,-940.01 150.61,-773.62 240,-683.5 243.43,-680.04 247.35,-677.08 251.57,-674.54"/>
<polygon fill="black" stroke="black" points="134.99,-996.96 138.39,-1006.99 141.99,-997.03 134.99,-996.96"/>
</g>
<!-- Node36 -->
<g id="Node000036" class="node">
<title>Node36</title>
<g id="a_Node000036"><a xlink:href="group__TIM__OSSR__Off__State__Selection__for__Run__mode__state.html" target="_top" xlink:title=" ">
<polygon fill="white" stroke="#666666" points="395,-626.5 240,-626.5 240,-596.5 395,-596.5 395,-626.5"/>
<text text-anchor="start" x="248" y="-614.5" font-family="Helvetica,sans-Serif" font-size="10.00">TIM OSSR OffState Selection</text>
<text text-anchor="middle" x="317.5" y="-603.5" font-family="Helvetica,sans-Serif" font-size="10.00"> for Run mode state</text>
</a>
</g>
</g>
<!-- Node1&#45;&gt;Node36 -->
<g id="edge35" class="edge">
<title>Node1&#45;&gt;Node36</title>
<path fill="none" stroke="black" d="M141.22,-996.79C151.29,-926.47 188.55,-689.25 240,-635.5 243.27,-632.08 247.03,-629.15 251.07,-626.63"/>
<polygon fill="black" stroke="black" points="137.72,-996.53 139.79,-1006.92 144.65,-997.51 137.72,-996.53"/>
</g>
<!-- Node23 -->
<g id="Node000023" class="node">
<title>Node23</title>
<g id="a_Node000023"><a xlink:href="group__TIM__One__Pulse__Mode.html" target="_top" xlink:title=" ">
<polygon fill="white" stroke="#666666" points="375.5,-578 259.5,-578 259.5,-559 375.5,-559 375.5,-578"/>
<text text-anchor="middle" x="317.5" y="-566" font-family="Helvetica,sans-Serif" font-size="10.00">TIM One Pulse Mode</text>
</a>
</g>
</g>
<!-- Node1&#45;&gt;Node23 -->
<g id="edge22" class="edge">
<title>Node1&#45;&gt;Node23</title>
<path fill="none" stroke="black" d="M140.48,-996.7C148.47,-920.47 180.88,-647.28 240,-587.5 245.39,-582.05 252.08,-578.08 259.25,-575.19"/>
<polygon fill="black" stroke="black" points="136.98,-996.52 139.44,-1006.82 143.94,-997.23 136.98,-996.52"/>
</g>
<!-- Node17 -->
<g id="Node000017" class="node">
<title>Node17</title>
<g id="a_Node000017"><a xlink:href="group__TIM__Output__Compare__Idle__State.html" target="_top" xlink:title=" ">
<polygon fill="white" stroke="#666666" points="376.5,-540.5 258.5,-540.5 258.5,-510.5 376.5,-510.5 376.5,-540.5"/>
<text text-anchor="start" x="266.5" y="-528.5" font-family="Helvetica,sans-Serif" font-size="10.00">TIM Output Compare</text>
<text text-anchor="middle" x="317.5" y="-517.5" font-family="Helvetica,sans-Serif" font-size="10.00"> Idle State</text>
</a>
</g>
</g>
<!-- Node1&#45;&gt;Node17 -->
<g id="edge16" class="edge">
<title>Node1&#45;&gt;Node17</title>
<path fill="none" stroke="black" d="M140.19,-996.63C147.41,-916.38 178.12,-617.22 240,-549.5 245.07,-543.95 251.41,-539.68 258.25,-536.38"/>
<polygon fill="black" stroke="black" points="136.69,-996.56 139.3,-1006.83 143.66,-997.17 136.69,-996.56"/>
</g>
<!-- Node18 -->
<g id="Node000018" class="node">
<title>Node18</title>
<g id="a_Node000018"><a xlink:href="group__TIM__Output__Compare__N__Idle__State.html" target="_top" xlink:title=" ">
<polygon fill="white" stroke="#666666" points="393.5,-492.5 241.5,-492.5 241.5,-462.5 393.5,-462.5 393.5,-492.5"/>
<text text-anchor="start" x="249.5" y="-480.5" font-family="Helvetica,sans-Serif" font-size="10.00">TIM Complementary Output</text>
<text text-anchor="middle" x="317.5" y="-469.5" font-family="Helvetica,sans-Serif" font-size="10.00"> Compare Idle State</text>
</a>
</g>
</g>
<!-- Node1&#45;&gt;Node18 -->
<g id="edge17" class="edge">
<title>Node1&#45;&gt;Node18</title>
<path fill="none" stroke="black" d="M139.76,-996.53C145.56,-911.08 172.26,-577.09 240,-501.5 243.07,-498.08 246.61,-495.14 250.46,-492.62"/>
<polygon fill="black" stroke="black" points="136.26,-996.48 139.09,-1006.69 143.24,-996.94 136.26,-996.48"/>
</g>
<!-- Node16 -->
<g id="Node000016" class="node">
<title>Node16</title>
<g id="a_Node000016"><a xlink:href="group__TIM__Output__Compare__N__Polarity.html" target="_top" xlink:title=" ">
<polygon fill="white" stroke="#666666" points="393.5,-444.5 241.5,-444.5 241.5,-414.5 393.5,-414.5 393.5,-444.5"/>
<text text-anchor="start" x="249.5" y="-432.5" font-family="Helvetica,sans-Serif" font-size="10.00">TIM Complementary Output</text>
<text text-anchor="middle" x="317.5" y="-421.5" font-family="Helvetica,sans-Serif" font-size="10.00"> Compare Polarity</text>
</a>
</g>
</g>
<!-- Node1&#45;&gt;Node16 -->
<g id="edge15" class="edge">
<title>Node1&#45;&gt;Node16</title>
<path fill="none" stroke="black" d="M139.4,-996.43C143.86,-905.98 166.38,-537 240,-453.5 243.04,-450.05 246.56,-447.1 250.4,-444.56"/>
<polygon fill="black" stroke="black" points="135.89,-996.52 138.92,-1006.67 142.89,-996.85 135.89,-996.52"/>
</g>
<!-- Node14 -->
<g id="Node000014" class="node">
<title>Node14</title>
<g id="a_Node000014"><a xlink:href="group__TIM__Output__Compare__N__State.html" target="_top" xlink:title=" ">
<polygon fill="white" stroke="#666666" points="393.5,-396.5 241.5,-396.5 241.5,-366.5 393.5,-366.5 393.5,-396.5"/>
<text text-anchor="start" x="249.5" y="-384.5" font-family="Helvetica,sans-Serif" font-size="10.00">TIM Complementary Output</text>
<text text-anchor="middle" x="317.5" y="-373.5" font-family="Helvetica,sans-Serif" font-size="10.00"> Compare State</text>
</a>
</g>
</g>
<!-- Node1&#45;&gt;Node14 -->
<g id="edge13" class="edge">
<title>Node1&#45;&gt;Node14</title>
<path fill="none" stroke="black" d="M139.09,-996.56C142.27,-901.71 160.42,-497.03 240,-405.5 243.01,-402.03 246.52,-399.06 250.35,-396.52"/>
<polygon fill="black" stroke="black" points="135.58,-996.66 138.76,-1006.76 142.58,-996.88 135.58,-996.66"/>
</g>
<!-- Node15 -->
<g id="Node000015" class="node">
<title>Node15</title>
<g id="a_Node000015"><a xlink:href="group__TIM__Output__Compare__Polarity.html" target="_top" xlink:title=" ">
<polygon fill="white" stroke="#666666" points="376.5,-348.5 258.5,-348.5 258.5,-318.5 376.5,-318.5 376.5,-348.5"/>
<text text-anchor="start" x="266.5" y="-336.5" font-family="Helvetica,sans-Serif" font-size="10.00">TIM Output Compare</text>
<text text-anchor="middle" x="317.5" y="-325.5" font-family="Helvetica,sans-Serif" font-size="10.00"> Polarity</text>
</a>
</g>
</g>
<!-- Node1&#45;&gt;Node15 -->
<g id="edge14" class="edge">
<title>Node1&#45;&gt;Node15</title>
<path fill="none" stroke="black" d="M138.82,-996.9C140.79,-898.28 154.37,-457.16 240,-357.5 244.99,-351.69 251.37,-347.27 258.3,-343.91"/>
<polygon fill="black" stroke="black" points="135.32,-996.9 138.63,-1006.96 142.31,-997.02 135.32,-996.9"/>
</g>
<!-- Node11 -->
<g id="Node000011" class="node">
<title>Node11</title>
<g id="a_Node000011"><a xlink:href="group__TIM__Output__Compare__State.html" target="_top" xlink:title=" ">
<polygon fill="white" stroke="#666666" points="376.5,-300.5 258.5,-300.5 258.5,-270.5 376.5,-270.5 376.5,-300.5"/>
<text text-anchor="start" x="266.5" y="-288.5" font-family="Helvetica,sans-Serif" font-size="10.00">TIM Output Compare</text>
<text text-anchor="middle" x="317.5" y="-277.5" font-family="Helvetica,sans-Serif" font-size="10.00"> State</text>
</a>
</g>
</g>
<!-- Node1&#45;&gt;Node11 -->
<g id="edge10" class="edge">
<title>Node1&#45;&gt;Node11</title>
<path fill="none" stroke="black" d="M138.59,-996.47C139.48,-892.7 148.54,-417.06 240,-309.5 244.96,-303.67 251.32,-299.23 258.25,-295.87"/>
<polygon fill="black" stroke="black" points="135.09,-996.74 138.52,-1006.76 142.09,-996.79 135.09,-996.74"/>
</g>
<!-- Node45 -->
<g id="Node000045" class="node">
<title>Node45</title>
<g id="a_Node000045"><a xlink:href="group__TIM__Output__Compare__and__PWM__modes.html" target="_top" xlink:title=" ">
<polygon fill="white" stroke="#666666" points="376.5,-252.5 258.5,-252.5 258.5,-222.5 376.5,-222.5 376.5,-252.5"/>
<text text-anchor="start" x="266.5" y="-240.5" font-family="Helvetica,sans-Serif" font-size="10.00">TIM Output Compare</text>
<text text-anchor="middle" x="317.5" y="-229.5" font-family="Helvetica,sans-Serif" font-size="10.00"> and PWM Modes</text>
</a>
</g>
</g>
<!-- Node1&#45;&gt;Node45 -->
<g id="edge44" class="edge">
<title>Node1&#45;&gt;Node45</title>
<path fill="none" stroke="black" d="M138.39,-996.81C138.2,-889.66 142.46,-377.26 240,-261.5 244.93,-255.65 251.28,-251.2 258.2,-247.83"/>
<polygon fill="black" stroke="black" points="134.89,-996.89 138.43,-1006.87 141.89,-996.86 134.89,-996.89"/>
</g>
<!-- Node13 -->
<g id="Node000013" class="node">
<title>Node13</title>
<g id="a_Node000013"><a xlink:href="group__TIM__Output__Fast__State.html" target="_top" xlink:title=" ">
<polygon fill="white" stroke="#666666" points="378.5,-204 256.5,-204 256.5,-185 378.5,-185 378.5,-204"/>
<text text-anchor="middle" x="317.5" y="-192" font-family="Helvetica,sans-Serif" font-size="10.00">TIM Output Fast State</text>
</a>
</g>
</g>
<!-- Node1&#45;&gt;Node13 -->
<g id="edge12" class="edge">
<title>Node1&#45;&gt;Node13</title>
<path fill="none" stroke="black" d="M138.1,-996.52C136.25,-884.4 132.83,-334.09 240,-213.5 244.55,-208.39 250.23,-204.54 256.44,-201.67"/>
<polygon fill="black" stroke="black" points="134.6,-996.81 138.28,-1006.74 141.6,-996.68 134.6,-996.81"/>
</g>
<!-- Node44 -->
<g id="Node000044" class="node">
<title>Node44</title>
<g id="a_Node000044"><a xlink:href="group__TIM__Slave__Mode.html" target="_top" xlink:title=" ">
<polygon fill="white" stroke="#666666" points="365,-167 270,-167 270,-148 365,-148 365,-167"/>
<text text-anchor="middle" x="317.5" y="-155" font-family="Helvetica,sans-Serif" font-size="10.00">TIM Slave mode</text>
</a>
</g>
</g>
<!-- Node1&#45;&gt;Node44 -->
<g id="edge43" class="edge">
<title>Node1&#45;&gt;Node44</title>
<path fill="none" stroke="black" d="M139.55,-996.66C146.12,-875.54 183.24,-238.94 240,-175.5 247.64,-166.96 258.51,-162.08 269.65,-159.39"/>
<polygon fill="black" stroke="black" points="136.05,-996.56 139.01,-1006.73 143.04,-996.93 136.05,-996.56"/>
</g>
<!-- Node49 -->
<g id="Node000049" class="node">
<title>Node49</title>
<g id="a_Node000049"><a xlink:href="group__TIM__TI1__Selection.html" target="_top" xlink:title=" ">
<polygon fill="white" stroke="#666666" points="381.5,-130 253.5,-130 253.5,-111 381.5,-111 381.5,-130"/>
<text text-anchor="middle" x="317.5" y="-118" font-family="Helvetica,sans-Serif" font-size="10.00">TIM TI1 Input Selection</text>
</a>
</g>
</g>
<!-- Node1&#45;&gt;Node49 -->
<g id="edge48" class="edge">
<title>Node1&#45;&gt;Node49</title>
<path fill="none" stroke="black" d="M139.45,-996.57C145.54,-872.15 180.82,-204.98 240,-138.5 243.81,-134.22 248.43,-130.86 253.49,-128.23"/>
<polygon fill="black" stroke="black" points="135.94,-996.73 138.95,-1006.88 142.93,-997.06 135.94,-996.73"/>
</g>
<!-- Node47 -->
<g id="Node000047" class="node">
<title>Node47</title>
<g id="a_Node000047"><a xlink:href="group__TIM__Trigger__Polarity.html" target="_top" xlink:title=" ">
<polygon fill="white" stroke="#666666" points="373,-93 262,-93 262,-74 373,-74 373,-93"/>
<text text-anchor="middle" x="317.5" y="-81" font-family="Helvetica,sans-Serif" font-size="10.00">TIM Trigger Polarity</text>
</a>
</g>
</g>
<!-- Node1&#45;&gt;Node47 -->
<g id="edge46" class="edge">
<title>Node1&#45;&gt;Node47</title>
<path fill="none" stroke="black" d="M139.35,-996.53C144.97,-868.94 178.39,-171.03 240,-101.5 245.79,-94.96 253.47,-90.57 261.73,-87.66"/>
<polygon fill="black" stroke="black" points="135.84,-996.63 138.91,-1006.77 142.84,-996.94 135.84,-996.63"/>
</g>
<!-- Node48 -->
<g id="Node000048" class="node">
<title>Node48</title>
<g id="a_Node000048"><a xlink:href="group__TIM__Trigger__Prescaler.html" target="_top" xlink:title=" ">
<polygon fill="white" stroke="#666666" points="377,-56 258,-56 258,-37 377,-37 377,-56"/>
<text text-anchor="middle" x="317.5" y="-44" font-family="Helvetica,sans-Serif" font-size="10.00">TIM Trigger Prescaler</text>
</a>
</g>
</g>
<!-- Node1&#45;&gt;Node48 -->
<g id="edge47" class="edge">
<title>Node1&#45;&gt;Node48</title>
<path fill="none" stroke="black" d="M139.25,-996.94C144.35,-867.49 175.89,-137.17 240,-64.5 244.87,-58.98 251.1,-54.98 257.88,-52.12"/>
<polygon fill="black" stroke="black" points="135.75,-996.85 138.86,-1006.98 142.74,-997.13 135.75,-996.85"/>
</g>
<!-- Node46 -->
<g id="Node000046" class="node">
<title>Node46</title>
<g id="a_Node000046"><a xlink:href="group__TIM__Trigger__Selection.html" target="_top" xlink:title=" ">
<polygon fill="white" stroke="#666666" points="377,-19 258,-19 258,0 377,0 377,-19"/>
<text text-anchor="middle" x="317.5" y="-7" font-family="Helvetica,sans-Serif" font-size="10.00">TIM Trigger Selection</text>
</a>
</g>
</g>
<!-- Node1&#45;&gt;Node46 -->
<g id="edge45" class="edge">
<title>Node1&#45;&gt;Node46</title>
<path fill="none" stroke="black" d="M139.18,-996.6C143.88,-863.3 173.5,-103.17 240,-27.5 244.86,-21.97 251.08,-17.97 257.86,-15.1"/>
<polygon fill="black" stroke="black" points="135.67,-996.8 138.82,-1006.92 142.66,-997.05 135.67,-996.8"/>
</g>
</g>
</svg>
