<?xml version="1.0" encoding="UTF-8" standalone="no"?>
<!DOCTYPE svg PUBLIC "-//W3C//DTD SVG 1.1//EN"
 "http://www.w3.org/Graphics/SVG/1.1/DTD/svg11.dtd">
<!-- Generated by graphviz version 2.43.0 (0)
 -->
<!-- Title: RTCEx Exported Constants Pages: 1 -->
<!--zoomable 824 -->

<svg id="main" version="1.1" xmlns="http://www.w3.org/2000/svg" xmlns:xlink="http://www.w3.org/1999/xlink" xml:space="preserve" onload="init(evt)">

<style type="text/css"><![CDATA[
.node, .edge {opacity: 0.7;}
.node.selected, .edge.selected {opacity: 1;}
.edge:hover path { stroke: red; }
.edge:hover polygon { stroke: red; fill: red; }
]]></style>

<defs>
  <circle id="rim" cx="0" cy="0" r="7"/>
  <circle id="rim2" cx="0" cy="0" r="3.5"/>
  <g id="zoomPlus">
    <use xlink:href="#rim" fill="#404040"><set attributeName="fill" to="#808080" begin="zoomplus.mouseover" end="zoomplus.mouseout"/></use>
    <path d="M-4,0h8M0,-4v8" fill="none" stroke="white" stroke-width="1.5" pointer-events="none"/>
  </g>
  <g id="zoomMin">
    <use xlink:href="#rim" fill="#404040"><set attributeName="fill" to="#808080" begin="zoomminus.mouseover" end="zoomminus.mouseout"/></use>
    <path d="M-4,0h8" fill="none" stroke="white" stroke-width="1.5" pointer-events="none"/>
  </g>
  <g id="arrowUp" transform="translate(30 24)">
    <use xlink:href="#rim"/>
    <path pointer-events="none" fill="none" stroke="white" stroke-width="1.5" d="M0,-3.0v7 M-2.5,-0.5L0,-3.0L2.5,-0.5"/>
  </g>
  <g id="arrowRight" transform="rotate(90) translate(36 -43)">
    <use xlink:href="#rim"/>
    <path pointer-events="none" fill="none" stroke="white" stroke-width="1.5" d="M0,-3.0v7 M-2.5,-0.5L0,-3.0L2.5,-0.5"/>
  </g>
  <g id="arrowDown" transform="rotate(180) translate(-30 -48)">
    <use xlink:href="#rim"/>
    <path pointer-events="none" fill="none" stroke="white" stroke-width="1.5" d="M0,-3.0v7 M-2.5,-0.5L0,-3.0L2.5,-0.5"/>
  </g>
  <g id="arrowLeft" transform="rotate(270) translate(-36 17)">
    <use xlink:href="#rim"/>
    <path pointer-events="none" fill="none" stroke="white" stroke-width="1.5" d="M0,-3.0v7 M-2.5,-0.5L0,-3.0L2.5,-0.5"/>
  </g>
  <g id="resetDef">
    <use xlink:href="#rim2" fill="#404040"><set attributeName="fill" to="#808080" begin="reset.mouseover" end="reset.mouseout"/></use>
  </g>
</defs>
<script type="application/ecmascript">
var viewWidth = 450;
var viewHeight = 824;
var sectionId = 'dynsection-0';
</script>
<script type="application/ecmascript" xlink:href="svg.min.js"/>
<svg id="graph" class="graph">
<g id="viewport">
<title>RTCEx Exported Constants</title>
<!-- Node2 -->
<g id="Node000002" class="node">
<title>Node2</title>
<g id="a_Node000002"><a xlink:href="group__RTCEx.html" target="_top" xlink:title="RTC Extended HAL module driver.">
<polygon fill="white" stroke="#666666" points="47,-409.5 0,-409.5 0,-390.5 47,-390.5 47,-409.5"/>
<text text-anchor="middle" x="23.5" y="-397.5" font-family="Helvetica,sans-Serif" font-size="10.00">RTCEx</text>
</a>
</g>
</g>
<!-- Node1 -->
<g id="Node000001" class="node">
<title>Node1</title>
<g id="a_Node000001"><a xlink:title=" ">
<polygon fill="#999999" stroke="#666666" points="228,-409.5 83,-409.5 83,-390.5 228,-390.5 228,-409.5"/>
<text text-anchor="middle" x="155.5" y="-397.5" font-family="Helvetica,sans-Serif" font-size="10.00">RTCEx Exported Constants</text>
</a>
</g>
</g>
<!-- Node2&#45;&gt;Node1 -->
<g id="edge1" class="edge">
<title>Node2&#45;&gt;Node1</title>
<path fill="none" stroke="black" d="M57.35,-400C65.26,-400 74.03,-400 82.96,-400"/>
<polygon fill="black" stroke="black" points="57.14,-396.5 47.14,-400 57.14,-403.5 57.14,-396.5"/>
</g>
<!-- Node19 -->
<g id="Node000019" class="node">
<title>Node19</title>
<g id="a_Node000019"><a xlink:href="group__RTCEx__Add__1__Second__Parameter__Definitions.html" target="_top" xlink:title=" ">
<polygon fill="white" stroke="#666666" points="415.5,-816 290.5,-816 290.5,-786 415.5,-786 415.5,-816"/>
<text text-anchor="start" x="298.5" y="-804" font-family="Helvetica,sans-Serif" font-size="10.00">RTCEx Add 1 Second</text>
<text text-anchor="middle" x="353" y="-793" font-family="Helvetica,sans-Serif" font-size="10.00"> Parameter Definitions</text>
</a>
</g>
</g>
<!-- Node3 -->
<g id="Node000003" class="node">
<title>Node3</title>
<g id="a_Node000003"><a xlink:href="group__RTCEx__Backup__Registers__Definitions.html" target="_top" xlink:title=" ">
<polygon fill="white" stroke="#666666" points="420,-768 286,-768 286,-738 420,-738 420,-768"/>
<text text-anchor="start" x="294" y="-756" font-family="Helvetica,sans-Serif" font-size="10.00">RTCEx Backup Registers</text>
<text text-anchor="middle" x="353" y="-745" font-family="Helvetica,sans-Serif" font-size="10.00"> Definitions</text>
</a>
</g>
</g>
<!-- Node20 -->
<g id="Node000020" class="node">
<title>Node20</title>
<g id="a_Node000020"><a xlink:href="group__RTCEx__Calib__Output__selection__Definitions.html" target="_top" xlink:title=" ">
<polygon fill="white" stroke="#666666" points="413,-720 293,-720 293,-690 413,-690 413,-720"/>
<text text-anchor="start" x="301" y="-708" font-family="Helvetica,sans-Serif" font-size="10.00">RTCEx Calib Output</text>
<text text-anchor="middle" x="353" y="-697" font-family="Helvetica,sans-Serif" font-size="10.00"> Selection Definitions</text>
</a>
</g>
</g>
<!-- Node16 -->
<g id="Node000016" class="node">
<title>Node16</title>
<g id="a_Node000016"><a xlink:href="group__RTCEx__Coarse__Calibration__Definitions.html" target="_top" xlink:title=" ">
<polygon fill="white" stroke="#666666" points="408.5,-672 297.5,-672 297.5,-642 408.5,-642 408.5,-672"/>
<text text-anchor="start" x="305.5" y="-660" font-family="Helvetica,sans-Serif" font-size="10.00">RTCEx Coarse Calib</text>
<text text-anchor="middle" x="353" y="-649" font-family="Helvetica,sans-Serif" font-size="10.00"> Definitions</text>
</a>
</g>
</g>
<!-- Node1&#45;&gt;Node19 -->
<g id="edge18" class="edge">
<title>Node1&#45;&gt;Node19</title>
<path fill="none" stroke="black" d="M155.85,-419.9C154.96,-482.16 161.01,-675.19 264,-777 271.32,-784.24 280.6,-789.35 290.36,-792.94"/>
<polygon fill="black" stroke="black" points="159.36,-419.62 156.09,-409.55 152.36,-419.47 159.36,-419.62"/>
</g>
<!-- Node1&#45;&gt;Node3 -->
<g id="edge2" class="edge">
<title>Node1&#45;&gt;Node3</title>
<path fill="none" stroke="black" d="M156.82,-419.98C158.87,-477.04 172.78,-642.19 264,-729 270.19,-734.9 277.69,-739.37 285.67,-742.76"/>
<polygon fill="black" stroke="black" points="160.32,-419.69 156.55,-409.79 153.32,-419.88 160.32,-419.69"/>
</g>
<!-- Node1&#45;&gt;Node20 -->
<g id="edge19" class="edge">
<title>Node1&#45;&gt;Node20</title>
<path fill="none" stroke="black" d="M158.08,-419.76C163.25,-470.93 184.27,-608.8 264,-681 272.1,-688.33 282.23,-693.46 292.7,-697.03"/>
<polygon fill="black" stroke="black" points="161.55,-419.34 157.16,-409.7 154.58,-419.98 161.55,-419.34"/>
</g>
<!-- Node1&#45;&gt;Node16 -->
<g id="edge15" class="edge">
<title>Node1&#45;&gt;Node16</title>
<path fill="none" stroke="black" d="M159.79,-419.65C168.37,-464.54 195.66,-575.16 264,-633 273.43,-640.98 285.28,-646.33 297.2,-649.9"/>
<polygon fill="black" stroke="black" points="163.22,-418.95 158,-409.73 156.33,-420.19 163.22,-418.95"/>
</g>
<!-- Node18 -->
<g id="Node000018" class="node">
<title>Node18</title>
<g id="a_Node000018"><a xlink:href="group__RTCEx__Smooth__calib__Plus__pulses__Definitions.html" target="_top" xlink:title=" ">
<polygon fill="white" stroke="#666666" points="418,-624 288,-624 288,-594 418,-594 418,-624"/>
<text text-anchor="start" x="296" y="-612" font-family="Helvetica,sans-Serif" font-size="10.00">RTCEx Smooth Calib</text>
<text text-anchor="middle" x="353" y="-601" font-family="Helvetica,sans-Serif" font-size="10.00"> Plus Pulses Definitions</text>
</a>
</g>
</g>
<!-- Node1&#45;&gt;Node18 -->
<g id="edge17" class="edge">
<title>Node1&#45;&gt;Node18</title>
<path fill="none" stroke="black" d="M162.33,-419.65C174.63,-457.6 206.9,-541.11 264,-585 271.03,-590.4 279.2,-594.59 287.66,-597.84"/>
<polygon fill="black" stroke="black" points="165.59,-418.33 159.27,-409.82 158.91,-420.41 165.59,-418.33"/>
</g>
<!-- Node17 -->
<g id="Node000017" class="node">
<title>Node17</title>
<g id="a_Node000017"><a xlink:href="group__RTCEx__Smooth__calib__period__Definitions.html" target="_top" xlink:title=" ">
<polygon fill="white" stroke="#666666" points="410.5,-576 295.5,-576 295.5,-546 410.5,-546 410.5,-576"/>
<text text-anchor="start" x="303.5" y="-564" font-family="Helvetica,sans-Serif" font-size="10.00">RTCEx Smooth Calib</text>
<text text-anchor="middle" x="353" y="-553" font-family="Helvetica,sans-Serif" font-size="10.00"> Period Definitions</text>
</a>
</g>
</g>
<!-- Node1&#45;&gt;Node17 -->
<g id="edge16" class="edge">
<title>Node1&#45;&gt;Node17</title>
<path fill="none" stroke="black" d="M165.95,-418.59C181.98,-448.25 217.38,-506.06 264,-537 273.37,-543.22 284.31,-547.83 295.23,-551.25"/>
<polygon fill="black" stroke="black" points="169.02,-416.92 161.26,-409.7 162.82,-420.18 169.02,-416.92"/>
</g>
<!-- Node10 -->
<g id="Node000010" class="node">
<title>Node10</title>
<g id="a_Node000010"><a xlink:href="group__RTCEx__Tamper__Filter__Definitions.html" target="_top" xlink:title=" ">
<polygon fill="white" stroke="#666666" points="409.5,-528 296.5,-528 296.5,-498 409.5,-498 409.5,-528"/>
<text text-anchor="start" x="304.5" y="-516" font-family="Helvetica,sans-Serif" font-size="10.00">RTCEx Tamper Filter</text>
<text text-anchor="middle" x="353" y="-505" font-family="Helvetica,sans-Serif" font-size="10.00"> Definitions</text>
</a>
</g>
</g>
<!-- Node1&#45;&gt;Node10 -->
<g id="edge9" class="edge">
<title>Node1&#45;&gt;Node10</title>
<path fill="none" stroke="black" d="M172.24,-416.82C191.87,-436.85 227.36,-469.98 264,-489 273.98,-494.18 285.19,-498.33 296.19,-501.63"/>
<polygon fill="black" stroke="black" points="174.74,-414.38 165.29,-409.6 169.7,-419.23 174.74,-414.38"/>
</g>
<!-- Node8 -->
<g id="Node000008" class="node">
<title>Node8</title>
<g id="a_Node000008"><a xlink:href="group__RTCEx__Tamper__Interrupt__Definitions.html" target="_top" xlink:title=" ">
<polygon fill="white" stroke="#666666" points="418.5,-480 287.5,-480 287.5,-450 418.5,-450 418.5,-480"/>
<text text-anchor="start" x="295.5" y="-468" font-family="Helvetica,sans-Serif" font-size="10.00">RTCEx Tamper Interrupt</text>
<text text-anchor="middle" x="353" y="-457" font-family="Helvetica,sans-Serif" font-size="10.00"> Definitions</text>
</a>
</g>
</g>
<!-- Node1&#45;&gt;Node8 -->
<g id="edge7" class="edge">
<title>Node1&#45;&gt;Node8</title>
<path fill="none" stroke="black" d="M189.23,-413.44C210.37,-421.89 238.59,-432.71 264,-441 273.48,-444.09 283.63,-447.12 293.54,-449.92"/>
<polygon fill="black" stroke="black" points="190.33,-410.11 179.75,-409.63 187.72,-416.61 190.33,-410.11"/>
</g>
<!-- Node6 -->
<g id="Node000006" class="node">
<title>Node6</title>
<g id="a_Node000006"><a xlink:href="group__RTCEx__Tamper__Pin__Definitions.html" target="_top" xlink:title=" ">
<polygon fill="white" stroke="#666666" points="435,-431.5 271,-431.5 271,-412.5 435,-412.5 435,-431.5"/>
<text text-anchor="middle" x="353" y="-419.5" font-family="Helvetica,sans-Serif" font-size="10.00">RTCEx Tamper Pins Definitions</text>
</a>
</g>
</g>
<!-- Node1&#45;&gt;Node6 -->
<g id="edge5" class="edge">
<title>Node1&#45;&gt;Node6</title>
<path fill="none" stroke="black" d="M238.36,-409.21C249.07,-410.42 260.04,-411.65 270.74,-412.86"/>
<polygon fill="black" stroke="black" points="238.52,-405.71 228.19,-408.07 237.73,-412.66 238.52,-405.71"/>
</g>
<!-- Node12 -->
<g id="Node000012" class="node">
<title>Node12</title>
<g id="a_Node000012"><a xlink:href="group__RTCEx__Tamper__Pin__Precharge__Duration__Definitions.html" target="_top" xlink:title=" ">
<polygon fill="white" stroke="#666666" points="430.5,-394 275.5,-394 275.5,-364 430.5,-364 430.5,-394"/>
<text text-anchor="start" x="283.5" y="-382" font-family="Helvetica,sans-Serif" font-size="10.00">RTCEx Tamper Pin Precharge</text>
<text text-anchor="middle" x="353" y="-371" font-family="Helvetica,sans-Serif" font-size="10.00"> Duration Definitions</text>
</a>
</g>
</g>
<!-- Node1&#45;&gt;Node12 -->
<g id="edge11" class="edge">
<title>Node1&#45;&gt;Node12</title>
<path fill="none" stroke="black" d="M238.39,-391.2C250.64,-389.89 263.25,-388.53 275.39,-387.23"/>
<polygon fill="black" stroke="black" points="237.76,-387.75 228.19,-392.3 238.5,-394.71 237.76,-387.75"/>
</g>
<!-- Node7 -->
<g id="Node000007" class="node">
<title>Node7</title>
<g id="a_Node000007"><a xlink:href="group__RTCEx__Tamper__Pin__Selection.html" target="_top" xlink:title=" ">
<polygon fill="white" stroke="#666666" points="425,-345.5 281,-345.5 281,-326.5 425,-326.5 425,-345.5"/>
<text text-anchor="middle" x="353" y="-333.5" font-family="Helvetica,sans-Serif" font-size="10.00">RTC tamper Pins Selection</text>
</a>
</g>
</g>
<!-- Node1&#45;&gt;Node7 -->
<g id="edge6" class="edge">
<title>Node1&#45;&gt;Node7</title>
<path fill="none" stroke="black" d="M185.45,-386.17C206.79,-376.4 236.72,-363.58 264,-355 275.48,-351.39 288.02,-348.23 299.93,-345.58"/>
<polygon fill="black" stroke="black" points="183.9,-383.03 176.3,-390.41 186.84,-389.38 183.9,-383.03"/>
</g>
<!-- Node13 -->
<g id="Node000013" class="node">
<title>Node13</title>
<g id="a_Node000013"><a xlink:href="group__RTCEx__Tamper__Pull__Up__Definitions.html" target="_top" xlink:title=" ">
<polygon fill="white" stroke="#666666" points="414.5,-308 291.5,-308 291.5,-278 414.5,-278 414.5,-308"/>
<text text-anchor="start" x="299.5" y="-296" font-family="Helvetica,sans-Serif" font-size="10.00">RTCEx Tamper Pull Up</text>
<text text-anchor="middle" x="353" y="-285" font-family="Helvetica,sans-Serif" font-size="10.00"> Definitions</text>
</a>
</g>
</g>
<!-- Node1&#45;&gt;Node13 -->
<g id="edge12" class="edge">
<title>Node1&#45;&gt;Node13</title>
<path fill="none" stroke="black" d="M173.74,-383.52C193.88,-365.1 228.95,-335.55 264,-318 272.52,-313.73 281.88,-310.09 291.22,-307.02"/>
<polygon fill="black" stroke="black" points="171.24,-381.07 166.3,-390.44 176,-386.19 171.24,-381.07"/>
</g>
<!-- Node11 -->
<g id="Node000011" class="node">
<title>Node11</title>
<g id="a_Node000011"><a xlink:href="group__RTCEx__Tamper__Sampling__Frequencies__Definitions.html" target="_top" xlink:title=" ">
<polygon fill="white" stroke="#666666" points="420,-260 286,-260 286,-230 420,-230 420,-260"/>
<text text-anchor="start" x="294" y="-248" font-family="Helvetica,sans-Serif" font-size="10.00">RTCEx Tamper Sampling</text>
<text text-anchor="middle" x="353" y="-237" font-family="Helvetica,sans-Serif" font-size="10.00"> Frequencies Definitions</text>
</a>
</g>
</g>
<!-- Node1&#45;&gt;Node11 -->
<g id="edge10" class="edge">
<title>Node1&#45;&gt;Node11</title>
<path fill="none" stroke="black" d="M166.61,-381.44C183.15,-352.86 218.72,-298.34 264,-269 270.64,-264.69 278.05,-261.16 285.67,-258.25"/>
<polygon fill="black" stroke="black" points="163.44,-379.95 161.57,-390.38 169.53,-383.39 163.44,-379.95"/>
</g>
<!-- Node14 -->
<g id="Node000014" class="node">
<title>Node14</title>
<g id="a_Node000014"><a xlink:href="group__RTCEx__Tamper__TimeStampOnTamperDetection__Definitions.html" target="_top" xlink:title=" ">
<polygon fill="white" stroke="#666666" points="442,-212 264,-212 264,-182 442,-182 442,-212"/>
<text text-anchor="start" x="272" y="-200" font-family="Helvetica,sans-Serif" font-size="10.00">RTCEx Tamper TimeStamp</text>
<text text-anchor="middle" x="353" y="-189" font-family="Helvetica,sans-Serif" font-size="10.00"> On Tamper Detection Definitions</text>
</a>
</g>
</g>
<!-- Node1&#45;&gt;Node14 -->
<g id="edge13" class="edge">
<title>Node1&#45;&gt;Node14</title>
<path fill="none" stroke="black" d="M162.52,-380.98C175.15,-344.25 207.97,-263.42 264,-221 268.54,-217.56 273.55,-214.61 278.8,-212.08"/>
<polygon fill="black" stroke="black" points="159.2,-379.9 159.37,-390.49 165.84,-382.1 159.2,-379.9"/>
</g>
<!-- Node9 -->
<g id="Node000009" class="node">
<title>Node9</title>
<g id="a_Node000009"><a xlink:href="group__RTCEx__Tamper__Trigger__Definitions.html" target="_top" xlink:title=" ">
<polygon fill="white" stroke="#666666" points="416.5,-164 289.5,-164 289.5,-134 416.5,-134 416.5,-164"/>
<text text-anchor="start" x="297.5" y="-152" font-family="Helvetica,sans-Serif" font-size="10.00">RTCEx Tamper Triggers</text>
<text text-anchor="middle" x="353" y="-141" font-family="Helvetica,sans-Serif" font-size="10.00"> Definitions</text>
</a>
</g>
</g>
<!-- Node1&#45;&gt;Node9 -->
<g id="edge8" class="edge">
<title>Node1&#45;&gt;Node9</title>
<path fill="none" stroke="black" d="M160.14,-379.96C169.25,-335.65 197.28,-228.9 264,-173 271.4,-166.8 280.28,-162.19 289.5,-158.76"/>
<polygon fill="black" stroke="black" points="156.65,-379.55 158.17,-390.03 163.52,-380.88 156.65,-379.55"/>
</g>
<!-- Node4 -->
<g id="Node000004" class="node">
<title>Node4</title>
<g id="a_Node000004"><a xlink:href="group__RTCEx__Timestamp__Edges__Definitions.html" target="_top" xlink:title=" ">
<polygon fill="white" stroke="#666666" points="421.5,-116 284.5,-116 284.5,-86 421.5,-86 421.5,-116"/>
<text text-anchor="start" x="292.5" y="-104" font-family="Helvetica,sans-Serif" font-size="10.00">RTCEx Timestamp Edges</text>
<text text-anchor="middle" x="353" y="-93" font-family="Helvetica,sans-Serif" font-size="10.00"> Definitions</text>
</a>
</g>
</g>
<!-- Node1&#45;&gt;Node4 -->
<g id="edge3" class="edge">
<title>Node1&#45;&gt;Node4</title>
<path fill="none" stroke="black" d="M158.25,-380.33C163.82,-329.98 185.66,-195.42 264,-125 269.89,-119.71 276.83,-115.57 284.2,-112.33"/>
<polygon fill="black" stroke="black" points="154.75,-380.2 157.23,-390.5 161.71,-380.9 154.75,-380.2"/>
</g>
<!-- Node5 -->
<g id="Node000005" class="node">
<title>Node5</title>
<g id="a_Node000005"><a xlink:href="group__RTCEx__Timestamp__Pin__Selection.html" target="_top" xlink:title=" ">
<polygon fill="white" stroke="#666666" points="432.5,-67.5 273.5,-67.5 273.5,-48.5 432.5,-48.5 432.5,-67.5"/>
<text text-anchor="middle" x="353" y="-55.5" font-family="Helvetica,sans-Serif" font-size="10.00">RTC Timestamp Pin Selection</text>
</a>
</g>
</g>
<!-- Node1&#45;&gt;Node5 -->
<g id="edge4" class="edge">
<title>Node1&#45;&gt;Node5</title>
<path fill="none" stroke="black" d="M156.73,-380.13C158.51,-323.45 171.8,-159.69 264,-77 268.19,-73.24 272.94,-70.17 278.01,-67.65"/>
<polygon fill="black" stroke="black" points="153.22,-380.19 156.5,-390.26 160.22,-380.35 153.22,-380.19"/>
</g>
<!-- Node15 -->
<g id="Node000015" class="node">
<title>Node15</title>
<g id="a_Node000015"><a xlink:href="group__RTCEx__Wakeup__Timer__Definitions.html" target="_top" xlink:title=" ">
<polygon fill="white" stroke="#666666" points="412.5,-30 293.5,-30 293.5,0 412.5,0 412.5,-30"/>
<text text-anchor="start" x="301.5" y="-18" font-family="Helvetica,sans-Serif" font-size="10.00">RTCEx Wakeup Timer</text>
<text text-anchor="middle" x="353" y="-7" font-family="Helvetica,sans-Serif" font-size="10.00"> Definitions</text>
</a>
</g>
</g>
<!-- Node1&#45;&gt;Node15 -->
<g id="edge14" class="edge">
<title>Node1&#45;&gt;Node15</title>
<path fill="none" stroke="black" d="M156.21,-380.23C156.45,-320.01 165.64,-137.05 264,-40 272.03,-32.08 282.37,-26.63 293.13,-22.89"/>
<polygon fill="black" stroke="black" points="152.71,-380.3 156.26,-390.29 159.71,-380.27 152.71,-380.3"/>
</g>
</g>
</svg>

<g id="navigator" transform="translate(0 0)" fill="#404254">
  <rect fill="#f2f5e9" fill-opacity="0.5" stroke="#606060" stroke-width=".5" x="0" y="0" width="60" height="60"/>
  <use id="zoomplus" xlink:href="#zoomPlus" x="17" y="9" onmousedown="handleZoom(evt,'in')"/>
  <use id="zoomminus" xlink:href="#zoomMin" x="42" y="9" onmousedown="handleZoom(evt,'out')"/>
  <use id="reset" xlink:href="#resetDef" x="30" y="36" onmousedown="handleReset()"/>
   <use id="arrowup" xlink:href="#arrowUp" x="0" y="0" onmousedown="handlePan(0,-1)"/>
  <use id="arrowright" xlink:href="#arrowRight" x="0" y="0" onmousedown="handlePan(1,0)"/>
  <use id="arrowdown" xlink:href="#arrowDown" x="0" y="0" onmousedown="handlePan(0,1)"/>
  <use id="arrowleft" xlink:href="#arrowLeft" x="0" y="0" onmousedown="handlePan(-1,0)"/>
</g>
<svg viewBox="0 0 15 15" width="100%" height="30px" preserveAspectRatio="xMaxYMin meet">
 <g id="arrow_out" transform="scale(0.3 0.3)">
  <a xlink:href="group__RTCEx__Exported__Constants_org.svg" target="_base">
   <rect id="button" ry="5" rx="5" y="6" x="6" height="38" width="38"
        fill="#f2f5e9" fill-opacity="0.5" stroke="#606060" stroke-width="1.0"/>
   <path id="arrow"
     d="M 11.500037,31.436501 C 11.940474,20.09759 22.043105,11.32322 32.158766,21.979434 L 37.068811,17.246167 C 37.068811,17.246167 37.088388,32 37.088388,32 L 22.160133,31.978069 C 22.160133,31.978069 26.997745,27.140456 26.997745,27.140456 C 18.528582,18.264221 13.291696,25.230495 11.500037,31.436501 z"
     style="fill:#404040;"/>
  </a>
 </g>
</svg>

<style type='text/css'>
<![CDATA[
[data-mouse-over-selected='false'] { opacity: 0.7; }
[data-mouse-over-selected='true']  { opacity: 1.0; }
]]>
</style>
<script type="application/ecmascript"><![CDATA[
document.addEventListener('DOMContentLoaded', (event) => {
  highlightEdges();
  highlightAdjacentNodes();
});
]]></script>
</svg>
