<?xml version="1.0" encoding="UTF-8" standalone="no"?>
<!DOCTYPE svg PUBLIC "-//W3C//DTD SVG 1.1//EN"
 "http://www.w3.org/Graphics/SVG/1.1/DTD/svg11.dtd">
<!-- Generated by graphviz version 2.43.0 (0)
 -->
<!-- Title: FMC Low Layer Exported Constants Pages: 1 -->
<svg width="407pt" height="86pt"
 viewBox="0.00 0.00 407.00 86.00" xmlns="http://www.w3.org/2000/svg" xmlns:xlink="http://www.w3.org/1999/xlink">

<svg id="main" version="1.1" xmlns="http://www.w3.org/2000/svg" xmlns:xlink="http://www.w3.org/1999/xlink" xml:space="preserve">

<style type="text/css"><![CDATA[
.node, .edge {opacity: 0.7;}
.node.selected, .edge.selected {opacity: 1;}
.edge:hover path { stroke: red; }
.edge:hover polygon { stroke: red; fill: red; }
]]></style>
<script type="application/ecmascript" xlink:href="svg.min.js"/>
<svg id="graph" class="graph">
<g id="graph0" class="graph" transform="scale(1 1) rotate(0) translate(4 82)">
<title>FMC Low Layer Exported Constants</title>
<!-- Node2 -->
<g id="Node000002" class="node">
<title>Node2</title>
<g id="a_Node000002"><a xlink:href="group__FMC__LL.html" target="_top" xlink:title=" ">
<polygon fill="white" stroke="#666666" points="54,-48.5 0,-48.5 0,-29.5 54,-29.5 54,-48.5"/>
<text text-anchor="middle" x="27" y="-36.5" font-family="Helvetica,sans-Serif" font-size="10.00">FMC_LL</text>
</a>
</g>
</g>
<!-- Node1 -->
<g id="Node000001" class="node">
<title>Node1</title>
<g id="a_Node000001"><a xlink:title=" ">
<polygon fill="#999999" stroke="#666666" points="227,-54 90,-54 90,-24 227,-24 227,-54"/>
<text text-anchor="start" x="98" y="-42" font-family="Helvetica,sans-Serif" font-size="10.00">FMC Low Layer Exported</text>
<text text-anchor="middle" x="158.5" y="-31" font-family="Helvetica,sans-Serif" font-size="10.00"> Constants</text>
</a>
</g>
</g>
<!-- Node2&#45;&gt;Node1 -->
<g id="edge1" class="edge">
<title>Node2&#45;&gt;Node1</title>
<path fill="none" stroke="black" d="M64.26,-39C72.27,-39 81,-39 89.81,-39"/>
<polygon fill="black" stroke="black" points="64.21,-35.5 54.21,-39 64.21,-42.5 64.21,-35.5"/>
</g>
<!-- Node4 -->
<g id="Node000004" class="node">
<title>Node4</title>
<g id="a_Node000004"><a xlink:href="group__FMC__LL__Flag__definition.html" target="_top" xlink:title=" ">
<polygon fill="white" stroke="#666666" points="388.5,-78 273.5,-78 273.5,-48 388.5,-48 388.5,-78"/>
<text text-anchor="start" x="281.5" y="-66" font-family="Helvetica,sans-Serif" font-size="10.00">FMC Low Layer Flag</text>
<text text-anchor="middle" x="331" y="-55" font-family="Helvetica,sans-Serif" font-size="10.00"> definition</text>
</a>
</g>
</g>
<!-- Node1&#45;&gt;Node4 -->
<g id="edge3" class="edge">
<title>Node1&#45;&gt;Node4</title>
<path fill="none" stroke="black" d="M237.46,-49.97C249.55,-51.68 261.83,-53.4 273.33,-55.02"/>
<polygon fill="black" stroke="black" points="237.77,-46.48 227.38,-48.55 236.79,-53.41 237.77,-46.48"/>
</g>
<!-- Node3 -->
<g id="Node000003" class="node">
<title>Node3</title>
<g id="a_Node000003"><a xlink:href="group__FMC__LL__Interrupt__definition.html" target="_top" xlink:title=" ">
<polygon fill="white" stroke="#666666" points="399,-30 263,-30 263,0 399,0 399,-30"/>
<text text-anchor="start" x="271" y="-18" font-family="Helvetica,sans-Serif" font-size="10.00">FMC Low Layer Interrupt</text>
<text text-anchor="middle" x="331" y="-7" font-family="Helvetica,sans-Serif" font-size="10.00"> definition</text>
</a>
</g>
</g>
<!-- Node1&#45;&gt;Node3 -->
<g id="edge2" class="edge">
<title>Node1&#45;&gt;Node3</title>
<path fill="none" stroke="black" d="M237.34,-28.04C245.88,-26.84 254.52,-25.62 262.91,-24.44"/>
<polygon fill="black" stroke="black" points="236.79,-24.59 227.38,-29.45 237.77,-31.52 236.79,-24.59"/>
</g>
</g>
</svg>
</svg>

<style type='text/css'>
<![CDATA[
[data-mouse-over-selected='false'] { opacity: 0.7; }
[data-mouse-over-selected='true']  { opacity: 1.0; }
]]>
</style>
<script type="application/ecmascript"><![CDATA[
document.addEventListener('DOMContentLoaded', (event) => {
  highlightEdges();
  highlightAdjacentNodes();
});
]]></script>
</svg>
