<?xml version="1.0" encoding="UTF-8" standalone="no"?>
<!DOCTYPE svg PUBLIC "-//W3C//DTD SVG 1.1//EN"
 "http://www.w3.org/Graphics/SVG/1.1/DTD/svg11.dtd">
<!-- Generated by graphviz version 2.43.0 (0)
 -->
<!-- Title: RTCEx Exported Functions Pages: 1 -->
<svg width="417pt" height="182pt"
 viewBox="0.00 0.00 417.00 182.00" xmlns="http://www.w3.org/2000/svg" xmlns:xlink="http://www.w3.org/1999/xlink">
<g id="graph0" class="graph" transform="scale(1 1) rotate(0) translate(4 178)">
<title>RTCEx Exported Functions</title>
<!-- Node2 -->
<g id="Node000002" class="node">
<title>Node2</title>
<g id="a_Node000002"><a xlink:href="group__RTCEx.html" target="_top" xlink:title="RTC Extended HAL module driver.">
<polygon fill="white" stroke="#666666" points="47,-96.5 0,-96.5 0,-77.5 47,-77.5 47,-96.5"/>
<text text-anchor="middle" x="23.5" y="-84.5" font-family="Helvetica,sans-Serif" font-size="10.00">RTCEx</text>
</a>
</g>
</g>
<!-- Node1 -->
<g id="Node000001" class="node">
<title>Node1</title>
<g id="a_Node000001"><a xlink:title=" ">
<polygon fill="#999999" stroke="#666666" points="226,-96.5 83,-96.5 83,-77.5 226,-77.5 226,-96.5"/>
<text text-anchor="middle" x="154.5" y="-84.5" font-family="Helvetica,sans-Serif" font-size="10.00">RTCEx Exported Functions</text>
</a>
</g>
</g>
<!-- Node2&#45;&gt;Node1 -->
<g id="edge1" class="edge">
<title>Node2&#45;&gt;Node1</title>
<path fill="none" stroke="black" d="M57.4,-87C65.26,-87 73.94,-87 82.79,-87"/>
<polygon fill="black" stroke="black" points="57.27,-83.5 47.27,-87 57.27,-90.5 57.27,-83.5"/>
</g>
<!-- Node3 -->
<g id="Node000003" class="node">
<title>Node3</title>
<g id="a_Node000003"><a xlink:href="group__RTCEx__Exported__Functions__Group1.html" target="_top" xlink:title=" ">
<polygon fill="white" stroke="#666666" points="409,-174 262,-174 262,-144 409,-144 409,-174"/>
<text text-anchor="start" x="270" y="-162" font-family="Helvetica,sans-Serif" font-size="10.00">RTCEx_Exported_Functions</text>
<text text-anchor="middle" x="335.5" y="-151" font-family="Helvetica,sans-Serif" font-size="10.00">_Group1</text>
</a>
</g>
</g>
<!-- Node1&#45;&gt;Node3 -->
<g id="edge2" class="edge">
<title>Node1&#45;&gt;Node3</title>
<path fill="none" stroke="black" d="M184.38,-101C205.61,-111.04 235.29,-124.59 262,-135 269.91,-138.08 278.39,-141.12 286.67,-143.95"/>
<polygon fill="black" stroke="black" points="185.79,-97.79 175.26,-96.65 182.78,-104.11 185.79,-97.79"/>
</g>
<!-- Node4 -->
<g id="Node000004" class="node">
<title>Node4</title>
<g id="a_Node000004"><a xlink:href="group__RTCEx__Exported__Functions__Group2.html" target="_top" xlink:title=" ">
<polygon fill="white" stroke="#666666" points="409,-126 262,-126 262,-96 409,-96 409,-126"/>
<text text-anchor="start" x="270" y="-114" font-family="Helvetica,sans-Serif" font-size="10.00">RTCEx_Exported_Functions</text>
<text text-anchor="middle" x="335.5" y="-103" font-family="Helvetica,sans-Serif" font-size="10.00">_Group2</text>
</a>
</g>
</g>
<!-- Node1&#45;&gt;Node4 -->
<g id="edge3" class="edge">
<title>Node1&#45;&gt;Node4</title>
<path fill="none" stroke="black" d="M236.23,-97.82C244.79,-98.97 253.46,-100.13 261.92,-101.27"/>
<polygon fill="black" stroke="black" points="236.62,-94.35 226.25,-96.49 235.69,-101.28 236.62,-94.35"/>
</g>
<!-- Node5 -->
<g id="Node000005" class="node">
<title>Node5</title>
<g id="a_Node000005"><a xlink:href="group__RTCEx__Exported__Functions__Group3.html" target="_top" xlink:title=" ">
<polygon fill="white" stroke="#666666" points="409,-78 262,-78 262,-48 409,-48 409,-78"/>
<text text-anchor="start" x="270" y="-66" font-family="Helvetica,sans-Serif" font-size="10.00">RTCEx_Exported_Functions</text>
<text text-anchor="middle" x="335.5" y="-55" font-family="Helvetica,sans-Serif" font-size="10.00">_Group3</text>
</a>
</g>
</g>
<!-- Node1&#45;&gt;Node5 -->
<g id="edge4" class="edge">
<title>Node1&#45;&gt;Node5</title>
<path fill="none" stroke="black" d="M236.23,-76.18C244.79,-75.03 253.46,-73.87 261.92,-72.73"/>
<polygon fill="black" stroke="black" points="235.69,-72.72 226.25,-77.51 236.62,-79.65 235.69,-72.72"/>
</g>
<!-- Node6 -->
<g id="Node000006" class="node">
<title>Node6</title>
<g id="a_Node000006"><a xlink:href="group__RTCEx__Exported__Functions__Group4.html" target="_top" xlink:title=" ">
<polygon fill="white" stroke="#666666" points="409,-30 262,-30 262,0 409,0 409,-30"/>
<text text-anchor="start" x="270" y="-18" font-family="Helvetica,sans-Serif" font-size="10.00">RTCEx_Exported_Functions</text>
<text text-anchor="middle" x="335.5" y="-7" font-family="Helvetica,sans-Serif" font-size="10.00">_Group4</text>
</a>
</g>
</g>
<!-- Node1&#45;&gt;Node6 -->
<g id="edge5" class="edge">
<title>Node1&#45;&gt;Node6</title>
<path fill="none" stroke="black" d="M184.38,-73C205.61,-62.96 235.29,-49.41 262,-39 269.91,-35.92 278.39,-32.88 286.67,-30.05"/>
<polygon fill="black" stroke="black" points="182.78,-69.89 175.26,-77.35 185.79,-76.21 182.78,-69.89"/>
</g>
</g>
</svg>
