<?xml version="1.0" encoding="UTF-8" standalone="no"?>
<!DOCTYPE svg PUBLIC "-//W3C//DTD SVG 1.1//EN"
 "http://www.w3.org/Graphics/SVG/1.1/DTD/svg11.dtd">
<!-- Generated by graphviz version 12.2.1 (20241206.2353)
 -->
<!-- Title: RTC Pages: 1 -->
<svg width="368pt" height="263pt"
 viewBox="0.00 0.00 368.00 262.75" xmlns="http://www.w3.org/2000/svg" xmlns:xlink="http://www.w3.org/1999/xlink">

<svg id="main" version="1.1" xmlns="http://www.w3.org/2000/svg" xmlns:xlink="http://www.w3.org/1999/xlink" xml:space="preserve">

<style type="text/css"><![CDATA[
.node, .edge {opacity: 0.7;}
.node.selected, .edge.selected {opacity: 1;}
.edge:hover path { stroke: red; }
.edge:hover polygon { stroke: red; fill: red; }
]]></style>
<script type="application/ecmascript" xlink:href="svg.min.js"/>
<svg id="graph" class="graph">
<g id="graph0" class="graph" transform="scale(1 1) rotate(0) translate(4 258.75)">
<title>RTC</title>
<!-- Node1 -->
<g id="Node000001" class="node">
<title>Node1</title>
<g id="a_Node000001"><a xlink:title="RTC HAL module driver.">
<polygon fill="#999999" stroke="#666666" points="193.25,-137.75 158.5,-137.75 158.5,-117 193.25,-117 193.25,-137.75"/>
<text text-anchor="middle" x="175.88" y="-124.25" font-family="Helvetica,sans-Serif" font-size="10.00">RTC</text>
</a>
</g>
</g>
<!-- Node4 -->
<g id="Node000004" class="node">
<title>Node4</title>
<g id="a_Node000004"><a xlink:href="group__RTC__Exported__Constants.html" target="_top" xlink:title=" ">
<polygon fill="white" stroke="#666666" points="358.12,-254.75 231.12,-254.75 231.12,-234 358.12,-234 358.12,-254.75"/>
<text text-anchor="middle" x="294.62" y="-241.25" font-family="Helvetica,sans-Serif" font-size="10.00">RTC Exported Constants</text>
</a>
</g>
</g>
<!-- Node1&#45;&gt;Node4 -->
<g id="edge3" class="edge">
<title>Node1&#45;&gt;Node4</title>
<path fill="none" stroke="black" d="M183.19,-149.04C190.69,-171.07 205.31,-204.68 229.25,-224.38 233.77,-228.09 238.98,-231.12 244.44,-233.59"/>
<polygon fill="black" stroke="black" points="186.55,-148.07 180.2,-139.6 179.88,-150.19 186.55,-148.07"/>
</g>
<!-- Node9 -->
<g id="Node000009" class="node">
<title>Node9</title>
<g id="a_Node000009"><a xlink:href="group__RTC__Exported__Functions.html" target="_top" xlink:title=" ">
<polygon fill="white" stroke="#666666" points="360,-215.75 229.25,-215.75 229.25,-195 360,-195 360,-215.75"/>
<text text-anchor="middle" x="294.62" y="-202.25" font-family="Helvetica,sans-Serif" font-size="10.00">RTC_Exported_Functions</text>
</a>
</g>
</g>
<!-- Node1&#45;&gt;Node9 -->
<g id="edge8" class="edge">
<title>Node1&#45;&gt;Node9</title>
<path fill="none" stroke="black" d="M190.42,-147.19C199.95,-159.75 213.74,-175.46 229.25,-185.38 234.97,-189.03 241.4,-192.06 247.93,-194.55"/>
<polygon fill="black" stroke="black" points="193.32,-145.23 184.63,-139.18 187.65,-149.33 193.32,-145.23"/>
</g>
<!-- Node5 -->
<g id="Node000005" class="node">
<title>Node5</title>
<g id="a_Node000005"><a xlink:href="group__RTC__Exported__Macros.html" target="_top" xlink:title=" ">
<polygon fill="white" stroke="#666666" points="351,-176.75 238.25,-176.75 238.25,-156 351,-156 351,-176.75"/>
<text text-anchor="middle" x="294.62" y="-163.25" font-family="Helvetica,sans-Serif" font-size="10.00">RTC Exported Macros</text>
</a>
</g>
</g>
<!-- Node1&#45;&gt;Node5 -->
<g id="edge4" class="edge">
<title>Node1&#45;&gt;Node5</title>
<path fill="none" stroke="black" d="M204.05,-137.51C212.13,-140.45 221.02,-143.61 229.25,-146.38 238.46,-149.47 248.46,-152.66 257.78,-155.56"/>
<polygon fill="black" stroke="black" points="205.33,-134.25 194.74,-134.09 202.92,-140.82 205.33,-134.25"/>
</g>
<!-- Node3 -->
<g id="Node000003" class="node">
<title>Node3</title>
<g id="a_Node000003"><a xlink:href="group__RTC__Exported__Types.html" target="_top" xlink:title=" ">
<polygon fill="white" stroke="#666666" points="348,-137.75 241.25,-137.75 241.25,-117 348,-117 348,-137.75"/>
<text text-anchor="middle" x="294.62" y="-124.25" font-family="Helvetica,sans-Serif" font-size="10.00">RTC Exported Types</text>
</a>
</g>
</g>
<!-- Node1&#45;&gt;Node3 -->
<g id="edge2" class="edge">
<title>Node1&#45;&gt;Node3</title>
<path fill="none" stroke="black" d="M204.91,-127.38C215.76,-127.38 228.56,-127.38 240.99,-127.38"/>
<polygon fill="black" stroke="black" points="205.12,-123.88 195.12,-127.38 205.12,-130.88 205.12,-123.88"/>
</g>
<!-- Node6 -->
<g id="Node000006" class="node">
<title>Node6</title>
<g id="a_Node000006"><a xlink:href="group__RTC__Private__Constants.html" target="_top" xlink:title=" ">
<polygon fill="white" stroke="#666666" points="352.88,-98.75 236.38,-98.75 236.38,-78 352.88,-78 352.88,-98.75"/>
<text text-anchor="middle" x="294.62" y="-85.25" font-family="Helvetica,sans-Serif" font-size="10.00">RTC Private Constants</text>
</a>
</g>
</g>
<!-- Node1&#45;&gt;Node6 -->
<g id="edge5" class="edge">
<title>Node1&#45;&gt;Node6</title>
<path fill="none" stroke="black" d="M204.05,-117.24C212.13,-114.3 221.02,-111.14 229.25,-108.38 238.46,-105.28 248.46,-102.09 257.78,-99.19"/>
<polygon fill="black" stroke="black" points="202.92,-113.93 194.74,-120.66 205.33,-120.5 202.92,-113.93"/>
</g>
<!-- Node8 -->
<g id="Node000008" class="node">
<title>Node8</title>
<g id="a_Node000008"><a xlink:href="group__RTC__Private__Functions.html" target="_top" xlink:title=" ">
<polygon fill="white" stroke="#666666" points="351.75,-59.75 237.5,-59.75 237.5,-39 351.75,-39 351.75,-59.75"/>
<text text-anchor="middle" x="294.62" y="-46.25" font-family="Helvetica,sans-Serif" font-size="10.00">RTC Private Functions</text>
</a>
</g>
</g>
<!-- Node1&#45;&gt;Node8 -->
<g id="edge7" class="edge">
<title>Node1&#45;&gt;Node8</title>
<path fill="none" stroke="black" d="M190.42,-107.56C199.95,-95 213.74,-79.29 229.25,-69.38 234.97,-65.72 241.4,-62.69 247.93,-60.2"/>
<polygon fill="black" stroke="black" points="187.65,-105.42 184.63,-115.57 193.32,-109.52 187.65,-105.42"/>
</g>
<!-- Node7 -->
<g id="Node000007" class="node">
<title>Node7</title>
<g id="a_Node000007"><a xlink:href="group__RTC__Private__Macros.html" target="_top" xlink:title=" ">
<polygon fill="white" stroke="#666666" points="345.75,-20.75 243.5,-20.75 243.5,0 345.75,0 345.75,-20.75"/>
<text text-anchor="middle" x="294.62" y="-7.25" font-family="Helvetica,sans-Serif" font-size="10.00">RTC Private Macros</text>
</a>
</g>
</g>
<!-- Node1&#45;&gt;Node7 -->
<g id="edge6" class="edge">
<title>Node1&#45;&gt;Node7</title>
<path fill="none" stroke="black" d="M183.19,-105.71C190.69,-83.68 205.31,-50.07 229.25,-30.38 233.77,-26.66 238.98,-23.63 244.44,-21.16"/>
<polygon fill="black" stroke="black" points="179.88,-104.56 180.2,-115.15 186.55,-106.68 179.88,-104.56"/>
</g>
<!-- Node2 -->
<g id="Node000002" class="node">
<title>Node2</title>
<g id="a_Node000002"><a xlink:href="group__STM32F4xx__HAL__Driver.html" target="_top" xlink:title=" ">
<polygon fill="white" stroke="#666666" points="122.5,-137.75 0,-137.75 0,-117 122.5,-117 122.5,-137.75"/>
<text text-anchor="middle" x="61.25" y="-124.25" font-family="Helvetica,sans-Serif" font-size="10.00">STM32F4xx_HAL_Driver</text>
</a>
</g>
</g>
<!-- Node2&#45;&gt;Node1 -->
<g id="edge1" class="edge">
<title>Node2&#45;&gt;Node1</title>
<path fill="none" stroke="black" d="M134.08,-127.38C143.11,-127.38 151.56,-127.38 158.4,-127.38"/>
<polygon fill="black" stroke="black" points="134.36,-123.88 124.36,-127.38 134.36,-130.88 134.36,-123.88"/>
</g>
</g>
</svg>
</svg>

<style type='text/css'>
<![CDATA[
[data-mouse-over-selected='false'] { opacity: 0.7; }
[data-mouse-over-selected='true']  { opacity: 1.0; }
]]>
</style>
<script type="application/ecmascript"><![CDATA[
document.addEventListener('DOMContentLoaded', (event) => {
  highlightEdges();
  highlightAdjacentNodes();
});
]]></script>
</svg>
