<?xml version="1.0" encoding="UTF-8" standalone="no"?>
<!DOCTYPE svg PUBLIC "-//W3C//DTD SVG 1.1//EN"
 "http://www.w3.org/Graphics/SVG/1.1/DTD/svg11.dtd">
<!-- Generated by graphviz version 12.2.1 (20241206.2353)
 -->
<!-- Title: RCC Exported Macros Pages: 1 -->
<!--zoomable 977 -->

<svg id="main" version="1.1" xmlns="http://www.w3.org/2000/svg" xmlns:xlink="http://www.w3.org/1999/xlink" xml:space="preserve" onload="init(evt)">

<style type="text/css"><![CDATA[
.node, .edge {opacity: 0.7;}
.node.selected, .edge.selected {opacity: 1;}
.edge:hover path { stroke: red; }
.edge:hover polygon { stroke: red; fill: red; }
]]></style>

<defs>
  <circle id="rim" cx="0" cy="0" r="7"/>
  <circle id="rim2" cx="0" cy="0" r="3.5"/>
  <g id="zoomPlus">
    <use xlink:href="#rim" fill="#404040"><set attributeName="fill" to="#808080" begin="zoomplus.mouseover" end="zoomplus.mouseout"/></use>
    <path d="M-4,0h8M0,-4v8" fill="none" stroke="white" stroke-width="1.5" pointer-events="none"/>
  </g>
  <g id="zoomMin">
    <use xlink:href="#rim" fill="#404040"><set attributeName="fill" to="#808080" begin="zoomminus.mouseover" end="zoomminus.mouseout"/></use>
    <path d="M-4,0h8" fill="none" stroke="white" stroke-width="1.5" pointer-events="none"/>
  </g>
  <g id="arrowUp" transform="translate(30 24)">
    <use xlink:href="#rim"/>
    <path pointer-events="none" fill="none" stroke="white" stroke-width="1.5" d="M0,-3.0v7 M-2.5,-0.5L0,-3.0L2.5,-0.5"/>
  </g>
  <g id="arrowRight" transform="rotate(90) translate(36 -43)">
    <use xlink:href="#rim"/>
    <path pointer-events="none" fill="none" stroke="white" stroke-width="1.5" d="M0,-3.0v7 M-2.5,-0.5L0,-3.0L2.5,-0.5"/>
  </g>
  <g id="arrowDown" transform="rotate(180) translate(-30 -48)">
    <use xlink:href="#rim"/>
    <path pointer-events="none" fill="none" stroke="white" stroke-width="1.5" d="M0,-3.0v7 M-2.5,-0.5L0,-3.0L2.5,-0.5"/>
  </g>
  <g id="arrowLeft" transform="rotate(270) translate(-36 17)">
    <use xlink:href="#rim"/>
    <path pointer-events="none" fill="none" stroke="white" stroke-width="1.5" d="M0,-3.0v7 M-2.5,-0.5L0,-3.0L2.5,-0.5"/>
  </g>
  <g id="resetDef">
    <use xlink:href="#rim2" fill="#404040"><set attributeName="fill" to="#808080" begin="reset.mouseover" end="reset.mouseout"/></use>
  </g>
</defs>
<script type="application/ecmascript">
var viewWidth = 379;
var viewHeight = 977;
var sectionId = 'dynsection-0';
</script>
<script type="application/ecmascript" xlink:href="svg.min.js"/>
<svg id="graph" class="graph">
<g id="viewport">
<title>RCC Exported Macros</title>
<!-- Node2 -->
<g id="Node000002" class="node">
<title>Node2</title>
<g id="a_Node000002"><a xlink:href="group__RCC.html" target="_top" xlink:title="RCC HAL module driver.">
<polygon fill="white" stroke="#666666" points="35.5,-442.75 0,-442.75 0,-422 35.5,-422 35.5,-442.75"/>
<text text-anchor="middle" x="17.75" y="-429.25" font-family="Helvetica,sans-Serif" font-size="10.00">RCC</text>
</a>
</g>
</g>
<!-- Node1 -->
<g id="Node000001" class="node">
<title>Node1</title>
<g id="a_Node000001"><a xlink:title=" ">
<polygon fill="#999999" stroke="#666666" points="185,-442.75 71.5,-442.75 71.5,-422 185,-422 185,-442.75"/>
<text text-anchor="middle" x="128.25" y="-429.25" font-family="Helvetica,sans-Serif" font-size="10.00">RCC Exported Macros</text>
</a>
</g>
</g>
<!-- Node2&#45;&gt;Node1 -->
<g id="edge1" class="edge">
<title>Node2&#45;&gt;Node1</title>
<path fill="none" stroke="black" d="M47.04,-432.38C54.57,-432.38 62.96,-432.38 71.41,-432.38"/>
<polygon fill="black" stroke="black" points="47.22,-428.88 37.22,-432.38 47.22,-435.88 47.22,-428.88"/>
</g>
<!-- Node22 -->
<g id="Node000022" class="node">
<title>Node22</title>
<g id="a_Node000022"><a xlink:href="group__RCCEx__MCOx__Clock__Config.html" target="_top" xlink:title=" ">
<polygon fill="white" stroke="#666666" points="364.88,-969.12 227.38,-969.12 227.38,-935.62 364.88,-935.62 364.88,-969.12"/>
<text text-anchor="start" x="235.38" y="-955.62" font-family="Helvetica,sans-Serif" font-size="10.00">RCC Extended MCOx Clock</text>
<text text-anchor="middle" x="296.12" y="-942.88" font-family="Helvetica,sans-Serif" font-size="10.00"> Config</text>
</a>
</g>
</g>
<!-- Node3 -->
<g id="Node000003" class="node">
<title>Node3</title>
<g id="a_Node000003"><a xlink:href="group__RCC__AHB1__Clock__Enable__Disable.html" target="_top" xlink:title="Enable or disable the AHB1 peripheral clock.">
<polygon fill="white" stroke="#666666" points="354.38,-917.12 237.88,-917.12 237.88,-883.62 354.38,-883.62 354.38,-917.12"/>
<text text-anchor="start" x="245.88" y="-903.62" font-family="Helvetica,sans-Serif" font-size="10.00">AHB1 Peripheral Clock</text>
<text text-anchor="middle" x="296.12" y="-890.88" font-family="Helvetica,sans-Serif" font-size="10.00"> Enable Disable</text>
</a>
</g>
</g>
<!-- Node9 -->
<g id="Node000009" class="node">
<title>Node9</title>
<g id="a_Node000009"><a xlink:href="group__RCC__AHB1__Force__Release__Reset.html" target="_top" xlink:title="Force or release AHB1 peripheral reset.">
<polygon fill="white" stroke="#666666" points="348.38,-865.12 243.88,-865.12 243.88,-831.62 348.38,-831.62 348.38,-865.12"/>
<text text-anchor="start" x="251.88" y="-851.62" font-family="Helvetica,sans-Serif" font-size="10.00">AHB1 Force Release</text>
<text text-anchor="middle" x="296.12" y="-838.88" font-family="Helvetica,sans-Serif" font-size="10.00"> Reset</text>
</a>
</g>
</g>
<!-- Node12 -->
<g id="Node000012" class="node">
<title>Node12</title>
<g id="a_Node000012"><a xlink:href="group__RCC__AHB1__LowPower__Enable__Disable.html" target="_top" xlink:title="Enable or disable the AHB1 peripheral clock during Low Power (Sleep) mode.">
<polygon fill="white" stroke="#666666" points="354,-813.12 238.25,-813.12 238.25,-779.62 354,-779.62 354,-813.12"/>
<text text-anchor="start" x="246.25" y="-799.62" font-family="Helvetica,sans-Serif" font-size="10.00">AHB1 Peripheral Low</text>
<text text-anchor="middle" x="296.12" y="-786.88" font-family="Helvetica,sans-Serif" font-size="10.00"> Power Enable Disable</text>
</a>
</g>
</g>
<!-- Node4 -->
<g id="Node000004" class="node">
<title>Node4</title>
<g id="a_Node000004"><a xlink:href="group__RCC__AHB1__Peripheral__Clock__Enable__Disable__Status.html" target="_top" xlink:title="Get the enable or disable status of the AHB1 peripheral clock.">
<polygon fill="white" stroke="#666666" points="354.38,-761.12 237.88,-761.12 237.88,-727.62 354.38,-727.62 354.38,-761.12"/>
<text text-anchor="start" x="245.88" y="-747.62" font-family="Helvetica,sans-Serif" font-size="10.00">AHB1 Peripheral Clock</text>
<text text-anchor="middle" x="296.12" y="-734.88" font-family="Helvetica,sans-Serif" font-size="10.00"> Enable Disable Status</text>
</a>
</g>
</g>
<!-- Node5 -->
<g id="Node000005" class="node">
<title>Node5</title>
<g id="a_Node000005"><a xlink:href="group__RCC__APB1__Clock__Enable__Disable.html" target="_top" xlink:title="Enable or disable the Low Speed APB (APB1) peripheral clock.">
<polygon fill="white" stroke="#666666" points="353.62,-709.12 238.62,-709.12 238.62,-675.62 353.62,-675.62 353.62,-709.12"/>
<text text-anchor="start" x="246.62" y="-695.62" font-family="Helvetica,sans-Serif" font-size="10.00">APB1 Peripheral Clock</text>
<text text-anchor="middle" x="296.12" y="-682.88" font-family="Helvetica,sans-Serif" font-size="10.00"> Enable Disable</text>
</a>
</g>
</g>
<!-- Node10 -->
<g id="Node000010" class="node">
<title>Node10</title>
<g id="a_Node000010"><a xlink:href="group__RCC__APB1__Force__Release__Reset.html" target="_top" xlink:title="Force or release APB1 peripheral reset.">
<polygon fill="white" stroke="#666666" points="347.62,-657.12 244.62,-657.12 244.62,-623.62 347.62,-623.62 347.62,-657.12"/>
<text text-anchor="start" x="252.62" y="-643.62" font-family="Helvetica,sans-Serif" font-size="10.00">APB1 Force Release</text>
<text text-anchor="middle" x="296.12" y="-630.88" font-family="Helvetica,sans-Serif" font-size="10.00"> Reset</text>
</a>
</g>
</g>
<!-- Node13 -->
<g id="Node000013" class="node">
<title>Node13</title>
<g id="a_Node000013"><a xlink:href="group__RCC__APB1__LowPower__Enable__Disable.html" target="_top" xlink:title="Enable or disable the APB1 peripheral clock during Low Power (Sleep) mode.">
<polygon fill="white" stroke="#666666" points="354,-605.12 238.25,-605.12 238.25,-571.62 354,-571.62 354,-605.12"/>
<text text-anchor="start" x="246.25" y="-591.62" font-family="Helvetica,sans-Serif" font-size="10.00">APB1 Peripheral Low</text>
<text text-anchor="middle" x="296.12" y="-578.88" font-family="Helvetica,sans-Serif" font-size="10.00"> Power Enable Disable</text>
</a>
</g>
</g>
<!-- Node6 -->
<g id="Node000006" class="node">
<title>Node6</title>
<g id="a_Node000006"><a xlink:href="group__RCC__APB1__Peripheral__Clock__Enable__Disable__Status.html" target="_top" xlink:title="Get the enable or disable status of the APB1 peripheral clock.">
<polygon fill="white" stroke="#666666" points="353.62,-553.12 238.62,-553.12 238.62,-519.62 353.62,-519.62 353.62,-553.12"/>
<text text-anchor="start" x="246.62" y="-539.62" font-family="Helvetica,sans-Serif" font-size="10.00">APB1 Peripheral Clock</text>
<text text-anchor="middle" x="296.12" y="-526.88" font-family="Helvetica,sans-Serif" font-size="10.00"> Enable Disable Status</text>
</a>
</g>
</g>
<!-- Node7 -->
<g id="Node000007" class="node">
<title>Node7</title>
<g id="a_Node000007"><a xlink:href="group__RCC__APB2__Clock__Enable__Disable.html" target="_top" xlink:title="Enable or disable the High Speed APB (APB2) peripheral clock.">
<polygon fill="white" stroke="#666666" points="354,-501.12 238.25,-501.12 238.25,-467.62 354,-467.62 354,-501.12"/>
<text text-anchor="start" x="246.25" y="-487.62" font-family="Helvetica,sans-Serif" font-size="10.00">APB2 Peripheral Clock</text>
<text text-anchor="middle" x="296.12" y="-474.88" font-family="Helvetica,sans-Serif" font-size="10.00"> Enable Disable</text>
</a>
</g>
</g>
<!-- Node11 -->
<g id="Node000011" class="node">
<title>Node11</title>
<g id="a_Node000011"><a xlink:href="group__RCC__APB2__Force__Release__Reset.html" target="_top" xlink:title="Force or release APB2 peripheral reset.">
<polygon fill="white" stroke="#666666" points="348,-449.12 244.25,-449.12 244.25,-415.62 348,-415.62 348,-449.12"/>
<text text-anchor="start" x="252.25" y="-435.62" font-family="Helvetica,sans-Serif" font-size="10.00">APB2 Force Release</text>
<text text-anchor="middle" x="296.12" y="-422.88" font-family="Helvetica,sans-Serif" font-size="10.00"> Reset</text>
</a>
</g>
</g>
<!-- Node14 -->
<g id="Node000014" class="node">
<title>Node14</title>
<g id="a_Node000014"><a xlink:href="group__RCC__APB2__LowPower__Enable__Disable.html" target="_top" xlink:title="Enable or disable the APB2 peripheral clock during Low Power (Sleep) mode.">
<polygon fill="white" stroke="#666666" points="354,-397.12 238.25,-397.12 238.25,-363.62 354,-363.62 354,-397.12"/>
<text text-anchor="start" x="246.25" y="-383.62" font-family="Helvetica,sans-Serif" font-size="10.00">APB2 Peripheral Low</text>
<text text-anchor="middle" x="296.12" y="-370.88" font-family="Helvetica,sans-Serif" font-size="10.00"> Power Enable Disable</text>
</a>
</g>
</g>
<!-- Node8 -->
<g id="Node000008" class="node">
<title>Node8</title>
<g id="a_Node000008"><a xlink:href="group__RCC__APB2__Peripheral__Clock__Enable__Disable__Status.html" target="_top" xlink:title="Get the enable or disable status of the APB2 peripheral clock.">
<polygon fill="white" stroke="#666666" points="354,-345.12 238.25,-345.12 238.25,-311.62 354,-311.62 354,-345.12"/>
<text text-anchor="start" x="246.25" y="-331.62" font-family="Helvetica,sans-Serif" font-size="10.00">APB2 Peripheral Clock</text>
<text text-anchor="middle" x="296.12" y="-318.88" font-family="Helvetica,sans-Serif" font-size="10.00"> Enable Disable Status</text>
</a>
</g>
</g>
<!-- Node1&#45;&gt;Node22 -->
<g id="edge21" class="edge">
<title>Node1&#45;&gt;Node22</title>
<path fill="none" stroke="black" d="M130.46,-454.38C135.64,-540.49 158.5,-853.45 221,-926.38 223.93,-929.79 227.33,-932.76 231.04,-935.34"/>
<polygon fill="black" stroke="black" points="133.96,-454.27 129.89,-444.49 126.98,-454.67 133.96,-454.27"/>
</g>
<!-- Node1&#45;&gt;Node3 -->
<g id="edge2" class="edge">
<title>Node1&#45;&gt;Node3</title>
<path fill="none" stroke="black" d="M130.97,-454.1C137.68,-533.96 164.65,-810 221,-874.38 225.58,-879.61 231.28,-883.79 237.47,-887.13"/>
<polygon fill="black" stroke="black" points="134.49,-454.22 130.18,-444.54 127.51,-454.79 134.49,-454.22"/>
</g>
<!-- Node1&#45;&gt;Node9 -->
<g id="edge8" class="edge">
<title>Node1&#45;&gt;Node9</title>
<path fill="none" stroke="black" d="M131.65,-454.35C140.12,-528.31 170.89,-766.63 221,-822.38 227.11,-829.17 235.1,-834.19 243.56,-837.9"/>
<polygon fill="black" stroke="black" points="135.16,-454.29 130.57,-444.74 128.2,-455.07 135.16,-454.29"/>
</g>
<!-- Node1&#45;&gt;Node12 -->
<g id="edge11" class="edge">
<title>Node1&#45;&gt;Node12</title>
<path fill="none" stroke="black" d="M128.63,-454.41C128.18,-513.64 135.15,-678.09 221,-770.38 225.74,-775.47 231.53,-779.56 237.77,-782.86"/>
<polygon fill="black" stroke="black" points="132.12,-454.71 128.79,-444.65 125.12,-454.59 132.12,-454.71"/>
</g>
<!-- Node1&#45;&gt;Node4 -->
<g id="edge3" class="edge">
<title>Node1&#45;&gt;Node4</title>
<path fill="none" stroke="black" d="M129.93,-454.49C132.77,-507.42 147.24,-642.61 221,-718.38 225.76,-723.26 231.48,-727.23 237.62,-730.45"/>
<polygon fill="black" stroke="black" points="133.44,-454.51 129.51,-444.67 126.44,-454.81 133.44,-454.51"/>
</g>
<!-- Node1&#45;&gt;Node5 -->
<g id="edge4" class="edge">
<title>Node1&#45;&gt;Node5</title>
<path fill="none" stroke="black" d="M131.77,-454.44C138.15,-500.32 159.13,-606.71 221,-666.38 226.01,-671.2 231.96,-675.14 238.28,-678.35"/>
<polygon fill="black" stroke="black" points="135.26,-454.17 130.52,-444.69 128.32,-455.05 135.26,-454.17"/>
</g>
<!-- Node1&#45;&gt;Node10 -->
<g id="edge9" class="edge">
<title>Node1&#45;&gt;Node10</title>
<path fill="none" stroke="black" d="M134.41,-453.89C144.55,-491.67 170.62,-570.13 221,-614.38 227.76,-620.31 235.97,-624.92 244.42,-628.48"/>
<polygon fill="black" stroke="black" points="137.9,-453.43 132.04,-444.61 131.12,-455.16 137.9,-453.43"/>
</g>
<!-- Node1&#45;&gt;Node13 -->
<g id="edge12" class="edge">
<title>Node1&#45;&gt;Node13</title>
<path fill="none" stroke="black" d="M138.82,-453.24C152.91,-481.79 181.88,-532.84 221,-562.38 226.12,-566.24 231.85,-569.56 237.81,-572.41"/>
<polygon fill="black" stroke="black" points="142.12,-452.04 134.65,-444.53 135.81,-455.06 142.12,-452.04"/>
</g>
<!-- Node1&#45;&gt;Node6 -->
<g id="edge5" class="edge">
<title>Node1&#45;&gt;Node6</title>
<path fill="none" stroke="black" d="M146.94,-450.93C164.38,-468.32 192.48,-494.01 221,-510.38 226.68,-513.63 232.83,-516.58 239.09,-519.23"/>
<polygon fill="black" stroke="black" points="149.85,-448.9 140.34,-444.22 144.86,-453.8 149.85,-448.9"/>
</g>
<!-- Node1&#45;&gt;Node7 -->
<g id="edge6" class="edge">
<title>Node1&#45;&gt;Node7</title>
<path fill="none" stroke="black" d="M174.46,-446.55C194.77,-452.91 218.9,-460.48 240.23,-467.17"/>
<polygon fill="black" stroke="black" points="175.65,-443.25 165.06,-443.6 173.56,-449.93 175.65,-443.25"/>
</g>
<!-- Node1&#45;&gt;Node11 -->
<g id="edge10" class="edge">
<title>Node1&#45;&gt;Node11</title>
<path fill="none" stroke="black" d="M196.68,-432.38C212.4,-432.38 228.88,-432.38 243.77,-432.38"/>
<polygon fill="black" stroke="black" points="196.92,-428.88 186.92,-432.38 196.92,-435.88 196.92,-428.88"/>
</g>
<!-- Node1&#45;&gt;Node14 -->
<g id="edge13" class="edge">
<title>Node1&#45;&gt;Node14</title>
<path fill="none" stroke="black" d="M174.46,-418.2C194.77,-411.84 218.9,-404.27 240.23,-397.58"/>
<polygon fill="black" stroke="black" points="173.56,-414.82 165.06,-421.15 175.65,-421.5 173.56,-414.82"/>
</g>
<!-- Node1&#45;&gt;Node8 -->
<g id="edge7" class="edge">
<title>Node1&#45;&gt;Node8</title>
<path fill="none" stroke="black" d="M146.94,-413.82C164.38,-396.43 192.48,-370.74 221,-354.38 226.68,-351.12 232.83,-348.17 239.09,-345.52"/>
<polygon fill="black" stroke="black" points="144.86,-410.95 140.34,-420.53 149.85,-415.85 144.86,-410.95"/>
</g>
<!-- Node23 -->
<g id="Node000023" class="node">
<title>Node23</title>
<g id="a_Node000023"><a xlink:href="group__RCC__Flags__Interrupts__Management.html" target="_top" xlink:title="macros to manage the specified RCC Flags and interrupts.">
<polygon fill="white" stroke="#666666" points="371.25,-293.75 221,-293.75 221,-273 371.25,-273 371.25,-293.75"/>
<text text-anchor="middle" x="296.12" y="-280.25" font-family="Helvetica,sans-Serif" font-size="10.00">Flags Interrupts Management</text>
</a>
</g>
</g>
<!-- Node1&#45;&gt;Node23 -->
<g id="edge22" class="edge">
<title>Node1&#45;&gt;Node23</title>
<path fill="none" stroke="black" d="M138.26,-411.46C151.87,-382.42 180.44,-330.34 221,-302.38 225.7,-299.13 230.92,-296.44 236.34,-294.21"/>
<polygon fill="black" stroke="black" points="135.19,-409.76 134.27,-420.31 141.57,-412.64 135.19,-409.76"/>
</g>
<!-- Node21 -->
<g id="Node000021" class="node">
<title>Node21</title>
<g id="a_Node000021"><a xlink:href="group__RCC__Get__Clock__source.html" target="_top" xlink:title=" ">
<polygon fill="white" stroke="#666666" points="342,-254.75 250.25,-254.75 250.25,-234 342,-234 342,-254.75"/>
<text text-anchor="middle" x="296.12" y="-241.25" font-family="Helvetica,sans-Serif" font-size="10.00">Get Clock source</text>
</a>
</g>
</g>
<!-- Node1&#45;&gt;Node21 -->
<g id="edge20" class="edge">
<title>Node1&#45;&gt;Node21</title>
<path fill="none" stroke="black" d="M134.88,-411.17C145.51,-375.34 171.98,-302.99 221,-264.38 229.38,-257.78 239.76,-253.35 250.07,-250.38"/>
<polygon fill="black" stroke="black" points="131.64,-409.78 132.29,-420.36 138.37,-411.68 131.64,-409.78"/>
</g>
<!-- Node17 -->
<g id="Node000017" class="node">
<title>Node17</title>
<g id="a_Node000017"><a xlink:href="group__RCC__HSE__Configuration.html" target="_top" xlink:title=" ">
<polygon fill="white" stroke="#666666" points="346.12,-215.75 246.12,-215.75 246.12,-195 346.12,-195 346.12,-215.75"/>
<text text-anchor="middle" x="296.12" y="-202.25" font-family="Helvetica,sans-Serif" font-size="10.00">HSE Configuration</text>
</a>
</g>
</g>
<!-- Node1&#45;&gt;Node17 -->
<g id="edge16" class="edge">
<title>Node1&#45;&gt;Node17</title>
<path fill="none" stroke="black" d="M132.56,-410.8C140.18,-368.63 162.99,-275.09 221,-225.38 228.08,-219.3 236.84,-215.06 245.82,-212.09"/>
<polygon fill="black" stroke="black" points="129.15,-409.97 130.94,-420.42 136.05,-411.13 129.15,-409.97"/>
</g>
<!-- Node15 -->
<g id="Node000015" class="node">
<title>Node15</title>
<g id="a_Node000015"><a xlink:href="group__RCC__HSI__Configuration.html" target="_top" xlink:title=" ">
<polygon fill="white" stroke="#666666" points="344.62,-176.75 247.62,-176.75 247.62,-156 344.62,-156 344.62,-176.75"/>
<text text-anchor="middle" x="296.12" y="-163.25" font-family="Helvetica,sans-Serif" font-size="10.00">HSI Configuration</text>
</a>
</g>
</g>
<!-- Node1&#45;&gt;Node15 -->
<g id="edge14" class="edge">
<title>Node1&#45;&gt;Node15</title>
<path fill="none" stroke="black" d="M130.88,-410.45C135.66,-362.45 153.87,-247.51 221,-186.38 228.39,-179.64 237.81,-175.14 247.44,-172.14"/>
<polygon fill="black" stroke="black" points="127.42,-409.85 130.03,-420.12 134.39,-410.46 127.42,-409.85"/>
</g>
<!-- Node19 -->
<g id="Node000019" class="node">
<title>Node19</title>
<g id="a_Node000019"><a xlink:href="group__RCC__Internal__RTC__Clock__Configuration.html" target="_top" xlink:title=" ">
<polygon fill="white" stroke="#666666" points="360,-137.75 232.25,-137.75 232.25,-117 360,-117 360,-137.75"/>
<text text-anchor="middle" x="296.12" y="-124.25" font-family="Helvetica,sans-Serif" font-size="10.00">RTC Clock Configuration</text>
</a>
</g>
</g>
<!-- Node1&#45;&gt;Node19 -->
<g id="edge18" class="edge">
<title>Node1&#45;&gt;Node19</title>
<path fill="none" stroke="black" d="M129.59,-410.34C131.65,-357.05 144.53,-220.27 221,-147.38 224.86,-143.7 229.32,-140.68 234.11,-138.21"/>
<polygon fill="black" stroke="black" points="126.1,-410.13 129.31,-420.22 133.09,-410.32 126.1,-410.13"/>
</g>
<!-- Node18 -->
<g id="Node000018" class="node">
<title>Node18</title>
<g id="a_Node000018"><a xlink:href="group__RCC__LSE__Configuration.html" target="_top" xlink:title=" ">
<polygon fill="white" stroke="#666666" points="345,-98.75 247.25,-98.75 247.25,-78 345,-78 345,-98.75"/>
<text text-anchor="middle" x="296.12" y="-85.25" font-family="Helvetica,sans-Serif" font-size="10.00">LSE Configuration</text>
</a>
</g>
</g>
<!-- Node1&#45;&gt;Node18 -->
<g id="edge17" class="edge">
<title>Node1&#45;&gt;Node18</title>
<path fill="none" stroke="black" d="M128.58,-410.14C128.09,-351.83 135.15,-193.16 221,-108.38 228.11,-101.35 237.42,-96.72 247.03,-93.7"/>
<polygon fill="black" stroke="black" points="125.08,-410.13 128.76,-420.06 132.08,-410 125.08,-410.13"/>
</g>
<!-- Node16 -->
<g id="Node000016" class="node">
<title>Node16</title>
<g id="a_Node000016"><a xlink:href="group__RCC__LSI__Configuration.html" target="_top" xlink:title=" ">
<polygon fill="white" stroke="#666666" points="343.5,-59.75 248.75,-59.75 248.75,-39 343.5,-39 343.5,-59.75"/>
<text text-anchor="middle" x="296.12" y="-46.25" font-family="Helvetica,sans-Serif" font-size="10.00">LSI Configuration</text>
</a>
</g>
</g>
<!-- Node1&#45;&gt;Node16 -->
<g id="edge15" class="edge">
<title>Node1&#45;&gt;Node16</title>
<path fill="none" stroke="black" d="M131.89,-410.44C140.83,-339.65 172.17,-118.99 221,-69.38 228.39,-61.87 238.27,-57.09 248.41,-54.07"/>
<polygon fill="black" stroke="black" points="128.42,-409.98 130.67,-420.34 135.36,-410.84 128.42,-409.98"/>
</g>
<!-- Node20 -->
<g id="Node000020" class="node">
<title>Node20</title>
<g id="a_Node000020"><a xlink:href="group__RCC__PLL__Configuration.html" target="_top" xlink:title=" ">
<polygon fill="white" stroke="#666666" points="345,-20.75 247.25,-20.75 247.25,0 345,0 345,-20.75"/>
<text text-anchor="middle" x="296.12" y="-7.25" font-family="Helvetica,sans-Serif" font-size="10.00">PLL Configuration</text>
</a>
</g>
</g>
<!-- Node1&#45;&gt;Node20 -->
<g id="edge19" class="edge">
<title>Node1&#45;&gt;Node20</title>
<path fill="none" stroke="black" d="M131.3,-410.58C138.81,-335.07 167.29,-86.23 221,-30.38 227.93,-23.17 237.16,-18.47 246.75,-15.42"/>
<polygon fill="black" stroke="black" points="127.83,-410.08 130.35,-420.37 134.8,-410.75 127.83,-410.08"/>
</g>
</g>
</svg>

<g id="navigator" transform="translate(0 0)" fill="#404254">
  <rect fill="#f2f5e9" fill-opacity="0.5" stroke="#606060" stroke-width=".5" x="0" y="0" width="60" height="60"/>
  <use id="zoomplus" xlink:href="#zoomPlus" x="17" y="9" onmousedown="handleZoom(evt,'in')"/>
  <use id="zoomminus" xlink:href="#zoomMin" x="42" y="9" onmousedown="handleZoom(evt,'out')"/>
  <use id="reset" xlink:href="#resetDef" x="30" y="36" onmousedown="handleReset()"/>
   <use id="arrowup" xlink:href="#arrowUp" x="0" y="0" onmousedown="handlePan(0,-1)"/>
  <use id="arrowright" xlink:href="#arrowRight" x="0" y="0" onmousedown="handlePan(1,0)"/>
  <use id="arrowdown" xlink:href="#arrowDown" x="0" y="0" onmousedown="handlePan(0,1)"/>
  <use id="arrowleft" xlink:href="#arrowLeft" x="0" y="0" onmousedown="handlePan(-1,0)"/>
</g>
<svg viewBox="0 0 15 15" width="100%" height="30px" preserveAspectRatio="xMaxYMin meet">
 <g id="arrow_out" transform="scale(0.3 0.3)">
  <a xlink:href="group__RCC__Exported__Macros_org.svg" target="_base">
   <rect id="button" ry="5" rx="5" y="6" x="6" height="38" width="38"
        fill="#f2f5e9" fill-opacity="0.5" stroke="#606060" stroke-width="1.0"/>
   <path id="arrow"
     d="M 11.500037,31.436501 C 11.940474,20.09759 22.043105,11.32322 32.158766,21.979434 L 37.068811,17.246167 C 37.068811,17.246167 37.088388,32 37.088388,32 L 22.160133,31.978069 C 22.160133,31.978069 26.997745,27.140456 26.997745,27.140456 C 18.528582,18.264221 13.291696,25.230495 11.500037,31.436501 z"
     style="fill:#404040;"/>
  </a>
 </g>
</svg>

<style type='text/css'>
<![CDATA[
[data-mouse-over-selected='false'] { opacity: 0.7; }
[data-mouse-over-selected='true']  { opacity: 1.0; }
]]>
</style>
<script type="application/ecmascript"><![CDATA[
document.addEventListener('DOMContentLoaded', (event) => {
  highlightEdges();
  highlightAdjacentNodes();
});
]]></script>
</svg>
