<?xml version="1.0" encoding="UTF-8" standalone="no"?>
<!DOCTYPE svg PUBLIC "-//W3C//DTD SVG 1.1//EN"
 "http://www.w3.org/Graphics/SVG/1.1/DTD/svg11.dtd">
<!-- Generated by graphviz version 2.43.0 (0)
 -->
<!-- Title: IRDA Pages: 1 -->
<svg width="396pt" height="249pt"
 viewBox="0.00 0.00 396.00 249.00" xmlns="http://www.w3.org/2000/svg" xmlns:xlink="http://www.w3.org/1999/xlink">

<svg id="main" version="1.1" xmlns="http://www.w3.org/2000/svg" xmlns:xlink="http://www.w3.org/1999/xlink" xml:space="preserve" onload="init(evt)">
<style type="text/css"><![CDATA[
.node, .edge {opacity: 0.7;}
.node.selected, .edge.selected {opacity: 1;}
.edge:hover path { stroke: red; }
.edge:hover polygon { stroke: red; fill: red; }
]]></style>
<script type="application/ecmascript" xlink:href="svg.min.js"/>
<svg id="graph" class="graph">
<g id="graph0" class="graph" transform="scale(1 1) rotate(0) translate(4 245)">
<title>IRDA</title>
<!-- Node1 -->
<g id="Node000001" class="node">
<title>Node1</title>
<g id="a_Node000001"><a xlink:title="HAL IRDA module driver.">
<polygon fill="#999999" stroke="#666666" points="211,-130 170,-130 170,-111 211,-111 211,-130"/>
<text text-anchor="middle" x="190.5" y="-118" font-family="Helvetica,sans-Serif" font-size="10.00">IRDA</text>
</a>
</g>
</g>
<!-- Node4 -->
<g id="Node000004" class="node">
<title>Node4</title>
<g id="a_Node000004"><a xlink:href="group__IRDA__Exported__Constants.html" target="_top" xlink:title=" ">
<polygon fill="white" stroke="#666666" points="386,-241 249,-241 249,-222 386,-222 386,-241"/>
<text text-anchor="middle" x="317.5" y="-229" font-family="Helvetica,sans-Serif" font-size="10.00">IRDA Exported constants</text>
</a>
</g>
</g>
<!-- Node1&#45;&gt;Node4 -->
<g id="edge3" class="edge">
<title>Node1&#45;&gt;Node4</title>
<path fill="none" stroke="black" d="M197.88,-139.65C205.95,-160.91 221.9,-194.69 247,-213.5 251.59,-216.94 256.77,-219.72 262.19,-221.98"/>
<polygon fill="black" stroke="black" points="201.12,-138.32 194.45,-130.08 194.53,-140.67 201.12,-138.32"/>
</g>
<!-- Node9 -->
<g id="Node000009" class="node">
<title>Node9</title>
<g id="a_Node000009"><a xlink:href="group__IRDA__Exported__Functions.html" target="_top" xlink:title=" ">
<polygon fill="white" stroke="#666666" points="388,-204 247,-204 247,-185 388,-185 388,-204"/>
<text text-anchor="middle" x="317.5" y="-192" font-family="Helvetica,sans-Serif" font-size="10.00">IRDA_Exported_Functions</text>
</a>
</g>
</g>
<!-- Node1&#45;&gt;Node9 -->
<g id="edge8" class="edge">
<title>Node1&#45;&gt;Node9</title>
<path fill="none" stroke="black" d="M204.83,-138.33C215.05,-150.79 230.22,-166.86 247,-176.5 252.94,-179.92 259.54,-182.7 266.24,-184.95"/>
<polygon fill="black" stroke="black" points="207.52,-136.09 198.58,-130.4 202.02,-140.42 207.52,-136.09"/>
</g>
<!-- Node5 -->
<g id="Node000005" class="node">
<title>Node5</title>
<g id="a_Node000005"><a xlink:href="group__IRDA__Exported__Macros.html" target="_top" xlink:title=" ">
<polygon fill="white" stroke="#666666" points="380,-167 255,-167 255,-148 380,-148 380,-167"/>
<text text-anchor="middle" x="317.5" y="-155" font-family="Helvetica,sans-Serif" font-size="10.00">IRDA Exported Macros</text>
</a>
</g>
</g>
<!-- Node1&#45;&gt;Node5 -->
<g id="edge4" class="edge">
<title>Node1&#45;&gt;Node5</title>
<path fill="none" stroke="black" d="M220.63,-130.94C229.09,-133.84 238.38,-136.91 247,-139.5 256.79,-142.44 267.44,-145.34 277.39,-147.93"/>
<polygon fill="black" stroke="black" points="221.75,-127.63 211.16,-127.64 219.45,-134.24 221.75,-127.63"/>
</g>
<!-- Node3 -->
<g id="Node000003" class="node">
<title>Node3</title>
<g id="a_Node000003"><a xlink:href="group__IRDA__Exported__Types.html" target="_top" xlink:title=" ">
<polygon fill="white" stroke="#666666" points="376.5,-130 258.5,-130 258.5,-111 376.5,-111 376.5,-130"/>
<text text-anchor="middle" x="317.5" y="-118" font-family="Helvetica,sans-Serif" font-size="10.00">IRDA Exported Types</text>
</a>
</g>
</g>
<!-- Node1&#45;&gt;Node3 -->
<g id="edge2" class="edge">
<title>Node1&#45;&gt;Node3</title>
<path fill="none" stroke="black" d="M221.11,-120.5C232.34,-120.5 245.54,-120.5 258.48,-120.5"/>
<polygon fill="black" stroke="black" points="221.03,-117 211.03,-120.5 221.03,-124 221.03,-117"/>
</g>
<!-- Node6 -->
<g id="Node000006" class="node">
<title>Node6</title>
<g id="a_Node000006"><a xlink:href="group__IRDA__Private__Constants.html" target="_top" xlink:title=" ">
<polygon fill="white" stroke="#666666" points="382.5,-93 252.5,-93 252.5,-74 382.5,-74 382.5,-93"/>
<text text-anchor="middle" x="317.5" y="-81" font-family="Helvetica,sans-Serif" font-size="10.00">IRDA Private Constants</text>
</a>
</g>
</g>
<!-- Node1&#45;&gt;Node6 -->
<g id="edge5" class="edge">
<title>Node1&#45;&gt;Node6</title>
<path fill="none" stroke="black" d="M220.63,-110.06C229.09,-107.16 238.38,-104.09 247,-101.5 256.79,-98.56 267.44,-95.66 277.39,-93.07"/>
<polygon fill="black" stroke="black" points="219.45,-106.76 211.16,-113.36 221.75,-113.37 219.45,-106.76"/>
</g>
<!-- Node8 -->
<g id="Node000008" class="node">
<title>Node8</title>
<g id="a_Node000008"><a xlink:href="group__IRDA__Private__Functions.html" target="_top" xlink:title=" ">
<polygon fill="white" stroke="#666666" points="381.5,-56 253.5,-56 253.5,-37 381.5,-37 381.5,-56"/>
<text text-anchor="middle" x="317.5" y="-44" font-family="Helvetica,sans-Serif" font-size="10.00">IRDA Private Functions</text>
</a>
</g>
</g>
<!-- Node1&#45;&gt;Node8 -->
<g id="edge7" class="edge">
<title>Node1&#45;&gt;Node8</title>
<path fill="none" stroke="black" d="M204.83,-102.67C215.05,-90.21 230.22,-74.14 247,-64.5 252.94,-61.08 259.54,-58.3 266.24,-56.05"/>
<polygon fill="black" stroke="black" points="202.02,-100.58 198.58,-110.6 207.52,-104.91 202.02,-100.58"/>
</g>
<!-- Node7 -->
<g id="Node000007" class="node">
<title>Node7</title>
<g id="a_Node000007"><a xlink:href="group__IRDA__Private__Macros.html" target="_top" xlink:title=" ">
<polygon fill="white" stroke="#666666" points="375.5,-19 259.5,-19 259.5,0 375.5,0 375.5,-19"/>
<text text-anchor="middle" x="317.5" y="-7" font-family="Helvetica,sans-Serif" font-size="10.00">IRDA Private Macros</text>
</a>
</g>
</g>
<!-- Node1&#45;&gt;Node7 -->
<g id="edge6" class="edge">
<title>Node1&#45;&gt;Node7</title>
<path fill="none" stroke="black" d="M197.88,-101.35C205.95,-80.09 221.9,-46.31 247,-27.5 251.59,-24.06 256.77,-21.28 262.19,-19.02"/>
<polygon fill="black" stroke="black" points="194.53,-100.33 194.45,-110.92 201.12,-102.68 194.53,-100.33"/>
</g>
<!-- Node2 -->
<g id="Node000002" class="node">
<title>Node2</title>
<g id="a_Node000002"><a xlink:href="group__STM32F4xx__HAL__Driver.html" target="_top" xlink:title=" ">
<polygon fill="white" stroke="#666666" points="134,-130 0,-130 0,-111 134,-111 134,-130"/>
<text text-anchor="middle" x="67" y="-118" font-family="Helvetica,sans-Serif" font-size="10.00">STM32F4xx_HAL_Driver</text>
</a>
</g>
</g>
<!-- Node2&#45;&gt;Node1 -->
<g id="edge1" class="edge">
<title>Node2&#45;&gt;Node1</title>
<path fill="none" stroke="black" d="M144.35,-120.5C153.66,-120.5 162.44,-120.5 169.75,-120.5"/>
<polygon fill="black" stroke="black" points="144.08,-117 134.08,-120.5 144.08,-124 144.08,-117"/>
</g>
</g>
</svg>
</svg>

<style type='text/css'>
<![CDATA[
[data-mouse-over-selected='false'] { opacity: 0.7; }
[data-mouse-over-selected='true']  { opacity: 1.0; }
]]>
</style>
<script type="application/ecmascript"><![CDATA[
document.addEventListener('DOMContentLoaded', (event) => {
  highlightEdges();
  highlightAdjacentNodes();
});
]]></script>
</svg>
