<?xml version="1.0" encoding="UTF-8" standalone="no"?>
<!DOCTYPE svg PUBLIC "-//W3C//DTD SVG 1.1//EN"
 "http://www.w3.org/Graphics/SVG/1.1/DTD/svg11.dtd">
<!-- Generated by graphviz version 12.2.1 (20241206.2353)
 -->
<!-- Title: HAL Exported Constants Pages: 1 -->
<svg width="325pt" height="29pt"
 viewBox="0.00 0.00 324.50 28.75" xmlns="http://www.w3.org/2000/svg" xmlns:xlink="http://www.w3.org/1999/xlink">
<g id="page0,1_graph0" class="graph" transform="scale(1 1) rotate(0) translate(4 24.75)">
<title>HAL Exported Constants</title>
<!-- Node2 -->
<g id="Node000002" class="node">
<title>Node2</title>
<g id="a_Node000002"><a xlink:href="group__HAL.html" target="_top" xlink:title="HAL module driver.">
<polygon fill="white" stroke="#666666" points="34.75,-20.75 0,-20.75 0,0 34.75,0 34.75,-20.75"/>
<text text-anchor="middle" x="17.38" y="-7.25" font-family="Helvetica,sans-Serif" font-size="10.00">HAL</text>
</a>
</g>
</g>
<!-- Node1 -->
<g id="Node000001" class="node">
<title>Node1</title>
<g id="a_Node000001"><a xlink:title=" ">
<polygon fill="#999999" stroke="#666666" points="197.75,-20.75 70.75,-20.75 70.75,0 197.75,0 197.75,-20.75"/>
<text text-anchor="middle" x="134.25" y="-7.25" font-family="Helvetica,sans-Serif" font-size="10.00">HAL Exported Constants</text>
</a>
</g>
</g>
<!-- Node2&#45;&gt;Node1 -->
<g id="edge1" class="edge">
<title>Node2&#45;&gt;Node1</title>
<path fill="none" stroke="black" d="M46.31,-10.38C53.71,-10.38 62,-10.38 70.46,-10.38"/>
<polygon fill="black" stroke="black" points="46.35,-6.88 36.35,-10.38 46.35,-13.88 46.35,-6.88"/>
</g>
<!-- Node3 -->
<g id="Node000003" class="node">
<title>Node3</title>
<g id="a_Node000003"><a xlink:href="group__HAL__TICK__FREQ.html" target="_top" xlink:title=" ">
<polygon fill="white" stroke="#666666" points="316.5,-20.75 233.75,-20.75 233.75,0 316.5,0 316.5,-20.75"/>
<text text-anchor="middle" x="275.12" y="-7.25" font-family="Helvetica,sans-Serif" font-size="10.00">Tick Frequency</text>
</a>
</g>
</g>
<!-- Node1&#45;&gt;Node3 -->
<g id="edge2" class="edge">
<title>Node1&#45;&gt;Node3</title>
<path fill="none" stroke="black" d="M209.67,-10.38C217.78,-10.38 225.8,-10.38 233.28,-10.38"/>
<polygon fill="black" stroke="black" points="209.7,-6.88 199.7,-10.38 209.7,-13.88 209.7,-6.88"/>
</g>
</g>
</svg>
