<?xml version="1.0" encoding="UTF-8" standalone="no"?>
<!DOCTYPE svg PUBLIC "-//W3C//DTD SVG 1.1//EN"
 "http://www.w3.org/Graphics/SVG/1.1/DTD/svg11.dtd">
<!-- Generated by graphviz version 2.43.0 (0)
 -->
<!-- Title: RCC Exported Macros Pages: 1 -->
<!--zoomable 911 -->

<svg id="main" version="1.1" xmlns="http://www.w3.org/2000/svg" xmlns:xlink="http://www.w3.org/1999/xlink" xml:space="preserve" onload="init(evt)">

<style type="text/css"><![CDATA[
.node, .edge {opacity: 0.7;}
.node.selected, .edge.selected {opacity: 1;}
.edge:hover path { stroke: red; }
.edge:hover polygon { stroke: red; fill: red; }
]]></style>

<defs>
  <circle id="rim" cx="0" cy="0" r="7"/>
  <circle id="rim2" cx="0" cy="0" r="3.5"/>
  <g id="zoomPlus">
    <use xlink:href="#rim" fill="#404040"><set attributeName="fill" to="#808080" begin="zoomplus.mouseover" end="zoomplus.mouseout"/></use>
    <path d="M-4,0h8M0,-4v8" fill="none" stroke="white" stroke-width="1.5" pointer-events="none"/>
  </g>
  <g id="zoomMin">
    <use xlink:href="#rim" fill="#404040"><set attributeName="fill" to="#808080" begin="zoomminus.mouseover" end="zoomminus.mouseout"/></use>
    <path d="M-4,0h8" fill="none" stroke="white" stroke-width="1.5" pointer-events="none"/>
  </g>
  <g id="arrowUp" transform="translate(30 24)">
    <use xlink:href="#rim"/>
    <path pointer-events="none" fill="none" stroke="white" stroke-width="1.5" d="M0,-3.0v7 M-2.5,-0.5L0,-3.0L2.5,-0.5"/>
  </g>
  <g id="arrowRight" transform="rotate(90) translate(36 -43)">
    <use xlink:href="#rim"/>
    <path pointer-events="none" fill="none" stroke="white" stroke-width="1.5" d="M0,-3.0v7 M-2.5,-0.5L0,-3.0L2.5,-0.5"/>
  </g>
  <g id="arrowDown" transform="rotate(180) translate(-30 -48)">
    <use xlink:href="#rim"/>
    <path pointer-events="none" fill="none" stroke="white" stroke-width="1.5" d="M0,-3.0v7 M-2.5,-0.5L0,-3.0L2.5,-0.5"/>
  </g>
  <g id="arrowLeft" transform="rotate(270) translate(-36 17)">
    <use xlink:href="#rim"/>
    <path pointer-events="none" fill="none" stroke="white" stroke-width="1.5" d="M0,-3.0v7 M-2.5,-0.5L0,-3.0L2.5,-0.5"/>
  </g>
  <g id="resetDef">
    <use xlink:href="#rim2" fill="#404040"><set attributeName="fill" to="#808080" begin="reset.mouseover" end="reset.mouseout"/></use>
  </g>
</defs>
<script type="application/ecmascript">
var viewWidth = 400;
var viewHeight = 911;
var sectionId = 'dynsection-0';
</script>
<script type="application/ecmascript" xlink:href="svg.min.js"/>
<svg id="graph" class="graph">
<g id="viewport">
<title>RCC Exported Macros</title>
<!-- Node2 -->
<g id="Node000002" class="node">
<title>Node2</title>
<g id="a_Node000002"><a xlink:href="group__RCC.html" target="_top" xlink:title="RCC HAL module driver.">
<polygon fill="white" stroke="#666666" points="37,-417 0,-417 0,-398 37,-398 37,-417"/>
<text text-anchor="middle" x="18.5" y="-405" font-family="Helvetica,sans-Serif" font-size="10.00">RCC</text>
</a>
</g>
</g>
<!-- Node1 -->
<g id="Node000001" class="node">
<title>Node1</title>
<g id="a_Node000001"><a xlink:title=" ">
<polygon fill="#999999" stroke="#666666" points="195,-417 73,-417 73,-398 195,-398 195,-417"/>
<text text-anchor="middle" x="134" y="-405" font-family="Helvetica,sans-Serif" font-size="10.00">RCC Exported Macros</text>
</a>
</g>
</g>
<!-- Node2&#45;&gt;Node1 -->
<g id="edge1" class="edge">
<title>Node2&#45;&gt;Node1</title>
<path fill="none" stroke="black" d="M47.4,-407.5C55.12,-407.5 63.8,-407.5 72.59,-407.5"/>
<polygon fill="black" stroke="black" points="47.23,-404 37.23,-407.5 47.23,-411 47.23,-404"/>
</g>
<!-- Node22 -->
<g id="Node000022" class="node">
<title>Node22</title>
<g id="a_Node000022"><a xlink:href="group__RCCEx__MCOx__Clock__Config.html" target="_top" xlink:title=" ">
<polygon fill="white" stroke="#666666" points="385.5,-902.5 237.5,-902.5 237.5,-872.5 385.5,-872.5 385.5,-902.5"/>
<text text-anchor="start" x="245.5" y="-890.5" font-family="Helvetica,sans-Serif" font-size="10.00">RCC Extended MCOx Clock</text>
<text text-anchor="middle" x="311.5" y="-879.5" font-family="Helvetica,sans-Serif" font-size="10.00"> Config</text>
</a>
</g>
</g>
<!-- Node3 -->
<g id="Node000003" class="node">
<title>Node3</title>
<g id="a_Node000003"><a xlink:href="group__RCC__AHB1__Clock__Enable__Disable.html" target="_top" xlink:title="Enable or disable the AHB1 peripheral clock.">
<polygon fill="white" stroke="#666666" points="374.5,-854.5 248.5,-854.5 248.5,-824.5 374.5,-824.5 374.5,-854.5"/>
<text text-anchor="start" x="256.5" y="-842.5" font-family="Helvetica,sans-Serif" font-size="10.00">AHB1 Peripheral Clock</text>
<text text-anchor="middle" x="311.5" y="-831.5" font-family="Helvetica,sans-Serif" font-size="10.00"> Enable Disable</text>
</a>
</g>
</g>
<!-- Node9 -->
<g id="Node000009" class="node">
<title>Node9</title>
<g id="a_Node000009"><a xlink:href="group__RCC__AHB1__Force__Release__Reset.html" target="_top" xlink:title="Force or release AHB1 peripheral reset.">
<polygon fill="white" stroke="#666666" points="369,-806.5 254,-806.5 254,-776.5 369,-776.5 369,-806.5"/>
<text text-anchor="start" x="262" y="-794.5" font-family="Helvetica,sans-Serif" font-size="10.00">AHB1 Force Release</text>
<text text-anchor="middle" x="311.5" y="-783.5" font-family="Helvetica,sans-Serif" font-size="10.00"> Reset</text>
</a>
</g>
</g>
<!-- Node12 -->
<g id="Node000012" class="node">
<title>Node12</title>
<g id="a_Node000012"><a xlink:href="group__RCC__AHB1__LowPower__Enable__Disable.html" target="_top" xlink:title="Enable or disable the AHB1 peripheral clock during Low Power (Sleep) mode.">
<polygon fill="white" stroke="#666666" points="374,-758.5 249,-758.5 249,-728.5 374,-728.5 374,-758.5"/>
<text text-anchor="start" x="257" y="-746.5" font-family="Helvetica,sans-Serif" font-size="10.00">AHB1 Peripheral Low</text>
<text text-anchor="middle" x="311.5" y="-735.5" font-family="Helvetica,sans-Serif" font-size="10.00"> Power Enable Disable</text>
</a>
</g>
</g>
<!-- Node4 -->
<g id="Node000004" class="node">
<title>Node4</title>
<g id="a_Node000004"><a xlink:href="group__RCC__AHB1__Peripheral__Clock__Enable__Disable__Status.html" target="_top" xlink:title="Get the enable or disable status of the AHB1 peripheral clock.">
<polygon fill="white" stroke="#666666" points="374.5,-710.5 248.5,-710.5 248.5,-680.5 374.5,-680.5 374.5,-710.5"/>
<text text-anchor="start" x="256.5" y="-698.5" font-family="Helvetica,sans-Serif" font-size="10.00">AHB1 Peripheral Clock</text>
<text text-anchor="middle" x="311.5" y="-687.5" font-family="Helvetica,sans-Serif" font-size="10.00"> Enable Disable Status</text>
</a>
</g>
</g>
<!-- Node5 -->
<g id="Node000005" class="node">
<title>Node5</title>
<g id="a_Node000005"><a xlink:href="group__RCC__APB1__Clock__Enable__Disable.html" target="_top" xlink:title="Enable or disable the Low Speed APB (APB1) peripheral clock.">
<polygon fill="white" stroke="#666666" points="374,-662.5 249,-662.5 249,-632.5 374,-632.5 374,-662.5"/>
<text text-anchor="start" x="257" y="-650.5" font-family="Helvetica,sans-Serif" font-size="10.00">APB1 Peripheral Clock</text>
<text text-anchor="middle" x="311.5" y="-639.5" font-family="Helvetica,sans-Serif" font-size="10.00"> Enable Disable</text>
</a>
</g>
</g>
<!-- Node10 -->
<g id="Node000010" class="node">
<title>Node10</title>
<g id="a_Node000010"><a xlink:href="group__RCC__APB1__Force__Release__Reset.html" target="_top" xlink:title="Force or release APB1 peripheral reset.">
<polygon fill="white" stroke="#666666" points="368,-614.5 255,-614.5 255,-584.5 368,-584.5 368,-614.5"/>
<text text-anchor="start" x="263" y="-602.5" font-family="Helvetica,sans-Serif" font-size="10.00">APB1 Force Release</text>
<text text-anchor="middle" x="311.5" y="-591.5" font-family="Helvetica,sans-Serif" font-size="10.00"> Reset</text>
</a>
</g>
</g>
<!-- Node13 -->
<g id="Node000013" class="node">
<title>Node13</title>
<g id="a_Node000013"><a xlink:href="group__RCC__APB1__LowPower__Enable__Disable.html" target="_top" xlink:title="Enable or disable the APB1 peripheral clock during Low Power (Sleep) mode.">
<polygon fill="white" stroke="#666666" points="374,-566.5 249,-566.5 249,-536.5 374,-536.5 374,-566.5"/>
<text text-anchor="start" x="257" y="-554.5" font-family="Helvetica,sans-Serif" font-size="10.00">APB1 Peripheral Low</text>
<text text-anchor="middle" x="311.5" y="-543.5" font-family="Helvetica,sans-Serif" font-size="10.00"> Power Enable Disable</text>
</a>
</g>
</g>
<!-- Node6 -->
<g id="Node000006" class="node">
<title>Node6</title>
<g id="a_Node000006"><a xlink:href="group__RCC__APB1__Peripheral__Clock__Enable__Disable__Status.html" target="_top" xlink:title="Get the enable or disable status of the APB1 peripheral clock.">
<polygon fill="white" stroke="#666666" points="374.5,-518.5 248.5,-518.5 248.5,-488.5 374.5,-488.5 374.5,-518.5"/>
<text text-anchor="start" x="256.5" y="-506.5" font-family="Helvetica,sans-Serif" font-size="10.00">APB1 Peripheral Clock</text>
<text text-anchor="middle" x="311.5" y="-495.5" font-family="Helvetica,sans-Serif" font-size="10.00"> Enable Disable Status</text>
</a>
</g>
</g>
<!-- Node7 -->
<g id="Node000007" class="node">
<title>Node7</title>
<g id="a_Node000007"><a xlink:href="group__RCC__APB2__Clock__Enable__Disable.html" target="_top" xlink:title="Enable or disable the High Speed APB (APB2) peripheral clock.">
<polygon fill="white" stroke="#666666" points="374,-470.5 249,-470.5 249,-440.5 374,-440.5 374,-470.5"/>
<text text-anchor="start" x="257" y="-458.5" font-family="Helvetica,sans-Serif" font-size="10.00">APB2 Peripheral Clock</text>
<text text-anchor="middle" x="311.5" y="-447.5" font-family="Helvetica,sans-Serif" font-size="10.00"> Enable Disable</text>
</a>
</g>
</g>
<!-- Node11 -->
<g id="Node000011" class="node">
<title>Node11</title>
<g id="a_Node000011"><a xlink:href="group__RCC__APB2__Force__Release__Reset.html" target="_top" xlink:title="Force or release APB2 peripheral reset.">
<polygon fill="white" stroke="#666666" points="368,-422.5 255,-422.5 255,-392.5 368,-392.5 368,-422.5"/>
<text text-anchor="start" x="263" y="-410.5" font-family="Helvetica,sans-Serif" font-size="10.00">APB2 Force Release</text>
<text text-anchor="middle" x="311.5" y="-399.5" font-family="Helvetica,sans-Serif" font-size="10.00"> Reset</text>
</a>
</g>
</g>
<!-- Node14 -->
<g id="Node000014" class="node">
<title>Node14</title>
<g id="a_Node000014"><a xlink:href="group__RCC__APB2__LowPower__Enable__Disable.html" target="_top" xlink:title="Enable or disable the APB2 peripheral clock during Low Power (Sleep) mode.">
<polygon fill="white" stroke="#666666" points="374,-374.5 249,-374.5 249,-344.5 374,-344.5 374,-374.5"/>
<text text-anchor="start" x="257" y="-362.5" font-family="Helvetica,sans-Serif" font-size="10.00">APB2 Peripheral Low</text>
<text text-anchor="middle" x="311.5" y="-351.5" font-family="Helvetica,sans-Serif" font-size="10.00"> Power Enable Disable</text>
</a>
</g>
</g>
<!-- Node8 -->
<g id="Node000008" class="node">
<title>Node8</title>
<g id="a_Node000008"><a xlink:href="group__RCC__APB2__Peripheral__Clock__Enable__Disable__Status.html" target="_top" xlink:title="Get the enable or disable status of the APB2 peripheral clock.">
<polygon fill="white" stroke="#666666" points="374.5,-326.5 248.5,-326.5 248.5,-296.5 374.5,-296.5 374.5,-326.5"/>
<text text-anchor="start" x="256.5" y="-314.5" font-family="Helvetica,sans-Serif" font-size="10.00">APB2 Peripheral Clock</text>
<text text-anchor="middle" x="311.5" y="-303.5" font-family="Helvetica,sans-Serif" font-size="10.00"> Enable Disable Status</text>
</a>
</g>
</g>
<!-- Node1&#45;&gt;Node22 -->
<g id="edge21" class="edge">
<title>Node1&#45;&gt;Node22</title>
<path fill="none" stroke="black" d="M136.53,-427.42C143.01,-506.58 170.65,-797.74 231,-863.5 234.12,-866.9 237.7,-869.82 241.58,-872.34"/>
<polygon fill="black" stroke="black" points="140.01,-427.02 135.73,-417.33 133.04,-427.58 140.01,-427.02"/>
</g>
<!-- Node1&#45;&gt;Node3 -->
<g id="edge2" class="edge">
<title>Node1&#45;&gt;Node3</title>
<path fill="none" stroke="black" d="M137.04,-427.17C145.03,-500.61 176.48,-757.49 231,-815.5 235.84,-820.65 241.74,-824.7 248.11,-827.9"/>
<polygon fill="black" stroke="black" points="140.5,-426.59 135.96,-417.02 133.54,-427.33 140.5,-426.59"/>
</g>
<!-- Node1&#45;&gt;Node9 -->
<g id="edge8" class="edge">
<title>Node1&#45;&gt;Node9</title>
<path fill="none" stroke="black" d="M137.74,-427.44C147.47,-495.52 182.41,-717.3 231,-767.5 237.32,-774.03 245.34,-778.79 253.85,-782.27"/>
<polygon fill="black" stroke="black" points="141.16,-426.65 136.31,-417.23 134.23,-427.62 141.16,-426.65"/>
</g>
<!-- Node1&#45;&gt;Node12 -->
<g id="edge11" class="edge">
<title>Node1&#45;&gt;Node12</title>
<path fill="none" stroke="black" d="M135.04,-427.37C136.26,-482.07 147.35,-636.29 231,-719.5 236.11,-724.58 242.26,-728.6 248.84,-731.76"/>
<polygon fill="black" stroke="black" points="138.54,-427.23 134.91,-417.27 131.54,-427.32 138.54,-427.23"/>
</g>
<!-- Node1&#45;&gt;Node4 -->
<g id="edge3" class="edge">
<title>Node1&#45;&gt;Node4</title>
<path fill="none" stroke="black" d="M136.32,-427.19C140.65,-475.92 158.67,-603.09 231,-671.5 236.03,-676.26 241.96,-680.07 248.29,-683.13"/>
<polygon fill="black" stroke="black" points="139.79,-426.75 135.52,-417.06 132.82,-427.3 139.79,-426.75"/>
</g>
<!-- Node1&#45;&gt;Node5 -->
<g id="edge4" class="edge">
<title>Node1&#45;&gt;Node5</title>
<path fill="none" stroke="black" d="M138.13,-427.28C145.89,-469.65 169.98,-569.67 231,-623.5 236.19,-628.08 242.23,-631.78 248.61,-634.78"/>
<polygon fill="black" stroke="black" points="141.58,-426.64 136.43,-417.38 134.68,-427.83 141.58,-426.64"/>
</g>
<!-- Node1&#45;&gt;Node10 -->
<g id="edge9" class="edge">
<title>Node1&#45;&gt;Node10</title>
<path fill="none" stroke="black" d="M140.82,-427.1C152.25,-462.15 180.96,-535.66 231,-575.5 237.99,-581.07 246.26,-585.35 254.78,-588.63"/>
<polygon fill="black" stroke="black" points="144.04,-425.66 137.72,-417.16 137.36,-427.74 144.04,-425.66"/>
</g>
<!-- Node1&#45;&gt;Node13 -->
<g id="edge12" class="edge">
<title>Node1&#45;&gt;Node13</title>
<path fill="none" stroke="black" d="M145.06,-426.23C160.23,-452.67 191.41,-500.73 231,-527.5 236.49,-531.22 242.58,-534.37 248.87,-537.05"/>
<polygon fill="black" stroke="black" points="147.98,-424.27 140.05,-417.24 141.86,-427.67 147.98,-424.27"/>
</g>
<!-- Node1&#45;&gt;Node6 -->
<g id="edge5" class="edge">
<title>Node1&#45;&gt;Node6</title>
<path fill="none" stroke="black" d="M152.68,-423.8C171.03,-439.96 201.18,-464.41 231,-479.5 237.56,-482.82 244.66,-485.77 251.83,-488.36"/>
<polygon fill="black" stroke="black" points="154.9,-421.1 145.12,-417.03 150.23,-426.31 154.9,-421.1"/>
</g>
<!-- Node1&#45;&gt;Node7 -->
<g id="edge6" class="edge">
<title>Node1&#45;&gt;Node7</title>
<path fill="none" stroke="black" d="M179.93,-419.79C202.93,-426.08 231.13,-433.79 255.43,-440.44"/>
<polygon fill="black" stroke="black" points="180.66,-416.36 170.09,-417.1 178.82,-423.11 180.66,-416.36"/>
</g>
<!-- Node1&#45;&gt;Node11 -->
<g id="edge10" class="edge">
<title>Node1&#45;&gt;Node11</title>
<path fill="none" stroke="black" d="M205.47,-407.5C221.85,-407.5 239.06,-407.5 254.71,-407.5"/>
<polygon fill="black" stroke="black" points="205.4,-404 195.4,-407.5 205.4,-411 205.4,-404"/>
</g>
<!-- Node1&#45;&gt;Node14 -->
<g id="edge13" class="edge">
<title>Node1&#45;&gt;Node14</title>
<path fill="none" stroke="black" d="M179.93,-395.21C202.93,-388.92 231.13,-381.21 255.43,-374.56"/>
<polygon fill="black" stroke="black" points="178.82,-391.89 170.09,-397.9 180.66,-398.64 178.82,-391.89"/>
</g>
<!-- Node1&#45;&gt;Node8 -->
<g id="edge7" class="edge">
<title>Node1&#45;&gt;Node8</title>
<path fill="none" stroke="black" d="M152.68,-391.2C171.03,-375.04 201.18,-350.59 231,-335.5 237.56,-332.18 244.66,-329.23 251.83,-326.64"/>
<polygon fill="black" stroke="black" points="150.23,-388.69 145.12,-397.97 154.9,-393.9 150.23,-388.69"/>
</g>
<!-- Node23 -->
<g id="Node000023" class="node">
<title>Node23</title>
<g id="a_Node000023"><a xlink:href="group__RCC__Flags__Interrupts__Management.html" target="_top" xlink:title="macros to manage the specified RCC Flags and interrupts.">
<polygon fill="white" stroke="#666666" points="392,-278 231,-278 231,-259 392,-259 392,-278"/>
<text text-anchor="middle" x="311.5" y="-266" font-family="Helvetica,sans-Serif" font-size="10.00">Flags Interrupts Management</text>
</a>
</g>
</g>
<!-- Node1&#45;&gt;Node23 -->
<g id="edge22" class="edge">
<title>Node1&#45;&gt;Node23</title>
<path fill="none" stroke="black" d="M144.64,-388.85C159.46,-362.1 190.45,-313.23 231,-287.5 237.11,-283.62 243.94,-280.54 250.97,-278.08"/>
<polygon fill="black" stroke="black" points="141.41,-387.46 139.76,-397.93 147.58,-390.78 141.41,-387.46"/>
</g>
<!-- Node21 -->
<g id="Node000021" class="node">
<title>Node21</title>
<g id="a_Node000021"><a xlink:href="group__RCC__Get__Clock__source.html" target="_top" xlink:title=" ">
<polygon fill="white" stroke="#666666" points="361,-241 262,-241 262,-222 361,-222 361,-241"/>
<text text-anchor="middle" x="311.5" y="-229" font-family="Helvetica,sans-Serif" font-size="10.00">Get Clock source</text>
</a>
</g>
</g>
<!-- Node1&#45;&gt;Node21 -->
<g id="edge20" class="edge">
<title>Node1&#45;&gt;Node21</title>
<path fill="none" stroke="black" d="M141.15,-388.42C152.95,-355.01 182.02,-286.08 231,-250.5 239.96,-243.99 250.83,-239.69 261.63,-236.85"/>
<polygon fill="black" stroke="black" points="137.83,-387.34 137.93,-397.93 144.45,-389.59 137.83,-387.34"/>
</g>
<!-- Node17 -->
<g id="Node000017" class="node">
<title>Node17</title>
<g id="a_Node000017"><a xlink:href="group__RCC__HSE__Configuration.html" target="_top" xlink:title=" ">
<polygon fill="white" stroke="#666666" points="363.5,-204 259.5,-204 259.5,-185 363.5,-185 363.5,-204"/>
<text text-anchor="middle" x="311.5" y="-192" font-family="Helvetica,sans-Serif" font-size="10.00">HSE Configuration</text>
</a>
</g>
</g>
<!-- Node1&#45;&gt;Node17 -->
<g id="edge16" class="edge">
<title>Node1&#45;&gt;Node17</title>
<path fill="none" stroke="black" d="M138.97,-387.6C147.94,-348 173.64,-259.22 231,-213.5 239.1,-207.04 249.05,-202.72 259.13,-199.85"/>
<polygon fill="black" stroke="black" points="135.5,-387.08 136.83,-397.6 142.34,-388.55 135.5,-387.08"/>
</g>
<!-- Node15 -->
<g id="Node000015" class="node">
<title>Node15</title>
<g id="a_Node000015"><a xlink:href="group__RCC__HSI__Configuration.html" target="_top" xlink:title=" ">
<polygon fill="white" stroke="#666666" points="362,-167 261,-167 261,-148 362,-148 362,-167"/>
<text text-anchor="middle" x="311.5" y="-155" font-family="Helvetica,sans-Serif" font-size="10.00">HSI Configuration</text>
</a>
</g>
</g>
<!-- Node1&#45;&gt;Node15 -->
<g id="edge14" class="edge">
<title>Node1&#45;&gt;Node15</title>
<path fill="none" stroke="black" d="M137.23,-387.63C143.37,-342.73 164.71,-232.99 231,-176.5 239.42,-169.32 250.1,-164.75 260.86,-161.87"/>
<polygon fill="black" stroke="black" points="133.73,-387.44 135.95,-397.8 140.67,-388.31 133.73,-387.44"/>
</g>
<!-- Node19 -->
<g id="Node000019" class="node">
<title>Node19</title>
<g id="a_Node000019"><a xlink:href="group__RCC__Internal__RTC__Clock__Configuration.html" target="_top" xlink:title=" ">
<polygon fill="white" stroke="#666666" points="378,-130 245,-130 245,-111 378,-111 378,-130"/>
<text text-anchor="middle" x="311.5" y="-118" font-family="Helvetica,sans-Serif" font-size="10.00">RTC Clock Configuration</text>
</a>
</g>
</g>
<!-- Node1&#45;&gt;Node19 -->
<g id="edge18" class="edge">
<title>Node1&#45;&gt;Node19</title>
<path fill="none" stroke="black" d="M135.93,-387.9C139.37,-338.33 155.54,-207.13 231,-139.5 235.23,-135.71 240.07,-132.64 245.24,-130.16"/>
<polygon fill="black" stroke="black" points="132.43,-387.74 135.33,-397.93 139.42,-388.15 132.43,-387.74"/>
</g>
<!-- Node18 -->
<g id="Node000018" class="node">
<title>Node18</title>
<g id="a_Node000018"><a xlink:href="group__RCC__LSE__Configuration.html" target="_top" xlink:title=" ">
<polygon fill="white" stroke="#666666" points="362.5,-93 260.5,-93 260.5,-74 362.5,-74 362.5,-93"/>
<text text-anchor="middle" x="311.5" y="-81" font-family="Helvetica,sans-Serif" font-size="10.00">LSE Configuration</text>
</a>
</g>
</g>
<!-- Node1&#45;&gt;Node18 -->
<g id="edge17" class="edge">
<title>Node1&#45;&gt;Node18</title>
<path fill="none" stroke="black" d="M134.95,-387.81C135.93,-333.65 146.46,-181.3 231,-102.5 239.1,-94.95 249.64,-90.24 260.39,-87.34"/>
<polygon fill="black" stroke="black" points="131.45,-387.78 134.86,-397.81 138.45,-387.84 131.45,-387.78"/>
</g>
<!-- Node16 -->
<g id="Node000016" class="node">
<title>Node16</title>
<g id="a_Node000016"><a xlink:href="group__RCC__LSI__Configuration.html" target="_top" xlink:title=" ">
<polygon fill="white" stroke="#666666" points="361,-56 262,-56 262,-37 361,-37 361,-56"/>
<text text-anchor="middle" x="311.5" y="-44" font-family="Helvetica,sans-Serif" font-size="10.00">LSI Configuration</text>
</a>
</g>
</g>
<!-- Node1&#45;&gt;Node16 -->
<g id="edge15" class="edge">
<title>Node1&#45;&gt;Node16</title>
<path fill="none" stroke="black" d="M137.91,-387.61C147.95,-321.61 183.2,-111.47 231,-65.5 239.39,-57.43 250.56,-52.59 261.87,-49.72"/>
<polygon fill="black" stroke="black" points="134.39,-387.46 136.38,-397.87 141.32,-388.5 134.39,-387.46"/>
</g>
<!-- Node20 -->
<g id="Node000020" class="node">
<title>Node20</title>
<g id="a_Node000020"><a xlink:href="group__RCC__PLL__Configuration.html" target="_top" xlink:title=" ">
<polygon fill="white" stroke="#666666" points="362,-19 261,-19 261,0 362,0 362,-19"/>
<text text-anchor="middle" x="311.5" y="-7" font-family="Helvetica,sans-Serif" font-size="10.00">PLL Configuration</text>
</a>
</g>
</g>
<!-- Node1&#45;&gt;Node20 -->
<g id="edge19" class="edge">
<title>Node1&#45;&gt;Node20</title>
<path fill="none" stroke="black" d="M137.31,-387.78C145.93,-317.45 178.48,-80.32 231,-28.5 239.08,-20.53 249.88,-15.68 260.9,-12.79"/>
<polygon fill="black" stroke="black" points="133.81,-387.57 136.09,-397.92 140.76,-388.4 133.81,-387.57"/>
</g>
</g>
</svg>

<g id="navigator" transform="translate(0 0)" fill="#404254">
  <rect fill="#f2f5e9" fill-opacity="0.5" stroke="#606060" stroke-width=".5" x="0" y="0" width="60" height="60"/>
  <use id="zoomplus" xlink:href="#zoomPlus" x="17" y="9" onmousedown="handleZoom(evt,'in')"/>
  <use id="zoomminus" xlink:href="#zoomMin" x="42" y="9" onmousedown="handleZoom(evt,'out')"/>
  <use id="reset" xlink:href="#resetDef" x="30" y="36" onmousedown="handleReset()"/>
   <use id="arrowup" xlink:href="#arrowUp" x="0" y="0" onmousedown="handlePan(0,-1)"/>
  <use id="arrowright" xlink:href="#arrowRight" x="0" y="0" onmousedown="handlePan(1,0)"/>
  <use id="arrowdown" xlink:href="#arrowDown" x="0" y="0" onmousedown="handlePan(0,1)"/>
  <use id="arrowleft" xlink:href="#arrowLeft" x="0" y="0" onmousedown="handlePan(-1,0)"/>
</g>
<svg viewBox="0 0 15 15" width="100%" height="30px" preserveAspectRatio="xMaxYMin meet">
 <g id="arrow_out" transform="scale(0.3 0.3)">
  <a xlink:href="group__RCC__Exported__Macros_org.svg" target="_base">
   <rect id="button" ry="5" rx="5" y="6" x="6" height="38" width="38"
        fill="#f2f5e9" fill-opacity="0.5" stroke="#606060" stroke-width="1.0"/>
   <path id="arrow"
     d="M 11.500037,31.436501 C 11.940474,20.09759 22.043105,11.32322 32.158766,21.979434 L 37.068811,17.246167 C 37.068811,17.246167 37.088388,32 37.088388,32 L 22.160133,31.978069 C 22.160133,31.978069 26.997745,27.140456 26.997745,27.140456 C 18.528582,18.264221 13.291696,25.230495 11.500037,31.436501 z"
     style="fill:#404040;"/>
  </a>
 </g>
</svg>

<style type='text/css'>
<![CDATA[
[data-mouse-over-selected='false'] { opacity: 0.7; }
[data-mouse-over-selected='true']  { opacity: 1.0; }
]]>
</style>
<script type="application/ecmascript"><![CDATA[
document.addEventListener('DOMContentLoaded', (event) => {
  highlightEdges();
  highlightAdjacentNodes();
});
]]></script>
</svg>
