<?xml version="1.0" encoding="UTF-8" standalone="no"?>
<!DOCTYPE svg PUBLIC "-//W3C//DTD SVG 1.1//EN"
 "http://www.w3.org/Graphics/SVG/1.1/DTD/svg11.dtd">
<!-- Generated by graphviz version 12.2.1 (20241206.2353)
 -->
<!-- Title: GPIO Private Macros Pages: 1 -->
<svg width="352pt" height="80pt"
 viewBox="0.00 0.00 352.25 80.12" xmlns="http://www.w3.org/2000/svg" xmlns:xlink="http://www.w3.org/1999/xlink">

<svg id="main" version="1.1" xmlns="http://www.w3.org/2000/svg" xmlns:xlink="http://www.w3.org/1999/xlink" xml:space="preserve">

<style type="text/css"><![CDATA[
.node, .edge {opacity: 0.7;}
.node.selected, .edge.selected {opacity: 1;}
.edge:hover path { stroke: red; }
.edge:hover polygon { stroke: red; fill: red; }
]]></style>
<script type="application/ecmascript" xlink:href="svg.min.js"/>
<svg id="graph" class="graph">
<g id="graph0" class="graph" transform="scale(1 1) rotate(0) translate(4 76.12)">
<title>GPIO Private Macros</title>
<!-- Node2 -->
<g id="Node000002" class="node">
<title>Node2</title>
<g id="a_Node000002"><a xlink:href="group__GPIOEx.html" target="_top" xlink:title=" ">
<polygon fill="white" stroke="#666666" points="50.5,-49.12 0,-49.12 0,-28.38 50.5,-28.38 50.5,-49.12"/>
<text text-anchor="middle" x="25.25" y="-35.62" font-family="Helvetica,sans-Serif" font-size="10.00">GPIOEx</text>
</a>
</g>
</g>
<!-- Node1 -->
<g id="Node000001" class="node">
<title>Node1</title>
<g id="a_Node000001"><a xlink:title=" ">
<polygon fill="#999999" stroke="#666666" points="194,-49.12 86.5,-49.12 86.5,-28.38 194,-28.38 194,-49.12"/>
<text text-anchor="middle" x="140.25" y="-35.62" font-family="Helvetica,sans-Serif" font-size="10.00">GPIO Private Macros</text>
</a>
</g>
</g>
<!-- Node2&#45;&gt;Node1 -->
<g id="edge1" class="edge">
<title>Node2&#45;&gt;Node1</title>
<path fill="none" stroke="black" d="M62.15,-38.75C69.75,-38.75 77.93,-38.75 86.02,-38.75"/>
<polygon fill="black" stroke="black" points="62.28,-35.25 52.28,-38.75 62.28,-42.25 62.28,-35.25"/>
</g>
<!-- Node3 -->
<g id="Node000003" class="node">
<title>Node3</title>
<g id="a_Node000003"><a xlink:href="group__GPIOEx__Get__Port__Index.html" target="_top" xlink:title=" ">
<polygon fill="white" stroke="#666666" points="340.88,-72.12 233.38,-72.12 233.38,-51.38 340.88,-51.38 340.88,-72.12"/>
<text text-anchor="middle" x="287.12" y="-58.62" font-family="Helvetica,sans-Serif" font-size="10.00">GPIO Get Port Index</text>
</a>
</g>
</g>
<!-- Node4 -->
<g id="Node000004" class="node">
<title>Node4</title>
<g id="a_Node000004"><a xlink:href="group__GPIOEx__IS__Alternat__function__selection.html" target="_top" xlink:title=" ">
<polygon fill="white" stroke="#666666" points="344.25,-33.5 230,-33.5 230,0 344.25,0 344.25,-33.5"/>
<text text-anchor="start" x="238" y="-20" font-family="Helvetica,sans-Serif" font-size="10.00">GPIO Check Alternate</text>
<text text-anchor="middle" x="287.12" y="-7.25" font-family="Helvetica,sans-Serif" font-size="10.00"> Function</text>
</a>
</g>
</g>
<!-- Node1&#45;&gt;Node3 -->
<g id="edge2" class="edge">
<title>Node1&#45;&gt;Node3</title>
<path fill="none" stroke="black" d="M205.47,-48.95C214.67,-50.41 224.05,-51.9 233.01,-53.32"/>
<polygon fill="black" stroke="black" points="206.29,-45.53 195.87,-47.42 205.2,-52.45 206.29,-45.53"/>
</g>
<!-- Node1&#45;&gt;Node4 -->
<g id="edge3" class="edge">
<title>Node1&#45;&gt;Node4</title>
<path fill="none" stroke="black" d="M205.57,-28.98C213.57,-27.77 221.72,-26.53 229.6,-25.33"/>
<polygon fill="black" stroke="black" points="205.23,-25.49 195.87,-30.46 206.28,-32.41 205.23,-25.49"/>
</g>
</g>
</svg>
</svg>

<style type='text/css'>
<![CDATA[
[data-mouse-over-selected='false'] { opacity: 0.7; }
[data-mouse-over-selected='true']  { opacity: 1.0; }
]]>
</style>
<script type="application/ecmascript"><![CDATA[
document.addEventListener('DOMContentLoaded', (event) => {
  highlightEdges();
  highlightAdjacentNodes();
});
]]></script>
</svg>
