<?xml version="1.0" encoding="UTF-8" standalone="no"?>
<!DOCTYPE svg PUBLIC "-//W3C//DTD SVG 1.1//EN"
 "http://www.w3.org/Graphics/SVG/1.1/DTD/svg11.dtd">
<!-- Generated by graphviz version 12.2.1 (20241206.2353)
 -->
<!-- Title: UTILS Exported Constants Pages: 1 -->
<svg width="370pt" height="68pt"
 viewBox="0.00 0.00 370.25 67.75" xmlns="http://www.w3.org/2000/svg" xmlns:xlink="http://www.w3.org/1999/xlink">
<g id="page0,1_graph0" class="graph" transform="scale(1 1) rotate(0) translate(4 63.75)">
<title>UTILS Exported Constants</title>
<!-- Node3 -->
<g id="Node000003" class="node">
<title>Node3</title>
<g id="a_Node000003"><a xlink:href="group__UTILS__EC__HSE__BYPASS.html" target="_top" xlink:title=" ">
<polygon fill="white" stroke="#666666" points="362.25,-59.75 248.75,-59.75 248.75,-39 362.25,-39 362.25,-59.75"/>
<text text-anchor="middle" x="305.5" y="-46.25" font-family="Helvetica,sans-Serif" font-size="10.00">HSE Bypass activation</text>
</a>
</g>
</g>
<!-- Node4 -->
<g id="Node000004" class="node">
<title>Node4</title>
<g id="a_Node000004"><a xlink:href="group__UTILS__EC__PACKAGETYPE.html" target="_top" xlink:title=" ">
<polygon fill="white" stroke="#666666" points="348.75,-20.75 262.25,-20.75 262.25,0 348.75,0 348.75,-20.75"/>
<text text-anchor="middle" x="305.5" y="-7.25" font-family="Helvetica,sans-Serif" font-size="10.00">PACKAGE TYPE</text>
</a>
</g>
</g>
<!-- Node2 -->
<g id="Node000002" class="node">
<title>Node2</title>
<g id="a_Node000002"><a xlink:href="group__UTILS__LL.html" target="_top" xlink:title=" ">
<polygon fill="white" stroke="#666666" points="42.25,-39.75 0,-39.75 0,-19 42.25,-19 42.25,-39.75"/>
<text text-anchor="middle" x="21.12" y="-26.25" font-family="Helvetica,sans-Serif" font-size="10.00">UTILS</text>
</a>
</g>
</g>
<!-- Node1 -->
<g id="Node000001" class="node">
<title>Node1</title>
<g id="a_Node000001"><a xlink:title=" ">
<polygon fill="#999999" stroke="#666666" points="212.75,-39.75 78.25,-39.75 78.25,-19 212.75,-19 212.75,-39.75"/>
<text text-anchor="middle" x="145.5" y="-26.25" font-family="Helvetica,sans-Serif" font-size="10.00">UTILS Exported Constants</text>
</a>
</g>
</g>
<!-- Node2&#45;&gt;Node1 -->
<g id="edge1" class="edge">
<title>Node2&#45;&gt;Node1</title>
<path fill="none" stroke="black" d="M53.96,-29.38C61.41,-29.38 69.62,-29.38 77.97,-29.38"/>
<polygon fill="black" stroke="black" points="54.12,-25.88 44.12,-29.38 54.12,-32.88 54.12,-25.88"/>
</g>
<!-- Node1&#45;&gt;Node3 -->
<g id="edge2" class="edge">
<title>Node1&#45;&gt;Node3</title>
<path fill="none" stroke="black" d="M224.2,-39.21C232.4,-40.25 240.63,-41.29 248.52,-42.29"/>
<polygon fill="black" stroke="black" points="224.91,-35.77 214.55,-37.99 224.03,-42.72 224.91,-35.77"/>
</g>
<!-- Node1&#45;&gt;Node4 -->
<g id="edge3" class="edge">
<title>Node1&#45;&gt;Node4</title>
<path fill="none" stroke="black" d="M224.36,-20.01C237.29,-18.46 250.26,-16.9 261.88,-15.5"/>
<polygon fill="black" stroke="black" points="224.06,-16.52 214.55,-21.19 224.9,-23.47 224.06,-16.52"/>
</g>
</g>
</svg>
