<?xml version="1.0" encoding="UTF-8" standalone="no"?>
<!DOCTYPE svg PUBLIC "-//W3C//DTD SVG 1.1//EN"
 "http://www.w3.org/Graphics/SVG/1.1/DTD/svg11.dtd">
<!-- Generated by graphviz version 12.2.1 (20241206.2353)
 -->
<!-- Title: RCC_Exported_Functions Pages: 1 -->
<svg width="379pt" height="94pt"
 viewBox="0.00 0.00 378.50 93.50" xmlns="http://www.w3.org/2000/svg" xmlns:xlink="http://www.w3.org/1999/xlink">
<g id="page0,1_graph0" class="graph" transform="scale(1 1) rotate(0) translate(4 89.5)">
<title>RCC_Exported_Functions</title>
<!-- Node2 -->
<g id="Node000002" class="node">
<title>Node2</title>
<g id="a_Node000002"><a xlink:href="group__RCC.html" target="_top" xlink:title="RCC HAL module driver.">
<polygon fill="white" stroke="#666666" points="35.5,-53.12 0,-53.12 0,-32.38 35.5,-32.38 35.5,-53.12"/>
<text text-anchor="middle" x="17.75" y="-39.62" font-family="Helvetica,sans-Serif" font-size="10.00">RCC</text>
</a>
</g>
</g>
<!-- Node1 -->
<g id="Node000001" class="node">
<title>Node1</title>
<g id="a_Node000001"><a xlink:title=" ">
<polygon fill="#999999" stroke="#666666" points="203,-53.12 71.5,-53.12 71.5,-32.38 203,-32.38 203,-53.12"/>
<text text-anchor="middle" x="137.25" y="-39.62" font-family="Helvetica,sans-Serif" font-size="10.00">RCC_Exported_Functions</text>
</a>
</g>
</g>
<!-- Node2&#45;&gt;Node1 -->
<g id="edge1" class="edge">
<title>Node2&#45;&gt;Node1</title>
<path fill="none" stroke="black" d="M47.26,-42.75C54.61,-42.75 62.83,-42.75 71.22,-42.75"/>
<polygon fill="black" stroke="black" points="47.35,-39.25 37.35,-42.75 47.35,-46.25 47.35,-39.25"/>
</g>
<!-- Node3 -->
<g id="Node000003" class="node">
<title>Node3</title>
<g id="a_Node000003"><a xlink:href="group__RCC__Exported__Functions__Group1.html" target="_top" xlink:title=" ">
<polygon fill="white" stroke="#666666" points="370.5,-85.5 239,-85.5 239,-52 370.5,-52 370.5,-85.5"/>
<text text-anchor="start" x="247" y="-72" font-family="Helvetica,sans-Serif" font-size="10.00">RCC_Exported_Functions</text>
<text text-anchor="middle" x="304.75" y="-59.25" font-family="Helvetica,sans-Serif" font-size="10.00">_Group1</text>
</a>
</g>
</g>
<!-- Node1&#45;&gt;Node3 -->
<g id="edge2" class="edge">
<title>Node1&#45;&gt;Node3</title>
<path fill="none" stroke="black" d="M214.53,-54.73C222.62,-56 230.79,-57.29 238.73,-58.54"/>
<polygon fill="black" stroke="black" points="215.1,-51.28 204.68,-53.19 214.02,-58.2 215.1,-51.28"/>
</g>
<!-- Node4 -->
<g id="Node000004" class="node">
<title>Node4</title>
<g id="a_Node000004"><a xlink:href="group__RCC__Exported__Functions__Group2.html" target="_top" xlink:title=" ">
<polygon fill="white" stroke="#666666" points="370.5,-33.5 239,-33.5 239,0 370.5,0 370.5,-33.5"/>
<text text-anchor="start" x="247" y="-20" font-family="Helvetica,sans-Serif" font-size="10.00">RCC_Exported_Functions</text>
<text text-anchor="middle" x="304.75" y="-7.25" font-family="Helvetica,sans-Serif" font-size="10.00">_Group2</text>
</a>
</g>
</g>
<!-- Node1&#45;&gt;Node4 -->
<g id="edge3" class="edge">
<title>Node1&#45;&gt;Node4</title>
<path fill="none" stroke="black" d="M214.53,-30.77C222.62,-29.5 230.79,-28.21 238.73,-26.96"/>
<polygon fill="black" stroke="black" points="214.02,-27.3 204.68,-32.31 215.1,-34.22 214.02,-27.3"/>
</g>
</g>
</svg>
