<?xml version="1.0" encoding="UTF-8" standalone="no"?>
<!DOCTYPE svg PUBLIC "-//W3C//DTD SVG 1.1//EN"
 "http://www.w3.org/Graphics/SVG/1.1/DTD/svg11.dtd">
<!-- Generated by graphviz version 2.43.0 (0)
 -->
<!-- Title: CORTEX Exported Constants Pages: 1 -->
<svg width="413pt" height="64pt"
 viewBox="0.00 0.00 413.00 64.00" xmlns="http://www.w3.org/2000/svg" xmlns:xlink="http://www.w3.org/1999/xlink">
<g id="graph0" class="graph" transform="scale(1 1) rotate(0) translate(4 60)">
<title>CORTEX Exported Constants</title>
<!-- Node2 -->
<g id="Node000002" class="node">
<title>Node2</title>
<g id="a_Node000002"><a xlink:href="group__CORTEX__LL.html" target="_top" xlink:title=" ">
<polygon fill="white" stroke="#666666" points="56,-37 0,-37 0,-18 56,-18 56,-37"/>
<text text-anchor="middle" x="28" y="-25" font-family="Helvetica,sans-Serif" font-size="10.00">CORTEX</text>
</a>
</g>
</g>
<!-- Node1 -->
<g id="Node000001" class="node">
<title>Node1</title>
<g id="a_Node000001"><a xlink:title=" ">
<polygon fill="#999999" stroke="#666666" points="246,-37 92,-37 92,-18 246,-18 246,-37"/>
<text text-anchor="middle" x="169" y="-25" font-family="Helvetica,sans-Serif" font-size="10.00">CORTEX Exported Constants</text>
</a>
</g>
</g>
<!-- Node2&#45;&gt;Node1 -->
<g id="edge1" class="edge">
<title>Node2&#45;&gt;Node1</title>
<path fill="none" stroke="black" d="M66.19,-27.5C74.2,-27.5 82.94,-27.5 91.84,-27.5"/>
<polygon fill="black" stroke="black" points="66.13,-24 56.13,-27.5 66.13,-31 66.13,-24"/>
</g>
<!-- Node3 -->
<g id="Node000003" class="node">
<title>Node3</title>
<g id="a_Node000003"><a xlink:href="group__CORTEX__LL__EC__CLKSOURCE__HCLK.html" target="_top" xlink:title=" ">
<polygon fill="white" stroke="#666666" points="405,-56 282,-56 282,-37 405,-37 405,-56"/>
<text text-anchor="middle" x="343.5" y="-44" font-family="Helvetica,sans-Serif" font-size="10.00">SYSTICK Clock Source</text>
</a>
</g>
</g>
<!-- Node4 -->
<g id="Node000004" class="node">
<title>Node4</title>
<g id="a_Node000004"><a xlink:href="group__CORTEX__LL__EC__FAULT.html" target="_top" xlink:title=" ">
<polygon fill="white" stroke="#666666" points="396.5,-19 290.5,-19 290.5,0 396.5,0 396.5,-19"/>
<text text-anchor="middle" x="343.5" y="-7" font-family="Helvetica,sans-Serif" font-size="10.00">Handler Fault type</text>
</a>
</g>
</g>
<!-- Node1&#45;&gt;Node3 -->
<g id="edge2" class="edge">
<title>Node1&#45;&gt;Node3</title>
<path fill="none" stroke="black" d="M256.26,-37C264.87,-37.95 273.49,-38.9 281.76,-39.81"/>
<polygon fill="black" stroke="black" points="256.49,-33.5 246.16,-35.89 255.72,-40.46 256.49,-33.5"/>
</g>
<!-- Node1&#45;&gt;Node4 -->
<g id="edge3" class="edge">
<title>Node1&#45;&gt;Node4</title>
<path fill="none" stroke="black" d="M256.33,-18.49C267.92,-17.28 279.5,-16.07 290.25,-14.95"/>
<polygon fill="black" stroke="black" points="255.75,-15.03 246.16,-19.55 256.47,-22 255.75,-15.03"/>
</g>
</g>
</svg>
