<?xml version="1.0" encoding="UTF-8" standalone="no"?>
<!DOCTYPE svg PUBLIC "-//W3C//DTD SVG 1.1//EN"
 "http://www.w3.org/Graphics/SVG/1.1/DTD/svg11.dtd">
<!-- Generated by graphviz version 12.2.1 (20241206.2353)
 -->
<!-- Title: RTC_Exported_Functions Pages: 1 -->
<svg width="376pt" height="250pt"
 viewBox="0.00 0.00 376.25 249.50" xmlns="http://www.w3.org/2000/svg" xmlns:xlink="http://www.w3.org/1999/xlink">
<g id="page0,1_graph0" class="graph" transform="scale(1 1) rotate(0) translate(4 245.5)">
<title>RTC_Exported_Functions</title>
<!-- Node2 -->
<g id="Node000002" class="node">
<title>Node2</title>
<g id="a_Node000002"><a xlink:href="group__RTC.html" target="_top" xlink:title="RTC HAL module driver.">
<polygon fill="white" stroke="#666666" points="34.75,-131.12 0,-131.12 0,-110.38 34.75,-110.38 34.75,-131.12"/>
<text text-anchor="middle" x="17.38" y="-117.62" font-family="Helvetica,sans-Serif" font-size="10.00">RTC</text>
</a>
</g>
</g>
<!-- Node1 -->
<g id="Node000001" class="node">
<title>Node1</title>
<g id="a_Node000001"><a xlink:title=" ">
<polygon fill="#999999" stroke="#666666" points="201.5,-131.12 70.75,-131.12 70.75,-110.38 201.5,-110.38 201.5,-131.12"/>
<text text-anchor="middle" x="136.12" y="-117.62" font-family="Helvetica,sans-Serif" font-size="10.00">RTC_Exported_Functions</text>
</a>
</g>
</g>
<!-- Node2&#45;&gt;Node1 -->
<g id="edge1" class="edge">
<title>Node2&#45;&gt;Node1</title>
<path fill="none" stroke="black" d="M46.44,-120.75C53.74,-120.75 61.91,-120.75 70.27,-120.75"/>
<polygon fill="black" stroke="black" points="46.62,-117.25 36.62,-120.75 46.62,-124.25 46.62,-117.25"/>
</g>
<!-- Node3 -->
<g id="Node000003" class="node">
<title>Node3</title>
<g id="a_Node000003"><a xlink:href="group__RTC__Exported__Functions__Group1.html" target="_top" xlink:title=" ">
<polygon fill="white" stroke="#666666" points="368.25,-241.5 237.5,-241.5 237.5,-208 368.25,-208 368.25,-241.5"/>
<text text-anchor="start" x="245.5" y="-228" font-family="Helvetica,sans-Serif" font-size="10.00">RTC_Exported_Functions</text>
<text text-anchor="middle" x="302.88" y="-215.25" font-family="Helvetica,sans-Serif" font-size="10.00">_Group1</text>
</a>
</g>
</g>
<!-- Node1&#45;&gt;Node3 -->
<g id="edge2" class="edge">
<title>Node1&#45;&gt;Node3</title>
<path fill="none" stroke="black" d="M157.3,-139.16C176.76,-156.24 207.58,-181.53 237.5,-198.75 243.04,-201.94 249.04,-204.92 255.08,-207.64"/>
<polygon fill="black" stroke="black" points="159.64,-136.56 149.84,-132.52 154.98,-141.79 159.64,-136.56"/>
</g>
<!-- Node4 -->
<g id="Node000004" class="node">
<title>Node4</title>
<g id="a_Node000004"><a xlink:href="group__RTC__Exported__Functions__Group2.html" target="_top" xlink:title=" ">
<polygon fill="white" stroke="#666666" points="368.25,-189.5 237.5,-189.5 237.5,-156 368.25,-156 368.25,-189.5"/>
<text text-anchor="start" x="245.5" y="-176" font-family="Helvetica,sans-Serif" font-size="10.00">RTC_Exported_Functions</text>
<text text-anchor="middle" x="302.88" y="-163.25" font-family="Helvetica,sans-Serif" font-size="10.00">_Group2</text>
</a>
</g>
</g>
<!-- Node1&#45;&gt;Node4 -->
<g id="edge3" class="edge">
<title>Node1&#45;&gt;Node4</title>
<path fill="none" stroke="black" d="M182.03,-134.92C202.2,-141.29 226.17,-148.85 247.35,-155.54"/>
<polygon fill="black" stroke="black" points="183.29,-131.65 172.7,-131.98 181.19,-138.33 183.29,-131.65"/>
</g>
<!-- Node5 -->
<g id="Node000005" class="node">
<title>Node5</title>
<g id="a_Node000005"><a xlink:href="group__RTC__Exported__Functions__Group3.html" target="_top" xlink:title=" ">
<polygon fill="white" stroke="#666666" points="368.25,-137.5 237.5,-137.5 237.5,-104 368.25,-104 368.25,-137.5"/>
<text text-anchor="start" x="245.5" y="-124" font-family="Helvetica,sans-Serif" font-size="10.00">RTC_Exported_Functions</text>
<text text-anchor="middle" x="302.88" y="-111.25" font-family="Helvetica,sans-Serif" font-size="10.00">_Group3</text>
</a>
</g>
</g>
<!-- Node1&#45;&gt;Node5 -->
<g id="edge4" class="edge">
<title>Node1&#45;&gt;Node5</title>
<path fill="none" stroke="black" d="M213.06,-120.75C221.11,-120.75 229.24,-120.75 237.15,-120.75"/>
<polygon fill="black" stroke="black" points="213.28,-117.25 203.28,-120.75 213.28,-124.25 213.28,-117.25"/>
</g>
<!-- Node6 -->
<g id="Node000006" class="node">
<title>Node6</title>
<g id="a_Node000006"><a xlink:href="group__RTC__Exported__Functions__Group4.html" target="_top" xlink:title=" ">
<polygon fill="white" stroke="#666666" points="368.25,-85.5 237.5,-85.5 237.5,-52 368.25,-52 368.25,-85.5"/>
<text text-anchor="start" x="245.5" y="-72" font-family="Helvetica,sans-Serif" font-size="10.00">RTC_Exported_Functions</text>
<text text-anchor="middle" x="302.88" y="-59.25" font-family="Helvetica,sans-Serif" font-size="10.00">_Group4</text>
</a>
</g>
</g>
<!-- Node1&#45;&gt;Node6 -->
<g id="edge5" class="edge">
<title>Node1&#45;&gt;Node6</title>
<path fill="none" stroke="black" d="M182.03,-106.58C202.2,-100.21 226.17,-92.65 247.35,-85.96"/>
<polygon fill="black" stroke="black" points="181.19,-103.17 172.7,-109.52 183.29,-109.85 181.19,-103.17"/>
</g>
<!-- Node7 -->
<g id="Node000007" class="node">
<title>Node7</title>
<g id="a_Node000007"><a xlink:href="group__RTC__Exported__Functions__Group5.html" target="_top" xlink:title=" ">
<polygon fill="white" stroke="#666666" points="368.25,-33.5 237.5,-33.5 237.5,0 368.25,0 368.25,-33.5"/>
<text text-anchor="start" x="245.5" y="-20" font-family="Helvetica,sans-Serif" font-size="10.00">RTC_Exported_Functions</text>
<text text-anchor="middle" x="302.88" y="-7.25" font-family="Helvetica,sans-Serif" font-size="10.00">_Group5</text>
</a>
</g>
</g>
<!-- Node1&#45;&gt;Node7 -->
<g id="edge6" class="edge">
<title>Node1&#45;&gt;Node7</title>
<path fill="none" stroke="black" d="M157.3,-102.34C176.76,-85.26 207.58,-59.97 237.5,-42.75 243.04,-39.56 249.04,-36.58 255.08,-33.86"/>
<polygon fill="black" stroke="black" points="154.98,-99.71 149.84,-108.98 159.64,-104.94 154.98,-99.71"/>
</g>
</g>
</svg>
