<?xml version="1.0" encoding="UTF-8" standalone="no"?>
<!DOCTYPE svg PUBLIC "-//W3C//DTD SVG 1.1//EN"
 "http://www.w3.org/Graphics/SVG/1.1/DTD/svg11.dtd">
<!-- Generated by graphviz version 12.2.1 (20241206.2353)
 -->
<!-- Title: PWR Private Macros Pages: 1 -->
<svg width="358pt" height="42pt"
 viewBox="0.00 0.00 358.25 41.50" xmlns="http://www.w3.org/2000/svg" xmlns:xlink="http://www.w3.org/1999/xlink">
<g id="page0,1_graph0" class="graph" transform="scale(1 1) rotate(0) translate(4 37.5)">
<title>PWR Private Macros</title>
<!-- Node2 -->
<g id="Node000002" class="node">
<title>Node2</title>
<g id="a_Node000002"><a xlink:href="group__PWR.html" target="_top" xlink:title="PWR HAL module driver.">
<polygon fill="white" stroke="#666666" points="37.75,-27.12 0,-27.12 0,-6.38 37.75,-6.38 37.75,-27.12"/>
<text text-anchor="middle" x="18.88" y="-13.62" font-family="Helvetica,sans-Serif" font-size="10.00">PWR</text>
</a>
</g>
</g>
<!-- Node1 -->
<g id="Node000001" class="node">
<title>Node1</title>
<g id="a_Node000001"><a xlink:title=" ">
<polygon fill="#999999" stroke="#666666" points="179,-27.12 73.75,-27.12 73.75,-6.38 179,-6.38 179,-27.12"/>
<text text-anchor="middle" x="126.38" y="-13.62" font-family="Helvetica,sans-Serif" font-size="10.00">PWR Private Macros</text>
</a>
</g>
</g>
<!-- Node2&#45;&gt;Node1 -->
<g id="edge1" class="edge">
<title>Node2&#45;&gt;Node1</title>
<path fill="none" stroke="black" d="M49.15,-16.75C56.66,-16.75 64.97,-16.75 73.25,-16.75"/>
<polygon fill="black" stroke="black" points="49.29,-13.25 39.29,-16.75 49.29,-20.25 49.29,-13.25"/>
</g>
<!-- Node3 -->
<g id="Node000003" class="node">
<title>Node3</title>
<g id="a_Node000003"><a xlink:href="group__PWR__IS__PWR__Definitions.html" target="_top" xlink:title=" ">
<polygon fill="white" stroke="#666666" points="350.25,-33.5 215,-33.5 215,0 350.25,0 350.25,-33.5"/>
<text text-anchor="start" x="223" y="-20" font-family="Helvetica,sans-Serif" font-size="10.00">PWR Private macros</text>
<text text-anchor="middle" x="282.62" y="-7.25" font-family="Helvetica,sans-Serif" font-size="10.00"> to check input parameters</text>
</a>
</g>
</g>
<!-- Node1&#45;&gt;Node3 -->
<g id="edge2" class="edge">
<title>Node1&#45;&gt;Node3</title>
<path fill="none" stroke="black" d="M190.59,-16.75C198.52,-16.75 206.65,-16.75 214.63,-16.75"/>
<polygon fill="black" stroke="black" points="190.68,-13.25 180.68,-16.75 190.68,-20.25 190.68,-13.25"/>
</g>
</g>
</svg>
