<?xml version="1.0" encoding="UTF-8" standalone="no"?>
<!DOCTYPE svg PUBLIC "-//W3C//DTD SVG 1.1//EN"
 "http://www.w3.org/Graphics/SVG/1.1/DTD/svg11.dtd">
<!-- Generated by graphviz version 12.2.1 (20241206.2353)
 -->
<!-- Title: I2C Private Macros Pages: 1 -->
<svg width="345pt" height="42pt"
 viewBox="0.00 0.00 344.75 41.50" xmlns="http://www.w3.org/2000/svg" xmlns:xlink="http://www.w3.org/1999/xlink">
<g id="page0,1_graph0" class="graph" transform="scale(1 1) rotate(0) translate(4 37.5)">
<title>I2C Private Macros</title>
<!-- Node2 -->
<g id="Node000002" class="node">
<title>Node2</title>
<g id="a_Node000002"><a xlink:href="group__I2C.html" target="_top" xlink:title="I2C HAL module driver.">
<polygon fill="white" stroke="#666666" points="31,-27.12 0,-27.12 0,-6.38 31,-6.38 31,-27.12"/>
<text text-anchor="middle" x="15.5" y="-13.62" font-family="Helvetica,sans-Serif" font-size="10.00">I2C</text>
</a>
</g>
</g>
<!-- Node1 -->
<g id="Node000001" class="node">
<title>Node1</title>
<g id="a_Node000001"><a xlink:title=" ">
<polygon fill="#999999" stroke="#666666" points="165.5,-27.12 67,-27.12 67,-6.38 165.5,-6.38 165.5,-27.12"/>
<text text-anchor="middle" x="116.25" y="-13.62" font-family="Helvetica,sans-Serif" font-size="10.00">I2C Private Macros</text>
</a>
</g>
</g>
<!-- Node2&#45;&gt;Node1 -->
<g id="edge1" class="edge">
<title>Node2&#45;&gt;Node1</title>
<path fill="none" stroke="black" d="M42.88,-16.75C50.23,-16.75 58.46,-16.75 66.65,-16.75"/>
<polygon fill="black" stroke="black" points="43.01,-13.25 33.01,-16.75 43.01,-20.25 43.01,-13.25"/>
</g>
<!-- Node3 -->
<g id="Node000003" class="node">
<title>Node3</title>
<g id="a_Node000003"><a xlink:href="group__I2C__IS__RTC__Definitions.html" target="_top" xlink:title=" ">
<polygon fill="white" stroke="#666666" points="336.75,-33.5 201.5,-33.5 201.5,0 336.75,0 336.75,-33.5"/>
<text text-anchor="start" x="209.5" y="-20" font-family="Helvetica,sans-Serif" font-size="10.00">I2C Private macros</text>
<text text-anchor="middle" x="269.12" y="-7.25" font-family="Helvetica,sans-Serif" font-size="10.00"> to check input parameters</text>
</a>
</g>
</g>
<!-- Node1&#45;&gt;Node3 -->
<g id="edge2" class="edge">
<title>Node1&#45;&gt;Node3</title>
<path fill="none" stroke="black" d="M177.18,-16.75C185.08,-16.75 193.22,-16.75 201.23,-16.75"/>
<polygon fill="black" stroke="black" points="177.33,-13.25 167.33,-16.75 177.33,-20.25 177.33,-13.25"/>
</g>
</g>
</svg>
