<?xml version="1.0" encoding="UTF-8" standalone="no"?>
<!DOCTYPE svg PUBLIC "-//W3C//DTD SVG 1.1//EN"
 "http://www.w3.org/Graphics/SVG/1.1/DTD/svg11.dtd">
<!-- Generated by graphviz version 2.43.0 (0)
 -->
<!-- Title: WWDG_Exported_Functions Pages: 1 -->
<svg width="435pt" height="86pt"
 viewBox="0.00 0.00 435.00 86.00" xmlns="http://www.w3.org/2000/svg" xmlns:xlink="http://www.w3.org/1999/xlink">
<g id="graph0" class="graph" transform="scale(1 1) rotate(0) translate(4 82)">
<title>WWDG_Exported_Functions</title>
<!-- Node2 -->
<g id="Node000002" class="node">
<title>Node2</title>
<g id="a_Node000002"><a xlink:href="group__WWDG.html" target="_top" xlink:title=" ">
<polygon fill="white" stroke="#666666" points="51,-48.5 0,-48.5 0,-29.5 51,-29.5 51,-48.5"/>
<text text-anchor="middle" x="25.5" y="-36.5" font-family="Helvetica,sans-Serif" font-size="10.00">WWDG</text>
</a>
</g>
</g>
<!-- Node1 -->
<g id="Node000001" class="node">
<title>Node1</title>
<g id="a_Node000001"><a xlink:title=" ">
<polygon fill="#999999" stroke="#666666" points="239,-48.5 87,-48.5 87,-29.5 239,-29.5 239,-48.5"/>
<text text-anchor="middle" x="163" y="-36.5" font-family="Helvetica,sans-Serif" font-size="10.00">WWDG_Exported_Functions</text>
</a>
</g>
</g>
<!-- Node2&#45;&gt;Node1 -->
<g id="edge1" class="edge">
<title>Node2&#45;&gt;Node1</title>
<path fill="none" stroke="black" d="M61.3,-39C69.23,-39 77.96,-39 86.86,-39"/>
<polygon fill="black" stroke="black" points="61.04,-35.5 51.04,-39 61.04,-42.5 61.04,-35.5"/>
</g>
<!-- Node3 -->
<g id="Node000003" class="node">
<title>Node3</title>
<g id="a_Node000003"><a xlink:href="group__WWDG__Exported__Functions__Group1.html" target="_top" xlink:title=" ">
<polygon fill="white" stroke="#666666" points="427,-78 275,-78 275,-48 427,-48 427,-78"/>
<text text-anchor="start" x="283" y="-66" font-family="Helvetica,sans-Serif" font-size="10.00">WWDG_Exported_Functions</text>
<text text-anchor="middle" x="351" y="-55" font-family="Helvetica,sans-Serif" font-size="10.00">_Group1</text>
</a>
</g>
</g>
<!-- Node1&#45;&gt;Node3 -->
<g id="edge2" class="edge">
<title>Node1&#45;&gt;Node3</title>
<path fill="none" stroke="black" d="M247.85,-49.82C256.83,-50.98 265.92,-52.15 274.79,-53.3"/>
<polygon fill="black" stroke="black" points="248.14,-46.33 237.78,-48.52 247.25,-53.27 248.14,-46.33"/>
</g>
<!-- Node4 -->
<g id="Node000004" class="node">
<title>Node4</title>
<g id="a_Node000004"><a xlink:href="group__WWDG__Exported__Functions__Group2.html" target="_top" xlink:title=" ">
<polygon fill="white" stroke="#666666" points="427,-30 275,-30 275,0 427,0 427,-30"/>
<text text-anchor="start" x="283" y="-18" font-family="Helvetica,sans-Serif" font-size="10.00">WWDG_Exported_Functions</text>
<text text-anchor="middle" x="351" y="-7" font-family="Helvetica,sans-Serif" font-size="10.00">_Group2</text>
</a>
</g>
</g>
<!-- Node1&#45;&gt;Node4 -->
<g id="edge3" class="edge">
<title>Node1&#45;&gt;Node4</title>
<path fill="none" stroke="black" d="M247.85,-28.18C256.83,-27.02 265.92,-25.85 274.79,-24.7"/>
<polygon fill="black" stroke="black" points="247.25,-24.73 237.78,-29.48 248.14,-31.67 247.25,-24.73"/>
</g>
</g>
</svg>
