<?xml version="1.0" encoding="UTF-8" standalone="no"?>
<!DOCTYPE svg PUBLIC "-//W3C//DTD SVG 1.1//EN"
 "http://www.w3.org/Graphics/SVG/1.1/DTD/svg11.dtd">
<!-- Generated by graphviz version 2.43.0 (0)
 -->
<!-- Title: FLASH Exported Constants Pages: 1 -->
<svg width="426pt" height="212pt"
 viewBox="0.00 0.00 426.00 212.00" xmlns="http://www.w3.org/2000/svg" xmlns:xlink="http://www.w3.org/1999/xlink">

<svg id="main" version="1.1" xmlns="http://www.w3.org/2000/svg" xmlns:xlink="http://www.w3.org/1999/xlink" xml:space="preserve" onload="init(evt)">
<style type="text/css"><![CDATA[
.node, .edge {opacity: 0.7;}
.node.selected, .edge.selected {opacity: 1;}
.edge:hover path { stroke: red; }
.edge:hover polygon { stroke: red; fill: red; }
]]></style>
<script type="application/ecmascript" xlink:href="svg.min.js"/>
<svg id="graph" class="graph">
<g id="graph0" class="graph" transform="scale(1 1) rotate(0) translate(4 208)">
<title>FLASH Exported Constants</title>
<!-- Node2 -->
<g id="Node000002" class="node">
<title>Node2</title>
<g id="a_Node000002"><a xlink:href="group__FLASH.html" target="_top" xlink:title="FLASH HAL module driver.">
<polygon fill="white" stroke="#666666" points="49,-111 0,-111 0,-92 49,-92 49,-111"/>
<text text-anchor="middle" x="24.5" y="-99" font-family="Helvetica,sans-Serif" font-size="10.00">FLASH</text>
</a>
</g>
</g>
<!-- Node1 -->
<g id="Node000001" class="node">
<title>Node1</title>
<g id="a_Node000001"><a xlink:title=" ">
<polygon fill="#999999" stroke="#666666" points="232,-111 85,-111 85,-92 232,-92 232,-111"/>
<text text-anchor="middle" x="158.5" y="-99" font-family="Helvetica,sans-Serif" font-size="10.00">FLASH Exported Constants</text>
</a>
</g>
</g>
<!-- Node2&#45;&gt;Node1 -->
<g id="edge1" class="edge">
<title>Node2&#45;&gt;Node1</title>
<path fill="none" stroke="black" d="M59.32,-101.5C67.24,-101.5 75.97,-101.5 84.86,-101.5"/>
<polygon fill="black" stroke="black" points="59.1,-98 49.1,-101.5 59.1,-105 59.1,-98"/>
</g>
<!-- Node3 -->
<g id="Node000003" class="node">
<title>Node3</title>
<g id="a_Node000003"><a xlink:href="group__FLASH__Error__Code.html" target="_top" xlink:title="FLASH Error Code.">
<polygon fill="white" stroke="#666666" points="394.5,-204 291.5,-204 291.5,-185 394.5,-185 394.5,-204"/>
<text text-anchor="middle" x="343" y="-192" font-family="Helvetica,sans-Serif" font-size="10.00">FLASH Error Code</text>
</a>
</g>
</g>
<!-- Node1&#45;&gt;Node3 -->
<g id="edge2" class="edge">
<title>Node1&#45;&gt;Node3</title>
<path fill="none" stroke="black" d="M178.06,-117.53C198.69,-134.56 233.66,-161.09 268,-176.5 275.48,-179.86 283.68,-182.64 291.8,-184.94"/>
<polygon fill="black" stroke="black" points="180.29,-114.84 170.38,-111.09 175.79,-120.2 180.29,-114.84"/>
</g>
<!-- Node5 -->
<g id="Node000005" class="node">
<title>Node5</title>
<g id="a_Node000005"><a xlink:href="group__FLASH__Flag__definition.html" target="_top" xlink:title="Flag definition.">
<polygon fill="white" stroke="#666666" points="404,-167 282,-167 282,-148 404,-148 404,-167"/>
<text text-anchor="middle" x="343" y="-155" font-family="Helvetica,sans-Serif" font-size="10.00">FLASH Flag definition</text>
</a>
</g>
</g>
<!-- Node1&#45;&gt;Node5 -->
<g id="edge4" class="edge">
<title>Node1&#45;&gt;Node5</title>
<path fill="none" stroke="black" d="M194.22,-114.64C215.38,-122.4 243.05,-132.12 268,-139.5 278.14,-142.5 289.17,-145.39 299.54,-147.93"/>
<polygon fill="black" stroke="black" points="195.29,-111.3 184.7,-111.12 192.87,-117.87 195.29,-111.3"/>
</g>
<!-- Node6 -->
<g id="Node000006" class="node">
<title>Node6</title>
<g id="a_Node000006"><a xlink:href="group__FLASH__Interrupt__definition.html" target="_top" xlink:title="FLASH Interrupt definition.">
<polygon fill="white" stroke="#666666" points="414.5,-130 271.5,-130 271.5,-111 414.5,-111 414.5,-130"/>
<text text-anchor="middle" x="343" y="-118" font-family="Helvetica,sans-Serif" font-size="10.00">FLASH Interrupt definition</text>
</a>
</g>
</g>
<!-- Node1&#45;&gt;Node6 -->
<g id="edge5" class="edge">
<title>Node1&#45;&gt;Node6</title>
<path fill="none" stroke="black" d="M242.23,-110.11C251.97,-111.13 261.83,-112.15 271.38,-113.15"/>
<polygon fill="black" stroke="black" points="242.46,-106.62 232.15,-109.06 241.74,-113.58 242.46,-106.62"/>
</g>
<!-- Node8 -->
<g id="Node000008" class="node">
<title>Node8</title>
<g id="a_Node000008"><a xlink:href="group__FLASH__Keys.html" target="_top" xlink:title=" ">
<polygon fill="white" stroke="#666666" points="380.5,-93 305.5,-93 305.5,-74 380.5,-74 380.5,-93"/>
<text text-anchor="middle" x="343" y="-81" font-family="Helvetica,sans-Serif" font-size="10.00">FLASH Keys</text>
</a>
</g>
</g>
<!-- Node1&#45;&gt;Node8 -->
<g id="edge7" class="edge">
<title>Node1&#45;&gt;Node8</title>
<path fill="none" stroke="black" d="M242.22,-93.34C264.27,-91.17 286.99,-88.93 305.17,-87.13"/>
<polygon fill="black" stroke="black" points="241.76,-89.87 232.15,-94.33 242.45,-96.84 241.76,-89.87"/>
</g>
<!-- Node7 -->
<g id="Node000007" class="node">
<title>Node7</title>
<g id="a_Node000007"><a xlink:href="group__FLASH__Program__Parallelism.html" target="_top" xlink:title=" ">
<polygon fill="white" stroke="#666666" points="418,-56 268,-56 268,-37 418,-37 418,-56"/>
<text text-anchor="middle" x="343" y="-44" font-family="Helvetica,sans-Serif" font-size="10.00">FLASH Program Parallelism</text>
</a>
</g>
</g>
<!-- Node1&#45;&gt;Node7 -->
<g id="edge6" class="edge">
<title>Node1&#45;&gt;Node7</title>
<path fill="none" stroke="black" d="M196.01,-88.69C216.97,-81.51 243.84,-72.6 268,-65.5 279.2,-62.21 291.44,-58.94 302.69,-56.06"/>
<polygon fill="black" stroke="black" points="194.85,-85.39 186.54,-91.95 197.13,-92 194.85,-85.39"/>
</g>
<!-- Node4 -->
<g id="Node000004" class="node">
<title>Node4</title>
<g id="a_Node000004"><a xlink:href="group__FLASH__Type__Program.html" target="_top" xlink:title=" ">
<polygon fill="white" stroke="#666666" points="402.5,-19 283.5,-19 283.5,0 402.5,0 402.5,-19"/>
<text text-anchor="middle" x="343" y="-7" font-family="Helvetica,sans-Serif" font-size="10.00">FLASH Type Program</text>
</a>
</g>
</g>
<!-- Node1&#45;&gt;Node4 -->
<g id="edge3" class="edge">
<title>Node1&#45;&gt;Node4</title>
<path fill="none" stroke="black" d="M178.78,-85.52C199.59,-69.02 234.29,-43.63 268,-28.5 276.35,-24.75 285.57,-21.65 294.6,-19.11"/>
<polygon fill="black" stroke="black" points="176.35,-82.99 170.76,-91.99 180.74,-88.44 176.35,-82.99"/>
</g>
</g>
</svg>
</svg>

<style type='text/css'>
<![CDATA[
[data-mouse-over-selected='false'] { opacity: 0.7; }
[data-mouse-over-selected='true']  { opacity: 1.0; }
]]>
</style>
<script type="application/ecmascript"><![CDATA[
document.addEventListener('DOMContentLoaded', (event) => {
  highlightEdges();
  highlightAdjacentNodes();
});
]]></script>
</svg>
