<?xml version="1.0" encoding="UTF-8" standalone="no"?>
<!DOCTYPE svg PUBLIC "-//W3C//DTD SVG 1.1//EN"
 "http://www.w3.org/Graphics/SVG/1.1/DTD/svg11.dtd">
<!-- Generated by graphviz version 12.2.1 (20241206.2353)
 -->
<!-- Title: IRDA Exported constants Pages: 1 -->
<svg width="377pt" height="263pt"
 viewBox="0.00 0.00 377.00 262.75" xmlns="http://www.w3.org/2000/svg" xmlns:xlink="http://www.w3.org/1999/xlink">
<g id="page0,1_graph0" class="graph" transform="scale(1 1) rotate(0) translate(4 258.75)">
<title>IRDA Exported constants</title>
<!-- Node2 -->
<g id="Node000002" class="node">
<title>Node2</title>
<g id="a_Node000002"><a xlink:href="group__IRDA.html" target="_top" xlink:title="HAL IRDA module driver.">
<polygon fill="white" stroke="#666666" points="37.75,-137.75 0,-137.75 0,-117 37.75,-117 37.75,-137.75"/>
<text text-anchor="middle" x="18.88" y="-124.25" font-family="Helvetica,sans-Serif" font-size="10.00">IRDA</text>
</a>
</g>
</g>
<!-- Node1 -->
<g id="Node000001" class="node">
<title>Node1</title>
<g id="a_Node000001"><a xlink:title=" ">
<polygon fill="#999999" stroke="#666666" points="201.5,-137.75 73.75,-137.75 73.75,-117 201.5,-117 201.5,-137.75"/>
<text text-anchor="middle" x="137.62" y="-124.25" font-family="Helvetica,sans-Serif" font-size="10.00">IRDA Exported constants</text>
</a>
</g>
</g>
<!-- Node2&#45;&gt;Node1 -->
<g id="edge1" class="edge">
<title>Node2&#45;&gt;Node1</title>
<path fill="none" stroke="black" d="M49.63,-127.38C56.99,-127.38 65.16,-127.38 73.47,-127.38"/>
<polygon fill="black" stroke="black" points="49.63,-123.88 39.63,-127.38 49.63,-130.88 49.63,-123.88"/>
</g>
<!-- Node3 -->
<g id="Node000003" class="node">
<title>Node3</title>
<g id="a_Node000003"><a xlink:href="group__IRDA__Error__Code.html" target="_top" xlink:title=" ">
<polygon fill="white" stroke="#666666" points="348,-254.75 258.5,-254.75 258.5,-234 348,-234 348,-254.75"/>
<text text-anchor="middle" x="303.25" y="-241.25" font-family="Helvetica,sans-Serif" font-size="10.00">IRDA Error Code</text>
</a>
</g>
</g>
<!-- Node1&#45;&gt;Node3 -->
<g id="edge2" class="edge">
<title>Node1&#45;&gt;Node3</title>
<path fill="none" stroke="black" d="M153.58,-146.84C171.35,-168.69 202.96,-203.78 237.5,-224.38 243.87,-228.17 251.02,-231.31 258.19,-233.89"/>
<polygon fill="black" stroke="black" points="156.54,-144.94 147.58,-139.28 151.06,-149.29 156.54,-144.94"/>
</g>
<!-- Node8 -->
<g id="Node000008" class="node">
<title>Node8</title>
<g id="a_Node000008"><a xlink:href="group__IRDA__Flags.html" target="_top" xlink:title=" ">
<polygon fill="white" stroke="#666666" points="335.62,-215.75 270.88,-215.75 270.88,-195 335.62,-195 335.62,-215.75"/>
<text text-anchor="middle" x="303.25" y="-202.25" font-family="Helvetica,sans-Serif" font-size="10.00">IRDA Flags</text>
</a>
</g>
</g>
<!-- Node1&#45;&gt;Node8 -->
<g id="edge7" class="edge">
<title>Node1&#45;&gt;Node8</title>
<path fill="none" stroke="black" d="M164.09,-144.53C183.56,-157.09 211.41,-173.88 237.5,-185.38 247.94,-189.98 259.77,-193.96 270.43,-197.14"/>
<polygon fill="black" stroke="black" points="166.01,-141.6 155.72,-139.05 162.17,-147.46 166.01,-141.6"/>
</g>
<!-- Node9 -->
<g id="Node000009" class="node">
<title>Node9</title>
<g id="a_Node000009"><a xlink:href="group__IRDA__Interrupt__definition.html" target="_top" xlink:title=" ">
<polygon fill="white" stroke="#666666" points="369,-176.75 237.5,-176.75 237.5,-156 369,-156 369,-176.75"/>
<text text-anchor="middle" x="303.25" y="-163.25" font-family="Helvetica,sans-Serif" font-size="10.00">IRDA Interrupt Definitions</text>
</a>
</g>
</g>
<!-- Node1&#45;&gt;Node9 -->
<g id="edge8" class="edge">
<title>Node1&#45;&gt;Node9</title>
<path fill="none" stroke="black" d="M195.38,-140.9C215.41,-145.68 237.65,-150.98 256.63,-155.5"/>
<polygon fill="black" stroke="black" points="196.22,-137.5 185.68,-138.59 194.59,-144.31 196.22,-137.5"/>
</g>
<!-- Node7 -->
<g id="Node000007" class="node">
<title>Node7</title>
<g id="a_Node000007"><a xlink:href="group__IRDA__Low__Power.html" target="_top" xlink:title=" ">
<polygon fill="white" stroke="#666666" points="348,-137.75 258.5,-137.75 258.5,-117 348,-117 348,-137.75"/>
<text text-anchor="middle" x="303.25" y="-124.25" font-family="Helvetica,sans-Serif" font-size="10.00">IRDA Low Power</text>
</a>
</g>
</g>
<!-- Node1&#45;&gt;Node7 -->
<g id="edge6" class="edge">
<title>Node1&#45;&gt;Node7</title>
<path fill="none" stroke="black" d="M213.08,-127.38C228.58,-127.38 244.44,-127.38 258.4,-127.38"/>
<polygon fill="black" stroke="black" points="213.4,-123.88 203.4,-127.38 213.4,-130.88 213.4,-123.88"/>
</g>
<!-- Node6 -->
<g id="Node000006" class="node">
<title>Node6</title>
<g id="a_Node000006"><a xlink:href="group__IRDA__Mode.html" target="_top" xlink:title=" ">
<polygon fill="white" stroke="#666666" points="356.25,-98.75 250.25,-98.75 250.25,-78 356.25,-78 356.25,-98.75"/>
<text text-anchor="middle" x="303.25" y="-85.25" font-family="Helvetica,sans-Serif" font-size="10.00">IRDA Transfer Mode</text>
</a>
</g>
</g>
<!-- Node1&#45;&gt;Node6 -->
<g id="edge5" class="edge">
<title>Node1&#45;&gt;Node6</title>
<path fill="none" stroke="black" d="M195.38,-113.85C215.41,-109.07 237.65,-103.77 256.63,-99.25"/>
<polygon fill="black" stroke="black" points="194.59,-110.44 185.68,-116.16 196.22,-117.25 194.59,-110.44"/>
</g>
<!-- Node5 -->
<g id="Node000005" class="node">
<title>Node5</title>
<g id="a_Node000005"><a xlink:href="group__IRDA__Parity.html" target="_top" xlink:title=" ">
<polygon fill="white" stroke="#666666" points="336,-59.75 270.5,-59.75 270.5,-39 336,-39 336,-59.75"/>
<text text-anchor="middle" x="303.25" y="-46.25" font-family="Helvetica,sans-Serif" font-size="10.00">IRDA Parity</text>
</a>
</g>
</g>
<!-- Node1&#45;&gt;Node5 -->
<g id="edge4" class="edge">
<title>Node1&#45;&gt;Node5</title>
<path fill="none" stroke="black" d="M164.09,-110.22C183.56,-97.66 211.41,-80.87 237.5,-69.38 247.84,-64.82 259.53,-60.87 270.1,-57.71"/>
<polygon fill="black" stroke="black" points="162.17,-107.29 155.72,-115.7 166.01,-113.15 162.17,-107.29"/>
</g>
<!-- Node4 -->
<g id="Node000004" class="node">
<title>Node4</title>
<g id="a_Node000004"><a xlink:href="group__IRDA__Word__Length.html" target="_top" xlink:title=" ">
<polygon fill="white" stroke="#666666" points="353.25,-20.75 253.25,-20.75 253.25,0 353.25,0 353.25,-20.75"/>
<text text-anchor="middle" x="303.25" y="-7.25" font-family="Helvetica,sans-Serif" font-size="10.00">IRDA Word Length</text>
</a>
</g>
</g>
<!-- Node1&#45;&gt;Node4 -->
<g id="edge3" class="edge">
<title>Node1&#45;&gt;Node4</title>
<path fill="none" stroke="black" d="M153.58,-107.91C171.35,-86.06 202.96,-50.97 237.5,-30.38 243.56,-26.76 250.34,-23.74 257.17,-21.24"/>
<polygon fill="black" stroke="black" points="151.06,-105.46 147.58,-115.47 156.54,-109.81 151.06,-105.46"/>
</g>
</g>
</svg>
