<?xml version="1.0" encoding="UTF-8" standalone="no"?>
<!DOCTYPE svg PUBLIC "-//W3C//DTD SVG 1.1//EN"
 "http://www.w3.org/Graphics/SVG/1.1/DTD/svg11.dtd">
<!-- Generated by graphviz version 2.43.0 (0)
 -->
<!-- Title: UART Pages: 1 -->
<svg width="400pt" height="249pt"
 viewBox="0.00 0.00 400.00 249.00" xmlns="http://www.w3.org/2000/svg" xmlns:xlink="http://www.w3.org/1999/xlink">
<g id="graph0" class="graph" transform="scale(1 1) rotate(0) translate(4 245)">
<title>UART</title>
<!-- Node2 -->
<g id="Node000002" class="node">
<title>Node2</title>
<g id="a_Node000002"><a xlink:href="group__STM32F4xx__HAL__Driver.html" target="_top" xlink:title=" ">
<polygon fill="white" stroke="#666666" points="134,-130 0,-130 0,-111 134,-111 134,-130"/>
<text text-anchor="middle" x="67" y="-118" font-family="Helvetica,sans-Serif" font-size="10.00">STM32F4xx_HAL_Driver</text>
</a>
</g>
</g>
<!-- Node1 -->
<g id="Node000001" class="node">
<title>Node1</title>
<g id="a_Node000001"><a xlink:title="HAL UART module driver.">
<polygon fill="#999999" stroke="#666666" points="213,-130 170,-130 170,-111 213,-111 213,-130"/>
<text text-anchor="middle" x="191.5" y="-118" font-family="Helvetica,sans-Serif" font-size="10.00">UART</text>
</a>
</g>
</g>
<!-- Node2&#45;&gt;Node1 -->
<g id="edge1" class="edge">
<title>Node2&#45;&gt;Node1</title>
<path fill="none" stroke="black" d="M144.49,-120.5C153.78,-120.5 162.56,-120.5 169.92,-120.5"/>
<polygon fill="black" stroke="black" points="144.27,-117 134.27,-120.5 144.27,-124 144.27,-117"/>
</g>
<!-- Node4 -->
<g id="Node000004" class="node">
<title>Node4</title>
<g id="a_Node000004"><a xlink:href="group__UART__Exported__Constants.html" target="_top" xlink:title=" ">
<polygon fill="white" stroke="#666666" points="391,-241 250,-241 250,-222 391,-222 391,-241"/>
<text text-anchor="middle" x="320.5" y="-229" font-family="Helvetica,sans-Serif" font-size="10.00">UART Exported Constants</text>
</a>
</g>
</g>
<!-- Node1&#45;&gt;Node4 -->
<g id="edge3" class="edge">
<title>Node1&#45;&gt;Node4</title>
<path fill="none" stroke="black" d="M199.07,-139.67C207.36,-160.94 223.67,-194.74 249,-213.5 253.57,-216.88 258.71,-219.63 264.08,-221.87"/>
<polygon fill="black" stroke="black" points="202.29,-138.27 195.55,-130.09 195.72,-140.68 202.29,-138.27"/>
</g>
<!-- Node9 -->
<g id="Node000009" class="node">
<title>Node9</title>
<g id="a_Node000009"><a xlink:href="group__UART__Exported__Functions.html" target="_top" xlink:title=" ">
<polygon fill="white" stroke="#666666" points="392,-204 249,-204 249,-185 392,-185 392,-204"/>
<text text-anchor="middle" x="320.5" y="-192" font-family="Helvetica,sans-Serif" font-size="10.00">UART_Exported_Functions</text>
</a>
</g>
</g>
<!-- Node1&#45;&gt;Node9 -->
<g id="edge8" class="edge">
<title>Node1&#45;&gt;Node9</title>
<path fill="none" stroke="black" d="M206.12,-138.34C216.56,-150.8 232.01,-166.88 249,-176.5 255.04,-179.92 261.75,-182.71 268.54,-184.97"/>
<polygon fill="black" stroke="black" points="208.74,-136.01 199.74,-130.41 203.28,-140.4 208.74,-136.01"/>
</g>
<!-- Node5 -->
<g id="Node000005" class="node">
<title>Node5</title>
<g id="a_Node000005"><a xlink:href="group__UART__Exported__Macros.html" target="_top" xlink:title=" ">
<polygon fill="white" stroke="#666666" points="384.5,-167 256.5,-167 256.5,-148 384.5,-148 384.5,-167"/>
<text text-anchor="middle" x="320.5" y="-155" font-family="Helvetica,sans-Serif" font-size="10.00">UART Exported Macros</text>
</a>
</g>
</g>
<!-- Node1&#45;&gt;Node5 -->
<g id="edge4" class="edge">
<title>Node1&#45;&gt;Node5</title>
<path fill="none" stroke="black" d="M222.58,-131.08C231.08,-133.94 240.37,-136.95 249,-139.5 258.93,-142.43 269.74,-145.34 279.83,-147.92"/>
<polygon fill="black" stroke="black" points="223.64,-127.74 213.05,-127.82 221.38,-134.37 223.64,-127.74"/>
</g>
<!-- Node3 -->
<g id="Node000003" class="node">
<title>Node3</title>
<g id="a_Node000003"><a xlink:href="group__UART__Exported__Types.html" target="_top" xlink:title=" ">
<polygon fill="white" stroke="#666666" points="380.5,-130 260.5,-130 260.5,-111 380.5,-111 380.5,-130"/>
<text text-anchor="middle" x="320.5" y="-118" font-family="Helvetica,sans-Serif" font-size="10.00">UART Exported Types</text>
</a>
</g>
</g>
<!-- Node1&#45;&gt;Node3 -->
<g id="edge2" class="edge">
<title>Node1&#45;&gt;Node3</title>
<path fill="none" stroke="black" d="M223.3,-120.5C234.51,-120.5 247.59,-120.5 260.43,-120.5"/>
<polygon fill="black" stroke="black" points="223.19,-117 213.19,-120.5 223.19,-124 223.19,-117"/>
</g>
<!-- Node6 -->
<g id="Node000006" class="node">
<title>Node6</title>
<g id="a_Node000006"><a xlink:href="group__UART__Private__Constants.html" target="_top" xlink:title=" ">
<polygon fill="white" stroke="#666666" points="386.5,-93 254.5,-93 254.5,-74 386.5,-74 386.5,-93"/>
<text text-anchor="middle" x="320.5" y="-81" font-family="Helvetica,sans-Serif" font-size="10.00">UART Private Constants</text>
</a>
</g>
</g>
<!-- Node1&#45;&gt;Node6 -->
<g id="edge5" class="edge">
<title>Node1&#45;&gt;Node6</title>
<path fill="none" stroke="black" d="M222.63,-110.62C231.14,-107.91 240.41,-105.02 249,-102.5 259.95,-99.28 271.91,-95.98 282.82,-93.05"/>
<polygon fill="black" stroke="black" points="221.54,-107.3 213.09,-113.69 223.69,-113.96 221.54,-107.3"/>
</g>
<!-- Node8 -->
<g id="Node000008" class="node">
<title>Node8</title>
<g id="a_Node000008"><a xlink:href="group__UART__Private__Functions.html" target="_top" xlink:title=" ">
<polygon fill="white" stroke="#666666" points="385.5,-56 255.5,-56 255.5,-37 385.5,-37 385.5,-56"/>
<text text-anchor="middle" x="320.5" y="-44" font-family="Helvetica,sans-Serif" font-size="10.00">UART Private Functions</text>
</a>
</g>
</g>
<!-- Node1&#45;&gt;Node8 -->
<g id="edge7" class="edge">
<title>Node1&#45;&gt;Node8</title>
<path fill="none" stroke="black" d="M206.22,-103.05C216.71,-90.85 232.18,-75.08 249,-65.5 255.72,-61.67 263.24,-58.59 270.8,-56.12"/>
<polygon fill="black" stroke="black" points="203.48,-100.88 199.81,-110.81 208.88,-105.34 203.48,-100.88"/>
</g>
<!-- Node7 -->
<g id="Node000007" class="node">
<title>Node7</title>
<g id="a_Node000007"><a xlink:href="group__UART__Private__Macros.html" target="_top" xlink:title=" ">
<polygon fill="white" stroke="#666666" points="380,-19 261,-19 261,0 380,0 380,-19"/>
<text text-anchor="middle" x="320.5" y="-7" font-family="Helvetica,sans-Serif" font-size="10.00">UART Private Macros</text>
</a>
</g>
</g>
<!-- Node1&#45;&gt;Node7 -->
<g id="edge6" class="edge">
<title>Node1&#45;&gt;Node7</title>
<path fill="none" stroke="black" d="M199.3,-101.27C207.72,-80.26 224.08,-47.12 249,-28.5 254.18,-24.63 260.09,-21.55 266.24,-19.09"/>
<polygon fill="black" stroke="black" points="195.98,-100.16 195.71,-110.75 202.53,-102.64 195.98,-100.16"/>
</g>
</g>
</svg>
