<?xml version="1.0" encoding="UTF-8" standalone="no"?>
<!DOCTYPE svg PUBLIC "-//W3C//DTD SVG 1.1//EN"
 "http://www.w3.org/Graphics/SVG/1.1/DTD/svg11.dtd">
<!-- Generated by graphviz version 2.43.0 (0)
 -->
<!-- Title: I2C Pages: 1 -->
<svg width="379pt" height="249pt"
 viewBox="0.00 0.00 379.00 249.00" xmlns="http://www.w3.org/2000/svg" xmlns:xlink="http://www.w3.org/1999/xlink">

<svg id="main" version="1.1" xmlns="http://www.w3.org/2000/svg" xmlns:xlink="http://www.w3.org/1999/xlink" xml:space="preserve" onload="init(evt)">
<style type="text/css"><![CDATA[
.node, .edge {opacity: 0.7;}
.node.selected, .edge.selected {opacity: 1;}
.edge:hover path { stroke: red; }
.edge:hover polygon { stroke: red; fill: red; }
]]></style>
<script type="application/ecmascript" xlink:href="svg.min.js"/>
<svg id="graph" class="graph">
<g id="graph0" class="graph" transform="scale(1 1) rotate(0) translate(4 245)">
<title>I2C</title>
<!-- Node1 -->
<g id="Node000001" class="node">
<title>Node1</title>
<g id="a_Node000001"><a xlink:title="I2C HAL module driver.">
<polygon fill="#999999" stroke="#666666" points="202,-130 170,-130 170,-111 202,-111 202,-130"/>
<text text-anchor="middle" x="186" y="-118" font-family="Helvetica,sans-Serif" font-size="10.00">I2C</text>
</a>
</g>
</g>
<!-- Node4 -->
<g id="Node000004" class="node">
<title>Node4</title>
<g id="a_Node000004"><a xlink:href="group__I2C__Exported__Constants.html" target="_top" xlink:title=" ">
<polygon fill="white" stroke="#666666" points="370,-241 239,-241 239,-222 370,-222 370,-241"/>
<text text-anchor="middle" x="304.5" y="-229" font-family="Helvetica,sans-Serif" font-size="10.00">I2C Exported Constants</text>
</a>
</g>
</g>
<!-- Node1&#45;&gt;Node4 -->
<g id="edge3" class="edge">
<title>Node1&#45;&gt;Node4</title>
<path fill="none" stroke="black" d="M192.58,-139.85C199.68,-161.05 214.01,-194.54 238,-213.5 242.35,-216.94 247.31,-219.72 252.51,-221.97"/>
<polygon fill="black" stroke="black" points="195.83,-138.53 189.51,-130.03 189.15,-140.62 195.83,-138.53"/>
</g>
<!-- Node9 -->
<g id="Node000009" class="node">
<title>Node9</title>
<g id="a_Node000009"><a xlink:href="group__I2C__Exported__Functions.html" target="_top" xlink:title=" ">
<polygon fill="white" stroke="#666666" points="371,-204 238,-204 238,-185 371,-185 371,-204"/>
<text text-anchor="middle" x="304.5" y="-192" font-family="Helvetica,sans-Serif" font-size="10.00">I2C_Exported_Functions</text>
</a>
</g>
</g>
<!-- Node1&#45;&gt;Node9 -->
<g id="edge8" class="edge">
<title>Node1&#45;&gt;Node9</title>
<path fill="none" stroke="black" d="M199.25,-138.64C208.52,-151.03 222.3,-166.87 238,-176.5 243.53,-179.89 249.71,-182.66 256,-184.91"/>
<polygon fill="black" stroke="black" points="202.01,-136.47 193.34,-130.37 196.31,-140.54 202.01,-136.47"/>
</g>
<!-- Node5 -->
<g id="Node000005" class="node">
<title>Node5</title>
<g id="a_Node000005"><a xlink:href="group__I2C__Exported__Macros.html" target="_top" xlink:title=" ">
<polygon fill="white" stroke="#666666" points="363,-167 246,-167 246,-148 363,-148 363,-167"/>
<text text-anchor="middle" x="304.5" y="-155" font-family="Helvetica,sans-Serif" font-size="10.00">I2C Exported Macros</text>
</a>
</g>
</g>
<!-- Node1&#45;&gt;Node5 -->
<g id="edge4" class="edge">
<title>Node1&#45;&gt;Node5</title>
<path fill="none" stroke="black" d="M211.57,-130.15C219.9,-133.3 229.31,-136.69 238,-139.5 247.2,-142.47 257.23,-145.39 266.61,-147.98"/>
<polygon fill="black" stroke="black" points="212.64,-126.82 202.05,-126.51 210.14,-133.35 212.64,-126.82"/>
</g>
<!-- Node3 -->
<g id="Node000003" class="node">
<title>Node3</title>
<g id="a_Node000003"><a xlink:href="group__I2C__Exported__Types.html" target="_top" xlink:title=" ">
<polygon fill="white" stroke="#666666" points="359.5,-130 249.5,-130 249.5,-111 359.5,-111 359.5,-130"/>
<text text-anchor="middle" x="304.5" y="-118" font-family="Helvetica,sans-Serif" font-size="10.00">I2C Exported Types</text>
</a>
</g>
</g>
<!-- Node1&#45;&gt;Node3 -->
<g id="edge2" class="edge">
<title>Node1&#45;&gt;Node3</title>
<path fill="none" stroke="black" d="M212.31,-120.5C223.25,-120.5 236.5,-120.5 249.47,-120.5"/>
<polygon fill="black" stroke="black" points="212.23,-117 202.23,-120.5 212.23,-124 212.23,-117"/>
</g>
<!-- Node6 -->
<g id="Node000006" class="node">
<title>Node6</title>
<g id="a_Node000006"><a xlink:href="group__I2C__Private__Constants.html" target="_top" xlink:title=" ">
<polygon fill="white" stroke="#666666" points="365.5,-93 243.5,-93 243.5,-74 365.5,-74 365.5,-93"/>
<text text-anchor="middle" x="304.5" y="-81" font-family="Helvetica,sans-Serif" font-size="10.00">I2C Private Constants</text>
</a>
</g>
</g>
<!-- Node1&#45;&gt;Node6 -->
<g id="edge5" class="edge">
<title>Node1&#45;&gt;Node6</title>
<path fill="none" stroke="black" d="M211.57,-110.85C219.9,-107.7 229.31,-104.31 238,-101.5 247.2,-98.53 257.23,-95.61 266.61,-93.02"/>
<polygon fill="black" stroke="black" points="210.14,-107.65 202.05,-114.49 212.64,-114.18 210.14,-107.65"/>
</g>
<!-- Node8 -->
<g id="Node000008" class="node">
<title>Node8</title>
<g id="a_Node000008"><a xlink:href="group__I2C__Private__Functions.html" target="_top" xlink:title=" ">
<polygon fill="white" stroke="#666666" points="364,-56 245,-56 245,-37 364,-37 364,-56"/>
<text text-anchor="middle" x="304.5" y="-44" font-family="Helvetica,sans-Serif" font-size="10.00">I2C Private Functions</text>
</a>
</g>
</g>
<!-- Node1&#45;&gt;Node8 -->
<g id="edge7" class="edge">
<title>Node1&#45;&gt;Node8</title>
<path fill="none" stroke="black" d="M199.25,-102.36C208.52,-89.97 222.3,-74.13 238,-64.5 243.53,-61.11 249.71,-58.34 256,-56.09"/>
<polygon fill="black" stroke="black" points="196.31,-100.46 193.34,-110.63 202.01,-104.53 196.31,-100.46"/>
</g>
<!-- Node7 -->
<g id="Node000007" class="node">
<title>Node7</title>
<g id="a_Node000007"><a xlink:href="group__I2C__Private__Macros.html" target="_top" xlink:title=" ">
<polygon fill="white" stroke="#666666" points="358.5,-19 250.5,-19 250.5,0 358.5,0 358.5,-19"/>
<text text-anchor="middle" x="304.5" y="-7" font-family="Helvetica,sans-Serif" font-size="10.00">I2C Private Macros</text>
</a>
</g>
</g>
<!-- Node1&#45;&gt;Node7 -->
<g id="edge6" class="edge">
<title>Node1&#45;&gt;Node7</title>
<path fill="none" stroke="black" d="M192.58,-101.15C199.68,-79.95 214.01,-46.46 238,-27.5 242.35,-24.06 247.31,-21.28 252.51,-19.03"/>
<polygon fill="black" stroke="black" points="189.15,-100.38 189.51,-110.97 195.83,-102.47 189.15,-100.38"/>
</g>
<!-- Node2 -->
<g id="Node000002" class="node">
<title>Node2</title>
<g id="a_Node000002"><a xlink:href="group__STM32F4xx__HAL__Driver.html" target="_top" xlink:title=" ">
<polygon fill="white" stroke="#666666" points="134,-130 0,-130 0,-111 134,-111 134,-130"/>
<text text-anchor="middle" x="67" y="-118" font-family="Helvetica,sans-Serif" font-size="10.00">STM32F4xx_HAL_Driver</text>
</a>
</g>
</g>
<!-- Node2&#45;&gt;Node1 -->
<g id="edge1" class="edge">
<title>Node2&#45;&gt;Node1</title>
<path fill="none" stroke="black" d="M144.29,-120.5C153.94,-120.5 162.88,-120.5 169.9,-120.5"/>
<polygon fill="black" stroke="black" points="144.02,-117 134.02,-120.5 144.02,-124 144.02,-117"/>
</g>
</g>
</svg>
</svg>

<style type='text/css'>
<![CDATA[
[data-mouse-over-selected='false'] { opacity: 0.7; }
[data-mouse-over-selected='true']  { opacity: 1.0; }
]]>
</style>
<script type="application/ecmascript"><![CDATA[
document.addEventListener('DOMContentLoaded', (event) => {
  highlightEdges();
  highlightAdjacentNodes();
});
]]></script>
</svg>
