<?xml version="1.0" encoding="UTF-8" standalone="no"?>
<!DOCTYPE svg PUBLIC "-//W3C//DTD SVG 1.1//EN"
 "http://www.w3.org/Graphics/SVG/1.1/DTD/svg11.dtd">
<!-- Generated by graphviz version 12.2.1 (20241206.2353)
 -->
<!-- Title: SMBUS_Exported_Functions Pages: 1 -->
<svg width="411pt" height="146pt"
 viewBox="0.00 0.00 410.75 145.50" xmlns="http://www.w3.org/2000/svg" xmlns:xlink="http://www.w3.org/1999/xlink">
<g id="page0,1_graph0" class="graph" transform="scale(1 1) rotate(0) translate(4 141.5)">
<title>SMBUS_Exported_Functions</title>
<!-- Node2 -->
<g id="Node000002" class="node">
<title>Node2</title>
<g id="a_Node000002"><a xlink:href="group__SMBUS.html" target="_top" xlink:title="SMBUS HAL module driver.">
<polygon fill="white" stroke="#666666" points="47.5,-79.12 0,-79.12 0,-58.38 47.5,-58.38 47.5,-79.12"/>
<text text-anchor="middle" x="23.75" y="-65.62" font-family="Helvetica,sans-Serif" font-size="10.00">SMBUS</text>
</a>
</g>
</g>
<!-- Node1 -->
<g id="Node000001" class="node">
<title>Node1</title>
<g id="a_Node000001"><a xlink:title=" ">
<polygon fill="#999999" stroke="#666666" points="227,-79.12 83.5,-79.12 83.5,-58.38 227,-58.38 227,-79.12"/>
<text text-anchor="middle" x="155.25" y="-65.62" font-family="Helvetica,sans-Serif" font-size="10.00">SMBUS_Exported_Functions</text>
</a>
</g>
</g>
<!-- Node2&#45;&gt;Node1 -->
<g id="edge1" class="edge">
<title>Node2&#45;&gt;Node1</title>
<path fill="none" stroke="black" d="M59.35,-68.75C66.82,-68.75 74.97,-68.75 83.26,-68.75"/>
<polygon fill="black" stroke="black" points="59.42,-65.25 49.42,-68.75 59.42,-72.25 59.42,-65.25"/>
</g>
<!-- Node3 -->
<g id="Node000003" class="node">
<title>Node3</title>
<g id="a_Node000003"><a xlink:href="group__SMBUS__Exported__Functions__Group1.html" target="_top" xlink:title=" ">
<polygon fill="white" stroke="#666666" points="399.38,-137.5 266.38,-137.5 266.38,-104 399.38,-104 399.38,-137.5"/>
<text text-anchor="start" x="274.38" y="-124" font-family="Helvetica,sans-Serif" font-size="10.00">Initialization and</text>
<text text-anchor="middle" x="332.88" y="-111.25" font-family="Helvetica,sans-Serif" font-size="10.00"> de&#45;initialization functions</text>
</a>
</g>
</g>
<!-- Node1&#45;&gt;Node3 -->
<g id="edge2" class="edge">
<title>Node1&#45;&gt;Node3</title>
<path fill="none" stroke="black" d="M203.52,-82.75C225.14,-89.15 250.96,-96.79 273.75,-103.54"/>
<polygon fill="black" stroke="black" points="204.67,-79.44 194.09,-79.95 202.69,-86.15 204.67,-79.44"/>
</g>
<!-- Node4 -->
<g id="Node000004" class="node">
<title>Node4</title>
<g id="a_Node000004"><a xlink:href="group__SMBUS__Exported__Functions__Group2.html" target="_top" xlink:title=" ">
<polygon fill="white" stroke="#666666" points="402.75,-85.5 263,-85.5 263,-52 402.75,-52 402.75,-85.5"/>
<text text-anchor="start" x="271" y="-72" font-family="Helvetica,sans-Serif" font-size="10.00">Input and Output operation</text>
<text text-anchor="middle" x="332.88" y="-59.25" font-family="Helvetica,sans-Serif" font-size="10.00"> functions</text>
</a>
</g>
</g>
<!-- Node1&#45;&gt;Node4 -->
<g id="edge3" class="edge">
<title>Node1&#45;&gt;Node4</title>
<path fill="none" stroke="black" d="M238.67,-68.75C246.67,-68.75 254.73,-68.75 262.59,-68.75"/>
<polygon fill="black" stroke="black" points="238.94,-65.25 228.94,-68.75 238.94,-72.25 238.94,-65.25"/>
</g>
<!-- Node5 -->
<g id="Node000005" class="node">
<title>Node5</title>
<g id="a_Node000005"><a xlink:href="group__SMBUS__Exported__Functions__Group3.html" target="_top" xlink:title=" ">
<polygon fill="white" stroke="#666666" points="391.88,-33.5 273.88,-33.5 273.88,0 391.88,0 391.88,-33.5"/>
<text text-anchor="start" x="281.88" y="-20" font-family="Helvetica,sans-Serif" font-size="10.00">Peripheral State, Mode</text>
<text text-anchor="middle" x="332.88" y="-7.25" font-family="Helvetica,sans-Serif" font-size="10.00"> and Error functions</text>
</a>
</g>
</g>
<!-- Node1&#45;&gt;Node5 -->
<g id="edge4" class="edge">
<title>Node1&#45;&gt;Node5</title>
<path fill="none" stroke="black" d="M203.52,-54.75C225.14,-48.35 250.96,-40.71 273.75,-33.96"/>
<polygon fill="black" stroke="black" points="202.69,-51.35 194.09,-57.55 204.67,-58.06 202.69,-51.35"/>
</g>
</g>
</svg>
