<?xml version="1.0" encoding="UTF-8" standalone="no"?>
<!DOCTYPE svg PUBLIC "-//W3C//DTD SVG 1.1//EN"
 "http://www.w3.org/Graphics/SVG/1.1/DTD/svg11.dtd">
<!-- Generated by graphviz version 2.43.0 (0)
 -->
<!-- Title: STM32F4xx_HAL_Driver Pages: 1 -->
<svg width="330pt" height="2048pt"
 viewBox="0.00 0.00 330.00 2048.00" xmlns="http://www.w3.org/2000/svg" xmlns:xlink="http://www.w3.org/1999/xlink">
<g id="graph0" class="graph" transform="scale(1 1) rotate(0) translate(4 2044)">
<title>STM32F4xx_HAL_Driver</title>
<!-- Node8 -->
<g id="Node000008" class="node">
<title>Node8</title>
<g id="a_Node000008"><a xlink:href="group__ADC.html" target="_top" xlink:title="ADC driver modules.">
<polygon fill="white" stroke="#666666" points="265,-2040 227,-2040 227,-2021 265,-2021 265,-2040"/>
<text text-anchor="middle" x="246" y="-2028" font-family="Helvetica,sans-Serif" font-size="10.00">ADC</text>
</a>
</g>
</g>
<!-- Node9 -->
<g id="Node000009" class="node">
<title>Node9</title>
<g id="a_Node000009"><a xlink:href="group__ADCEx.html" target="_top" xlink:title="ADC Extended driver modules.">
<polygon fill="white" stroke="#666666" points="271,-2003 221,-2003 221,-1984 271,-1984 271,-2003"/>
<text text-anchor="middle" x="246" y="-1991" font-family="Helvetica,sans-Serif" font-size="10.00">ADCEx</text>
</a>
</g>
</g>
<!-- Node10 -->
<g id="Node000010" class="node">
<title>Node10</title>
<g id="a_Node000010"><a xlink:href="group__CEC.html" target="_top" xlink:title="HAL CEC module driver.">
<polygon fill="white" stroke="#666666" points="264,-1966 228,-1966 228,-1947 264,-1947 264,-1966"/>
<text text-anchor="middle" x="246" y="-1954" font-family="Helvetica,sans-Serif" font-size="10.00">CEC</text>
</a>
</g>
</g>
<!-- Node11 -->
<g id="Node000011" class="node">
<title>Node11</title>
<g id="a_Node000011"><a xlink:href="group__CORTEX.html" target="_top" xlink:title="CORTEX HAL module driver.">
<polygon fill="white" stroke="#666666" points="274,-1929 218,-1929 218,-1910 274,-1910 274,-1929"/>
<text text-anchor="middle" x="246" y="-1917" font-family="Helvetica,sans-Serif" font-size="10.00">CORTEX</text>
</a>
</g>
</g>
<!-- Node12 -->
<g id="Node000012" class="node">
<title>Node12</title>
<g id="a_Node000012"><a xlink:href="group__CRC.html" target="_top" xlink:title="CRC HAL module driver.">
<polygon fill="white" stroke="#666666" points="264.5,-1892 227.5,-1892 227.5,-1873 264.5,-1873 264.5,-1892"/>
<text text-anchor="middle" x="246" y="-1880" font-family="Helvetica,sans-Serif" font-size="10.00">CRC</text>
</a>
</g>
</g>
<!-- Node51 -->
<g id="Node000051" class="node">
<title>Node51</title>
<g id="a_Node000051"><a xlink:href="group__CRYPEx.html" target="_top" xlink:title=" ">
<polygon fill="white" stroke="#666666" points="272.5,-1855 219.5,-1855 219.5,-1836 272.5,-1836 272.5,-1855"/>
<text text-anchor="middle" x="246" y="-1843" font-family="Helvetica,sans-Serif" font-size="10.00">CRYPEx</text>
</a>
</g>
</g>
<!-- Node13 -->
<g id="Node000013" class="node">
<title>Node13</title>
<g id="a_Node000013"><a xlink:href="group__DCMI.html" target="_top" xlink:title="DCMI HAL module driver.">
<polygon fill="white" stroke="#666666" points="267.5,-1818 224.5,-1818 224.5,-1799 267.5,-1799 267.5,-1818"/>
<text text-anchor="middle" x="246" y="-1806" font-family="Helvetica,sans-Serif" font-size="10.00">DCMI</text>
</a>
</g>
</g>
<!-- Node14 -->
<g id="Node000014" class="node">
<title>Node14</title>
<g id="a_Node000014"><a xlink:href="group__DCMIEx.html" target="_top" xlink:title="DCMI Extended HAL module driver.">
<polygon fill="white" stroke="#666666" points="273.5,-1781 218.5,-1781 218.5,-1762 273.5,-1762 273.5,-1781"/>
<text text-anchor="middle" x="246" y="-1769" font-family="Helvetica,sans-Serif" font-size="10.00">DCMIEx</text>
</a>
</g>
</g>
<!-- Node15 -->
<g id="Node000015" class="node">
<title>Node15</title>
<g id="a_Node000015"><a xlink:href="group__DMA.html" target="_top" xlink:title="DMA HAL module driver.">
<polygon fill="white" stroke="#666666" points="266,-1744 226,-1744 226,-1725 266,-1725 266,-1744"/>
<text text-anchor="middle" x="246" y="-1732" font-family="Helvetica,sans-Serif" font-size="10.00">DMA</text>
</a>
</g>
</g>
<!-- Node16 -->
<g id="Node000016" class="node">
<title>Node16</title>
<g id="a_Node000016"><a xlink:href="group__DMAEx.html" target="_top" xlink:title="DMA Extended HAL module driver.">
<polygon fill="white" stroke="#666666" points="272,-1707 220,-1707 220,-1688 272,-1688 272,-1707"/>
<text text-anchor="middle" x="246" y="-1695" font-family="Helvetica,sans-Serif" font-size="10.00">DMAEx</text>
</a>
</g>
</g>
<!-- Node2 -->
<g id="Node000002" class="node">
<title>Node2</title>
<g id="a_Node000002"><a xlink:href="group__EXTI.html" target="_top" xlink:title="EXTI HAL module driver.">
<polygon fill="white" stroke="#666666" points="265,-1670 227,-1670 227,-1651 265,-1651 265,-1670"/>
<text text-anchor="middle" x="246" y="-1658" font-family="Helvetica,sans-Serif" font-size="10.00">EXTI</text>
</a>
</g>
</g>
<!-- Node17 -->
<g id="Node000017" class="node">
<title>Node17</title>
<g id="a_Node000017"><a xlink:href="group__FLASH.html" target="_top" xlink:title="FLASH HAL module driver.">
<polygon fill="white" stroke="#666666" points="270.5,-1633 221.5,-1633 221.5,-1614 270.5,-1614 270.5,-1633"/>
<text text-anchor="middle" x="246" y="-1621" font-family="Helvetica,sans-Serif" font-size="10.00">FLASH</text>
</a>
</g>
</g>
<!-- Node18 -->
<g id="Node000018" class="node">
<title>Node18</title>
<g id="a_Node000018"><a xlink:href="group__FLASHEx.html" target="_top" xlink:title="FLASH HAL Extension module driver.">
<polygon fill="white" stroke="#666666" points="276.5,-1596 215.5,-1596 215.5,-1577 276.5,-1577 276.5,-1596"/>
<text text-anchor="middle" x="246" y="-1584" font-family="Helvetica,sans-Serif" font-size="10.00">FLASHEx</text>
</a>
</g>
</g>
<!-- Node19 -->
<g id="Node000019" class="node">
<title>Node19</title>
<g id="a_Node000019"><a xlink:href="group__FLASH__RAMFUNC.html" target="_top" xlink:title="FLASH functions executed from RAM.">
<polygon fill="white" stroke="#666666" points="297,-1559 195,-1559 195,-1540 297,-1540 297,-1559"/>
<text text-anchor="middle" x="246" y="-1547" font-family="Helvetica,sans-Serif" font-size="10.00">FLASH RAMFUNC</text>
</a>
</g>
</g>
<!-- Node54 -->
<g id="Node000054" class="node">
<title>Node54</title>
<g id="a_Node000054"><a xlink:href="group__FMC__LL.html" target="_top" xlink:title=" ">
<polygon fill="white" stroke="#666666" points="273,-1522 219,-1522 219,-1503 273,-1503 273,-1522"/>
<text text-anchor="middle" x="246" y="-1510" font-family="Helvetica,sans-Serif" font-size="10.00">FMC_LL</text>
</a>
</g>
</g>
<!-- Node5 -->
<g id="Node000005" class="node">
<title>Node5</title>
<g id="a_Node000005"><a xlink:href="group__FMC__LL__Private__Macros.html" target="_top" xlink:title=" ">
<polygon fill="white" stroke="#666666" points="312.5,-1485 179.5,-1485 179.5,-1466 312.5,-1466 312.5,-1485"/>
<text text-anchor="middle" x="246" y="-1473" font-family="Helvetica,sans-Serif" font-size="10.00">FMC_LL &#160;Private Macros</text>
</a>
</g>
</g>
<!-- Node20 -->
<g id="Node000020" class="node">
<title>Node20</title>
<g id="a_Node000020"><a xlink:href="group__FMPI2C.html" target="_top" xlink:title="FMPI2C HAL module driver.">
<polygon fill="white" stroke="#666666" points="272.5,-1448 219.5,-1448 219.5,-1429 272.5,-1429 272.5,-1448"/>
<text text-anchor="middle" x="246" y="-1436" font-family="Helvetica,sans-Serif" font-size="10.00">FMPI2C</text>
</a>
</g>
</g>
<!-- Node21 -->
<g id="Node000021" class="node">
<title>Node21</title>
<g id="a_Node000021"><a xlink:href="group__FMPI2CEx.html" target="_top" xlink:title="FMPI2C Extended HAL module driver.">
<polygon fill="white" stroke="#666666" points="278.5,-1411 213.5,-1411 213.5,-1392 278.5,-1392 278.5,-1411"/>
<text text-anchor="middle" x="246" y="-1399" font-family="Helvetica,sans-Serif" font-size="10.00">FMPI2CEx</text>
</a>
</g>
</g>
<!-- Node22 -->
<g id="Node000022" class="node">
<title>Node22</title>
<g id="a_Node000022"><a xlink:href="group__FMPSMBUS.html" target="_top" xlink:title="FMPSMBUS HAL module driver.">
<polygon fill="white" stroke="#666666" points="282.5,-1374 209.5,-1374 209.5,-1355 282.5,-1355 282.5,-1374"/>
<text text-anchor="middle" x="246" y="-1362" font-family="Helvetica,sans-Serif" font-size="10.00">FMPSMBUS</text>
</a>
</g>
</g>
<!-- Node23 -->
<g id="Node000023" class="node">
<title>Node23</title>
<g id="a_Node000023"><a xlink:href="group__FMPSMBUSEx.html" target="_top" xlink:title="FMPSMBUS Extended HAL module driver.">
<polygon fill="white" stroke="#666666" points="288.5,-1337 203.5,-1337 203.5,-1318 288.5,-1318 288.5,-1337"/>
<text text-anchor="middle" x="246" y="-1325" font-family="Helvetica,sans-Serif" font-size="10.00">FMPSMBUSEx</text>
</a>
</g>
</g>
<!-- Node55 -->
<g id="Node000055" class="node">
<title>Node55</title>
<g id="a_Node000055"><a xlink:href="group__FSMC__LL.html" target="_top" xlink:title=" ">
<polygon fill="white" stroke="#666666" points="275.5,-1300 216.5,-1300 216.5,-1281 275.5,-1281 275.5,-1300"/>
<text text-anchor="middle" x="246" y="-1288" font-family="Helvetica,sans-Serif" font-size="10.00">FSMC_LL</text>
</a>
</g>
</g>
<!-- Node6 -->
<g id="Node000006" class="node">
<title>Node6</title>
<g id="a_Node000006"><a xlink:href="group__FSMC__LL__Private__Macros.html" target="_top" xlink:title=" ">
<polygon fill="white" stroke="#666666" points="315,-1263 177,-1263 177,-1244 315,-1244 315,-1263"/>
<text text-anchor="middle" x="246" y="-1251" font-family="Helvetica,sans-Serif" font-size="10.00">FSMC_LL &#160;Private Macros</text>
</a>
</g>
</g>
<!-- Node24 -->
<g id="Node000024" class="node">
<title>Node24</title>
<g id="a_Node000024"><a xlink:href="group__GPIO.html" target="_top" xlink:title="GPIO HAL module driver.">
<polygon fill="white" stroke="#666666" points="266.5,-1226 225.5,-1226 225.5,-1207 266.5,-1207 266.5,-1226"/>
<text text-anchor="middle" x="246" y="-1214" font-family="Helvetica,sans-Serif" font-size="10.00">GPIO</text>
</a>
</g>
</g>
<!-- Node3 -->
<g id="Node000003" class="node">
<title>Node3</title>
<g id="a_Node000003"><a xlink:href="group__GPIOEx.html" target="_top" xlink:title=" ">
<polygon fill="white" stroke="#666666" points="272.5,-1189 219.5,-1189 219.5,-1170 272.5,-1170 272.5,-1189"/>
<text text-anchor="middle" x="246" y="-1177" font-family="Helvetica,sans-Serif" font-size="10.00">GPIOEx</text>
</a>
</g>
</g>
<!-- Node7 -->
<g id="Node000007" class="node">
<title>Node7</title>
<g id="a_Node000007"><a xlink:href="group__HAL.html" target="_top" xlink:title="HAL module driver.">
<polygon fill="white" stroke="#666666" points="264,-1152 228,-1152 228,-1133 264,-1133 264,-1152"/>
<text text-anchor="middle" x="246" y="-1140" font-family="Helvetica,sans-Serif" font-size="10.00">HAL</text>
</a>
</g>
</g>
<!-- Node30 -->
<g id="Node000030" class="node">
<title>Node30</title>
<g id="a_Node000030"><a xlink:href="group__HAL__MSP.html" target="_top" xlink:title="HAL MSP module.">
<polygon fill="white" stroke="#666666" points="276,-1115 216,-1115 216,-1096 276,-1096 276,-1115"/>
<text text-anchor="middle" x="246" y="-1103" font-family="Helvetica,sans-Serif" font-size="10.00">HAL MSP</text>
</a>
</g>
</g>
<!-- Node47 -->
<g id="Node000047" class="node">
<title>Node47</title>
<g id="a_Node000047"><a xlink:href="group__HAL__TimeBase__RTC__Alarm__Template.html" target="_top" xlink:title=" ">
<polygon fill="white" stroke="#666666" points="316.5,-1077.5 175.5,-1077.5 175.5,-1047.5 316.5,-1047.5 316.5,-1077.5"/>
<text text-anchor="start" x="183.5" y="-1065.5" font-family="Helvetica,sans-Serif" font-size="10.00">HAL TimeBase RTC Alarm</text>
<text text-anchor="middle" x="246" y="-1054.5" font-family="Helvetica,sans-Serif" font-size="10.00"> Template</text>
</a>
</g>
</g>
<!-- Node48 -->
<g id="Node000048" class="node">
<title>Node48</title>
<g id="a_Node000048"><a xlink:href="group__HAL__TimeBase__RTC__WakeUp__Template.html" target="_top" xlink:title=" ">
<polygon fill="white" stroke="#666666" points="322,-1029.5 170,-1029.5 170,-999.5 322,-999.5 322,-1029.5"/>
<text text-anchor="start" x="178" y="-1017.5" font-family="Helvetica,sans-Serif" font-size="10.00">HAL TimeBase RTC WakeUp</text>
<text text-anchor="middle" x="246" y="-1006.5" font-family="Helvetica,sans-Serif" font-size="10.00"> Template</text>
</a>
</g>
</g>
<!-- Node56 -->
<g id="Node000056" class="node">
<title>Node56</title>
<g id="a_Node000056"><a xlink:href="group__HAL__TimeBase__TIM.html" target="_top" xlink:title=" ">
<polygon fill="white" stroke="#666666" points="302.5,-981 189.5,-981 189.5,-962 302.5,-962 302.5,-981"/>
<text text-anchor="middle" x="246" y="-969" font-family="Helvetica,sans-Serif" font-size="10.00">HAL_TimeBase_TIM</text>
</a>
</g>
</g>
<!-- Node25 -->
<g id="Node000025" class="node">
<title>Node25</title>
<g id="a_Node000025"><a xlink:href="group__I2C.html" target="_top" xlink:title="I2C HAL module driver.">
<polygon fill="white" stroke="#666666" points="262,-944 230,-944 230,-925 262,-925 262,-944"/>
<text text-anchor="middle" x="246" y="-932" font-family="Helvetica,sans-Serif" font-size="10.00">I2C</text>
</a>
</g>
</g>
<!-- Node26 -->
<g id="Node000026" class="node">
<title>Node26</title>
<g id="a_Node000026"><a xlink:href="group__I2CEx.html" target="_top" xlink:title="I2C HAL module driver.">
<polygon fill="white" stroke="#666666" points="268,-907 224,-907 224,-888 268,-888 268,-907"/>
<text text-anchor="middle" x="246" y="-895" font-family="Helvetica,sans-Serif" font-size="10.00">I2CEx</text>
</a>
</g>
</g>
<!-- Node52 -->
<g id="Node000052" class="node">
<title>Node52</title>
<g id="a_Node000052"><a xlink:href="group__I2S.html" target="_top" xlink:title=" ">
<polygon fill="white" stroke="#666666" points="262,-870 230,-870 230,-851 262,-851 262,-870"/>
<text text-anchor="middle" x="246" y="-858" font-family="Helvetica,sans-Serif" font-size="10.00">I2S</text>
</a>
</g>
</g>
<!-- Node27 -->
<g id="Node000027" class="node">
<title>Node27</title>
<g id="a_Node000027"><a xlink:href="group__IRDA.html" target="_top" xlink:title="HAL IRDA module driver.">
<polygon fill="white" stroke="#666666" points="266.5,-833 225.5,-833 225.5,-814 266.5,-814 266.5,-833"/>
<text text-anchor="middle" x="246" y="-821" font-family="Helvetica,sans-Serif" font-size="10.00">IRDA</text>
</a>
</g>
</g>
<!-- Node4 -->
<g id="Node000004" class="node">
<title>Node4</title>
<g id="a_Node000004"><a xlink:href="group__IWDG.html" target="_top" xlink:title=" ">
<polygon fill="white" stroke="#666666" points="268,-796 224,-796 224,-777 268,-777 268,-796"/>
<text text-anchor="middle" x="246" y="-784" font-family="Helvetica,sans-Serif" font-size="10.00">IWDG</text>
</a>
</g>
</g>
<!-- Node28 -->
<g id="Node000028" class="node">
<title>Node28</title>
<g id="a_Node000028"><a xlink:href="group__LPTIM.html" target="_top" xlink:title="LPTIM HAL module driver.">
<polygon fill="white" stroke="#666666" points="269,-759 223,-759 223,-740 269,-740 269,-759"/>
<text text-anchor="middle" x="246" y="-747" font-family="Helvetica,sans-Serif" font-size="10.00">LPTIM</text>
</a>
</g>
</g>
<!-- Node29 -->
<g id="Node000029" class="node">
<title>Node29</title>
<g id="a_Node000029"><a xlink:href="group__MMC.html" target="_top" xlink:title="MMC HAL module driver.">
<polygon fill="white" stroke="#666666" points="266.5,-722 225.5,-722 225.5,-703 266.5,-703 266.5,-722"/>
<text text-anchor="middle" x="246" y="-710" font-family="Helvetica,sans-Serif" font-size="10.00">MMC</text>
</a>
</g>
</g>
<!-- Node31 -->
<g id="Node000031" class="node">
<title>Node31</title>
<g id="a_Node000031"><a xlink:href="group__PCD.html" target="_top" xlink:title="PCD HAL module driver.">
<polygon fill="white" stroke="#666666" points="264.5,-685 227.5,-685 227.5,-666 264.5,-666 264.5,-685"/>
<text text-anchor="middle" x="246" y="-673" font-family="Helvetica,sans-Serif" font-size="10.00">PCD</text>
</a>
</g>
</g>
<!-- Node32 -->
<g id="Node000032" class="node">
<title>Node32</title>
<g id="a_Node000032"><a xlink:href="group__PCDEx.html" target="_top" xlink:title="PCD Extended HAL module driver.">
<polygon fill="white" stroke="#666666" points="270.5,-648 221.5,-648 221.5,-629 270.5,-629 270.5,-648"/>
<text text-anchor="middle" x="246" y="-636" font-family="Helvetica,sans-Serif" font-size="10.00">PCDEx</text>
</a>
</g>
</g>
<!-- Node33 -->
<g id="Node000033" class="node">
<title>Node33</title>
<g id="a_Node000033"><a xlink:href="group__PWR.html" target="_top" xlink:title="PWR HAL module driver.">
<polygon fill="white" stroke="#666666" points="265.5,-611 226.5,-611 226.5,-592 265.5,-592 265.5,-611"/>
<text text-anchor="middle" x="246" y="-599" font-family="Helvetica,sans-Serif" font-size="10.00">PWR</text>
</a>
</g>
</g>
<!-- Node34 -->
<g id="Node000034" class="node">
<title>Node34</title>
<g id="a_Node000034"><a xlink:href="group__PWREx.html" target="_top" xlink:title="PWR HAL module driver.">
<polygon fill="white" stroke="#666666" points="271.5,-574 220.5,-574 220.5,-555 271.5,-555 271.5,-574"/>
<text text-anchor="middle" x="246" y="-562" font-family="Helvetica,sans-Serif" font-size="10.00">PWREx</text>
</a>
</g>
</g>
<!-- Node35 -->
<g id="Node000035" class="node">
<title>Node35</title>
<g id="a_Node000035"><a xlink:href="group__RCC.html" target="_top" xlink:title="RCC HAL module driver.">
<polygon fill="white" stroke="#666666" points="264.5,-537 227.5,-537 227.5,-518 264.5,-518 264.5,-537"/>
<text text-anchor="middle" x="246" y="-525" font-family="Helvetica,sans-Serif" font-size="10.00">RCC</text>
</a>
</g>
</g>
<!-- Node36 -->
<g id="Node000036" class="node">
<title>Node36</title>
<g id="a_Node000036"><a xlink:href="group__RCCEx.html" target="_top" xlink:title="RCCEx HAL module driver.">
<polygon fill="white" stroke="#666666" points="270.5,-500 221.5,-500 221.5,-481 270.5,-481 270.5,-500"/>
<text text-anchor="middle" x="246" y="-488" font-family="Helvetica,sans-Serif" font-size="10.00">RCCEx</text>
</a>
</g>
</g>
<!-- Node37 -->
<g id="Node000037" class="node">
<title>Node37</title>
<g id="a_Node000037"><a xlink:href="group__RTC.html" target="_top" xlink:title="RTC HAL module driver.">
<polygon fill="white" stroke="#666666" points="263.5,-463 228.5,-463 228.5,-444 263.5,-444 263.5,-463"/>
<text text-anchor="middle" x="246" y="-451" font-family="Helvetica,sans-Serif" font-size="10.00">RTC</text>
</a>
</g>
</g>
<!-- Node38 -->
<g id="Node000038" class="node">
<title>Node38</title>
<g id="a_Node000038"><a xlink:href="group__RTCEx.html" target="_top" xlink:title="RTC Extended HAL module driver.">
<polygon fill="white" stroke="#666666" points="269.5,-426 222.5,-426 222.5,-407 269.5,-407 269.5,-426"/>
<text text-anchor="middle" x="246" y="-414" font-family="Helvetica,sans-Serif" font-size="10.00">RTCEx</text>
</a>
</g>
</g>
<!-- Node39 -->
<g id="Node000039" class="node">
<title>Node39</title>
<g id="a_Node000039"><a xlink:href="group__SAI.html" target="_top" xlink:title="SAI HAL module driver.">
<polygon fill="white" stroke="#666666" points="262.5,-389 229.5,-389 229.5,-370 262.5,-370 262.5,-389"/>
<text text-anchor="middle" x="246" y="-377" font-family="Helvetica,sans-Serif" font-size="10.00">SAI</text>
</a>
</g>
</g>
<!-- Node40 -->
<g id="Node000040" class="node">
<title>Node40</title>
<g id="a_Node000040"><a xlink:href="group__SAIEx.html" target="_top" xlink:title="SAI Extension HAL module driver.">
<polygon fill="white" stroke="#666666" points="268.5,-352 223.5,-352 223.5,-333 268.5,-333 268.5,-352"/>
<text text-anchor="middle" x="246" y="-340" font-family="Helvetica,sans-Serif" font-size="10.00">SAIEx</text>
</a>
</g>
</g>
<!-- Node41 -->
<g id="Node000041" class="node">
<title>Node41</title>
<g id="a_Node000041"><a xlink:href="group__SMARTCARD.html" target="_top" xlink:title="HAL SMARTCARD module driver.">
<polygon fill="white" stroke="#666666" points="284.5,-315 207.5,-315 207.5,-296 284.5,-296 284.5,-315"/>
<text text-anchor="middle" x="246" y="-303" font-family="Helvetica,sans-Serif" font-size="10.00">SMARTCARD</text>
</a>
</g>
</g>
<!-- Node42 -->
<g id="Node000042" class="node">
<title>Node42</title>
<g id="a_Node000042"><a xlink:href="group__SMBUS.html" target="_top" xlink:title="SMBUS HAL module driver.">
<polygon fill="white" stroke="#666666" points="272,-278 220,-278 220,-259 272,-259 272,-278"/>
<text text-anchor="middle" x="246" y="-266" font-family="Helvetica,sans-Serif" font-size="10.00">SMBUS</text>
</a>
</g>
</g>
<!-- Node43 -->
<g id="Node000043" class="node">
<title>Node43</title>
<g id="a_Node000043"><a xlink:href="group__SPDIFRX.html" target="_top" xlink:title="SPDIFRX HAL module driver.">
<polygon fill="white" stroke="#666666" points="275.5,-241 216.5,-241 216.5,-222 275.5,-222 275.5,-241"/>
<text text-anchor="middle" x="246" y="-229" font-family="Helvetica,sans-Serif" font-size="10.00">SPDIFRX</text>
</a>
</g>
</g>
<!-- Node44 -->
<g id="Node000044" class="node">
<title>Node44</title>
<g id="a_Node000044"><a xlink:href="group__SPI.html" target="_top" xlink:title="SPI HAL module driver.">
<polygon fill="white" stroke="#666666" points="262,-204 230,-204 230,-185 262,-185 262,-204"/>
<text text-anchor="middle" x="246" y="-192" font-family="Helvetica,sans-Serif" font-size="10.00">SPI</text>
</a>
</g>
</g>
<!-- Node1 -->
<g id="Node000001" class="node">
<title>Node1</title>
<g id="a_Node000001"><a xlink:title=" ">
<polygon fill="#999999" stroke="#666666" points="134,-1024 0,-1024 0,-1005 134,-1005 134,-1024"/>
<text text-anchor="middle" x="67" y="-1012" font-family="Helvetica,sans-Serif" font-size="10.00">STM32F4xx_HAL_Driver</text>
</a>
</g>
</g>
<!-- Node1&#45;&gt;Node8 -->
<g id="edge7" class="edge">
<title>Node1&#45;&gt;Node8</title>
<path fill="none" stroke="black" d="M68.66,-1034.17C73.33,-1167.53 103.02,-1935.91 170,-2012.5 184.02,-2028.53 209.55,-2031.59 226.89,-2031.61"/>
<polygon fill="black" stroke="black" points="72.16,-1034.04 68.32,-1024.17 65.16,-1034.28 72.16,-1034.04"/>
</g>
<!-- Node1&#45;&gt;Node9 -->
<g id="edge8" class="edge">
<title>Node1&#45;&gt;Node9</title>
<path fill="none" stroke="black" d="M68.75,-1034.24C73.86,-1164.89 105.46,-1901.99 170,-1975.5 182.46,-1989.69 203.94,-1993.71 220.73,-1994.46"/>
<polygon fill="black" stroke="black" points="72.24,-1033.96 68.36,-1024.11 65.24,-1034.23 72.24,-1033.96"/>
</g>
<!-- Node1&#45;&gt;Node10 -->
<g id="edge9" class="edge">
<title>Node1&#45;&gt;Node10</title>
<path fill="none" stroke="black" d="M68.84,-1034.26C74.41,-1162.01 107.9,-1868.06 170,-1938.5 184.35,-1954.77 210.57,-1957.66 227.89,-1957.58"/>
<polygon fill="black" stroke="black" points="72.32,-1033.87 68.4,-1024.03 65.33,-1034.17 72.32,-1033.87"/>
</g>
<!-- Node1&#45;&gt;Node11 -->
<g id="edge10" class="edge">
<title>Node1&#45;&gt;Node11</title>
<path fill="none" stroke="black" d="M68.93,-1034.25C74.98,-1158.95 110.33,-1834.13 170,-1901.5 181.81,-1914.83 201.59,-1919.17 217.87,-1920.26"/>
<polygon fill="black" stroke="black" points="72.42,-1034.03 68.45,-1024.21 65.43,-1034.37 72.42,-1034.03"/>
</g>
<!-- Node1&#45;&gt;Node12 -->
<g id="edge11" class="edge">
<title>Node1&#45;&gt;Node12</title>
<path fill="none" stroke="black" d="M69.03,-1034.17C75.55,-1155.59 112.74,-1800.17 170,-1864.5 184.25,-1880.5 209.98,-1883.53 227.28,-1883.56"/>
<polygon fill="black" stroke="black" points="72.52,-1033.89 68.49,-1024.09 65.53,-1034.26 72.52,-1033.89"/>
</g>
<!-- Node1&#45;&gt;Node51 -->
<g id="edge50" class="edge">
<title>Node1&#45;&gt;Node51</title>
<path fill="none" stroke="black" d="M69.16,-1034.41C76.23,-1153.28 115.2,-1766.27 170,-1827.5 182.23,-1841.17 202.85,-1845.36 219.38,-1846.31"/>
<polygon fill="black" stroke="black" points="72.64,-1033.99 68.56,-1024.21 65.65,-1034.4 72.64,-1033.99"/>
</g>
<!-- Node1&#45;&gt;Node13 -->
<g id="edge12" class="edge">
<title>Node1&#45;&gt;Node13</title>
<path fill="none" stroke="black" d="M67.69,-1034.5C66.42,-1144.47 65.83,-1674.8 170,-1790.5 183.53,-1805.53 207.19,-1809.09 224.33,-1809.48"/>
<polygon fill="black" stroke="black" points="71.2,-1034.24 67.83,-1024.19 64.2,-1034.15 71.2,-1034.24"/>
</g>
<!-- Node1&#45;&gt;Node14 -->
<g id="edge13" class="edge">
<title>Node1&#45;&gt;Node14</title>
<path fill="none" stroke="black" d="M67.84,-1034.54C67.39,-1141.46 70.67,-1643.88 170,-1753.5 182.05,-1766.8 202.03,-1771.1 218.34,-1772.19"/>
<polygon fill="black" stroke="black" points="71.34,-1034.25 67.9,-1024.23 64.34,-1034.21 71.34,-1034.25"/>
</g>
<!-- Node1&#45;&gt;Node15 -->
<g id="edge14" class="edge">
<title>Node1&#45;&gt;Node15</title>
<path fill="none" stroke="black" d="M68,-1034.51C68.41,-1138.13 75.47,-1612.93 170,-1716.5 183.99,-1731.83 208.53,-1735.2 225.72,-1735.46"/>
<polygon fill="black" stroke="black" points="71.5,-1034.22 67.98,-1024.23 64.5,-1034.23 71.5,-1034.22"/>
</g>
<!-- Node1&#45;&gt;Node16 -->
<g id="edge15" class="edge">
<title>Node1&#45;&gt;Node16</title>
<path fill="none" stroke="black" d="M68.17,-1034.4C69.46,-1134.48 80.24,-1581.93 170,-1679.5 182.51,-1693.1 203.33,-1697.27 219.86,-1698.22"/>
<polygon fill="black" stroke="black" points="71.67,-1034.15 68.06,-1024.19 64.67,-1034.22 71.67,-1034.15"/>
</g>
<!-- Node1&#45;&gt;Node2 -->
<g id="edge1" class="edge">
<title>Node1&#45;&gt;Node2</title>
<path fill="none" stroke="black" d="M68.37,-1034.2C70.57,-1130.5 84.98,-1550.89 170,-1642.5 184.39,-1658.01 209.59,-1661.23 226.77,-1661.42"/>
<polygon fill="black" stroke="black" points="71.86,-1034.03 68.16,-1024.1 64.87,-1034.17 71.86,-1034.03"/>
</g>
<!-- Node1&#45;&gt;Node17 -->
<g id="edge16" class="edge">
<title>Node1&#45;&gt;Node17</title>
<path fill="none" stroke="black" d="M68.6,-1034.5C71.79,-1127.88 89.85,-1520 170,-1605.5 183,-1619.37 204.66,-1623.39 221.36,-1624.22"/>
<polygon fill="black" stroke="black" points="72.09,-1034.3 68.27,-1024.42 65.1,-1034.53 72.09,-1034.3"/>
</g>
<!-- Node1&#45;&gt;Node18 -->
<g id="edge17" class="edge">
<title>Node1&#45;&gt;Node18</title>
<path fill="none" stroke="black" d="M68.84,-1034.37C73.03,-1123.9 94.59,-1488.94 170,-1568.5 181.52,-1580.65 199.67,-1585.22 215.23,-1586.73"/>
<polygon fill="black" stroke="black" points="72.33,-1034.06 68.39,-1024.23 65.34,-1034.38 72.33,-1034.06"/>
</g>
<!-- Node1&#45;&gt;Node19 -->
<g id="edge18" class="edge">
<title>Node1&#45;&gt;Node19</title>
<path fill="none" stroke="black" d="M69.13,-1034.4C74.39,-1120.26 99.36,-1457.92 170,-1531.5 176.68,-1538.45 185.53,-1542.92 194.81,-1545.75"/>
<polygon fill="black" stroke="black" points="72.62,-1034.18 68.53,-1024.41 65.63,-1034.6 72.62,-1034.18"/>
</g>
<!-- Node1&#45;&gt;Node54 -->
<g id="edge53" class="edge">
<title>Node1&#45;&gt;Node54</title>
<path fill="none" stroke="black" d="M69.46,-1034.51C75.87,-1116.66 104.13,-1426.88 170,-1494.5 182.52,-1507.35 202.48,-1511.68 218.67,-1512.89"/>
<polygon fill="black" stroke="black" points="72.92,-1033.81 68.67,-1024.1 65.94,-1034.33 72.92,-1033.81"/>
</g>
<!-- Node1&#45;&gt;Node5 -->
<g id="edge4" class="edge">
<title>Node1&#45;&gt;Node5</title>
<path fill="none" stroke="black" d="M69.84,-1034.45C77.43,-1112.48 108.84,-1395.78 170,-1457.5 173.3,-1460.83 177.1,-1463.58 181.2,-1465.86"/>
<polygon fill="black" stroke="black" points="73.29,-1033.74 68.86,-1024.11 66.32,-1034.4 73.29,-1033.74"/>
</g>
<!-- Node1&#45;&gt;Node20 -->
<g id="edge19" class="edge">
<title>Node1&#45;&gt;Node20</title>
<path fill="none" stroke="black" d="M70.26,-1034.19C79.07,-1107.68 113.48,-1364.58 170,-1420.5 182.85,-1433.21 203,-1437.53 219.19,-1438.76"/>
<polygon fill="black" stroke="black" points="73.71,-1033.55 69.06,-1024.03 66.75,-1034.37 73.71,-1033.55"/>
</g>
<!-- Node1&#45;&gt;Node21 -->
<g id="edge20" class="edge">
<title>Node1&#45;&gt;Node21</title>
<path fill="none" stroke="black" d="M70.78,-1034.17C80.94,-1103.26 118.16,-1333.4 170,-1383.5 181.46,-1394.57 198.47,-1399.24 213.4,-1401.07"/>
<polygon fill="black" stroke="black" points="74.23,-1033.58 69.34,-1024.18 67.3,-1034.58 74.23,-1033.58"/>
</g>
<!-- Node1&#45;&gt;Node22 -->
<g id="edge21" class="edge">
<title>Node1&#45;&gt;Node22</title>
<path fill="none" stroke="black" d="M67.76,-1034.38C68.19,-1091.89 77.69,-1259.79 170,-1346.5 180.54,-1356.4 195.54,-1361.15 209.35,-1363.34"/>
<polygon fill="black" stroke="black" points="71.26,-1034.14 67.77,-1024.13 64.26,-1034.13 71.26,-1034.14"/>
</g>
<!-- Node1&#45;&gt;Node23 -->
<g id="edge22" class="edge">
<title>Node1&#45;&gt;Node23</title>
<path fill="none" stroke="black" d="M68.64,-1034.28C71.46,-1087.36 86.8,-1234.03 170,-1309.5 179.12,-1317.78 191.38,-1322.43 203.33,-1324.99"/>
<polygon fill="black" stroke="black" points="72.13,-1034.01 68.2,-1024.17 65.13,-1034.31 72.13,-1034.01"/>
</g>
<!-- Node1&#45;&gt;Node55 -->
<g id="edge54" class="edge">
<title>Node1&#45;&gt;Node55</title>
<path fill="none" stroke="black" d="M69.76,-1034.37C75.15,-1082.9 95.92,-1208.19 170,-1272.5 182.74,-1283.56 201.11,-1288.09 216.48,-1289.85"/>
<polygon fill="black" stroke="black" points="73.22,-1033.85 68.74,-1024.25 66.26,-1034.55 73.22,-1033.85"/>
</g>
<!-- Node1&#45;&gt;Node6 -->
<g id="edge5" class="edge">
<title>Node1&#45;&gt;Node6</title>
<path fill="none" stroke="black" d="M71.17,-1034.15C79.25,-1077.56 104.78,-1182 170,-1235.5 174.14,-1238.9 178.82,-1241.67 183.77,-1243.94"/>
<polygon fill="black" stroke="black" points="74.62,-1033.52 69.44,-1024.28 67.72,-1034.73 74.62,-1033.52"/>
</g>
<!-- Node1&#45;&gt;Node24 -->
<g id="edge23" class="edge">
<title>Node1&#45;&gt;Node24</title>
<path fill="none" stroke="black" d="M73.15,-1034.18C84.14,-1072.18 113.63,-1155.64 170,-1198.5 185.99,-1210.66 208.99,-1214.75 225.3,-1216.05"/>
<polygon fill="black" stroke="black" points="76.47,-1033.05 70.42,-1024.34 69.72,-1034.92 76.47,-1033.05"/>
</g>
<!-- Node1&#45;&gt;Node3 -->
<g id="edge2" class="edge">
<title>Node1&#45;&gt;Node3</title>
<path fill="none" stroke="black" d="M75.81,-1033.7C89.77,-1065.47 122.09,-1128.73 170,-1161.5 184.48,-1171.4 203.78,-1175.88 219.17,-1177.9"/>
<polygon fill="black" stroke="black" points="78.92,-1032.05 71.79,-1024.22 72.48,-1034.79 78.92,-1032.05"/>
</g>
<!-- Node1&#45;&gt;Node7 -->
<g id="edge6" class="edge">
<title>Node1&#45;&gt;Node7</title>
<path fill="none" stroke="black" d="M79.68,-1032.67C96.55,-1057.38 130.13,-1101.18 170,-1124.5 188.03,-1135.05 211.94,-1139.42 227.86,-1141.23"/>
<polygon fill="black" stroke="black" points="82.51,-1030.6 74.05,-1024.21 76.68,-1034.48 82.51,-1030.6"/>
</g>
<!-- Node1&#45;&gt;Node30 -->
<g id="edge29" class="edge">
<title>Node1&#45;&gt;Node30</title>
<path fill="none" stroke="black" d="M86.56,-1030.81C106.07,-1047.15 138.27,-1071.89 170,-1086.5 184.4,-1093.13 201.46,-1097.68 215.67,-1100.67"/>
<polygon fill="black" stroke="black" points="88.66,-1028 78.78,-1024.17 84.12,-1033.33 88.66,-1028"/>
</g>
<!-- Node1&#45;&gt;Node47 -->
<g id="edge46" class="edge">
<title>Node1&#45;&gt;Node47</title>
<path fill="none" stroke="black" d="M113.32,-1026.79C136.51,-1033.08 164.95,-1040.79 189.46,-1047.44"/>
<polygon fill="black" stroke="black" points="113.96,-1023.34 103.39,-1024.1 112.13,-1030.09 113.96,-1023.34"/>
</g>
<!-- Node1&#45;&gt;Node48 -->
<g id="edge47" class="edge">
<title>Node1&#45;&gt;Node48</title>
<path fill="none" stroke="black" d="M144.41,-1014.5C152.89,-1014.5 161.53,-1014.5 169.99,-1014.5"/>
<polygon fill="black" stroke="black" points="144.16,-1011 134.16,-1014.5 144.16,-1018 144.16,-1011"/>
</g>
<!-- Node1&#45;&gt;Node56 -->
<g id="edge55" class="edge">
<title>Node1&#45;&gt;Node56</title>
<path fill="none" stroke="black" d="M117.26,-1002.53C145.22,-995.74 179.73,-987.36 205.83,-981.02"/>
<polygon fill="black" stroke="black" points="116.17,-999.2 107.28,-1004.96 117.83,-1006 116.17,-999.2"/>
</g>
<!-- Node1&#45;&gt;Node25 -->
<g id="edge24" class="edge">
<title>Node1&#45;&gt;Node25</title>
<path fill="none" stroke="black" d="M89.56,-999.06C109.56,-985.38 140.59,-965.71 170,-953.5 189.97,-945.21 214.49,-939.83 229.93,-936.98"/>
<polygon fill="black" stroke="black" points="87.4,-996.3 81.19,-1004.88 91.4,-1002.05 87.4,-996.3"/>
</g>
<!-- Node1&#45;&gt;Node26 -->
<g id="edge25" class="edge">
<title>Node1&#45;&gt;Node26</title>
<path fill="none" stroke="black" d="M81.49,-996.79C99.32,-974.64 132.85,-937.12 170,-916.5 186.79,-907.18 208.23,-902.34 223.88,-899.89"/>
<polygon fill="black" stroke="black" points="78.68,-994.7 75.25,-1004.72 84.18,-999.03 78.68,-994.7"/>
</g>
<!-- Node1&#45;&gt;Node52 -->
<g id="edge51" class="edge">
<title>Node1&#45;&gt;Node52</title>
<path fill="none" stroke="black" d="M76.91,-995.69C91.88,-966.22 124.9,-909.43 170,-879.5 188.24,-867.39 213.66,-863 229.72,-861.41"/>
<polygon fill="black" stroke="black" points="73.66,-994.37 72.38,-1004.89 79.94,-997.47 73.66,-994.37"/>
</g>
<!-- Node1&#45;&gt;Node27 -->
<g id="edge26" class="edge">
<title>Node1&#45;&gt;Node27</title>
<path fill="none" stroke="black" d="M73.9,-995.18C85.89,-959.3 116.57,-882.43 170,-842.5 186.14,-830.44 209.11,-825.99 225.37,-824.37"/>
<polygon fill="black" stroke="black" points="70.5,-994.32 70.78,-1004.91 77.17,-996.46 70.5,-994.32"/>
</g>
<!-- Node1&#45;&gt;Node4 -->
<g id="edge3" class="edge">
<title>Node1&#45;&gt;Node4</title>
<path fill="none" stroke="black" d="M71.8,-994.85C80.91,-953.23 108.01,-855.88 170,-805.5 185.22,-793.13 207.47,-788.69 223.79,-787.16"/>
<polygon fill="black" stroke="black" points="68.34,-994.31 69.74,-1004.82 75.19,-995.73 68.34,-994.31"/>
</g>
<!-- Node1&#45;&gt;Node28 -->
<g id="edge27" class="edge">
<title>Node1&#45;&gt;Node28</title>
<path fill="none" stroke="black" d="M70.2,-994.98C76.51,-948.35 99.08,-829.82 170,-768.5 184.63,-755.85 206.53,-751.42 222.9,-749.96"/>
<polygon fill="black" stroke="black" points="66.71,-994.61 68.95,-1004.97 73.66,-995.48 66.71,-994.61"/>
</g>
<!-- Node1&#45;&gt;Node29 -->
<g id="edge28" class="edge">
<title>Node1&#45;&gt;Node29</title>
<path fill="none" stroke="black" d="M69.01,-994.89C72.75,-943.51 90.15,-803.9 170,-731.5 185.13,-717.79 208.73,-713.66 225.41,-712.57"/>
<polygon fill="black" stroke="black" points="65.51,-994.77 68.37,-1004.97 72.5,-995.21 65.51,-994.77"/>
</g>
<!-- Node1&#45;&gt;Node31 -->
<g id="edge30" class="edge">
<title>Node1&#45;&gt;Node31</title>
<path fill="none" stroke="black" d="M68.08,-994.65C69.42,-938.65 81.21,-778.08 170,-694.5 185.45,-679.95 210.4,-676.13 227.24,-675.33"/>
<polygon fill="black" stroke="black" points="64.57,-994.9 67.92,-1004.95 71.57,-995 64.57,-994.9"/>
</g>
<!-- Node1&#45;&gt;Node32 -->
<g id="edge31" class="edge">
<title>Node1&#45;&gt;Node32</title>
<path fill="none" stroke="black" d="M67.31,-994.79C66.34,-934.77 71.99,-752.59 170,-657.5 183.59,-644.31 204.96,-639.89 221.42,-638.57"/>
<polygon fill="black" stroke="black" points="63.81,-994.9 67.56,-1004.82 70.81,-994.73 63.81,-994.9"/>
</g>
<!-- Node1&#45;&gt;Node33 -->
<g id="edge32" class="edge">
<title>Node1&#45;&gt;Node33</title>
<path fill="none" stroke="black" d="M70.42,-994.94C79.72,-923.07 115.32,-674.9 170,-620.5 184.86,-605.72 209.46,-601.9 226.41,-601.17"/>
<polygon fill="black" stroke="black" points="66.95,-994.55 69.16,-1004.91 73.89,-995.43 66.95,-994.55"/>
</g>
<!-- Node1&#45;&gt;Node34 -->
<g id="edge33" class="edge">
<title>Node1&#45;&gt;Node34</title>
<path fill="none" stroke="black" d="M69.99,-994.61C78.06,-918.06 110.74,-643.7 170,-583.5 183,-570.29 203.78,-565.8 220.17,-564.47"/>
<polygon fill="black" stroke="black" points="66.49,-994.48 68.95,-1004.78 73.45,-995.19 66.49,-994.48"/>
</g>
<!-- Node1&#45;&gt;Node35 -->
<g id="edge34" class="edge">
<title>Node1&#45;&gt;Node35</title>
<path fill="none" stroke="black" d="M69.6,-994.49C76.48,-913.68 106.09,-612.59 170,-546.5 184.85,-531.15 210.18,-527.54 227.25,-527"/>
<polygon fill="black" stroke="black" points="66.09,-994.5 68.75,-1004.76 73.07,-995.08 66.09,-994.5"/>
</g>
<!-- Node1&#45;&gt;Node36 -->
<g id="edge35" class="edge">
<title>Node1&#45;&gt;Node36</title>
<path fill="none" stroke="black" d="M69.24,-994.82C74.93,-910.61 101.3,-581.64 170,-509.5 183.15,-495.69 204.79,-491.35 221.45,-490.23"/>
<polygon fill="black" stroke="black" points="65.74,-994.62 68.58,-1004.83 72.73,-995.08 65.74,-994.62"/>
</g>
<!-- Node1&#45;&gt;Node37 -->
<g id="edge36" class="edge">
<title>Node1&#45;&gt;Node37</title>
<path fill="none" stroke="black" d="M68.94,-994.81C73.56,-906.83 96.58,-550.63 170,-472.5 184.99,-456.55 211.3,-453.21 228.43,-452.88"/>
<polygon fill="black" stroke="black" points="65.44,-994.82 68.43,-1004.99 72.43,-995.18 65.44,-994.82"/>
</g>
<!-- Node1&#45;&gt;Node38 -->
<g id="edge37" class="edge">
<title>Node1&#45;&gt;Node38</title>
<path fill="none" stroke="black" d="M68.69,-994.64C72.3,-902.74 91.89,-519.59 170,-435.5 183.26,-421.23 205.56,-417.03 222.4,-416.07"/>
<polygon fill="black" stroke="black" points="65.19,-994.67 68.31,-1004.79 72.18,-994.93 65.19,-994.67"/>
</g>
<!-- Node1&#45;&gt;Node39 -->
<g id="edge38" class="edge">
<title>Node1&#45;&gt;Node39</title>
<path fill="none" stroke="black" d="M68.46,-994.59C71.1,-899.07 87.16,-488.6 170,-398.5 185.09,-382.09 212.15,-378.97 229.3,-378.81"/>
<polygon fill="black" stroke="black" points="64.96,-994.55 68.21,-1004.64 71.96,-994.73 64.96,-994.55"/>
</g>
<!-- Node1&#45;&gt;Node40 -->
<g id="edge39" class="edge">
<title>Node1&#45;&gt;Node40</title>
<path fill="none" stroke="black" d="M68.25,-994.98C69.93,-896.79 82.29,-457.78 170,-361.5 183.39,-346.8 206.36,-342.75 223.37,-341.94"/>
<polygon fill="black" stroke="black" points="64.75,-994.95 68.1,-1005 71.75,-995.05 64.75,-994.95"/>
</g>
<!-- Node1&#45;&gt;Node41 -->
<g id="edge40" class="edge">
<title>Node1&#45;&gt;Node41</title>
<path fill="none" stroke="black" d="M68.08,-994.85C68.87,-893.09 77.57,-426.81 170,-324.5 179.45,-314.03 193.77,-308.96 207.37,-306.61"/>
<polygon fill="black" stroke="black" points="64.57,-994.93 68.01,-1004.95 71.57,-994.97 64.57,-994.93"/>
</g>
<!-- Node1&#45;&gt;Node42 -->
<g id="edge41" class="edge">
<title>Node1&#45;&gt;Node42</title>
<path fill="none" stroke="black" d="M67.91,-994.8C67.85,-889.71 72.81,-395.88 170,-287.5 182.38,-273.7 203.2,-269.26 219.77,-268.09"/>
<polygon fill="black" stroke="black" points="64.41,-994.95 67.94,-1004.94 71.41,-994.93 64.41,-994.95"/>
</g>
<!-- Node1&#45;&gt;Node43 -->
<g id="edge42" class="edge">
<title>Node1&#45;&gt;Node43</title>
<path fill="none" stroke="black" d="M67.77,-994.83C66.88,-886.66 68.02,-364.98 170,-250.5 181.53,-237.56 200.48,-232.84 216.45,-231.34"/>
<polygon fill="black" stroke="black" points="64.27,-995 67.87,-1004.97 71.27,-994.93 64.27,-995"/>
</g>
<!-- Node1&#45;&gt;Node44 -->
<g id="edge43" class="edge">
<title>Node1&#45;&gt;Node44</title>
<path fill="none" stroke="black" d="M67.63,-994.58C65.95,-882.78 63.31,-334.01 170,-213.5 184.96,-196.6 212.58,-193.7 229.81,-193.7"/>
<polygon fill="black" stroke="black" points="64.13,-994.83 67.8,-1004.77 71.13,-994.71 64.13,-994.83"/>
</g>
<!-- Node45 -->
<g id="Node000045" class="node">
<title>Node45</title>
<g id="a_Node000045"><a xlink:href="group__TIM.html" target="_top" xlink:title="TIM HAL module driver.">
<polygon fill="white" stroke="#666666" points="263.5,-167 228.5,-167 228.5,-148 263.5,-148 263.5,-167"/>
<text text-anchor="middle" x="246" y="-155" font-family="Helvetica,sans-Serif" font-size="10.00">TIM</text>
</a>
</g>
</g>
<!-- Node1&#45;&gt;Node45 -->
<g id="edge44" class="edge">
<title>Node1&#45;&gt;Node45</title>
<path fill="none" stroke="black" d="M69.08,-994.74C75.85,-874.13 113.94,-240.17 170,-176.5 184.47,-160.07 210.92,-156.86 228.23,-156.69"/>
<polygon fill="black" stroke="black" points="65.58,-994.6 68.52,-1004.77 72.57,-994.98 65.58,-994.6"/>
</g>
<!-- Node46 -->
<g id="Node000046" class="node">
<title>Node46</title>
<g id="a_Node000046"><a xlink:href="group__TIMEx.html" target="_top" xlink:title="TIM Extended HAL module driver.">
<polygon fill="white" stroke="#666666" points="269.5,-130 222.5,-130 222.5,-111 269.5,-111 269.5,-130"/>
<text text-anchor="middle" x="246" y="-118" font-family="Helvetica,sans-Serif" font-size="10.00">TIMEx</text>
</a>
</g>
</g>
<!-- Node1&#45;&gt;Node46 -->
<g id="edge45" class="edge">
<title>Node1&#45;&gt;Node46</title>
<path fill="none" stroke="black" d="M68.98,-994.66C75.26,-870.73 111.55,-206.23 170,-139.5 182.83,-124.85 205.19,-120.7 222.16,-119.86"/>
<polygon fill="black" stroke="black" points="65.47,-994.76 68.46,-1004.92 72.46,-995.11 65.47,-994.76"/>
</g>
<!-- Node49 -->
<g id="Node000049" class="node">
<title>Node49</title>
<g id="a_Node000049"><a xlink:href="group__UART.html" target="_top" xlink:title="HAL UART module driver.">
<polygon fill="white" stroke="#666666" points="267.5,-93 224.5,-93 224.5,-74 267.5,-74 267.5,-93"/>
<text text-anchor="middle" x="246" y="-81" font-family="Helvetica,sans-Serif" font-size="10.00">UART</text>
</a>
</g>
</g>
<!-- Node1&#45;&gt;Node49 -->
<g id="edge48" class="edge">
<title>Node1&#45;&gt;Node49</title>
<path fill="none" stroke="black" d="M68.88,-994.61C74.7,-867.51 109.15,-172.3 170,-102.5 183.33,-87.21 207.03,-83.35 224.23,-82.75"/>
<polygon fill="black" stroke="black" points="65.38,-994.66 68.42,-1004.81 72.37,-994.98 65.38,-994.66"/>
</g>
<!-- Node50 -->
<g id="Node000050" class="node">
<title>Node50</title>
<g id="a_Node000050"><a xlink:href="group__USART.html" target="_top" xlink:title="HAL USART Synchronous module driver.">
<polygon fill="white" stroke="#666666" points="271,-56 221,-56 221,-37 271,-37 271,-56"/>
<text text-anchor="middle" x="246" y="-44" font-family="Helvetica,sans-Serif" font-size="10.00">USART</text>
</a>
</g>
</g>
<!-- Node1&#45;&gt;Node50 -->
<g id="edge49" class="edge">
<title>Node1&#45;&gt;Node50</title>
<path fill="none" stroke="black" d="M68.79,-994.61C74.14,-864.54 106.73,-138.38 170,-65.5 182.42,-51.2 203.91,-46.89 220.71,-45.9"/>
<polygon fill="black" stroke="black" points="65.29,-994.59 68.38,-1004.72 72.28,-994.87 65.29,-994.59"/>
</g>
<!-- Node53 -->
<g id="Node000053" class="node">
<title>Node53</title>
<g id="a_Node000053"><a xlink:href="group__WWDG.html" target="_top" xlink:title=" ">
<polygon fill="white" stroke="#666666" points="271.5,-19 220.5,-19 220.5,0 271.5,0 271.5,-19"/>
<text text-anchor="middle" x="246" y="-7" font-family="Helvetica,sans-Serif" font-size="10.00">WWDG</text>
</a>
</g>
</g>
<!-- Node1&#45;&gt;Node53 -->
<g id="edge52" class="edge">
<title>Node1&#45;&gt;Node53</title>
<path fill="none" stroke="black" d="M68.71,-994.67C73.6,-861.86 104.31,-104.48 170,-28.5 182.3,-14.27 203.58,-9.93 220.33,-8.91"/>
<polygon fill="black" stroke="black" points="65.2,-994.83 68.33,-1004.95 72.19,-995.09 65.2,-994.83"/>
</g>
</g>
</svg>
