<?xml version="1.0" encoding="UTF-8" standalone="no"?>
<!DOCTYPE svg PUBLIC "-//W3C//DTD SVG 1.1//EN"
 "http://www.w3.org/Graphics/SVG/1.1/DTD/svg11.dtd">
<!-- Generated by graphviz version 2.43.0 (0)
 -->
<!-- Title: CORTEX Exported Functions Pages: 1 -->
<svg width="399pt" height="138pt"
 viewBox="0.00 0.00 399.00 138.00" xmlns="http://www.w3.org/2000/svg" xmlns:xlink="http://www.w3.org/1999/xlink">

<svg id="main" version="1.1" xmlns="http://www.w3.org/2000/svg" xmlns:xlink="http://www.w3.org/1999/xlink" xml:space="preserve" onload="init(evt)">
<style type="text/css"><![CDATA[
.node, .edge {opacity: 0.7;}
.node.selected, .edge.selected {opacity: 1;}
.edge:hover path { stroke: red; }
.edge:hover polygon { stroke: red; fill: red; }
]]></style>
<script type="application/ecmascript" xlink:href="svg.min.js"/>
<svg id="graph" class="graph">
<g id="graph0" class="graph" transform="scale(1 1) rotate(0) translate(4 134)">
<title>CORTEX Exported Functions</title>
<!-- Node2 -->
<g id="Node000002" class="node">
<title>Node2</title>
<g id="a_Node000002"><a xlink:href="group__CORTEX__LL.html" target="_top" xlink:title=" ">
<polygon fill="white" stroke="#666666" points="56,-74 0,-74 0,-55 56,-55 56,-74"/>
<text text-anchor="middle" x="28" y="-62" font-family="Helvetica,sans-Serif" font-size="10.00">CORTEX</text>
</a>
</g>
</g>
<!-- Node1 -->
<g id="Node000001" class="node">
<title>Node1</title>
<g id="a_Node000001"><a xlink:title=" ">
<polygon fill="#999999" stroke="#666666" points="244,-74 92,-74 92,-55 244,-55 244,-74"/>
<text text-anchor="middle" x="168" y="-62" font-family="Helvetica,sans-Serif" font-size="10.00">CORTEX Exported Functions</text>
</a>
</g>
</g>
<!-- Node2&#45;&gt;Node1 -->
<g id="edge1" class="edge">
<title>Node2&#45;&gt;Node1</title>
<path fill="none" stroke="black" d="M66.33,-64.5C74.35,-64.5 83.09,-64.5 91.97,-64.5"/>
<polygon fill="black" stroke="black" points="66.26,-61 56.26,-64.5 66.26,-68 66.26,-61"/>
</g>
<!-- Node5 -->
<g id="Node000005" class="node">
<title>Node5</title>
<g id="a_Node000005"><a xlink:href="group__CORTEX__LL__EF__HANDLER.html" target="_top" xlink:title=" ">
<polygon fill="white" stroke="#666666" points="367.5,-130 303.5,-130 303.5,-111 367.5,-111 367.5,-130"/>
<text text-anchor="middle" x="335.5" y="-118" font-family="Helvetica,sans-Serif" font-size="10.00">HANDLER</text>
</a>
</g>
</g>
<!-- Node4 -->
<g id="Node000004" class="node">
<title>Node4</title>
<g id="a_Node000004"><a xlink:href="group__CORTEX__LL__EF__LOW__POWER__MODE.html" target="_top" xlink:title=" ">
<polygon fill="white" stroke="#666666" points="391,-93 280,-93 280,-74 391,-74 391,-93"/>
<text text-anchor="middle" x="335.5" y="-81" font-family="Helvetica,sans-Serif" font-size="10.00">LOW POWER MODE</text>
</a>
</g>
</g>
<!-- Node6 -->
<g id="Node000006" class="node">
<title>Node6</title>
<g id="a_Node000006"><a xlink:href="group__CORTEX__LL__EF__MCU__INFO.html" target="_top" xlink:title=" ">
<polygon fill="white" stroke="#666666" points="369,-56 302,-56 302,-37 369,-37 369,-56"/>
<text text-anchor="middle" x="335.5" y="-44" font-family="Helvetica,sans-Serif" font-size="10.00">MCU INFO</text>
</a>
</g>
</g>
<!-- Node3 -->
<g id="Node000003" class="node">
<title>Node3</title>
<g id="a_Node000003"><a xlink:href="group__CORTEX__LL__EF__SYSTICK.html" target="_top" xlink:title=" ">
<polygon fill="white" stroke="#666666" points="364,-19 307,-19 307,0 364,0 364,-19"/>
<text text-anchor="middle" x="335.5" y="-7" font-family="Helvetica,sans-Serif" font-size="10.00">SYSTICK</text>
</a>
</g>
</g>
<!-- Node1&#45;&gt;Node5 -->
<g id="edge4" class="edge">
<title>Node1&#45;&gt;Node5</title>
<path fill="none" stroke="black" d="M206.52,-77.46C228.01,-84.85 255.5,-94.26 280,-102.5 288.22,-105.26 297.14,-108.23 305.35,-110.94"/>
<polygon fill="black" stroke="black" points="207.39,-74.06 196.8,-74.11 205.11,-80.68 207.39,-74.06"/>
</g>
<!-- Node1&#45;&gt;Node4 -->
<g id="edge3" class="edge">
<title>Node1&#45;&gt;Node4</title>
<path fill="none" stroke="black" d="M254.13,-74.27C262.77,-75.27 271.37,-76.25 279.56,-77.19"/>
<polygon fill="black" stroke="black" points="254.34,-70.77 244,-73.11 253.54,-77.73 254.34,-70.77"/>
</g>
<!-- Node1&#45;&gt;Node6 -->
<g id="edge5" class="edge">
<title>Node1&#45;&gt;Node6</title>
<path fill="none" stroke="black" d="M254.05,-55.25C271.13,-53.39 288.07,-51.55 301.98,-50.04"/>
<polygon fill="black" stroke="black" points="253.57,-51.78 244,-56.34 254.32,-58.74 253.57,-51.78"/>
</g>
<!-- Node1&#45;&gt;Node3 -->
<g id="edge2" class="edge">
<title>Node1&#45;&gt;Node3</title>
<path fill="none" stroke="black" d="M207.67,-51.65C238.08,-41.54 279.69,-27.71 306.83,-18.7"/>
<polygon fill="black" stroke="black" points="206.21,-48.44 197.83,-54.92 208.42,-55.09 206.21,-48.44"/>
</g>
</g>
</svg>
</svg>

<style type='text/css'>
<![CDATA[
[data-mouse-over-selected='false'] { opacity: 0.7; }
[data-mouse-over-selected='true']  { opacity: 1.0; }
]]>
</style>
<script type="application/ecmascript"><![CDATA[
document.addEventListener('DOMContentLoaded', (event) => {
  highlightEdges();
  highlightAdjacentNodes();
});
]]></script>
</svg>
