<?xml version="1.0" encoding="UTF-8" standalone="no"?>
<!DOCTYPE svg PUBLIC "-//W3C//DTD SVG 1.1//EN"
 "http://www.w3.org/Graphics/SVG/1.1/DTD/svg11.dtd">
<!-- Generated by graphviz version 2.43.0 (0)
 -->
<!-- Title: SMBUS Exported Constants Pages: 1 -->
<svg width="446pt" height="481pt"
 viewBox="0.00 0.00 446.00 481.00" xmlns="http://www.w3.org/2000/svg" xmlns:xlink="http://www.w3.org/1999/xlink">
<g id="graph0" class="graph" transform="scale(1 1) rotate(0) translate(4 477)">
<title>SMBUS Exported Constants</title>
<!-- Node2 -->
<g id="Node000002" class="node">
<title>Node2</title>
<g id="a_Node000002"><a xlink:href="group__SMBUS.html" target="_top" xlink:title="SMBUS HAL module driver.">
<polygon fill="white" stroke="#666666" points="52,-246 0,-246 0,-227 52,-227 52,-246"/>
<text text-anchor="middle" x="26" y="-234" font-family="Helvetica,sans-Serif" font-size="10.00">SMBUS</text>
</a>
</g>
</g>
<!-- Node1 -->
<g id="Node000001" class="node">
<title>Node1</title>
<g id="a_Node000001"><a xlink:title=" ">
<polygon fill="#999999" stroke="#666666" points="238,-246 88,-246 88,-227 238,-227 238,-246"/>
<text text-anchor="middle" x="163" y="-234" font-family="Helvetica,sans-Serif" font-size="10.00">SMBUS Exported Constants</text>
</a>
</g>
</g>
<!-- Node2&#45;&gt;Node1 -->
<g id="edge1" class="edge">
<title>Node2&#45;&gt;Node1</title>
<path fill="none" stroke="black" d="M62.32,-236.5C70.22,-236.5 78.89,-236.5 87.72,-236.5"/>
<polygon fill="black" stroke="black" points="62.08,-233 52.08,-236.5 62.08,-240 62.08,-233"/>
</g>
<!-- Node4 -->
<g id="Node000004" class="node">
<title>Node4</title>
<g id="a_Node000004"><a xlink:href="group__SMBUS__Analog__Filter.html" target="_top" xlink:title=" ">
<polygon fill="white" stroke="#666666" points="414,-473 298,-473 298,-454 414,-454 414,-473"/>
<text text-anchor="middle" x="356" y="-461" font-family="Helvetica,sans-Serif" font-size="10.00">SMBUS Analog Filter</text>
</a>
</g>
</g>
<!-- Node3 -->
<g id="Node000003" class="node">
<title>Node3</title>
<g id="a_Node000003"><a xlink:href="group__SMBUS__Error__Code__definition.html" target="_top" xlink:title="SMBUS Error Code.">
<polygon fill="white" stroke="#666666" points="409,-436 303,-436 303,-417 409,-417 409,-436"/>
<text text-anchor="middle" x="356" y="-424" font-family="Helvetica,sans-Serif" font-size="10.00">SMBUS Error Code</text>
</a>
</g>
</g>
<!-- Node1&#45;&gt;Node4 -->
<g id="edge3" class="edge">
<title>Node1&#45;&gt;Node4</title>
<path fill="none" stroke="black" d="M168.4,-256.05C178.88,-297.86 209.4,-396.14 274,-445.5 280.98,-450.84 289.24,-454.65 297.76,-457.37"/>
<polygon fill="black" stroke="black" points="171.79,-255.19 166.06,-246.27 164.99,-256.81 171.79,-255.19"/>
</g>
<!-- Node1&#45;&gt;Node3 -->
<g id="edge2" class="edge">
<title>Node1&#45;&gt;Node3</title>
<path fill="none" stroke="black" d="M170.7,-255.99C184.19,-292.15 218.19,-369.47 274,-408.5 282.5,-414.44 292.63,-418.47 302.79,-421.18"/>
<polygon fill="black" stroke="black" points="173.85,-254.4 167.17,-246.18 167.27,-256.77 173.85,-254.4"/>
</g>
<!-- Node14 -->
<g id="Node000014" class="node">
<title>Node14</title>
<g id="a_Node000014"><a xlink:href="group__SMBUS__Flag__definition.html" target="_top" xlink:title=" ">
<polygon fill="white" stroke="#666666" points="418.5,-399 293.5,-399 293.5,-380 418.5,-380 418.5,-399"/>
<text text-anchor="middle" x="356" y="-387" font-family="Helvetica,sans-Serif" font-size="10.00">SMBUS Flag definition</text>
</a>
</g>
</g>
<!-- Node1&#45;&gt;Node14 -->
<g id="edge13" class="edge">
<title>Node1&#45;&gt;Node14</title>
<path fill="none" stroke="black" d="M173.76,-254.88C190.3,-284.15 226.71,-341.06 274,-370.5 280.25,-374.39 287.23,-377.49 294.39,-379.95"/>
<polygon fill="black" stroke="black" points="176.81,-253.16 168.93,-246.09 170.68,-256.54 176.81,-253.16"/>
</g>
<!-- Node13 -->
<g id="Node000013" class="node">
<title>Node13</title>
<g id="a_Node000013"><a xlink:href="group__SMBUS__Interrupt__configuration__definition.html" target="_top" xlink:title=" ">
<polygon fill="white" stroke="#666666" points="438,-361.5 274,-361.5 274,-331.5 438,-331.5 438,-361.5"/>
<text text-anchor="start" x="282" y="-349.5" font-family="Helvetica,sans-Serif" font-size="10.00">SMBUS Interrupt configuration</text>
<text text-anchor="middle" x="356" y="-338.5" font-family="Helvetica,sans-Serif" font-size="10.00"> definition</text>
</a>
</g>
</g>
<!-- Node1&#45;&gt;Node13 -->
<g id="edge12" class="edge">
<title>Node1&#45;&gt;Node13</title>
<path fill="none" stroke="black" d="M181,-253.18C201.47,-272.41 237.67,-303.78 274,-322.5 280.52,-325.86 287.58,-328.82 294.73,-331.41"/>
<polygon fill="black" stroke="black" points="183.36,-250.59 173.71,-246.22 178.53,-255.65 183.36,-250.59"/>
</g>
<!-- Node11 -->
<g id="Node000011" class="node">
<title>Node11</title>
<g id="a_Node000011"><a xlink:href="group__SMBUS__XferDirection__definition.html" target="_top" xlink:title=" ">
<polygon fill="white" stroke="#666666" points="415.5,-313.5 296.5,-313.5 296.5,-283.5 415.5,-283.5 415.5,-313.5"/>
<text text-anchor="start" x="304.5" y="-301.5" font-family="Helvetica,sans-Serif" font-size="10.00">SMBUS XferDirection</text>
<text text-anchor="middle" x="356" y="-290.5" font-family="Helvetica,sans-Serif" font-size="10.00"> definition</text>
</a>
</g>
</g>
<!-- Node1&#45;&gt;Node11 -->
<g id="edge10" class="edge">
<title>Node1&#45;&gt;Node11</title>
<path fill="none" stroke="black" d="M200.22,-249.47C221.6,-257.01 249.25,-266.56 274,-274.5 283.36,-277.5 293.36,-280.57 303.04,-283.48"/>
<polygon fill="black" stroke="black" points="201.16,-246.09 190.56,-246.05 198.82,-252.68 201.16,-246.09"/>
</g>
<!-- Node12 -->
<g id="Node000012" class="node">
<title>Node12</title>
<g id="a_Node000012"><a xlink:href="group__SMBUS__XferOptions__definition.html" target="_top" xlink:title=" ">
<polygon fill="white" stroke="#666666" points="436.5,-265 275.5,-265 275.5,-246 436.5,-246 436.5,-265"/>
<text text-anchor="middle" x="356" y="-253" font-family="Helvetica,sans-Serif" font-size="10.00">SMBUS XferOptions definition</text>
</a>
</g>
</g>
<!-- Node1&#45;&gt;Node12 -->
<g id="edge11" class="edge">
<title>Node1&#45;&gt;Node12</title>
<path fill="none" stroke="black" d="M248.19,-244.87C257.17,-245.77 266.3,-246.68 275.23,-247.56"/>
<polygon fill="black" stroke="black" points="248.42,-241.38 238.12,-243.87 247.72,-248.35 248.42,-241.38"/>
</g>
<!-- Node5 -->
<g id="Node000005" class="node">
<title>Node5</title>
<g id="a_Node000005"><a xlink:href="group__SMBUS__addressing__mode.html" target="_top" xlink:title=" ">
<polygon fill="white" stroke="#666666" points="425.5,-228 286.5,-228 286.5,-209 425.5,-209 425.5,-228"/>
<text text-anchor="middle" x="356" y="-216" font-family="Helvetica,sans-Serif" font-size="10.00">SMBUS addressing mode</text>
</a>
</g>
</g>
<!-- Node1&#45;&gt;Node5 -->
<g id="edge4" class="edge">
<title>Node1&#45;&gt;Node5</title>
<path fill="none" stroke="black" d="M248.23,-228.56C260.94,-227.36 273.91,-226.14 286.24,-224.98"/>
<polygon fill="black" stroke="black" points="247.75,-225.09 238.12,-229.51 248.4,-232.06 247.75,-225.09"/>
</g>
<!-- Node6 -->
<g id="Node000006" class="node">
<title>Node6</title>
<g id="a_Node000006"><a xlink:href="group__SMBUS__dual__addressing__mode.html" target="_top" xlink:title=" ">
<polygon fill="white" stroke="#666666" points="437.5,-191 274.5,-191 274.5,-172 437.5,-172 437.5,-191"/>
<text text-anchor="middle" x="356" y="-179" font-family="Helvetica,sans-Serif" font-size="10.00">SMBUS dual addressing mode</text>
</a>
</g>
</g>
<!-- Node1&#45;&gt;Node6 -->
<g id="edge5" class="edge">
<title>Node1&#45;&gt;Node6</title>
<path fill="none" stroke="black" d="M200.54,-223.67C221.84,-216.41 249.28,-207.43 274,-200.5 285.96,-197.15 299.03,-193.9 311.11,-191.07"/>
<polygon fill="black" stroke="black" points="199.25,-220.41 190.93,-226.97 201.52,-227.03 199.25,-220.41"/>
</g>
<!-- Node7 -->
<g id="Node000007" class="node">
<title>Node7</title>
<g id="a_Node000007"><a xlink:href="group__SMBUS__general__call__addressing__mode.html" target="_top" xlink:title=" ">
<polygon fill="white" stroke="#666666" points="412,-153.5 300,-153.5 300,-123.5 412,-123.5 412,-153.5"/>
<text text-anchor="start" x="308" y="-141.5" font-family="Helvetica,sans-Serif" font-size="10.00">SMBUS general call</text>
<text text-anchor="middle" x="356" y="-130.5" font-family="Helvetica,sans-Serif" font-size="10.00"> addressing mode</text>
</a>
</g>
</g>
<!-- Node1&#45;&gt;Node7 -->
<g id="edge6" class="edge">
<title>Node1&#45;&gt;Node7</title>
<path fill="none" stroke="black" d="M183.8,-220.81C205.05,-204.6 240.32,-179.46 274,-163.5 282.11,-159.65 290.96,-156.22 299.73,-153.22"/>
<polygon fill="black" stroke="black" points="181.62,-218.07 175.85,-226.96 185.9,-223.61 181.62,-218.07"/>
</g>
<!-- Node8 -->
<g id="Node000008" class="node">
<title>Node8</title>
<g id="a_Node000008"><a xlink:href="group__SMBUS__nostretch__mode.html" target="_top" xlink:title=" ">
<polygon fill="white" stroke="#666666" points="421.5,-105 290.5,-105 290.5,-86 421.5,-86 421.5,-105"/>
<text text-anchor="middle" x="356" y="-93" font-family="Helvetica,sans-Serif" font-size="10.00">SMBUS nostretch mode</text>
</a>
</g>
</g>
<!-- Node1&#45;&gt;Node8 -->
<g id="edge7" class="edge">
<title>Node1&#45;&gt;Node8</title>
<path fill="none" stroke="black" d="M175.18,-218.25C192.73,-191.2 229.42,-140.85 274,-114.5 280.59,-110.61 287.92,-107.51 295.41,-105.05"/>
<polygon fill="black" stroke="black" points="172.18,-216.44 169.78,-226.77 178.09,-220.19 172.18,-216.44"/>
</g>
<!-- Node9 -->
<g id="Node000009" class="node">
<title>Node9</title>
<g id="a_Node000009"><a xlink:href="group__SMBUS__packet__error__check__mode.html" target="_top" xlink:title=" ">
<polygon fill="white" stroke="#666666" points="412.5,-67.5 299.5,-67.5 299.5,-37.5 412.5,-37.5 412.5,-67.5"/>
<text text-anchor="start" x="307.5" y="-55.5" font-family="Helvetica,sans-Serif" font-size="10.00">SMBUS packet error</text>
<text text-anchor="middle" x="356" y="-44.5" font-family="Helvetica,sans-Serif" font-size="10.00"> check mode</text>
</a>
</g>
</g>
<!-- Node1&#45;&gt;Node9 -->
<g id="edge8" class="edge">
<title>Node1&#45;&gt;Node9</title>
<path fill="none" stroke="black" d="M172.03,-217.49C187.07,-184.15 222.7,-115.1 274,-77.5 281.6,-71.93 290.46,-67.59 299.48,-64.2"/>
<polygon fill="black" stroke="black" points="168.68,-216.42 167.87,-226.98 175.09,-219.23 168.68,-216.42"/>
</g>
<!-- Node10 -->
<g id="Node000010" class="node">
<title>Node10</title>
<g id="a_Node000010"><a xlink:href="group__SMBUS__peripheral__mode.html" target="_top" xlink:title=" ">
<polygon fill="white" stroke="#666666" points="423.5,-19 288.5,-19 288.5,0 423.5,0 423.5,-19"/>
<text text-anchor="middle" x="356" y="-7" font-family="Helvetica,sans-Serif" font-size="10.00">SMBUS peripheral mode</text>
</a>
</g>
</g>
<!-- Node1&#45;&gt;Node10 -->
<g id="edge9" class="edge">
<title>Node1&#45;&gt;Node10</title>
<path fill="none" stroke="black" d="M168.54,-216.83C179.23,-175.18 210.02,-77.89 274,-28.5 279.03,-24.62 284.73,-21.51 290.71,-19.02"/>
<polygon fill="black" stroke="black" points="165.08,-216.26 166.1,-226.8 171.88,-217.92 165.08,-216.26"/>
</g>
</g>
</svg>
