<?xml version="1.0" encoding="UTF-8" standalone="no"?>
<!DOCTYPE svg PUBLIC "-//W3C//DTD SVG 1.1//EN"
 "http://www.w3.org/Graphics/SVG/1.1/DTD/svg11.dtd">
<!-- Generated by graphviz version 12.2.1 (20241206.2353)
 -->
<!-- Title: FSMC_LL Pages: 1 -->
<svg width="394pt" height="132pt"
 viewBox="0.00 0.00 393.50 132.12" xmlns="http://www.w3.org/2000/svg" xmlns:xlink="http://www.w3.org/1999/xlink">

<svg id="main" version="1.1" xmlns="http://www.w3.org/2000/svg" xmlns:xlink="http://www.w3.org/1999/xlink" xml:space="preserve">

<style type="text/css"><![CDATA[
.node, .edge {opacity: 0.7;}
.node.selected, .edge.selected {opacity: 1;}
.edge:hover path { stroke: red; }
.edge:hover polygon { stroke: red; fill: red; }
]]></style>
<script type="application/ecmascript" xlink:href="svg.min.js"/>
<svg id="graph" class="graph">
<g id="graph0" class="graph" transform="scale(1 1) rotate(0) translate(4 128.12)">
<title>FSMC_LL</title>
<!-- Node1 -->
<g id="Node000001" class="node">
<title>Node1</title>
<g id="a_Node000001"><a xlink:title=" ">
<polygon fill="#999999" stroke="#666666" points="216.5,-65.75 158.5,-65.75 158.5,-45 216.5,-45 216.5,-65.75"/>
<text text-anchor="middle" x="187.5" y="-52.25" font-family="Helvetica,sans-Serif" font-size="10.00">FSMC_LL</text>
</a>
</g>
</g>
<!-- Node5 -->
<g id="Node000005" class="node">
<title>Node5</title>
<g id="a_Node000005"><a xlink:href="group__FSMC__LL__Exported__Constants.html" target="_top" xlink:title=" ">
<polygon fill="white" stroke="#666666" points="385.5,-124.12 252.5,-124.12 252.5,-90.62 385.5,-90.62 385.5,-124.12"/>
<text text-anchor="start" x="260.5" y="-110.62" font-family="Helvetica,sans-Serif" font-size="10.00">FSMC Low Layer Exported</text>
<text text-anchor="middle" x="319" y="-97.88" font-family="Helvetica,sans-Serif" font-size="10.00"> Constants</text>
</a>
</g>
</g>
<!-- Node1&#45;&gt;Node5 -->
<g id="edge4" class="edge">
<title>Node1&#45;&gt;Node5</title>
<path fill="none" stroke="black" d="M225.4,-70.42C234.27,-74.02 243.72,-77.85 252.5,-81.38 259.65,-84.25 267.25,-87.28 274.64,-90.22"/>
<polygon fill="black" stroke="black" points="226.93,-67.27 216.35,-66.74 224.3,-73.75 226.93,-67.27"/>
</g>
<!-- Node3 -->
<g id="Node000003" class="node">
<title>Node3</title>
<g id="a_Node000003"><a xlink:href="group__FSMC__LL__Exported__typedef.html" target="_top" xlink:title=" ">
<polygon fill="white" stroke="#666666" points="385.5,-72.12 252.5,-72.12 252.5,-38.62 385.5,-38.62 385.5,-72.12"/>
<text text-anchor="start" x="260.5" y="-58.62" font-family="Helvetica,sans-Serif" font-size="10.00">FSMC Low Layer Exported</text>
<text text-anchor="middle" x="319" y="-45.88" font-family="Helvetica,sans-Serif" font-size="10.00"> Types</text>
</a>
</g>
</g>
<!-- Node1&#45;&gt;Node3 -->
<g id="edge2" class="edge">
<title>Node1&#45;&gt;Node3</title>
<path fill="none" stroke="black" d="M228.34,-55.38C235.94,-55.38 244.07,-55.38 252.23,-55.38"/>
<polygon fill="black" stroke="black" points="228.43,-51.88 218.43,-55.38 228.43,-58.88 228.43,-51.88"/>
</g>
<!-- Node4 -->
<g id="Node000004" class="node">
<title>Node4</title>
<g id="a_Node000004"><a xlink:href="group__FSMC__LL__Private__Macros.html" target="_top" xlink:title=" ">
<polygon fill="white" stroke="#666666" points="382.88,-20.75 255.12,-20.75 255.12,0 382.88,0 382.88,-20.75"/>
<text text-anchor="middle" x="319" y="-7.25" font-family="Helvetica,sans-Serif" font-size="10.00">FSMC_LL &#160;Private Macros</text>
</a>
</g>
</g>
<!-- Node1&#45;&gt;Node4 -->
<g id="edge3" class="edge">
<title>Node1&#45;&gt;Node4</title>
<path fill="none" stroke="black" d="M223.91,-40.23C233.15,-36.49 243.14,-32.63 252.5,-29.38 260.78,-26.5 269.74,-23.7 278.31,-21.17"/>
<polygon fill="black" stroke="black" points="222.81,-36.89 214.9,-43.94 225.48,-43.37 222.81,-36.89"/>
</g>
<!-- Node2 -->
<g id="Node000002" class="node">
<title>Node2</title>
<g id="a_Node000002"><a xlink:href="group__STM32F4xx__HAL__Driver.html" target="_top" xlink:title=" ">
<polygon fill="white" stroke="#666666" points="122.5,-65.75 0,-65.75 0,-45 122.5,-45 122.5,-65.75"/>
<text text-anchor="middle" x="61.25" y="-52.25" font-family="Helvetica,sans-Serif" font-size="10.00">STM32F4xx_HAL_Driver</text>
</a>
</g>
</g>
<!-- Node2&#45;&gt;Node1 -->
<g id="edge1" class="edge">
<title>Node2&#45;&gt;Node1</title>
<path fill="none" stroke="black" d="M134.43,-55.38C142.81,-55.38 150.93,-55.38 158.17,-55.38"/>
<polygon fill="black" stroke="black" points="134.43,-51.88 124.43,-55.38 134.43,-58.88 134.43,-51.88"/>
</g>
</g>
</svg>
</svg>

<style type='text/css'>
<![CDATA[
[data-mouse-over-selected='false'] { opacity: 0.7; }
[data-mouse-over-selected='true']  { opacity: 1.0; }
]]>
</style>
<script type="application/ecmascript"><![CDATA[
document.addEventListener('DOMContentLoaded', (event) => {
  highlightEdges();
  highlightAdjacentNodes();
});
]]></script>
</svg>
