<?xml version="1.0" encoding="UTF-8" standalone="no"?>
<!DOCTYPE svg PUBLIC "-//W3C//DTD SVG 1.1//EN"
 "http://www.w3.org/Graphics/SVG/1.1/DTD/svg11.dtd">
<!-- Generated by graphviz version 2.43.0 (0)
 -->
<!-- Title: WWDG Exported Constants Pages: 1 -->
<svg width="475pt" height="138pt"
 viewBox="0.00 0.00 475.00 138.00" xmlns="http://www.w3.org/2000/svg" xmlns:xlink="http://www.w3.org/1999/xlink">

<svg id="main" version="1.1" xmlns="http://www.w3.org/2000/svg" xmlns:xlink="http://www.w3.org/1999/xlink" xml:space="preserve" onload="init(evt)">
<style type="text/css"><![CDATA[
.node, .edge {opacity: 0.7;}
.node.selected, .edge.selected {opacity: 1;}
.edge:hover path { stroke: red; }
.edge:hover polygon { stroke: red; fill: red; }
]]></style>
<script type="application/ecmascript" xlink:href="svg.min.js"/>
<svg id="graph" class="graph">
<g id="graph0" class="graph" transform="scale(1 1) rotate(0) translate(4 134)">
<title>WWDG Exported Constants</title>
<!-- Node2 -->
<g id="Node000002" class="node">
<title>Node2</title>
<g id="a_Node000002"><a xlink:href="group__WWDG.html" target="_top" xlink:title=" ">
<polygon fill="white" stroke="#666666" points="51,-74 0,-74 0,-55 51,-55 51,-74"/>
<text text-anchor="middle" x="25.5" y="-62" font-family="Helvetica,sans-Serif" font-size="10.00">WWDG</text>
</a>
</g>
</g>
<!-- Node1 -->
<g id="Node000001" class="node">
<title>Node1</title>
<g id="a_Node000001"><a xlink:title=" ">
<polygon fill="#999999" stroke="#666666" points="236,-74 87,-74 87,-55 236,-55 236,-74"/>
<text text-anchor="middle" x="161.5" y="-62" font-family="Helvetica,sans-Serif" font-size="10.00">WWDG Exported Constants</text>
</a>
</g>
</g>
<!-- Node2&#45;&gt;Node1 -->
<g id="edge1" class="edge">
<title>Node2&#45;&gt;Node1</title>
<path fill="none" stroke="black" d="M61.31,-64.5C69.22,-64.5 77.91,-64.5 86.76,-64.5"/>
<polygon fill="black" stroke="black" points="61.08,-61 51.08,-64.5 61.08,-68 61.08,-61"/>
</g>
<!-- Node6 -->
<g id="Node000006" class="node">
<title>Node6</title>
<g id="a_Node000006"><a xlink:href="group__WWDG__EWI__Mode.html" target="_top" xlink:title=" ">
<polygon fill="white" stroke="#666666" points="467,-130 272,-130 272,-111 467,-111 467,-130"/>
<text text-anchor="middle" x="369.5" y="-118" font-family="Helvetica,sans-Serif" font-size="10.00">WWDG Early Wakeup Interrupt Mode</text>
</a>
</g>
</g>
<!-- Node1&#45;&gt;Node6 -->
<g id="edge5" class="edge">
<title>Node1&#45;&gt;Node6</title>
<path fill="none" stroke="black" d="M196.15,-77.65C217.61,-85.66 246.14,-95.64 272,-102.5 284.11,-105.71 297.22,-108.56 309.76,-110.99"/>
<polygon fill="black" stroke="black" points="197.12,-74.27 186.53,-74.01 194.65,-80.82 197.12,-74.27"/>
</g>
<!-- Node4 -->
<g id="Node000004" class="node">
<title>Node4</title>
<g id="a_Node000004"><a xlink:href="group__WWDG__Flag__definition.html" target="_top" xlink:title="WWDG Flag definition.">
<polygon fill="white" stroke="#666666" points="431.5,-93 307.5,-93 307.5,-74 431.5,-74 431.5,-93"/>
<text text-anchor="middle" x="369.5" y="-81" font-family="Helvetica,sans-Serif" font-size="10.00">WWDG Flag definition</text>
</a>
</g>
</g>
<!-- Node1&#45;&gt;Node4 -->
<g id="edge3" class="edge">
<title>Node1&#45;&gt;Node4</title>
<path fill="none" stroke="black" d="M246.52,-72.25C266.91,-74.13 288.33,-76.11 307.44,-77.87"/>
<polygon fill="black" stroke="black" points="246.57,-68.74 236.29,-71.31 245.93,-75.71 246.57,-68.74"/>
</g>
<!-- Node3 -->
<g id="Node000003" class="node">
<title>Node3</title>
<g id="a_Node000003"><a xlink:href="group__WWDG__Interrupt__definition.html" target="_top" xlink:title=" ">
<polygon fill="white" stroke="#666666" points="442,-56 297,-56 297,-37 442,-37 442,-56"/>
<text text-anchor="middle" x="369.5" y="-44" font-family="Helvetica,sans-Serif" font-size="10.00">WWDG Interrupt definition</text>
</a>
</g>
</g>
<!-- Node1&#45;&gt;Node3 -->
<g id="edge2" class="edge">
<title>Node1&#45;&gt;Node3</title>
<path fill="none" stroke="black" d="M246.59,-57.15C263.3,-55.69 280.7,-54.17 296.95,-52.75"/>
<polygon fill="black" stroke="black" points="245.95,-53.7 236.29,-58.05 246.56,-60.67 245.95,-53.7"/>
</g>
<!-- Node5 -->
<g id="Node000005" class="node">
<title>Node5</title>
<g id="a_Node000005"><a xlink:href="group__WWDG__Prescaler.html" target="_top" xlink:title=" ">
<polygon fill="white" stroke="#666666" points="419,-19 320,-19 320,0 419,0 419,-19"/>
<text text-anchor="middle" x="369.5" y="-7" font-family="Helvetica,sans-Serif" font-size="10.00">WWDG Prescaler</text>
</a>
</g>
</g>
<!-- Node1&#45;&gt;Node5 -->
<g id="edge4" class="edge">
<title>Node1&#45;&gt;Node5</title>
<path fill="none" stroke="black" d="M198.35,-51.47C219.58,-44.07 247.1,-35.02 272,-28.5 287.36,-24.48 304.3,-20.87 319.64,-17.91"/>
<polygon fill="black" stroke="black" points="197.05,-48.22 188.78,-54.85 199.37,-54.82 197.05,-48.22"/>
</g>
</g>
</svg>
</svg>

<style type='text/css'>
<![CDATA[
[data-mouse-over-selected='false'] { opacity: 0.7; }
[data-mouse-over-selected='true']  { opacity: 1.0; }
]]>
</style>
<script type="application/ecmascript"><![CDATA[
document.addEventListener('DOMContentLoaded', (event) => {
  highlightEdges();
  highlightAdjacentNodes();
});
]]></script>
</svg>
