<?xml version="1.0" encoding="UTF-8" standalone="no"?>
<!DOCTYPE svg PUBLIC "-//W3C//DTD SVG 1.1//EN"
 "http://www.w3.org/Graphics/SVG/1.1/DTD/svg11.dtd">
<!-- Generated by graphviz version 2.43.0 (0)
 -->
<!-- Title: CRC Exported Functions Pages: 1 -->
<svg width="394pt" height="124pt"
 viewBox="0.00 0.00 394.00 123.50" xmlns="http://www.w3.org/2000/svg" xmlns:xlink="http://www.w3.org/1999/xlink">
<g id="graph0" class="graph" transform="scale(1 1) rotate(0) translate(4 119.5)">
<title>CRC Exported Functions</title>
<!-- Node2 -->
<g id="Node000002" class="node">
<title>Node2</title>
<g id="a_Node000002"><a xlink:href="group__CRC.html" target="_top" xlink:title="CRC HAL module driver.">
<polygon fill="white" stroke="#666666" points="37,-62 0,-62 0,-43 37,-43 37,-62"/>
<text text-anchor="middle" x="18.5" y="-50" font-family="Helvetica,sans-Serif" font-size="10.00">CRC</text>
</a>
</g>
</g>
<!-- Node1 -->
<g id="Node000001" class="node">
<title>Node1</title>
<g id="a_Node000001"><a xlink:title=" ">
<polygon fill="#999999" stroke="#666666" points="206,-62 73,-62 73,-43 206,-43 206,-62"/>
<text text-anchor="middle" x="139.5" y="-50" font-family="Helvetica,sans-Serif" font-size="10.00">CRC Exported Functions</text>
</a>
</g>
</g>
<!-- Node2&#45;&gt;Node1 -->
<g id="edge1" class="edge">
<title>Node2&#45;&gt;Node1</title>
<path fill="none" stroke="black" d="M47.3,-52.5C55.08,-52.5 63.89,-52.5 72.88,-52.5"/>
<polygon fill="black" stroke="black" points="47.06,-49 37.06,-52.5 47.06,-56 47.06,-49"/>
</g>
<!-- Node3 -->
<g id="Node000003" class="node">
<title>Node3</title>
<g id="a_Node000003"><a xlink:href="group__CRC__Exported__Functions__Group1.html" target="_top" xlink:title=" ">
<polygon fill="white" stroke="#666666" points="386,-115.5 242,-115.5 242,-85.5 386,-85.5 386,-115.5"/>
<text text-anchor="start" x="250" y="-103.5" font-family="Helvetica,sans-Serif" font-size="10.00">Initialization and</text>
<text text-anchor="middle" x="314" y="-92.5" font-family="Helvetica,sans-Serif" font-size="10.00"> de&#45;initialization functions</text>
</a>
</g>
</g>
<!-- Node1&#45;&gt;Node3 -->
<g id="edge2" class="edge">
<title>Node1&#45;&gt;Node3</title>
<path fill="none" stroke="black" d="M184.66,-64.79C207.27,-71.08 234.99,-78.79 258.87,-85.44"/>
<polygon fill="black" stroke="black" points="185.57,-61.41 174.99,-62.1 183.69,-68.15 185.57,-61.41"/>
</g>
<!-- Node4 -->
<g id="Node000004" class="node">
<title>Node4</title>
<g id="a_Node000004"><a xlink:href="group__CRC__Exported__Functions__Group2.html" target="_top" xlink:title=" ">
<polygon fill="white" stroke="#666666" points="366,-67.5 262,-67.5 262,-37.5 366,-37.5 366,-67.5"/>
<text text-anchor="start" x="270" y="-55.5" font-family="Helvetica,sans-Serif" font-size="10.00">Peripheral Control</text>
<text text-anchor="middle" x="314" y="-44.5" font-family="Helvetica,sans-Serif" font-size="10.00"> functions</text>
</a>
</g>
</g>
<!-- Node1&#45;&gt;Node4 -->
<g id="edge3" class="edge">
<title>Node1&#45;&gt;Node4</title>
<path fill="none" stroke="black" d="M216.27,-52.5C231.72,-52.5 247.62,-52.5 261.96,-52.5"/>
<polygon fill="black" stroke="black" points="216.21,-49 206.21,-52.5 216.21,-56 216.21,-49"/>
</g>
<!-- Node5 -->
<g id="Node000005" class="node">
<title>Node5</title>
<g id="a_Node000005"><a xlink:href="group__CRC__Exported__Functions__Group3.html" target="_top" xlink:title=" ">
<polygon fill="white" stroke="#666666" points="385.5,-19 242.5,-19 242.5,0 385.5,0 385.5,-19"/>
<text text-anchor="middle" x="314" y="-7" font-family="Helvetica,sans-Serif" font-size="10.00">Peripheral State functions</text>
</a>
</g>
</g>
<!-- Node1&#45;&gt;Node5 -->
<g id="edge4" class="edge">
<title>Node1&#45;&gt;Node5</title>
<path fill="none" stroke="black" d="M188.51,-40.53C215.75,-33.74 249.39,-25.36 274.82,-19.02"/>
<polygon fill="black" stroke="black" points="187.64,-37.14 178.78,-42.96 189.33,-43.93 187.64,-37.14"/>
</g>
</g>
</svg>
