<?xml version="1.0" encoding="UTF-8" standalone="no"?>
<!DOCTYPE svg PUBLIC "-//W3C//DTD SVG 1.1//EN"
 "http://www.w3.org/Graphics/SVG/1.1/DTD/svg11.dtd">
<!-- Generated by graphviz version 12.2.1 (20241206.2353)
 -->
<!-- Title: RCC Private Macros Pages: 1 -->
<svg width="354pt" height="42pt"
 viewBox="0.00 0.00 353.75 41.50" xmlns="http://www.w3.org/2000/svg" xmlns:xlink="http://www.w3.org/1999/xlink">
<g id="page0,1_graph0" class="graph" transform="scale(1 1) rotate(0) translate(4 37.5)">
<title>RCC Private Macros</title>
<!-- Node2 -->
<g id="Node000002" class="node">
<title>Node2</title>
<g id="a_Node000002"><a xlink:href="group__RCC.html" target="_top" xlink:title="RCC HAL module driver.">
<polygon fill="white" stroke="#666666" points="35.5,-27.12 0,-27.12 0,-6.38 35.5,-6.38 35.5,-27.12"/>
<text text-anchor="middle" x="17.75" y="-13.62" font-family="Helvetica,sans-Serif" font-size="10.00">RCC</text>
</a>
</g>
</g>
<!-- Node1 -->
<g id="Node000001" class="node">
<title>Node1</title>
<g id="a_Node000001"><a xlink:title=" ">
<polygon fill="#999999" stroke="#666666" points="174.5,-27.12 71.5,-27.12 71.5,-6.38 174.5,-6.38 174.5,-27.12"/>
<text text-anchor="middle" x="123" y="-13.62" font-family="Helvetica,sans-Serif" font-size="10.00">RCC Private Macros</text>
</a>
</g>
</g>
<!-- Node2&#45;&gt;Node1 -->
<g id="edge1" class="edge">
<title>Node2&#45;&gt;Node1</title>
<path fill="none" stroke="black" d="M47.06,-16.75C54.51,-16.75 62.78,-16.75 71.03,-16.75"/>
<polygon fill="black" stroke="black" points="47.31,-13.25 37.31,-16.75 47.31,-20.25 47.31,-13.25"/>
</g>
<!-- Node3 -->
<g id="Node000003" class="node">
<title>Node3</title>
<g id="a_Node000003"><a xlink:href="group__RCC__IS__RCC__Definitions.html" target="_top" xlink:title=" ">
<polygon fill="white" stroke="#666666" points="345.75,-33.5 210.5,-33.5 210.5,0 345.75,0 345.75,-33.5"/>
<text text-anchor="start" x="218.5" y="-20" font-family="Helvetica,sans-Serif" font-size="10.00">RCC Private macros</text>
<text text-anchor="middle" x="278.12" y="-7.25" font-family="Helvetica,sans-Serif" font-size="10.00"> to check input parameters</text>
</a>
</g>
</g>
<!-- Node1&#45;&gt;Node3 -->
<g id="edge2" class="edge">
<title>Node1&#45;&gt;Node3</title>
<path fill="none" stroke="black" d="M186.26,-16.75C194.09,-16.75 202.12,-16.75 210.01,-16.75"/>
<polygon fill="black" stroke="black" points="186.5,-13.25 176.5,-16.75 186.5,-20.25 186.5,-13.25"/>
</g>
</g>
</svg>
