<?xml version="1.0" encoding="UTF-8" standalone="no"?>
<!DOCTYPE svg PUBLIC "-//W3C//DTD SVG 1.1//EN"
 "http://www.w3.org/Graphics/SVG/1.1/DTD/svg11.dtd">
<!-- Generated by graphviz version 2.43.0 (0)
 -->
<!-- Title: EXTI Pages: 1 -->
<svg width="389pt" height="212pt"
 viewBox="0.00 0.00 389.00 212.00" xmlns="http://www.w3.org/2000/svg" xmlns:xlink="http://www.w3.org/1999/xlink">

<svg id="main" version="1.1" xmlns="http://www.w3.org/2000/svg" xmlns:xlink="http://www.w3.org/1999/xlink" xml:space="preserve" onload="init(evt)">
<style type="text/css"><![CDATA[
.node, .edge {opacity: 0.7;}
.node.selected, .edge.selected {opacity: 1;}
.edge:hover path { stroke: red; }
.edge:hover polygon { stroke: red; fill: red; }
]]></style>
<script type="application/ecmascript" xlink:href="svg.min.js"/>
<svg id="graph" class="graph">
<g id="graph0" class="graph" transform="scale(1 1) rotate(0) translate(4 208)">
<title>EXTI</title>
<!-- Node1 -->
<g id="Node000001" class="node">
<title>Node1</title>
<g id="a_Node000001"><a xlink:title="EXTI HAL module driver.">
<polygon fill="#999999" stroke="#666666" points="208,-111 170,-111 170,-92 208,-92 208,-111"/>
<text text-anchor="middle" x="189" y="-99" font-family="Helvetica,sans-Serif" font-size="10.00">EXTI</text>
</a>
</g>
</g>
<!-- Node4 -->
<g id="Node000004" class="node">
<title>Node4</title>
<g id="a_Node000004"><a xlink:href="group__EXTI__Exported__Constants.html" target="_top" xlink:title=" ">
<polygon fill="white" stroke="#666666" points="381,-204 244,-204 244,-185 381,-185 381,-204"/>
<text text-anchor="middle" x="312.5" y="-192" font-family="Helvetica,sans-Serif" font-size="10.00">EXTI Exported Constants</text>
</a>
</g>
</g>
<!-- Node1&#45;&gt;Node4 -->
<g id="edge3" class="edge">
<title>Node1&#45;&gt;Node4</title>
<path fill="none" stroke="black" d="M198.79,-120.28C207.79,-137.45 223.35,-162.26 244,-176.5 248.99,-179.94 254.61,-182.73 260.42,-184.98"/>
<polygon fill="black" stroke="black" points="201.86,-118.59 194.27,-111.2 195.59,-121.71 201.86,-118.59"/>
</g>
<!-- Node8 -->
<g id="Node000008" class="node">
<title>Node8</title>
<g id="a_Node000008"><a xlink:href="group__EXTI__Exported__Functions.html" target="_top" xlink:title="EXTI Exported Functions.">
<polygon fill="white" stroke="#666666" points="379.5,-167 245.5,-167 245.5,-148 379.5,-148 379.5,-167"/>
<text text-anchor="middle" x="312.5" y="-155" font-family="Helvetica,sans-Serif" font-size="10.00">EXTI Exported Functions</text>
</a>
</g>
</g>
<!-- Node1&#45;&gt;Node8 -->
<g id="edge7" class="edge">
<title>Node1&#45;&gt;Node8</title>
<path fill="none" stroke="black" d="M209.2,-117.52C219.08,-125.09 231.63,-133.72 244,-139.5 251.14,-142.84 259.01,-145.64 266.77,-147.96"/>
<polygon fill="black" stroke="black" points="211.28,-114.7 201.27,-111.23 206.93,-120.19 211.28,-114.7"/>
</g>
<!-- Node5 -->
<g id="Node000005" class="node">
<title>Node5</title>
<g id="a_Node000005"><a xlink:href="group__EXTI__Exported__Macros.html" target="_top" xlink:title=" ">
<polygon fill="white" stroke="#666666" points="374,-130 251,-130 251,-111 374,-111 374,-130"/>
<text text-anchor="middle" x="312.5" y="-118" font-family="Helvetica,sans-Serif" font-size="10.00">EXTI Exported Macros</text>
</a>
</g>
</g>
<!-- Node1&#45;&gt;Node5 -->
<g id="edge4" class="edge">
<title>Node1&#45;&gt;Node5</title>
<path fill="none" stroke="black" d="M218.16,-105.9C228.01,-107.44 239.47,-109.24 250.93,-111.03"/>
<polygon fill="black" stroke="black" points="218.61,-102.43 208.19,-104.34 217.53,-109.35 218.61,-102.43"/>
</g>
<!-- Node3 -->
<g id="Node000003" class="node">
<title>Node3</title>
<g id="a_Node000003"><a xlink:href="group__EXTI__Exported__Types.html" target="_top" xlink:title=" ">
<polygon fill="white" stroke="#666666" points="370.5,-93 254.5,-93 254.5,-74 370.5,-74 370.5,-93"/>
<text text-anchor="middle" x="312.5" y="-81" font-family="Helvetica,sans-Serif" font-size="10.00">EXTI Exported Types</text>
</a>
</g>
</g>
<!-- Node1&#45;&gt;Node3 -->
<g id="edge2" class="edge">
<title>Node1&#45;&gt;Node3</title>
<path fill="none" stroke="black" d="M218.28,-97.31C229.1,-95.71 241.87,-93.82 254.43,-91.95"/>
<polygon fill="black" stroke="black" points="217.57,-93.88 208.19,-98.81 218.59,-100.8 217.57,-93.88"/>
</g>
<!-- Node6 -->
<g id="Node000006" class="node">
<title>Node6</title>
<g id="a_Node000006"><a xlink:href="group__EXTI__Private__Constants.html" target="_top" xlink:title=" ">
<polygon fill="white" stroke="#666666" points="376.5,-56 248.5,-56 248.5,-37 376.5,-37 376.5,-56"/>
<text text-anchor="middle" x="312.5" y="-44" font-family="Helvetica,sans-Serif" font-size="10.00">EXTI Private Constants</text>
</a>
</g>
</g>
<!-- Node1&#45;&gt;Node6 -->
<g id="edge5" class="edge">
<title>Node1&#45;&gt;Node6</title>
<path fill="none" stroke="black" d="M209.94,-85.41C219.73,-78.17 231.98,-70.02 244,-64.5 251.27,-61.16 259.28,-58.34 267.17,-56.01"/>
<polygon fill="black" stroke="black" points="207.53,-82.85 201.72,-91.71 211.79,-88.41 207.53,-82.85"/>
</g>
<!-- Node7 -->
<g id="Node000007" class="node">
<title>Node7</title>
<g id="a_Node000007"><a xlink:href="group__EXTI__Private__Macros.html" target="_top" xlink:title=" ">
<polygon fill="white" stroke="#666666" points="369.5,-19 255.5,-19 255.5,0 369.5,0 369.5,-19"/>
<text text-anchor="middle" x="312.5" y="-7" font-family="Helvetica,sans-Serif" font-size="10.00">EXTI Private Macros</text>
</a>
</g>
</g>
<!-- Node1&#45;&gt;Node7 -->
<g id="edge6" class="edge">
<title>Node1&#45;&gt;Node7</title>
<path fill="none" stroke="black" d="M198.86,-82.97C207.89,-66.03 223.49,-41.55 244,-27.5 249,-24.07 254.63,-21.3 260.44,-19.05"/>
<polygon fill="black" stroke="black" points="195.71,-81.43 194.31,-91.93 201.95,-84.6 195.71,-81.43"/>
</g>
<!-- Node2 -->
<g id="Node000002" class="node">
<title>Node2</title>
<g id="a_Node000002"><a xlink:href="group__STM32F4xx__HAL__Driver.html" target="_top" xlink:title=" ">
<polygon fill="white" stroke="#666666" points="134,-111 0,-111 0,-92 134,-92 134,-111"/>
<text text-anchor="middle" x="67" y="-99" font-family="Helvetica,sans-Serif" font-size="10.00">STM32F4xx_HAL_Driver</text>
</a>
</g>
</g>
<!-- Node2&#45;&gt;Node1 -->
<g id="edge1" class="edge">
<title>Node2&#45;&gt;Node1</title>
<path fill="none" stroke="black" d="M144.55,-101.5C153.82,-101.5 162.52,-101.5 169.66,-101.5"/>
<polygon fill="black" stroke="black" points="144.32,-98 134.32,-101.5 144.32,-105 144.32,-98"/>
</g>
</g>
</svg>
</svg>

<style type='text/css'>
<![CDATA[
[data-mouse-over-selected='false'] { opacity: 0.7; }
[data-mouse-over-selected='true']  { opacity: 1.0; }
]]>
</style>
<script type="application/ecmascript"><![CDATA[
document.addEventListener('DOMContentLoaded', (event) => {
  highlightEdges();
  highlightAdjacentNodes();
});
]]></script>
</svg>
