<?xml version="1.0" encoding="UTF-8" standalone="no"?>
<!DOCTYPE svg PUBLIC "-//W3C//DTD SVG 1.1//EN"
 "http://www.w3.org/Graphics/SVG/1.1/DTD/svg11.dtd">
<!-- Generated by graphviz version 12.2.1 (20241206.2353)
 -->
<!-- Title: RTC Private Macros Pages: 1 -->
<svg width="352pt" height="42pt"
 viewBox="0.00 0.00 352.25 41.50" xmlns="http://www.w3.org/2000/svg" xmlns:xlink="http://www.w3.org/1999/xlink">
<g id="page0,1_graph0" class="graph" transform="scale(1 1) rotate(0) translate(4 37.5)">
<title>RTC Private Macros</title>
<!-- Node2 -->
<g id="Node000002" class="node">
<title>Node2</title>
<g id="a_Node000002"><a xlink:href="group__RTC.html" target="_top" xlink:title="RTC HAL module driver.">
<polygon fill="white" stroke="#666666" points="34.75,-27.12 0,-27.12 0,-6.38 34.75,-6.38 34.75,-27.12"/>
<text text-anchor="middle" x="17.38" y="-13.62" font-family="Helvetica,sans-Serif" font-size="10.00">RTC</text>
</a>
</g>
</g>
<!-- Node1 -->
<g id="Node000001" class="node">
<title>Node1</title>
<g id="a_Node000001"><a xlink:title=" ">
<polygon fill="#999999" stroke="#666666" points="173,-27.12 70.75,-27.12 70.75,-6.38 173,-6.38 173,-27.12"/>
<text text-anchor="middle" x="121.88" y="-13.62" font-family="Helvetica,sans-Serif" font-size="10.00">RTC Private Macros</text>
</a>
</g>
</g>
<!-- Node2&#45;&gt;Node1 -->
<g id="edge1" class="edge">
<title>Node2&#45;&gt;Node1</title>
<path fill="none" stroke="black" d="M46.14,-16.75C53.64,-16.75 62,-16.75 70.32,-16.75"/>
<polygon fill="black" stroke="black" points="46.36,-13.25 36.36,-16.75 46.36,-20.25 46.36,-13.25"/>
</g>
<!-- Node3 -->
<g id="Node000003" class="node">
<title>Node3</title>
<g id="a_Node000003"><a xlink:href="group__RTC__IS__RTC__Definitions.html" target="_top" xlink:title=" ">
<polygon fill="white" stroke="#666666" points="344.25,-33.5 209,-33.5 209,0 344.25,0 344.25,-33.5"/>
<text text-anchor="start" x="217" y="-20" font-family="Helvetica,sans-Serif" font-size="10.00">RTC Private macros</text>
<text text-anchor="middle" x="276.62" y="-7.25" font-family="Helvetica,sans-Serif" font-size="10.00"> to check input parameters</text>
</a>
</g>
</g>
<!-- Node1&#45;&gt;Node3 -->
<g id="edge2" class="edge">
<title>Node1&#45;&gt;Node3</title>
<path fill="none" stroke="black" d="M184.67,-16.75C192.56,-16.75 200.66,-16.75 208.62,-16.75"/>
<polygon fill="black" stroke="black" points="184.83,-13.25 174.83,-16.75 184.83,-20.25 184.83,-13.25"/>
</g>
</g>
</svg>
