<?xml version="1.0" encoding="UTF-8" standalone="no"?>
<!DOCTYPE svg PUBLIC "-//W3C//DTD SVG 1.1//EN"
 "http://www.w3.org/Graphics/SVG/1.1/DTD/svg11.dtd">
<!-- Generated by graphviz version 12.2.1 (20241206.2353)
 -->
<!-- Title: USART_Exported_Functions Pages: 1 -->
<svg width="410pt" height="146pt"
 viewBox="0.00 0.00 410.00 145.50" xmlns="http://www.w3.org/2000/svg" xmlns:xlink="http://www.w3.org/1999/xlink">
<g id="page0,1_graph0" class="graph" transform="scale(1 1) rotate(0) translate(4 141.5)">
<title>USART_Exported_Functions</title>
<!-- Node2 -->
<g id="Node000002" class="node">
<title>Node2</title>
<g id="a_Node000002"><a xlink:href="group__USART.html" target="_top" xlink:title="HAL USART Synchronous module driver.">
<polygon fill="white" stroke="#666666" points="46,-79.12 0,-79.12 0,-58.38 46,-58.38 46,-79.12"/>
<text text-anchor="middle" x="23" y="-65.62" font-family="Helvetica,sans-Serif" font-size="10.00">USART</text>
</a>
</g>
</g>
<!-- Node1 -->
<g id="Node000001" class="node">
<title>Node1</title>
<g id="a_Node000001"><a xlink:title=" ">
<polygon fill="#999999" stroke="#666666" points="224,-79.12 82,-79.12 82,-58.38 224,-58.38 224,-79.12"/>
<text text-anchor="middle" x="153" y="-65.62" font-family="Helvetica,sans-Serif" font-size="10.00">USART_Exported_Functions</text>
</a>
</g>
</g>
<!-- Node2&#45;&gt;Node1 -->
<g id="edge1" class="edge">
<title>Node2&#45;&gt;Node1</title>
<path fill="none" stroke="black" d="M57.68,-68.75C65.12,-68.75 73.27,-68.75 81.56,-68.75"/>
<polygon fill="black" stroke="black" points="57.81,-65.25 47.81,-68.75 57.81,-72.25 57.81,-65.25"/>
</g>
<!-- Node3 -->
<g id="Node000003" class="node">
<title>Node3</title>
<g id="a_Node000003"><a xlink:href="group__USART__Exported__Functions__Group1.html" target="_top" xlink:title=" ">
<polygon fill="white" stroke="#666666" points="402,-137.5 260,-137.5 260,-104 402,-104 402,-137.5"/>
<text text-anchor="start" x="268" y="-124" font-family="Helvetica,sans-Serif" font-size="10.00">USART_Exported_Functions</text>
<text text-anchor="middle" x="331" y="-111.25" font-family="Helvetica,sans-Serif" font-size="10.00">_Group1</text>
</a>
</g>
</g>
<!-- Node1&#45;&gt;Node3 -->
<g id="edge2" class="edge">
<title>Node1&#45;&gt;Node3</title>
<path fill="none" stroke="black" d="M201.37,-82.75C223.04,-89.15 248.91,-96.79 271.76,-103.54"/>
<polygon fill="black" stroke="black" points="202.5,-79.43 191.92,-79.95 200.52,-86.14 202.5,-79.43"/>
</g>
<!-- Node4 -->
<g id="Node000004" class="node">
<title>Node4</title>
<g id="a_Node000004"><a xlink:href="group__USART__Exported__Functions__Group2.html" target="_top" xlink:title=" ">
<polygon fill="white" stroke="#666666" points="402,-85.5 260,-85.5 260,-52 402,-52 402,-85.5"/>
<text text-anchor="start" x="268" y="-72" font-family="Helvetica,sans-Serif" font-size="10.00">USART_Exported_Functions</text>
<text text-anchor="middle" x="331" y="-59.25" font-family="Helvetica,sans-Serif" font-size="10.00">_Group2</text>
</a>
</g>
</g>
<!-- Node1&#45;&gt;Node4 -->
<g id="edge3" class="edge">
<title>Node1&#45;&gt;Node4</title>
<path fill="none" stroke="black" d="M235.83,-68.75C243.74,-68.75 251.72,-68.75 259.51,-68.75"/>
<polygon fill="black" stroke="black" points="235.83,-65.25 225.83,-68.75 235.83,-72.25 235.83,-65.25"/>
</g>
<!-- Node5 -->
<g id="Node000005" class="node">
<title>Node5</title>
<g id="a_Node000005"><a xlink:href="group__USART__Exported__Functions__Group3.html" target="_top" xlink:title=" ">
<polygon fill="white" stroke="#666666" points="402,-33.5 260,-33.5 260,0 402,0 402,-33.5"/>
<text text-anchor="start" x="268" y="-20" font-family="Helvetica,sans-Serif" font-size="10.00">USART_Exported_Functions</text>
<text text-anchor="middle" x="331" y="-7.25" font-family="Helvetica,sans-Serif" font-size="10.00">_Group3</text>
</a>
</g>
</g>
<!-- Node1&#45;&gt;Node5 -->
<g id="edge4" class="edge">
<title>Node1&#45;&gt;Node5</title>
<path fill="none" stroke="black" d="M201.37,-54.75C223.04,-48.35 248.91,-40.71 271.76,-33.96"/>
<polygon fill="black" stroke="black" points="200.52,-51.36 191.92,-57.55 202.5,-58.07 200.52,-51.36"/>
</g>
</g>
</svg>
