<?xml version="1.0" encoding="UTF-8" standalone="no"?>
<!DOCTYPE svg PUBLIC "-//W3C//DTD SVG 1.1//EN"
 "http://www.w3.org/Graphics/SVG/1.1/DTD/svg11.dtd">
<!-- Generated by graphviz version 12.2.1 (20241206.2353)
 -->
<!-- Title: HAL_SetTickFreq Pages: 1 -->
<svg width="361pt" height="68pt"
 viewBox="0.00 0.00 361.25 67.75" xmlns="http://www.w3.org/2000/svg" xmlns:xlink="http://www.w3.org/1999/xlink">
<g id="page0,1_graph0" class="graph" transform="scale(1 1) rotate(0) translate(4 63.75)">
<title>HAL_SetTickFreq</title>
<!-- Node1 -->
<g id="Node000001" class="node">
<title>Node1</title>
<g id="a_Node000001"><a xlink:title="Set new tick Freq.">
<polygon fill="#999999" stroke="#666666" points="93.25,-39.75 0,-39.75 0,-19 93.25,-19 93.25,-39.75"/>
<text text-anchor="middle" x="46.62" y="-26.25" font-family="Helvetica,sans-Serif" font-size="10.00">HAL_SetTickFreq</text>
</a>
</g>
</g>
<!-- Node2 -->
<g id="Node000002" class="node">
<title>Node2</title>
<g id="a_Node000002"><a xlink:href="group__HAL__Exported__Functions__Group1.html#ga879cdb21ef051eb81ec51c18147397d5" target="_top" xlink:title="This function configures the source of the time base. The time source is configured to have 1ms time ...">
<polygon fill="white" stroke="#666666" points="202.25,-39.75 129.25,-39.75 129.25,-19 202.25,-19 202.25,-39.75"/>
<text text-anchor="middle" x="165.75" y="-26.25" font-family="Helvetica,sans-Serif" font-size="10.00">HAL_InitTick</text>
</a>
</g>
</g>
<!-- Node1&#45;&gt;Node2 -->
<g id="edge1_Node000001_Node000002" class="edge">
<title>Node1&#45;&gt;Node2</title>
<g id="a_edge1_Node000001_Node000002"><a xlink:title=" ">
<path fill="none" stroke="#63b8ff" d="M93.58,-29.38C101.5,-29.38 109.75,-29.38 117.7,-29.38"/>
<polygon fill="#63b8ff" stroke="#63b8ff" points="117.55,-32.88 127.55,-29.38 117.55,-25.88 117.55,-32.88"/>
</a>
</g>
</g>
<!-- Node3 -->
<g id="Node000003" class="node">
<title>Node3</title>
<g id="a_Node000003"><a xlink:href="group__CORTEX__Exported__Functions__Group1.html#ga8581a82025a4780efd00876a66e3e91b" target="_top" xlink:title=" ">
<polygon fill="white" stroke="#666666" points="353.25,-59.75 238.25,-59.75 238.25,-39 353.25,-39 353.25,-59.75"/>
<text text-anchor="middle" x="295.75" y="-46.25" font-family="Helvetica,sans-Serif" font-size="10.00">HAL_NVIC_SetPriority</text>
</a>
</g>
</g>
<!-- Node2&#45;&gt;Node3 -->
<g id="edge2_Node000002_Node000003" class="edge">
<title>Node2&#45;&gt;Node3</title>
<g id="a_edge2_Node000002_Node000003"><a xlink:title=" ">
<path fill="none" stroke="#63b8ff" d="M202.75,-35C210.27,-36.17 218.44,-37.45 226.69,-38.74"/>
<polygon fill="#63b8ff" stroke="#63b8ff" points="226.04,-42.18 236.46,-40.27 227.12,-35.27 226.04,-42.18"/>
</a>
</g>
</g>
<!-- Node4 -->
<g id="Node000004" class="node">
<title>Node4</title>
<g id="a_Node000004"><a xlink:href="group__CORTEX__Exported__Functions__Group1.html#gac3a3f0d53c315523a8e6e7bcac1940cf" target="_top" xlink:title=" ">
<polygon fill="white" stroke="#666666" points="352.88,-20.75 238.62,-20.75 238.62,0 352.88,0 352.88,-20.75"/>
<text text-anchor="middle" x="295.75" y="-7.25" font-family="Helvetica,sans-Serif" font-size="10.00">HAL_SYSTICK_Config</text>
</a>
</g>
</g>
<!-- Node2&#45;&gt;Node4 -->
<g id="edge3_Node000002_Node000004" class="edge">
<title>Node2&#45;&gt;Node4</title>
<g id="a_edge3_Node000002_Node000004"><a xlink:title=" ">
<path fill="none" stroke="#63b8ff" d="M202.75,-24.03C210.46,-22.89 218.85,-21.64 227.31,-20.39"/>
<polygon fill="#63b8ff" stroke="#63b8ff" points="227.57,-23.89 236.95,-18.96 226.54,-16.96 227.57,-23.89"/>
</a>
</g>
</g>
</g>
</svg>
