<?xml version="1.0" encoding="UTF-8" standalone="no"?>
<!DOCTYPE svg PUBLIC "-//W3C//DTD SVG 1.1//EN"
 "http://www.w3.org/Graphics/SVG/1.1/DTD/svg11.dtd">
<!-- Generated by graphviz version 12.2.1 (20241206.2353)
 -->
<!-- Title: DMAEx Pages: 1 -->
<svg width="388pt" height="107pt"
 viewBox="0.00 0.00 387.50 106.75" xmlns="http://www.w3.org/2000/svg" xmlns:xlink="http://www.w3.org/1999/xlink">
<g id="page0,1_graph0" class="graph" transform="scale(1 1) rotate(0) translate(4 102.75)">
<title>DMAEx</title>
<!-- Node1 -->
<g id="Node000001" class="node">
<title>Node1</title>
<g id="a_Node000001"><a xlink:title="DMA Extended HAL module driver.">
<polygon fill="#999999" stroke="#666666" points="206,-59.75 158.5,-59.75 158.5,-39 206,-39 206,-59.75"/>
<text text-anchor="middle" x="182.25" y="-46.25" font-family="Helvetica,sans-Serif" font-size="10.00">DMAEx</text>
</a>
</g>
</g>
<!-- Node4 -->
<g id="Node000004" class="node">
<title>Node4</title>
<g id="a_Node000004"><a xlink:href="group__DMAEx__Exported__Functions.html" target="_top" xlink:title="DMAEx Exported functions.">
<polygon fill="white" stroke="#666666" points="379.5,-98.75 242,-98.75 242,-78 379.5,-78 379.5,-98.75"/>
<text text-anchor="middle" x="310.75" y="-85.25" font-family="Helvetica,sans-Serif" font-size="10.00">DMAEx Exported Functions</text>
</a>
</g>
</g>
<!-- Node1&#45;&gt;Node4 -->
<g id="edge3" class="edge">
<title>Node1&#45;&gt;Node4</title>
<path fill="none" stroke="black" d="M217.05,-60.47C225.2,-63.1 233.9,-65.87 242,-68.38 251.84,-71.42 262.52,-74.62 272.42,-77.54"/>
<polygon fill="black" stroke="black" points="218.4,-57.23 207.81,-57.47 216.24,-63.89 218.4,-57.23"/>
</g>
<!-- Node3 -->
<g id="Node000003" class="node">
<title>Node3</title>
<g id="a_Node000003"><a xlink:href="group__DMAEx__Exported__Types.html" target="_top" xlink:title="DMAEx Exported types.">
<polygon fill="white" stroke="#666666" points="370.5,-59.75 251,-59.75 251,-39 370.5,-39 370.5,-59.75"/>
<text text-anchor="middle" x="310.75" y="-46.25" font-family="Helvetica,sans-Serif" font-size="10.00">DMAEx Exported Types</text>
</a>
</g>
</g>
<!-- Node1&#45;&gt;Node3 -->
<g id="edge2" class="edge">
<title>Node1&#45;&gt;Node3</title>
<path fill="none" stroke="black" d="M217.74,-49.38C227.92,-49.38 239.36,-49.38 250.63,-49.38"/>
<polygon fill="black" stroke="black" points="217.97,-45.88 207.97,-49.38 217.97,-52.88 217.97,-45.88"/>
</g>
<!-- Node5 -->
<g id="Node000005" class="node">
<title>Node5</title>
<g id="a_Node000005"><a xlink:href="group__DMAEx__Private__Functions.html" target="_top" xlink:title="DMAEx Private functions.">
<polygon fill="white" stroke="#666666" points="374.25,-20.75 247.25,-20.75 247.25,0 374.25,0 374.25,-20.75"/>
<text text-anchor="middle" x="310.75" y="-7.25" font-family="Helvetica,sans-Serif" font-size="10.00">DMAEx Private Functions</text>
</a>
</g>
</g>
<!-- Node1&#45;&gt;Node5 -->
<g id="edge4" class="edge">
<title>Node1&#45;&gt;Node5</title>
<path fill="none" stroke="black" d="M217.05,-38.28C225.2,-35.65 233.9,-32.88 242,-30.38 251.84,-27.33 262.52,-24.13 272.42,-21.21"/>
<polygon fill="black" stroke="black" points="216.24,-34.86 207.81,-41.28 218.4,-41.52 216.24,-34.86"/>
</g>
<!-- Node2 -->
<g id="Node000002" class="node">
<title>Node2</title>
<g id="a_Node000002"><a xlink:href="group__STM32F4xx__HAL__Driver.html" target="_top" xlink:title=" ">
<polygon fill="white" stroke="#666666" points="122.5,-59.75 0,-59.75 0,-39 122.5,-39 122.5,-59.75"/>
<text text-anchor="middle" x="61.25" y="-46.25" font-family="Helvetica,sans-Serif" font-size="10.00">STM32F4xx_HAL_Driver</text>
</a>
</g>
</g>
<!-- Node2&#45;&gt;Node1 -->
<g id="edge1" class="edge">
<title>Node2&#45;&gt;Node1</title>
<path fill="none" stroke="black" d="M134.26,-49.38C142.87,-49.38 151.11,-49.38 158.22,-49.38"/>
<polygon fill="black" stroke="black" points="134.31,-45.88 124.31,-49.38 134.31,-52.88 134.31,-45.88"/>
</g>
</g>
</svg>
