<?xml version="1.0" encoding="UTF-8" standalone="no"?>
<!DOCTYPE svg PUBLIC "-//W3C//DTD SVG 1.1//EN"
 "http://www.w3.org/Graphics/SVG/1.1/DTD/svg11.dtd">
<!-- Generated by graphviz version 2.43.0 (0)
 -->
<!-- Title: HAL_InitTick Pages: 1 -->
<svg width="279pt" height="175pt"
 viewBox="0.00 0.00 279.00 175.00" xmlns="http://www.w3.org/2000/svg" xmlns:xlink="http://www.w3.org/1999/xlink">

<svg id="main" version="1.1" xmlns="http://www.w3.org/2000/svg" xmlns:xlink="http://www.w3.org/1999/xlink" xml:space="preserve">

<style type="text/css"><![CDATA[
.node, .edge {opacity: 0.7;}
.node.selected, .edge.selected {opacity: 1;}
.edge:hover path { stroke: red; }
.edge:hover polygon { stroke: red; fill: red; }
]]></style>
<script type="application/ecmascript" xlink:href="svg.min.js"/>
<svg id="graph" class="graph">
<g id="graph0" class="graph" transform="scale(1 1) rotate(0) translate(4 171)">
<title>HAL_InitTick</title>
<!-- Node1 -->
<g id="Node000001" class="node">
<title>Node1</title>
<g id="a_Node000001"><a xlink:title="This function configures the RTC_WKUP as a time base source. The time source is configured to have 1m...">
<polygon fill="#999999" stroke="#666666" points="77,-93 0,-93 0,-74 77,-74 77,-93"/>
<text text-anchor="middle" x="38.5" y="-81" font-family="Helvetica,sans-Serif" font-size="10.00">HAL_InitTick</text>
</a>
</g>
</g>
<!-- Node2 -->
<g id="Node000002" class="node">
<title>Node2</title>
<g id="a_Node000002"><a xlink:href="group__CORTEX__Exported__Functions__Group1.html#gaaad4492c1b25e006d69948a15790352a" target="_top" xlink:title=" ">
<polygon fill="white" stroke="#666666" points="252.5,-167 131.5,-167 131.5,-148 252.5,-148 252.5,-167"/>
<text text-anchor="middle" x="192" y="-155" font-family="Helvetica,sans-Serif" font-size="10.00">HAL_NVIC_EnableIRQ</text>
</a>
</g>
</g>
<!-- Node1&#45;&gt;Node2 -->
<g id="edge1_Node000001_Node000002" class="edge">
<title>Node1&#45;&gt;Node2</title>
<g id="a_edge1_Node000001_Node000002"><a xlink:title=" ">
<path fill="none" stroke="#63b8ff" d="M49.52,-93.4C62.86,-106.03 87.73,-127.64 113,-139.5 117.15,-141.45 121.52,-143.19 125.99,-144.75"/>
<polygon fill="#63b8ff" stroke="#63b8ff" points="125.29,-148.2 135.88,-147.88 127.4,-141.53 125.29,-148.2"/>
</a>
</g>
</g>
<!-- Node3 -->
<g id="Node000003" class="node">
<title>Node3</title>
<g id="a_Node000003"><a xlink:href="group__CORTEX__Exported__Functions__Group1.html#ga8581a82025a4780efd00876a66e3e91b" target="_top" xlink:title=" ">
<polygon fill="white" stroke="#666666" points="253,-130 131,-130 131,-111 253,-111 253,-130"/>
<text text-anchor="middle" x="192" y="-118" font-family="Helvetica,sans-Serif" font-size="10.00">HAL_NVIC_SetPriority</text>
</a>
</g>
</g>
<!-- Node1&#45;&gt;Node3 -->
<g id="edge2_Node000001_Node000003" class="edge">
<title>Node1&#45;&gt;Node3</title>
<g id="a_edge2_Node000001_Node000003"><a xlink:title=" ">
<path fill="none" stroke="#63b8ff" d="M75.72,-93.06C87.58,-96.14 100.84,-99.53 113,-102.5 121.34,-104.54 130.21,-106.65 138.85,-108.66"/>
<polygon fill="#63b8ff" stroke="#63b8ff" points="138.32,-112.13 148.85,-110.99 139.9,-105.32 138.32,-112.13"/>
</a>
</g>
</g>
<!-- Node4 -->
<g id="Node000004" class="node">
<title>Node4</title>
<g id="a_Node000004"><a xlink:href="group__RCC__Exported__Functions__Group1.html#gaaf070da42c717e9d2d79e858b647b782" target="_top" xlink:title=" ">
<polygon fill="white" stroke="#666666" points="250,-93 134,-93 134,-74 250,-74 250,-93"/>
<text text-anchor="middle" x="192" y="-81" font-family="Helvetica,sans-Serif" font-size="10.00">HAL_RCC_OscConfig</text>
</a>
</g>
</g>
<!-- Node1&#45;&gt;Node4 -->
<g id="edge3_Node000001_Node000004" class="edge">
<title>Node1&#45;&gt;Node4</title>
<g id="a_edge3_Node000001_Node000004"><a xlink:title=" ">
<path fill="none" stroke="#63b8ff" d="M77.34,-83.5C91.36,-83.5 107.71,-83.5 123.57,-83.5"/>
<polygon fill="#63b8ff" stroke="#63b8ff" points="123.9,-87 133.9,-83.5 123.9,-80 123.9,-87"/>
</a>
</g>
</g>
<!-- Node5 -->
<g id="Node000005" class="node">
<title>Node5</title>
<g id="a_Node000005"><a xlink:href="group__RCCEx__Exported__Functions__Group1.html#ga0c0f61a1e2f47cc81bc43d83ba3e0d95" target="_top" xlink:title=" ">
<polygon fill="white" stroke="#666666" points="271,-56 113,-56 113,-37 271,-37 271,-56"/>
<text text-anchor="middle" x="192" y="-44" font-family="Helvetica,sans-Serif" font-size="10.00">HAL_RCCEx_PeriphCLKConfig</text>
</a>
</g>
</g>
<!-- Node1&#45;&gt;Node5 -->
<g id="edge4_Node000001_Node000005" class="edge">
<title>Node1&#45;&gt;Node5</title>
<g id="a_edge4_Node000001_Node000005"><a xlink:title=" ">
<path fill="none" stroke="#63b8ff" d="M77.27,-74.24C88.74,-71.43 101.39,-68.34 113,-65.5 122.35,-63.22 132.32,-60.78 141.91,-58.45"/>
<polygon fill="#63b8ff" stroke="#63b8ff" points="142.83,-61.83 151.72,-56.06 141.17,-55.03 142.83,-61.83"/>
</a>
</g>
</g>
<!-- Node6 -->
<g id="Node000006" class="node">
<title>Node6</title>
<g id="a_Node000006"><a xlink:href="group__RTC__Exported__Functions__Group1.html#gaa6b53830aa3e2efaf210c0b1d3e5f4a4" target="_top" xlink:title=" ">
<polygon fill="white" stroke="#666666" points="232,-19 152,-19 152,0 232,0 232,-19"/>
<text text-anchor="middle" x="192" y="-7" font-family="Helvetica,sans-Serif" font-size="10.00">HAL_RTC_Init</text>
</a>
</g>
</g>
<!-- Node1&#45;&gt;Node6 -->
<g id="edge5_Node000001_Node000006" class="edge">
<title>Node1&#45;&gt;Node6</title>
<g id="a_edge5_Node000001_Node000006"><a xlink:title=" ">
<path fill="none" stroke="#63b8ff" d="M49.57,-73.83C62.98,-61.49 87.92,-40.33 113,-28.5 122.08,-24.22 132.22,-20.84 142.11,-18.2"/>
<polygon fill="#63b8ff" stroke="#63b8ff" points="142.99,-21.59 151.86,-15.8 141.31,-14.79 142.99,-21.59"/>
</a>
</g>
</g>
</g>
</svg>
</svg>

<style type='text/css'>
<![CDATA[
[data-mouse-over-selected='false'] { opacity: 0.7; }
[data-mouse-over-selected='true']  { opacity: 1.0; }
]]>
</style>
<script type="application/ecmascript"><![CDATA[
document.addEventListener('DOMContentLoaded', (event) => {
  highlightEdges();
  highlightAdjacentNodes();
});
]]></script>
</svg>
