<?xml version="1.0" encoding="UTF-8" standalone="no"?>
<!DOCTYPE svg PUBLIC "-//W3C//DTD SVG 1.1//EN"
 "http://www.w3.org/Graphics/SVG/1.1/DTD/svg11.dtd">
<!-- Generated by graphviz version 12.2.1 (20241206.2353)
 -->
<!-- Title: GPIOEx Pages: 1 -->
<svg width="385pt" height="224pt"
 viewBox="0.00 0.00 385.25 223.75" xmlns="http://www.w3.org/2000/svg" xmlns:xlink="http://www.w3.org/1999/xlink">

<svg id="main" version="1.1" xmlns="http://www.w3.org/2000/svg" xmlns:xlink="http://www.w3.org/1999/xlink" xml:space="preserve">

<style type="text/css"><![CDATA[
.node, .edge {opacity: 0.7;}
.node.selected, .edge.selected {opacity: 1;}
.edge:hover path { stroke: red; }
.edge:hover polygon { stroke: red; fill: red; }
]]></style>
<script type="application/ecmascript" xlink:href="svg.min.js"/>
<svg id="graph" class="graph">
<g id="graph0" class="graph" transform="scale(1 1) rotate(0) translate(4 219.75)">
<title>GPIOEx</title>
<!-- Node1 -->
<g id="Node000001" class="node">
<title>Node1</title>
<g id="a_Node000001"><a xlink:title=" ">
<polygon fill="#999999" stroke="#666666" points="209,-117.75 158.5,-117.75 158.5,-97 209,-97 209,-117.75"/>
<text text-anchor="middle" x="183.75" y="-104.25" font-family="Helvetica,sans-Serif" font-size="10.00">GPIOEx</text>
</a>
</g>
</g>
<!-- Node3 -->
<g id="Node000003" class="node">
<title>Node3</title>
<g id="a_Node000003"><a xlink:href="group__GPIOEx__Exported__Constants.html" target="_top" xlink:title=" ">
<polygon fill="white" stroke="#666666" points="377.25,-215.75 245,-215.75 245,-195 377.25,-195 377.25,-215.75"/>
<text text-anchor="middle" x="311.12" y="-202.25" font-family="Helvetica,sans-Serif" font-size="10.00">GPIO Exported Constants</text>
</a>
</g>
</g>
<!-- Node1&#45;&gt;Node3 -->
<g id="edge2" class="edge">
<title>Node1&#45;&gt;Node3</title>
<path fill="none" stroke="black" d="M195.84,-128.07C206.3,-145.73 223.56,-170.53 245,-185.38 250.35,-189.08 256.4,-192.11 262.62,-194.6"/>
<polygon fill="black" stroke="black" points="198.94,-126.46 190.97,-119.48 192.85,-129.91 198.94,-126.46"/>
</g>
<!-- Node5 -->
<g id="Node000005" class="node">
<title>Node5</title>
<g id="a_Node000005"><a xlink:href="group__GPIOEx__Exported__Functions.html" target="_top" xlink:title=" ">
<polygon fill="white" stroke="#666666" points="376.12,-176.75 246.12,-176.75 246.12,-156 376.12,-156 376.12,-176.75"/>
<text text-anchor="middle" x="311.12" y="-163.25" font-family="Helvetica,sans-Serif" font-size="10.00">GPIO Exported Functions</text>
</a>
</g>
</g>
<!-- Node1&#45;&gt;Node5 -->
<g id="edge4" class="edge">
<title>Node1&#45;&gt;Node5</title>
<path fill="none" stroke="black" d="M208.11,-124.66C218.93,-132.08 232.2,-140.41 245,-146.38 252.5,-149.87 260.77,-152.95 268.83,-155.58"/>
<polygon fill="black" stroke="black" points="210.37,-121.97 200.18,-119.06 206.33,-127.68 210.37,-121.97"/>
</g>
<!-- Node4 -->
<g id="Node000004" class="node">
<title>Node4</title>
<g id="a_Node000004"><a xlink:href="group__GPIOEx__Exported__Macros.html" target="_top" xlink:title=" ">
<polygon fill="white" stroke="#666666" points="370.12,-137.75 252.12,-137.75 252.12,-117 370.12,-117 370.12,-137.75"/>
<text text-anchor="middle" x="311.12" y="-124.25" font-family="Helvetica,sans-Serif" font-size="10.00">GPIO Exported Macros</text>
</a>
</g>
</g>
<!-- Node1&#45;&gt;Node4 -->
<g id="edge3" class="edge">
<title>Node1&#45;&gt;Node4</title>
<path fill="none" stroke="black" d="M220.49,-113.08C230.23,-114.63 241.04,-116.35 251.69,-118.05"/>
<polygon fill="black" stroke="black" points="221.14,-109.64 210.72,-111.52 220.04,-116.55 221.14,-109.64"/>
</g>
<!-- Node6 -->
<g id="Node000006" class="node">
<title>Node6</title>
<g id="a_Node000006"><a xlink:href="group__GPIOEx__Private__Constants.html" target="_top" xlink:title=" ">
<polygon fill="white" stroke="#666666" points="372,-98.75 250.25,-98.75 250.25,-78 372,-78 372,-98.75"/>
<text text-anchor="middle" x="311.12" y="-85.25" font-family="Helvetica,sans-Serif" font-size="10.00">GPIO Private Constants</text>
</a>
</g>
</g>
<!-- Node1&#45;&gt;Node6 -->
<g id="edge5" class="edge">
<title>Node1&#45;&gt;Node6</title>
<path fill="none" stroke="black" d="M220.31,-101.99C229.53,-100.59 239.73,-99.04 249.84,-97.51"/>
<polygon fill="black" stroke="black" points="220.08,-98.48 210.72,-103.44 221.13,-105.4 220.08,-98.48"/>
</g>
<!-- Node8 -->
<g id="Node000008" class="node">
<title>Node8</title>
<g id="a_Node000008"><a xlink:href="group__GPIOEx__Private__Functions.html" target="_top" xlink:title=" ">
<polygon fill="white" stroke="#666666" points="370.88,-59.75 251.38,-59.75 251.38,-39 370.88,-39 370.88,-59.75"/>
<text text-anchor="middle" x="311.12" y="-46.25" font-family="Helvetica,sans-Serif" font-size="10.00">GPIO Private Functions</text>
</a>
</g>
</g>
<!-- Node1&#45;&gt;Node8 -->
<g id="edge7" class="edge">
<title>Node1&#45;&gt;Node8</title>
<path fill="none" stroke="black" d="M208.94,-90.05C219.62,-82.96 232.56,-75.08 245,-69.38 252.52,-65.92 260.8,-62.86 268.86,-60.24"/>
<polygon fill="black" stroke="black" points="207,-87.14 200.72,-95.67 210.95,-92.92 207,-87.14"/>
</g>
<!-- Node7 -->
<g id="Node000007" class="node">
<title>Node7</title>
<g id="a_Node000007"><a xlink:href="group__GPIOEx__Private__Macros.html" target="_top" xlink:title=" ">
<polygon fill="white" stroke="#666666" points="364.88,-20.75 257.38,-20.75 257.38,0 364.88,0 364.88,-20.75"/>
<text text-anchor="middle" x="311.12" y="-7.25" font-family="Helvetica,sans-Serif" font-size="10.00">GPIO Private Macros</text>
</a>
</g>
</g>
<!-- Node1&#45;&gt;Node7 -->
<g id="edge6" class="edge">
<title>Node1&#45;&gt;Node7</title>
<path fill="none" stroke="black" d="M195.9,-86.94C206.4,-69.52 223.69,-45.03 245,-30.38 250.36,-26.69 256.42,-23.66 262.64,-21.19"/>
<polygon fill="black" stroke="black" points="192.98,-85 191.02,-95.42 199.04,-88.5 192.98,-85"/>
</g>
<!-- Node2 -->
<g id="Node000002" class="node">
<title>Node2</title>
<g id="a_Node000002"><a xlink:href="group__STM32F4xx__HAL__Driver.html" target="_top" xlink:title=" ">
<polygon fill="white" stroke="#666666" points="122.5,-117.75 0,-117.75 0,-97 122.5,-97 122.5,-117.75"/>
<text text-anchor="middle" x="61.25" y="-104.25" font-family="Helvetica,sans-Serif" font-size="10.00">STM32F4xx_HAL_Driver</text>
</a>
</g>
</g>
<!-- Node2&#45;&gt;Node1 -->
<g id="edge1" class="edge">
<title>Node2&#45;&gt;Node1</title>
<path fill="none" stroke="black" d="M134.25,-107.38C142.82,-107.38 151.06,-107.38 158.24,-107.38"/>
<polygon fill="black" stroke="black" points="134.37,-103.88 124.37,-107.38 134.37,-110.88 134.37,-103.88"/>
</g>
</g>
</svg>
</svg>

<style type='text/css'>
<![CDATA[
[data-mouse-over-selected='false'] { opacity: 0.7; }
[data-mouse-over-selected='true']  { opacity: 1.0; }
]]>
</style>
<script type="application/ecmascript"><![CDATA[
document.addEventListener('DOMContentLoaded', (event) => {
  highlightEdges();
  highlightAdjacentNodes();
});
]]></script>
</svg>
