<?xml version="1.0" encoding="UTF-8" standalone="no"?>
<!DOCTYPE svg PUBLIC "-//W3C//DTD SVG 1.1//EN"
 "http://www.w3.org/Graphics/SVG/1.1/DTD/svg11.dtd">
<!-- Generated by graphviz version 12.2.1 (20241206.2353)
 -->
<!-- Title: IRDA_Exported_Functions Pages: 1 -->
<svg width="385pt" height="146pt"
 viewBox="0.00 0.00 385.25 145.50" xmlns="http://www.w3.org/2000/svg" xmlns:xlink="http://www.w3.org/1999/xlink">
<g id="page0,1_graph0" class="graph" transform="scale(1 1) rotate(0) translate(4 141.5)">
<title>IRDA_Exported_Functions</title>
<!-- Node2 -->
<g id="Node000002" class="node">
<title>Node2</title>
<g id="a_Node000002"><a xlink:href="group__IRDA.html" target="_top" xlink:title="HAL IRDA module driver.">
<polygon fill="white" stroke="#666666" points="37.75,-79.12 0,-79.12 0,-58.38 37.75,-58.38 37.75,-79.12"/>
<text text-anchor="middle" x="18.88" y="-65.62" font-family="Helvetica,sans-Serif" font-size="10.00">IRDA</text>
</a>
</g>
</g>
<!-- Node1 -->
<g id="Node000001" class="node">
<title>Node1</title>
<g id="a_Node000001"><a xlink:title=" ">
<polygon fill="#999999" stroke="#666666" points="207.5,-79.12 73.75,-79.12 73.75,-58.38 207.5,-58.38 207.5,-79.12"/>
<text text-anchor="middle" x="140.62" y="-65.62" font-family="Helvetica,sans-Serif" font-size="10.00">IRDA_Exported_Functions</text>
</a>
</g>
</g>
<!-- Node2&#45;&gt;Node1 -->
<g id="edge1" class="edge">
<title>Node2&#45;&gt;Node1</title>
<path fill="none" stroke="black" d="M49.51,-68.75C56.83,-68.75 64.98,-68.75 73.3,-68.75"/>
<polygon fill="black" stroke="black" points="49.58,-65.25 39.58,-68.75 49.58,-72.25 49.58,-65.25"/>
</g>
<!-- Node3 -->
<g id="Node000003" class="node">
<title>Node3</title>
<g id="a_Node000003"><a xlink:href="group__IRDA__Exported__Functions__Group1.html" target="_top" xlink:title=" ">
<polygon fill="white" stroke="#666666" points="377.25,-137.5 243.5,-137.5 243.5,-104 377.25,-104 377.25,-137.5"/>
<text text-anchor="start" x="251.5" y="-124" font-family="Helvetica,sans-Serif" font-size="10.00">IRDA_Exported_Functions</text>
<text text-anchor="middle" x="310.38" y="-111.25" font-family="Helvetica,sans-Serif" font-size="10.00">_Group1</text>
</a>
</g>
</g>
<!-- Node1&#45;&gt;Node3 -->
<g id="edge2" class="edge">
<title>Node1&#45;&gt;Node3</title>
<path fill="none" stroke="black" d="M187.35,-82.92C207.88,-89.29 232.29,-96.85 253.86,-103.54"/>
<polygon fill="black" stroke="black" points="188.42,-79.59 177.83,-79.97 186.34,-86.28 188.42,-79.59"/>
</g>
<!-- Node4 -->
<g id="Node000004" class="node">
<title>Node4</title>
<g id="a_Node000004"><a xlink:href="group__IRDA__Exported__Functions__Group2.html" target="_top" xlink:title=" ">
<polygon fill="white" stroke="#666666" points="377.25,-85.5 243.5,-85.5 243.5,-52 377.25,-52 377.25,-85.5"/>
<text text-anchor="start" x="251.5" y="-72" font-family="Helvetica,sans-Serif" font-size="10.00">IRDA_Exported_Functions</text>
<text text-anchor="middle" x="310.38" y="-59.25" font-family="Helvetica,sans-Serif" font-size="10.00">_Group2</text>
</a>
</g>
</g>
<!-- Node1&#45;&gt;Node4 -->
<g id="edge3" class="edge">
<title>Node1&#45;&gt;Node4</title>
<path fill="none" stroke="black" d="M219.4,-68.75C227.29,-68.75 235.25,-68.75 243.01,-68.75"/>
<polygon fill="black" stroke="black" points="219.44,-65.25 209.44,-68.75 219.44,-72.25 219.44,-65.25"/>
</g>
<!-- Node5 -->
<g id="Node000005" class="node">
<title>Node5</title>
<g id="a_Node000005"><a xlink:href="group__IRDA__Exported__Functions__Group3.html" target="_top" xlink:title=" ">
<polygon fill="white" stroke="#666666" points="377.25,-33.5 243.5,-33.5 243.5,0 377.25,0 377.25,-33.5"/>
<text text-anchor="start" x="251.5" y="-20" font-family="Helvetica,sans-Serif" font-size="10.00">IRDA_Exported_Functions</text>
<text text-anchor="middle" x="310.38" y="-7.25" font-family="Helvetica,sans-Serif" font-size="10.00">_Group3</text>
</a>
</g>
</g>
<!-- Node1&#45;&gt;Node5 -->
<g id="edge4" class="edge">
<title>Node1&#45;&gt;Node5</title>
<path fill="none" stroke="black" d="M187.35,-54.58C207.88,-48.21 232.29,-40.65 253.86,-33.96"/>
<polygon fill="black" stroke="black" points="186.34,-51.22 177.83,-57.53 188.42,-57.91 186.34,-51.22"/>
</g>
</g>
</svg>
