<?xml version="1.0" encoding="UTF-8" standalone="no"?>
<!DOCTYPE svg PUBLIC "-//W3C//DTD SVG 1.1//EN"
 "http://www.w3.org/Graphics/SVG/1.1/DTD/svg11.dtd">
<!-- Generated by graphviz version 12.2.1 (20241206.2353)
 -->
<!-- Title: TIM Pages: 1 -->
<svg width="361pt" height="263pt"
 viewBox="0.00 0.00 361.25 262.75" xmlns="http://www.w3.org/2000/svg" xmlns:xlink="http://www.w3.org/1999/xlink">

<svg id="main" version="1.1" xmlns="http://www.w3.org/2000/svg" xmlns:xlink="http://www.w3.org/1999/xlink" xml:space="preserve">

<style type="text/css"><![CDATA[
.node, .edge {opacity: 0.7;}
.node.selected, .edge.selected {opacity: 1;}
.edge:hover path { stroke: red; }
.edge:hover polygon { stroke: red; fill: red; }
]]></style>
<script type="application/ecmascript" xlink:href="svg.min.js"/>
<svg id="graph" class="graph">
<g id="graph0" class="graph" transform="scale(1 1) rotate(0) translate(4 258.75)">
<title>TIM</title>
<!-- Node2 -->
<g id="Node000002" class="node">
<title>Node2</title>
<g id="a_Node000002"><a xlink:href="group__STM32F4xx__HAL__Driver.html" target="_top" xlink:title=" ">
<polygon fill="white" stroke="#666666" points="122.5,-137.75 0,-137.75 0,-117 122.5,-117 122.5,-137.75"/>
<text text-anchor="middle" x="61.25" y="-124.25" font-family="Helvetica,sans-Serif" font-size="10.00">STM32F4xx_HAL_Driver</text>
</a>
</g>
</g>
<!-- Node1 -->
<g id="Node000001" class="node">
<title>Node1</title>
<g id="a_Node000001"><a xlink:title="TIM HAL module driver.">
<polygon fill="#999999" stroke="#666666" points="191.75,-137.75 158.5,-137.75 158.5,-117 191.75,-117 191.75,-137.75"/>
<text text-anchor="middle" x="175.12" y="-124.25" font-family="Helvetica,sans-Serif" font-size="10.00">TIM</text>
</a>
</g>
</g>
<!-- Node2&#45;&gt;Node1 -->
<g id="edge1" class="edge">
<title>Node2&#45;&gt;Node1</title>
<path fill="none" stroke="black" d="M134.04,-127.38C143.1,-127.38 151.55,-127.38 158.33,-127.38"/>
<polygon fill="black" stroke="black" points="134.29,-123.88 124.29,-127.38 134.29,-130.88 134.29,-123.88"/>
</g>
<!-- Node4 -->
<g id="Node000004" class="node">
<title>Node4</title>
<g id="a_Node000004"><a xlink:href="group__TIM__Exported__Constants.html" target="_top" xlink:title=" ">
<polygon fill="white" stroke="#666666" points="353.25,-254.75 227.75,-254.75 227.75,-234 353.25,-234 353.25,-254.75"/>
<text text-anchor="middle" x="290.5" y="-241.25" font-family="Helvetica,sans-Serif" font-size="10.00">TIM Exported Constants</text>
</a>
</g>
</g>
<!-- Node1&#45;&gt;Node4 -->
<g id="edge3" class="edge">
<title>Node1&#45;&gt;Node4</title>
<path fill="none" stroke="black" d="M182.31,-148.98C189.68,-170.95 204.06,-204.53 227.75,-224.38 232.15,-228.07 237.26,-231.08 242.6,-233.54"/>
<polygon fill="black" stroke="black" points="185.7,-148.07 179.38,-139.57 179.01,-150.15 185.7,-148.07"/>
</g>
<!-- Node9 -->
<g id="Node000009" class="node">
<title>Node9</title>
<g id="a_Node000009"><a xlink:href="group__TIM__Exported__Functions.html" target="_top" xlink:title=" ">
<polygon fill="white" stroke="#666666" points="352.12,-215.75 228.88,-215.75 228.88,-195 352.12,-195 352.12,-215.75"/>
<text text-anchor="middle" x="290.5" y="-202.25" font-family="Helvetica,sans-Serif" font-size="10.00">TIM Exported Functions</text>
</a>
</g>
</g>
<!-- Node1&#45;&gt;Node9 -->
<g id="edge8" class="edge">
<title>Node1&#45;&gt;Node9</title>
<path fill="none" stroke="black" d="M189.46,-147.13C198.84,-159.68 212.43,-175.37 227.75,-185.38 233.32,-189.01 239.6,-192.03 245.97,-194.53"/>
<polygon fill="black" stroke="black" points="192.42,-145.25 183.76,-139.15 186.72,-149.32 192.42,-145.25"/>
</g>
<!-- Node5 -->
<g id="Node000005" class="node">
<title>Node5</title>
<g id="a_Node000005"><a xlink:href="group__TIM__Exported__Macros.html" target="_top" xlink:title=" ">
<polygon fill="white" stroke="#666666" points="346.12,-176.75 234.88,-176.75 234.88,-156 346.12,-156 346.12,-176.75"/>
<text text-anchor="middle" x="290.5" y="-163.25" font-family="Helvetica,sans-Serif" font-size="10.00">TIM Exported Macros</text>
</a>
</g>
</g>
<!-- Node1&#45;&gt;Node5 -->
<g id="edge4" class="edge">
<title>Node1&#45;&gt;Node5</title>
<path fill="none" stroke="black" d="M202.56,-137.33C210.62,-140.31 219.53,-143.53 227.75,-146.38 236.59,-149.43 246.19,-152.61 255.12,-155.51"/>
<polygon fill="black" stroke="black" points="203.89,-134.09 193.3,-133.89 201.45,-140.65 203.89,-134.09"/>
</g>
<!-- Node3 -->
<g id="Node000003" class="node">
<title>Node3</title>
<g id="a_Node000003"><a xlink:href="group__TIM__Exported__Types.html" target="_top" xlink:title=" ">
<polygon fill="white" stroke="#666666" points="343.12,-137.75 237.88,-137.75 237.88,-117 343.12,-117 343.12,-137.75"/>
<text text-anchor="middle" x="290.5" y="-124.25" font-family="Helvetica,sans-Serif" font-size="10.00">TIM Exported Types</text>
</a>
</g>
</g>
<!-- Node1&#45;&gt;Node3 -->
<g id="edge2" class="edge">
<title>Node1&#45;&gt;Node3</title>
<path fill="none" stroke="black" d="M203.39,-127.38C213.66,-127.38 225.7,-127.38 237.48,-127.38"/>
<polygon fill="black" stroke="black" points="203.4,-123.88 193.4,-127.38 203.4,-130.88 203.4,-123.88"/>
</g>
<!-- Node6 -->
<g id="Node000006" class="node">
<title>Node6</title>
<g id="a_Node000006"><a xlink:href="group__TIM__Private__Constants.html" target="_top" xlink:title=" ">
<polygon fill="white" stroke="#666666" points="348,-98.75 233,-98.75 233,-78 348,-78 348,-98.75"/>
<text text-anchor="middle" x="290.5" y="-85.25" font-family="Helvetica,sans-Serif" font-size="10.00">TIM Private Constants</text>
</a>
</g>
</g>
<!-- Node1&#45;&gt;Node6 -->
<g id="edge5" class="edge">
<title>Node1&#45;&gt;Node6</title>
<path fill="none" stroke="black" d="M202.56,-117.42C210.62,-114.44 219.53,-111.22 227.75,-108.38 236.59,-105.32 246.19,-102.14 255.12,-99.24"/>
<polygon fill="black" stroke="black" points="201.45,-114.1 193.3,-120.86 203.89,-120.66 201.45,-114.1"/>
</g>
<!-- Node8 -->
<g id="Node000008" class="node">
<title>Node8</title>
<g id="a_Node000008"><a xlink:href="group__TIM__Private__Functions.html" target="_top" xlink:title=" ">
<polygon fill="white" stroke="#666666" points="346.88,-59.75 234.12,-59.75 234.12,-39 346.88,-39 346.88,-59.75"/>
<text text-anchor="middle" x="290.5" y="-46.25" font-family="Helvetica,sans-Serif" font-size="10.00">TIM Private Functions</text>
</a>
</g>
</g>
<!-- Node1&#45;&gt;Node8 -->
<g id="edge7" class="edge">
<title>Node1&#45;&gt;Node8</title>
<path fill="none" stroke="black" d="M189.46,-107.62C198.84,-95.07 212.43,-79.38 227.75,-69.38 233.32,-65.74 239.6,-62.72 245.97,-60.22"/>
<polygon fill="black" stroke="black" points="186.72,-105.43 183.76,-115.6 192.42,-109.5 186.72,-105.43"/>
</g>
<!-- Node7 -->
<g id="Node000007" class="node">
<title>Node7</title>
<g id="a_Node000007"><a xlink:href="group__TIM__Private__Macros.html" target="_top" xlink:title=" ">
<polygon fill="white" stroke="#666666" points="340.88,-20.75 240.12,-20.75 240.12,0 340.88,0 340.88,-20.75"/>
<text text-anchor="middle" x="290.5" y="-7.25" font-family="Helvetica,sans-Serif" font-size="10.00">TIM Private Macros</text>
</a>
</g>
</g>
<!-- Node1&#45;&gt;Node7 -->
<g id="edge6" class="edge">
<title>Node1&#45;&gt;Node7</title>
<path fill="none" stroke="black" d="M182.31,-105.77C189.68,-83.8 204.06,-50.22 227.75,-30.38 232.15,-26.68 237.26,-23.67 242.6,-21.21"/>
<polygon fill="black" stroke="black" points="179.01,-104.6 179.38,-115.18 185.7,-106.68 179.01,-104.6"/>
</g>
</g>
</svg>
</svg>

<style type='text/css'>
<![CDATA[
[data-mouse-over-selected='false'] { opacity: 0.7; }
[data-mouse-over-selected='true']  { opacity: 1.0; }
]]>
</style>
<script type="application/ecmascript"><![CDATA[
document.addEventListener('DOMContentLoaded', (event) => {
  highlightEdges();
  highlightAdjacentNodes();
});
]]></script>
</svg>
