<?xml version="1.0" encoding="UTF-8" standalone="no"?>
<!DOCTYPE svg PUBLIC "-//W3C//DTD SVG 1.1//EN"
 "http://www.w3.org/Graphics/SVG/1.1/DTD/svg11.dtd">
<!-- Generated by graphviz version 2.43.0 (0)
 -->
<!-- Title: USART Pages: 1 -->
<svg width="414pt" height="249pt"
 viewBox="0.00 0.00 414.00 249.00" xmlns="http://www.w3.org/2000/svg" xmlns:xlink="http://www.w3.org/1999/xlink">
<g id="graph0" class="graph" transform="scale(1 1) rotate(0) translate(4 245)">
<title>USART</title>
<!-- Node2 -->
<g id="Node000002" class="node">
<title>Node2</title>
<g id="a_Node000002"><a xlink:href="group__STM32F4xx__HAL__Driver.html" target="_top" xlink:title=" ">
<polygon fill="white" stroke="#666666" points="134,-130 0,-130 0,-111 134,-111 134,-130"/>
<text text-anchor="middle" x="67" y="-118" font-family="Helvetica,sans-Serif" font-size="10.00">STM32F4xx_HAL_Driver</text>
</a>
</g>
</g>
<!-- Node1 -->
<g id="Node000001" class="node">
<title>Node1</title>
<g id="a_Node000001"><a xlink:title="HAL USART Synchronous module driver.">
<polygon fill="#999999" stroke="#666666" points="220,-130 170,-130 170,-111 220,-111 220,-130"/>
<text text-anchor="middle" x="195" y="-118" font-family="Helvetica,sans-Serif" font-size="10.00">USART</text>
</a>
</g>
</g>
<!-- Node2&#45;&gt;Node1 -->
<g id="edge1" class="edge">
<title>Node2&#45;&gt;Node1</title>
<path fill="none" stroke="black" d="M144.35,-120.5C153.49,-120.5 162.24,-120.5 169.78,-120.5"/>
<polygon fill="black" stroke="black" points="144.32,-117 134.32,-120.5 144.32,-124 144.32,-117"/>
</g>
<!-- Node4 -->
<g id="Node000004" class="node">
<title>Node4</title>
<g id="a_Node000004"><a xlink:href="group__USART__Exported__Constants.html" target="_top" xlink:title=" ">
<polygon fill="white" stroke="#666666" points="405,-241 257,-241 257,-222 405,-222 405,-241"/>
<text text-anchor="middle" x="331" y="-229" font-family="Helvetica,sans-Serif" font-size="10.00">USART Exported Constants</text>
</a>
</g>
</g>
<!-- Node1&#45;&gt;Node4 -->
<g id="edge3" class="edge">
<title>Node1&#45;&gt;Node4</title>
<path fill="none" stroke="black" d="M203.14,-139.44C212.16,-160.76 229.76,-194.84 256,-213.5 260.74,-216.87 266.04,-219.62 271.56,-221.85"/>
<polygon fill="black" stroke="black" points="206.37,-138.1 199.4,-130.13 199.88,-140.71 206.37,-138.1"/>
</g>
<!-- Node8 -->
<g id="Node000008" class="node">
<title>Node8</title>
<g id="a_Node000008"><a xlink:href="group__USART__Exported__Functions.html" target="_top" xlink:title=" ">
<polygon fill="white" stroke="#666666" points="406,-204 256,-204 256,-185 406,-185 406,-204"/>
<text text-anchor="middle" x="331" y="-192" font-family="Helvetica,sans-Serif" font-size="10.00">USART_Exported_Functions</text>
</a>
</g>
</g>
<!-- Node1&#45;&gt;Node8 -->
<g id="edge7" class="edge">
<title>Node1&#45;&gt;Node8</title>
<path fill="none" stroke="black" d="M210.33,-138.02C221.51,-150.55 238.1,-166.84 256,-176.5 262.28,-179.89 269.21,-182.65 276.23,-184.9"/>
<polygon fill="black" stroke="black" points="212.98,-135.73 203.81,-130.43 207.68,-140.3 212.98,-135.73"/>
</g>
<!-- Node5 -->
<g id="Node000005" class="node">
<title>Node5</title>
<g id="a_Node000005"><a xlink:href="group__USART__Exported__Macros.html" target="_top" xlink:title=" ">
<polygon fill="white" stroke="#666666" points="398,-167 264,-167 264,-148 398,-148 398,-167"/>
<text text-anchor="middle" x="331" y="-155" font-family="Helvetica,sans-Serif" font-size="10.00">USART Exported Macros</text>
</a>
</g>
</g>
<!-- Node1&#45;&gt;Node5 -->
<g id="edge4" class="edge">
<title>Node1&#45;&gt;Node5</title>
<path fill="none" stroke="black" d="M229.76,-131.63C238.29,-134.32 247.45,-137.11 256,-139.5 266.57,-142.46 278.06,-145.39 288.77,-148"/>
<polygon fill="black" stroke="black" points="230.71,-128.26 220.12,-128.55 228.58,-134.93 230.71,-128.26"/>
</g>
<!-- Node3 -->
<g id="Node000003" class="node">
<title>Node3</title>
<g id="a_Node000003"><a xlink:href="group__USART__Exported__Types.html" target="_top" xlink:title=" ">
<polygon fill="white" stroke="#666666" points="394.5,-130 267.5,-130 267.5,-111 394.5,-111 394.5,-130"/>
<text text-anchor="middle" x="331" y="-118" font-family="Helvetica,sans-Serif" font-size="10.00">USART Exported Types</text>
</a>
</g>
</g>
<!-- Node1&#45;&gt;Node3 -->
<g id="edge2" class="edge">
<title>Node1&#45;&gt;Node3</title>
<path fill="none" stroke="black" d="M230.53,-120.5C241.81,-120.5 254.71,-120.5 267.4,-120.5"/>
<polygon fill="black" stroke="black" points="230.27,-117 220.27,-120.5 230.27,-124 230.27,-117"/>
</g>
<!-- Node6 -->
<g id="Node000006" class="node">
<title>Node6</title>
<g id="a_Node000006"><a xlink:href="group__USART__Private__Constants.html" target="_top" xlink:title=" ">
<polygon fill="white" stroke="#666666" points="400.5,-93 261.5,-93 261.5,-74 400.5,-74 400.5,-93"/>
<text text-anchor="middle" x="331" y="-81" font-family="Helvetica,sans-Serif" font-size="10.00">USART Private Constants</text>
</a>
</g>
</g>
<!-- Node1&#45;&gt;Node6 -->
<g id="edge5" class="edge">
<title>Node1&#45;&gt;Node6</title>
<path fill="none" stroke="black" d="M229.81,-110.1C238.34,-107.55 247.49,-104.87 256,-102.5 267.5,-99.3 280.06,-96 291.51,-93.07"/>
<polygon fill="black" stroke="black" points="228.73,-106.77 220.17,-113.01 230.75,-113.47 228.73,-106.77"/>
</g>
<!-- Node9 -->
<g id="Node000009" class="node">
<title>Node9</title>
<g id="a_Node000009"><a xlink:href="group__USART__Private__Functions.html" target="_top" xlink:title=" ">
<polygon fill="white" stroke="#666666" points="401.5,-56 260.5,-56 260.5,-37 401.5,-37 401.5,-56"/>
<text text-anchor="middle" x="331" y="-44" font-family="Helvetica,sans-Serif" font-size="10.00">USART_Private_Functions</text>
</a>
</g>
</g>
<!-- Node1&#45;&gt;Node9 -->
<g id="edge8" class="edge">
<title>Node1&#45;&gt;Node9</title>
<path fill="none" stroke="black" d="M210.75,-103.02C221.97,-90.8 238.44,-75.02 256,-65.5 263.11,-61.64 271.04,-58.55 278.98,-56.07"/>
<polygon fill="black" stroke="black" points="207.88,-100.98 203.87,-110.79 213.12,-105.62 207.88,-100.98"/>
</g>
<!-- Node7 -->
<g id="Node000007" class="node">
<title>Node7</title>
<g id="a_Node000007"><a xlink:href="group__USART__Private__Macros.html" target="_top" xlink:title=" ">
<polygon fill="white" stroke="#666666" points="393.5,-19 268.5,-19 268.5,0 393.5,0 393.5,-19"/>
<text text-anchor="middle" x="331" y="-7" font-family="Helvetica,sans-Serif" font-size="10.00">USART Private Macros</text>
</a>
</g>
</g>
<!-- Node1&#45;&gt;Node7 -->
<g id="edge6" class="edge">
<title>Node1&#45;&gt;Node7</title>
<path fill="none" stroke="black" d="M203.5,-101.21C212.69,-80.14 230.28,-46.94 256,-28.5 261.39,-24.64 267.5,-21.56 273.84,-19.1"/>
<polygon fill="black" stroke="black" points="200.16,-100.14 199.56,-110.72 206.62,-102.82 200.16,-100.14"/>
</g>
</g>
</svg>
