<?xml version="1.0" encoding="UTF-8" standalone="no"?>
<!DOCTYPE svg PUBLIC "-//W3C//DTD SVG 1.1//EN"
 "http://www.w3.org/Graphics/SVG/1.1/DTD/svg11.dtd">
<!-- Generated by graphviz version 2.43.0 (0)
 -->
<!-- Title: FLASHEx_Exported_Functions Pages: 1 -->
<svg width="463pt" height="38pt"
 viewBox="0.00 0.00 463.00 38.00" xmlns="http://www.w3.org/2000/svg" xmlns:xlink="http://www.w3.org/1999/xlink">
<g id="graph0" class="graph" transform="scale(1 1) rotate(0) translate(4 34)">
<title>FLASHEx_Exported_Functions</title>
<!-- Node2 -->
<g id="Node000002" class="node">
<title>Node2</title>
<g id="a_Node000002"><a xlink:href="group__FLASHEx.html" target="_top" xlink:title="FLASH HAL Extension module driver.">
<polygon fill="white" stroke="#666666" points="61,-24.5 0,-24.5 0,-5.5 61,-5.5 61,-24.5"/>
<text text-anchor="middle" x="30.5" y="-12.5" font-family="Helvetica,sans-Serif" font-size="10.00">FLASHEx</text>
</a>
</g>
</g>
<!-- Node1 -->
<g id="Node000001" class="node">
<title>Node1</title>
<g id="a_Node000001"><a xlink:title=" ">
<polygon fill="#999999" stroke="#666666" points="258,-24.5 97,-24.5 97,-5.5 258,-5.5 258,-24.5"/>
<text text-anchor="middle" x="177.5" y="-12.5" font-family="Helvetica,sans-Serif" font-size="10.00">FLASHEx_Exported_Functions</text>
</a>
</g>
</g>
<!-- Node2&#45;&gt;Node1 -->
<g id="edge1" class="edge">
<title>Node2&#45;&gt;Node1</title>
<path fill="none" stroke="black" d="M71.29,-15C79.3,-15 87.98,-15 96.81,-15"/>
<polygon fill="black" stroke="black" points="71.19,-11.5 61.19,-15 71.19,-18.5 71.19,-11.5"/>
</g>
<!-- Node3 -->
<g id="Node000003" class="node">
<title>Node3</title>
<g id="a_Node000003"><a xlink:href="group__FLASHEx__Exported__Functions__Group1.html" target="_top" xlink:title=" ">
<polygon fill="white" stroke="#666666" points="455,-30 294,-30 294,0 455,0 455,-30"/>
<text text-anchor="start" x="302" y="-18" font-family="Helvetica,sans-Serif" font-size="10.00">FLASHEx_Exported_Functions</text>
<text text-anchor="middle" x="374.5" y="-7" font-family="Helvetica,sans-Serif" font-size="10.00">_Group1</text>
</a>
</g>
</g>
<!-- Node1&#45;&gt;Node3 -->
<g id="edge2" class="edge">
<title>Node1&#45;&gt;Node3</title>
<path fill="none" stroke="black" d="M268.12,-15C276.7,-15 285.36,-15 293.84,-15"/>
<polygon fill="black" stroke="black" points="268.1,-11.5 258.1,-15 268.1,-18.5 268.1,-11.5"/>
</g>
</g>
</svg>
