<?xml version="1.0" encoding="UTF-8" standalone="no"?>
<!DOCTYPE svg PUBLIC "-//W3C//DTD SVG 1.1//EN"
 "http://www.w3.org/Graphics/SVG/1.1/DTD/svg11.dtd">
<!-- Generated by graphviz version 12.2.1 (20241206.2353)
 -->
<!-- Title: WWDG Exported Constants Pages: 1 -->
<svg width="456pt" height="146pt"
 viewBox="0.00 0.00 455.75 145.75" xmlns="http://www.w3.org/2000/svg" xmlns:xlink="http://www.w3.org/1999/xlink">
<g id="graph0" class="graph" transform="scale(1 1) rotate(0) translate(4 141.75)">
<title>WWDG Exported Constants</title>
<!-- Node2 -->
<g id="Node000002" class="node">
<title>Node2</title>
<g id="a_Node000002"><a xlink:href="group__WWDG.html" target="_top" xlink:title=" ">
<polygon fill="white" stroke="#666666" points="49.75,-78.75 0,-78.75 0,-58 49.75,-58 49.75,-78.75"/>
<text text-anchor="middle" x="24.88" y="-65.25" font-family="Helvetica,sans-Serif" font-size="10.00">WWDG</text>
</a>
</g>
</g>
<!-- Node1 -->
<g id="Node000001" class="node">
<title>Node1</title>
<g id="a_Node000001"><a xlink:title=" ">
<polygon fill="#999999" stroke="#666666" points="227.75,-78.75 85.75,-78.75 85.75,-58 227.75,-58 227.75,-78.75"/>
<text text-anchor="middle" x="156.75" y="-65.25" font-family="Helvetica,sans-Serif" font-size="10.00">WWDG Exported Constants</text>
</a>
</g>
</g>
<!-- Node2&#45;&gt;Node1 -->
<g id="edge1" class="edge">
<title>Node2&#45;&gt;Node1</title>
<path fill="none" stroke="black" d="M61.5,-68.38C68.99,-68.38 77.13,-68.38 85.38,-68.38"/>
<polygon fill="black" stroke="black" points="61.51,-64.88 51.51,-68.38 61.51,-71.88 61.51,-64.88"/>
</g>
<!-- Node6 -->
<g id="Node000006" class="node">
<title>Node6</title>
<g id="a_Node000006"><a xlink:href="group__WWDG__EWI__Mode.html" target="_top" xlink:title=" ">
<polygon fill="white" stroke="#666666" points="447.75,-137.75 263.75,-137.75 263.75,-117 447.75,-117 447.75,-137.75"/>
<text text-anchor="middle" x="355.75" y="-124.25" font-family="Helvetica,sans-Serif" font-size="10.00">WWDG Early Wakeup Interrupt Mode</text>
</a>
</g>
</g>
<!-- Node1&#45;&gt;Node6 -->
<g id="edge5" class="edge">
<title>Node1&#45;&gt;Node6</title>
<path fill="none" stroke="black" d="M194.6,-83.34C214.8,-91.18 240.41,-100.55 263.75,-107.38 275.24,-110.73 287.69,-113.82 299.59,-116.52"/>
<polygon fill="black" stroke="black" points="195.98,-80.12 185.4,-79.72 193.42,-86.64 195.98,-80.12"/>
</g>
<!-- Node4 -->
<g id="Node000004" class="node">
<title>Node4</title>
<g id="a_Node000004"><a xlink:href="group__WWDG__Flag__definition.html" target="_top" xlink:title="WWDG Flag definition.">
<polygon fill="white" stroke="#666666" points="414.75,-98.75 296.75,-98.75 296.75,-78 414.75,-78 414.75,-98.75"/>
<text text-anchor="middle" x="355.75" y="-85.25" font-family="Helvetica,sans-Serif" font-size="10.00">WWDG Flag definition</text>
</a>
</g>
</g>
<!-- Node1&#45;&gt;Node4 -->
<g id="edge3" class="edge">
<title>Node1&#45;&gt;Node4</title>
<path fill="none" stroke="black" d="M239.23,-76.65C258.45,-78.6 278.56,-80.64 296.51,-82.46"/>
<polygon fill="black" stroke="black" points="239.85,-73.19 229.54,-75.66 239.14,-80.16 239.85,-73.19"/>
</g>
<!-- Node3 -->
<g id="Node000003" class="node">
<title>Node3</title>
<g id="a_Node000003"><a xlink:href="group__WWDG__Interrupt__definition.html" target="_top" xlink:title=" ">
<polygon fill="white" stroke="#666666" points="424.88,-59.75 286.62,-59.75 286.62,-39 424.88,-39 424.88,-59.75"/>
<text text-anchor="middle" x="355.75" y="-46.25" font-family="Helvetica,sans-Serif" font-size="10.00">WWDG Interrupt definition</text>
</a>
</g>
</g>
<!-- Node1&#45;&gt;Node3 -->
<g id="edge2" class="edge">
<title>Node1&#45;&gt;Node3</title>
<path fill="none" stroke="black" d="M239.26,-60.51C254.84,-59.01 271.01,-57.45 286.14,-55.99"/>
<polygon fill="black" stroke="black" points="239.16,-57.01 229.54,-61.45 239.83,-63.97 239.16,-57.01"/>
</g>
<!-- Node5 -->
<g id="Node000005" class="node">
<title>Node5</title>
<g id="a_Node000005"><a xlink:href="group__WWDG__Prescaler.html" target="_top" xlink:title=" ">
<polygon fill="white" stroke="#666666" points="402.38,-20.75 309.12,-20.75 309.12,0 402.38,0 402.38,-20.75"/>
<text text-anchor="middle" x="355.75" y="-7.25" font-family="Helvetica,sans-Serif" font-size="10.00">WWDG Prescaler</text>
</a>
</g>
</g>
<!-- Node1&#45;&gt;Node5 -->
<g id="edge4" class="edge">
<title>Node1&#45;&gt;Node5</title>
<path fill="none" stroke="black" d="M195.47,-53.53C215.54,-45.96 240.77,-36.99 263.75,-30.38 278.21,-26.21 294.17,-22.44 308.64,-19.31"/>
<polygon fill="black" stroke="black" points="194.4,-50.19 186.3,-57.02 196.89,-56.73 194.4,-50.19"/>
</g>
</g>
</svg>
