<?xml version="1.0" encoding="UTF-8" standalone="no"?>
<!DOCTYPE svg PUBLIC "-//W3C//DTD SVG 1.1//EN"
 "http://www.w3.org/Graphics/SVG/1.1/DTD/svg11.dtd">
<!-- Generated by graphviz version 12.2.1 (20241206.2353)
 -->
<!-- Title: PWREx Private Constants Pages: 1 -->
<svg width="382pt" height="94pt"
 viewBox="0.00 0.00 382.25 93.50" xmlns="http://www.w3.org/2000/svg" xmlns:xlink="http://www.w3.org/1999/xlink">
<g id="page0,1_graph0" class="graph" transform="scale(1 1) rotate(0) translate(4 89.5)">
<title>PWREx Private Constants</title>
<!-- Node2 -->
<g id="Node000002" class="node">
<title>Node2</title>
<g id="a_Node000002"><a xlink:href="group__PWREx.html" target="_top" xlink:title="PWR HAL module driver.">
<polygon fill="white" stroke="#666666" points="48.25,-53.12 0,-53.12 0,-32.38 48.25,-32.38 48.25,-53.12"/>
<text text-anchor="middle" x="24.12" y="-39.62" font-family="Helvetica,sans-Serif" font-size="10.00">PWREx</text>
</a>
</g>
</g>
<!-- Node1 -->
<g id="Node000001" class="node">
<title>Node1</title>
<g id="a_Node000001"><a xlink:title=" ">
<polygon fill="#999999" stroke="#666666" points="214.25,-53.12 84.25,-53.12 84.25,-32.38 214.25,-32.38 214.25,-53.12"/>
<text text-anchor="middle" x="149.25" y="-39.62" font-family="Helvetica,sans-Serif" font-size="10.00">PWREx Private Constants</text>
</a>
</g>
</g>
<!-- Node2&#45;&gt;Node1 -->
<g id="edge1" class="edge">
<title>Node2&#45;&gt;Node1</title>
<path fill="none" stroke="black" d="M60.08,-42.75C67.56,-42.75 75.69,-42.75 83.88,-42.75"/>
<polygon fill="black" stroke="black" points="60.09,-39.25 50.09,-42.75 60.09,-46.25 60.09,-39.25"/>
</g>
<!-- Node4 -->
<g id="Node000004" class="node">
<title>Node4</title>
<g id="a_Node000004"><a xlink:href="group__PWREx__CSR__register__alias.html" target="_top" xlink:title=" ">
<polygon fill="white" stroke="#666666" points="374.25,-85.5 250.25,-85.5 250.25,-52 374.25,-52 374.25,-85.5"/>
<text text-anchor="start" x="258.25" y="-72" font-family="Helvetica,sans-Serif" font-size="10.00">PWRx CSR Register alias</text>
<text text-anchor="middle" x="312.25" y="-59.25" font-family="Helvetica,sans-Serif" font-size="10.00"> address</text>
</a>
</g>
</g>
<!-- Node1&#45;&gt;Node4 -->
<g id="edge3" class="edge">
<title>Node1&#45;&gt;Node4</title>
<path fill="none" stroke="black" d="M225.47,-54.9C233.69,-56.22 241.98,-57.56 250,-58.86"/>
<polygon fill="black" stroke="black" points="226.27,-51.48 215.84,-53.34 225.15,-58.39 226.27,-51.48"/>
</g>
<!-- Node3 -->
<g id="Node000003" class="node">
<title>Node3</title>
<g id="a_Node000003"><a xlink:href="group__PWREx__register__alias__address.html" target="_top" xlink:title=" ">
<polygon fill="white" stroke="#666666" points="367.12,-33.5 257.38,-33.5 257.38,0 367.12,0 367.12,-33.5"/>
<text text-anchor="start" x="265.38" y="-20" font-family="Helvetica,sans-Serif" font-size="10.00">PWREx Register alias</text>
<text text-anchor="middle" x="312.25" y="-7.25" font-family="Helvetica,sans-Serif" font-size="10.00"> address</text>
</a>
</g>
</g>
<!-- Node1&#45;&gt;Node3 -->
<g id="edge2" class="edge">
<title>Node1&#45;&gt;Node3</title>
<path fill="none" stroke="black" d="M225.71,-30.56C236.26,-28.86 246.92,-27.14 256.97,-25.52"/>
<polygon fill="black" stroke="black" points="225.15,-27.11 215.84,-32.16 226.27,-34.02 225.15,-27.11"/>
</g>
</g>
</svg>
