<?xml version="1.0" encoding="UTF-8" standalone="no"?>
<!DOCTYPE svg PUBLIC "-//W3C//DTD SVG 1.1//EN"
 "http://www.w3.org/Graphics/SVG/1.1/DTD/svg11.dtd">
<!-- Generated by graphviz version 12.2.1 (20241206.2353)
 -->
<!-- Title: PWR Private Constants Pages: 1 -->
<svg width="357pt" height="184pt"
 viewBox="0.00 0.00 356.75 183.50" xmlns="http://www.w3.org/2000/svg" xmlns:xlink="http://www.w3.org/1999/xlink">

<svg id="main" version="1.1" xmlns="http://www.w3.org/2000/svg" xmlns:xlink="http://www.w3.org/1999/xlink" xml:space="preserve">

<style type="text/css"><![CDATA[
.node, .edge {opacity: 0.7;}
.node.selected, .edge.selected {opacity: 1;}
.edge:hover path { stroke: red; }
.edge:hover polygon { stroke: red; fill: red; }
]]></style>
<script type="application/ecmascript" xlink:href="svg.min.js"/>
<svg id="graph" class="graph">
<g id="graph0" class="graph" transform="scale(1 1) rotate(0) translate(4 179.5)">
<title>PWR Private Constants</title>
<!-- Node2 -->
<g id="Node000002" class="node">
<title>Node2</title>
<g id="a_Node000002"><a xlink:href="group__PWR.html" target="_top" xlink:title="PWR HAL module driver.">
<polygon fill="white" stroke="#666666" points="37.75,-94.12 0,-94.12 0,-73.38 37.75,-73.38 37.75,-94.12"/>
<text text-anchor="middle" x="18.88" y="-80.62" font-family="Helvetica,sans-Serif" font-size="10.00">PWR</text>
</a>
</g>
</g>
<!-- Node1 -->
<g id="Node000001" class="node">
<title>Node1</title>
<g id="a_Node000001"><a xlink:title=" ">
<polygon fill="#999999" stroke="#666666" points="193.25,-94.12 73.75,-94.12 73.75,-73.38 193.25,-73.38 193.25,-94.12"/>
<text text-anchor="middle" x="133.5" y="-80.62" font-family="Helvetica,sans-Serif" font-size="10.00">PWR Private Constants</text>
</a>
</g>
</g>
<!-- Node2&#45;&gt;Node1 -->
<g id="edge1" class="edge">
<title>Node2&#45;&gt;Node1</title>
<path fill="none" stroke="black" d="M49.56,-83.75C57.05,-83.75 65.36,-83.75 73.74,-83.75"/>
<polygon fill="black" stroke="black" points="49.73,-80.25 39.73,-83.75 49.73,-87.25 49.73,-80.25"/>
</g>
<!-- Node5 -->
<g id="Node000005" class="node">
<title>Node5</title>
<g id="a_Node000005"><a xlink:href="group__PWR__CR__register__alias.html" target="_top" xlink:title=" ">
<polygon fill="white" stroke="#666666" points="346.12,-175.5 231.88,-175.5 231.88,-142 346.12,-142 346.12,-175.5"/>
<text text-anchor="start" x="239.88" y="-162" font-family="Helvetica,sans-Serif" font-size="10.00">PWR CR Register alias</text>
<text text-anchor="middle" x="289" y="-149.25" font-family="Helvetica,sans-Serif" font-size="10.00"> address</text>
</a>
</g>
</g>
<!-- Node6 -->
<g id="Node000006" class="node">
<title>Node6</title>
<g id="a_Node000006"><a xlink:href="group__PWR__CSR__register__alias.html" target="_top" xlink:title=" ">
<polygon fill="white" stroke="#666666" points="348.75,-123.5 229.25,-123.5 229.25,-90 348.75,-90 348.75,-123.5"/>
<text text-anchor="start" x="237.25" y="-110" font-family="Helvetica,sans-Serif" font-size="10.00">PWR CSR Register alias</text>
<text text-anchor="middle" x="289" y="-97.25" font-family="Helvetica,sans-Serif" font-size="10.00"> address</text>
</a>
</g>
</g>
<!-- Node3 -->
<g id="Node000003" class="node">
<title>Node3</title>
<g id="a_Node000003"><a xlink:href="group__PWR__PVD__EXTI__Line.html" target="_top" xlink:title=" ">
<polygon fill="white" stroke="#666666" points="340.5,-72.12 237.5,-72.12 237.5,-51.38 340.5,-51.38 340.5,-72.12"/>
<text text-anchor="middle" x="289" y="-58.62" font-family="Helvetica,sans-Serif" font-size="10.00">PWR PVD EXTI Line</text>
</a>
</g>
</g>
<!-- Node1&#45;&gt;Node5 -->
<g id="edge4" class="edge">
<title>Node1&#45;&gt;Node5</title>
<path fill="none" stroke="black" d="M164.81,-100.02C183.3,-109.79 207.47,-122.31 229.25,-132.75 235.39,-135.69 241.93,-138.71 248.35,-141.59"/>
<polygon fill="black" stroke="black" points="166.46,-96.93 155.99,-95.33 163.18,-103.12 166.46,-96.93"/>
</g>
<!-- Node1&#45;&gt;Node6 -->
<g id="edge5" class="edge">
<title>Node1&#45;&gt;Node6</title>
<path fill="none" stroke="black" d="M204.76,-94.28C212.86,-95.49 221.06,-96.72 229,-97.91"/>
<polygon fill="black" stroke="black" points="205.31,-90.82 194.9,-92.8 204.28,-97.74 205.31,-90.82"/>
</g>
<!-- Node1&#45;&gt;Node3 -->
<g id="edge2" class="edge">
<title>Node1&#45;&gt;Node3</title>
<path fill="none" stroke="black" d="M204.66,-73.69C215.56,-72.13 226.64,-70.54 237.01,-69.06"/>
<polygon fill="black" stroke="black" points="204.31,-70.21 194.91,-75.09 205.3,-77.14 204.31,-70.21"/>
</g>
<!-- Node4 -->
<g id="Node000004" class="node">
<title>Node4</title>
<g id="a_Node000004"><a xlink:href="group__PWR__register__alias__address.html" target="_top" xlink:title=" ">
<polygon fill="white" stroke="#666666" points="338.62,-33.5 239.38,-33.5 239.38,0 338.62,0 338.62,-33.5"/>
<text text-anchor="start" x="247.38" y="-20" font-family="Helvetica,sans-Serif" font-size="10.00">PWR Register alias</text>
<text text-anchor="middle" x="289" y="-7.25" font-family="Helvetica,sans-Serif" font-size="10.00"> address</text>
</a>
</g>
</g>
<!-- Node1&#45;&gt;Node4 -->
<g id="edge3" class="edge">
<title>Node1&#45;&gt;Node4</title>
<path fill="none" stroke="black" d="M169.42,-68.51C193.03,-58.2 224.25,-44.58 248.72,-33.89"/>
<polygon fill="black" stroke="black" points="168.31,-65.17 160.55,-72.38 171.11,-71.59 168.31,-65.17"/>
</g>
</g>
</svg>
</svg>

<style type='text/css'>
<![CDATA[
[data-mouse-over-selected='false'] { opacity: 0.7; }
[data-mouse-over-selected='true']  { opacity: 1.0; }
]]>
</style>
<script type="application/ecmascript"><![CDATA[
document.addEventListener('DOMContentLoaded', (event) => {
  highlightEdges();
  highlightAdjacentNodes();
});
]]></script>
</svg>
