<?xml version="1.0" encoding="UTF-8" standalone="no"?>
<!DOCTYPE svg PUBLIC "-//W3C//DTD SVG 1.1//EN"
 "http://www.w3.org/Graphics/SVG/1.1/DTD/svg11.dtd">
<!-- Generated by graphviz version 2.43.0 (0)
 -->
<!-- Title: CORTEX_Exported_Functions Pages: 1 -->
<svg width="448pt" height="86pt"
 viewBox="0.00 0.00 448.00 86.00" xmlns="http://www.w3.org/2000/svg" xmlns:xlink="http://www.w3.org/1999/xlink">

<svg id="main" version="1.1" xmlns="http://www.w3.org/2000/svg" xmlns:xlink="http://www.w3.org/1999/xlink" xml:space="preserve">

<style type="text/css"><![CDATA[
.node, .edge {opacity: 0.7;}
.node.selected, .edge.selected {opacity: 1;}
.edge:hover path { stroke: red; }
.edge:hover polygon { stroke: red; fill: red; }
]]></style>
<script type="application/ecmascript" xlink:href="svg.min.js"/>
<svg id="graph" class="graph">
<g id="graph0" class="graph" transform="scale(1 1) rotate(0) translate(4 82)">
<title>CORTEX_Exported_Functions</title>
<!-- Node2 -->
<g id="Node000002" class="node">
<title>Node2</title>
<g id="a_Node000002"><a xlink:href="group__CORTEX.html" target="_top" xlink:title="CORTEX HAL module driver.">
<polygon fill="white" stroke="#666666" points="56,-48.5 0,-48.5 0,-29.5 56,-29.5 56,-48.5"/>
<text text-anchor="middle" x="28" y="-36.5" font-family="Helvetica,sans-Serif" font-size="10.00">CORTEX</text>
</a>
</g>
</g>
<!-- Node1 -->
<g id="Node000001" class="node">
<title>Node1</title>
<g id="a_Node000001"><a xlink:title=" ">
<polygon fill="#999999" stroke="#666666" points="248,-48.5 92,-48.5 92,-29.5 248,-29.5 248,-48.5"/>
<text text-anchor="middle" x="170" y="-36.5" font-family="Helvetica,sans-Serif" font-size="10.00">CORTEX_Exported_Functions</text>
</a>
</g>
</g>
<!-- Node2&#45;&gt;Node1 -->
<g id="edge1" class="edge">
<title>Node2&#45;&gt;Node1</title>
<path fill="none" stroke="black" d="M66.37,-39C74.38,-39 83.11,-39 92,-39"/>
<polygon fill="black" stroke="black" points="66.33,-35.5 56.33,-39 66.33,-42.5 66.33,-35.5"/>
</g>
<!-- Node3 -->
<g id="Node000003" class="node">
<title>Node3</title>
<g id="a_Node000003"><a xlink:href="group__CORTEX__Exported__Functions__Group1.html" target="_top" xlink:title=" ">
<polygon fill="white" stroke="#666666" points="440,-78 284,-78 284,-48 440,-48 440,-78"/>
<text text-anchor="start" x="292" y="-66" font-family="Helvetica,sans-Serif" font-size="10.00">CORTEX_Exported_Functions</text>
<text text-anchor="middle" x="362" y="-55" font-family="Helvetica,sans-Serif" font-size="10.00">_Group1</text>
</a>
</g>
</g>
<!-- Node1&#45;&gt;Node3 -->
<g id="edge2" class="edge">
<title>Node1&#45;&gt;Node3</title>
<path fill="none" stroke="black" d="M256.57,-49.81C265.66,-50.96 274.87,-52.12 283.86,-53.26"/>
<polygon fill="black" stroke="black" points="256.73,-46.3 246.37,-48.52 255.85,-53.25 256.73,-46.3"/>
</g>
<!-- Node4 -->
<g id="Node000004" class="node">
<title>Node4</title>
<g id="a_Node000004"><a xlink:href="group__CORTEX__Exported__Functions__Group2.html" target="_top" xlink:title=" ">
<polygon fill="white" stroke="#666666" points="440,-30 284,-30 284,0 440,0 440,-30"/>
<text text-anchor="start" x="292" y="-18" font-family="Helvetica,sans-Serif" font-size="10.00">CORTEX_Exported_Functions</text>
<text text-anchor="middle" x="362" y="-7" font-family="Helvetica,sans-Serif" font-size="10.00">_Group2</text>
</a>
</g>
</g>
<!-- Node1&#45;&gt;Node4 -->
<g id="edge3" class="edge">
<title>Node1&#45;&gt;Node4</title>
<path fill="none" stroke="black" d="M256.57,-28.19C265.66,-27.04 274.87,-25.88 283.86,-24.74"/>
<polygon fill="black" stroke="black" points="255.85,-24.75 246.37,-29.48 256.73,-31.7 255.85,-24.75"/>
</g>
</g>
</svg>
</svg>

<style type='text/css'>
<![CDATA[
[data-mouse-over-selected='false'] { opacity: 0.7; }
[data-mouse-over-selected='true']  { opacity: 1.0; }
]]>
</style>
<script type="application/ecmascript"><![CDATA[
document.addEventListener('DOMContentLoaded', (event) => {
  highlightEdges();
  highlightAdjacentNodes();
});
]]></script>
</svg>
