<?xml version="1.0" encoding="UTF-8" standalone="no"?>
<!DOCTYPE svg PUBLIC "-//W3C//DTD SVG 1.1//EN"
 "http://www.w3.org/Graphics/SVG/1.1/DTD/svg11.dtd">
<!-- Generated by graphviz version 2.43.0 (0)
 -->
<!-- Title: CRYPEx Pages: 1 -->
<svg width="417pt" height="286pt"
 viewBox="0.00 0.00 417.00 286.00" xmlns="http://www.w3.org/2000/svg" xmlns:xlink="http://www.w3.org/1999/xlink">

<svg id="main" version="1.1" xmlns="http://www.w3.org/2000/svg" xmlns:xlink="http://www.w3.org/1999/xlink" xml:space="preserve">

<style type="text/css"><![CDATA[
.node, .edge {opacity: 0.7;}
.node.selected, .edge.selected {opacity: 1;}
.edge:hover path { stroke: red; }
.edge:hover polygon { stroke: red; fill: red; }
]]></style>
<script type="application/ecmascript" xlink:href="svg.min.js"/>
<svg id="graph" class="graph">
<g id="graph0" class="graph" transform="scale(1 1) rotate(0) translate(4 282)">
<title>CRYPEx</title>
<!-- Node1 -->
<g id="Node000001" class="node">
<title>Node1</title>
<g id="a_Node000001"><a xlink:title=" ">
<polygon fill="#999999" stroke="#666666" points="223,-148 170,-148 170,-129 223,-129 223,-148"/>
<text text-anchor="middle" x="196.5" y="-136" font-family="Helvetica,sans-Serif" font-size="10.00">CRYPEx</text>
</a>
</g>
</g>
<!-- Node4 -->
<g id="Node000004" class="node">
<title>Node4</title>
<g id="a_Node000004"><a xlink:href="group__CRYPEx__Exported__Constants.html" target="_top" xlink:title=" ">
<polygon fill="white" stroke="#666666" points="409,-278 259,-278 259,-259 409,-259 409,-278"/>
<text text-anchor="middle" x="334" y="-266" font-family="Helvetica,sans-Serif" font-size="10.00">CRYPEx Exported constants</text>
</a>
</g>
</g>
<!-- Node1&#45;&gt;Node4 -->
<g id="edge3" class="edge">
<title>Node1&#45;&gt;Node4</title>
<path fill="none" stroke="black" d="M202.81,-157.91C210.74,-183.18 228.17,-226.88 259,-250.5 263.41,-253.88 268.36,-256.63 273.56,-258.87"/>
<polygon fill="black" stroke="black" points="206.08,-156.64 199.89,-148.03 199.36,-158.61 206.08,-156.64"/>
</g>
<!-- Node10 -->
<g id="Node000010" class="node">
<title>Node10</title>
<g id="a_Node000010"><a xlink:href="group__CRYPEx__Exported__Functions.html" target="_top" xlink:title=" ">
<polygon fill="white" stroke="#666666" points="408.5,-241 259.5,-241 259.5,-222 408.5,-222 408.5,-241"/>
<text text-anchor="middle" x="334" y="-229" font-family="Helvetica,sans-Serif" font-size="10.00">CRYPEx Exported Functions</text>
</a>
</g>
</g>
<!-- Node1&#45;&gt;Node10 -->
<g id="edge9" class="edge">
<title>Node1&#45;&gt;Node10</title>
<path fill="none" stroke="black" d="M207.78,-156.9C218.38,-174.16 236.51,-199.36 259,-213.5 264.48,-216.95 270.58,-219.74 276.85,-221.99"/>
<polygon fill="black" stroke="black" points="210.78,-155.1 202.69,-148.26 204.75,-158.65 210.78,-155.1"/>
</g>
<!-- Node3 -->
<g id="Node000003" class="node">
<title>Node3</title>
<g id="a_Node000003"><a xlink:href="group__CRYPEx__Exported__Types.html" target="_top" xlink:title=" ">
<polygon fill="white" stroke="#666666" points="399,-204 269,-204 269,-185 399,-185 399,-204"/>
<text text-anchor="middle" x="334" y="-192" font-family="Helvetica,sans-Serif" font-size="10.00">CRYPEx Exported types</text>
</a>
</g>
</g>
<!-- Node1&#45;&gt;Node3 -->
<g id="edge2" class="edge">
<title>Node1&#45;&gt;Node3</title>
<path fill="none" stroke="black" d="M218.94,-154.07C230.36,-161.76 244.93,-170.62 259,-176.5 266.93,-179.82 275.6,-182.61 284.13,-184.93"/>
<polygon fill="black" stroke="black" points="220.73,-151.06 210.52,-148.24 216.74,-156.81 220.73,-151.06"/>
</g>
<!-- Node7 -->
<g id="Node000007" class="node">
<title>Node7</title>
<g id="a_Node000007"><a xlink:href="group__CRYPEx__Private__Constants.html" target="_top" xlink:title=" ">
<polygon fill="white" stroke="#666666" points="405.5,-167 262.5,-167 262.5,-148 405.5,-148 405.5,-167"/>
<text text-anchor="middle" x="334" y="-155" font-family="Helvetica,sans-Serif" font-size="10.00">CRYPEx Private Constants</text>
</a>
</g>
</g>
<!-- Node1&#45;&gt;Node7 -->
<g id="edge6" class="edge">
<title>Node1&#45;&gt;Node7</title>
<path fill="none" stroke="black" d="M233.41,-143.54C243.18,-144.91 254.1,-146.44 265.02,-147.97"/>
<polygon fill="black" stroke="black" points="233.69,-140.04 223.31,-142.12 232.72,-146.97 233.69,-140.04"/>
</g>
<!-- Node9 -->
<g id="Node000009" class="node">
<title>Node9</title>
<g id="a_Node000009"><a xlink:href="group__CRYPEx__Private__Functions.html" target="_top" xlink:title=" ">
<polygon fill="white" stroke="#666666" points="404,-130 264,-130 264,-111 404,-111 404,-130"/>
<text text-anchor="middle" x="334" y="-118" font-family="Helvetica,sans-Serif" font-size="10.00">CRYPEx Private Functions</text>
</a>
</g>
</g>
<!-- Node1&#45;&gt;Node9 -->
<g id="edge8" class="edge">
<title>Node1&#45;&gt;Node9</title>
<path fill="none" stroke="black" d="M233.44,-133.73C242.86,-132.47 253.35,-131.08 263.88,-129.68"/>
<polygon fill="black" stroke="black" points="232.76,-130.29 223.31,-135.07 233.68,-137.22 232.76,-130.29"/>
</g>
<!-- Node8 -->
<g id="Node000008" class="node">
<title>Node8</title>
<g id="a_Node000008"><a xlink:href="group__CRYPEx__Private__Macros.html" target="_top" xlink:title=" ">
<polygon fill="white" stroke="#666666" points="398.5,-93 269.5,-93 269.5,-74 398.5,-74 398.5,-93"/>
<text text-anchor="middle" x="334" y="-81" font-family="Helvetica,sans-Serif" font-size="10.00">CRYPEx Private Macros</text>
</a>
</g>
</g>
<!-- Node1&#45;&gt;Node8 -->
<g id="edge7" class="edge">
<title>Node1&#45;&gt;Node8</title>
<path fill="none" stroke="black" d="M219.44,-123.07C230.81,-115.66 245.18,-107.18 259,-101.5 267.07,-98.18 275.9,-95.38 284.56,-93.04"/>
<polygon fill="black" stroke="black" points="217.39,-120.23 211.03,-128.71 221.28,-126.05 217.39,-120.23"/>
</g>
<!-- Node5 -->
<g id="Node000005" class="node">
<title>Node5</title>
<g id="a_Node000005"><a xlink:href="group__CRYPEx__Private__Types.html" target="_top" xlink:title=" ">
<polygon fill="white" stroke="#666666" points="395,-56 273,-56 273,-37 395,-37 395,-56"/>
<text text-anchor="middle" x="334" y="-44" font-family="Helvetica,sans-Serif" font-size="10.00">CRYPEx Private Types</text>
</a>
</g>
</g>
<!-- Node1&#45;&gt;Node5 -->
<g id="edge4" class="edge">
<title>Node1&#45;&gt;Node5</title>
<path fill="none" stroke="black" d="M208.14,-119.87C218.82,-102.86 236.85,-78.33 259,-64.5 264.5,-61.07 270.6,-58.29 276.88,-56.05"/>
<polygon fill="black" stroke="black" points="204.87,-118.5 202.72,-128.88 210.87,-122.11 204.87,-118.5"/>
</g>
<!-- Node6 -->
<g id="Node000006" class="node">
<title>Node6</title>
<g id="a_Node000006"><a xlink:href="group__CRYPEx__Private__Variables.html" target="_top" xlink:title=" ">
<polygon fill="white" stroke="#666666" points="403.5,-19 264.5,-19 264.5,0 403.5,0 403.5,-19"/>
<text text-anchor="middle" x="334" y="-7" font-family="Helvetica,sans-Serif" font-size="10.00">CRYPEx Private Variables</text>
</a>
</g>
</g>
<!-- Node1&#45;&gt;Node6 -->
<g id="edge5" class="edge">
<title>Node1&#45;&gt;Node6</title>
<path fill="none" stroke="black" d="M202.98,-118.88C211.02,-93.78 228.48,-50.78 259,-27.5 263.41,-24.13 268.37,-21.38 273.58,-19.14"/>
<polygon fill="black" stroke="black" points="199.54,-118.14 200.01,-128.73 206.25,-120.16 199.54,-118.14"/>
</g>
<!-- Node2 -->
<g id="Node000002" class="node">
<title>Node2</title>
<g id="a_Node000002"><a xlink:href="group__STM32F4xx__HAL__Driver.html" target="_top" xlink:title=" ">
<polygon fill="white" stroke="#666666" points="134,-148 0,-148 0,-129 134,-129 134,-148"/>
<text text-anchor="middle" x="67" y="-136" font-family="Helvetica,sans-Serif" font-size="10.00">STM32F4xx_HAL_Driver</text>
</a>
</g>
</g>
<!-- Node2&#45;&gt;Node1 -->
<g id="edge1" class="edge">
<title>Node2&#45;&gt;Node1</title>
<path fill="none" stroke="black" d="M144.62,-138.5C153.6,-138.5 162.23,-138.5 169.75,-138.5"/>
<polygon fill="black" stroke="black" points="144.36,-135 134.36,-138.5 144.36,-142 144.36,-135"/>
</g>
</g>
</svg>
</svg>

<style type='text/css'>
<![CDATA[
[data-mouse-over-selected='false'] { opacity: 0.7; }
[data-mouse-over-selected='true']  { opacity: 1.0; }
]]>
</style>
<script type="application/ecmascript"><![CDATA[
document.addEventListener('DOMContentLoaded', (event) => {
  highlightEdges();
  highlightAdjacentNodes();
});
]]></script>
</svg>
