<?xml version="1.0" encoding="UTF-8" standalone="no"?>
<!DOCTYPE svg PUBLIC "-//W3C//DTD SVG 1.1//EN"
 "http://www.w3.org/Graphics/SVG/1.1/DTD/svg11.dtd">
<!-- Generated by graphviz version 12.2.1 (20241206.2353)
 -->
<!-- Title: RCC Pages: 1 -->
<svg width="370pt" height="224pt"
 viewBox="0.00 0.00 369.50 223.75" xmlns="http://www.w3.org/2000/svg" xmlns:xlink="http://www.w3.org/1999/xlink">

<svg id="main" version="1.1" xmlns="http://www.w3.org/2000/svg" xmlns:xlink="http://www.w3.org/1999/xlink" xml:space="preserve">

<style type="text/css"><![CDATA[
.node, .edge {opacity: 0.7;}
.node.selected, .edge.selected {opacity: 1;}
.edge:hover path { stroke: red; }
.edge:hover polygon { stroke: red; fill: red; }
]]></style>
<script type="application/ecmascript" xlink:href="svg.min.js"/>
<svg id="graph" class="graph">
<g id="graph0" class="graph" transform="scale(1 1) rotate(0) translate(4 219.75)">
<title>RCC</title>
<!-- Node1 -->
<g id="Node000001" class="node">
<title>Node1</title>
<g id="a_Node000001"><a xlink:title="RCC HAL module driver.">
<polygon fill="#999999" stroke="#666666" points="194,-117.75 158.5,-117.75 158.5,-97 194,-97 194,-117.75"/>
<text text-anchor="middle" x="176.25" y="-104.25" font-family="Helvetica,sans-Serif" font-size="10.00">RCC</text>
</a>
</g>
</g>
<!-- Node4 -->
<g id="Node000004" class="node">
<title>Node4</title>
<g id="a_Node000004"><a xlink:href="group__RCC__Exported__Constants.html" target="_top" xlink:title=" ">
<polygon fill="white" stroke="#666666" points="359.62,-215.75 231.88,-215.75 231.88,-195 359.62,-195 359.62,-215.75"/>
<text text-anchor="middle" x="295.75" y="-202.25" font-family="Helvetica,sans-Serif" font-size="10.00">RCC Exported Constants</text>
</a>
</g>
</g>
<!-- Node1&#45;&gt;Node4 -->
<g id="edge3" class="edge">
<title>Node1&#45;&gt;Node4</title>
<path fill="none" stroke="black" d="M186.47,-128.33C195.25,-145.97 210.08,-170.61 230,-185.38 235.01,-189.09 240.72,-192.12 246.63,-194.6"/>
<polygon fill="black" stroke="black" points="189.76,-127.09 182.33,-119.53 183.42,-130.07 189.76,-127.09"/>
</g>
<!-- Node8 -->
<g id="Node000008" class="node">
<title>Node8</title>
<g id="a_Node000008"><a xlink:href="group__RCC__Exported__Functions.html" target="_top" xlink:title=" ">
<polygon fill="white" stroke="#666666" points="361.5,-176.75 230,-176.75 230,-156 361.5,-156 361.5,-176.75"/>
<text text-anchor="middle" x="295.75" y="-163.25" font-family="Helvetica,sans-Serif" font-size="10.00">RCC_Exported_Functions</text>
</a>
</g>
</g>
<!-- Node1&#45;&gt;Node8 -->
<g id="edge7" class="edge">
<title>Node1&#45;&gt;Node8</title>
<path fill="none" stroke="black" d="M197.91,-125.18C207.23,-132.53 218.68,-140.65 230,-146.38 237.03,-149.93 244.82,-153 252.49,-155.58"/>
<polygon fill="black" stroke="black" points="200.18,-122.52 190.22,-118.89 195.74,-127.93 200.18,-122.52"/>
</g>
<!-- Node5 -->
<g id="Node000005" class="node">
<title>Node5</title>
<g id="a_Node000005"><a xlink:href="group__RCC__Exported__Macros.html" target="_top" xlink:title=" ">
<polygon fill="white" stroke="#666666" points="352.5,-137.75 239,-137.75 239,-117 352.5,-117 352.5,-137.75"/>
<text text-anchor="middle" x="295.75" y="-124.25" font-family="Helvetica,sans-Serif" font-size="10.00">RCC Exported Macros</text>
</a>
</g>
</g>
<!-- Node1&#45;&gt;Node5 -->
<g id="edge4" class="edge">
<title>Node1&#45;&gt;Node5</title>
<path fill="none" stroke="black" d="M205.58,-112.2C215.56,-113.9 227.14,-115.87 238.6,-117.82"/>
<polygon fill="black" stroke="black" points="206.27,-108.76 195.83,-110.54 205.1,-115.67 206.27,-108.76"/>
</g>
<!-- Node3 -->
<g id="Node000003" class="node">
<title>Node3</title>
<g id="a_Node000003"><a xlink:href="group__RCC__Exported__Types.html" target="_top" xlink:title=" ">
<polygon fill="white" stroke="#666666" points="349.5,-98.75 242,-98.75 242,-78 349.5,-78 349.5,-98.75"/>
<text text-anchor="middle" x="295.75" y="-85.25" font-family="Helvetica,sans-Serif" font-size="10.00">RCC Exported Types</text>
</a>
</g>
</g>
<!-- Node1&#45;&gt;Node3 -->
<g id="edge2" class="edge">
<title>Node1&#45;&gt;Node3</title>
<path fill="none" stroke="black" d="M205.67,-102.78C216.54,-101.02 229.31,-98.96 241.73,-96.95"/>
<polygon fill="black" stroke="black" points="205.14,-99.32 195.83,-104.37 206.26,-106.23 205.14,-99.32"/>
</g>
<!-- Node6 -->
<g id="Node000006" class="node">
<title>Node6</title>
<g id="a_Node000006"><a xlink:href="group__RCC__Private__Constants.html" target="_top" xlink:title=" ">
<polygon fill="white" stroke="#666666" points="354.38,-59.75 237.12,-59.75 237.12,-39 354.38,-39 354.38,-59.75"/>
<text text-anchor="middle" x="295.75" y="-46.25" font-family="Helvetica,sans-Serif" font-size="10.00">RCC Private Constants</text>
</a>
</g>
</g>
<!-- Node1&#45;&gt;Node6 -->
<g id="edge5" class="edge">
<title>Node1&#45;&gt;Node6</title>
<path fill="none" stroke="black" d="M198.35,-89.76C207.62,-82.68 218.9,-74.9 230,-69.38 237.06,-65.86 244.85,-62.82 252.52,-60.24"/>
<polygon fill="black" stroke="black" points="196.36,-86.87 190.7,-95.83 200.71,-92.36 196.36,-86.87"/>
</g>
<!-- Node7 -->
<g id="Node000007" class="node">
<title>Node7</title>
<g id="a_Node000007"><a xlink:href="group__RCC__Private__Macros.html" target="_top" xlink:title=" ">
<polygon fill="white" stroke="#666666" points="347.25,-20.75 244.25,-20.75 244.25,0 347.25,0 347.25,-20.75"/>
<text text-anchor="middle" x="295.75" y="-7.25" font-family="Helvetica,sans-Serif" font-size="10.00">RCC Private Macros</text>
</a>
</g>
</g>
<!-- Node1&#45;&gt;Node7 -->
<g id="edge6" class="edge">
<title>Node1&#45;&gt;Node7</title>
<path fill="none" stroke="black" d="M186.66,-86.44C195.5,-69.05 210.31,-44.88 230,-30.38 235.02,-26.68 240.74,-23.65 246.65,-21.18"/>
<polygon fill="black" stroke="black" points="183.55,-84.83 182.38,-95.36 189.86,-87.86 183.55,-84.83"/>
</g>
<!-- Node2 -->
<g id="Node000002" class="node">
<title>Node2</title>
<g id="a_Node000002"><a xlink:href="group__STM32F4xx__HAL__Driver.html" target="_top" xlink:title=" ">
<polygon fill="white" stroke="#666666" points="122.5,-117.75 0,-117.75 0,-97 122.5,-97 122.5,-117.75"/>
<text text-anchor="middle" x="61.25" y="-104.25" font-family="Helvetica,sans-Serif" font-size="10.00">STM32F4xx_HAL_Driver</text>
</a>
</g>
</g>
<!-- Node2&#45;&gt;Node1 -->
<g id="edge1" class="edge">
<title>Node2&#45;&gt;Node1</title>
<path fill="none" stroke="black" d="M134.16,-107.38C143.02,-107.38 151.34,-107.38 158.13,-107.38"/>
<polygon fill="black" stroke="black" points="134.23,-103.88 124.23,-107.38 134.23,-110.88 134.23,-103.88"/>
</g>
</g>
</svg>
</svg>

<style type='text/css'>
<![CDATA[
[data-mouse-over-selected='false'] { opacity: 0.7; }
[data-mouse-over-selected='true']  { opacity: 1.0; }
]]>
</style>
<script type="application/ecmascript"><![CDATA[
document.addEventListener('DOMContentLoaded', (event) => {
  highlightEdges();
  highlightAdjacentNodes();
});
]]></script>
</svg>
