<?xml version="1.0" encoding="UTF-8" standalone="no"?>
<!DOCTYPE svg PUBLIC "-//W3C//DTD SVG 1.1//EN"
 "http://www.w3.org/Graphics/SVG/1.1/DTD/svg11.dtd">
<!-- Generated by graphviz version 12.2.1 (20241206.2353)
 -->
<!-- Title: CORTEX_Exported_Functions Pages: 1 -->
<svg width="435pt" height="94pt"
 viewBox="0.00 0.00 434.75 93.50" xmlns="http://www.w3.org/2000/svg" xmlns:xlink="http://www.w3.org/1999/xlink">

<svg id="main" version="1.1" xmlns="http://www.w3.org/2000/svg" xmlns:xlink="http://www.w3.org/1999/xlink" xml:space="preserve">

<style type="text/css"><![CDATA[
.node, .edge {opacity: 0.7;}
.node.selected, .edge.selected {opacity: 1;}
.edge:hover path { stroke: red; }
.edge:hover polygon { stroke: red; fill: red; }
]]></style>
<script type="application/ecmascript" xlink:href="svg.min.js"/>
<svg id="graph" class="graph">
<g id="graph0" class="graph" transform="scale(1 1) rotate(0) translate(4 89.5)">
<title>CORTEX_Exported_Functions</title>
<!-- Node2 -->
<g id="Node000002" class="node">
<title>Node2</title>
<g id="a_Node000002"><a xlink:href="group__CORTEX.html" target="_top" xlink:title="CORTEX HAL module driver.">
<polygon fill="white" stroke="#666666" points="54.25,-53.12 0,-53.12 0,-32.38 54.25,-32.38 54.25,-53.12"/>
<text text-anchor="middle" x="27.12" y="-39.62" font-family="Helvetica,sans-Serif" font-size="10.00">CORTEX</text>
</a>
</g>
</g>
<!-- Node1 -->
<g id="Node000001" class="node">
<title>Node1</title>
<g id="a_Node000001"><a xlink:title=" ">
<polygon fill="#999999" stroke="#666666" points="240.5,-53.12 90.25,-53.12 90.25,-32.38 240.5,-32.38 240.5,-53.12"/>
<text text-anchor="middle" x="165.38" y="-39.62" font-family="Helvetica,sans-Serif" font-size="10.00">CORTEX_Exported_Functions</text>
</a>
</g>
</g>
<!-- Node2&#45;&gt;Node1 -->
<g id="edge1" class="edge">
<title>Node2&#45;&gt;Node1</title>
<path fill="none" stroke="black" d="M66,-42.75C73.54,-42.75 81.71,-42.75 90,-42.75"/>
<polygon fill="black" stroke="black" points="66.23,-39.25 56.23,-42.75 66.23,-46.25 66.23,-39.25"/>
</g>
<!-- Node3 -->
<g id="Node000003" class="node">
<title>Node3</title>
<g id="a_Node000003"><a xlink:href="group__CORTEX__Exported__Functions__Group1.html" target="_top" xlink:title=" ">
<polygon fill="white" stroke="#666666" points="426.75,-85.5 276.5,-85.5 276.5,-52 426.75,-52 426.75,-85.5"/>
<text text-anchor="start" x="284.5" y="-72" font-family="Helvetica,sans-Serif" font-size="10.00">CORTEX_Exported_Functions</text>
<text text-anchor="middle" x="351.62" y="-59.25" font-family="Helvetica,sans-Serif" font-size="10.00">_Group1</text>
</a>
</g>
</g>
<!-- Node1&#45;&gt;Node3 -->
<g id="edge2" class="edge">
<title>Node1&#45;&gt;Node3</title>
<path fill="none" stroke="black" d="M252.11,-54.85C260.17,-55.99 268.29,-57.13 276.24,-58.25"/>
<polygon fill="black" stroke="black" points="252.68,-51.39 242.28,-53.46 251.7,-58.32 252.68,-51.39"/>
</g>
<!-- Node4 -->
<g id="Node000004" class="node">
<title>Node4</title>
<g id="a_Node000004"><a xlink:href="group__CORTEX__Exported__Functions__Group2.html" target="_top" xlink:title=" ">
<polygon fill="white" stroke="#666666" points="426.75,-33.5 276.5,-33.5 276.5,0 426.75,0 426.75,-33.5"/>
<text text-anchor="start" x="284.5" y="-20" font-family="Helvetica,sans-Serif" font-size="10.00">CORTEX_Exported_Functions</text>
<text text-anchor="middle" x="351.62" y="-7.25" font-family="Helvetica,sans-Serif" font-size="10.00">_Group2</text>
</a>
</g>
</g>
<!-- Node1&#45;&gt;Node4 -->
<g id="edge3" class="edge">
<title>Node1&#45;&gt;Node4</title>
<path fill="none" stroke="black" d="M252.11,-30.65C260.17,-29.51 268.29,-28.37 276.24,-27.25"/>
<polygon fill="black" stroke="black" points="251.7,-27.18 242.28,-32.04 252.68,-34.11 251.7,-27.18"/>
</g>
</g>
</svg>
</svg>

<style type='text/css'>
<![CDATA[
[data-mouse-over-selected='false'] { opacity: 0.7; }
[data-mouse-over-selected='true']  { opacity: 1.0; }
]]>
</style>
<script type="application/ecmascript"><![CDATA[
document.addEventListener('DOMContentLoaded', (event) => {
  highlightEdges();
  highlightAdjacentNodes();
});
]]></script>
</svg>
