<?xml version="1.0" encoding="UTF-8" standalone="no"?>
<!DOCTYPE svg PUBLIC "-//W3C//DTD SVG 1.1//EN"
 "http://www.w3.org/Graphics/SVG/1.1/DTD/svg11.dtd">
<!-- Generated by graphviz version 2.43.0 (0)
 -->
<!-- Title: ADC Exported Constants Pages: 1 -->
<svg width="392pt" height="592pt"
 viewBox="0.00 0.00 392.00 592.00" xmlns="http://www.w3.org/2000/svg" xmlns:xlink="http://www.w3.org/1999/xlink">
<g id="graph0" class="graph" transform="scale(1 1) rotate(0) translate(4 588)">
<title>ADC Exported Constants</title>
<!-- Node2 -->
<g id="Node000002" class="node">
<title>Node2</title>
<g id="a_Node000002"><a xlink:href="group__ADC.html" target="_top" xlink:title="ADC driver modules.">
<polygon fill="white" stroke="#666666" points="38,-302 0,-302 0,-283 38,-283 38,-302"/>
<text text-anchor="middle" x="19" y="-290" font-family="Helvetica,sans-Serif" font-size="10.00">ADC</text>
</a>
</g>
</g>
<!-- Node1 -->
<g id="Node000001" class="node">
<title>Node1</title>
<g id="a_Node000001"><a xlink:title=" ">
<polygon fill="#999999" stroke="#666666" points="210,-302 74,-302 74,-283 210,-283 210,-302"/>
<text text-anchor="middle" x="142" y="-290" font-family="Helvetica,sans-Serif" font-size="10.00">ADC Exported Constants</text>
</a>
</g>
</g>
<!-- Node2&#45;&gt;Node1 -->
<g id="edge1" class="edge">
<title>Node2&#45;&gt;Node1</title>
<path fill="none" stroke="black" d="M48.12,-292.5C55.99,-292.5 64.89,-292.5 74,-292.5"/>
<polygon fill="black" stroke="black" points="48.11,-289 38.11,-292.5 48.11,-296 48.11,-289"/>
</g>
<!-- Node4 -->
<g id="Node000004" class="node">
<title>Node4</title>
<g id="a_Node000004"><a xlink:href="group__ADC__ClockPrescaler.html" target="_top" xlink:title=" ">
<polygon fill="white" stroke="#666666" points="373,-584 257,-584 257,-565 373,-565 373,-584"/>
<text text-anchor="middle" x="315" y="-572" font-family="Helvetica,sans-Serif" font-size="10.00">ADC Clock Prescaler</text>
</a>
</g>
</g>
<!-- Node9 -->
<g id="Node000009" class="node">
<title>Node9</title>
<g id="a_Node000009"><a xlink:href="group__ADC__Data__align.html" target="_top" xlink:title=" ">
<polygon fill="white" stroke="#666666" points="361,-547 269,-547 269,-528 361,-528 361,-547"/>
<text text-anchor="middle" x="315" y="-535" font-family="Helvetica,sans-Serif" font-size="10.00">ADC Data Align</text>
</a>
</g>
</g>
<!-- Node12 -->
<g id="Node000012" class="node">
<title>Node12</title>
<g id="a_Node000012"><a xlink:href="group__ADC__EOCSelection.html" target="_top" xlink:title=" ">
<polygon fill="white" stroke="#666666" points="369.5,-510 260.5,-510 260.5,-491 369.5,-491 369.5,-510"/>
<text text-anchor="middle" x="315" y="-498" font-family="Helvetica,sans-Serif" font-size="10.00">ADC EOC Selection</text>
</a>
</g>
</g>
<!-- Node3 -->
<g id="Node000003" class="node">
<title>Node3</title>
<g id="a_Node000003"><a xlink:href="group__ADC__Error__Code.html" target="_top" xlink:title=" ">
<polygon fill="white" stroke="#666666" points="361,-473 269,-473 269,-454 361,-454 361,-473"/>
<text text-anchor="middle" x="315" y="-461" font-family="Helvetica,sans-Serif" font-size="10.00">ADC Error Code</text>
</a>
</g>
</g>
<!-- Node13 -->
<g id="Node000013" class="node">
<title>Node13</title>
<g id="a_Node000013"><a xlink:href="group__ADC__Event__type.html" target="_top" xlink:title=" ">
<polygon fill="white" stroke="#666666" points="362,-436 268,-436 268,-417 362,-417 362,-436"/>
<text text-anchor="middle" x="315" y="-424" font-family="Helvetica,sans-Serif" font-size="10.00">ADC Event Type</text>
</a>
</g>
</g>
<!-- Node1&#45;&gt;Node4 -->
<g id="edge3" class="edge">
<title>Node1&#45;&gt;Node4</title>
<path fill="none" stroke="black" d="M144.74,-312.38C150.15,-361.53 171.08,-489.62 246,-556.5 249.83,-559.92 254.23,-562.7 258.91,-564.96"/>
<polygon fill="black" stroke="black" points="148.2,-311.76 143.72,-302.15 141.23,-312.45 148.2,-311.76"/>
</g>
<!-- Node1&#45;&gt;Node9 -->
<g id="edge8" class="edge">
<title>Node1&#45;&gt;Node9</title>
<path fill="none" stroke="black" d="M146.19,-312.56C154.31,-356.91 180.03,-463.73 246,-519.5 252.53,-525.02 260.57,-528.87 268.81,-531.54"/>
<polygon fill="black" stroke="black" points="149.6,-311.74 144.45,-302.48 142.7,-312.93 149.6,-311.74"/>
</g>
<!-- Node1&#45;&gt;Node12 -->
<g id="edge11" class="edge">
<title>Node1&#45;&gt;Node12</title>
<path fill="none" stroke="black" d="M148,-312.15C158.9,-350.91 188.55,-437.32 246,-482.5 250.32,-485.9 255.22,-488.66 260.37,-490.9"/>
<polygon fill="black" stroke="black" points="151.29,-310.9 145.31,-302.16 144.53,-312.72 151.29,-310.9"/>
</g>
<!-- Node1&#45;&gt;Node3 -->
<g id="edge2" class="edge">
<title>Node1&#45;&gt;Node3</title>
<path fill="none" stroke="black" d="M150.43,-311.46C164.19,-344.03 196.8,-410.48 246,-445.5 252.77,-450.32 260.74,-453.84 268.79,-456.43"/>
<polygon fill="black" stroke="black" points="153.65,-310.09 146.63,-302.15 147.17,-312.73 153.65,-310.09"/>
</g>
<!-- Node1&#45;&gt;Node13 -->
<g id="edge12" class="edge">
<title>Node1&#45;&gt;Node13</title>
<path fill="none" stroke="black" d="M154.51,-310.91C171.43,-336.43 205.44,-382.27 246,-407.5 252.66,-411.64 260.24,-414.9 267.87,-417.46"/>
<polygon fill="black" stroke="black" points="157.25,-308.7 148.89,-302.2 151.37,-312.5 157.25,-308.7"/>
</g>
<!-- Node8 -->
<g id="Node000008" class="node">
<title>Node8</title>
<g id="a_Node000008"><a xlink:href="group__ADC__External__trigger__Source__Regular.html" target="_top" xlink:title=" ">
<polygon fill="white" stroke="#666666" points="373.5,-398.5 256.5,-398.5 256.5,-368.5 373.5,-368.5 373.5,-398.5"/>
<text text-anchor="start" x="264.5" y="-386.5" font-family="Helvetica,sans-Serif" font-size="10.00">ADC External Trigger</text>
<text text-anchor="middle" x="315" y="-375.5" font-family="Helvetica,sans-Serif" font-size="10.00"> Source Regular</text>
</a>
</g>
</g>
<!-- Node1&#45;&gt;Node8 -->
<g id="edge7" class="edge">
<title>Node1&#45;&gt;Node8</title>
<path fill="none" stroke="black" d="M163.9,-308.22C184.11,-322.9 216,-344.71 246,-359.5 252.51,-362.71 259.56,-365.7 266.58,-368.4"/>
<polygon fill="black" stroke="black" points="165.87,-305.33 155.74,-302.22 161.72,-310.96 165.87,-305.33"/>
</g>
<!-- Node7 -->
<g id="Node000007" class="node">
<title>Node7</title>
<g id="a_Node000007"><a xlink:href="group__ADC__External__trigger__edge__Regular.html" target="_top" xlink:title=" ">
<polygon fill="white" stroke="#666666" points="373.5,-350.5 256.5,-350.5 256.5,-320.5 373.5,-320.5 373.5,-350.5"/>
<text text-anchor="start" x="264.5" y="-338.5" font-family="Helvetica,sans-Serif" font-size="10.00">ADC External Trigger</text>
<text text-anchor="middle" x="315" y="-327.5" font-family="Helvetica,sans-Serif" font-size="10.00"> Edge Regular</text>
</a>
</g>
</g>
<!-- Node1&#45;&gt;Node7 -->
<g id="edge6" class="edge">
<title>Node1&#45;&gt;Node7</title>
<path fill="none" stroke="black" d="M190.91,-304.55C211.22,-309.65 235.06,-315.65 256.32,-321"/>
<polygon fill="black" stroke="black" points="191.5,-301.09 180.95,-302.04 189.79,-307.88 191.5,-301.09"/>
</g>
<!-- Node6 -->
<g id="Node000006" class="node">
<title>Node6</title>
<g id="a_Node000006"><a xlink:href="group__ADC__Resolution.html" target="_top" xlink:title=" ">
<polygon fill="white" stroke="#666666" points="361,-302 269,-302 269,-283 361,-283 361,-302"/>
<text text-anchor="middle" x="315" y="-290" font-family="Helvetica,sans-Serif" font-size="10.00">ADC Resolution</text>
</a>
</g>
</g>
<!-- Node1&#45;&gt;Node6 -->
<g id="edge5" class="edge">
<title>Node1&#45;&gt;Node6</title>
<path fill="none" stroke="black" d="M220.37,-292.5C237,-292.5 254.05,-292.5 268.96,-292.5"/>
<polygon fill="black" stroke="black" points="220.09,-289 210.09,-292.5 220.09,-296 220.09,-289"/>
</g>
<!-- Node14 -->
<g id="Node000014" class="node">
<title>Node14</title>
<g id="a_Node000014"><a xlink:href="group__ADC__analog__watchdog__selection.html" target="_top" xlink:title=" ">
<polygon fill="white" stroke="#666666" points="377.5,-264.5 252.5,-264.5 252.5,-234.5 377.5,-234.5 377.5,-264.5"/>
<text text-anchor="start" x="260.5" y="-252.5" font-family="Helvetica,sans-Serif" font-size="10.00">ADC Analog Watchdog</text>
<text text-anchor="middle" x="315" y="-241.5" font-family="Helvetica,sans-Serif" font-size="10.00"> Selection</text>
</a>
</g>
</g>
<!-- Node1&#45;&gt;Node14 -->
<g id="edge13" class="edge">
<title>Node1&#45;&gt;Node14</title>
<path fill="none" stroke="black" d="M190.91,-280.45C210.58,-275.51 233.57,-269.72 254.32,-264.51"/>
<polygon fill="black" stroke="black" points="189.79,-277.12 180.95,-282.96 191.5,-283.91 189.79,-277.12"/>
</g>
<!-- Node10 -->
<g id="Node000010" class="node">
<title>Node10</title>
<g id="a_Node000010"><a xlink:href="group__ADC__channels.html" target="_top" xlink:title=" ">
<polygon fill="white" stroke="#666666" points="381.5,-216 248.5,-216 248.5,-197 381.5,-197 381.5,-216"/>
<text text-anchor="middle" x="315" y="-204" font-family="Helvetica,sans-Serif" font-size="10.00">ADC Common Channels</text>
</a>
</g>
</g>
<!-- Node1&#45;&gt;Node10 -->
<g id="edge9" class="edge">
<title>Node1&#45;&gt;Node10</title>
<path fill="none" stroke="black" d="M163.02,-276.82C183.03,-261.8 215.18,-239.43 246,-225.5 254.15,-221.81 263.19,-218.68 271.93,-216.1"/>
<polygon fill="black" stroke="black" points="160.81,-274.1 154.98,-282.95 165.05,-279.67 160.81,-274.1"/>
</g>
<!-- Node17 -->
<g id="Node000017" class="node">
<title>Node17</title>
<g id="a_Node000017"><a xlink:href="group__ADC__channels__type.html" target="_top" xlink:title=" ">
<polygon fill="white" stroke="#666666" points="370.5,-179 259.5,-179 259.5,-160 370.5,-160 370.5,-179"/>
<text text-anchor="middle" x="315" y="-167" font-family="Helvetica,sans-Serif" font-size="10.00">ADC Channels Type</text>
</a>
</g>
</g>
<!-- Node1&#45;&gt;Node17 -->
<g id="edge16" class="edge">
<title>Node1&#45;&gt;Node17</title>
<path fill="none" stroke="black" d="M155.96,-274.54C173.69,-251.26 207.7,-211.01 246,-188.5 252.55,-184.65 259.92,-181.55 267.32,-179.06"/>
<polygon fill="black" stroke="black" points="152.95,-272.72 149.79,-282.83 158.56,-276.9 152.95,-272.72"/>
</g>
<!-- Node5 -->
<g id="Node000005" class="node">
<title>Node5</title>
<g id="a_Node000005"><a xlink:href="group__ADC__delay__between__2__sampling__phases.html" target="_top" xlink:title=" ">
<polygon fill="white" stroke="#666666" points="377,-141.5 253,-141.5 253,-111.5 377,-111.5 377,-141.5"/>
<text text-anchor="start" x="261" y="-129.5" font-family="Helvetica,sans-Serif" font-size="10.00">ADC Delay Between 2</text>
<text text-anchor="middle" x="315" y="-118.5" font-family="Helvetica,sans-Serif" font-size="10.00"> Sampling Phases</text>
</a>
</g>
</g>
<!-- Node1&#45;&gt;Node5 -->
<g id="edge4" class="edge">
<title>Node1&#45;&gt;Node5</title>
<path fill="none" stroke="black" d="M152.02,-273.81C167.34,-243.91 201.2,-185.28 246,-151.5 251.02,-147.71 256.68,-144.45 262.52,-141.66"/>
<polygon fill="black" stroke="black" points="148.88,-272.26 147.55,-282.77 155.15,-275.39 148.88,-272.26"/>
</g>
<!-- Node16 -->
<g id="Node000016" class="node">
<title>Node16</title>
<g id="a_Node000016"><a xlink:href="group__ADC__flags__definition.html" target="_top" xlink:title=" ">
<polygon fill="white" stroke="#666666" points="373.5,-93 256.5,-93 256.5,-74 373.5,-74 373.5,-93"/>
<text text-anchor="middle" x="315" y="-81" font-family="Helvetica,sans-Serif" font-size="10.00">ADC Flags Definition</text>
</a>
</g>
</g>
<!-- Node1&#45;&gt;Node16 -->
<g id="edge15" class="edge">
<title>Node1&#45;&gt;Node16</title>
<path fill="none" stroke="black" d="M148.05,-272.91C159.05,-234.28 188.86,-148.07 246,-102.5 250.89,-98.6 256.53,-95.5 262.42,-93.04"/>
<polygon fill="black" stroke="black" points="144.59,-272.31 145.34,-282.88 151.34,-274.15 144.59,-272.31"/>
</g>
<!-- Node15 -->
<g id="Node000015" class="node">
<title>Node15</title>
<g id="a_Node000015"><a xlink:href="group__ADC__interrupts__definition.html" target="_top" xlink:title=" ">
<polygon fill="white" stroke="#666666" points="384,-56 246,-56 246,-37 384,-37 384,-56"/>
<text text-anchor="middle" x="315" y="-44" font-family="Helvetica,sans-Serif" font-size="10.00">ADC Interrupts Definition</text>
</a>
</g>
</g>
<!-- Node1&#45;&gt;Node15 -->
<g id="edge14" class="edge">
<title>Node1&#45;&gt;Node15</title>
<path fill="none" stroke="black" d="M146.24,-272.5C154.48,-228.29 180.41,-121.72 246,-65.5 250.56,-61.59 255.87,-58.48 261.46,-56.01"/>
<polygon fill="black" stroke="black" points="142.76,-272.1 144.48,-282.56 149.65,-273.31 142.76,-272.1"/>
</g>
<!-- Node11 -->
<g id="Node000011" class="node">
<title>Node11</title>
<g id="a_Node000011"><a xlink:href="group__ADC__sampling__times.html" target="_top" xlink:title=" ">
<polygon fill="white" stroke="#666666" points="374.5,-19 255.5,-19 255.5,0 374.5,0 374.5,-19"/>
<text text-anchor="middle" x="315" y="-7" font-family="Helvetica,sans-Serif" font-size="10.00">ADC Sampling Times</text>
</a>
</g>
</g>
<!-- Node1&#45;&gt;Node11 -->
<g id="edge10" class="edge">
<title>Node1&#45;&gt;Node11</title>
<path fill="none" stroke="black" d="M144.8,-272.68C150.34,-223.67 171.54,-95.89 246,-28.5 250.27,-24.63 255.27,-21.55 260.58,-19.08"/>
<polygon fill="black" stroke="black" points="141.29,-272.57 143.75,-282.88 148.26,-273.29 141.29,-272.57"/>
</g>
</g>
</svg>
