<?xml version="1.0" encoding="UTF-8" standalone="no"?>
<!DOCTYPE svg PUBLIC "-//W3C//DTD SVG 1.1//EN"
 "http://www.w3.org/Graphics/SVG/1.1/DTD/svg11.dtd">
<!-- Generated by graphviz version 12.2.1 (20241206.2353)
 -->
<!-- Title: RTCEx Pages: 1 -->
<svg width="385pt" height="224pt"
 viewBox="0.00 0.00 385.25 223.75" xmlns="http://www.w3.org/2000/svg" xmlns:xlink="http://www.w3.org/1999/xlink">

<svg id="main" version="1.1" xmlns="http://www.w3.org/2000/svg" xmlns:xlink="http://www.w3.org/1999/xlink" xml:space="preserve">

<style type="text/css"><![CDATA[
.node, .edge {opacity: 0.7;}
.node.selected, .edge.selected {opacity: 1;}
.edge:hover path { stroke: red; }
.edge:hover polygon { stroke: red; fill: red; }
]]></style>
<script type="application/ecmascript" xlink:href="svg.min.js"/>
<svg id="graph" class="graph">
<g id="graph0" class="graph" transform="scale(1 1) rotate(0) translate(4 219.75)">
<title>RTCEx</title>
<!-- Node1 -->
<g id="Node000001" class="node">
<title>Node1</title>
<g id="a_Node000001"><a xlink:title="RTC Extended HAL module driver.">
<polygon fill="#999999" stroke="#666666" points="203.75,-117.75 158.5,-117.75 158.5,-97 203.75,-97 203.75,-117.75"/>
<text text-anchor="middle" x="181.12" y="-104.25" font-family="Helvetica,sans-Serif" font-size="10.00">RTCEx</text>
</a>
</g>
</g>
<!-- Node4 -->
<g id="Node000004" class="node">
<title>Node4</title>
<g id="a_Node000004"><a xlink:href="group__RTCEx__Exported__Constants.html" target="_top" xlink:title=" ">
<polygon fill="white" stroke="#666666" points="377.25,-215.75 239.75,-215.75 239.75,-195 377.25,-195 377.25,-215.75"/>
<text text-anchor="middle" x="308.5" y="-202.25" font-family="Helvetica,sans-Serif" font-size="10.00">RTCEx Exported Constants</text>
</a>
</g>
</g>
<!-- Node1&#45;&gt;Node4 -->
<g id="edge3" class="edge">
<title>Node1&#45;&gt;Node4</title>
<path fill="none" stroke="black" d="M192.48,-128.14C202.32,-145.83 218.73,-170.66 239.75,-185.38 245.07,-189.1 251.1,-192.14 257.3,-194.62"/>
<polygon fill="black" stroke="black" points="195.69,-126.74 187.92,-119.54 189.51,-130.01 195.69,-126.74"/>
</g>
<!-- Node6 -->
<g id="Node000006" class="node">
<title>Node6</title>
<g id="a_Node000006"><a xlink:href="group__RTCEx__Exported__Functions.html" target="_top" xlink:title=" ">
<polygon fill="white" stroke="#666666" points="376.12,-176.75 240.88,-176.75 240.88,-156 376.12,-156 376.12,-176.75"/>
<text text-anchor="middle" x="308.5" y="-163.25" font-family="Helvetica,sans-Serif" font-size="10.00">RTCEx Exported Functions</text>
</a>
</g>
</g>
<!-- Node1&#45;&gt;Node6 -->
<g id="edge5" class="edge">
<title>Node1&#45;&gt;Node6</title>
<path fill="none" stroke="black" d="M204.24,-124.7C214.58,-132.17 227.33,-140.51 239.75,-146.38 247.18,-149.88 255.36,-152.92 263.39,-155.5"/>
<polygon fill="black" stroke="black" points="206.47,-122 196.37,-118.82 202.29,-127.61 206.47,-122"/>
</g>
<!-- Node5 -->
<g id="Node000005" class="node">
<title>Node5</title>
<g id="a_Node000005"><a xlink:href="group__RTCEx__Exported__Macros.html" target="_top" xlink:title=" ">
<polygon fill="white" stroke="#666666" points="370.12,-137.75 246.88,-137.75 246.88,-117 370.12,-117 370.12,-137.75"/>
<text text-anchor="middle" x="308.5" y="-124.25" font-family="Helvetica,sans-Serif" font-size="10.00">RTCEx Exported Macros</text>
</a>
</g>
</g>
<!-- Node1&#45;&gt;Node5 -->
<g id="edge4" class="edge">
<title>Node1&#45;&gt;Node5</title>
<path fill="none" stroke="black" d="M215.09,-112.63C224.79,-114.18 235.73,-115.93 246.59,-117.66"/>
<polygon fill="black" stroke="black" points="215.88,-109.22 205.46,-111.1 214.78,-116.13 215.88,-109.22"/>
</g>
<!-- Node3 -->
<g id="Node000003" class="node">
<title>Node3</title>
<g id="a_Node000003"><a xlink:href="group__RTCEx__Exported__Types.html" target="_top" xlink:title=" ">
<polygon fill="white" stroke="#666666" points="367.12,-98.75 249.88,-98.75 249.88,-78 367.12,-78 367.12,-98.75"/>
<text text-anchor="middle" x="308.5" y="-85.25" font-family="Helvetica,sans-Serif" font-size="10.00">RTCEx Exported Types</text>
</a>
</g>
</g>
<!-- Node1&#45;&gt;Node3 -->
<g id="edge2" class="edge">
<title>Node1&#45;&gt;Node3</title>
<path fill="none" stroke="black" d="M215.18,-102.37C225.74,-100.77 237.76,-98.94 249.55,-97.16"/>
<polygon fill="black" stroke="black" points="214.82,-98.88 205.46,-103.84 215.87,-105.8 214.82,-98.88"/>
</g>
<!-- Node7 -->
<g id="Node000007" class="node">
<title>Node7</title>
<g id="a_Node000007"><a xlink:href="group__RTCEx__Private__Constants.html" target="_top" xlink:title=" ">
<polygon fill="white" stroke="#666666" points="372,-59.75 245,-59.75 245,-39 372,-39 372,-59.75"/>
<text text-anchor="middle" x="308.5" y="-46.25" font-family="Helvetica,sans-Serif" font-size="10.00">RTCEx Private Constants</text>
</a>
</g>
</g>
<!-- Node1&#45;&gt;Node7 -->
<g id="edge6" class="edge">
<title>Node1&#45;&gt;Node7</title>
<path fill="none" stroke="black" d="M204.72,-90.23C214.99,-83.03 227.56,-75.04 239.75,-69.38 247.31,-65.86 255.64,-62.8 263.79,-60.21"/>
<polygon fill="black" stroke="black" points="202.93,-87.2 196.88,-95.9 207.03,-92.87 202.93,-87.2"/>
</g>
<!-- Node8 -->
<g id="Node000008" class="node">
<title>Node8</title>
<g id="a_Node000008"><a xlink:href="group__RTCEx__Private__Macros.html" target="_top" xlink:title=" ">
<polygon fill="white" stroke="#666666" points="364.88,-20.75 252.12,-20.75 252.12,0 364.88,0 364.88,-20.75"/>
<text text-anchor="middle" x="308.5" y="-7.25" font-family="Helvetica,sans-Serif" font-size="10.00">RTCEx Private Macros</text>
</a>
</g>
</g>
<!-- Node1&#45;&gt;Node8 -->
<g id="edge7" class="edge">
<title>Node1&#45;&gt;Node8</title>
<path fill="none" stroke="black" d="M192.54,-86.88C202.42,-69.42 218.86,-44.9 239.75,-30.38 245.09,-26.66 251.12,-23.63 257.33,-21.16"/>
<polygon fill="black" stroke="black" points="189.63,-84.9 187.97,-95.36 195.79,-88.22 189.63,-84.9"/>
</g>
<!-- Node2 -->
<g id="Node000002" class="node">
<title>Node2</title>
<g id="a_Node000002"><a xlink:href="group__STM32F4xx__HAL__Driver.html" target="_top" xlink:title=" ">
<polygon fill="white" stroke="#666666" points="122.5,-117.75 0,-117.75 0,-97 122.5,-97 122.5,-117.75"/>
<text text-anchor="middle" x="61.25" y="-104.25" font-family="Helvetica,sans-Serif" font-size="10.00">STM32F4xx_HAL_Driver</text>
</a>
</g>
</g>
<!-- Node2&#45;&gt;Node1 -->
<g id="edge1" class="edge">
<title>Node2&#45;&gt;Node1</title>
<path fill="none" stroke="black" d="M134.37,-107.38C142.96,-107.38 151.16,-107.38 158.18,-107.38"/>
<polygon fill="black" stroke="black" points="134.43,-103.88 124.43,-107.38 134.43,-110.88 134.43,-103.88"/>
</g>
</g>
</svg>
</svg>

<style type='text/css'>
<![CDATA[
[data-mouse-over-selected='false'] { opacity: 0.7; }
[data-mouse-over-selected='true']  { opacity: 1.0; }
]]>
</style>
<script type="application/ecmascript"><![CDATA[
document.addEventListener('DOMContentLoaded', (event) => {
  highlightEdges();
  highlightAdjacentNodes();
});
]]></script>
</svg>
