<?xml version="1.0" encoding="UTF-8" standalone="no"?>
<!DOCTYPE svg PUBLIC "-//W3C//DTD SVG 1.1//EN"
 "http://www.w3.org/Graphics/SVG/1.1/DTD/svg11.dtd">
<!-- Generated by graphviz version 2.43.0 (0)
 -->
<!-- Title: SMARTCARD Exported constants Pages: 1 -->
<svg width="430pt" height="495pt"
 viewBox="0.00 0.00 430.00 494.50" xmlns="http://www.w3.org/2000/svg" xmlns:xlink="http://www.w3.org/1999/xlink">
<g id="graph0" class="graph" transform="scale(1 1) rotate(0) translate(4 490.5)">
<title>SMARTCARD Exported constants</title>
<!-- Node2 -->
<g id="Node000002" class="node">
<title>Node2</title>
<g id="a_Node000002"><a xlink:href="group__SMARTCARD.html" target="_top" xlink:title="HAL SMARTCARD module driver.">
<polygon fill="white" stroke="#666666" points="77,-264.5 0,-264.5 0,-245.5 77,-245.5 77,-264.5"/>
<text text-anchor="middle" x="38.5" y="-252.5" font-family="Helvetica,sans-Serif" font-size="10.00">SMARTCARD</text>
</a>
</g>
</g>
<!-- Node1 -->
<g id="Node000001" class="node">
<title>Node1</title>
<g id="a_Node000001"><a xlink:title=" ">
<polygon fill="#999999" stroke="#666666" points="237,-270 113,-270 113,-240 237,-240 237,-270"/>
<text text-anchor="start" x="121" y="-258" font-family="Helvetica,sans-Serif" font-size="10.00">SMARTCARD Exported</text>
<text text-anchor="middle" x="175" y="-247" font-family="Helvetica,sans-Serif" font-size="10.00"> constants</text>
</a>
</g>
</g>
<!-- Node2&#45;&gt;Node1 -->
<g id="edge1" class="edge">
<title>Node2&#45;&gt;Node1</title>
<path fill="none" stroke="black" d="M87.46,-255C95.67,-255 104.29,-255 112.79,-255"/>
<polygon fill="black" stroke="black" points="87.32,-251.5 77.32,-255 87.32,-258.5 87.32,-251.5"/>
</g>
<!-- Node9 -->
<g id="Node000009" class="node">
<title>Node9</title>
<g id="a_Node000009"><a xlink:href="group__SMARTCARD__Clock__Phase.html" target="_top" xlink:title=" ">
<polygon fill="white" stroke="#666666" points="417.5,-486.5 277.5,-486.5 277.5,-467.5 417.5,-467.5 417.5,-486.5"/>
<text text-anchor="middle" x="347.5" y="-474.5" font-family="Helvetica,sans-Serif" font-size="10.00">SMARTCARD Clock Phase</text>
</a>
</g>
</g>
<!-- Node8 -->
<g id="Node000008" class="node">
<title>Node8</title>
<g id="a_Node000008"><a xlink:href="group__SMARTCARD__Clock__Polarity.html" target="_top" xlink:title=" ">
<polygon fill="white" stroke="#666666" points="421.5,-449.5 273.5,-449.5 273.5,-430.5 421.5,-430.5 421.5,-449.5"/>
<text text-anchor="middle" x="347.5" y="-437.5" font-family="Helvetica,sans-Serif" font-size="10.00">SMARTCARD Clock Polarity</text>
</a>
</g>
</g>
<!-- Node12 -->
<g id="Node000012" class="node">
<title>Node12</title>
<g id="a_Node000012"><a xlink:href="group__SMARTCARD__DMA__Requests.html" target="_top" xlink:title=" ">
<polygon fill="white" stroke="#666666" points="422,-412.5 273,-412.5 273,-393.5 422,-393.5 422,-412.5"/>
<text text-anchor="middle" x="347.5" y="-400.5" font-family="Helvetica,sans-Serif" font-size="10.00">SMARTCARD DMA requests</text>
</a>
</g>
</g>
<!-- Node3 -->
<g id="Node000003" class="node">
<title>Node3</title>
<g id="a_Node000003"><a xlink:href="group__SMARTCARD__Error__Code.html" target="_top" xlink:title=" ">
<polygon fill="white" stroke="#666666" points="413,-375.5 282,-375.5 282,-356.5 413,-356.5 413,-375.5"/>
<text text-anchor="middle" x="347.5" y="-363.5" font-family="Helvetica,sans-Serif" font-size="10.00">SMARTCARD Error Code</text>
</a>
</g>
</g>
<!-- Node1&#45;&gt;Node9 -->
<g id="edge8" class="edge">
<title>Node1&#45;&gt;Node9</title>
<path fill="none" stroke="black" d="M180.65,-280C190.05,-323.32 215.54,-412.19 273,-459 277.18,-462.4 281.9,-465.18 286.89,-467.44"/>
<polygon fill="black" stroke="black" points="184.04,-279.11 178.59,-270.02 177.18,-280.52 184.04,-279.11"/>
</g>
<!-- Node1&#45;&gt;Node8 -->
<g id="edge7" class="edge">
<title>Node1&#45;&gt;Node8</title>
<path fill="none" stroke="black" d="M183.56,-280.17C196,-317.12 224.38,-385.62 273,-422 277.52,-425.38 282.6,-428.14 287.92,-430.38"/>
<polygon fill="black" stroke="black" points="186.75,-278.64 180.34,-270.21 180.09,-280.8 186.75,-278.64"/>
</g>
<!-- Node1&#45;&gt;Node12 -->
<g id="edge11" class="edge">
<title>Node1&#45;&gt;Node12</title>
<path fill="none" stroke="black" d="M187.54,-279.37C202.85,-308.99 232.71,-358.32 273,-385 278.15,-388.41 283.88,-391.17 289.82,-393.41"/>
<polygon fill="black" stroke="black" points="190.52,-277.51 182.91,-270.14 184.27,-280.65 190.52,-277.51"/>
</g>
<!-- Node1&#45;&gt;Node3 -->
<g id="edge2" class="edge">
<title>Node1&#45;&gt;Node3</title>
<path fill="none" stroke="black" d="M193.85,-278C211.63,-299.33 240.87,-330.35 273,-348 279.22,-351.42 286.08,-354.19 293.05,-356.44"/>
<polygon fill="black" stroke="black" points="196.42,-275.61 187.39,-270.07 190.99,-280.04 196.42,-275.61"/>
</g>
<!-- Node10 -->
<g id="Node000010" class="node">
<title>Node10</title>
<g id="a_Node000010"><a xlink:href="group__SMARTCARD__Last__Bit.html" target="_top" xlink:title=" ">
<polygon fill="white" stroke="#666666" points="406,-338.5 289,-338.5 289,-319.5 406,-319.5 406,-338.5"/>
<text text-anchor="middle" x="347.5" y="-326.5" font-family="Helvetica,sans-Serif" font-size="10.00">SMARTCARD Last Bit</text>
</a>
</g>
</g>
<!-- Node1&#45;&gt;Node10 -->
<g id="edge9" class="edge">
<title>Node1&#45;&gt;Node10</title>
<path fill="none" stroke="black" d="M206.42,-275.56C224.98,-287.34 249.58,-301.6 273,-311 281.17,-314.28 290.1,-317.08 298.82,-319.42"/>
<polygon fill="black" stroke="black" points="208.12,-272.49 197.82,-270.01 204.32,-278.38 208.12,-272.49"/>
</g>
<!-- Node7 -->
<g id="Node000007" class="node">
<title>Node7</title>
<g id="a_Node000007"><a xlink:href="group__SMARTCARD__Mode.html" target="_top" xlink:title=" ">
<polygon fill="white" stroke="#666666" points="401,-301.5 294,-301.5 294,-282.5 401,-282.5 401,-301.5"/>
<text text-anchor="middle" x="347.5" y="-289.5" font-family="Helvetica,sans-Serif" font-size="10.00">SMARTCARD Mode</text>
</a>
</g>
</g>
<!-- Node1&#45;&gt;Node7 -->
<g id="edge6" class="edge">
<title>Node1&#45;&gt;Node7</title>
<path fill="none" stroke="black" d="M246.86,-270.38C265.79,-274.49 285.69,-278.8 302.69,-282.49"/>
<polygon fill="black" stroke="black" points="247.59,-266.95 237.07,-268.25 246.1,-273.79 247.59,-266.95"/>
</g>
<!-- Node11 -->
<g id="Node000011" class="node">
<title>Node11</title>
<g id="a_Node000011"><a xlink:href="group__SMARTCARD__NACK__State.html" target="_top" xlink:title=" ">
<polygon fill="white" stroke="#666666" points="416,-264.5 279,-264.5 279,-245.5 416,-245.5 416,-264.5"/>
<text text-anchor="middle" x="347.5" y="-252.5" font-family="Helvetica,sans-Serif" font-size="10.00">SMARTCARD NACK State</text>
</a>
</g>
</g>
<!-- Node1&#45;&gt;Node11 -->
<g id="edge10" class="edge">
<title>Node1&#45;&gt;Node11</title>
<path fill="none" stroke="black" d="M247.39,-255C257.83,-255 268.55,-255 278.91,-255"/>
<polygon fill="black" stroke="black" points="247.07,-251.5 237.07,-255 247.07,-258.5 247.07,-251.5"/>
</g>
<!-- Node6 -->
<g id="Node000006" class="node">
<title>Node6</title>
<g id="a_Node000006"><a xlink:href="group__SMARTCARD__Parity.html" target="_top" xlink:title=" ">
<polygon fill="white" stroke="#666666" points="401.5,-227.5 293.5,-227.5 293.5,-208.5 401.5,-208.5 401.5,-227.5"/>
<text text-anchor="middle" x="347.5" y="-215.5" font-family="Helvetica,sans-Serif" font-size="10.00">SMARTCARD Parity</text>
</a>
</g>
</g>
<!-- Node1&#45;&gt;Node6 -->
<g id="edge5" class="edge">
<title>Node1&#45;&gt;Node6</title>
<path fill="none" stroke="black" d="M246.86,-239.62C265.79,-235.51 285.69,-231.2 302.69,-227.51"/>
<polygon fill="black" stroke="black" points="246.1,-236.21 237.07,-241.75 247.59,-243.05 246.1,-236.21"/>
</g>
<!-- Node13 -->
<g id="Node000013" class="node">
<title>Node13</title>
<g id="a_Node000013"><a xlink:href="group__SMARTCARD__Prescaler.html" target="_top" xlink:title=" ">
<polygon fill="white" stroke="#666666" points="410,-190.5 285,-190.5 285,-171.5 410,-171.5 410,-190.5"/>
<text text-anchor="middle" x="347.5" y="-178.5" font-family="Helvetica,sans-Serif" font-size="10.00">SMARTCARD Prescaler</text>
</a>
</g>
</g>
<!-- Node1&#45;&gt;Node13 -->
<g id="edge12" class="edge">
<title>Node1&#45;&gt;Node13</title>
<path fill="none" stroke="black" d="M207.25,-234.48C225.76,-223.05 250.02,-209.3 273,-200 282.16,-196.29 292.27,-193.13 301.97,-190.5"/>
<polygon fill="black" stroke="black" points="205.27,-231.6 198.66,-239.88 208.99,-237.52 205.27,-231.6"/>
</g>
<!-- Node5 -->
<g id="Node000005" class="node">
<title>Node5</title>
<g id="a_Node000005"><a xlink:href="group__SMARTCARD__Stop__Bits.html" target="_top" xlink:title=" ">
<polygon fill="white" stroke="#666666" points="413.5,-153 281.5,-153 281.5,-123 413.5,-123 413.5,-153"/>
<text text-anchor="start" x="289.5" y="-141" font-family="Helvetica,sans-Serif" font-size="10.00">SMARTCARD Number of</text>
<text text-anchor="middle" x="347.5" y="-130" font-family="Helvetica,sans-Serif" font-size="10.00"> Stop Bits</text>
</a>
</g>
</g>
<!-- Node1&#45;&gt;Node5 -->
<g id="edge4" class="edge">
<title>Node1&#45;&gt;Node5</title>
<path fill="none" stroke="black" d="M194.87,-232.17C213,-211.55 242.13,-181.65 273,-163 279.23,-159.24 286.1,-155.95 293.07,-153.1"/>
<polygon fill="black" stroke="black" points="192.13,-229.99 188.25,-239.85 197.43,-234.56 192.13,-229.99"/>
</g>
<!-- Node4 -->
<g id="Node000004" class="node">
<title>Node4</title>
<g id="a_Node000004"><a xlink:href="group__SMARTCARD__Word__Length.html" target="_top" xlink:title=" ">
<polygon fill="white" stroke="#666666" points="418,-104.5 277,-104.5 277,-85.5 418,-85.5 418,-104.5"/>
<text text-anchor="middle" x="347.5" y="-92.5" font-family="Helvetica,sans-Serif" font-size="10.00">SMARTCARD Word Length</text>
</a>
</g>
</g>
<!-- Node1&#45;&gt;Node4 -->
<g id="edge3" class="edge">
<title>Node1&#45;&gt;Node4</title>
<path fill="none" stroke="black" d="M186.4,-230.08C201,-198.22 230.6,-143.67 273,-114 278.51,-110.15 284.74,-107.07 291.18,-104.62"/>
<polygon fill="black" stroke="black" points="183.05,-229 182.2,-239.56 189.45,-231.84 183.05,-229"/>
</g>
<!-- Node14 -->
<g id="Node000014" class="node">
<title>Node14</title>
<g id="a_Node000014"><a xlink:href="group__SmartCard__Flags.html" target="_top" xlink:title=" ">
<polygon fill="white" stroke="#666666" points="401,-67.5 294,-67.5 294,-48.5 401,-48.5 401,-67.5"/>
<text text-anchor="middle" x="347.5" y="-55.5" font-family="Helvetica,sans-Serif" font-size="10.00">SMARTCARD Flags</text>
</a>
</g>
</g>
<!-- Node1&#45;&gt;Node14 -->
<g id="edge13" class="edge">
<title>Node1&#45;&gt;Node14</title>
<path fill="none" stroke="black" d="M182.64,-229.96C194.25,-191.14 222.01,-116.77 273,-77 279.13,-72.22 286.34,-68.63 293.81,-65.94"/>
<polygon fill="black" stroke="black" points="179.18,-229.33 179.78,-239.91 185.91,-231.26 179.18,-229.33"/>
</g>
<!-- Node15 -->
<g id="Node000015" class="node">
<title>Node15</title>
<g id="a_Node000015"><a xlink:href="group__SmartCard__Interrupt__definition.html" target="_top" xlink:title=" ">
<polygon fill="white" stroke="#666666" points="411.5,-30 283.5,-30 283.5,0 411.5,0 411.5,-30"/>
<text text-anchor="start" x="291.5" y="-18" font-family="Helvetica,sans-Serif" font-size="10.00">SMARTCARD Interrupts</text>
<text text-anchor="middle" x="347.5" y="-7" font-family="Helvetica,sans-Serif" font-size="10.00"> Definition</text>
</a>
</g>
</g>
<!-- Node1&#45;&gt;Node15 -->
<g id="edge14" class="edge">
<title>Node1&#45;&gt;Node15</title>
<path fill="none" stroke="black" d="M180.56,-229.82C189.91,-185.26 215.46,-92.27 273,-40 277.29,-36.1 282.21,-32.81 287.43,-30.03"/>
<polygon fill="black" stroke="black" points="177.09,-229.32 178.56,-239.81 183.95,-230.69 177.09,-229.32"/>
</g>
</g>
</svg>
