<?xml version="1.0" encoding="UTF-8" standalone="no"?>
<!DOCTYPE svg PUBLIC "-//W3C//DTD SVG 1.1//EN"
 "http://www.w3.org/Graphics/SVG/1.1/DTD/svg11.dtd">
<!-- Generated by graphviz version 2.43.0 (0)
 -->
<!-- Title: SMBUS Pages: 1 -->
<svg width="418pt" height="249pt"
 viewBox="0.00 0.00 418.00 249.00" xmlns="http://www.w3.org/2000/svg" xmlns:xlink="http://www.w3.org/1999/xlink">

<svg id="main" version="1.1" xmlns="http://www.w3.org/2000/svg" xmlns:xlink="http://www.w3.org/1999/xlink" xml:space="preserve" onload="init(evt)">
<style type="text/css"><![CDATA[
.node, .edge {opacity: 0.7;}
.node.selected, .edge.selected {opacity: 1;}
.edge:hover path { stroke: red; }
.edge:hover polygon { stroke: red; fill: red; }
]]></style>
<script type="application/ecmascript" xlink:href="svg.min.js"/>
<svg id="graph" class="graph">
<g id="graph0" class="graph" transform="scale(1 1) rotate(0) translate(4 245)">
<title>SMBUS</title>
<!-- Node1 -->
<g id="Node000001" class="node">
<title>Node1</title>
<g id="a_Node000001"><a xlink:title="SMBUS HAL module driver.">
<polygon fill="#999999" stroke="#666666" points="222,-130 170,-130 170,-111 222,-111 222,-130"/>
<text text-anchor="middle" x="196" y="-118" font-family="Helvetica,sans-Serif" font-size="10.00">SMBUS</text>
</a>
</g>
</g>
<!-- Node4 -->
<g id="Node000004" class="node">
<title>Node4</title>
<g id="a_Node000004"><a xlink:href="group__SMBUS__Exported__Constants.html" target="_top" xlink:title=" ">
<polygon fill="white" stroke="#666666" points="409,-241 259,-241 259,-222 409,-222 409,-241"/>
<text text-anchor="middle" x="334" y="-229" font-family="Helvetica,sans-Serif" font-size="10.00">SMBUS Exported Constants</text>
</a>
</g>
</g>
<!-- Node1&#45;&gt;Node4 -->
<g id="edge3" class="edge">
<title>Node1&#45;&gt;Node4</title>
<path fill="none" stroke="black" d="M204.33,-139.46C213.58,-160.79 231.53,-194.89 258,-213.5 262.82,-216.89 268.2,-219.65 273.8,-221.89"/>
<polygon fill="black" stroke="black" points="207.54,-138.05 200.49,-130.14 201.06,-140.71 207.54,-138.05"/>
</g>
<!-- Node9 -->
<g id="Node000009" class="node">
<title>Node9</title>
<g id="a_Node000009"><a xlink:href="group__SMBUS__Exported__Functions.html" target="_top" xlink:title=" ">
<polygon fill="white" stroke="#666666" points="410,-204 258,-204 258,-185 410,-185 410,-204"/>
<text text-anchor="middle" x="334" y="-192" font-family="Helvetica,sans-Serif" font-size="10.00">SMBUS_Exported_Functions</text>
</a>
</g>
</g>
<!-- Node1&#45;&gt;Node9 -->
<g id="edge8" class="edge">
<title>Node1&#45;&gt;Node9</title>
<path fill="none" stroke="black" d="M211.23,-137.59C222.62,-150.18 239.68,-166.75 258,-176.5 264.38,-179.9 271.41,-182.66 278.53,-184.91"/>
<polygon fill="black" stroke="black" points="213.82,-135.24 204.6,-130.01 208.54,-139.84 213.82,-135.24"/>
</g>
<!-- Node5 -->
<g id="Node000005" class="node">
<title>Node5</title>
<g id="a_Node000005"><a xlink:href="group__SMBUS__Exported__Macros.html" target="_top" xlink:title=" ">
<polygon fill="white" stroke="#666666" points="402.5,-167 265.5,-167 265.5,-148 402.5,-148 402.5,-167"/>
<text text-anchor="middle" x="334" y="-155" font-family="Helvetica,sans-Serif" font-size="10.00">SMBUS Exported Macros</text>
</a>
</g>
</g>
<!-- Node1&#45;&gt;Node5 -->
<g id="edge4" class="edge">
<title>Node1&#45;&gt;Node5</title>
<path fill="none" stroke="black" d="M231.79,-131.77C240.33,-134.42 249.47,-137.15 258,-139.5 268.72,-142.45 280.37,-145.38 291.22,-147.99"/>
<polygon fill="black" stroke="black" points="232.71,-128.39 222.12,-128.74 230.61,-135.07 232.71,-128.39"/>
</g>
<!-- Node3 -->
<g id="Node000003" class="node">
<title>Node3</title>
<g id="a_Node000003"><a xlink:href="group__SMBUS__Exported__Types.html" target="_top" xlink:title=" ">
<polygon fill="white" stroke="#666666" points="398.5,-130 269.5,-130 269.5,-111 398.5,-111 398.5,-130"/>
<text text-anchor="middle" x="334" y="-118" font-family="Helvetica,sans-Serif" font-size="10.00">SMBUS Exported Types</text>
</a>
</g>
</g>
<!-- Node1&#45;&gt;Node3 -->
<g id="edge2" class="edge">
<title>Node1&#45;&gt;Node3</title>
<path fill="none" stroke="black" d="M232.57,-120.5C243.88,-120.5 256.75,-120.5 269.41,-120.5"/>
<polygon fill="black" stroke="black" points="232.26,-117 222.26,-120.5 232.26,-124 232.26,-117"/>
</g>
<!-- Node6 -->
<g id="Node000006" class="node">
<title>Node6</title>
<g id="a_Node000006"><a xlink:href="group__SMBUS__Private__Constants.html" target="_top" xlink:title=" ">
<polygon fill="white" stroke="#666666" points="404.5,-93 263.5,-93 263.5,-74 404.5,-74 404.5,-93"/>
<text text-anchor="middle" x="334" y="-81" font-family="Helvetica,sans-Serif" font-size="10.00">SMBUS Private Constants</text>
</a>
</g>
</g>
<!-- Node1&#45;&gt;Node6 -->
<g id="edge5" class="edge">
<title>Node1&#45;&gt;Node6</title>
<path fill="none" stroke="black" d="M231.79,-109.23C240.33,-106.58 249.47,-103.85 258,-101.5 268.72,-98.55 280.37,-95.62 291.22,-93.01"/>
<polygon fill="black" stroke="black" points="230.61,-105.93 222.12,-112.26 232.71,-112.61 230.61,-105.93"/>
</g>
<!-- Node8 -->
<g id="Node000008" class="node">
<title>Node8</title>
<g id="a_Node000008"><a xlink:href="group__SMBUS__Private__Functions.html" target="_top" xlink:title=" ">
<polygon fill="white" stroke="#666666" points="403.5,-56 264.5,-56 264.5,-37 403.5,-37 403.5,-56"/>
<text text-anchor="middle" x="334" y="-44" font-family="Helvetica,sans-Serif" font-size="10.00">SMBUS Private Functions</text>
</a>
</g>
</g>
<!-- Node1&#45;&gt;Node8 -->
<g id="edge7" class="edge">
<title>Node1&#45;&gt;Node8</title>
<path fill="none" stroke="black" d="M211.23,-103.41C222.62,-90.82 239.68,-74.25 258,-64.5 264.38,-61.1 271.41,-58.34 278.53,-56.09"/>
<polygon fill="black" stroke="black" points="208.54,-101.16 204.6,-110.99 213.82,-105.76 208.54,-101.16"/>
</g>
<!-- Node7 -->
<g id="Node000007" class="node">
<title>Node7</title>
<g id="a_Node000007"><a xlink:href="group__SMBUS__Private__Macros.html" target="_top" xlink:title=" ">
<polygon fill="white" stroke="#666666" points="398,-19 270,-19 270,0 398,0 398,-19"/>
<text text-anchor="middle" x="334" y="-7" font-family="Helvetica,sans-Serif" font-size="10.00">SMBUS Private Macros</text>
</a>
</g>
</g>
<!-- Node1&#45;&gt;Node7 -->
<g id="edge6" class="edge">
<title>Node1&#45;&gt;Node7</title>
<path fill="none" stroke="black" d="M204.33,-101.54C213.58,-80.21 231.53,-46.11 258,-27.5 262.82,-24.11 268.2,-21.35 273.8,-19.11"/>
<polygon fill="black" stroke="black" points="201.06,-100.29 200.49,-110.86 207.54,-102.95 201.06,-100.29"/>
</g>
<!-- Node2 -->
<g id="Node000002" class="node">
<title>Node2</title>
<g id="a_Node000002"><a xlink:href="group__STM32F4xx__HAL__Driver.html" target="_top" xlink:title=" ">
<polygon fill="white" stroke="#666666" points="134,-130 0,-130 0,-111 134,-111 134,-130"/>
<text text-anchor="middle" x="67" y="-118" font-family="Helvetica,sans-Serif" font-size="10.00">STM32F4xx_HAL_Driver</text>
</a>
</g>
</g>
<!-- Node2&#45;&gt;Node1 -->
<g id="edge1" class="edge">
<title>Node2&#45;&gt;Node1</title>
<path fill="none" stroke="black" d="M144.22,-120.5C153.44,-120.5 162.29,-120.5 169.94,-120.5"/>
<polygon fill="black" stroke="black" points="144.1,-117 134.1,-120.5 144.1,-124 144.1,-117"/>
</g>
</g>
</svg>
</svg>

<style type='text/css'>
<![CDATA[
[data-mouse-over-selected='false'] { opacity: 0.7; }
[data-mouse-over-selected='true']  { opacity: 1.0; }
]]>
</style>
<script type="application/ecmascript"><![CDATA[
document.addEventListener('DOMContentLoaded', (event) => {
  highlightEdges();
  highlightAdjacentNodes();
});
]]></script>
</svg>
