<?xml version="1.0" encoding="UTF-8" standalone="no"?>
<!DOCTYPE svg PUBLIC "-//W3C//DTD SVG 1.1//EN"
 "http://www.w3.org/Graphics/SVG/1.1/DTD/svg11.dtd">
<!-- Generated by graphviz version 2.43.0 (0)
 -->
<!-- Title: ADCEx Pages: 1 -->
<svg width="414pt" height="249pt"
 viewBox="0.00 0.00 414.00 249.00" xmlns="http://www.w3.org/2000/svg" xmlns:xlink="http://www.w3.org/1999/xlink">
<g id="graph0" class="graph" transform="scale(1 1) rotate(0) translate(4 245)">
<title>ADCEx</title>
<!-- Node1 -->
<g id="Node000001" class="node">
<title>Node1</title>
<g id="a_Node000001"><a xlink:title="ADC Extended driver modules.">
<polygon fill="#999999" stroke="#666666" points="220,-130 170,-130 170,-111 220,-111 220,-130"/>
<text text-anchor="middle" x="195" y="-118" font-family="Helvetica,sans-Serif" font-size="10.00">ADCEx</text>
</a>
</g>
</g>
<!-- Node4 -->
<g id="Node000004" class="node">
<title>Node4</title>
<g id="a_Node000004"><a xlink:href="group__ADCEx__Exported__Constants.html" target="_top" xlink:title=" ">
<polygon fill="white" stroke="#666666" points="399,-241 263,-241 263,-222 399,-222 399,-241"/>
<text text-anchor="middle" x="331" y="-229" font-family="Helvetica,sans-Serif" font-size="10.00">ADC Exported Constants</text>
</a>
</g>
</g>
<!-- Node1&#45;&gt;Node4 -->
<g id="edge3" class="edge">
<title>Node1&#45;&gt;Node4</title>
<path fill="none" stroke="black" d="M203.14,-139.44C212.16,-160.76 229.76,-194.84 256,-213.5 260.74,-216.87 266.04,-219.62 271.56,-221.85"/>
<polygon fill="black" stroke="black" points="206.37,-138.1 199.4,-130.13 199.88,-140.71 206.37,-138.1"/>
</g>
<!-- Node9 -->
<g id="Node000009" class="node">
<title>Node9</title>
<g id="a_Node000009"><a xlink:href="group__ADCEx__Exported__Functions.html" target="_top" xlink:title=" ">
<polygon fill="white" stroke="#666666" points="406,-204 256,-204 256,-185 406,-185 406,-204"/>
<text text-anchor="middle" x="331" y="-192" font-family="Helvetica,sans-Serif" font-size="10.00">ADCEx_Exported_Functions</text>
</a>
</g>
</g>
<!-- Node1&#45;&gt;Node9 -->
<g id="edge8" class="edge">
<title>Node1&#45;&gt;Node9</title>
<path fill="none" stroke="black" d="M210.33,-138.02C221.51,-150.55 238.1,-166.84 256,-176.5 262.28,-179.89 269.21,-182.65 276.23,-184.9"/>
<polygon fill="black" stroke="black" points="212.98,-135.73 203.81,-130.43 207.68,-140.3 212.98,-135.73"/>
</g>
<!-- Node3 -->
<g id="Node000003" class="node">
<title>Node3</title>
<g id="a_Node000003"><a xlink:href="group__ADCEx__Exported__Types.html" target="_top" xlink:title=" ">
<polygon fill="white" stroke="#666666" points="388.5,-167 273.5,-167 273.5,-148 388.5,-148 388.5,-167"/>
<text text-anchor="middle" x="331" y="-155" font-family="Helvetica,sans-Serif" font-size="10.00">ADC Exported Types</text>
</a>
</g>
</g>
<!-- Node1&#45;&gt;Node3 -->
<g id="edge2" class="edge">
<title>Node1&#45;&gt;Node3</title>
<path fill="none" stroke="black" d="M229.76,-131.63C238.29,-134.32 247.45,-137.11 256,-139.5 266.57,-142.46 278.06,-145.39 288.77,-148"/>
<polygon fill="black" stroke="black" points="230.71,-128.26 220.12,-128.55 228.58,-134.93 230.71,-128.26"/>
</g>
<!-- Node6 -->
<g id="Node000006" class="node">
<title>Node6</title>
<g id="a_Node000006"><a xlink:href="group__ADCEx__Private__Constants.html" target="_top" xlink:title=" ">
<polygon fill="white" stroke="#666666" points="394.5,-130 267.5,-130 267.5,-111 394.5,-111 394.5,-130"/>
<text text-anchor="middle" x="331" y="-118" font-family="Helvetica,sans-Serif" font-size="10.00">ADC Private Constants</text>
</a>
</g>
</g>
<!-- Node1&#45;&gt;Node6 -->
<g id="edge5" class="edge">
<title>Node1&#45;&gt;Node6</title>
<path fill="none" stroke="black" d="M230.53,-120.5C241.81,-120.5 254.71,-120.5 267.4,-120.5"/>
<polygon fill="black" stroke="black" points="230.27,-117 220.27,-120.5 230.27,-124 230.27,-117"/>
</g>
<!-- Node8 -->
<g id="Node000008" class="node">
<title>Node8</title>
<g id="a_Node000008"><a xlink:href="group__ADCEx__Private__Functions.html" target="_top" xlink:title=" ">
<polygon fill="white" stroke="#666666" points="393.5,-93 268.5,-93 268.5,-74 393.5,-74 393.5,-93"/>
<text text-anchor="middle" x="331" y="-81" font-family="Helvetica,sans-Serif" font-size="10.00">ADC Private Functions</text>
</a>
</g>
</g>
<!-- Node1&#45;&gt;Node8 -->
<g id="edge7" class="edge">
<title>Node1&#45;&gt;Node8</title>
<path fill="none" stroke="black" d="M229.76,-109.37C238.29,-106.68 247.45,-103.89 256,-101.5 266.57,-98.54 278.06,-95.61 288.77,-93"/>
<polygon fill="black" stroke="black" points="228.58,-106.07 220.12,-112.45 230.71,-112.74 228.58,-106.07"/>
</g>
<!-- Node7 -->
<g id="Node000007" class="node">
<title>Node7</title>
<g id="a_Node000007"><a xlink:href="group__ADCEx__Private__Macros.html" target="_top" xlink:title=" ">
<polygon fill="white" stroke="#666666" points="387.5,-56 274.5,-56 274.5,-37 387.5,-37 387.5,-56"/>
<text text-anchor="middle" x="331" y="-44" font-family="Helvetica,sans-Serif" font-size="10.00">ADC Private Macros</text>
</a>
</g>
</g>
<!-- Node1&#45;&gt;Node7 -->
<g id="edge6" class="edge">
<title>Node1&#45;&gt;Node7</title>
<path fill="none" stroke="black" d="M210.33,-102.98C221.51,-90.45 238.1,-74.16 256,-64.5 262.28,-61.11 269.21,-58.35 276.23,-56.1"/>
<polygon fill="black" stroke="black" points="207.68,-100.7 203.81,-110.57 212.98,-105.27 207.68,-100.7"/>
</g>
<!-- Node5 -->
<g id="Node000005" class="node">
<title>Node5</title>
<g id="a_Node000005"><a xlink:href="group__ADC__Exported__Macros.html" target="_top" xlink:title=" ">
<polygon fill="white" stroke="#666666" points="392,-19 270,-19 270,0 392,0 392,-19"/>
<text text-anchor="middle" x="331" y="-7" font-family="Helvetica,sans-Serif" font-size="10.00">ADC Exported Macros</text>
</a>
</g>
</g>
<!-- Node1&#45;&gt;Node5 -->
<g id="edge4" class="edge">
<title>Node1&#45;&gt;Node5</title>
<path fill="none" stroke="black" d="M203.14,-101.56C212.16,-80.24 229.76,-46.16 256,-27.5 260.74,-24.13 266.04,-21.38 271.56,-19.15"/>
<polygon fill="black" stroke="black" points="199.88,-100.29 199.4,-110.87 206.37,-102.9 199.88,-100.29"/>
</g>
<!-- Node2 -->
<g id="Node000002" class="node">
<title>Node2</title>
<g id="a_Node000002"><a xlink:href="group__STM32F4xx__HAL__Driver.html" target="_top" xlink:title=" ">
<polygon fill="white" stroke="#666666" points="134,-130 0,-130 0,-111 134,-111 134,-130"/>
<text text-anchor="middle" x="67" y="-118" font-family="Helvetica,sans-Serif" font-size="10.00">STM32F4xx_HAL_Driver</text>
</a>
</g>
</g>
<!-- Node2&#45;&gt;Node1 -->
<g id="edge1" class="edge">
<title>Node2&#45;&gt;Node1</title>
<path fill="none" stroke="black" d="M144.35,-120.5C153.49,-120.5 162.24,-120.5 169.78,-120.5"/>
<polygon fill="black" stroke="black" points="144.32,-117 134.32,-120.5 144.32,-124 144.32,-117"/>
</g>
</g>
</svg>
