<?xml version="1.0" encoding="UTF-8" standalone="no"?>
<!DOCTYPE svg PUBLIC "-//W3C//DTD SVG 1.1//EN"
 "http://www.w3.org/Graphics/SVG/1.1/DTD/svg11.dtd">
<!-- Generated by graphviz version 2.43.0 (0)
 -->
<!-- Title: USART Exported Constants Pages: 1 -->
<svg width="429pt" height="434pt"
 viewBox="0.00 0.00 429.00 434.00" xmlns="http://www.w3.org/2000/svg" xmlns:xlink="http://www.w3.org/1999/xlink">
<g id="graph0" class="graph" transform="scale(1 1) rotate(0) translate(4 430)">
<title>USART Exported Constants</title>
<!-- Node2 -->
<g id="Node000002" class="node">
<title>Node2</title>
<g id="a_Node000002"><a xlink:href="group__USART.html" target="_top" xlink:title="HAL USART Synchronous module driver.">
<polygon fill="white" stroke="#666666" points="50,-222 0,-222 0,-203 50,-203 50,-222"/>
<text text-anchor="middle" x="25" y="-210" font-family="Helvetica,sans-Serif" font-size="10.00">USART</text>
</a>
</g>
</g>
<!-- Node1 -->
<g id="Node000001" class="node">
<title>Node1</title>
<g id="a_Node000001"><a xlink:title=" ">
<polygon fill="#999999" stroke="#666666" points="234,-222 86,-222 86,-203 234,-203 234,-222"/>
<text text-anchor="middle" x="160" y="-210" font-family="Helvetica,sans-Serif" font-size="10.00">USART Exported Constants</text>
</a>
</g>
</g>
<!-- Node2&#45;&gt;Node1 -->
<g id="edge1" class="edge">
<title>Node2&#45;&gt;Node1</title>
<path fill="none" stroke="black" d="M60.32,-212.5C68.23,-212.5 76.94,-212.5 85.81,-212.5"/>
<polygon fill="black" stroke="black" points="60.09,-209 50.09,-212.5 60.09,-216 60.09,-209"/>
</g>
<!-- Node8 -->
<g id="Node000008" class="node">
<title>Node8</title>
<g id="a_Node000008"><a xlink:href="group__USART__Clock.html" target="_top" xlink:title=" ">
<polygon fill="white" stroke="#666666" points="385.5,-426 305.5,-426 305.5,-407 385.5,-407 385.5,-426"/>
<text text-anchor="middle" x="345.5" y="-414" font-family="Helvetica,sans-Serif" font-size="10.00">USART Clock</text>
</a>
</g>
</g>
<!-- Node10 -->
<g id="Node000010" class="node">
<title>Node10</title>
<g id="a_Node000010"><a xlink:href="group__USART__Clock__Phase.html" target="_top" xlink:title=" ">
<polygon fill="white" stroke="#666666" points="401.5,-389 289.5,-389 289.5,-370 401.5,-370 401.5,-389"/>
<text text-anchor="middle" x="345.5" y="-377" font-family="Helvetica,sans-Serif" font-size="10.00">USART Clock Phase</text>
</a>
</g>
</g>
<!-- Node9 -->
<g id="Node000009" class="node">
<title>Node9</title>
<g id="a_Node000009"><a xlink:href="group__USART__Clock__Polarity.html" target="_top" xlink:title=" ">
<polygon fill="white" stroke="#666666" points="405.5,-352 285.5,-352 285.5,-333 405.5,-333 405.5,-352"/>
<text text-anchor="middle" x="345.5" y="-340" font-family="Helvetica,sans-Serif" font-size="10.00">USART Clock Polarity</text>
</a>
</g>
</g>
<!-- Node3 -->
<g id="Node000003" class="node">
<title>Node3</title>
<g id="a_Node000003"><a xlink:href="group__USART__Error__Code.html" target="_top" xlink:title="USART Error Code.">
<polygon fill="white" stroke="#666666" points="397.5,-315 293.5,-315 293.5,-296 397.5,-296 397.5,-315"/>
<text text-anchor="middle" x="345.5" y="-303" font-family="Helvetica,sans-Serif" font-size="10.00">USART Error Code</text>
</a>
</g>
</g>
<!-- Node1&#45;&gt;Node8 -->
<g id="edge7" class="edge">
<title>Node1&#45;&gt;Node8</title>
<path fill="none" stroke="black" d="M166.68,-231.87C178.91,-270.04 211.48,-355.03 270,-398.5 280.15,-406.04 293.02,-410.46 305.2,-413.04"/>
<polygon fill="black" stroke="black" points="169.94,-230.55 163.65,-222.02 163.25,-232.61 169.94,-230.55"/>
</g>
<!-- Node1&#45;&gt;Node10 -->
<g id="edge9" class="edge">
<title>Node1&#45;&gt;Node10</title>
<path fill="none" stroke="black" d="M169.45,-231.54C184.7,-263.6 219.95,-328.12 270,-361.5 275.87,-365.41 282.5,-368.48 289.33,-370.88"/>
<polygon fill="black" stroke="black" points="172.58,-229.96 165.21,-222.35 166.22,-232.9 172.58,-229.96"/>
</g>
<!-- Node1&#45;&gt;Node9 -->
<g id="edge8" class="edge">
<title>Node1&#45;&gt;Node9</title>
<path fill="none" stroke="black" d="M173.19,-230.27C191.32,-255.27 227.8,-300.45 270,-324.5 276.01,-327.93 282.65,-330.7 289.42,-332.95"/>
<polygon fill="black" stroke="black" points="176.01,-228.18 167.37,-222.05 170.3,-232.23 176.01,-228.18"/>
</g>
<!-- Node1&#45;&gt;Node3 -->
<g id="edge2" class="edge">
<title>Node1&#45;&gt;Node3</title>
<path fill="none" stroke="black" d="M179.65,-228.54C200.39,-245.57 235.53,-272.11 270,-287.5 277.53,-290.86 285.79,-293.65 293.97,-295.95"/>
<polygon fill="black" stroke="black" points="181.86,-225.82 171.94,-222.09 177.37,-231.19 181.86,-225.82"/>
</g>
<!-- Node13 -->
<g id="Node000013" class="node">
<title>Node13</title>
<g id="a_Node000013"><a xlink:href="group__USART__Flags.html" target="_top" xlink:title=" ">
<polygon fill="white" stroke="#666666" points="385,-278 306,-278 306,-259 385,-259 385,-278"/>
<text text-anchor="middle" x="345.5" y="-266" font-family="Helvetica,sans-Serif" font-size="10.00">USART Flags</text>
</a>
</g>
</g>
<!-- Node1&#45;&gt;Node13 -->
<g id="edge12" class="edge">
<title>Node1&#45;&gt;Node13</title>
<path fill="none" stroke="black" d="M195.89,-225.64C217.14,-233.41 244.94,-243.12 270,-250.5 281.49,-253.88 294.11,-257.11 305.64,-259.88"/>
<polygon fill="black" stroke="black" points="196.91,-222.29 186.32,-222.12 194.49,-228.86 196.91,-222.29"/>
</g>
<!-- Node14 -->
<g id="Node000014" class="node">
<title>Node14</title>
<g id="a_Node000014"><a xlink:href="group__USART__Interrupt__definition.html" target="_top" xlink:title=" ">
<polygon fill="white" stroke="#666666" points="420.5,-241 270.5,-241 270.5,-222 420.5,-222 420.5,-241"/>
<text text-anchor="middle" x="345.5" y="-229" font-family="Helvetica,sans-Serif" font-size="10.00">USART Interrupts Definition</text>
</a>
</g>
</g>
<!-- Node1&#45;&gt;Node14 -->
<g id="edge13" class="edge">
<title>Node1&#45;&gt;Node14</title>
<path fill="none" stroke="black" d="M244.26,-221.12C253.01,-222.03 261.86,-222.94 270.5,-223.84"/>
<polygon fill="black" stroke="black" points="244.36,-217.61 234.05,-220.06 243.64,-224.58 244.36,-217.61"/>
</g>
<!-- Node11 -->
<g id="Node000011" class="node">
<title>Node11</title>
<g id="a_Node000011"><a xlink:href="group__USART__Last__Bit.html" target="_top" xlink:title=" ">
<polygon fill="white" stroke="#666666" points="390,-204 301,-204 301,-185 390,-185 390,-204"/>
<text text-anchor="middle" x="345.5" y="-192" font-family="Helvetica,sans-Serif" font-size="10.00">USART Last Bit</text>
</a>
</g>
</g>
<!-- Node1&#45;&gt;Node11 -->
<g id="edge10" class="edge">
<title>Node1&#45;&gt;Node11</title>
<path fill="none" stroke="black" d="M244.2,-204.34C263.72,-202.42 283.77,-200.46 300.76,-198.79"/>
<polygon fill="black" stroke="black" points="243.66,-200.87 234.05,-205.33 244.35,-207.84 243.66,-200.87"/>
</g>
<!-- Node7 -->
<g id="Node000007" class="node">
<title>Node7</title>
<g id="a_Node000007"><a xlink:href="group__USART__Mode.html" target="_top" xlink:title=" ">
<polygon fill="white" stroke="#666666" points="385.5,-167 305.5,-167 305.5,-148 385.5,-148 385.5,-167"/>
<text text-anchor="middle" x="345.5" y="-155" font-family="Helvetica,sans-Serif" font-size="10.00">USART Mode</text>
</a>
</g>
</g>
<!-- Node1&#45;&gt;Node7 -->
<g id="edge6" class="edge">
<title>Node1&#45;&gt;Node7</title>
<path fill="none" stroke="black" d="M197.68,-199.68C218.73,-192.5 245.73,-183.59 270,-176.5 281.4,-173.17 293.88,-169.86 305.31,-166.95"/>
<polygon fill="black" stroke="black" points="196.48,-196.39 188.16,-202.95 198.76,-203.01 196.48,-196.39"/>
</g>
<!-- Node12 -->
<g id="Node000012" class="node">
<title>Node12</title>
<g id="a_Node000012"><a xlink:href="group__USART__NACK__State.html" target="_top" xlink:title=" ">
<polygon fill="white" stroke="#666666" points="400,-130 291,-130 291,-111 400,-111 400,-130"/>
<text text-anchor="middle" x="345.5" y="-118" font-family="Helvetica,sans-Serif" font-size="10.00">USART NACK State</text>
</a>
</g>
</g>
<!-- Node1&#45;&gt;Node12 -->
<g id="edge11" class="edge">
<title>Node1&#45;&gt;Node12</title>
<path fill="none" stroke="black" d="M180.38,-196.51C201.29,-180.01 236.15,-154.61 270,-139.5 278.41,-135.75 287.7,-132.63 296.78,-130.09"/>
<polygon fill="black" stroke="black" points="177.92,-194 172.32,-202.98 182.31,-199.46 177.92,-194"/>
</g>
<!-- Node6 -->
<g id="Node000006" class="node">
<title>Node6</title>
<g id="a_Node000006"><a xlink:href="group__USART__Parity.html" target="_top" xlink:title=" ">
<polygon fill="white" stroke="#666666" points="385.5,-93 305.5,-93 305.5,-74 385.5,-74 385.5,-93"/>
<text text-anchor="middle" x="345.5" y="-81" font-family="Helvetica,sans-Serif" font-size="10.00">USART Parity</text>
</a>
</g>
</g>
<!-- Node1&#45;&gt;Node6 -->
<g id="edge5" class="edge">
<title>Node1&#45;&gt;Node6</title>
<path fill="none" stroke="black" d="M173.58,-194.76C191.94,-170.23 228.44,-126.29 270,-102.5 280.77,-96.33 293.55,-92.14 305.46,-89.3"/>
<polygon fill="black" stroke="black" points="170.75,-192.71 167.67,-202.85 176.4,-196.84 170.75,-192.71"/>
</g>
<!-- Node5 -->
<g id="Node000005" class="node">
<title>Node5</title>
<g id="a_Node000005"><a xlink:href="group__USART__Stop__Bits.html" target="_top" xlink:title=" ">
<polygon fill="white" stroke="#666666" points="421,-56 270,-56 270,-37 421,-37 421,-56"/>
<text text-anchor="middle" x="345.5" y="-44" font-family="Helvetica,sans-Serif" font-size="10.00">USART Number of Stop Bits</text>
</a>
</g>
</g>
<!-- Node1&#45;&gt;Node5 -->
<g id="edge4" class="edge">
<title>Node1&#45;&gt;Node5</title>
<path fill="none" stroke="black" d="M169.57,-193.78C184.99,-162.25 220.49,-98.74 270,-65.5 275.76,-61.63 282.26,-58.55 288.95,-56.1"/>
<polygon fill="black" stroke="black" points="166.4,-192.28 165.27,-202.82 172.73,-195.29 166.4,-192.28"/>
</g>
<!-- Node4 -->
<g id="Node000004" class="node">
<title>Node4</title>
<g id="a_Node000004"><a xlink:href="group__USART__Word__Length.html" target="_top" xlink:title=" ">
<polygon fill="white" stroke="#666666" points="402,-19 289,-19 289,0 402,0 402,-19"/>
<text text-anchor="middle" x="345.5" y="-7" font-family="Helvetica,sans-Serif" font-size="10.00">USART Word Length</text>
</a>
</g>
</g>
<!-- Node1&#45;&gt;Node4 -->
<g id="edge3" class="edge">
<title>Node1&#45;&gt;Node4</title>
<path fill="none" stroke="black" d="M166.97,-192.87C179.52,-154.97 212.39,-71.65 270,-28.5 275.66,-24.26 282.17,-20.96 288.94,-18.39"/>
<polygon fill="black" stroke="black" points="163.54,-192.09 163.84,-202.68 170.21,-194.22 163.54,-192.09"/>
</g>
</g>
</svg>
