<?xml version="1.0" encoding="UTF-8" standalone="no"?>
<!DOCTYPE svg PUBLIC "-//W3C//DTD SVG 1.1//EN"
 "http://www.w3.org/Graphics/SVG/1.1/DTD/svg11.dtd">
<!-- Generated by graphviz version 12.2.1 (20241206.2353)
 -->
<!-- Title: CRC Pages: 1 -->
<svg width="366pt" height="185pt"
 viewBox="0.00 0.00 365.75 184.75" xmlns="http://www.w3.org/2000/svg" xmlns:xlink="http://www.w3.org/1999/xlink">

<svg id="main" version="1.1" xmlns="http://www.w3.org/2000/svg" xmlns:xlink="http://www.w3.org/1999/xlink" xml:space="preserve">

<style type="text/css"><![CDATA[
.node, .edge {opacity: 0.7;}
.node.selected, .edge.selected {opacity: 1;}
.edge:hover path { stroke: red; }
.edge:hover polygon { stroke: red; fill: red; }
]]></style>
<script type="application/ecmascript" xlink:href="svg.min.js"/>
<svg id="graph" class="graph">
<g id="graph0" class="graph" transform="scale(1 1) rotate(0) translate(4 180.75)">
<title>CRC</title>
<!-- Node1 -->
<g id="Node000001" class="node">
<title>Node1</title>
<g id="a_Node000001"><a xlink:title="CRC HAL module driver.">
<polygon fill="#999999" stroke="#666666" points="194,-98.75 158.5,-98.75 158.5,-78 194,-78 194,-98.75"/>
<text text-anchor="middle" x="176.25" y="-85.25" font-family="Helvetica,sans-Serif" font-size="10.00">CRC</text>
</a>
</g>
</g>
<!-- Node4 -->
<g id="Node000004" class="node">
<title>Node4</title>
<g id="a_Node000004"><a xlink:href="group__CRC__Exported__Constants.html" target="_top" xlink:title=" ">
<polygon fill="white" stroke="#666666" points="357.75,-176.75 230,-176.75 230,-156 357.75,-156 357.75,-176.75"/>
<text text-anchor="middle" x="293.88" y="-163.25" font-family="Helvetica,sans-Serif" font-size="10.00">CRC Exported Constants</text>
</a>
</g>
</g>
<!-- Node1&#45;&gt;Node4 -->
<g id="edge3" class="edge">
<title>Node1&#45;&gt;Node4</title>
<path fill="none" stroke="black" d="M190.94,-108.15C200.56,-120.7 214.45,-136.4 230,-146.38 235.69,-150.02 242.09,-153.05 248.59,-155.56"/>
<polygon fill="black" stroke="black" points="193.82,-106.15 185.09,-100.15 188.17,-110.29 193.82,-106.15"/>
</g>
<!-- Node7 -->
<g id="Node000007" class="node">
<title>Node7</title>
<g id="a_Node000007"><a xlink:href="group__CRC__Exported__Functions.html" target="_top" xlink:title=" ">
<polygon fill="white" stroke="#666666" points="356.62,-137.75 231.12,-137.75 231.12,-117 356.62,-117 356.62,-137.75"/>
<text text-anchor="middle" x="293.88" y="-124.25" font-family="Helvetica,sans-Serif" font-size="10.00">CRC Exported Functions</text>
</a>
</g>
</g>
<!-- Node1&#45;&gt;Node7 -->
<g id="edge6" class="edge">
<title>Node1&#45;&gt;Node7</title>
<path fill="none" stroke="black" d="M205.01,-98.59C213.05,-101.49 221.85,-104.61 230,-107.38 239,-110.43 248.78,-113.6 257.88,-116.5"/>
<polygon fill="black" stroke="black" points="206.31,-95.35 195.72,-95.22 203.92,-101.92 206.31,-95.35"/>
</g>
<!-- Node5 -->
<g id="Node000005" class="node">
<title>Node5</title>
<g id="a_Node000005"><a xlink:href="group__CRC__Exported__Macros.html" target="_top" xlink:title=" ">
<polygon fill="white" stroke="#666666" points="350.62,-98.75 237.12,-98.75 237.12,-78 350.62,-78 350.62,-98.75"/>
<text text-anchor="middle" x="293.88" y="-85.25" font-family="Helvetica,sans-Serif" font-size="10.00">CRC Exported Macros</text>
</a>
</g>
</g>
<!-- Node1&#45;&gt;Node5 -->
<g id="edge4" class="edge">
<title>Node1&#45;&gt;Node5</title>
<path fill="none" stroke="black" d="M205.77,-88.38C215.2,-88.38 226.05,-88.38 236.81,-88.38"/>
<polygon fill="black" stroke="black" points="205.82,-84.88 195.82,-88.38 205.82,-91.88 205.82,-84.88"/>
</g>
<!-- Node3 -->
<g id="Node000003" class="node">
<title>Node3</title>
<g id="a_Node000003"><a xlink:href="group__CRC__Exported__Types.html" target="_top" xlink:title=" ">
<polygon fill="white" stroke="#666666" points="347.62,-59.75 240.12,-59.75 240.12,-39 347.62,-39 347.62,-59.75"/>
<text text-anchor="middle" x="293.88" y="-46.25" font-family="Helvetica,sans-Serif" font-size="10.00">CRC Exported Types</text>
</a>
</g>
</g>
<!-- Node1&#45;&gt;Node3 -->
<g id="edge2" class="edge">
<title>Node1&#45;&gt;Node3</title>
<path fill="none" stroke="black" d="M205.01,-78.16C213.05,-75.26 221.85,-72.14 230,-69.38 239,-66.32 248.78,-63.15 257.88,-60.25"/>
<polygon fill="black" stroke="black" points="203.92,-74.83 195.72,-81.53 206.31,-81.4 203.92,-74.83"/>
</g>
<!-- Node6 -->
<g id="Node000006" class="node">
<title>Node6</title>
<g id="a_Node000006"><a xlink:href="group__CRC__Private__Macros.html" target="_top" xlink:title=" ">
<polygon fill="white" stroke="#666666" points="345.38,-20.75 242.38,-20.75 242.38,0 345.38,0 345.38,-20.75"/>
<text text-anchor="middle" x="293.88" y="-7.25" font-family="Helvetica,sans-Serif" font-size="10.00">CRC Private Macros</text>
</a>
</g>
</g>
<!-- Node1&#45;&gt;Node6 -->
<g id="edge5" class="edge">
<title>Node1&#45;&gt;Node6</title>
<path fill="none" stroke="black" d="M190.94,-68.6C200.56,-56.05 214.45,-40.35 230,-30.38 235.69,-26.73 242.09,-23.7 248.59,-21.19"/>
<polygon fill="black" stroke="black" points="188.17,-66.46 185.09,-76.6 193.82,-70.6 188.17,-66.46"/>
</g>
<!-- Node2 -->
<g id="Node000002" class="node">
<title>Node2</title>
<g id="a_Node000002"><a xlink:href="group__STM32F4xx__HAL__Driver.html" target="_top" xlink:title=" ">
<polygon fill="white" stroke="#666666" points="122.5,-98.75 0,-98.75 0,-78 122.5,-78 122.5,-98.75"/>
<text text-anchor="middle" x="61.25" y="-85.25" font-family="Helvetica,sans-Serif" font-size="10.00">STM32F4xx_HAL_Driver</text>
</a>
</g>
</g>
<!-- Node2&#45;&gt;Node1 -->
<g id="edge1" class="edge">
<title>Node2&#45;&gt;Node1</title>
<path fill="none" stroke="black" d="M134.16,-88.38C143.02,-88.38 151.34,-88.38 158.13,-88.38"/>
<polygon fill="black" stroke="black" points="134.23,-84.88 124.23,-88.38 134.23,-91.88 134.23,-84.88"/>
</g>
</g>
</svg>
</svg>

<style type='text/css'>
<![CDATA[
[data-mouse-over-selected='false'] { opacity: 0.7; }
[data-mouse-over-selected='true']  { opacity: 1.0; }
]]>
</style>
<script type="application/ecmascript"><![CDATA[
document.addEventListener('DOMContentLoaded', (event) => {
  highlightEdges();
  highlightAdjacentNodes();
});
]]></script>
</svg>
