<?xml version="1.0" encoding="UTF-8" standalone="no"?>
<!DOCTYPE svg PUBLIC "-//W3C//DTD SVG 1.1//EN"
 "http://www.w3.org/Graphics/SVG/1.1/DTD/svg11.dtd">
<!-- Generated by graphviz version 2.43.0 (0)
 -->
<!-- Title: UTILS Exported Functions Pages: 1 -->
<svg width="440pt" height="101pt"
 viewBox="0.00 0.00 440.00 101.00" xmlns="http://www.w3.org/2000/svg" xmlns:xlink="http://www.w3.org/1999/xlink">

<svg id="main" version="1.1" xmlns="http://www.w3.org/2000/svg" xmlns:xlink="http://www.w3.org/1999/xlink" xml:space="preserve">

<style type="text/css"><![CDATA[
.node, .edge {opacity: 0.7;}
.node.selected, .edge.selected {opacity: 1;}
.edge:hover path { stroke: red; }
.edge:hover polygon { stroke: red; fill: red; }
]]></style>
<script type="application/ecmascript" xlink:href="svg.min.js"/>
<svg id="graph" class="graph">
<g id="graph0" class="graph" transform="scale(1 1) rotate(0) translate(4 97)">
<title>UTILS Exported Functions</title>
<!-- Node3 -->
<g id="Node000003" class="node">
<title>Node3</title>
<g id="a_Node000003"><a xlink:href="group__UTILS__EF__DEVICE__ELECTRONIC__SIGNATURE.html" target="_top" xlink:title=" ">
<polygon fill="white" stroke="#666666" points="432,-93 256,-93 256,-74 432,-74 432,-93"/>
<text text-anchor="middle" x="344" y="-81" font-family="Helvetica,sans-Serif" font-size="10.00">DEVICE ELECTRONIC SIGNATURE</text>
</a>
</g>
</g>
<!-- Node5 -->
<g id="Node000005" class="node">
<title>Node5</title>
<g id="a_Node000005"><a xlink:href="group__UTILS__EF__SYSTEM.html" target="_top" xlink:title="System Configuration functions.">
<polygon fill="white" stroke="#666666" points="372,-56 316,-56 316,-37 372,-37 372,-56"/>
<text text-anchor="middle" x="344" y="-44" font-family="Helvetica,sans-Serif" font-size="10.00">SYSTEM</text>
</a>
</g>
</g>
<!-- Node2 -->
<g id="Node000002" class="node">
<title>Node2</title>
<g id="a_Node000002"><a xlink:href="group__UTILS__LL.html" target="_top" xlink:title=" ">
<polygon fill="white" stroke="#666666" points="44,-56 0,-56 0,-37 44,-37 44,-56"/>
<text text-anchor="middle" x="22" y="-44" font-family="Helvetica,sans-Serif" font-size="10.00">UTILS</text>
</a>
</g>
</g>
<!-- Node1 -->
<g id="Node000001" class="node">
<title>Node1</title>
<g id="a_Node000001"><a xlink:title=" ">
<polygon fill="#999999" stroke="#666666" points="220,-56 80,-56 80,-37 220,-37 220,-56"/>
<text text-anchor="middle" x="150" y="-44" font-family="Helvetica,sans-Serif" font-size="10.00">UTILS Exported Functions</text>
</a>
</g>
</g>
<!-- Node2&#45;&gt;Node1 -->
<g id="edge1" class="edge">
<title>Node2&#45;&gt;Node1</title>
<path fill="none" stroke="black" d="M54.25,-46.5C62.16,-46.5 70.97,-46.5 79.95,-46.5"/>
<polygon fill="black" stroke="black" points="54.09,-43 44.09,-46.5 54.09,-50 54.09,-43"/>
</g>
<!-- Node4 -->
<g id="Node000004" class="node">
<title>Node4</title>
<g id="a_Node000004"><a xlink:href="group__UTILS__LL__EF__DELAY.html" target="_top" xlink:title=" ">
<polygon fill="white" stroke="#666666" points="368,-19 320,-19 320,0 368,0 368,-19"/>
<text text-anchor="middle" x="344" y="-7" font-family="Helvetica,sans-Serif" font-size="10.00">DELAY</text>
</a>
</g>
</g>
<!-- Node1&#45;&gt;Node3 -->
<g id="edge2" class="edge">
<title>Node1&#45;&gt;Node3</title>
<path fill="none" stroke="black" d="M210.41,-57.95C237.02,-63.08 268.04,-69.06 293.39,-73.94"/>
<polygon fill="black" stroke="black" points="210.93,-54.48 200.44,-56.03 209.6,-61.36 210.93,-54.48"/>
</g>
<!-- Node1&#45;&gt;Node5 -->
<g id="edge4" class="edge">
<title>Node1&#45;&gt;Node5</title>
<path fill="none" stroke="black" d="M230.26,-46.5C260.7,-46.5 293.45,-46.5 315.77,-46.5"/>
<polygon fill="black" stroke="black" points="230.05,-43 220.05,-46.5 230.05,-50 230.05,-43"/>
</g>
<!-- Node1&#45;&gt;Node4 -->
<g id="edge3" class="edge">
<title>Node1&#45;&gt;Node4</title>
<path fill="none" stroke="black" d="M210.62,-35.01C247.59,-27.89 293,-19.13 319.89,-13.95"/>
<polygon fill="black" stroke="black" points="209.6,-31.64 200.44,-36.97 210.93,-38.52 209.6,-31.64"/>
</g>
</g>
</svg>
</svg>

<style type='text/css'>
<![CDATA[
[data-mouse-over-selected='false'] { opacity: 0.7; }
[data-mouse-over-selected='true']  { opacity: 1.0; }
]]>
</style>
<script type="application/ecmascript"><![CDATA[
document.addEventListener('DOMContentLoaded', (event) => {
  highlightEdges();
  highlightAdjacentNodes();
});
]]></script>
</svg>
