<?xml version="1.0" encoding="UTF-8" standalone="no"?>
<!DOCTYPE svg PUBLIC "-//W3C//DTD SVG 1.1//EN"
 "http://www.w3.org/Graphics/SVG/1.1/DTD/svg11.dtd">
<!-- Generated by graphviz version 2.43.0 (0)
 -->
<!-- Title: HAL_Init Pages: 1 -->
<svg width="425pt" height="119pt"
 viewBox="0.00 0.00 425.00 119.00" xmlns="http://www.w3.org/2000/svg" xmlns:xlink="http://www.w3.org/1999/xlink">

<svg id="main" version="1.1" xmlns="http://www.w3.org/2000/svg" xmlns:xlink="http://www.w3.org/1999/xlink" xml:space="preserve" onload="init(evt)">
<style type="text/css"><![CDATA[
.node, .edge {opacity: 0.7;}
.node.selected, .edge.selected {opacity: 1;}
.edge:hover path { stroke: red; }
.edge:hover polygon { stroke: red; fill: red; }
]]></style>
<script type="application/ecmascript" xlink:href="svg.min.js"/>
<svg id="graph" class="graph">
<g id="graph0" class="graph" transform="scale(1 1) rotate(0) translate(4 115)">
<title>HAL_Init</title>
<!-- Node1 -->
<g id="Node000001" class="node">
<title>Node1</title>
<g id="a_Node000001"><a xlink:title="This function is used to initialize the HAL Library; it must be the first instruction to be executed ...">
<polygon fill="#999999" stroke="#666666" points="57,-56 0,-56 0,-37 57,-37 57,-56"/>
<text text-anchor="middle" x="28.5" y="-44" font-family="Helvetica,sans-Serif" font-size="10.00">HAL_Init</text>
</a>
</g>
</g>
<!-- Node2 -->
<g id="Node000002" class="node">
<title>Node2</title>
<g id="a_Node000002"><a xlink:href="group__HAL__Exported__Functions__Group1.html#ga879cdb21ef051eb81ec51c18147397d5" target="_top" xlink:title="This function configures the source of the time base. The time source is configured to have 1ms time ...">
<polygon fill="white" stroke="#666666" points="214.5,-93 137.5,-93 137.5,-74 214.5,-74 214.5,-93"/>
<text text-anchor="middle" x="176" y="-81" font-family="Helvetica,sans-Serif" font-size="10.00">HAL_InitTick</text>
</a>
</g>
</g>
<!-- Node1&#45;&gt;Node2 -->
<g id="edge1_Node000001_Node000002" class="edge">
<title>Node1&#45;&gt;Node2</title>
<g id="a_edge1_Node000001_Node000002"><a xlink:title=" ">
<path fill="none" stroke="#63b8ff" d="M57.19,-55.28C68.28,-58.66 81.19,-62.44 93,-65.5 104.02,-68.35 115.95,-71.14 127.2,-73.64"/>
<polygon fill="#63b8ff" stroke="#63b8ff" points="126.79,-77.13 137.3,-75.84 128.28,-70.29 126.79,-77.13"/>
</a>
</g>
</g>
<!-- Node5 -->
<g id="Node000005" class="node">
<title>Node5</title>
<g id="a_Node000005"><a xlink:href="group__HAL__Exported__Functions__Group1.html#gae4fb8e66865c87d0ebab74a726a6891f" target="_top" xlink:title="Initialize the MSP.">
<polygon fill="white" stroke="#666666" points="214.5,-56 137.5,-56 137.5,-37 214.5,-37 214.5,-56"/>
<text text-anchor="middle" x="176" y="-44" font-family="Helvetica,sans-Serif" font-size="10.00">HAL_MspInit</text>
</a>
</g>
</g>
<!-- Node1&#45;&gt;Node5 -->
<g id="edge4_Node000001_Node000005" class="edge">
<title>Node1&#45;&gt;Node5</title>
<g id="a_edge4_Node000001_Node000005"><a xlink:title=" ">
<path fill="none" stroke="#63b8ff" d="M57.21,-46.5C77.03,-46.5 104.21,-46.5 127.47,-46.5"/>
<polygon fill="#63b8ff" stroke="#63b8ff" points="127.5,-50 137.5,-46.5 127.5,-43 127.5,-50"/>
</a>
</g>
</g>
<!-- Node6 -->
<g id="Node000006" class="node">
<title>Node6</title>
<g id="a_Node000006"><a xlink:href="group__CORTEX__Exported__Functions__Group1.html#gad9be53e08b1498adea006e5e037f238f" target="_top" xlink:title=" ">
<polygon fill="white" stroke="#666666" points="259,-19 93,-19 93,0 259,0 259,-19"/>
<text text-anchor="middle" x="176" y="-7" font-family="Helvetica,sans-Serif" font-size="10.00">HAL_NVIC_SetPriorityGrouping</text>
</a>
</g>
</g>
<!-- Node1&#45;&gt;Node6 -->
<g id="edge5_Node000001_Node000006" class="edge">
<title>Node1&#45;&gt;Node6</title>
<g id="a_edge5_Node000001_Node000006"><a xlink:title=" ">
<path fill="none" stroke="#63b8ff" d="M57.24,-38.32C68.33,-35.13 81.24,-31.53 93,-28.5 102.35,-26.09 112.33,-23.66 122,-21.38"/>
<polygon fill="#63b8ff" stroke="#63b8ff" points="122.98,-24.75 131.92,-19.07 121.39,-17.93 122.98,-24.75"/>
</a>
</g>
</g>
<!-- Node3 -->
<g id="Node000003" class="node">
<title>Node3</title>
<g id="a_Node000003"><a xlink:href="group__CORTEX__Exported__Functions__Group1.html#ga8581a82025a4780efd00876a66e3e91b" target="_top" xlink:title=" ">
<polygon fill="white" stroke="#666666" points="417,-111 295,-111 295,-92 417,-92 417,-111"/>
<text text-anchor="middle" x="356" y="-99" font-family="Helvetica,sans-Serif" font-size="10.00">HAL_NVIC_SetPriority</text>
</a>
</g>
</g>
<!-- Node2&#45;&gt;Node3 -->
<g id="edge2_Node000002_Node000003" class="edge">
<title>Node2&#45;&gt;Node3</title>
<g id="a_edge2_Node000002_Node000003"><a xlink:title=" ">
<path fill="none" stroke="#63b8ff" d="M214.75,-87.32C235.11,-89.38 260.9,-91.98 284.79,-94.4"/>
<polygon fill="#63b8ff" stroke="#63b8ff" points="284.59,-97.9 294.89,-95.42 285.3,-90.93 284.59,-97.9"/>
</a>
</g>
</g>
<!-- Node4 -->
<g id="Node000004" class="node">
<title>Node4</title>
<g id="a_Node000004"><a xlink:href="group__CORTEX__Exported__Functions__Group1.html#gac3a3f0d53c315523a8e6e7bcac1940cf" target="_top" xlink:title=" ">
<polygon fill="white" stroke="#666666" points="415,-74 297,-74 297,-55 415,-55 415,-74"/>
<text text-anchor="middle" x="356" y="-62" font-family="Helvetica,sans-Serif" font-size="10.00">HAL_SYSTICK_Config</text>
</a>
</g>
</g>
<!-- Node2&#45;&gt;Node4 -->
<g id="edge3_Node000002_Node000004" class="edge">
<title>Node2&#45;&gt;Node4</title>
<g id="a_edge3_Node000002_Node000004"><a xlink:title=" ">
<path fill="none" stroke="#63b8ff" d="M214.75,-79.47C235.74,-77.23 262.49,-74.37 287,-71.76"/>
<polygon fill="#63b8ff" stroke="#63b8ff" points="287.41,-75.24 296.98,-70.69 286.66,-68.27 287.41,-75.24"/>
</a>
</g>
</g>
</g>
</svg>
</svg>

<style type='text/css'>
<![CDATA[
[data-mouse-over-selected='false'] { opacity: 0.7; }
[data-mouse-over-selected='true']  { opacity: 1.0; }
]]>
</style>
<script type="application/ecmascript"><![CDATA[
document.addEventListener('DOMContentLoaded', (event) => {
  highlightEdges();
  highlightAdjacentNodes();
});
]]></script>
</svg>
