<?xml version="1.0" encoding="UTF-8" standalone="no"?>
<!DOCTYPE svg PUBLIC "-//W3C//DTD SVG 1.1//EN"
 "http://www.w3.org/Graphics/SVG/1.1/DTD/svg11.dtd">
<!-- Generated by graphviz version 2.43.0 (0)
 -->
<!-- Title: PWR Exported Functions Pages: 1 -->
<svg width="398pt" height="86pt"
 viewBox="0.00 0.00 398.00 86.00" xmlns="http://www.w3.org/2000/svg" xmlns:xlink="http://www.w3.org/1999/xlink">
<g id="graph0" class="graph" transform="scale(1 1) rotate(0) translate(4 82)">
<title>PWR Exported Functions</title>
<!-- Node2 -->
<g id="Node000002" class="node">
<title>Node2</title>
<g id="a_Node000002"><a xlink:href="group__PWR.html" target="_top" xlink:title="PWR HAL module driver.">
<polygon fill="white" stroke="#666666" points="39,-48.5 0,-48.5 0,-29.5 39,-29.5 39,-48.5"/>
<text text-anchor="middle" x="19.5" y="-36.5" font-family="Helvetica,sans-Serif" font-size="10.00">PWR</text>
</a>
</g>
</g>
<!-- Node1 -->
<g id="Node000001" class="node">
<title>Node1</title>
<g id="a_Node000001"><a xlink:title=" ">
<polygon fill="#999999" stroke="#666666" points="210,-48.5 75,-48.5 75,-29.5 210,-29.5 210,-48.5"/>
<text text-anchor="middle" x="142.5" y="-36.5" font-family="Helvetica,sans-Serif" font-size="10.00">PWR Exported Functions</text>
</a>
</g>
</g>
<!-- Node2&#45;&gt;Node1 -->
<g id="edge1" class="edge">
<title>Node2&#45;&gt;Node1</title>
<path fill="none" stroke="black" d="M49.18,-39C57.05,-39 65.93,-39 75,-39"/>
<polygon fill="black" stroke="black" points="49.14,-35.5 39.14,-39 49.14,-42.5 49.14,-35.5"/>
</g>
<!-- Node3 -->
<g id="Node000003" class="node">
<title>Node3</title>
<g id="a_Node000003"><a xlink:href="group__PWR__Exported__Functions__Group1.html" target="_top" xlink:title=" ">
<polygon fill="white" stroke="#666666" points="390,-78 246,-78 246,-48 390,-48 390,-78"/>
<text text-anchor="start" x="254" y="-66" font-family="Helvetica,sans-Serif" font-size="10.00">Initialization and</text>
<text text-anchor="middle" x="318" y="-55" font-family="Helvetica,sans-Serif" font-size="10.00"> de&#45;initialization functions</text>
</a>
</g>
</g>
<!-- Node1&#45;&gt;Node3 -->
<g id="edge2" class="edge">
<title>Node1&#45;&gt;Node3</title>
<path fill="none" stroke="black" d="M220.1,-49.6C228.71,-50.79 237.45,-52 245.99,-53.18"/>
<polygon fill="black" stroke="black" points="220.47,-46.11 210.08,-48.21 219.51,-53.05 220.47,-46.11"/>
</g>
<!-- Node4 -->
<g id="Node000004" class="node">
<title>Node4</title>
<g id="a_Node000004"><a xlink:href="group__PWR__Exported__Functions__Group2.html" target="_top" xlink:title=" ">
<polygon fill="white" stroke="#666666" points="370,-30 266,-30 266,0 370,0 370,-30"/>
<text text-anchor="start" x="274" y="-18" font-family="Helvetica,sans-Serif" font-size="10.00">Peripheral Control</text>
<text text-anchor="middle" x="318" y="-7" font-family="Helvetica,sans-Serif" font-size="10.00"> functions</text>
</a>
</g>
</g>
<!-- Node1&#45;&gt;Node4 -->
<g id="edge3" class="edge">
<title>Node1&#45;&gt;Node4</title>
<path fill="none" stroke="black" d="M220.18,-28.39C235.68,-26.25 251.61,-24.05 265.96,-22.06"/>
<polygon fill="black" stroke="black" points="219.51,-24.95 210.08,-29.79 220.47,-31.89 219.51,-24.95"/>
</g>
</g>
</svg>
