<?xml version="1.0" encoding="UTF-8" standalone="no"?>
<!DOCTYPE svg PUBLIC "-//W3C//DTD SVG 1.1//EN"
 "http://www.w3.org/Graphics/SVG/1.1/DTD/svg11.dtd">
<!-- Generated by graphviz version 2.43.0 (0)
 -->
<!-- Title: FSMC Low Layer Exported Constants Pages: 1 -->
<svg width="423pt" height="124pt"
 viewBox="0.00 0.00 423.00 123.50" xmlns="http://www.w3.org/2000/svg" xmlns:xlink="http://www.w3.org/1999/xlink">

<svg id="main" version="1.1" xmlns="http://www.w3.org/2000/svg" xmlns:xlink="http://www.w3.org/1999/xlink" xml:space="preserve" onload="init(evt)">
<style type="text/css"><![CDATA[
.node, .edge {opacity: 0.7;}
.node.selected, .edge.selected {opacity: 1;}
.edge:hover path { stroke: red; }
.edge:hover polygon { stroke: red; fill: red; }
]]></style>
<script type="application/ecmascript" xlink:href="svg.min.js"/>
<svg id="graph" class="graph">
<g id="graph0" class="graph" transform="scale(1 1) rotate(0) translate(4 119.5)">
<title>FSMC Low Layer Exported Constants</title>
<!-- Node2 -->
<g id="Node000002" class="node">
<title>Node2</title>
<g id="a_Node000002"><a xlink:href="group__FSMC__LL.html" target="_top" xlink:title=" ">
<polygon fill="white" stroke="#666666" points="59,-72.5 0,-72.5 0,-53.5 59,-53.5 59,-72.5"/>
<text text-anchor="middle" x="29.5" y="-60.5" font-family="Helvetica,sans-Serif" font-size="10.00">FSMC_LL</text>
</a>
</g>
</g>
<!-- Node1 -->
<g id="Node000001" class="node">
<title>Node1</title>
<g id="a_Node000001"><a xlink:title=" ">
<polygon fill="#999999" stroke="#666666" points="238,-78 95,-78 95,-48 238,-48 238,-78"/>
<text text-anchor="start" x="103" y="-66" font-family="Helvetica,sans-Serif" font-size="10.00">FSMC Low Layer Exported</text>
<text text-anchor="middle" x="166.5" y="-55" font-family="Helvetica,sans-Serif" font-size="10.00"> Constants</text>
</a>
</g>
</g>
<!-- Node2&#45;&gt;Node1 -->
<g id="edge1" class="edge">
<title>Node2&#45;&gt;Node1</title>
<path fill="none" stroke="black" d="M69.31,-63C77.39,-63 86.14,-63 94.97,-63"/>
<polygon fill="black" stroke="black" points="69.13,-59.5 59.13,-63 69.13,-66.5 69.13,-59.5"/>
</g>
<!-- Node5 -->
<g id="Node000005" class="node">
<title>Node5</title>
<g id="a_Node000005"><a xlink:href="group__FSMC__LL__Alias__definition.html" target="_top" xlink:title=" ">
<polygon fill="white" stroke="#666666" points="404,-115.5 285,-115.5 285,-96.5 404,-96.5 404,-115.5"/>
<text text-anchor="middle" x="344.5" y="-103.5" font-family="Helvetica,sans-Serif" font-size="10.00">FSMC Alias definition</text>
</a>
</g>
</g>
<!-- Node1&#45;&gt;Node5 -->
<g id="edge4" class="edge">
<title>Node1&#45;&gt;Node5</title>
<path fill="none" stroke="black" d="M238.89,-80.44C261.31,-85.92 285.23,-91.76 304.53,-96.48"/>
<polygon fill="black" stroke="black" points="239.6,-77.01 229.06,-78.04 237.94,-83.81 239.6,-77.01"/>
</g>
<!-- Node4 -->
<g id="Node000004" class="node">
<title>Node4</title>
<g id="a_Node000004"><a xlink:href="group__FSMC__LL__Flag__definition.html" target="_top" xlink:title=" ">
<polygon fill="white" stroke="#666666" points="404.5,-78 284.5,-78 284.5,-48 404.5,-48 404.5,-78"/>
<text text-anchor="start" x="292.5" y="-66" font-family="Helvetica,sans-Serif" font-size="10.00">FSMC Low Layer Flag</text>
<text text-anchor="middle" x="344.5" y="-55" font-family="Helvetica,sans-Serif" font-size="10.00"> definition</text>
</a>
</g>
</g>
<!-- Node1&#45;&gt;Node4 -->
<g id="edge3" class="edge">
<title>Node1&#45;&gt;Node4</title>
<path fill="none" stroke="black" d="M248.26,-63C260.47,-63 272.86,-63 284.5,-63"/>
<polygon fill="black" stroke="black" points="248.07,-59.5 238.07,-63 248.07,-66.5 248.07,-59.5"/>
</g>
<!-- Node3 -->
<g id="Node000003" class="node">
<title>Node3</title>
<g id="a_Node000003"><a xlink:href="group__FSMC__LL__Interrupt__definition.html" target="_top" xlink:title=" ">
<polygon fill="white" stroke="#666666" points="415,-30 274,-30 274,0 415,0 415,-30"/>
<text text-anchor="start" x="282" y="-18" font-family="Helvetica,sans-Serif" font-size="10.00">FSMC Low Layer Interrupt</text>
<text text-anchor="middle" x="344.5" y="-7" font-family="Helvetica,sans-Serif" font-size="10.00"> definition</text>
</a>
</g>
</g>
<!-- Node1&#45;&gt;Node3 -->
<g id="edge2" class="edge">
<title>Node1&#45;&gt;Node3</title>
<path fill="none" stroke="black" d="M232.47,-45.28C250.88,-40.26 270.73,-34.85 288.49,-30"/>
<polygon fill="black" stroke="black" points="231.43,-41.94 222.7,-47.94 233.27,-48.69 231.43,-41.94"/>
</g>
</g>
</svg>
</svg>

<style type='text/css'>
<![CDATA[
[data-mouse-over-selected='false'] { opacity: 0.7; }
[data-mouse-over-selected='true']  { opacity: 1.0; }
]]>
</style>
<script type="application/ecmascript"><![CDATA[
document.addEventListener('DOMContentLoaded', (event) => {
  highlightEdges();
  highlightAdjacentNodes();
});
]]></script>
</svg>
