<?xml version="1.0" encoding="UTF-8" standalone="no"?>
<!DOCTYPE svg PUBLIC "-//W3C//DTD SVG 1.1//EN"
 "http://www.w3.org/Graphics/SVG/1.1/DTD/svg11.dtd">
<!-- Generated by graphviz version 12.2.1 (20241206.2353)
 -->
<!-- Title: CORTEX Exported Constants Pages: 1 -->
<svg width="395pt" height="68pt"
 viewBox="0.00 0.00 395.00 67.75" xmlns="http://www.w3.org/2000/svg" xmlns:xlink="http://www.w3.org/1999/xlink">

<svg id="main" version="1.1" xmlns="http://www.w3.org/2000/svg" xmlns:xlink="http://www.w3.org/1999/xlink" xml:space="preserve">

<style type="text/css"><![CDATA[
.node, .edge {opacity: 0.7;}
.node.selected, .edge.selected {opacity: 1;}
.edge:hover path { stroke: red; }
.edge:hover polygon { stroke: red; fill: red; }
]]></style>
<script type="application/ecmascript" xlink:href="svg.min.js"/>
<svg id="graph" class="graph">
<g id="graph0" class="graph" transform="scale(1 1) rotate(0) translate(4 63.75)">
<title>CORTEX Exported Constants</title>
<!-- Node2 -->
<g id="Node000002" class="node">
<title>Node2</title>
<g id="a_Node000002"><a xlink:href="group__CORTEX__LL.html" target="_top" xlink:title=" ">
<polygon fill="white" stroke="#666666" points="54.25,-39.75 0,-39.75 0,-19 54.25,-19 54.25,-39.75"/>
<text text-anchor="middle" x="27.12" y="-26.25" font-family="Helvetica,sans-Serif" font-size="10.00">CORTEX</text>
</a>
</g>
</g>
<!-- Node1 -->
<g id="Node000001" class="node">
<title>Node1</title>
<g id="a_Node000001"><a xlink:title=" ">
<polygon fill="#999999" stroke="#666666" points="236.75,-39.75 90.25,-39.75 90.25,-19 236.75,-19 236.75,-39.75"/>
<text text-anchor="middle" x="163.5" y="-26.25" font-family="Helvetica,sans-Serif" font-size="10.00">CORTEX Exported Constants</text>
</a>
</g>
</g>
<!-- Node2&#45;&gt;Node1 -->
<g id="edge1" class="edge">
<title>Node2&#45;&gt;Node1</title>
<path fill="none" stroke="black" d="M65.98,-29.38C73.54,-29.38 81.72,-29.38 90,-29.38"/>
<polygon fill="black" stroke="black" points="66.19,-25.88 56.19,-29.38 66.19,-32.88 66.19,-25.88"/>
</g>
<!-- Node3 -->
<g id="Node000003" class="node">
<title>Node3</title>
<g id="a_Node000003"><a xlink:href="group__CORTEX__LL__EC__CLKSOURCE__HCLK.html" target="_top" xlink:title=" ">
<polygon fill="white" stroke="#666666" points="387,-59.75 272.75,-59.75 272.75,-39 387,-39 387,-59.75"/>
<text text-anchor="middle" x="329.88" y="-46.25" font-family="Helvetica,sans-Serif" font-size="10.00">SYSTICK Clock Source</text>
</a>
</g>
</g>
<!-- Node4 -->
<g id="Node000004" class="node">
<title>Node4</title>
<g id="a_Node000004"><a xlink:href="group__CORTEX__LL__EC__FAULT.html" target="_top" xlink:title=" ">
<polygon fill="white" stroke="#666666" points="379.88,-20.75 279.88,-20.75 279.88,0 379.88,0 379.88,-20.75"/>
<text text-anchor="middle" x="329.88" y="-7.25" font-family="Helvetica,sans-Serif" font-size="10.00">Handler Fault type</text>
</a>
</g>
</g>
<!-- Node1&#45;&gt;Node3 -->
<g id="edge2" class="edge">
<title>Node1&#45;&gt;Node3</title>
<path fill="none" stroke="black" d="M248.25,-39.57C256.46,-40.56 264.65,-41.56 272.49,-42.51"/>
<polygon fill="black" stroke="black" points="248.93,-36.12 238.58,-38.39 248.08,-43.07 248.93,-36.12"/>
</g>
<!-- Node1&#45;&gt;Node4 -->
<g id="edge3" class="edge">
<title>Node1&#45;&gt;Node4</title>
<path fill="none" stroke="black" d="M248.3,-19.69C259.09,-18.44 269.84,-17.2 279.81,-16.05"/>
<polygon fill="black" stroke="black" points="248.11,-16.19 238.58,-20.81 248.92,-23.14 248.11,-16.19"/>
</g>
</g>
</svg>
</svg>

<style type='text/css'>
<![CDATA[
[data-mouse-over-selected='false'] { opacity: 0.7; }
[data-mouse-over-selected='true']  { opacity: 1.0; }
]]>
</style>
<script type="application/ecmascript"><![CDATA[
document.addEventListener('DOMContentLoaded', (event) => {
  highlightEdges();
  highlightAdjacentNodes();
});
]]></script>
</svg>
