<?xml version="1.0" encoding="UTF-8" standalone="no"?>
<!DOCTYPE svg PUBLIC "-//W3C//DTD SVG 1.1//EN"
 "http://www.w3.org/Graphics/SVG/1.1/DTD/svg11.dtd">
<!-- Generated by graphviz version 12.2.1 (20241206.2353)
 -->
<!-- Title: CORTEX Pages: 1 -->
<svg width="407pt" height="146pt"
 viewBox="0.00 0.00 407.00 145.75" xmlns="http://www.w3.org/2000/svg" xmlns:xlink="http://www.w3.org/1999/xlink">
<g id="page0,1_graph0" class="graph" transform="scale(1 1) rotate(0) translate(4 141.75)">
<title>CORTEX</title>
<!-- Node1 -->
<g id="Node000001" class="node">
<title>Node1</title>
<g id="a_Node000001"><a xlink:title="CORTEX HAL module driver.">
<polygon fill="#999999" stroke="#666666" points="212.75,-78.75 158.5,-78.75 158.5,-58 212.75,-58 212.75,-78.75"/>
<text text-anchor="middle" x="185.62" y="-65.25" font-family="Helvetica,sans-Serif" font-size="10.00">CORTEX</text>
</a>
</g>
</g>
<!-- Node4 -->
<g id="Node000004" class="node">
<title>Node4</title>
<g id="a_Node000004"><a xlink:href="group__CORTEX__Exported__Constants.html" target="_top" xlink:title=" ">
<polygon fill="white" stroke="#666666" points="397.12,-137.75 250.62,-137.75 250.62,-117 397.12,-117 397.12,-137.75"/>
<text text-anchor="middle" x="323.88" y="-124.25" font-family="Helvetica,sans-Serif" font-size="10.00">CORTEX Exported Constants</text>
</a>
</g>
</g>
<!-- Node1&#45;&gt;Node4 -->
<g id="edge3" class="edge">
<title>Node1&#45;&gt;Node4</title>
<path fill="none" stroke="black" d="M209.89,-85.3C221.19,-92.89 235.21,-101.46 248.75,-107.38 256.93,-110.95 265.91,-114.03 274.7,-116.62"/>
<polygon fill="black" stroke="black" points="212.21,-82.65 202,-79.82 208.22,-88.4 212.21,-82.65"/>
</g>
<!-- Node6 -->
<g id="Node000006" class="node">
<title>Node6</title>
<g id="a_Node000006"><a xlink:href="group__CORTEX__Exported__Functions.html" target="_top" xlink:title=" ">
<polygon fill="white" stroke="#666666" points="399,-98.75 248.75,-98.75 248.75,-78 399,-78 399,-98.75"/>
<text text-anchor="middle" x="323.88" y="-85.25" font-family="Helvetica,sans-Serif" font-size="10.00">CORTEX_Exported_Functions</text>
</a>
</g>
</g>
<!-- Node1&#45;&gt;Node6 -->
<g id="edge5" class="edge">
<title>Node1&#45;&gt;Node6</title>
<path fill="none" stroke="black" d="M224.58,-73.95C232.19,-75.06 240.43,-76.27 248.79,-77.5"/>
<polygon fill="black" stroke="black" points="225.12,-70.49 214.72,-72.5 224.1,-77.41 225.12,-70.49"/>
</g>
<!-- Node3 -->
<g id="Node000003" class="node">
<title>Node3</title>
<g id="a_Node000003"><a xlink:href="group__CORTEX__Exported__Types.html" target="_top" xlink:title=" ">
<polygon fill="white" stroke="#666666" points="382.88,-59.75 264.88,-59.75 264.88,-39 382.88,-39 382.88,-59.75"/>
<text text-anchor="middle" x="323.88" y="-46.25" font-family="Helvetica,sans-Serif" font-size="10.00">Cortex Exported Types</text>
</a>
</g>
</g>
<!-- Node1&#45;&gt;Node3 -->
<g id="edge2" class="edge">
<title>Node1&#45;&gt;Node3</title>
<path fill="none" stroke="black" d="M224.51,-63.09C236.9,-61.36 250.95,-59.4 264.49,-57.52"/>
<polygon fill="black" stroke="black" points="224.14,-59.61 214.72,-64.46 225.11,-66.54 224.14,-59.61"/>
</g>
<!-- Node5 -->
<g id="Node000005" class="node">
<title>Node5</title>
<g id="a_Node000005"><a xlink:href="group__CORTEX__Private__Macros.html" target="_top" xlink:title=" ">
<polygon fill="white" stroke="#666666" points="384.75,-20.75 263,-20.75 263,0 384.75,0 384.75,-20.75"/>
<text text-anchor="middle" x="323.88" y="-7.25" font-family="Helvetica,sans-Serif" font-size="10.00">CORTEX Private Macros</text>
</a>
</g>
</g>
<!-- Node1&#45;&gt;Node5 -->
<g id="edge4" class="edge">
<title>Node1&#45;&gt;Node5</title>
<path fill="none" stroke="black" d="M210.75,-51.4C221.91,-44.13 235.59,-36.04 248.75,-30.38 256.95,-26.85 265.94,-23.79 274.74,-21.21"/>
<polygon fill="black" stroke="black" points="208.9,-48.42 202.55,-56.9 212.8,-54.23 208.9,-48.42"/>
</g>
<!-- Node2 -->
<g id="Node000002" class="node">
<title>Node2</title>
<g id="a_Node000002"><a xlink:href="group__STM32F4xx__HAL__Driver.html" target="_top" xlink:title=" ">
<polygon fill="white" stroke="#666666" points="122.5,-78.75 0,-78.75 0,-58 122.5,-58 122.5,-78.75"/>
<text text-anchor="middle" x="61.25" y="-65.25" font-family="Helvetica,sans-Serif" font-size="10.00">STM32F4xx_HAL_Driver</text>
</a>
</g>
</g>
<!-- Node2&#45;&gt;Node1 -->
<g id="edge1" class="edge">
<title>Node2&#45;&gt;Node1</title>
<path fill="none" stroke="black" d="M134.01,-68.38C142.52,-68.38 150.75,-68.38 158.01,-68.38"/>
<polygon fill="black" stroke="black" points="134.23,-64.88 124.23,-68.38 134.23,-71.88 134.23,-64.88"/>
</g>
</g>
</svg>
