<?xml version="1.0" encoding="UTF-8" standalone="no"?>
<!DOCTYPE svg PUBLIC "-//W3C//DTD SVG 1.1//EN"
 "http://www.w3.org/Graphics/SVG/1.1/DTD/svg11.dtd">
<!-- Generated by graphviz version 2.43.0 (0)
 -->
<!-- Title: FLASH Pages: 1 -->
<svg width="412pt" height="286pt"
 viewBox="0.00 0.00 412.00 286.00" xmlns="http://www.w3.org/2000/svg" xmlns:xlink="http://www.w3.org/1999/xlink">

<svg id="main" version="1.1" xmlns="http://www.w3.org/2000/svg" xmlns:xlink="http://www.w3.org/1999/xlink" xml:space="preserve">

<style type="text/css"><![CDATA[
.node, .edge {opacity: 0.7;}
.node.selected, .edge.selected {opacity: 1;}
.edge:hover path { stroke: red; }
.edge:hover polygon { stroke: red; fill: red; }
]]></style>
<script type="application/ecmascript" xlink:href="svg.min.js"/>
<svg id="graph" class="graph">
<g id="graph0" class="graph" transform="scale(1 1) rotate(0) translate(4 282)">
<title>FLASH</title>
<!-- Node1 -->
<g id="Node000001" class="node">
<title>Node1</title>
<g id="a_Node000001"><a xlink:title="FLASH HAL module driver.">
<polygon fill="#999999" stroke="#666666" points="219,-148 170,-148 170,-129 219,-129 219,-148"/>
<text text-anchor="middle" x="194.5" y="-136" font-family="Helvetica,sans-Serif" font-size="10.00">FLASH</text>
</a>
</g>
</g>
<!-- Node4 -->
<g id="Node000004" class="node">
<title>Node4</title>
<g id="a_Node000004"><a xlink:href="group__FLASH__Exported__Constants.html" target="_top" xlink:title=" ">
<polygon fill="white" stroke="#666666" points="403,-278 256,-278 256,-259 403,-259 403,-278"/>
<text text-anchor="middle" x="329.5" y="-266" font-family="Helvetica,sans-Serif" font-size="10.00">FLASH Exported Constants</text>
</a>
</g>
</g>
<!-- Node1&#45;&gt;Node4 -->
<g id="edge3" class="edge">
<title>Node1&#45;&gt;Node4</title>
<path fill="none" stroke="black" d="M200.46,-157.9C207.94,-183.14 224.58,-226.82 255,-250.5 259.35,-253.89 264.26,-256.65 269.41,-258.9"/>
<polygon fill="black" stroke="black" points="203.76,-156.73 197.72,-148.02 197.02,-158.6 203.76,-156.73"/>
</g>
<!-- Node10 -->
<g id="Node000010" class="node">
<title>Node10</title>
<g id="a_Node000010"><a xlink:href="group__FLASH__Exported__Functions.html" target="_top" xlink:title=" ">
<polygon fill="white" stroke="#666666" points="404,-241 255,-241 255,-222 404,-222 404,-241"/>
<text text-anchor="middle" x="329.5" y="-229" font-family="Helvetica,sans-Serif" font-size="10.00">FLASH_Exported_Functions</text>
</a>
</g>
</g>
<!-- Node1&#45;&gt;Node10 -->
<g id="edge9" class="edge">
<title>Node1&#45;&gt;Node10</title>
<path fill="none" stroke="black" d="M205.59,-157.38C215.78,-174.61 233.13,-199.48 255,-213.5 260.31,-216.9 266.21,-219.66 272.3,-221.9"/>
<polygon fill="black" stroke="black" points="208.4,-155.24 200.44,-148.25 202.31,-158.68 208.4,-155.24"/>
</g>
<!-- Node5 -->
<g id="Node000005" class="node">
<title>Node5</title>
<g id="a_Node000005"><a xlink:href="group__FLASH__Exported__Macros.html" target="_top" xlink:title=" ">
<polygon fill="white" stroke="#666666" points="396.5,-204 262.5,-204 262.5,-185 396.5,-185 396.5,-204"/>
<text text-anchor="middle" x="329.5" y="-192" font-family="Helvetica,sans-Serif" font-size="10.00">FLASH Exported Macros</text>
</a>
</g>
</g>
<!-- Node1&#45;&gt;Node5 -->
<g id="edge4" class="edge">
<title>Node1&#45;&gt;Node5</title>
<path fill="none" stroke="black" d="M216.17,-154.09C227.21,-161.78 241.31,-170.64 255,-176.5 262.73,-179.81 271.19,-182.59 279.53,-184.89"/>
<polygon fill="black" stroke="black" points="218.21,-151.25 208.05,-148.25 214.12,-156.93 218.21,-151.25"/>
</g>
<!-- Node3 -->
<g id="Node000003" class="node">
<title>Node3</title>
<g id="a_Node000003"><a xlink:href="group__FLASH__Exported__Types.html" target="_top" xlink:title=" ">
<polygon fill="white" stroke="#666666" points="392.5,-167 266.5,-167 266.5,-148 392.5,-148 392.5,-167"/>
<text text-anchor="middle" x="329.5" y="-155" font-family="Helvetica,sans-Serif" font-size="10.00">FLASH Exported Types</text>
</a>
</g>
</g>
<!-- Node1&#45;&gt;Node3 -->
<g id="edge2" class="edge">
<title>Node1&#45;&gt;Node3</title>
<path fill="none" stroke="black" d="M229.51,-143.36C240.78,-144.97 253.7,-146.81 266.4,-148.63"/>
<polygon fill="black" stroke="black" points="229.67,-139.85 219.28,-141.9 228.68,-146.78 229.67,-139.85"/>
</g>
<!-- Node7 -->
<g id="Node000007" class="node">
<title>Node7</title>
<g id="a_Node000007"><a xlink:href="group__FLASH__Private__Constants.html" target="_top" xlink:title=" ">
<polygon fill="white" stroke="#666666" points="398.5,-130 260.5,-130 260.5,-111 398.5,-111 398.5,-130"/>
<text text-anchor="middle" x="329.5" y="-118" font-family="Helvetica,sans-Serif" font-size="10.00">FLASH Private Constants</text>
</a>
</g>
</g>
<!-- Node1&#45;&gt;Node7 -->
<g id="edge6" class="edge">
<title>Node1&#45;&gt;Node7</title>
<path fill="none" stroke="black" d="M229.46,-133.9C238.98,-132.62 249.67,-131.17 260.42,-129.71"/>
<polygon fill="black" stroke="black" points="228.72,-130.47 219.28,-135.28 229.66,-137.41 228.72,-130.47"/>
</g>
<!-- Node9 -->
<g id="Node000009" class="node">
<title>Node9</title>
<g id="a_Node000009"><a xlink:href="group__FLASH__Private__Functions.html" target="_top" xlink:title=" ">
<polygon fill="white" stroke="#666666" points="397.5,-93 261.5,-93 261.5,-74 397.5,-74 397.5,-93"/>
<text text-anchor="middle" x="329.5" y="-81" font-family="Helvetica,sans-Serif" font-size="10.00">FLASH Private Functions</text>
</a>
</g>
</g>
<!-- Node1&#45;&gt;Node9 -->
<g id="edge8" class="edge">
<title>Node1&#45;&gt;Node9</title>
<path fill="none" stroke="black" d="M216.99,-122.83C227.92,-115.47 241.69,-107.1 255,-101.5 262.87,-98.19 271.48,-95.4 279.95,-93.08"/>
<polygon fill="black" stroke="black" points="214.76,-120.11 208.54,-128.69 218.75,-125.86 214.76,-120.11"/>
</g>
<!-- Node8 -->
<g id="Node000008" class="node">
<title>Node8</title>
<g id="a_Node000008"><a xlink:href="group__FLASH__Private__Macros.html" target="_top" xlink:title=" ">
<polygon fill="white" stroke="#666666" points="392,-56 267,-56 267,-37 392,-37 392,-56"/>
<text text-anchor="middle" x="329.5" y="-44" font-family="Helvetica,sans-Serif" font-size="10.00">FLASH Private Macros</text>
</a>
</g>
</g>
<!-- Node1&#45;&gt;Node8 -->
<g id="edge7" class="edge">
<title>Node1&#45;&gt;Node8</title>
<path fill="none" stroke="black" d="M205.65,-119.87C215.89,-102.87 233.26,-78.34 255,-64.5 260.32,-61.11 266.23,-58.36 272.32,-56.13"/>
<polygon fill="black" stroke="black" points="202.42,-118.46 200.47,-128.88 208.49,-121.96 202.42,-118.46"/>
</g>
<!-- Node6 -->
<g id="Node000006" class="node">
<title>Node6</title>
<g id="a_Node000006"><a xlink:href="group__FLASH__Private__Variables.html" target="_top" xlink:title=" ">
<polygon fill="white" stroke="#666666" points="396.5,-19 262.5,-19 262.5,0 396.5,0 396.5,-19"/>
<text text-anchor="middle" x="329.5" y="-7" font-family="Helvetica,sans-Serif" font-size="10.00">FLASH Private Variables</text>
</a>
</g>
</g>
<!-- Node1&#45;&gt;Node6 -->
<g id="edge5" class="edge">
<title>Node1&#45;&gt;Node6</title>
<path fill="none" stroke="black" d="M200.62,-118.9C208.21,-93.82 224.89,-50.84 255,-27.5 259.36,-24.12 264.27,-21.36 269.43,-19.12"/>
<polygon fill="black" stroke="black" points="197.19,-118.16 197.83,-128.74 203.93,-120.07 197.19,-118.16"/>
</g>
<!-- Node2 -->
<g id="Node000002" class="node">
<title>Node2</title>
<g id="a_Node000002"><a xlink:href="group__STM32F4xx__HAL__Driver.html" target="_top" xlink:title=" ">
<polygon fill="white" stroke="#666666" points="134,-148 0,-148 0,-129 134,-129 134,-148"/>
<text text-anchor="middle" x="67" y="-136" font-family="Helvetica,sans-Serif" font-size="10.00">STM32F4xx_HAL_Driver</text>
</a>
</g>
</g>
<!-- Node2&#45;&gt;Node1 -->
<g id="edge1" class="edge">
<title>Node2&#45;&gt;Node1</title>
<path fill="none" stroke="black" d="M144.24,-138.5C153.5,-138.5 162.36,-138.5 169.94,-138.5"/>
<polygon fill="black" stroke="black" points="144.06,-135 134.06,-138.5 144.06,-142 144.06,-135"/>
</g>
</g>
</svg>
</svg>

<style type='text/css'>
<![CDATA[
[data-mouse-over-selected='false'] { opacity: 0.7; }
[data-mouse-over-selected='true']  { opacity: 1.0; }
]]>
</style>
<script type="application/ecmascript"><![CDATA[
document.addEventListener('DOMContentLoaded', (event) => {
  highlightEdges();
  highlightAdjacentNodes();
});
]]></script>
</svg>
