<?xml version="1.0" encoding="UTF-8" standalone="no"?>
<!DOCTYPE svg PUBLIC "-//W3C//DTD SVG 1.1//EN"
 "http://www.w3.org/Graphics/SVG/1.1/DTD/svg11.dtd">
<!-- Generated by graphviz version 2.43.0 (0)
 -->
<!-- Title: RTC Pages: 1 -->
<svg width="384pt" height="249pt"
 viewBox="0.00 0.00 384.00 249.00" xmlns="http://www.w3.org/2000/svg" xmlns:xlink="http://www.w3.org/1999/xlink">

<svg id="main" version="1.1" xmlns="http://www.w3.org/2000/svg" xmlns:xlink="http://www.w3.org/1999/xlink" xml:space="preserve" onload="init(evt)">
<style type="text/css"><![CDATA[
.node, .edge {opacity: 0.7;}
.node.selected, .edge.selected {opacity: 1;}
.edge:hover path { stroke: red; }
.edge:hover polygon { stroke: red; fill: red; }
]]></style>
<script type="application/ecmascript" xlink:href="svg.min.js"/>
<svg id="graph" class="graph">
<g id="graph0" class="graph" transform="scale(1 1) rotate(0) translate(4 245)">
<title>RTC</title>
<!-- Node1 -->
<g id="Node000001" class="node">
<title>Node1</title>
<g id="a_Node000001"><a xlink:title="RTC HAL module driver.">
<polygon fill="#999999" stroke="#666666" points="205,-130 170,-130 170,-111 205,-111 205,-130"/>
<text text-anchor="middle" x="187.5" y="-118" font-family="Helvetica,sans-Serif" font-size="10.00">RTC</text>
</a>
</g>
</g>
<!-- Node4 -->
<g id="Node000004" class="node">
<title>Node4</title>
<g id="a_Node000004"><a xlink:href="group__RTC__Exported__Constants.html" target="_top" xlink:title=" ">
<polygon fill="white" stroke="#666666" points="375,-241 242,-241 242,-222 375,-222 375,-241"/>
<text text-anchor="middle" x="308.5" y="-229" font-family="Helvetica,sans-Serif" font-size="10.00">RTC Exported Constants</text>
</a>
</g>
</g>
<!-- Node1&#45;&gt;Node4 -->
<g id="edge3" class="edge">
<title>Node1&#45;&gt;Node4</title>
<path fill="none" stroke="black" d="M194.28,-139.59C201.69,-160.79 216.58,-194.52 241,-213.5 245.44,-216.95 250.49,-219.74 255.78,-221.99"/>
<polygon fill="black" stroke="black" points="197.6,-138.46 191.16,-130.05 190.95,-140.64 197.6,-138.46"/>
</g>
<!-- Node9 -->
<g id="Node000009" class="node">
<title>Node9</title>
<g id="a_Node000009"><a xlink:href="group__RTC__Exported__Functions.html" target="_top" xlink:title=" ">
<polygon fill="white" stroke="#666666" points="376,-204 241,-204 241,-185 376,-185 376,-204"/>
<text text-anchor="middle" x="308.5" y="-192" font-family="Helvetica,sans-Serif" font-size="10.00">RTC_Exported_Functions</text>
</a>
</g>
</g>
<!-- Node1&#45;&gt;Node9 -->
<g id="edge8" class="edge">
<title>Node1&#45;&gt;Node9</title>
<path fill="none" stroke="black" d="M201.22,-138.65C210.8,-151.04 225.01,-166.89 241,-176.5 246.64,-179.89 252.92,-182.65 259.32,-184.9"/>
<polygon fill="black" stroke="black" points="203.85,-136.33 195.09,-130.38 198.23,-140.5 203.85,-136.33"/>
</g>
<!-- Node5 -->
<g id="Node000005" class="node">
<title>Node5</title>
<g id="a_Node000005"><a xlink:href="group__RTC__Exported__Macros.html" target="_top" xlink:title=" ">
<polygon fill="white" stroke="#666666" points="368,-167 249,-167 249,-148 368,-148 368,-167"/>
<text text-anchor="middle" x="308.5" y="-155" font-family="Helvetica,sans-Serif" font-size="10.00">RTC Exported Macros</text>
</a>
</g>
</g>
<!-- Node1&#45;&gt;Node5 -->
<g id="edge4" class="edge">
<title>Node1&#45;&gt;Node5</title>
<path fill="none" stroke="black" d="M214.95,-130.56C223.24,-133.58 232.46,-136.8 241,-139.5 250.35,-142.45 260.54,-145.36 270.06,-147.95"/>
<polygon fill="black" stroke="black" points="216,-127.21 205.4,-127.02 213.56,-133.78 216,-127.21"/>
</g>
<!-- Node3 -->
<g id="Node000003" class="node">
<title>Node3</title>
<g id="a_Node000003"><a xlink:href="group__RTC__Exported__Types.html" target="_top" xlink:title=" ">
<polygon fill="white" stroke="#666666" points="364.5,-130 252.5,-130 252.5,-111 364.5,-111 364.5,-130"/>
<text text-anchor="middle" x="308.5" y="-118" font-family="Helvetica,sans-Serif" font-size="10.00">RTC Exported Types</text>
</a>
</g>
</g>
<!-- Node1&#45;&gt;Node3 -->
<g id="edge2" class="edge">
<title>Node1&#45;&gt;Node3</title>
<path fill="none" stroke="black" d="M215.25,-120.5C226.26,-120.5 239.45,-120.5 252.37,-120.5"/>
<polygon fill="black" stroke="black" points="215.05,-117 205.05,-120.5 215.05,-124 215.05,-117"/>
</g>
<!-- Node6 -->
<g id="Node000006" class="node">
<title>Node6</title>
<g id="a_Node000006"><a xlink:href="group__RTC__Private__Constants.html" target="_top" xlink:title=" ">
<polygon fill="white" stroke="#666666" points="370.5,-93 246.5,-93 246.5,-74 370.5,-74 370.5,-93"/>
<text text-anchor="middle" x="308.5" y="-81" font-family="Helvetica,sans-Serif" font-size="10.00">RTC Private Constants</text>
</a>
</g>
</g>
<!-- Node1&#45;&gt;Node6 -->
<g id="edge5" class="edge">
<title>Node1&#45;&gt;Node6</title>
<path fill="none" stroke="black" d="M214.95,-110.44C223.24,-107.42 232.46,-104.2 241,-101.5 250.35,-98.55 260.54,-95.64 270.06,-93.05"/>
<polygon fill="black" stroke="black" points="213.56,-107.22 205.4,-113.98 216,-113.79 213.56,-107.22"/>
</g>
<!-- Node8 -->
<g id="Node000008" class="node">
<title>Node8</title>
<g id="a_Node000008"><a xlink:href="group__RTC__Private__Functions.html" target="_top" xlink:title=" ">
<polygon fill="white" stroke="#666666" points="369.5,-56 247.5,-56 247.5,-37 369.5,-37 369.5,-56"/>
<text text-anchor="middle" x="308.5" y="-44" font-family="Helvetica,sans-Serif" font-size="10.00">RTC Private Functions</text>
</a>
</g>
</g>
<!-- Node1&#45;&gt;Node8 -->
<g id="edge7" class="edge">
<title>Node1&#45;&gt;Node8</title>
<path fill="none" stroke="black" d="M201.22,-102.35C210.8,-89.96 225.01,-74.11 241,-64.5 246.64,-61.11 252.92,-58.35 259.32,-56.1"/>
<polygon fill="black" stroke="black" points="198.23,-100.5 195.09,-110.62 203.85,-104.67 198.23,-100.5"/>
</g>
<!-- Node7 -->
<g id="Node000007" class="node">
<title>Node7</title>
<g id="a_Node000007"><a xlink:href="group__RTC__Private__Macros.html" target="_top" xlink:title=" ">
<polygon fill="white" stroke="#666666" points="363.5,-19 253.5,-19 253.5,0 363.5,0 363.5,-19"/>
<text text-anchor="middle" x="308.5" y="-7" font-family="Helvetica,sans-Serif" font-size="10.00">RTC Private Macros</text>
</a>
</g>
</g>
<!-- Node1&#45;&gt;Node7 -->
<g id="edge6" class="edge">
<title>Node1&#45;&gt;Node7</title>
<path fill="none" stroke="black" d="M194.28,-101.41C201.69,-80.21 216.58,-46.48 241,-27.5 245.44,-24.05 250.49,-21.26 255.78,-19.01"/>
<polygon fill="black" stroke="black" points="190.95,-100.36 191.16,-110.95 197.6,-102.54 190.95,-100.36"/>
</g>
<!-- Node2 -->
<g id="Node000002" class="node">
<title>Node2</title>
<g id="a_Node000002"><a xlink:href="group__STM32F4xx__HAL__Driver.html" target="_top" xlink:title=" ">
<polygon fill="white" stroke="#666666" points="134,-130 0,-130 0,-111 134,-111 134,-130"/>
<text text-anchor="middle" x="67" y="-118" font-family="Helvetica,sans-Serif" font-size="10.00">STM32F4xx_HAL_Driver</text>
</a>
</g>
</g>
<!-- Node2&#45;&gt;Node1 -->
<g id="edge1" class="edge">
<title>Node2&#45;&gt;Node1</title>
<path fill="none" stroke="black" d="M144.21,-120.5C153.66,-120.5 162.49,-120.5 169.6,-120.5"/>
<polygon fill="black" stroke="black" points="144.18,-117 134.18,-120.5 144.18,-124 144.18,-117"/>
</g>
</g>
</svg>
</svg>

<style type='text/css'>
<![CDATA[
[data-mouse-over-selected='false'] { opacity: 0.7; }
[data-mouse-over-selected='true']  { opacity: 1.0; }
]]>
</style>
<script type="application/ecmascript"><![CDATA[
document.addEventListener('DOMContentLoaded', (event) => {
  highlightEdges();
  highlightAdjacentNodes();
});
]]></script>
</svg>
