<?xml version="1.0" encoding="UTF-8" standalone="no"?>
<!DOCTYPE svg PUBLIC "-//W3C//DTD SVG 1.1//EN"
 "http://www.w3.org/Graphics/SVG/1.1/DTD/svg11.dtd">
<!-- Generated by graphviz version 12.2.1 (20241206.2353)
 -->
<!-- Title: HAL_InitTick Pages: 1 -->
<svg width="255pt" height="224pt"
 viewBox="0.00 0.00 254.50 223.75" xmlns="http://www.w3.org/2000/svg" xmlns:xlink="http://www.w3.org/1999/xlink">

<svg id="main" version="1.1" xmlns="http://www.w3.org/2000/svg" xmlns:xlink="http://www.w3.org/1999/xlink" xml:space="preserve">

<style type="text/css"><![CDATA[
.node, .edge {opacity: 0.7;}
.node.selected, .edge.selected {opacity: 1;}
.edge:hover path { stroke: red; }
.edge:hover polygon { stroke: red; fill: red; }
]]></style>
<script type="application/ecmascript" xlink:href="svg.min.js"/>
<svg id="graph" class="graph">
<g id="graph0" class="graph" transform="scale(1 1) rotate(0) translate(4 219.75)">
<title>HAL_InitTick</title>
<!-- Node1 -->
<g id="Node000001" class="node">
<title>Node1</title>
<g id="a_Node000001"><a xlink:title="This function configures the TIM6 as a time base source. The time source is configured to have 1ms ti...">
<polygon fill="#999999" stroke="#666666" points="73,-117.75 0,-117.75 0,-97 73,-97 73,-117.75"/>
<text text-anchor="middle" x="36.5" y="-104.25" font-family="Helvetica,sans-Serif" font-size="10.00">HAL_InitTick</text>
</a>
</g>
</g>
<!-- Node2 -->
<g id="Node000002" class="node">
<title>Node2</title>
<g id="a_Node000002"><a xlink:href="group__CORTEX__Exported__Functions__Group1.html#gaaad4492c1b25e006d69948a15790352a" target="_top" xlink:title=" ">
<polygon fill="white" stroke="#666666" points="236,-215.75 119.5,-215.75 119.5,-195 236,-195 236,-215.75"/>
<text text-anchor="middle" x="177.75" y="-202.25" font-family="Helvetica,sans-Serif" font-size="10.00">HAL_NVIC_EnableIRQ</text>
</a>
</g>
</g>
<!-- Node1&#45;&gt;Node2 -->
<g id="edge1_Node000001_Node000002" class="edge">
<title>Node1&#45;&gt;Node2</title>
<g id="a_edge1_Node000001_Node000002"><a xlink:title=" ">
<path fill="none" stroke="#63b8ff" d="M44.48,-118.17C55.93,-135.01 80.33,-167.48 109,-185.38 111.78,-187.11 114.72,-188.7 117.75,-190.16"/>
<polygon fill="#63b8ff" stroke="#63b8ff" points="116.36,-193.37 126.94,-194.03 119.08,-186.92 116.36,-193.37"/>
</a>
</g>
</g>
<!-- Node3 -->
<g id="Node000003" class="node">
<title>Node3</title>
<g id="a_Node000003"><a xlink:href="group__CORTEX__Exported__Functions__Group1.html#ga8581a82025a4780efd00876a66e3e91b" target="_top" xlink:title=" ">
<polygon fill="white" stroke="#666666" points="235.25,-176.75 120.25,-176.75 120.25,-156 235.25,-156 235.25,-176.75"/>
<text text-anchor="middle" x="177.75" y="-163.25" font-family="Helvetica,sans-Serif" font-size="10.00">HAL_NVIC_SetPriority</text>
</a>
</g>
</g>
<!-- Node1&#45;&gt;Node3 -->
<g id="edge2_Node000001_Node000003" class="edge">
<title>Node1&#45;&gt;Node3</title>
<g id="a_edge2_Node000001_Node000003"><a xlink:title=" ">
<path fill="none" stroke="#63b8ff" d="M54.91,-118.23C69.08,-126.73 89.8,-138.41 109,-146.38 113.91,-148.41 119.1,-150.33 124.33,-152.12"/>
<polygon fill="#63b8ff" stroke="#63b8ff" points="123.03,-155.37 133.62,-155.12 125.18,-148.71 123.03,-155.37"/>
</a>
</g>
</g>
<!-- Node4 -->
<g id="Node000004" class="node">
<title>Node4</title>
<g id="a_Node000004"><a xlink:href="group__RCC__Exported__Functions__Group2.html#gabc95375dfca279d88b9ded9d063d2323" target="_top" xlink:title=" ">
<polygon fill="white" stroke="#666666" points="246.5,-137.75 109,-137.75 109,-117 246.5,-117 246.5,-137.75"/>
<text text-anchor="middle" x="177.75" y="-124.25" font-family="Helvetica,sans-Serif" font-size="10.00">HAL_RCC_GetClockConfig</text>
</a>
</g>
</g>
<!-- Node1&#45;&gt;Node4 -->
<g id="edge3_Node000001_Node000004" class="edge">
<title>Node1&#45;&gt;Node4</title>
<g id="a_edge3_Node000001_Node000004"><a xlink:title=" ">
<path fill="none" stroke="#63b8ff" d="M73.36,-112.53C80.78,-113.59 88.88,-114.76 97.18,-115.95"/>
<polygon fill="#63b8ff" stroke="#63b8ff" points="96.66,-119.41 107.06,-117.37 97.66,-112.48 96.66,-119.41"/>
</a>
</g>
</g>
<!-- Node5 -->
<g id="Node000005" class="node">
<title>Node5</title>
<g id="a_Node000005"><a xlink:href="group__RCC__Exported__Functions__Group2.html#gab3042d8ac5703ac696cabf0ee461c599" target="_top" xlink:title=" ">
<polygon fill="white" stroke="#666666" points="243.12,-98.75 112.38,-98.75 112.38,-78 243.12,-78 243.12,-98.75"/>
<text text-anchor="middle" x="177.75" y="-85.25" font-family="Helvetica,sans-Serif" font-size="10.00">HAL_RCC_GetPCLK1Freq</text>
</a>
</g>
</g>
<!-- Node1&#45;&gt;Node5 -->
<g id="edge4_Node000001_Node000005" class="edge">
<title>Node1&#45;&gt;Node5</title>
<g id="a_edge4_Node000001_Node000005"><a xlink:title=" ">
<path fill="none" stroke="#63b8ff" d="M73.36,-102.48C81.87,-101.32 91.28,-100.04 100.84,-98.73"/>
<polygon fill="#63b8ff" stroke="#63b8ff" points="101.16,-102.22 110.6,-97.4 100.21,-95.29 101.16,-102.22"/>
</a>
</g>
</g>
<!-- Node6 -->
<g id="Node000006" class="node">
<title>Node6</title>
<g id="a_Node000006"><a xlink:href="group__TIM__Exported__Functions__Group1.html#ga1b288eb68eb52c97b8d187cdd6e9088f" target="_top" xlink:title=" ">
<polygon fill="white" stroke="#666666" points="229.62,-59.75 125.88,-59.75 125.88,-39 229.62,-39 229.62,-59.75"/>
<text text-anchor="middle" x="177.75" y="-46.25" font-family="Helvetica,sans-Serif" font-size="10.00">HAL_TIM_Base_Init</text>
</a>
</g>
</g>
<!-- Node1&#45;&gt;Node6 -->
<g id="edge5_Node000001_Node000006" class="edge">
<title>Node1&#45;&gt;Node6</title>
<g id="a_edge5_Node000001_Node000006"><a xlink:title=" ">
<path fill="none" stroke="#63b8ff" d="M55.23,-96.66C69.42,-88.4 90,-77.14 109,-69.38 113.92,-67.36 119.12,-65.46 124.36,-63.69"/>
<polygon fill="#63b8ff" stroke="#63b8ff" points="125.2,-67.09 133.65,-60.7 123.06,-60.43 125.2,-67.09"/>
</a>
</g>
</g>
<!-- Node7 -->
<g id="Node000007" class="node">
<title>Node7</title>
<g id="a_Node000007"><a xlink:href="group__TIM__Exported__Functions__Group1.html#gae517d80e2ac713069767df8e8915971e" target="_top" xlink:title=" ">
<polygon fill="white" stroke="#666666" points="240.12,-20.75 115.38,-20.75 115.38,0 240.12,0 240.12,-20.75"/>
<text text-anchor="middle" x="177.75" y="-7.25" font-family="Helvetica,sans-Serif" font-size="10.00">HAL_TIM_Base_Start_IT</text>
</a>
</g>
</g>
<!-- Node1&#45;&gt;Node7 -->
<g id="edge6_Node000001_Node000007" class="edge">
<title>Node1&#45;&gt;Node7</title>
<g id="a_edge6_Node000001_Node000007"><a xlink:title=" ">
<path fill="none" stroke="#63b8ff" d="M44.51,-96.72C56.01,-80.1 80.47,-48.05 109,-30.38 111.79,-28.65 114.73,-27.07 117.76,-25.61"/>
<polygon fill="#63b8ff" stroke="#63b8ff" points="119.09,-28.85 126.96,-21.75 116.38,-22.4 119.09,-28.85"/>
</a>
</g>
</g>
</g>
</svg>
</svg>

<style type='text/css'>
<![CDATA[
[data-mouse-over-selected='false'] { opacity: 0.7; }
[data-mouse-over-selected='true']  { opacity: 1.0; }
]]>
</style>
<script type="application/ecmascript"><![CDATA[
document.addEventListener('DOMContentLoaded', (event) => {
  highlightEdges();
  highlightAdjacentNodes();
});
]]></script>
</svg>
