<?xml version="1.0" encoding="UTF-8" standalone="no"?>
<!DOCTYPE svg PUBLIC "-//W3C//DTD SVG 1.1//EN"
 "http://www.w3.org/Graphics/SVG/1.1/DTD/svg11.dtd">
<!-- Generated by graphviz version 2.43.0 (0)
 -->
<!-- Title: LL_PLL_ConfigSystemClock_HSI Pages: 1 -->
<svg width="551pt" height="125pt"
 viewBox="0.00 0.00 551.00 125.00" xmlns="http://www.w3.org/2000/svg" xmlns:xlink="http://www.w3.org/1999/xlink">
<g id="graph0" class="graph" transform="scale(1 1) rotate(0) translate(4 121)">
<title>LL_PLL_ConfigSystemClock_HSI</title>
<!-- Node1 -->
<g id="Node000001" class="node">
<title>Node1</title>
<g id="a_Node000001"><a xlink:title="This function configures system clock at maximum frequency with HSI as clock source of the PLL.">
<polygon fill="#999999" stroke="#666666" points="170,-56 0,-56 0,-37 170,-37 170,-56"/>
<text text-anchor="middle" x="85" y="-44" font-family="Helvetica,sans-Serif" font-size="10.00">LL_PLL_ConfigSystemClock_HSI</text>
</a>
</g>
</g>
<!-- Node2 -->
<g id="Node000002" class="node">
<title>Node2</title>
<g id="a_Node000002"><a xlink:href="group__UTILS__LL__Private__Functions.html#ga320bd51e9a0bfdf2fa1da4a24bb05fc0" target="_top" xlink:title="Function to enable PLL and switch system clock to PLL.">
<polygon fill="white" stroke="#666666" points="365,-104.5 214,-104.5 214,-74.5 365,-74.5 365,-104.5"/>
<text text-anchor="start" x="222" y="-92.5" font-family="Helvetica,sans-Serif" font-size="10.00">UTILS_EnablePLLAndSwitch</text>
<text text-anchor="middle" x="289.5" y="-81.5" font-family="Helvetica,sans-Serif" font-size="10.00">System</text>
</a>
</g>
</g>
<!-- Node1&#45;&gt;Node2 -->
<g id="edge1_Node000001_Node000002" class="edge">
<title>Node1&#45;&gt;Node2</title>
<g id="a_edge1_Node000001_Node000002"><a xlink:title=" ">
<path fill="none" stroke="#63b8ff" d="M130.94,-56.04C153.57,-60.85 181.7,-66.82 207.9,-72.38"/>
<polygon fill="#63b8ff" stroke="#63b8ff" points="207.32,-75.84 217.83,-74.49 208.78,-68.99 207.32,-75.84"/>
</a>
</g>
</g>
<!-- Node5 -->
<g id="Node000005" class="node">
<title>Node5</title>
<g id="a_Node000005"><a xlink:href="group__UTILS__LL__Private__Functions.html#gae40ed31572a8b64837e7f6d8eda0f4e2" target="_top" xlink:title="Function to check that PLL can be modified.">
<polygon fill="white" stroke="#666666" points="373,-56 206,-56 206,-37 373,-37 373,-56"/>
<text text-anchor="middle" x="289.5" y="-44" font-family="Helvetica,sans-Serif" font-size="10.00">UTILS_GetPLLOutputFrequency</text>
</a>
</g>
</g>
<!-- Node1&#45;&gt;Node5 -->
<g id="edge4_Node000001_Node000005" class="edge">
<title>Node1&#45;&gt;Node5</title>
<g id="a_edge4_Node000001_Node000005"><a xlink:title=" ">
<path fill="none" stroke="#63b8ff" d="M170.12,-46.5C178.63,-46.5 187.31,-46.5 195.91,-46.5"/>
<polygon fill="#63b8ff" stroke="#63b8ff" points="195.95,-50 205.94,-46.5 195.94,-43 195.95,-50"/>
</a>
</g>
</g>
<!-- Node6 -->
<g id="Node000006" class="node">
<title>Node6</title>
<g id="a_Node000006"><a xlink:href="group__UTILS__LL__Private__Functions.html#ga4242342336a76627fc39a7e145dbf3c7" target="_top" xlink:title="Function to check that PLL can be modified.">
<polygon fill="white" stroke="#666666" points="341.5,-19 237.5,-19 237.5,0 341.5,0 341.5,-19"/>
<text text-anchor="middle" x="289.5" y="-7" font-family="Helvetica,sans-Serif" font-size="10.00">UTILS_PLL_IsBusy</text>
</a>
</g>
</g>
<!-- Node1&#45;&gt;Node6 -->
<g id="edge5_Node000001_Node000006" class="edge">
<title>Node1&#45;&gt;Node6</title>
<g id="a_edge5_Node000001_Node000006"><a xlink:title=" ">
<path fill="none" stroke="#63b8ff" d="M138.15,-36.97C165.4,-31.99 198.92,-25.87 227.39,-20.67"/>
<polygon fill="#63b8ff" stroke="#63b8ff" points="228.02,-24.11 237.23,-18.87 226.76,-17.22 228.02,-24.11"/>
</a>
</g>
</g>
<!-- Node3 -->
<g id="Node000003" class="node">
<title>Node3</title>
<g id="a_Node000003"><a xlink:href="group__UTILS__EF__SYSTEM.html#ga74f71dc4b93a3b99e5f9e042e85e2ce5" target="_top" xlink:title="Update number of Flash wait states in line with new frequency and current voltage range.">
<polygon fill="white" stroke="#666666" points="532.5,-117 419.5,-117 419.5,-98 532.5,-98 532.5,-117"/>
<text text-anchor="middle" x="476" y="-105" font-family="Helvetica,sans-Serif" font-size="10.00">LL_SetFlashLatency</text>
</a>
</g>
</g>
<!-- Node2&#45;&gt;Node3 -->
<g id="edge2_Node000002_Node000003" class="edge">
<title>Node2&#45;&gt;Node3</title>
<g id="a_edge2_Node000002_Node000003"><a xlink:title=" ">
<path fill="none" stroke="#63b8ff" d="M365.01,-96.77C379.58,-98.19 394.76,-99.67 409.02,-101.06"/>
<polygon fill="#63b8ff" stroke="#63b8ff" points="408.93,-104.57 419.23,-102.06 409.61,-97.6 408.93,-104.57"/>
</a>
</g>
</g>
<!-- Node4 -->
<g id="Node000004" class="node">
<title>Node4</title>
<g id="a_Node000004"><a xlink:href="group__UTILS__EF__SYSTEM.html#ga5af902d59c4c2d9dc5e189df0bc71ecd" target="_top" xlink:title="This function sets directly SystemCoreClock CMSIS variable.">
<polygon fill="white" stroke="#666666" points="543,-80 409,-80 409,-61 543,-61 543,-80"/>
<text text-anchor="middle" x="476" y="-68" font-family="Helvetica,sans-Serif" font-size="10.00">LL_SetSystemCoreClock</text>
</a>
</g>
</g>
<!-- Node2&#45;&gt;Node4 -->
<g id="edge3_Node000002_Node000004" class="edge">
<title>Node2&#45;&gt;Node4</title>
<g id="a_edge3_Node000002_Node000004"><a xlink:title=" ">
<path fill="none" stroke="#63b8ff" d="M365.01,-81.83C376.11,-80.68 387.57,-79.5 398.71,-78.36"/>
<polygon fill="#63b8ff" stroke="#63b8ff" points="399.24,-81.82 408.83,-77.31 398.53,-74.86 399.24,-81.82"/>
</a>
</g>
</g>
</g>
</svg>
