<?xml version="1.0" encoding="UTF-8" standalone="no"?>
<!DOCTYPE svg PUBLIC "-//W3C//DTD SVG 1.1//EN"
 "http://www.w3.org/Graphics/SVG/1.1/DTD/svg11.dtd">
<!-- Generated by graphviz version 12.2.1 (20241206.2353)
 -->
<!-- Title: STM32F4xx_HAL_Driver Pages: 1 -->
<!--zoomable 2160 -->

<svg id="main" version="1.1" xmlns="http://www.w3.org/2000/svg" xmlns:xlink="http://www.w3.org/1999/xlink" xml:space="preserve" onload="init(evt)">

<style type="text/css"><![CDATA[
.node, .edge {opacity: 0.7;}
.node.selected, .edge.selected {opacity: 1;}
.edge:hover path { stroke: red; }
.edge:hover polygon { stroke: red; fill: red; }
]]></style>

<defs>
  <circle id="rim" cx="0" cy="0" r="7"/>
  <circle id="rim2" cx="0" cy="0" r="3.5"/>
  <g id="zoomPlus">
    <use xlink:href="#rim" fill="#404040"><set attributeName="fill" to="#808080" begin="zoomplus.mouseover" end="zoomplus.mouseout"/></use>
    <path d="M-4,0h8M0,-4v8" fill="none" stroke="white" stroke-width="1.5" pointer-events="none"/>
  </g>
  <g id="zoomMin">
    <use xlink:href="#rim" fill="#404040"><set attributeName="fill" to="#808080" begin="zoomminus.mouseover" end="zoomminus.mouseout"/></use>
    <path d="M-4,0h8" fill="none" stroke="white" stroke-width="1.5" pointer-events="none"/>
  </g>
  <g id="arrowUp" transform="translate(30 24)">
    <use xlink:href="#rim"/>
    <path pointer-events="none" fill="none" stroke="white" stroke-width="1.5" d="M0,-3.0v7 M-2.5,-0.5L0,-3.0L2.5,-0.5"/>
  </g>
  <g id="arrowRight" transform="rotate(90) translate(36 -43)">
    <use xlink:href="#rim"/>
    <path pointer-events="none" fill="none" stroke="white" stroke-width="1.5" d="M0,-3.0v7 M-2.5,-0.5L0,-3.0L2.5,-0.5"/>
  </g>
  <g id="arrowDown" transform="rotate(180) translate(-30 -48)">
    <use xlink:href="#rim"/>
    <path pointer-events="none" fill="none" stroke="white" stroke-width="1.5" d="M0,-3.0v7 M-2.5,-0.5L0,-3.0L2.5,-0.5"/>
  </g>
  <g id="arrowLeft" transform="rotate(270) translate(-36 17)">
    <use xlink:href="#rim"/>
    <path pointer-events="none" fill="none" stroke="white" stroke-width="1.5" d="M0,-3.0v7 M-2.5,-0.5L0,-3.0L2.5,-0.5"/>
  </g>
  <g id="resetDef">
    <use xlink:href="#rim2" fill="#404040"><set attributeName="fill" to="#808080" begin="reset.mouseover" end="reset.mouseout"/></use>
  </g>
</defs>
<script type="application/ecmascript">
var viewWidth = 309;
var viewHeight = 2160;
var sectionId = 'dynsection-0';
</script>
<script type="application/ecmascript" xlink:href="svg.min.js"/>
<svg id="graph" class="graph">
<g id="viewport">
<title>STM32F4xx_HAL_Driver</title>
<!-- Node8 -->
<g id="Node000008" class="node">
<title>Node8</title>
<g id="a_Node000008"><a xlink:href="group__ADC.html" target="_top" xlink:title="ADC driver modules.">
<polygon fill="white" stroke="#666666" points="247.25,-2151.75 211.75,-2151.75 211.75,-2131 247.25,-2131 247.25,-2151.75"/>
<text text-anchor="middle" x="229.5" y="-2138.25" font-family="Helvetica,sans-Serif" font-size="10.00">ADC</text>
</a>
</g>
</g>
<!-- Node9 -->
<g id="Node000009" class="node">
<title>Node9</title>
<g id="a_Node000009"><a xlink:href="group__ADCEx.html" target="_top" xlink:title="ADC Extended driver modules.">
<polygon fill="white" stroke="#666666" points="252.5,-2112.75 206.5,-2112.75 206.5,-2092 252.5,-2092 252.5,-2112.75"/>
<text text-anchor="middle" x="229.5" y="-2099.25" font-family="Helvetica,sans-Serif" font-size="10.00">ADCEx</text>
</a>
</g>
</g>
<!-- Node10 -->
<g id="Node000010" class="node">
<title>Node10</title>
<g id="a_Node000010"><a xlink:href="group__CEC.html" target="_top" xlink:title="HAL CEC module driver.">
<polygon fill="white" stroke="#666666" points="247.25,-2073.75 211.75,-2073.75 211.75,-2053 247.25,-2053 247.25,-2073.75"/>
<text text-anchor="middle" x="229.5" y="-2060.25" font-family="Helvetica,sans-Serif" font-size="10.00">CEC</text>
</a>
</g>
</g>
<!-- Node11 -->
<g id="Node000011" class="node">
<title>Node11</title>
<g id="a_Node000011"><a xlink:href="group__CORTEX.html" target="_top" xlink:title="CORTEX HAL module driver.">
<polygon fill="white" stroke="#666666" points="256.62,-2034.75 202.38,-2034.75 202.38,-2014 256.62,-2014 256.62,-2034.75"/>
<text text-anchor="middle" x="229.5" y="-2021.25" font-family="Helvetica,sans-Serif" font-size="10.00">CORTEX</text>
</a>
</g>
</g>
<!-- Node12 -->
<g id="Node000012" class="node">
<title>Node12</title>
<g id="a_Node000012"><a xlink:href="group__CRC.html" target="_top" xlink:title="CRC HAL module driver.">
<polygon fill="white" stroke="#666666" points="247.25,-1995.75 211.75,-1995.75 211.75,-1975 247.25,-1975 247.25,-1995.75"/>
<text text-anchor="middle" x="229.5" y="-1982.25" font-family="Helvetica,sans-Serif" font-size="10.00">CRC</text>
</a>
</g>
</g>
<!-- Node51 -->
<g id="Node000051" class="node">
<title>Node51</title>
<g id="a_Node000051"><a xlink:href="group__CRYPEx.html" target="_top" xlink:title=" ">
<polygon fill="white" stroke="#666666" points="255.12,-1956.75 203.88,-1956.75 203.88,-1936 255.12,-1936 255.12,-1956.75"/>
<text text-anchor="middle" x="229.5" y="-1943.25" font-family="Helvetica,sans-Serif" font-size="10.00">CRYPEx</text>
</a>
</g>
</g>
<!-- Node13 -->
<g id="Node000013" class="node">
<title>Node13</title>
<g id="a_Node000013"><a xlink:href="group__DCMI.html" target="_top" xlink:title="DCMI HAL module driver.">
<polygon fill="white" stroke="#666666" points="249.88,-1917.75 209.12,-1917.75 209.12,-1897 249.88,-1897 249.88,-1917.75"/>
<text text-anchor="middle" x="229.5" y="-1904.25" font-family="Helvetica,sans-Serif" font-size="10.00">DCMI</text>
</a>
</g>
</g>
<!-- Node14 -->
<g id="Node000014" class="node">
<title>Node14</title>
<g id="a_Node000014"><a xlink:href="group__DCMIEx.html" target="_top" xlink:title="DCMI Extended HAL module driver.">
<polygon fill="white" stroke="#666666" points="255.12,-1878.75 203.88,-1878.75 203.88,-1858 255.12,-1858 255.12,-1878.75"/>
<text text-anchor="middle" x="229.5" y="-1865.25" font-family="Helvetica,sans-Serif" font-size="10.00">DCMIEx</text>
</a>
</g>
</g>
<!-- Node15 -->
<g id="Node000015" class="node">
<title>Node15</title>
<g id="a_Node000015"><a xlink:href="group__DMA.html" target="_top" xlink:title="DMA HAL module driver.">
<polygon fill="white" stroke="#666666" points="248,-1839.75 211,-1839.75 211,-1819 248,-1819 248,-1839.75"/>
<text text-anchor="middle" x="229.5" y="-1826.25" font-family="Helvetica,sans-Serif" font-size="10.00">DMA</text>
</a>
</g>
</g>
<!-- Node16 -->
<g id="Node000016" class="node">
<title>Node16</title>
<g id="a_Node000016"><a xlink:href="group__DMAEx.html" target="_top" xlink:title="DMA Extended HAL module driver.">
<polygon fill="white" stroke="#666666" points="253.25,-1800.75 205.75,-1800.75 205.75,-1780 253.25,-1780 253.25,-1800.75"/>
<text text-anchor="middle" x="229.5" y="-1787.25" font-family="Helvetica,sans-Serif" font-size="10.00">DMAEx</text>
</a>
</g>
</g>
<!-- Node2 -->
<g id="Node000002" class="node">
<title>Node2</title>
<g id="a_Node000002"><a xlink:href="group__EXTI.html" target="_top" xlink:title="EXTI HAL module driver.">
<polygon fill="white" stroke="#666666" points="248,-1761.75 211,-1761.75 211,-1741 248,-1741 248,-1761.75"/>
<text text-anchor="middle" x="229.5" y="-1748.25" font-family="Helvetica,sans-Serif" font-size="10.00">EXTI</text>
</a>
</g>
</g>
<!-- Node17 -->
<g id="Node000017" class="node">
<title>Node17</title>
<g id="a_Node000017"><a xlink:href="group__FLASH.html" target="_top" xlink:title="FLASH HAL module driver.">
<polygon fill="white" stroke="#666666" points="252.5,-1722.75 206.5,-1722.75 206.5,-1702 252.5,-1702 252.5,-1722.75"/>
<text text-anchor="middle" x="229.5" y="-1709.25" font-family="Helvetica,sans-Serif" font-size="10.00">FLASH</text>
</a>
</g>
</g>
<!-- Node18 -->
<g id="Node000018" class="node">
<title>Node18</title>
<g id="a_Node000018"><a xlink:href="group__FLASHEx.html" target="_top" xlink:title="FLASH HAL Extension module driver.">
<polygon fill="white" stroke="#666666" points="257.75,-1683.75 201.25,-1683.75 201.25,-1663 257.75,-1663 257.75,-1683.75"/>
<text text-anchor="middle" x="229.5" y="-1670.25" font-family="Helvetica,sans-Serif" font-size="10.00">FLASHEx</text>
</a>
</g>
</g>
<!-- Node19 -->
<g id="Node000019" class="node">
<title>Node19</title>
<g id="a_Node000019"><a xlink:href="group__FLASH__RAMFUNC.html" target="_top" xlink:title="FLASH functions executed from RAM.">
<polygon fill="white" stroke="#666666" points="277.25,-1644.75 181.75,-1644.75 181.75,-1624 277.25,-1624 277.25,-1644.75"/>
<text text-anchor="middle" x="229.5" y="-1631.25" font-family="Helvetica,sans-Serif" font-size="10.00">FLASH RAMFUNC</text>
</a>
</g>
</g>
<!-- Node54 -->
<g id="Node000054" class="node">
<title>Node54</title>
<g id="a_Node000054"><a xlink:href="group__FMC__LL.html" target="_top" xlink:title=" ">
<polygon fill="white" stroke="#666666" points="255.88,-1605.75 203.12,-1605.75 203.12,-1585 255.88,-1585 255.88,-1605.75"/>
<text text-anchor="middle" x="229.5" y="-1592.25" font-family="Helvetica,sans-Serif" font-size="10.00">FMC_LL</text>
</a>
</g>
</g>
<!-- Node5 -->
<g id="Node000005" class="node">
<title>Node5</title>
<g id="a_Node000005"><a xlink:href="group__FMC__LL__Private__Macros.html" target="_top" xlink:title=" ">
<polygon fill="white" stroke="#666666" points="290.75,-1566.75 168.25,-1566.75 168.25,-1546 290.75,-1546 290.75,-1566.75"/>
<text text-anchor="middle" x="229.5" y="-1553.25" font-family="Helvetica,sans-Serif" font-size="10.00">FMC_LL &#160;Private Macros</text>
</a>
</g>
</g>
<!-- Node20 -->
<g id="Node000020" class="node">
<title>Node20</title>
<g id="a_Node000020"><a xlink:href="group__FMPI2C.html" target="_top" xlink:title="FMPI2C HAL module driver.">
<polygon fill="white" stroke="#666666" points="255.12,-1527.75 203.88,-1527.75 203.88,-1507 255.12,-1507 255.12,-1527.75"/>
<text text-anchor="middle" x="229.5" y="-1514.25" font-family="Helvetica,sans-Serif" font-size="10.00">FMPI2C</text>
</a>
</g>
</g>
<!-- Node21 -->
<g id="Node000021" class="node">
<title>Node21</title>
<g id="a_Node000021"><a xlink:href="group__FMPI2CEx.html" target="_top" xlink:title="FMPI2C Extended HAL module driver.">
<polygon fill="white" stroke="#666666" points="260.38,-1488.75 198.62,-1488.75 198.62,-1468 260.38,-1468 260.38,-1488.75"/>
<text text-anchor="middle" x="229.5" y="-1475.25" font-family="Helvetica,sans-Serif" font-size="10.00">FMPI2CEx</text>
</a>
</g>
</g>
<!-- Node22 -->
<g id="Node000022" class="node">
<title>Node22</title>
<g id="a_Node000022"><a xlink:href="group__FMPSMBUS.html" target="_top" xlink:title="FMPSMBUS HAL module driver.">
<polygon fill="white" stroke="#666666" points="263.38,-1449.75 195.62,-1449.75 195.62,-1429 263.38,-1429 263.38,-1449.75"/>
<text text-anchor="middle" x="229.5" y="-1436.25" font-family="Helvetica,sans-Serif" font-size="10.00">FMPSMBUS</text>
</a>
</g>
</g>
<!-- Node23 -->
<g id="Node000023" class="node">
<title>Node23</title>
<g id="a_Node000023"><a xlink:href="group__FMPSMBUSEx.html" target="_top" xlink:title="FMPSMBUS Extended HAL module driver.">
<polygon fill="white" stroke="#666666" points="268.62,-1410.75 190.38,-1410.75 190.38,-1390 268.62,-1390 268.62,-1410.75"/>
<text text-anchor="middle" x="229.5" y="-1397.25" font-family="Helvetica,sans-Serif" font-size="10.00">FMPSMBUSEx</text>
</a>
</g>
</g>
<!-- Node55 -->
<g id="Node000055" class="node">
<title>Node55</title>
<g id="a_Node000055"><a xlink:href="group__FSMC__LL.html" target="_top" xlink:title=" ">
<polygon fill="white" stroke="#666666" points="258.5,-1371.75 200.5,-1371.75 200.5,-1351 258.5,-1351 258.5,-1371.75"/>
<text text-anchor="middle" x="229.5" y="-1358.25" font-family="Helvetica,sans-Serif" font-size="10.00">FSMC_LL</text>
</a>
</g>
</g>
<!-- Node6 -->
<g id="Node000006" class="node">
<title>Node6</title>
<g id="a_Node000006"><a xlink:href="group__FSMC__LL__Private__Macros.html" target="_top" xlink:title=" ">
<polygon fill="white" stroke="#666666" points="293.38,-1332.75 165.62,-1332.75 165.62,-1312 293.38,-1312 293.38,-1332.75"/>
<text text-anchor="middle" x="229.5" y="-1319.25" font-family="Helvetica,sans-Serif" font-size="10.00">FSMC_LL &#160;Private Macros</text>
</a>
</g>
</g>
<!-- Node24 -->
<g id="Node000024" class="node">
<title>Node24</title>
<g id="a_Node000024"><a xlink:href="group__GPIO.html" target="_top" xlink:title="GPIO HAL module driver.">
<polygon fill="white" stroke="#666666" points="249.5,-1293.75 209.5,-1293.75 209.5,-1273 249.5,-1273 249.5,-1293.75"/>
<text text-anchor="middle" x="229.5" y="-1280.25" font-family="Helvetica,sans-Serif" font-size="10.00">GPIO</text>
</a>
</g>
</g>
<!-- Node3 -->
<g id="Node000003" class="node">
<title>Node3</title>
<g id="a_Node000003"><a xlink:href="group__GPIOEx.html" target="_top" xlink:title=" ">
<polygon fill="white" stroke="#666666" points="254.75,-1254.75 204.25,-1254.75 204.25,-1234 254.75,-1234 254.75,-1254.75"/>
<text text-anchor="middle" x="229.5" y="-1241.25" font-family="Helvetica,sans-Serif" font-size="10.00">GPIOEx</text>
</a>
</g>
</g>
<!-- Node7 -->
<g id="Node000007" class="node">
<title>Node7</title>
<g id="a_Node000007"><a xlink:href="group__HAL.html" target="_top" xlink:title="HAL module driver.">
<polygon fill="white" stroke="#666666" points="246.88,-1215.75 212.12,-1215.75 212.12,-1195 246.88,-1195 246.88,-1215.75"/>
<text text-anchor="middle" x="229.5" y="-1202.25" font-family="Helvetica,sans-Serif" font-size="10.00">HAL</text>
</a>
</g>
</g>
<!-- Node30 -->
<g id="Node000030" class="node">
<title>Node30</title>
<g id="a_Node000030"><a xlink:href="group__HAL__MSP.html" target="_top" xlink:title="HAL MSP module.">
<polygon fill="white" stroke="#666666" points="257.75,-1176.75 201.25,-1176.75 201.25,-1156 257.75,-1156 257.75,-1176.75"/>
<text text-anchor="middle" x="229.5" y="-1163.25" font-family="Helvetica,sans-Serif" font-size="10.00">HAL MSP</text>
</a>
</g>
</g>
<!-- Node47 -->
<g id="Node000047" class="node">
<title>Node47</title>
<g id="a_Node000047"><a xlink:href="group__HAL__TimeBase__RTC__Alarm__Template.html" target="_top" xlink:title=" ">
<polygon fill="white" stroke="#666666" points="294.88,-1138.12 164.12,-1138.12 164.12,-1104.62 294.88,-1104.62 294.88,-1138.12"/>
<text text-anchor="start" x="172.12" y="-1124.62" font-family="Helvetica,sans-Serif" font-size="10.00">HAL TimeBase RTC Alarm</text>
<text text-anchor="middle" x="229.5" y="-1111.88" font-family="Helvetica,sans-Serif" font-size="10.00"> Template</text>
</a>
</g>
</g>
<!-- Node48 -->
<g id="Node000048" class="node">
<title>Node48</title>
<g id="a_Node000048"><a xlink:href="group__HAL__TimeBase__RTC__WakeUp__Template.html" target="_top" xlink:title=" ">
<polygon fill="white" stroke="#666666" points="300.5,-1086.12 158.5,-1086.12 158.5,-1052.62 300.5,-1052.62 300.5,-1086.12"/>
<text text-anchor="start" x="166.5" y="-1072.62" font-family="Helvetica,sans-Serif" font-size="10.00">HAL TimeBase RTC WakeUp</text>
<text text-anchor="middle" x="229.5" y="-1059.88" font-family="Helvetica,sans-Serif" font-size="10.00"> Template</text>
</a>
</g>
</g>
<!-- Node56 -->
<g id="Node000056" class="node">
<title>Node56</title>
<g id="a_Node000056"><a xlink:href="group__HAL__TimeBase__TIM.html" target="_top" xlink:title=" ">
<polygon fill="white" stroke="#666666" points="282.5,-1034.75 176.5,-1034.75 176.5,-1014 282.5,-1014 282.5,-1034.75"/>
<text text-anchor="middle" x="229.5" y="-1021.25" font-family="Helvetica,sans-Serif" font-size="10.00">HAL_TimeBase_TIM</text>
</a>
</g>
</g>
<!-- Node25 -->
<g id="Node000025" class="node">
<title>Node25</title>
<g id="a_Node000025"><a xlink:href="group__I2C.html" target="_top" xlink:title="I2C HAL module driver.">
<polygon fill="white" stroke="#666666" points="245,-995.75 214,-995.75 214,-975 245,-975 245,-995.75"/>
<text text-anchor="middle" x="229.5" y="-982.25" font-family="Helvetica,sans-Serif" font-size="10.00">I2C</text>
</a>
</g>
</g>
<!-- Node26 -->
<g id="Node000026" class="node">
<title>Node26</title>
<g id="a_Node000026"><a xlink:href="group__I2CEx.html" target="_top" xlink:title="I2C HAL module driver.">
<polygon fill="white" stroke="#666666" points="250.25,-956.75 208.75,-956.75 208.75,-936 250.25,-936 250.25,-956.75"/>
<text text-anchor="middle" x="229.5" y="-943.25" font-family="Helvetica,sans-Serif" font-size="10.00">I2CEx</text>
</a>
</g>
</g>
<!-- Node52 -->
<g id="Node000052" class="node">
<title>Node52</title>
<g id="a_Node000052"><a xlink:href="group__I2S.html" target="_top" xlink:title=" ">
<polygon fill="white" stroke="#666666" points="244.25,-917.75 214.75,-917.75 214.75,-897 244.25,-897 244.25,-917.75"/>
<text text-anchor="middle" x="229.5" y="-904.25" font-family="Helvetica,sans-Serif" font-size="10.00">I2S</text>
</a>
</g>
</g>
<!-- Node27 -->
<g id="Node000027" class="node">
<title>Node27</title>
<g id="a_Node000027"><a xlink:href="group__IRDA.html" target="_top" xlink:title="HAL IRDA module driver.">
<polygon fill="white" stroke="#666666" points="248.38,-878.75 210.62,-878.75 210.62,-858 248.38,-858 248.38,-878.75"/>
<text text-anchor="middle" x="229.5" y="-865.25" font-family="Helvetica,sans-Serif" font-size="10.00">IRDA</text>
</a>
</g>
</g>
<!-- Node4 -->
<g id="Node000004" class="node">
<title>Node4</title>
<g id="a_Node000004"><a xlink:href="group__IWDG.html" target="_top" xlink:title=" ">
<polygon fill="white" stroke="#666666" points="251,-839.75 208,-839.75 208,-819 251,-819 251,-839.75"/>
<text text-anchor="middle" x="229.5" y="-826.25" font-family="Helvetica,sans-Serif" font-size="10.00">IWDG</text>
</a>
</g>
</g>
<!-- Node28 -->
<g id="Node000028" class="node">
<title>Node28</title>
<g id="a_Node000028"><a xlink:href="group__LPTIM.html" target="_top" xlink:title="LPTIM HAL module driver.">
<polygon fill="white" stroke="#666666" points="251.75,-800.75 207.25,-800.75 207.25,-780 251.75,-780 251.75,-800.75"/>
<text text-anchor="middle" x="229.5" y="-787.25" font-family="Helvetica,sans-Serif" font-size="10.00">LPTIM</text>
</a>
</g>
</g>
<!-- Node29 -->
<g id="Node000029" class="node">
<title>Node29</title>
<g id="a_Node000029"><a xlink:href="group__MMC.html" target="_top" xlink:title="MMC HAL module driver.">
<polygon fill="white" stroke="#666666" points="249.12,-761.75 209.88,-761.75 209.88,-741 249.12,-741 249.12,-761.75"/>
<text text-anchor="middle" x="229.5" y="-748.25" font-family="Helvetica,sans-Serif" font-size="10.00">MMC</text>
</a>
</g>
</g>
<!-- Node31 -->
<g id="Node000031" class="node">
<title>Node31</title>
<g id="a_Node000031"><a xlink:href="group__PCD.html" target="_top" xlink:title="PCD HAL module driver.">
<polygon fill="white" stroke="#666666" points="247.25,-722.75 211.75,-722.75 211.75,-702 247.25,-702 247.25,-722.75"/>
<text text-anchor="middle" x="229.5" y="-709.25" font-family="Helvetica,sans-Serif" font-size="10.00">PCD</text>
</a>
</g>
</g>
<!-- Node32 -->
<g id="Node000032" class="node">
<title>Node32</title>
<g id="a_Node000032"><a xlink:href="group__PCDEx.html" target="_top" xlink:title="PCD Extended HAL module driver.">
<polygon fill="white" stroke="#666666" points="252.5,-683.75 206.5,-683.75 206.5,-663 252.5,-663 252.5,-683.75"/>
<text text-anchor="middle" x="229.5" y="-670.25" font-family="Helvetica,sans-Serif" font-size="10.00">PCDEx</text>
</a>
</g>
</g>
<!-- Node33 -->
<g id="Node000033" class="node">
<title>Node33</title>
<g id="a_Node000033"><a xlink:href="group__PWR.html" target="_top" xlink:title="PWR HAL module driver.">
<polygon fill="white" stroke="#666666" points="248.38,-644.75 210.62,-644.75 210.62,-624 248.38,-624 248.38,-644.75"/>
<text text-anchor="middle" x="229.5" y="-631.25" font-family="Helvetica,sans-Serif" font-size="10.00">PWR</text>
</a>
</g>
</g>
<!-- Node34 -->
<g id="Node000034" class="node">
<title>Node34</title>
<g id="a_Node000034"><a xlink:href="group__PWREx.html" target="_top" xlink:title="PWR HAL module driver.">
<polygon fill="white" stroke="#666666" points="253.62,-605.75 205.38,-605.75 205.38,-585 253.62,-585 253.62,-605.75"/>
<text text-anchor="middle" x="229.5" y="-592.25" font-family="Helvetica,sans-Serif" font-size="10.00">PWREx</text>
</a>
</g>
</g>
<!-- Node35 -->
<g id="Node000035" class="node">
<title>Node35</title>
<g id="a_Node000035"><a xlink:href="group__RCC.html" target="_top" xlink:title="RCC HAL module driver.">
<polygon fill="white" stroke="#666666" points="247.25,-566.75 211.75,-566.75 211.75,-546 247.25,-546 247.25,-566.75"/>
<text text-anchor="middle" x="229.5" y="-553.25" font-family="Helvetica,sans-Serif" font-size="10.00">RCC</text>
</a>
</g>
</g>
<!-- Node36 -->
<g id="Node000036" class="node">
<title>Node36</title>
<g id="a_Node000036"><a xlink:href="group__RCCEx.html" target="_top" xlink:title="RCCEx HAL module driver.">
<polygon fill="white" stroke="#666666" points="252.5,-527.75 206.5,-527.75 206.5,-507 252.5,-507 252.5,-527.75"/>
<text text-anchor="middle" x="229.5" y="-514.25" font-family="Helvetica,sans-Serif" font-size="10.00">RCCEx</text>
</a>
</g>
</g>
<!-- Node37 -->
<g id="Node000037" class="node">
<title>Node37</title>
<g id="a_Node000037"><a xlink:href="group__RTC.html" target="_top" xlink:title="RTC HAL module driver.">
<polygon fill="white" stroke="#666666" points="246.88,-488.75 212.12,-488.75 212.12,-468 246.88,-468 246.88,-488.75"/>
<text text-anchor="middle" x="229.5" y="-475.25" font-family="Helvetica,sans-Serif" font-size="10.00">RTC</text>
</a>
</g>
</g>
<!-- Node38 -->
<g id="Node000038" class="node">
<title>Node38</title>
<g id="a_Node000038"><a xlink:href="group__RTCEx.html" target="_top" xlink:title="RTC Extended HAL module driver.">
<polygon fill="white" stroke="#666666" points="252.12,-449.75 206.88,-449.75 206.88,-429 252.12,-429 252.12,-449.75"/>
<text text-anchor="middle" x="229.5" y="-436.25" font-family="Helvetica,sans-Serif" font-size="10.00">RTCEx</text>
</a>
</g>
</g>
<!-- Node39 -->
<g id="Node000039" class="node">
<title>Node39</title>
<g id="a_Node000039"><a xlink:href="group__SAI.html" target="_top" xlink:title="SAI HAL module driver.">
<polygon fill="white" stroke="#666666" points="244.62,-410.75 214.38,-410.75 214.38,-390 244.62,-390 244.62,-410.75"/>
<text text-anchor="middle" x="229.5" y="-397.25" font-family="Helvetica,sans-Serif" font-size="10.00">SAI</text>
</a>
</g>
</g>
<!-- Node40 -->
<g id="Node000040" class="node">
<title>Node40</title>
<g id="a_Node000040"><a xlink:href="group__SAIEx.html" target="_top" xlink:title="SAI Extension HAL module driver.">
<polygon fill="white" stroke="#666666" points="249.88,-371.75 209.12,-371.75 209.12,-351 249.88,-351 249.88,-371.75"/>
<text text-anchor="middle" x="229.5" y="-358.25" font-family="Helvetica,sans-Serif" font-size="10.00">SAIEx</text>
</a>
</g>
</g>
<!-- Node41 -->
<g id="Node000041" class="node">
<title>Node41</title>
<g id="a_Node000041"><a xlink:href="group__SMARTCARD.html" target="_top" xlink:title="HAL SMARTCARD module driver.">
<polygon fill="white" stroke="#666666" points="266,-332.75 193,-332.75 193,-312 266,-312 266,-332.75"/>
<text text-anchor="middle" x="229.5" y="-319.25" font-family="Helvetica,sans-Serif" font-size="10.00">SMARTCARD</text>
</a>
</g>
</g>
<!-- Node42 -->
<g id="Node000042" class="node">
<title>Node42</title>
<g id="a_Node000042"><a xlink:href="group__SMBUS.html" target="_top" xlink:title="SMBUS HAL module driver.">
<polygon fill="white" stroke="#666666" points="253.25,-293.75 205.75,-293.75 205.75,-273 253.25,-273 253.25,-293.75"/>
<text text-anchor="middle" x="229.5" y="-280.25" font-family="Helvetica,sans-Serif" font-size="10.00">SMBUS</text>
</a>
</g>
</g>
<!-- Node43 -->
<g id="Node000043" class="node">
<title>Node43</title>
<g id="a_Node000043"><a xlink:href="group__SPDIFRX.html" target="_top" xlink:title="SPDIFRX HAL module driver.">
<polygon fill="white" stroke="#666666" points="257,-254.75 202,-254.75 202,-234 257,-234 257,-254.75"/>
<text text-anchor="middle" x="229.5" y="-241.25" font-family="Helvetica,sans-Serif" font-size="10.00">SPDIFRX</text>
</a>
</g>
</g>
<!-- Node44 -->
<g id="Node000044" class="node">
<title>Node44</title>
<g id="a_Node000044"><a xlink:href="group__SPI.html" target="_top" xlink:title="SPI HAL module driver.">
<polygon fill="white" stroke="#666666" points="244.62,-215.75 214.38,-215.75 214.38,-195 244.62,-195 244.62,-215.75"/>
<text text-anchor="middle" x="229.5" y="-202.25" font-family="Helvetica,sans-Serif" font-size="10.00">SPI</text>
</a>
</g>
</g>
<!-- Node1 -->
<g id="Node000001" class="node">
<title>Node1</title>
<g id="a_Node000001"><a xlink:title=" ">
<polygon fill="#999999" stroke="#666666" points="122.5,-1079.75 0,-1079.75 0,-1059 122.5,-1059 122.5,-1079.75"/>
<text text-anchor="middle" x="61.25" y="-1066.25" font-family="Helvetica,sans-Serif" font-size="10.00">STM32F4xx_HAL_Driver</text>
</a>
</g>
</g>
<!-- Node1&#45;&gt;Node8 -->
<g id="edge7" class="edge">
<title>Node1&#45;&gt;Node8</title>
<path fill="none" stroke="black" d="M62.79,-1091.39C66.53,-1235.35 90.35,-2039.12 158.5,-2121.38 171.32,-2136.85 195.22,-2140.82 211.49,-2141.6"/>
<polygon fill="black" stroke="black" points="66.3,-1091.62 62.55,-1081.71 59.3,-1091.8 66.3,-1091.62"/>
</g>
<!-- Node1&#45;&gt;Node9 -->
<g id="edge8" class="edge">
<title>Node1&#45;&gt;Node9</title>
<path fill="none" stroke="black" d="M62.88,-1091.44C67.06,-1232.38 92.85,-2003.42 158.5,-2082.38 169.97,-2096.18 190.26,-2100.82 206.05,-2102.22"/>
<polygon fill="black" stroke="black" points="66.38,-1091.52 62.59,-1081.63 59.38,-1091.73 66.38,-1091.52"/>
</g>
<!-- Node1&#45;&gt;Node10 -->
<g id="edge9" class="edge">
<title>Node1&#45;&gt;Node10</title>
<path fill="none" stroke="black" d="M62.96,-1091.43C67.61,-1229.15 95.35,-1967.71 158.5,-2043.38 171.38,-2058.8 195.26,-2062.78 211.51,-2063.58"/>
<polygon fill="black" stroke="black" points="66.46,-1091.41 62.64,-1081.53 59.47,-1091.64 66.46,-1091.41"/>
</g>
<!-- Node1&#45;&gt;Node11 -->
<g id="edge10" class="edge">
<title>Node1&#45;&gt;Node11</title>
<path fill="none" stroke="black" d="M63.06,-1091.38C68.17,-1225.73 97.83,-1931.98 158.5,-2004.38 169.05,-2016.97 186.94,-2021.93 201.99,-2023.76"/>
<polygon fill="black" stroke="black" points="66.57,-1091.58 62.7,-1081.72 59.57,-1091.84 66.57,-1091.58"/>
</g>
<!-- Node1&#45;&gt;Node12 -->
<g id="edge11" class="edge">
<title>Node1&#45;&gt;Node12</title>
<path fill="none" stroke="black" d="M63.16,-1091.27C68.75,-1222 100.3,-1896.24 158.5,-1965.38 171.44,-1980.75 195.31,-1984.74 211.54,-1985.56"/>
<polygon fill="black" stroke="black" points="66.66,-1091.41 62.75,-1081.57 59.67,-1091.71 66.66,-1091.41"/>
</g>
<!-- Node1&#45;&gt;Node51 -->
<g id="edge50" class="edge">
<title>Node1&#45;&gt;Node51</title>
<path fill="none" stroke="black" d="M63.28,-1091.5C69.42,-1219.37 102.82,-1860.55 158.5,-1926.38 169.44,-1939.3 188.11,-1944.18 203.41,-1945.89"/>
<polygon fill="black" stroke="black" points="66.78,-1091.52 62.81,-1081.69 59.79,-1091.85 66.78,-1091.52"/>
</g>
<!-- Node1&#45;&gt;Node13 -->
<g id="edge12" class="edge">
<title>Node1&#45;&gt;Node13</title>
<path fill="none" stroke="black" d="M63.39,-1091.25C70.03,-1215.09 105.26,-1824.78 158.5,-1887.38 170.78,-1901.82 192.7,-1906.2 208.75,-1907.36"/>
<polygon fill="black" stroke="black" points="66.9,-1091.29 62.87,-1081.49 59.91,-1091.66 66.9,-1091.29"/>
</g>
<!-- Node1&#45;&gt;Node14 -->
<g id="edge13" class="edge">
<title>Node1&#45;&gt;Node14</title>
<path fill="none" stroke="black" d="M61.82,-1091.47C60.06,-1205.91 57.63,-1730.48 158.5,-1848.38 169.51,-1861.24 188.17,-1866.12 203.46,-1867.85"/>
<polygon fill="black" stroke="black" points="65.32,-1091.69 61.99,-1081.63 58.32,-1091.57 65.32,-1091.69"/>
</g>
<!-- Node1&#45;&gt;Node15 -->
<g id="edge14" class="edge">
<title>Node1&#45;&gt;Node15</title>
<path fill="none" stroke="black" d="M61.98,-1091.41C61.08,-1202.24 62.54,-1697.94 158.5,-1809.38 171.37,-1824.32 194.55,-1828.47 210.69,-1829.44"/>
<polygon fill="black" stroke="black" points="65.48,-1091.65 62.08,-1081.61 58.48,-1091.58 65.48,-1091.65"/>
</g>
<!-- Node1&#45;&gt;Node16 -->
<g id="edge15" class="edge">
<title>Node1&#45;&gt;Node16</title>
<path fill="none" stroke="black" d="M62.16,-1091.25C62.16,-1198.23 67.43,-1665.37 158.5,-1770.38 170.09,-1783.74 189.94,-1788.47 205.55,-1790.01"/>
<polygon fill="black" stroke="black" points="65.66,-1091.56 62.18,-1081.55 58.66,-1091.55 65.66,-1091.56"/>
</g>
<!-- Node1&#45;&gt;Node2 -->
<g id="edge1" class="edge">
<title>Node1&#45;&gt;Node2</title>
<path fill="none" stroke="black" d="M62.35,-1091.32C63.29,-1194.77 72.36,-1632.85 158.5,-1731.38 171.48,-1746.22 194.63,-1750.4 210.74,-1751.4"/>
<polygon fill="black" stroke="black" points="65.86,-1091.42 62.28,-1081.45 58.86,-1091.47 65.86,-1091.42"/>
</g>
<!-- Node1&#45;&gt;Node17 -->
<g id="edge16" class="edge">
<title>Node1&#45;&gt;Node17</title>
<path fill="none" stroke="black" d="M62.57,-1091.27C64.49,-1190.87 77.26,-1600.28 158.5,-1692.38 170.37,-1705.83 190.61,-1710.52 206.28,-1712.02"/>
<polygon fill="black" stroke="black" points="66.07,-1091.24 62.4,-1081.3 59.07,-1091.36 66.07,-1091.24"/>
</g>
<!-- Node1&#45;&gt;Node18 -->
<g id="edge17" class="edge">
<title>Node1&#45;&gt;Node18</title>
<path fill="none" stroke="black" d="M62.83,-1091.41C65.78,-1187.37 82.19,-1567.75 158.5,-1653.38 169.1,-1665.26 186.22,-1670.29 200.88,-1672.34"/>
<polygon fill="black" stroke="black" points="66.33,-1091.45 62.54,-1081.55 59.33,-1091.65 66.33,-1091.45"/>
</g>
<!-- Node1&#45;&gt;Node19 -->
<g id="edge18" class="edge">
<title>Node1&#45;&gt;Node19</title>
<path fill="none" stroke="black" d="M63.12,-1091.68C67.18,-1184.03 87.14,-1535.22 158.5,-1614.38 164.59,-1621.13 172.8,-1625.67 181.44,-1628.71"/>
<polygon fill="black" stroke="black" points="66.62,-1091.57 62.71,-1081.72 59.63,-1091.86 66.62,-1091.57"/>
</g>
<!-- Node1&#45;&gt;Node54 -->
<g id="edge53" class="edge">
<title>Node1&#45;&gt;Node54</title>
<path fill="none" stroke="black" d="M63.43,-1091.19C68.57,-1178.63 91.89,-1502.45 158.5,-1575.38 169.67,-1587.6 187.74,-1592.55 202.72,-1594.47"/>
<polygon fill="black" stroke="black" points="66.93,-1091.16 62.87,-1081.37 59.94,-1091.56 66.93,-1091.16"/>
</g>
<!-- Node1&#45;&gt;Node5 -->
<g id="edge4" class="edge">
<title>Node1&#45;&gt;Node5</title>
<path fill="none" stroke="black" d="M63.79,-1091.09C70.12,-1174.07 96.71,-1469.77 158.5,-1536.38 161.94,-1540.08 166.01,-1543.12 170.44,-1545.6"/>
<polygon fill="black" stroke="black" points="67.3,-1091.08 63.08,-1081.37 60.32,-1091.6 67.3,-1091.08"/>
</g>
<!-- Node1&#45;&gt;Node20 -->
<g id="edge19" class="edge">
<title>Node1&#45;&gt;Node20</title>
<path fill="none" stroke="black" d="M64.28,-1091.53C71.95,-1170.57 101.66,-1437.19 158.5,-1497.38 170.04,-1509.6 188.49,-1514.52 203.54,-1516.42"/>
<polygon fill="black" stroke="black" points="67.77,-1091.27 63.34,-1081.65 60.8,-1091.93 67.77,-1091.27"/>
</g>
<!-- Node1&#45;&gt;Node21 -->
<g id="edge20" class="edge">
<title>Node1&#45;&gt;Node21</title>
<path fill="none" stroke="black" d="M64.74,-1090.93C73.67,-1164.53 106.33,-1404.3 158.5,-1458.38 168.86,-1469.11 184.54,-1474.2 198.43,-1476.56"/>
<polygon fill="black" stroke="black" points="68.27,-1090.92 63.61,-1081.4 61.32,-1091.74 68.27,-1090.92"/>
</g>
<!-- Node1&#45;&gt;Node22 -->
<g id="edge21" class="edge">
<title>Node1&#45;&gt;Node22</title>
<path fill="none" stroke="black" d="M61.42,-1091.27C60.34,-1152.3 65.98,-1325.93 158.5,-1419.38 168.19,-1429.16 182.32,-1434.24 195.35,-1436.85"/>
<polygon fill="black" stroke="black" points="64.91,-1091.63 61.68,-1081.54 57.91,-1091.44 64.91,-1091.63"/>
</g>
<!-- Node1&#45;&gt;Node23 -->
<g id="edge22" class="edge">
<title>Node1&#45;&gt;Node23</title>
<path fill="none" stroke="black" d="M62.32,-1091.43C63.72,-1147.94 75.48,-1299.15 158.5,-1380.38 166.99,-1388.68 178.69,-1393.59 190.08,-1396.47"/>
<polygon fill="black" stroke="black" points="65.82,-1091.49 62.17,-1081.54 58.82,-1091.59 65.82,-1091.49"/>
</g>
<!-- Node1&#45;&gt;Node55 -->
<g id="edge54" class="edge">
<title>Node1&#45;&gt;Node55</title>
<path fill="none" stroke="black" d="M63.46,-1091.41C67.49,-1142.93 84.81,-1272.11 158.5,-1341.38 169.74,-1351.94 186.16,-1356.97 200.28,-1359.35"/>
<polygon fill="black" stroke="black" points="66.96,-1091.32 62.79,-1081.58 59.97,-1091.79 66.96,-1091.32"/>
</g>
<!-- Node1&#45;&gt;Node6 -->
<g id="edge5" class="edge">
<title>Node1&#45;&gt;Node6</title>
<path fill="none" stroke="black" d="M64.94,-1091.34C71.75,-1137.46 94.03,-1244.83 158.5,-1302.38 162.65,-1306.08 167.44,-1309.1 172.53,-1311.56"/>
<polygon fill="black" stroke="black" points="68.42,-1090.99 63.6,-1081.55 61.48,-1091.93 68.42,-1090.99"/>
</g>
<!-- Node1&#45;&gt;Node24 -->
<g id="edge23" class="edge">
<title>Node1&#45;&gt;Node24</title>
<path fill="none" stroke="black" d="M66.93,-1091.21C76.7,-1131.42 103.11,-1217.26 158.5,-1263.38 172.78,-1275.26 193.74,-1280.09 209,-1282.05"/>
<polygon fill="black" stroke="black" points="70.36,-1090.52 64.71,-1081.55 63.54,-1092.08 70.36,-1090.52"/>
</g>
<!-- Node1&#45;&gt;Node3 -->
<g id="edge2" class="edge">
<title>Node1&#45;&gt;Node3</title>
<path fill="none" stroke="black" d="M69.53,-1090.29C82.24,-1123.72 111.69,-1189.03 158.5,-1224.38 171.61,-1234.28 189.46,-1239.28 203.85,-1241.8"/>
<polygon fill="black" stroke="black" points="72.97,-1089.51 66.25,-1081.32 66.39,-1091.91 72.97,-1089.51"/>
</g>
<!-- Node1&#45;&gt;Node7 -->
<g id="edge6" class="edge">
<title>Node1&#45;&gt;Node7</title>
<path fill="none" stroke="black" d="M73.81,-1089.78C89.6,-1115.83 120.36,-1160.49 158.5,-1185.38 174.8,-1196.01 196.82,-1201.09 211.78,-1203.45"/>
<polygon fill="black" stroke="black" points="77.01,-1088.33 68.92,-1081.48 70.98,-1091.88 77.01,-1088.33"/>
</g>
<!-- Node1&#45;&gt;Node30 -->
<g id="edge29" class="edge">
<title>Node1&#45;&gt;Node30</title>
<path fill="none" stroke="black" d="M80.42,-1088.07C98.63,-1105.77 128.22,-1131.88 158.5,-1147.38 171.73,-1154.14 187.63,-1158.71 200.94,-1161.67"/>
<polygon fill="black" stroke="black" points="83.08,-1085.77 73.52,-1081.2 78.14,-1090.74 83.08,-1085.77"/>
</g>
<!-- Node1&#45;&gt;Node47 -->
<g id="edge46" class="edge">
<title>Node1&#45;&gt;Node47</title>
<path fill="none" stroke="black" d="M107.56,-1083.55C127.91,-1089.91 152.1,-1097.48 173.48,-1104.17"/>
<polygon fill="black" stroke="black" points="108.73,-1080.25 98.14,-1080.6 106.64,-1086.93 108.73,-1080.25"/>
</g>
<!-- Node1&#45;&gt;Node48 -->
<g id="edge47" class="edge">
<title>Node1&#45;&gt;Node48</title>
<path fill="none" stroke="black" d="M134.24,-1069.38C142.18,-1069.38 150.26,-1069.38 158.18,-1069.38"/>
<polygon fill="black" stroke="black" points="134.25,-1065.88 124.25,-1069.38 134.25,-1072.88 134.25,-1065.88"/>
</g>
<!-- Node1&#45;&gt;Node56 -->
<g id="edge55" class="edge">
<title>Node1&#45;&gt;Node56</title>
<path fill="none" stroke="black" d="M112.86,-1055.68C137.11,-1049.11 165.73,-1041.37 188.43,-1035.22"/>
<polygon fill="black" stroke="black" points="112.27,-1052.21 103.53,-1058.2 114.1,-1058.97 112.27,-1052.21"/>
</g>
<!-- Node1&#45;&gt;Node25 -->
<g id="edge24" class="edge">
<title>Node1&#45;&gt;Node25</title>
<path fill="none" stroke="black" d="M84.4,-1051.75C103.19,-1037.54 131.35,-1017.91 158.5,-1005.38 176.63,-997 199.05,-991.35 213.55,-988.24"/>
<polygon fill="black" stroke="black" points="82.47,-1048.83 76.68,-1057.71 86.74,-1054.37 82.47,-1048.83"/>
</g>
<!-- Node1&#45;&gt;Node26 -->
<g id="edge25" class="edge">
<title>Node1&#45;&gt;Node26</title>
<path fill="none" stroke="black" d="M75.82,-1049.25C92.57,-1025.92 123.21,-987.95 158.5,-966.38 173.81,-957.01 193.67,-951.88 208.33,-949.17"/>
<polygon fill="black" stroke="black" points="73.05,-1047.09 70.19,-1057.29 78.79,-1051.1 73.05,-1047.09"/>
</g>
<!-- Node1&#45;&gt;Node52 -->
<g id="edge51" class="edge">
<title>Node1&#45;&gt;Node52</title>
<path fill="none" stroke="black" d="M70.98,-1048.04C84.84,-1016.81 114.86,-958.97 158.5,-927.38 175.29,-915.22 199.3,-910.43 214.38,-908.56"/>
<polygon fill="black" stroke="black" points="67.77,-1046.63 67.05,-1057.2 74.21,-1049.38 67.77,-1046.63"/>
</g>
<!-- Node1&#45;&gt;Node27 -->
<g id="edge26" class="edge">
<title>Node1&#45;&gt;Node27</title>
<path fill="none" stroke="black" d="M67.59,-1048.2C78.26,-1010.34 105.82,-930.99 158.5,-888.38 173.34,-876.37 195.03,-871.57 210.32,-869.65"/>
<polygon fill="black" stroke="black" points="64.32,-1046.91 65.11,-1057.48 71.08,-1048.73 64.32,-1046.91"/>
</g>
<!-- Node1&#45;&gt;Node4 -->
<g id="edge3" class="edge">
<title>Node1&#45;&gt;Node4</title>
<path fill="none" stroke="black" d="M65.53,-1047.43C73.32,-1003.22 97.08,-903.07 158.5,-849.38 172.11,-837.48 192.36,-832.63 207.58,-830.67"/>
<polygon fill="black" stroke="black" points="62.08,-1046.87 63.92,-1057.3 68.99,-1048 62.08,-1046.87"/>
</g>
<!-- Node1&#45;&gt;Node28 -->
<g id="edge27" class="edge">
<title>Node1&#45;&gt;Node28</title>
<path fill="none" stroke="black" d="M63.9,-1047.38C68.84,-997.62 87.89,-875.71 158.5,-810.38 171.67,-798.19 191.77,-793.37 207.06,-791.49"/>
<polygon fill="black" stroke="black" points="60.43,-1046.87 63.04,-1057.14 67.41,-1047.48 60.43,-1046.87"/>
</g>
<!-- Node1&#45;&gt;Node29 -->
<g id="edge28" class="edge">
<title>Node1&#45;&gt;Node29</title>
<path fill="none" stroke="black" d="M62.67,-1047.13C64.96,-992.11 78.7,-848.5 158.5,-771.38 172.13,-758.2 193.82,-753.6 209.45,-752.05"/>
<polygon fill="black" stroke="black" points="59.18,-1046.96 62.36,-1057.07 66.17,-1047.18 59.18,-1046.96"/>
</g>
<!-- Node1&#45;&gt;Node31 -->
<g id="edge30" class="edge">
<title>Node1&#45;&gt;Node31</title>
<path fill="none" stroke="black" d="M61.69,-1047.5C61.42,-988.02 69.12,-821.77 158.5,-732.38 172.53,-718.34 195.68,-714 211.49,-712.74"/>
<polygon fill="black" stroke="black" points="58.19,-1047.34 61.83,-1057.29 65.19,-1047.24 58.19,-1047.34"/>
</g>
<!-- Node1&#45;&gt;Node32 -->
<g id="edge31" class="edge">
<title>Node1&#45;&gt;Node32</title>
<path fill="none" stroke="black" d="M64.97,-1047.61C74.41,-975.4 107.97,-745.32 158.5,-693.38 170.84,-680.69 190.62,-675.9 206.01,-674.16"/>
<polygon fill="black" stroke="black" points="61.52,-1046.98 63.72,-1057.34 68.46,-1047.87 61.52,-1046.98"/>
</g>
<!-- Node1&#45;&gt;Node33 -->
<g id="edge32" class="edge">
<title>Node1&#45;&gt;Node33</title>
<path fill="none" stroke="black" d="M64.43,-1047.38C72.52,-970.1 103.22,-712.51 158.5,-654.38 171.91,-640.27 194.52,-635.9 210.4,-634.65"/>
<polygon fill="black" stroke="black" points="60.98,-1046.74 63.44,-1057.04 67.94,-1047.45 60.98,-1046.74"/>
</g>
<!-- Node1&#45;&gt;Node34 -->
<g id="edge33" class="edge">
<title>Node1&#45;&gt;Node34</title>
<path fill="none" stroke="black" d="M63.95,-1047.48C70.72,-965.74 98.37,-679.83 158.5,-615.38 170.4,-602.62 189.81,-597.81 205.18,-596.08"/>
<polygon fill="black" stroke="black" points="60.47,-1047.02 63.16,-1057.27 67.45,-1047.58 60.47,-1047.02"/>
</g>
<!-- Node1&#45;&gt;Node35 -->
<g id="edge34" class="edge">
<title>Node1&#45;&gt;Node35</title>
<path fill="none" stroke="black" d="M63.56,-1047.29C69.13,-960.9 93.57,-647.11 158.5,-576.38 172,-561.66 195.5,-557.49 211.52,-556.46"/>
<polygon fill="black" stroke="black" points="60.07,-1047.03 62.94,-1057.23 67.06,-1047.46 60.07,-1047.03"/>
</g>
<!-- Node1&#45;&gt;Node36 -->
<g id="edge35" class="edge">
<title>Node1&#45;&gt;Node36</title>
<path fill="none" stroke="black" d="M63.22,-1047.32C67.62,-956.73 88.7,-614.47 158.5,-537.38 170.46,-524.16 190.48,-519.44 206.05,-517.86"/>
<polygon fill="black" stroke="black" points="59.72,-1047.13 62.75,-1057.28 66.71,-1047.46 59.72,-1047.13"/>
</g>
<!-- Node1&#45;&gt;Node37 -->
<g id="edge36" class="edge">
<title>Node1&#45;&gt;Node37</title>
<path fill="none" stroke="black" d="M62.91,-1047.54C66.2,-953.23 83.77,-581.93 158.5,-498.38 171.9,-483.4 195.66,-479.31 211.74,-478.36"/>
<polygon fill="black" stroke="black" points="59.42,-1047.32 62.59,-1057.43 66.41,-1047.55 59.42,-1047.32"/>
</g>
<!-- Node1&#45;&gt;Node38 -->
<g id="edge37" class="edge">
<title>Node1&#45;&gt;Node38</title>
<path fill="none" stroke="black" d="M62.66,-1047.31C64.92,-948.69 78.94,-549.27 158.5,-459.38 170.48,-445.84 190.92,-441.19 206.63,-439.71"/>
<polygon fill="black" stroke="black" points="59.16,-1047.13 62.45,-1057.2 66.16,-1047.28 59.16,-1047.13"/>
</g>
<!-- Node1&#45;&gt;Node39 -->
<g id="edge38" class="edge">
<title>Node1&#45;&gt;Node39</title>
<path fill="none" stroke="black" d="M62.43,-1047.21C63.7,-944.6 74.06,-516.68 158.5,-420.38 172.42,-404.5 197.96,-400.83 214.05,-400.19"/>
<polygon fill="black" stroke="black" points="58.93,-1046.99 62.33,-1057.02 65.93,-1047.06 58.93,-1046.99"/>
</g>
<!-- Node1&#45;&gt;Node40 -->
<g id="edge39" class="edge">
<title>Node1&#45;&gt;Node40</title>
<path fill="none" stroke="black" d="M62.22,-1047.24C62.54,-940.99 69.14,-484.14 158.5,-381.38 170.94,-367.07 192.83,-362.66 208.83,-361.46"/>
<polygon fill="black" stroke="black" points="58.72,-1047.14 62.21,-1057.14 65.72,-1047.15 58.72,-1047.14"/>
</g>
<!-- Node1&#45;&gt;Node41 -->
<g id="edge40" class="edge">
<title>Node1&#45;&gt;Node41</title>
<path fill="none" stroke="black" d="M62.04,-1047.38C61.44,-937.8 64.18,-451.66 158.5,-342.38 167.09,-332.42 180.25,-327.26 192.86,-324.63"/>
<polygon fill="black" stroke="black" points="58.54,-1047.09 62.11,-1057.07 65.54,-1047.04 58.54,-1047.09"/>
</g>
<!-- Node1&#45;&gt;Node42 -->
<g id="edge41" class="edge">
<title>Node1&#45;&gt;Node42</title>
<path fill="none" stroke="black" d="M61.87,-1047.29C60.39,-934.01 59.27,-419.11 158.5,-303.38 170.02,-289.94 189.87,-285.22 205.5,-283.7"/>
<polygon fill="black" stroke="black" points="58.37,-1047.09 62.02,-1057.03 65.37,-1046.98 58.37,-1047.09"/>
</g>
<!-- Node1&#45;&gt;Node43 -->
<g id="edge42" class="edge">
<title>Node1&#45;&gt;Node43</title>
<path fill="none" stroke="black" d="M63.44,-1047.46C70.26,-924.71 106.09,-325.87 158.5,-264.38 169.08,-251.97 186.77,-246.98 201.72,-245.1"/>
<polygon fill="black" stroke="black" points="59.96,-1046.97 62.9,-1057.14 66.95,-1047.35 59.96,-1046.97"/>
</g>
<!-- Node1&#45;&gt;Node44 -->
<g id="edge43" class="edge">
<title>Node1&#45;&gt;Node44</title>
<path fill="none" stroke="black" d="M63.3,-1047.59C69.57,-921.64 103.59,-290.16 158.5,-225.38 172.15,-209.27 197.78,-205.67 213.95,-205.11"/>
<polygon fill="black" stroke="black" points="59.82,-1047.06 62.83,-1057.22 66.82,-1047.4 59.82,-1047.06"/>
</g>
<!-- Node45 -->
<g id="Node000045" class="node">
<title>Node45</title>
<g id="a_Node000045"><a xlink:href="group__TIM.html" target="_top" xlink:title="TIM HAL module driver.">
<polygon fill="white" stroke="#666666" points="246.12,-176.75 212.88,-176.75 212.88,-156 246.12,-156 246.12,-176.75"/>
<text text-anchor="middle" x="229.5" y="-163.25" font-family="Helvetica,sans-Serif" font-size="10.00">TIM</text>
</a>
</g>
</g>
<!-- Node1&#45;&gt;Node45 -->
<g id="edge44" class="edge">
<title>Node1&#45;&gt;Node45</title>
<path fill="none" stroke="black" d="M63.2,-1047.39C68.97,-917.56 101.14,-254.4 158.5,-186.38 171.7,-170.72 196.22,-166.87 212.46,-166.15"/>
<polygon fill="black" stroke="black" points="59.71,-1046.89 62.77,-1057.03 66.71,-1047.2 59.71,-1046.89"/>
</g>
<!-- Node46 -->
<g id="Node000046" class="node">
<title>Node46</title>
<g id="a_Node000046"><a xlink:href="group__TIMEx.html" target="_top" xlink:title="TIM Extended HAL module driver.">
<polygon fill="white" stroke="#666666" points="251.38,-137.75 207.62,-137.75 207.62,-117 251.38,-117 251.38,-137.75"/>
<text text-anchor="middle" x="229.5" y="-124.25" font-family="Helvetica,sans-Serif" font-size="10.00">TIMEx</text>
</a>
</g>
</g>
<!-- Node1&#45;&gt;Node46 -->
<g id="edge45" class="edge">
<title>Node1&#45;&gt;Node46</title>
<path fill="none" stroke="black" d="M63.09,-1047.27C68.38,-913.78 98.67,-218.66 158.5,-147.38 170.36,-133.24 191.46,-128.72 207.41,-127.45"/>
<polygon fill="black" stroke="black" points="59.6,-1047.05 62.71,-1057.18 66.6,-1047.32 59.6,-1047.05"/>
</g>
<!-- Node49 -->
<g id="Node000049" class="node">
<title>Node49</title>
<g id="a_Node000049"><a xlink:href="group__UART.html" target="_top" xlink:title="HAL UART module driver.">
<polygon fill="white" stroke="#666666" points="249.88,-98.75 209.12,-98.75 209.12,-78 249.88,-78 249.88,-98.75"/>
<text text-anchor="middle" x="229.5" y="-85.25" font-family="Helvetica,sans-Serif" font-size="10.00">UART</text>
</a>
</g>
</g>
<!-- Node1&#45;&gt;Node49 -->
<g id="edge48" class="edge">
<title>Node1&#45;&gt;Node49</title>
<path fill="none" stroke="black" d="M63,-1047.19C67.81,-910.2 96.2,-182.92 158.5,-108.38 170.66,-93.83 192.6,-89.46 208.69,-88.34"/>
<polygon fill="black" stroke="black" points="59.51,-1046.93 62.66,-1057.05 66.5,-1047.17 59.51,-1046.93"/>
</g>
<!-- Node50 -->
<g id="Node000050" class="node">
<title>Node50</title>
<g id="a_Node000050"><a xlink:href="group__USART.html" target="_top" xlink:title="HAL USART Synchronous module driver.">
<polygon fill="white" stroke="#666666" points="252.5,-59.75 206.5,-59.75 206.5,-39 252.5,-39 252.5,-59.75"/>
<text text-anchor="middle" x="229.5" y="-46.25" font-family="Helvetica,sans-Serif" font-size="10.00">USART</text>
</a>
</g>
</g>
<!-- Node1&#45;&gt;Node50 -->
<g id="edge49" class="edge">
<title>Node1&#45;&gt;Node50</title>
<path fill="none" stroke="black" d="M62.9,-1047.6C67.2,-908.46 93.64,-147.29 158.5,-69.38 169.98,-55.58 190.26,-50.94 206.05,-49.54"/>
<polygon fill="black" stroke="black" points="59.41,-1047.16 62.6,-1057.26 66.4,-1047.37 59.41,-1047.16"/>
</g>
<!-- Node53 -->
<g id="Node000053" class="node">
<title>Node53</title>
<g id="a_Node000053"><a xlink:href="group__WWDG.html" target="_top" xlink:title=" ">
<polygon fill="white" stroke="#666666" points="254.38,-20.75 204.62,-20.75 204.62,0 254.38,0 254.38,-20.75"/>
<text text-anchor="middle" x="229.5" y="-7.25" font-family="Helvetica,sans-Serif" font-size="10.00">WWDG</text>
</a>
</g>
</g>
<!-- Node1&#45;&gt;Node53 -->
<g id="edge52" class="edge">
<title>Node1&#45;&gt;Node53</title>
<path fill="none" stroke="black" d="M62.82,-1047.2C66.72,-903.85 91.21,-111.5 158.5,-30.38 169.55,-17.05 188.82,-12.26 204.35,-10.68"/>
<polygon fill="black" stroke="black" points="59.33,-1047.08 62.56,-1057.17 66.32,-1047.27 59.33,-1047.08"/>
</g>
</g>
</svg>

<g id="navigator" transform="translate(0 0)" fill="#404254">
  <rect fill="#f2f5e9" fill-opacity="0.5" stroke="#606060" stroke-width=".5" x="0" y="0" width="60" height="60"/>
  <use id="zoomplus" xlink:href="#zoomPlus" x="17" y="9" onmousedown="handleZoom(evt,'in')"/>
  <use id="zoomminus" xlink:href="#zoomMin" x="42" y="9" onmousedown="handleZoom(evt,'out')"/>
  <use id="reset" xlink:href="#resetDef" x="30" y="36" onmousedown="handleReset()"/>
   <use id="arrowup" xlink:href="#arrowUp" x="0" y="0" onmousedown="handlePan(0,-1)"/>
  <use id="arrowright" xlink:href="#arrowRight" x="0" y="0" onmousedown="handlePan(1,0)"/>
  <use id="arrowdown" xlink:href="#arrowDown" x="0" y="0" onmousedown="handlePan(0,1)"/>
  <use id="arrowleft" xlink:href="#arrowLeft" x="0" y="0" onmousedown="handlePan(-1,0)"/>
</g>
<svg viewBox="0 0 15 15" width="100%" height="30px" preserveAspectRatio="xMaxYMin meet">
 <g id="arrow_out" transform="scale(0.3 0.3)">
  <a xlink:href="group__STM32F4xx__HAL__Driver_org.svg" target="_base">
   <rect id="button" ry="5" rx="5" y="6" x="6" height="38" width="38"
        fill="#f2f5e9" fill-opacity="0.5" stroke="#606060" stroke-width="1.0"/>
   <path id="arrow"
     d="M 11.500037,31.436501 C 11.940474,20.09759 22.043105,11.32322 32.158766,21.979434 L 37.068811,17.246167 C 37.068811,17.246167 37.088388,32 37.088388,32 L 22.160133,31.978069 C 22.160133,31.978069 26.997745,27.140456 26.997745,27.140456 C 18.528582,18.264221 13.291696,25.230495 11.500037,31.436501 z"
     style="fill:#404040;"/>
  </a>
 </g>
</svg>

<style type='text/css'>
<![CDATA[
[data-mouse-over-selected='false'] { opacity: 0.7; }
[data-mouse-over-selected='true']  { opacity: 1.0; }
]]>
</style>
<script type="application/ecmascript"><![CDATA[
document.addEventListener('DOMContentLoaded', (event) => {
  highlightEdges();
  highlightAdjacentNodes();
});
]]></script>
</svg>
