<?xml version="1.0" encoding="UTF-8" standalone="no"?>
<!DOCTYPE svg PUBLIC "-//W3C//DTD SVG 1.1//EN"
 "http://www.w3.org/Graphics/SVG/1.1/DTD/svg11.dtd">
<!-- Generated by graphviz version 12.2.1 (20241206.2353)
 -->
<!-- Title: RTCEx Exported Macros Pages: 1 -->
<svg width="421pt" height="185pt"
 viewBox="0.00 0.00 420.50 184.75" xmlns="http://www.w3.org/2000/svg" xmlns:xlink="http://www.w3.org/1999/xlink">
<g id="page0,1_graph0" class="graph" transform="scale(1 1) rotate(0) translate(4 180.75)">
<title>RTCEx Exported Macros</title>
<!-- Node2 -->
<g id="Node000002" class="node">
<title>Node2</title>
<g id="a_Node000002"><a xlink:href="group__RTCEx.html" target="_top" xlink:title="RTC Extended HAL module driver.">
<polygon fill="white" stroke="#666666" points="45.25,-98.75 0,-98.75 0,-78 45.25,-78 45.25,-98.75"/>
<text text-anchor="middle" x="22.62" y="-85.25" font-family="Helvetica,sans-Serif" font-size="10.00">RTCEx</text>
</a>
</g>
</g>
<!-- Node1 -->
<g id="Node000001" class="node">
<title>Node1</title>
<g id="a_Node000001"><a xlink:title=" ">
<polygon fill="#999999" stroke="#666666" points="204.5,-98.75 81.25,-98.75 81.25,-78 204.5,-78 204.5,-98.75"/>
<text text-anchor="middle" x="142.88" y="-85.25" font-family="Helvetica,sans-Serif" font-size="10.00">RTCEx Exported Macros</text>
</a>
</g>
</g>
<!-- Node2&#45;&gt;Node1 -->
<g id="edge1" class="edge">
<title>Node2&#45;&gt;Node1</title>
<path fill="none" stroke="black" d="M57.03,-88.38C64.49,-88.38 72.63,-88.38 80.82,-88.38"/>
<polygon fill="black" stroke="black" points="57.1,-84.88 47.1,-88.38 57.1,-91.88 57.1,-84.88"/>
</g>
<!-- Node7 -->
<g id="Node000007" class="node">
<title>Node7</title>
<g id="a_Node000007"><a xlink:href="group__RTCEx__Calibration.html" target="_top" xlink:title=" ">
<polygon fill="white" stroke="#666666" points="375.38,-176.75 277.62,-176.75 277.62,-156 375.38,-156 375.38,-176.75"/>
<text text-anchor="middle" x="326.5" y="-163.25" font-family="Helvetica,sans-Serif" font-size="10.00">RTCEx Calibration</text>
</a>
</g>
</g>
<!-- Node1&#45;&gt;Node7 -->
<g id="edge6" class="edge">
<title>Node1&#45;&gt;Node7</title>
<path fill="none" stroke="black" d="M167.81,-105.62C186.73,-118.52 214.23,-135.7 240.5,-146.38 252.16,-151.11 265.19,-154.88 277.48,-157.81"/>
<polygon fill="black" stroke="black" points="169.96,-102.85 159.75,-100.01 165.96,-108.6 169.96,-102.85"/>
</g>
<!-- Node5 -->
<g id="Node000005" class="node">
<title>Node5</title>
<g id="a_Node000005"><a xlink:href="group__RTCEx__Tamper.html" target="_top" xlink:title=" ">
<polygon fill="white" stroke="#666666" points="367.88,-137.75 285.12,-137.75 285.12,-117 367.88,-117 367.88,-137.75"/>
<text text-anchor="middle" x="326.5" y="-124.25" font-family="Helvetica,sans-Serif" font-size="10.00">RTCEx Tamper</text>
</a>
</g>
</g>
<!-- Node1&#45;&gt;Node5 -->
<g id="edge4" class="edge">
<title>Node1&#45;&gt;Node5</title>
<path fill="none" stroke="black" d="M205.41,-101.59C231.54,-107.2 261.29,-113.59 284.64,-118.6"/>
<polygon fill="black" stroke="black" points="206.46,-98.23 195.95,-99.56 204.99,-105.08 206.46,-98.23"/>
</g>
<!-- Node6 -->
<g id="Node000006" class="node">
<title>Node6</title>
<g id="a_Node000006"><a xlink:href="group__RTCEx__Tamper__Timestamp.html" target="_top" xlink:title=" ">
<polygon fill="white" stroke="#666666" points="412.5,-98.75 240.5,-98.75 240.5,-78 412.5,-78 412.5,-98.75"/>
<text text-anchor="middle" x="326.5" y="-85.25" font-family="Helvetica,sans-Serif" font-size="10.00">EXTI RTC Tamper Timestamp EXTI</text>
</a>
</g>
</g>
<!-- Node1&#45;&gt;Node6 -->
<g id="edge5" class="edge">
<title>Node1&#45;&gt;Node6</title>
<path fill="none" stroke="black" d="M216.21,-88.38C224.08,-88.38 232.14,-88.38 240.14,-88.38"/>
<polygon fill="black" stroke="black" points="216.37,-84.88 206.37,-88.38 216.37,-91.88 216.37,-84.88"/>
</g>
<!-- Node4 -->
<g id="Node000004" class="node">
<title>Node4</title>
<g id="a_Node000004"><a xlink:href="group__RTCEx__Timestamp.html" target="_top" xlink:title=" ">
<polygon fill="white" stroke="#666666" points="375.75,-59.75 277.25,-59.75 277.25,-39 375.75,-39 375.75,-59.75"/>
<text text-anchor="middle" x="326.5" y="-46.25" font-family="Helvetica,sans-Serif" font-size="10.00">RTCEx Timestamp</text>
</a>
</g>
</g>
<!-- Node1&#45;&gt;Node4 -->
<g id="edge3" class="edge">
<title>Node1&#45;&gt;Node4</title>
<path fill="none" stroke="black" d="M205.65,-75.11C228.97,-70.1 255.13,-64.48 277.06,-59.78"/>
<polygon fill="black" stroke="black" points="204.99,-71.67 195.95,-77.19 206.46,-78.52 204.99,-71.67"/>
</g>
<!-- Node3 -->
<g id="Node000003" class="node">
<title>Node3</title>
<g id="a_Node000003"><a xlink:href="group__RTCEx__WakeUp__Timer.html" target="_top" xlink:title=" ">
<polygon fill="white" stroke="#666666" points="383.62,-20.75 269.38,-20.75 269.38,0 383.62,0 383.62,-20.75"/>
<text text-anchor="middle" x="326.5" y="-7.25" font-family="Helvetica,sans-Serif" font-size="10.00">RTCEx WakeUp Timer</text>
</a>
</g>
</g>
<!-- Node1&#45;&gt;Node3 -->
<g id="edge2" class="edge">
<title>Node1&#45;&gt;Node3</title>
<path fill="none" stroke="black" d="M167.81,-71.13C186.73,-58.23 214.23,-41.05 240.5,-30.38 249.49,-26.72 259.3,-23.65 268.95,-21.09"/>
<polygon fill="black" stroke="black" points="165.96,-68.15 159.75,-76.74 169.96,-73.9 165.96,-68.15"/>
</g>
</g>
</svg>
