<?xml version="1.0" encoding="UTF-8" standalone="no"?>
<!DOCTYPE svg PUBLIC "-//W3C//DTD SVG 1.1//EN"
 "http://www.w3.org/Graphics/SVG/1.1/DTD/svg11.dtd">
<!-- Generated by graphviz version 12.2.1 (20241206.2353)
 -->
<!-- Title: EXTI Exported Functions Pages: 1 -->
<svg width="367pt" height="68pt"
 viewBox="0.00 0.00 367.25 67.75" xmlns="http://www.w3.org/2000/svg" xmlns:xlink="http://www.w3.org/1999/xlink">

<svg id="main" version="1.1" xmlns="http://www.w3.org/2000/svg" xmlns:xlink="http://www.w3.org/1999/xlink" xml:space="preserve">

<style type="text/css"><![CDATA[
.node, .edge {opacity: 0.7;}
.node.selected, .edge.selected {opacity: 1;}
.edge:hover path { stroke: red; }
.edge:hover polygon { stroke: red; fill: red; }
]]></style>
<script type="application/ecmascript" xlink:href="svg.min.js"/>
<svg id="graph" class="graph">
<g id="graph0" class="graph" transform="scale(1 1) rotate(0) translate(4 63.75)">
<title>EXTI Exported Functions</title>
<!-- Node2 -->
<g id="Node000002" class="node">
<title>Node2</title>
<g id="a_Node000002"><a xlink:href="group__EXTI.html" target="_top" xlink:title="EXTI HAL module driver.">
<polygon fill="white" stroke="#666666" points="37,-39.75 0,-39.75 0,-19 37,-19 37,-39.75"/>
<text text-anchor="middle" x="18.5" y="-26.25" font-family="Helvetica,sans-Serif" font-size="10.00">EXTI</text>
</a>
</g>
</g>
<!-- Node1 -->
<g id="Node000001" class="node">
<title>Node1</title>
<g id="a_Node000001"><a xlink:title="EXTI Exported Functions.">
<polygon fill="#999999" stroke="#666666" points="200,-39.75 73,-39.75 73,-19 200,-19 200,-39.75"/>
<text text-anchor="middle" x="136.5" y="-26.25" font-family="Helvetica,sans-Serif" font-size="10.00">EXTI Exported Functions</text>
</a>
</g>
</g>
<!-- Node2&#45;&gt;Node1 -->
<g id="edge1" class="edge">
<title>Node2&#45;&gt;Node1</title>
<path fill="none" stroke="black" d="M48.79,-29.38C56.11,-29.38 64.24,-29.38 72.51,-29.38"/>
<polygon fill="black" stroke="black" points="48.88,-25.88 38.88,-29.38 48.88,-32.88 48.88,-25.88"/>
</g>
<!-- Node3 -->
<g id="Node000003" class="node">
<title>Node3</title>
<g id="a_Node000003"><a xlink:href="group__EXTI__Exported__Functions__Group1.html" target="_top" xlink:title="Configuration functions.">
<polygon fill="white" stroke="#666666" points="359.25,-59.75 236,-59.75 236,-39 359.25,-39 359.25,-59.75"/>
<text text-anchor="middle" x="297.62" y="-46.25" font-family="Helvetica,sans-Serif" font-size="10.00">Configuration functions</text>
</a>
</g>
</g>
<!-- Node1&#45;&gt;Node3 -->
<g id="edge2" class="edge">
<title>Node1&#45;&gt;Node3</title>
<path fill="none" stroke="black" d="M211.7,-38.7C219.75,-39.71 227.88,-40.73 235.75,-41.72"/>
<polygon fill="black" stroke="black" points="212.25,-35.24 201.89,-37.47 211.38,-42.19 212.25,-35.24"/>
</g>
<!-- Node4 -->
<g id="Node000004" class="node">
<title>Node4</title>
<g id="a_Node000004"><a xlink:href="group__EXTI__Exported__Functions__Group2.html" target="_top" xlink:title="IO operation functions.">
<polygon fill="white" stroke="#666666" points="356.25,-20.75 239,-20.75 239,0 356.25,0 356.25,-20.75"/>
<text text-anchor="middle" x="297.62" y="-7.25" font-family="Helvetica,sans-Serif" font-size="10.00">IO operation functions</text>
</a>
</g>
</g>
<!-- Node1&#45;&gt;Node4 -->
<g id="edge3" class="edge">
<title>Node1&#45;&gt;Node4</title>
<path fill="none" stroke="black" d="M211.73,-20.51C220.75,-19.44 229.85,-18.35 238.59,-17.3"/>
<polygon fill="black" stroke="black" points="211.41,-17.03 201.89,-21.69 212.24,-23.98 211.41,-17.03"/>
</g>
</g>
</svg>
</svg>

<style type='text/css'>
<![CDATA[
[data-mouse-over-selected='false'] { opacity: 0.7; }
[data-mouse-over-selected='true']  { opacity: 1.0; }
]]>
</style>
<script type="application/ecmascript"><![CDATA[
document.addEventListener('DOMContentLoaded', (event) => {
  highlightEdges();
  highlightAdjacentNodes();
});
]]></script>
</svg>
