<?xml version="1.0" encoding="UTF-8" standalone="no"?>
<!DOCTYPE svg PUBLIC "-//W3C//DTD SVG 1.1//EN"
 "http://www.w3.org/Graphics/SVG/1.1/DTD/svg11.dtd">
<!-- Generated by graphviz version 12.2.1 (20241206.2353)
 -->
<!-- Title: FLASH Exported Constants Pages: 1 -->
<svg width="405pt" height="224pt"
 viewBox="0.00 0.00 404.75 223.75" xmlns="http://www.w3.org/2000/svg" xmlns:xlink="http://www.w3.org/1999/xlink">
<g id="page0,1_graph0" class="graph" transform="scale(1 1) rotate(0) translate(4 219.75)">
<title>FLASH Exported Constants</title>
<!-- Node2 -->
<g id="Node000002" class="node">
<title>Node2</title>
<g id="a_Node000002"><a xlink:href="group__FLASH.html" target="_top" xlink:title="FLASH HAL module driver.">
<polygon fill="white" stroke="#666666" points="46,-117.75 0,-117.75 0,-97 46,-97 46,-117.75"/>
<text text-anchor="middle" x="23" y="-104.25" font-family="Helvetica,sans-Serif" font-size="10.00">FLASH</text>
</a>
</g>
</g>
<!-- Node1 -->
<g id="Node000001" class="node">
<title>Node1</title>
<g id="a_Node000001"><a xlink:title=" ">
<polygon fill="#999999" stroke="#666666" points="220.25,-117.75 82,-117.75 82,-97 220.25,-97 220.25,-117.75"/>
<text text-anchor="middle" x="151.12" y="-104.25" font-family="Helvetica,sans-Serif" font-size="10.00">FLASH Exported Constants</text>
</a>
</g>
</g>
<!-- Node2&#45;&gt;Node1 -->
<g id="edge1" class="edge">
<title>Node2&#45;&gt;Node1</title>
<path fill="none" stroke="black" d="M57.65,-107.38C65.1,-107.38 73.25,-107.38 81.53,-107.38"/>
<polygon fill="black" stroke="black" points="57.77,-103.88 47.77,-107.38 57.77,-110.88 57.77,-103.88"/>
</g>
<!-- Node3 -->
<g id="Node000003" class="node">
<title>Node3</title>
<g id="a_Node000003"><a xlink:href="group__FLASH__Error__Code.html" target="_top" xlink:title="FLASH Error Code.">
<polygon fill="white" stroke="#666666" points="375.38,-215.75 277.62,-215.75 277.62,-195 375.38,-195 375.38,-215.75"/>
<text text-anchor="middle" x="326.5" y="-202.25" font-family="Helvetica,sans-Serif" font-size="10.00">FLASH Error Code</text>
</a>
</g>
</g>
<!-- Node1&#45;&gt;Node3 -->
<g id="edge2" class="edge">
<title>Node1&#45;&gt;Node3</title>
<path fill="none" stroke="black" d="M171.86,-125.64C191.78,-143.21 224.13,-169.38 256.25,-185.38 263.42,-188.95 271.33,-191.98 279.17,-194.52"/>
<polygon fill="black" stroke="black" points="174.28,-123.11 164.5,-119.03 169.6,-128.32 174.28,-123.11"/>
</g>
<!-- Node5 -->
<g id="Node000005" class="node">
<title>Node5</title>
<g id="a_Node000005"><a xlink:href="group__FLASH__Flag__definition.html" target="_top" xlink:title="Flag definition.">
<polygon fill="white" stroke="#666666" points="383.62,-176.75 269.38,-176.75 269.38,-156 383.62,-156 383.62,-176.75"/>
<text text-anchor="middle" x="326.5" y="-163.25" font-family="Helvetica,sans-Serif" font-size="10.00">FLASH Flag definition</text>
</a>
</g>
</g>
<!-- Node1&#45;&gt;Node5 -->
<g id="edge4" class="edge">
<title>Node1&#45;&gt;Node5</title>
<path fill="none" stroke="black" d="M189.99,-122.36C209.63,-129.93 234.09,-139.04 256.25,-146.38 265.87,-149.56 276.34,-152.73 286.15,-155.58"/>
<polygon fill="black" stroke="black" points="191.32,-119.12 180.73,-118.77 188.79,-125.65 191.32,-119.12"/>
</g>
<!-- Node6 -->
<g id="Node000006" class="node">
<title>Node6</title>
<g id="a_Node000006"><a xlink:href="group__FLASH__Interrupt__definition.html" target="_top" xlink:title="FLASH Interrupt definition.">
<polygon fill="white" stroke="#666666" points="393.75,-137.75 259.25,-137.75 259.25,-117 393.75,-117 393.75,-137.75"/>
<text text-anchor="middle" x="326.5" y="-124.25" font-family="Helvetica,sans-Serif" font-size="10.00">FLASH Interrupt definition</text>
</a>
</g>
</g>
<!-- Node1&#45;&gt;Node6 -->
<g id="edge5" class="edge">
<title>Node1&#45;&gt;Node6</title>
<path fill="none" stroke="black" d="M231.97,-116.59C240.98,-117.62 250.08,-118.67 258.89,-119.69"/>
<polygon fill="black" stroke="black" points="232.49,-113.12 222.15,-115.45 231.68,-120.08 232.49,-113.12"/>
</g>
<!-- Node8 -->
<g id="Node000008" class="node">
<title>Node8</title>
<g id="a_Node000008"><a xlink:href="group__FLASH__Keys.html" target="_top" xlink:title=" ">
<polygon fill="white" stroke="#666666" points="360.75,-98.75 292.25,-98.75 292.25,-78 360.75,-78 360.75,-98.75"/>
<text text-anchor="middle" x="326.5" y="-85.25" font-family="Helvetica,sans-Serif" font-size="10.00">FLASH Keys</text>
</a>
</g>
</g>
<!-- Node1&#45;&gt;Node8 -->
<g id="edge7" class="edge">
<title>Node1&#45;&gt;Node8</title>
<path fill="none" stroke="black" d="M232.01,-98.62C253.23,-96.3 275,-93.91 292.19,-92.03"/>
<polygon fill="black" stroke="black" points="231.71,-95.13 222.15,-99.7 232.47,-102.09 231.71,-95.13"/>
</g>
<!-- Node7 -->
<g id="Node000007" class="node">
<title>Node7</title>
<g id="a_Node000007"><a xlink:href="group__FLASH__Program__Parallelism.html" target="_top" xlink:title=" ">
<polygon fill="white" stroke="#666666" points="396.75,-59.75 256.25,-59.75 256.25,-39 396.75,-39 396.75,-59.75"/>
<text text-anchor="middle" x="326.5" y="-46.25" font-family="Helvetica,sans-Serif" font-size="10.00">FLASH Program Parallelism</text>
</a>
</g>
</g>
<!-- Node1&#45;&gt;Node7 -->
<g id="edge6" class="edge">
<title>Node1&#45;&gt;Node7</title>
<path fill="none" stroke="black" d="M190.84,-92.53C210.35,-85.23 234.43,-76.5 256.25,-69.38 265.89,-66.23 276.36,-63.07 286.17,-60.23"/>
<polygon fill="black" stroke="black" points="189.77,-89.19 181.64,-95.99 192.23,-95.74 189.77,-89.19"/>
</g>
<!-- Node4 -->
<g id="Node000004" class="node">
<title>Node4</title>
<g id="a_Node000004"><a xlink:href="group__FLASH__Type__Program.html" target="_top" xlink:title=" ">
<polygon fill="white" stroke="#666666" points="382.5,-20.75 270.5,-20.75 270.5,0 382.5,0 382.5,-20.75"/>
<text text-anchor="middle" x="326.5" y="-7.25" font-family="Helvetica,sans-Serif" font-size="10.00">FLASH Type Program</text>
</a>
</g>
</g>
<!-- Node1&#45;&gt;Node4 -->
<g id="edge3" class="edge">
<title>Node1&#45;&gt;Node4</title>
<path fill="none" stroke="black" d="M172.23,-89.07C192.21,-71.75 224.41,-46.11 256.25,-30.38 263.54,-26.77 271.6,-23.71 279.55,-21.14"/>
<polygon fill="black" stroke="black" points="170.01,-86.36 164.83,-95.61 174.64,-91.61 170.01,-86.36"/>
</g>
</g>
</svg>
