<?xml version="1.0" encoding="UTF-8" standalone="no"?>
<!DOCTYPE svg PUBLIC "-//W3C//DTD SVG 1.1//EN"
 "http://www.w3.org/Graphics/SVG/1.1/DTD/svg11.dtd">
<!-- Generated by graphviz version 12.2.1 (20241206.2353)
 -->
<!-- Title: PWREx Exported Constants Pages: 1 -->
<svg width="401pt" height="42pt"
 viewBox="0.00 0.00 401.00 41.50" xmlns="http://www.w3.org/2000/svg" xmlns:xlink="http://www.w3.org/1999/xlink">
<g id="page0,1_graph0" class="graph" transform="scale(1 1) rotate(0) translate(4 37.5)">
<title>PWREx Exported Constants</title>
<!-- Node2 -->
<g id="Node000002" class="node">
<title>Node2</title>
<g id="a_Node000002"><a xlink:href="group__PWREx.html" target="_top" xlink:title="PWR HAL module driver.">
<polygon fill="white" stroke="#666666" points="48.25,-27.12 0,-27.12 0,-6.38 48.25,-6.38 48.25,-27.12"/>
<text text-anchor="middle" x="24.12" y="-13.62" font-family="Helvetica,sans-Serif" font-size="10.00">PWREx</text>
</a>
</g>
</g>
<!-- Node1 -->
<g id="Node000001" class="node">
<title>Node1</title>
<g id="a_Node000001"><a xlink:title=" ">
<polygon fill="#999999" stroke="#666666" points="224.75,-27.12 84.25,-27.12 84.25,-6.38 224.75,-6.38 224.75,-27.12"/>
<text text-anchor="middle" x="154.5" y="-13.62" font-family="Helvetica,sans-Serif" font-size="10.00">PWREx Exported Constants</text>
</a>
</g>
</g>
<!-- Node2&#45;&gt;Node1 -->
<g id="edge1" class="edge">
<title>Node2&#45;&gt;Node1</title>
<path fill="none" stroke="black" d="M60.12,-16.75C67.58,-16.75 75.7,-16.75 83.95,-16.75"/>
<polygon fill="black" stroke="black" points="60.18,-13.25 50.18,-16.75 60.18,-20.25 60.18,-13.25"/>
</g>
<!-- Node3 -->
<g id="Node000003" class="node">
<title>Node3</title>
<g id="a_Node000003"><a xlink:href="group__PWREx__Regulator__Voltage__Scale.html" target="_top" xlink:title=" ">
<polygon fill="white" stroke="#666666" points="393,-33.5 260.75,-33.5 260.75,0 393,0 393,-33.5"/>
<text text-anchor="start" x="268.75" y="-20" font-family="Helvetica,sans-Serif" font-size="10.00">PWREx Regulator Voltage</text>
<text text-anchor="middle" x="326.88" y="-7.25" font-family="Helvetica,sans-Serif" font-size="10.00"> Scale</text>
</a>
</g>
</g>
<!-- Node1&#45;&gt;Node3 -->
<g id="edge2" class="edge">
<title>Node1&#45;&gt;Node3</title>
<path fill="none" stroke="black" d="M236.23,-16.75C244.36,-16.75 252.55,-16.75 260.49,-16.75"/>
<polygon fill="black" stroke="black" points="236.31,-13.25 226.31,-16.75 236.31,-20.25 236.31,-13.25"/>
</g>
</g>
</svg>
