<?xml version="1.0" encoding="UTF-8" standalone="no"?>
<!DOCTYPE svg PUBLIC "-//W3C//DTD SVG 1.1//EN"
 "http://www.w3.org/Graphics/SVG/1.1/DTD/svg11.dtd">
<!-- Generated by graphviz version 2.43.0 (0)
 -->
<!-- Title: TIM Extended Exported Functions Pages: 1 -->
<svg width="433pt" height="326pt"
 viewBox="0.00 0.00 433.00 326.00" xmlns="http://www.w3.org/2000/svg" xmlns:xlink="http://www.w3.org/1999/xlink">
<g id="graph0" class="graph" transform="scale(1 1) rotate(0) translate(4 322)">
<title>TIM Extended Exported Functions</title>
<!-- Node2 -->
<g id="Node000002" class="node">
<title>Node2</title>
<g id="a_Node000002"><a xlink:href="group__TIMEx.html" target="_top" xlink:title="TIM Extended HAL module driver.">
<polygon fill="white" stroke="#666666" points="47,-168.5 0,-168.5 0,-149.5 47,-149.5 47,-168.5"/>
<text text-anchor="middle" x="23.5" y="-156.5" font-family="Helvetica,sans-Serif" font-size="10.00">TIMEx</text>
</a>
</g>
</g>
<!-- Node1 -->
<g id="Node000001" class="node">
<title>Node1</title>
<g id="a_Node000001"><a xlink:title=" ">
<polygon fill="#999999" stroke="#666666" points="213,-174 83,-174 83,-144 213,-144 213,-174"/>
<text text-anchor="start" x="91" y="-162" font-family="Helvetica,sans-Serif" font-size="10.00">TIM Extended Exported</text>
<text text-anchor="middle" x="148" y="-151" font-family="Helvetica,sans-Serif" font-size="10.00"> Functions</text>
</a>
</g>
</g>
<!-- Node2&#45;&gt;Node1 -->
<g id="edge1" class="edge">
<title>Node2&#45;&gt;Node1</title>
<path fill="none" stroke="black" d="M57.49,-159C65.42,-159 74.15,-159 82.97,-159"/>
<polygon fill="black" stroke="black" points="57.25,-155.5 47.25,-159 57.25,-162.5 57.25,-155.5"/>
</g>
<!-- Node3 -->
<g id="Node000003" class="node">
<title>Node3</title>
<g id="a_Node000003"><a xlink:href="group__TIMEx__Exported__Functions__Group1.html" target="_top" xlink:title="Timer Hall Sensor functions.">
<polygon fill="white" stroke="#666666" points="395,-318 279,-318 279,-288 395,-288 395,-318"/>
<text text-anchor="start" x="287" y="-306" font-family="Helvetica,sans-Serif" font-size="10.00">Extended Timer Hall</text>
<text text-anchor="middle" x="337" y="-295" font-family="Helvetica,sans-Serif" font-size="10.00"> Sensor functions</text>
</a>
</g>
</g>
<!-- Node1&#45;&gt;Node3 -->
<g id="edge2" class="edge">
<title>Node1&#45;&gt;Node3</title>
<path fill="none" stroke="black" d="M162.7,-182.96C179.54,-210.26 210.67,-254.29 249,-279 257.95,-284.77 268.29,-289.17 278.64,-292.52"/>
<polygon fill="black" stroke="black" points="165.5,-180.82 157.35,-174.06 159.5,-184.43 165.5,-180.82"/>
</g>
<!-- Node4 -->
<g id="Node000004" class="node">
<title>Node4</title>
<g id="a_Node000004"><a xlink:href="group__TIMEx__Exported__Functions__Group2.html" target="_top" xlink:title="Timer Complementary Output Compare functions.">
<polygon fill="white" stroke="#666666" points="425,-270 249,-270 249,-240 425,-240 425,-270"/>
<text text-anchor="start" x="257" y="-258" font-family="Helvetica,sans-Serif" font-size="10.00">Extended Timer Complementary</text>
<text text-anchor="middle" x="337" y="-247" font-family="Helvetica,sans-Serif" font-size="10.00"> Output Compare functions</text>
</a>
</g>
</g>
<!-- Node1&#45;&gt;Node4 -->
<g id="edge3" class="edge">
<title>Node1&#45;&gt;Node4</title>
<path fill="none" stroke="black" d="M173.57,-180.52C192.9,-196.47 221.14,-217.66 249,-231 256.07,-234.38 263.69,-237.36 271.39,-239.96"/>
<polygon fill="black" stroke="black" points="175.77,-177.8 165.86,-174.05 171.26,-183.16 175.77,-177.8"/>
</g>
<!-- Node5 -->
<g id="Node000005" class="node">
<title>Node5</title>
<g id="a_Node000005"><a xlink:href="group__TIMEx__Exported__Functions__Group3.html" target="_top" xlink:title="Timer Complementary PWM functions.">
<polygon fill="white" stroke="#666666" points="425,-222 249,-222 249,-192 425,-192 425,-222"/>
<text text-anchor="start" x="257" y="-210" font-family="Helvetica,sans-Serif" font-size="10.00">Extended Timer Complementary</text>
<text text-anchor="middle" x="337" y="-199" font-family="Helvetica,sans-Serif" font-size="10.00"> PWM functions</text>
</a>
</g>
</g>
<!-- Node1&#45;&gt;Node5 -->
<g id="edge4" class="edge">
<title>Node1&#45;&gt;Node5</title>
<path fill="none" stroke="black" d="M217.49,-176.58C237.2,-181.64 258.51,-187.11 277.55,-192"/>
<polygon fill="black" stroke="black" points="218.21,-173.15 207.65,-174.06 216.47,-179.93 218.21,-173.15"/>
</g>
<!-- Node6 -->
<g id="Node000006" class="node">
<title>Node6</title>
<g id="a_Node000006"><a xlink:href="group__TIMEx__Exported__Functions__Group4.html" target="_top" xlink:title="Timer Complementary One Pulse functions.">
<polygon fill="white" stroke="#666666" points="425,-174 249,-174 249,-144 425,-144 425,-174"/>
<text text-anchor="start" x="257" y="-162" font-family="Helvetica,sans-Serif" font-size="10.00">Extended Timer Complementary</text>
<text text-anchor="middle" x="337" y="-151" font-family="Helvetica,sans-Serif" font-size="10.00"> One Pulse functions</text>
</a>
</g>
</g>
<!-- Node1&#45;&gt;Node6 -->
<g id="edge5" class="edge">
<title>Node1&#45;&gt;Node6</title>
<path fill="none" stroke="black" d="M223.23,-159C231.65,-159 240.29,-159 248.85,-159"/>
<polygon fill="black" stroke="black" points="223.09,-155.5 213.09,-159 223.09,-162.5 223.09,-155.5"/>
</g>
<!-- Node7 -->
<g id="Node000007" class="node">
<title>Node7</title>
<g id="a_Node000007"><a xlink:href="group__TIMEx__Exported__Functions__Group5.html" target="_top" xlink:title="Peripheral Control functions.">
<polygon fill="white" stroke="#666666" points="394.5,-126 279.5,-126 279.5,-96 394.5,-96 394.5,-126"/>
<text text-anchor="start" x="287.5" y="-114" font-family="Helvetica,sans-Serif" font-size="10.00">Extended Peripheral</text>
<text text-anchor="middle" x="337" y="-103" font-family="Helvetica,sans-Serif" font-size="10.00"> Control functions</text>
</a>
</g>
</g>
<!-- Node1&#45;&gt;Node7 -->
<g id="edge6" class="edge">
<title>Node1&#45;&gt;Node7</title>
<path fill="none" stroke="black" d="M217.5,-141.42C237.87,-136.19 259.95,-130.52 279.47,-125.51"/>
<polygon fill="black" stroke="black" points="216.47,-138.07 207.65,-143.94 218.21,-144.85 216.47,-138.07"/>
</g>
<!-- Node8 -->
<g id="Node000008" class="node">
<title>Node8</title>
<g id="a_Node000008"><a xlink:href="group__TIMEx__Exported__Functions__Group6.html" target="_top" xlink:title="Extended Callbacks functions.">
<polygon fill="white" stroke="#666666" points="393.5,-78 280.5,-78 280.5,-48 393.5,-48 393.5,-78"/>
<text text-anchor="start" x="288.5" y="-66" font-family="Helvetica,sans-Serif" font-size="10.00">Extended Callbacks</text>
<text text-anchor="middle" x="337" y="-55" font-family="Helvetica,sans-Serif" font-size="10.00"> functions</text>
</a>
</g>
</g>
<!-- Node1&#45;&gt;Node8 -->
<g id="edge7" class="edge">
<title>Node1&#45;&gt;Node8</title>
<path fill="none" stroke="black" d="M173.57,-137.48C192.9,-121.53 221.14,-100.34 249,-87 258.75,-82.33 269.57,-78.43 280.16,-75.23"/>
<polygon fill="black" stroke="black" points="171.26,-134.84 165.86,-143.95 175.77,-140.2 171.26,-134.84"/>
</g>
<!-- Node9 -->
<g id="Node000009" class="node">
<title>Node9</title>
<g id="a_Node000009"><a xlink:href="group__TIMEx__Exported__Functions__Group7.html" target="_top" xlink:title="Extended Peripheral State functions.">
<polygon fill="white" stroke="#666666" points="394.5,-30 279.5,-30 279.5,0 394.5,0 394.5,-30"/>
<text text-anchor="start" x="287.5" y="-18" font-family="Helvetica,sans-Serif" font-size="10.00">Extended Peripheral</text>
<text text-anchor="middle" x="337" y="-7" font-family="Helvetica,sans-Serif" font-size="10.00"> State functions</text>
</a>
</g>
</g>
<!-- Node1&#45;&gt;Node9 -->
<g id="edge8" class="edge">
<title>Node1&#45;&gt;Node9</title>
<path fill="none" stroke="black" d="M162.7,-135.04C179.54,-107.74 210.67,-63.71 249,-39 258.09,-33.14 268.6,-28.7 279.1,-25.33"/>
<polygon fill="black" stroke="black" points="159.5,-133.57 157.35,-143.94 165.5,-137.18 159.5,-133.57"/>
</g>
</g>
</svg>
