<?xml version="1.0" encoding="UTF-8" standalone="no"?>
<!DOCTYPE svg PUBLIC "-//W3C//DTD SVG 1.1//EN"
 "http://www.w3.org/Graphics/SVG/1.1/DTD/svg11.dtd">
<!-- Generated by graphviz version 2.43.0 (0)
 -->
<!-- Title: RCCEx Exported Constants Pages: 1 -->
<svg width="425pt" height="138pt"
 viewBox="0.00 0.00 425.00 138.00" xmlns="http://www.w3.org/2000/svg" xmlns:xlink="http://www.w3.org/1999/xlink">

<svg id="main" version="1.1" xmlns="http://www.w3.org/2000/svg" xmlns:xlink="http://www.w3.org/1999/xlink" xml:space="preserve">

<style type="text/css"><![CDATA[
.node, .edge {opacity: 0.7;}
.node.selected, .edge.selected {opacity: 1;}
.edge:hover path { stroke: red; }
.edge:hover polygon { stroke: red; fill: red; }
]]></style>
<script type="application/ecmascript" xlink:href="svg.min.js"/>
<svg id="graph" class="graph">
<g id="graph0" class="graph" transform="scale(1 1) rotate(0) translate(4 134)">
<title>RCCEx Exported Constants</title>
<!-- Node2 -->
<g id="Node000002" class="node">
<title>Node2</title>
<g id="a_Node000002"><a xlink:href="group__RCCEx.html" target="_top" xlink:title="RCCEx HAL module driver.">
<polygon fill="white" stroke="#666666" points="49,-74 0,-74 0,-55 49,-55 49,-74"/>
<text text-anchor="middle" x="24.5" y="-62" font-family="Helvetica,sans-Serif" font-size="10.00">RCCEx</text>
</a>
</g>
</g>
<!-- Node1 -->
<g id="Node000001" class="node">
<title>Node1</title>
<g id="a_Node000001"><a xlink:title=" ">
<polygon fill="#999999" stroke="#666666" points="232,-74 85,-74 85,-55 232,-55 232,-74"/>
<text text-anchor="middle" x="158.5" y="-62" font-family="Helvetica,sans-Serif" font-size="10.00">RCCEx Exported Constants</text>
</a>
</g>
</g>
<!-- Node2&#45;&gt;Node1 -->
<g id="edge1" class="edge">
<title>Node2&#45;&gt;Node1</title>
<path fill="none" stroke="black" d="M59.32,-64.5C67.24,-64.5 75.97,-64.5 84.86,-64.5"/>
<polygon fill="black" stroke="black" points="59.1,-61 49.1,-64.5 59.1,-68 59.1,-61"/>
</g>
<!-- Node5 -->
<g id="Node000005" class="node">
<title>Node5</title>
<g id="a_Node000005"><a xlink:href="group__RCCEx__PLLI2SP__Clock__Divider.html" target="_top" xlink:title=" ">
<polygon fill="white" stroke="#666666" points="415.5,-130 269.5,-130 269.5,-111 415.5,-111 415.5,-130"/>
<text text-anchor="middle" x="342.5" y="-118" font-family="Helvetica,sans-Serif" font-size="10.00">RCC PLLI2SP Clock Divider</text>
</a>
</g>
</g>
<!-- Node1&#45;&gt;Node5 -->
<g id="edge4" class="edge">
<title>Node1&#45;&gt;Node5</title>
<path fill="none" stroke="black" d="M194.23,-77.63C215.38,-85.38 243.06,-95.1 268,-102.5 278.08,-105.49 289.03,-108.37 299.33,-110.92"/>
<polygon fill="black" stroke="black" points="195.3,-74.29 184.7,-74.11 192.87,-80.86 195.3,-74.29"/>
</g>
<!-- Node6 -->
<g id="Node000006" class="node">
<title>Node6</title>
<g id="a_Node000006"><a xlink:href="group__RCCEx__PLLSAIP__Clock__Divider.html" target="_top" xlink:title=" ">
<polygon fill="white" stroke="#666666" points="416,-93 269,-93 269,-74 416,-74 416,-93"/>
<text text-anchor="middle" x="342.5" y="-81" font-family="Helvetica,sans-Serif" font-size="10.00">RCC PLLSAIP Clock Divider</text>
</a>
</g>
</g>
<!-- Node1&#45;&gt;Node6 -->
<g id="edge5" class="edge">
<title>Node1&#45;&gt;Node6</title>
<path fill="none" stroke="black" d="M242.21,-73.13C251.11,-74.06 260.13,-75 268.9,-75.92"/>
<polygon fill="black" stroke="black" points="242.53,-69.65 232.22,-72.09 241.8,-76.61 242.53,-69.65"/>
</g>
<!-- Node4 -->
<g id="Node000004" class="node">
<title>Node4</title>
<g id="a_Node000004"><a xlink:href="group__RCCEx__PLLSAI__DIVR.html" target="_top" xlink:title=" ">
<polygon fill="white" stroke="#666666" points="392.5,-56 292.5,-56 292.5,-37 392.5,-37 392.5,-56"/>
<text text-anchor="middle" x="342.5" y="-44" font-family="Helvetica,sans-Serif" font-size="10.00">RCC PLLSAI DIVR</text>
</a>
</g>
</g>
<!-- Node1&#45;&gt;Node4 -->
<g id="edge3" class="edge">
<title>Node1&#45;&gt;Node4</title>
<path fill="none" stroke="black" d="M242.24,-56.32C259.37,-54.62 276.9,-52.89 292.37,-51.36"/>
<polygon fill="black" stroke="black" points="241.82,-52.84 232.22,-57.31 242.51,-59.81 241.82,-52.84"/>
</g>
<!-- Node3 -->
<g id="Node000003" class="node">
<title>Node3</title>
<g id="a_Node000003"><a xlink:href="group__RCCEx__Periph__Clock__Selection.html" target="_top" xlink:title=" ">
<polygon fill="white" stroke="#666666" points="417,-19 268,-19 268,0 417,0 417,-19"/>
<text text-anchor="middle" x="342.5" y="-7" font-family="Helvetica,sans-Serif" font-size="10.00">RCC Periph Clock Selection</text>
</a>
</g>
</g>
<!-- Node1&#45;&gt;Node3 -->
<g id="edge2" class="edge">
<title>Node1&#45;&gt;Node3</title>
<path fill="none" stroke="black" d="M196.02,-51.7C216.97,-44.53 243.84,-35.62 268,-28.5 279.12,-25.22 291.29,-21.95 302.46,-19.07"/>
<polygon fill="black" stroke="black" points="194.86,-48.4 186.54,-54.96 197.13,-55.02 194.86,-48.4"/>
</g>
</g>
</svg>
</svg>

<style type='text/css'>
<![CDATA[
[data-mouse-over-selected='false'] { opacity: 0.7; }
[data-mouse-over-selected='true']  { opacity: 1.0; }
]]>
</style>
<script type="application/ecmascript"><![CDATA[
document.addEventListener('DOMContentLoaded', (event) => {
  highlightEdges();
  highlightAdjacentNodes();
});
]]></script>
</svg>
