<?xml version="1.0" encoding="UTF-8" standalone="no"?>
<!DOCTYPE svg PUBLIC "-//W3C//DTD SVG 1.1//EN"
 "http://www.w3.org/Graphics/SVG/1.1/DTD/svg11.dtd">
<!-- Generated by graphviz version 12.2.1 (20241206.2353)
 -->
<!-- Title: HAL Exported Functions Pages: 1 -->
<svg width="375pt" height="80pt"
 viewBox="0.00 0.00 374.75 80.12" xmlns="http://www.w3.org/2000/svg" xmlns:xlink="http://www.w3.org/1999/xlink">

<svg id="main" version="1.1" xmlns="http://www.w3.org/2000/svg" xmlns:xlink="http://www.w3.org/1999/xlink" xml:space="preserve">

<style type="text/css"><![CDATA[
.node, .edge {opacity: 0.7;}
.node.selected, .edge.selected {opacity: 1;}
.edge:hover path { stroke: red; }
.edge:hover polygon { stroke: red; fill: red; }
]]></style>
<script type="application/ecmascript" xlink:href="svg.min.js"/>
<svg id="graph" class="graph">
<g id="graph0" class="graph" transform="scale(1 1) rotate(0) translate(4 76.12)">
<title>HAL Exported Functions</title>
<!-- Node2 -->
<g id="Node000002" class="node">
<title>Node2</title>
<g id="a_Node000002"><a xlink:href="group__HAL.html" target="_top" xlink:title="HAL module driver.">
<polygon fill="white" stroke="#666666" points="34.75,-42.75 0,-42.75 0,-22 34.75,-22 34.75,-42.75"/>
<text text-anchor="middle" x="17.38" y="-29.25" font-family="Helvetica,sans-Serif" font-size="10.00">HAL</text>
</a>
</g>
</g>
<!-- Node1 -->
<g id="Node000001" class="node">
<title>Node1</title>
<g id="a_Node000001"><a xlink:title=" ">
<polygon fill="#999999" stroke="#666666" points="195.5,-42.75 70.75,-42.75 70.75,-22 195.5,-22 195.5,-42.75"/>
<text text-anchor="middle" x="133.12" y="-29.25" font-family="Helvetica,sans-Serif" font-size="10.00">HAL Exported Functions</text>
</a>
</g>
</g>
<!-- Node2&#45;&gt;Node1 -->
<g id="edge1" class="edge">
<title>Node2&#45;&gt;Node1</title>
<path fill="none" stroke="black" d="M46.56,-32.38C53.89,-32.38 62.08,-32.38 70.41,-32.38"/>
<polygon fill="black" stroke="black" points="46.67,-28.88 36.67,-32.38 46.67,-35.88 46.67,-28.88"/>
</g>
<!-- Node3 -->
<g id="Node000003" class="node">
<title>Node3</title>
<g id="a_Node000003"><a xlink:href="group__HAL__Exported__Functions__Group1.html" target="_top" xlink:title="Initialization and de&#45;initialization functions.">
<polygon fill="white" stroke="#666666" points="366.75,-72.12 231.5,-72.12 231.5,-38.62 366.75,-38.62 366.75,-72.12"/>
<text text-anchor="start" x="239.5" y="-58.62" font-family="Helvetica,sans-Serif" font-size="10.00">Initialization and</text>
<text text-anchor="middle" x="299.12" y="-45.88" font-family="Helvetica,sans-Serif" font-size="10.00"> de&#45;initialization Functions</text>
</a>
</g>
</g>
<!-- Node1&#45;&gt;Node3 -->
<g id="edge2" class="edge">
<title>Node1&#45;&gt;Node3</title>
<path fill="none" stroke="black" d="M206.9,-42.58C214.92,-43.71 223.07,-44.85 231.03,-45.96"/>
<polygon fill="black" stroke="black" points="207.55,-39.14 197.16,-41.22 206.57,-46.07 207.55,-39.14"/>
</g>
<!-- Node4 -->
<g id="Node000004" class="node">
<title>Node4</title>
<g id="a_Node000004"><a xlink:href="group__HAL__Exported__Functions__Group2.html" target="_top" xlink:title="HAL Control functions.">
<polygon fill="white" stroke="#666666" points="357.38,-20.75 240.88,-20.75 240.88,0 357.38,0 357.38,-20.75"/>
<text text-anchor="middle" x="299.12" y="-7.25" font-family="Helvetica,sans-Serif" font-size="10.00">HAL Control functions</text>
</a>
</g>
</g>
<!-- Node1&#45;&gt;Node4 -->
<g id="edge3" class="edge">
<title>Node1&#45;&gt;Node4</title>
<path fill="none" stroke="black" d="M206.85,-22.62C218.15,-21.1 229.68,-19.56 240.58,-18.09"/>
<polygon fill="black" stroke="black" points="206.61,-19.12 197.16,-23.92 207.54,-26.06 206.61,-19.12"/>
</g>
</g>
</svg>
</svg>

<style type='text/css'>
<![CDATA[
[data-mouse-over-selected='false'] { opacity: 0.7; }
[data-mouse-over-selected='true']  { opacity: 1.0; }
]]>
</style>
<script type="application/ecmascript"><![CDATA[
document.addEventListener('DOMContentLoaded', (event) => {
  highlightEdges();
  highlightAdjacentNodes();
});
]]></script>
</svg>
