<?xml version="1.0" encoding="UTF-8" standalone="no"?>
<!DOCTYPE svg PUBLIC "-//W3C//DTD SVG 1.1//EN"
 "http://www.w3.org/Graphics/SVG/1.1/DTD/svg11.dtd">
<!-- Generated by graphviz version 12.2.1 (20241206.2353)
 -->
<!-- Title: CORTEX Exported Constants Pages: 1 -->
<svg width="425pt" height="94pt"
 viewBox="0.00 0.00 425.00 93.50" xmlns="http://www.w3.org/2000/svg" xmlns:xlink="http://www.w3.org/1999/xlink">

<svg id="main" version="1.1" xmlns="http://www.w3.org/2000/svg" xmlns:xlink="http://www.w3.org/1999/xlink" xml:space="preserve">

<style type="text/css"><![CDATA[
.node, .edge {opacity: 0.7;}
.node.selected, .edge.selected {opacity: 1;}
.edge:hover path { stroke: red; }
.edge:hover polygon { stroke: red; fill: red; }
]]></style>
<script type="application/ecmascript" xlink:href="svg.min.js"/>
<svg id="graph" class="graph">
<g id="graph0" class="graph" transform="scale(1 1) rotate(0) translate(4 89.5)">
<title>CORTEX Exported Constants</title>
<!-- Node2 -->
<g id="Node000002" class="node">
<title>Node2</title>
<g id="a_Node000002"><a xlink:href="group__CORTEX.html" target="_top" xlink:title="CORTEX HAL module driver.">
<polygon fill="white" stroke="#666666" points="54.25,-53.12 0,-53.12 0,-32.38 54.25,-32.38 54.25,-53.12"/>
<text text-anchor="middle" x="27.12" y="-39.62" font-family="Helvetica,sans-Serif" font-size="10.00">CORTEX</text>
</a>
</g>
</g>
<!-- Node1 -->
<g id="Node000001" class="node">
<title>Node1</title>
<g id="a_Node000001"><a xlink:title=" ">
<polygon fill="#999999" stroke="#666666" points="236.75,-53.12 90.25,-53.12 90.25,-32.38 236.75,-32.38 236.75,-53.12"/>
<text text-anchor="middle" x="163.5" y="-39.62" font-family="Helvetica,sans-Serif" font-size="10.00">CORTEX Exported Constants</text>
</a>
</g>
</g>
<!-- Node2&#45;&gt;Node1 -->
<g id="edge1" class="edge">
<title>Node2&#45;&gt;Node1</title>
<path fill="none" stroke="black" d="M65.98,-42.75C73.54,-42.75 81.72,-42.75 90,-42.75"/>
<polygon fill="black" stroke="black" points="66.19,-39.25 56.19,-42.75 66.19,-46.25 66.19,-39.25"/>
</g>
<!-- Node3 -->
<g id="Node000003" class="node">
<title>Node3</title>
<g id="a_Node000003"><a xlink:href="group__CORTEX__Preemption__Priority__Group.html" target="_top" xlink:title=" ">
<polygon fill="white" stroke="#666666" points="417,-85.5 272.75,-85.5 272.75,-52 417,-52 417,-85.5"/>
<text text-anchor="start" x="280.75" y="-72" font-family="Helvetica,sans-Serif" font-size="10.00">CORTEX Preemption Priority</text>
<text text-anchor="middle" x="344.88" y="-59.25" font-family="Helvetica,sans-Serif" font-size="10.00"> Group</text>
</a>
</g>
</g>
<!-- Node1&#45;&gt;Node3 -->
<g id="edge2" class="edge">
<title>Node1&#45;&gt;Node3</title>
<path fill="none" stroke="black" d="M248.49,-54.92C256.53,-56.09 264.63,-57.26 272.53,-58.41"/>
<polygon fill="black" stroke="black" points="249.1,-51.48 238.7,-53.5 248.09,-58.4 249.1,-51.48"/>
</g>
<!-- Node4 -->
<g id="Node000004" class="node">
<title>Node4</title>
<g id="a_Node000004"><a xlink:href="group__CORTEX__SysTick__clock__source.html" target="_top" xlink:title=" ">
<polygon fill="white" stroke="#666666" points="404.62,-33.5 285.12,-33.5 285.12,0 404.62,0 404.62,-33.5"/>
<text text-anchor="start" x="293.12" y="-20" font-family="Helvetica,sans-Serif" font-size="10.00">CORTEX _SysTick clock</text>
<text text-anchor="middle" x="344.88" y="-7.25" font-family="Helvetica,sans-Serif" font-size="10.00"> source</text>
</a>
</g>
</g>
<!-- Node1&#45;&gt;Node4 -->
<g id="edge3" class="edge">
<title>Node1&#45;&gt;Node4</title>
<path fill="none" stroke="black" d="M248.42,-30.59C260.72,-28.8 273.16,-27 284.82,-25.31"/>
<polygon fill="black" stroke="black" points="248.09,-27.1 238.7,-32 249.1,-34.02 248.09,-27.1"/>
</g>
</g>
</svg>
</svg>

<style type='text/css'>
<![CDATA[
[data-mouse-over-selected='false'] { opacity: 0.7; }
[data-mouse-over-selected='true']  { opacity: 1.0; }
]]>
</style>
<script type="application/ecmascript"><![CDATA[
document.addEventListener('DOMContentLoaded', (event) => {
  highlightEdges();
  highlightAdjacentNodes();
});
]]></script>
</svg>
