<?xml version="1.0" encoding="UTF-8" standalone="no"?>
<!DOCTYPE svg PUBLIC "-//W3C//DTD SVG 1.1//EN"
 "http://www.w3.org/Graphics/SVG/1.1/DTD/svg11.dtd">
<!-- Generated by graphviz version 2.43.0 (0)
 -->
<!-- Title: HAL Exported Functions Pages: 1 -->
<svg width="394pt" height="76pt"
 viewBox="0.00 0.00 394.00 75.50" xmlns="http://www.w3.org/2000/svg" xmlns:xlink="http://www.w3.org/1999/xlink">

<svg id="main" version="1.1" xmlns="http://www.w3.org/2000/svg" xmlns:xlink="http://www.w3.org/1999/xlink" xml:space="preserve">

<style type="text/css"><![CDATA[
.node, .edge {opacity: 0.7;}
.node.selected, .edge.selected {opacity: 1;}
.edge:hover path { stroke: red; }
.edge:hover polygon { stroke: red; fill: red; }
]]></style>
<script type="application/ecmascript" xlink:href="svg.min.js"/>
<svg id="graph" class="graph">
<g id="graph0" class="graph" transform="scale(1 1) rotate(0) translate(4 71.5)">
<title>HAL Exported Functions</title>
<!-- Node2 -->
<g id="Node000002" class="node">
<title>Node2</title>
<g id="a_Node000002"><a xlink:href="group__HAL.html" target="_top" xlink:title="HAL module driver.">
<polygon fill="white" stroke="#666666" points="36,-40 0,-40 0,-21 36,-21 36,-40"/>
<text text-anchor="middle" x="18" y="-28" font-family="Helvetica,sans-Serif" font-size="10.00">HAL</text>
</a>
</g>
</g>
<!-- Node1 -->
<g id="Node000001" class="node">
<title>Node1</title>
<g id="a_Node000001"><a xlink:title=" ">
<polygon fill="#999999" stroke="#666666" points="204,-40 72,-40 72,-21 204,-21 204,-40"/>
<text text-anchor="middle" x="138" y="-28" font-family="Helvetica,sans-Serif" font-size="10.00">HAL Exported Functions</text>
</a>
</g>
</g>
<!-- Node2&#45;&gt;Node1 -->
<g id="edge1" class="edge">
<title>Node2&#45;&gt;Node1</title>
<path fill="none" stroke="black" d="M46.37,-30.5C54.14,-30.5 62.95,-30.5 71.95,-30.5"/>
<polygon fill="black" stroke="black" points="46.16,-27 36.16,-30.5 46.16,-34 46.16,-27"/>
</g>
<!-- Node3 -->
<g id="Node000003" class="node">
<title>Node3</title>
<g id="a_Node000003"><a xlink:href="group__HAL__Exported__Functions__Group1.html" target="_top" xlink:title="Initialization and de&#45;initialization functions.">
<polygon fill="white" stroke="#666666" points="386,-67.5 240,-67.5 240,-37.5 386,-37.5 386,-67.5"/>
<text text-anchor="start" x="248" y="-55.5" font-family="Helvetica,sans-Serif" font-size="10.00">Initialization and</text>
<text text-anchor="middle" x="313" y="-44.5" font-family="Helvetica,sans-Serif" font-size="10.00"> de&#45;initialization Functions</text>
</a>
</g>
</g>
<!-- Node1&#45;&gt;Node3 -->
<g id="edge2" class="edge">
<title>Node1&#45;&gt;Node3</title>
<path fill="none" stroke="black" d="M214.56,-40.11C222.96,-41.18 231.49,-42.26 239.85,-43.32"/>
<polygon fill="black" stroke="black" points="214.77,-36.61 204.4,-38.82 213.88,-43.55 214.77,-36.61"/>
</g>
<!-- Node4 -->
<g id="Node000004" class="node">
<title>Node4</title>
<g id="a_Node000004"><a xlink:href="group__HAL__Exported__Functions__Group2.html" target="_top" xlink:title="HAL Control functions.">
<polygon fill="white" stroke="#666666" points="374,-19 252,-19 252,0 374,0 374,-19"/>
<text text-anchor="middle" x="313" y="-7" font-family="Helvetica,sans-Serif" font-size="10.00">HAL Control functions</text>
</a>
</g>
</g>
<!-- Node1&#45;&gt;Node4 -->
<g id="edge3" class="edge">
<title>Node1&#45;&gt;Node4</title>
<path fill="none" stroke="black" d="M214.38,-21.35C226.94,-19.83 239.81,-18.26 251.92,-16.79"/>
<polygon fill="black" stroke="black" points="213.91,-17.88 204.4,-22.56 214.75,-24.83 213.91,-17.88"/>
</g>
</g>
</svg>
</svg>

<style type='text/css'>
<![CDATA[
[data-mouse-over-selected='false'] { opacity: 0.7; }
[data-mouse-over-selected='true']  { opacity: 1.0; }
]]>
</style>
<script type="application/ecmascript"><![CDATA[
document.addEventListener('DOMContentLoaded', (event) => {
  highlightEdges();
  highlightAdjacentNodes();
});
]]></script>
</svg>
