<?xml version="1.0" encoding="UTF-8" standalone="no"?>
<!DOCTYPE svg PUBLIC "-//W3C//DTD SVG 1.1//EN"
 "http://www.w3.org/Graphics/SVG/1.1/DTD/svg11.dtd">
<!-- Generated by graphviz version 12.2.1 (20241206.2353)
 -->
<!-- Title: ADC Pages: 1 -->
<svg width="370pt" height="263pt"
 viewBox="0.00 0.00 369.50 262.75" xmlns="http://www.w3.org/2000/svg" xmlns:xlink="http://www.w3.org/1999/xlink">

<svg id="main" version="1.1" xmlns="http://www.w3.org/2000/svg" xmlns:xlink="http://www.w3.org/1999/xlink" xml:space="preserve">

<style type="text/css"><![CDATA[
.node, .edge {opacity: 0.7;}
.node.selected, .edge.selected {opacity: 1;}
.edge:hover path { stroke: red; }
.edge:hover polygon { stroke: red; fill: red; }
]]></style>
<script type="application/ecmascript" xlink:href="svg.min.js"/>
<svg id="graph" class="graph">
<g id="graph0" class="graph" transform="scale(1 1) rotate(0) translate(4 258.75)">
<title>ADC</title>
<!-- Node1 -->
<g id="Node000001" class="node">
<title>Node1</title>
<g id="a_Node000001"><a xlink:title="ADC driver modules.">
<polygon fill="#999999" stroke="#666666" points="194,-137.75 158.5,-137.75 158.5,-117 194,-117 194,-137.75"/>
<text text-anchor="middle" x="176.25" y="-124.25" font-family="Helvetica,sans-Serif" font-size="10.00">ADC</text>
</a>
</g>
</g>
<!-- Node4 -->
<g id="Node000004" class="node">
<title>Node4</title>
<g id="a_Node000004"><a xlink:href="group__ADC__Exported__Constants.html" target="_top" xlink:title=" ">
<polygon fill="white" stroke="#666666" points="359.62,-254.75 231.88,-254.75 231.88,-234 359.62,-234 359.62,-254.75"/>
<text text-anchor="middle" x="295.75" y="-241.25" font-family="Helvetica,sans-Serif" font-size="10.00">ADC Exported Constants</text>
</a>
</g>
</g>
<!-- Node1&#45;&gt;Node4 -->
<g id="edge3" class="edge">
<title>Node1&#45;&gt;Node4</title>
<path fill="none" stroke="black" d="M183.65,-149.05C191.23,-171.08 205.97,-204.7 230,-224.38 234.55,-228.1 239.79,-231.14 245.29,-233.61"/>
<polygon fill="black" stroke="black" points="187,-148.05 180.62,-139.6 180.34,-150.19 187,-148.05"/>
</g>
<!-- Node9 -->
<g id="Node000009" class="node">
<title>Node9</title>
<g id="a_Node000009"><a xlink:href="group__ADC__Exported__Functions.html" target="_top" xlink:title=" ">
<polygon fill="white" stroke="#666666" points="361.5,-215.75 230,-215.75 230,-195 361.5,-195 361.5,-215.75"/>
<text text-anchor="middle" x="295.75" y="-202.25" font-family="Helvetica,sans-Serif" font-size="10.00">ADC_Exported_Functions</text>
</a>
</g>
</g>
<!-- Node1&#45;&gt;Node9 -->
<g id="edge8" class="edge">
<title>Node1&#45;&gt;Node9</title>
<path fill="none" stroke="black" d="M190.92,-147.19C200.52,-159.76 214.41,-175.47 230,-185.38 235.76,-189.04 242.23,-192.06 248.8,-194.56"/>
<polygon fill="black" stroke="black" points="193.79,-145.19 185.07,-139.18 188.14,-149.32 193.79,-145.19"/>
</g>
<!-- Node5 -->
<g id="Node000005" class="node">
<title>Node5</title>
<g id="a_Node000005"><a xlink:href="group__ADC__Exported__Macros.html" target="_top" xlink:title=" ">
<polygon fill="white" stroke="#666666" points="352.5,-176.75 239,-176.75 239,-156 352.5,-156 352.5,-176.75"/>
<text text-anchor="middle" x="295.75" y="-163.25" font-family="Helvetica,sans-Serif" font-size="10.00">ADC Exported Macros</text>
</a>
</g>
</g>
<!-- Node1&#45;&gt;Node5 -->
<g id="edge4" class="edge">
<title>Node1&#45;&gt;Node5</title>
<path fill="none" stroke="black" d="M204.99,-137.64C213.03,-140.54 221.84,-143.65 230,-146.38 239.26,-149.47 249.32,-152.66 258.69,-155.56"/>
<polygon fill="black" stroke="black" points="206.3,-134.39 195.71,-134.25 203.9,-140.97 206.3,-134.39"/>
</g>
<!-- Node3 -->
<g id="Node000003" class="node">
<title>Node3</title>
<g id="a_Node000003"><a xlink:href="group__ADC__Exported__Types.html" target="_top" xlink:title=" ">
<polygon fill="white" stroke="#666666" points="349.5,-137.75 242,-137.75 242,-117 349.5,-117 349.5,-137.75"/>
<text text-anchor="middle" x="295.75" y="-124.25" font-family="Helvetica,sans-Serif" font-size="10.00">ADC Exported Types</text>
</a>
</g>
</g>
<!-- Node1&#45;&gt;Node3 -->
<g id="edge2" class="edge">
<title>Node1&#45;&gt;Node3</title>
<path fill="none" stroke="black" d="M205.67,-127.38C216.54,-127.38 229.31,-127.38 241.73,-127.38"/>
<polygon fill="black" stroke="black" points="205.85,-123.88 195.85,-127.38 205.85,-130.88 205.85,-123.88"/>
</g>
<!-- Node6 -->
<g id="Node000006" class="node">
<title>Node6</title>
<g id="a_Node000006"><a xlink:href="group__ADC__Private__Constants.html" target="_top" xlink:title=" ">
<polygon fill="white" stroke="#666666" points="354.38,-98.75 237.12,-98.75 237.12,-78 354.38,-78 354.38,-98.75"/>
<text text-anchor="middle" x="295.75" y="-85.25" font-family="Helvetica,sans-Serif" font-size="10.00">ADC Private Constants</text>
</a>
</g>
</g>
<!-- Node1&#45;&gt;Node6 -->
<g id="edge5" class="edge">
<title>Node1&#45;&gt;Node6</title>
<path fill="none" stroke="black" d="M204.99,-117.11C213.03,-114.21 221.84,-111.1 230,-108.38 239.26,-105.28 249.32,-102.09 258.69,-99.19"/>
<polygon fill="black" stroke="black" points="203.9,-113.78 195.71,-120.5 206.3,-120.36 203.9,-113.78"/>
</g>
<!-- Node8 -->
<g id="Node000008" class="node">
<title>Node8</title>
<g id="a_Node000008"><a xlink:href="group__ADC__Private__Functions.html" target="_top" xlink:title=" ">
<polygon fill="white" stroke="#666666" points="353.25,-59.75 238.25,-59.75 238.25,-39 353.25,-39 353.25,-59.75"/>
<text text-anchor="middle" x="295.75" y="-46.25" font-family="Helvetica,sans-Serif" font-size="10.00">ADC Private Functions</text>
</a>
</g>
</g>
<!-- Node1&#45;&gt;Node8 -->
<g id="edge7" class="edge">
<title>Node1&#45;&gt;Node8</title>
<path fill="none" stroke="black" d="M190.92,-107.56C200.52,-94.99 214.41,-79.28 230,-69.38 235.76,-65.71 242.23,-62.69 248.8,-60.19"/>
<polygon fill="black" stroke="black" points="188.14,-105.43 185.07,-115.57 193.79,-109.56 188.14,-105.43"/>
</g>
<!-- Node7 -->
<g id="Node000007" class="node">
<title>Node7</title>
<g id="a_Node000007"><a xlink:href="group__ADC__Private__Macros.html" target="_top" xlink:title=" ">
<polygon fill="white" stroke="#666666" points="347.25,-20.75 244.25,-20.75 244.25,0 347.25,0 347.25,-20.75"/>
<text text-anchor="middle" x="295.75" y="-7.25" font-family="Helvetica,sans-Serif" font-size="10.00">ADC Private Macros</text>
</a>
</g>
</g>
<!-- Node1&#45;&gt;Node7 -->
<g id="edge6" class="edge">
<title>Node1&#45;&gt;Node7</title>
<path fill="none" stroke="black" d="M183.65,-105.7C191.23,-83.67 205.97,-50.05 230,-30.38 234.55,-26.65 239.79,-23.61 245.29,-21.14"/>
<polygon fill="black" stroke="black" points="180.34,-104.56 180.62,-115.15 187,-106.7 180.34,-104.56"/>
</g>
<!-- Node2 -->
<g id="Node000002" class="node">
<title>Node2</title>
<g id="a_Node000002"><a xlink:href="group__STM32F4xx__HAL__Driver.html" target="_top" xlink:title=" ">
<polygon fill="white" stroke="#666666" points="122.5,-137.75 0,-137.75 0,-117 122.5,-117 122.5,-137.75"/>
<text text-anchor="middle" x="61.25" y="-124.25" font-family="Helvetica,sans-Serif" font-size="10.00">STM32F4xx_HAL_Driver</text>
</a>
</g>
</g>
<!-- Node2&#45;&gt;Node1 -->
<g id="edge1" class="edge">
<title>Node2&#45;&gt;Node1</title>
<path fill="none" stroke="black" d="M134.16,-127.38C143.02,-127.38 151.34,-127.38 158.13,-127.38"/>
<polygon fill="black" stroke="black" points="134.23,-123.88 124.23,-127.38 134.23,-130.88 134.23,-123.88"/>
</g>
</g>
</svg>
</svg>

<style type='text/css'>
<![CDATA[
[data-mouse-over-selected='false'] { opacity: 0.7; }
[data-mouse-over-selected='true']  { opacity: 1.0; }
]]>
</style>
<script type="application/ecmascript"><![CDATA[
document.addEventListener('DOMContentLoaded', (event) => {
  highlightEdges();
  highlightAdjacentNodes();
});
]]></script>
</svg>
