<?xml version="1.0" encoding="UTF-8" standalone="no"?>
<!DOCTYPE svg PUBLIC "-//W3C//DTD SVG 1.1//EN"
 "http://www.w3.org/Graphics/SVG/1.1/DTD/svg11.dtd">
<!-- Generated by graphviz version 12.2.1 (20241206.2353)
 -->
<!-- Title: GPIO Exported Constants Pages: 1 -->
<svg width="352pt" height="146pt"
 viewBox="0.00 0.00 352.25 145.75" xmlns="http://www.w3.org/2000/svg" xmlns:xlink="http://www.w3.org/1999/xlink">

<svg id="main" version="1.1" xmlns="http://www.w3.org/2000/svg" xmlns:xlink="http://www.w3.org/1999/xlink" xml:space="preserve">

<style type="text/css"><![CDATA[
.node, .edge {opacity: 0.7;}
.node.selected, .edge.selected {opacity: 1;}
.edge:hover path { stroke: red; }
.edge:hover polygon { stroke: red; fill: red; }
]]></style>
<script type="application/ecmascript" xlink:href="svg.min.js"/>
<svg id="graph" class="graph">
<g id="graph0" class="graph" transform="scale(1 1) rotate(0) translate(4 141.75)">
<title>GPIO Exported Constants</title>
<!-- Node2 -->
<g id="Node000002" class="node">
<title>Node2</title>
<g id="a_Node000002"><a xlink:href="group__GPIO.html" target="_top" xlink:title="GPIO HAL module driver.">
<polygon fill="white" stroke="#666666" points="40,-78.75 0,-78.75 0,-58 40,-58 40,-78.75"/>
<text text-anchor="middle" x="20" y="-65.25" font-family="Helvetica,sans-Serif" font-size="10.00">GPIO</text>
</a>
</g>
</g>
<!-- Node1 -->
<g id="Node000001" class="node">
<title>Node1</title>
<g id="a_Node000001"><a xlink:title=" ">
<polygon fill="#999999" stroke="#666666" points="208.25,-78.75 76,-78.75 76,-58 208.25,-58 208.25,-78.75"/>
<text text-anchor="middle" x="142.12" y="-65.25" font-family="Helvetica,sans-Serif" font-size="10.00">GPIO Exported Constants</text>
</a>
</g>
</g>
<!-- Node2&#45;&gt;Node1 -->
<g id="edge1" class="edge">
<title>Node2&#45;&gt;Node1</title>
<path fill="none" stroke="black" d="M51.57,-68.38C58.99,-68.38 67.22,-68.38 75.59,-68.38"/>
<polygon fill="black" stroke="black" points="51.81,-64.88 41.81,-68.38 51.81,-71.88 51.81,-64.88"/>
</g>
<!-- Node4 -->
<g id="Node000004" class="node">
<title>Node4</title>
<g id="a_Node000004"><a xlink:href="group__GPIO__mode__define.html" target="_top" xlink:title="GPIO Configuration Mode Elements values convention: 0x00WX00YZ.">
<polygon fill="white" stroke="#666666" points="343.88,-137.75 244.62,-137.75 244.62,-117 343.88,-117 343.88,-137.75"/>
<text text-anchor="middle" x="294.25" y="-124.25" font-family="Helvetica,sans-Serif" font-size="10.00">GPIO mode define</text>
</a>
</g>
</g>
<!-- Node1&#45;&gt;Node4 -->
<g id="edge3" class="edge">
<title>Node1&#45;&gt;Node4</title>
<path fill="none" stroke="black" d="M181.03,-83.27C207.37,-93.63 241.88,-107.19 265.64,-116.52"/>
<polygon fill="black" stroke="black" points="182.66,-80.15 172.07,-79.75 180.1,-86.67 182.66,-80.15"/>
</g>
<!-- Node3 -->
<g id="Node000003" class="node">
<title>Node3</title>
<g id="a_Node000003"><a xlink:href="group__GPIO__pins__define.html" target="_top" xlink:title=" ">
<polygon fill="white" stroke="#666666" points="340.12,-98.75 248.38,-98.75 248.38,-78 340.12,-78 340.12,-98.75"/>
<text text-anchor="middle" x="294.25" y="-85.25" font-family="Helvetica,sans-Serif" font-size="10.00">GPIO pins define</text>
</a>
</g>
</g>
<!-- Node1&#45;&gt;Node3 -->
<g id="edge2" class="edge">
<title>Node1&#45;&gt;Node3</title>
<path fill="none" stroke="black" d="M219.8,-78.59C229.41,-79.87 238.98,-81.15 247.89,-82.33"/>
<polygon fill="black" stroke="black" points="220.41,-75.14 210.04,-77.29 219.49,-82.08 220.41,-75.14"/>
</g>
<!-- Node6 -->
<g id="Node000006" class="node">
<title>Node6</title>
<g id="a_Node000006"><a xlink:href="group__GPIO__pull__define.html" target="_top" xlink:title="GPIO Pull&#45;Up or Pull&#45;Down Activation.">
<polygon fill="white" stroke="#666666" points="339.38,-59.75 249.12,-59.75 249.12,-39 339.38,-39 339.38,-59.75"/>
<text text-anchor="middle" x="294.25" y="-46.25" font-family="Helvetica,sans-Serif" font-size="10.00">GPIO pull define</text>
</a>
</g>
</g>
<!-- Node1&#45;&gt;Node6 -->
<g id="edge5" class="edge">
<title>Node1&#45;&gt;Node6</title>
<path fill="none" stroke="black" d="M219.74,-58.68C229.69,-57.42 239.6,-56.17 248.77,-55"/>
<polygon fill="black" stroke="black" points="219.52,-55.18 210.04,-59.91 220.4,-62.12 219.52,-55.18"/>
</g>
<!-- Node5 -->
<g id="Node000005" class="node">
<title>Node5</title>
<g id="a_Node000005"><a xlink:href="group__GPIO__speed__define.html" target="_top" xlink:title="GPIO Output Maximum frequency.">
<polygon fill="white" stroke="#666666" points="344.25,-20.75 244.25,-20.75 244.25,0 344.25,0 344.25,-20.75"/>
<text text-anchor="middle" x="294.25" y="-7.25" font-family="Helvetica,sans-Serif" font-size="10.00">GPIO speed define</text>
</a>
</g>
</g>
<!-- Node1&#45;&gt;Node5 -->
<g id="edge4" class="edge">
<title>Node1&#45;&gt;Node5</title>
<path fill="none" stroke="black" d="M181.67,-53.48C207.79,-43.39 241.71,-30.29 265.26,-21.19"/>
<polygon fill="black" stroke="black" points="180.49,-50.19 172.42,-57.06 183.01,-56.72 180.49,-50.19"/>
</g>
</g>
</svg>
</svg>

<style type='text/css'>
<![CDATA[
[data-mouse-over-selected='false'] { opacity: 0.7; }
[data-mouse-over-selected='true']  { opacity: 1.0; }
]]>
</style>
<script type="application/ecmascript"><![CDATA[
document.addEventListener('DOMContentLoaded', (event) => {
  highlightEdges();
  highlightAdjacentNodes();
});
]]></script>
</svg>
