<?xml version="1.0" encoding="UTF-8" standalone="no"?>
<!DOCTYPE svg PUBLIC "-//W3C//DTD SVG 1.1//EN"
 "http://www.w3.org/Graphics/SVG/1.1/DTD/svg11.dtd">
<!-- Generated by graphviz version 12.2.1 (20241206.2353)
 -->
<!-- Title: CORTEX Exported Functions Pages: 1 -->
<svg width="385pt" height="146pt"
 viewBox="0.00 0.00 385.25 145.75" xmlns="http://www.w3.org/2000/svg" xmlns:xlink="http://www.w3.org/1999/xlink">
<g id="page0,1_graph0" class="graph" transform="scale(1 1) rotate(0) translate(4 141.75)">
<title>CORTEX Exported Functions</title>
<!-- Node2 -->
<g id="Node000002" class="node">
<title>Node2</title>
<g id="a_Node000002"><a xlink:href="group__CORTEX__LL.html" target="_top" xlink:title=" ">
<polygon fill="white" stroke="#666666" points="54.25,-78.75 0,-78.75 0,-58 54.25,-58 54.25,-78.75"/>
<text text-anchor="middle" x="27.12" y="-65.25" font-family="Helvetica,sans-Serif" font-size="10.00">CORTEX</text>
</a>
</g>
</g>
<!-- Node1 -->
<g id="Node000001" class="node">
<title>Node1</title>
<g id="a_Node000001"><a xlink:title=" ">
<polygon fill="#999999" stroke="#666666" points="234.5,-78.75 90.25,-78.75 90.25,-58 234.5,-58 234.5,-78.75"/>
<text text-anchor="middle" x="162.38" y="-65.25" font-family="Helvetica,sans-Serif" font-size="10.00">CORTEX Exported Functions</text>
</a>
</g>
</g>
<!-- Node2&#45;&gt;Node1 -->
<g id="edge1" class="edge">
<title>Node2&#45;&gt;Node1</title>
<path fill="none" stroke="black" d="M65.75,-68.38C73.31,-68.38 81.48,-68.38 89.76,-68.38"/>
<polygon fill="black" stroke="black" points="65.96,-64.88 55.96,-68.38 65.96,-71.88 65.96,-64.88"/>
</g>
<!-- Node5 -->
<g id="Node000005" class="node">
<title>Node5</title>
<g id="a_Node000005"><a xlink:href="group__CORTEX__LL__EF__HANDLER.html" target="_top" xlink:title=" ">
<polygon fill="white" stroke="#666666" points="354.38,-137.75 293.38,-137.75 293.38,-117 354.38,-117 354.38,-137.75"/>
<text text-anchor="middle" x="323.88" y="-124.25" font-family="Helvetica,sans-Serif" font-size="10.00">HANDLER</text>
</a>
</g>
</g>
<!-- Node4 -->
<g id="Node000004" class="node">
<title>Node4</title>
<g id="a_Node000004"><a xlink:href="group__CORTEX__LL__EF__LOW__POWER__MODE.html" target="_top" xlink:title=" ">
<polygon fill="white" stroke="#666666" points="377.25,-98.75 270.5,-98.75 270.5,-78 377.25,-78 377.25,-98.75"/>
<text text-anchor="middle" x="323.88" y="-85.25" font-family="Helvetica,sans-Serif" font-size="10.00">LOW POWER MODE</text>
</a>
</g>
</g>
<!-- Node6 -->
<g id="Node000006" class="node">
<title>Node6</title>
<g id="a_Node000006"><a xlink:href="group__CORTEX__LL__EF__MCU__INFO.html" target="_top" xlink:title=" ">
<polygon fill="white" stroke="#666666" points="355.88,-59.75 291.88,-59.75 291.88,-39 355.88,-39 355.88,-59.75"/>
<text text-anchor="middle" x="323.88" y="-46.25" font-family="Helvetica,sans-Serif" font-size="10.00">MCU INFO</text>
</a>
</g>
</g>
<!-- Node3 -->
<g id="Node000003" class="node">
<title>Node3</title>
<g id="a_Node000003"><a xlink:href="group__CORTEX__LL__EF__SYSTICK.html" target="_top" xlink:title=" ">
<polygon fill="white" stroke="#666666" points="351,-20.75 296.75,-20.75 296.75,0 351,0 351,-20.75"/>
<text text-anchor="middle" x="323.88" y="-7.25" font-family="Helvetica,sans-Serif" font-size="10.00">SYSTICK</text>
</a>
</g>
</g>
<!-- Node1&#45;&gt;Node5 -->
<g id="edge4" class="edge">
<title>Node1&#45;&gt;Node5</title>
<path fill="none" stroke="black" d="M203.28,-83.14C231.31,-93.5 268.18,-107.14 293.54,-116.52"/>
<polygon fill="black" stroke="black" points="204.64,-79.91 194.05,-79.72 202.21,-86.47 204.64,-79.91"/>
</g>
<!-- Node1&#45;&gt;Node4 -->
<g id="edge3" class="edge">
<title>Node1&#45;&gt;Node4</title>
<path fill="none" stroke="black" d="M245.97,-78.73C254.21,-79.77 262.42,-80.79 270.23,-81.77"/>
<polygon fill="black" stroke="black" points="246.59,-75.28 236.23,-77.51 245.72,-82.23 246.59,-75.28"/>
</g>
<!-- Node1&#45;&gt;Node6 -->
<g id="edge5" class="edge">
<title>Node1&#45;&gt;Node6</title>
<path fill="none" stroke="black" d="M245.97,-58.54C262.21,-56.6 278.3,-54.68 291.53,-53.11"/>
<polygon fill="black" stroke="black" points="245.75,-55.04 236.23,-59.7 246.57,-61.99 245.75,-55.04"/>
</g>
<!-- Node1&#45;&gt;Node3 -->
<g id="edge2" class="edge">
<title>Node1&#45;&gt;Node3</title>
<path fill="none" stroke="black" d="M203.63,-53.74C232.66,-43.18 271.04,-29.22 296.32,-20.03"/>
<polygon fill="black" stroke="black" points="202.63,-50.38 194.42,-57.08 205.02,-56.96 202.63,-50.38"/>
</g>
</g>
</svg>
