<?xml version="1.0" encoding="UTF-8" standalone="no"?>
<!DOCTYPE svg PUBLIC "-//W3C//DTD SVG 1.1//EN"
 "http://www.w3.org/Graphics/SVG/1.1/DTD/svg11.dtd">
<!-- Generated by graphviz version 12.2.1 (20241206.2353)
 -->
<!-- Title: SMARTCARD Pages: 1 -->
<svg width="430pt" height="314pt"
 viewBox="0.00 0.00 430.25 314.12" xmlns="http://www.w3.org/2000/svg" xmlns:xlink="http://www.w3.org/1999/xlink">
<g id="page0,1_graph0" class="graph" transform="scale(1 1) rotate(0) translate(4 310.12)">
<title>SMARTCARD</title>
<!-- Node1 -->
<g id="Node000001" class="node">
<title>Node1</title>
<g id="a_Node000001"><a xlink:title="HAL SMARTCARD module driver.">
<polygon fill="#999999" stroke="#666666" points="231.5,-143.75 158.5,-143.75 158.5,-123 231.5,-123 231.5,-143.75"/>
<text text-anchor="middle" x="195" y="-130.25" font-family="Helvetica,sans-Serif" font-size="10.00">SMARTCARD</text>
</a>
</g>
</g>
<!-- Node4 -->
<g id="Node000004" class="node">
<title>Node4</title>
<g id="a_Node000004"><a xlink:href="group__SMARTCARD__Exported__Constants.html" target="_top" xlink:title=" ">
<polygon fill="white" stroke="#666666" points="403.12,-306.12 286.62,-306.12 286.62,-272.62 403.12,-272.62 403.12,-306.12"/>
<text text-anchor="start" x="294.62" y="-292.62" font-family="Helvetica,sans-Serif" font-size="10.00">SMARTCARD Exported</text>
<text text-anchor="middle" x="344.88" y="-279.88" font-family="Helvetica,sans-Serif" font-size="10.00"> constants</text>
</a>
</g>
</g>
<!-- Node1&#45;&gt;Node4 -->
<g id="edge3" class="edge">
<title>Node1&#45;&gt;Node4</title>
<path fill="none" stroke="black" d="M202.43,-155.05C212.03,-183.79 232.79,-234.26 267.5,-263.38 273.08,-268.06 279.54,-271.91 286.3,-275.08"/>
<polygon fill="black" stroke="black" points="205.8,-154.11 199.45,-145.63 199.13,-156.22 205.8,-154.11"/>
</g>
<!-- Node9 -->
<g id="Node000009" class="node">
<title>Node9</title>
<g id="a_Node000009"><a xlink:href="group__SMARTCARD__Exported__Functions.html" target="_top" xlink:title=" ">
<polygon fill="white" stroke="#666666" points="404.62,-254.12 285.12,-254.12 285.12,-220.62 404.62,-220.62 404.62,-254.12"/>
<text text-anchor="start" x="293.12" y="-240.62" font-family="Helvetica,sans-Serif" font-size="10.00">SMARTCARD_Exported</text>
<text text-anchor="middle" x="344.88" y="-227.88" font-family="Helvetica,sans-Serif" font-size="10.00">_Functions</text>
</a>
</g>
</g>
<!-- Node1&#45;&gt;Node9 -->
<g id="edge8" class="edge">
<title>Node1&#45;&gt;Node9</title>
<path fill="none" stroke="black" d="M209.77,-153.35C222.8,-170.88 243.84,-195.93 267.5,-211.38 272.89,-214.9 278.82,-217.99 284.9,-220.7"/>
<polygon fill="black" stroke="black" points="212.63,-151.33 203.95,-145.26 206.95,-155.42 212.63,-151.33"/>
</g>
<!-- Node5 -->
<g id="Node000005" class="node">
<title>Node5</title>
<g id="a_Node000005"><a xlink:href="group__SMARTCARD__Exported__Macros.html" target="_top" xlink:title=" ">
<polygon fill="white" stroke="#666666" points="403.12,-202.12 286.62,-202.12 286.62,-168.62 403.12,-168.62 403.12,-202.12"/>
<text text-anchor="start" x="294.62" y="-188.62" font-family="Helvetica,sans-Serif" font-size="10.00">SMARTCARD Exported</text>
<text text-anchor="middle" x="344.88" y="-175.88" font-family="Helvetica,sans-Serif" font-size="10.00"> Macros</text>
</a>
</g>
</g>
<!-- Node1&#45;&gt;Node5 -->
<g id="edge4" class="edge">
<title>Node1&#45;&gt;Node5</title>
<path fill="none" stroke="black" d="M235.94,-148.06C246.21,-151.79 257.25,-155.77 267.5,-159.38 275.69,-162.26 284.4,-165.27 292.88,-168.18"/>
<polygon fill="black" stroke="black" points="237.19,-144.79 226.59,-144.66 234.79,-151.37 237.19,-144.79"/>
</g>
<!-- Node3 -->
<g id="Node000003" class="node">
<title>Node3</title>
<g id="a_Node000003"><a xlink:href="group__SMARTCARD__Exported__Types.html" target="_top" xlink:title=" ">
<polygon fill="white" stroke="#666666" points="403.12,-150.12 286.62,-150.12 286.62,-116.62 403.12,-116.62 403.12,-150.12"/>
<text text-anchor="start" x="294.62" y="-136.62" font-family="Helvetica,sans-Serif" font-size="10.00">SMARTCARD Exported</text>
<text text-anchor="middle" x="344.88" y="-123.88" font-family="Helvetica,sans-Serif" font-size="10.00"> Types</text>
</a>
</g>
</g>
<!-- Node1&#45;&gt;Node3 -->
<g id="edge2" class="edge">
<title>Node1&#45;&gt;Node3</title>
<path fill="none" stroke="black" d="M242.95,-133.38C256.69,-133.38 271.88,-133.38 286.2,-133.38"/>
<polygon fill="black" stroke="black" points="243.31,-129.88 233.31,-133.38 243.31,-136.88 243.31,-129.88"/>
</g>
<!-- Node6 -->
<g id="Node000006" class="node">
<title>Node6</title>
<g id="a_Node000006"><a xlink:href="group__SMARTCARD__Private__Constants.html" target="_top" xlink:title=" ">
<polygon fill="white" stroke="#666666" points="422.25,-98.75 267.5,-98.75 267.5,-78 422.25,-78 422.25,-98.75"/>
<text text-anchor="middle" x="344.88" y="-85.25" font-family="Helvetica,sans-Serif" font-size="10.00">SMARTCARD Private Constants</text>
</a>
</g>
</g>
<!-- Node1&#45;&gt;Node6 -->
<g id="edge5" class="edge">
<title>Node1&#45;&gt;Node6</title>
<path fill="none" stroke="black" d="M234.31,-118.61C244.98,-114.72 256.62,-110.7 267.5,-107.38 277.04,-104.46 287.35,-101.67 297.21,-99.16"/>
<polygon fill="black" stroke="black" points="233.2,-115.29 225.03,-122.04 235.63,-121.85 233.2,-115.29"/>
</g>
<!-- Node8 -->
<g id="Node000008" class="node">
<title>Node8</title>
<g id="a_Node000008"><a xlink:href="group__SMARTCARD__Private__Functions.html" target="_top" xlink:title=" ">
<polygon fill="white" stroke="#666666" points="421.12,-59.75 268.62,-59.75 268.62,-39 421.12,-39 421.12,-59.75"/>
<text text-anchor="middle" x="344.88" y="-46.25" font-family="Helvetica,sans-Serif" font-size="10.00">SMARTCARD Private Functions</text>
</a>
</g>
</g>
<!-- Node1&#45;&gt;Node8 -->
<g id="edge7" class="edge">
<title>Node1&#45;&gt;Node8</title>
<path fill="none" stroke="black" d="M212.46,-114.38C225.9,-100.02 246.11,-80.87 267.5,-69.38 274.38,-65.68 281.99,-62.63 289.65,-60.14"/>
<polygon fill="black" stroke="black" points="210.15,-111.72 206.03,-121.48 215.34,-116.42 210.15,-111.72"/>
</g>
<!-- Node7 -->
<g id="Node000007" class="node">
<title>Node7</title>
<g id="a_Node000007"><a xlink:href="group__SMARTCARD__Private__Macros.html" target="_top" xlink:title=" ">
<polygon fill="white" stroke="#666666" points="415.12,-20.75 274.62,-20.75 274.62,0 415.12,0 415.12,-20.75"/>
<text text-anchor="middle" x="344.88" y="-7.25" font-family="Helvetica,sans-Serif" font-size="10.00">SMARTCARD Private Macros</text>
</a>
</g>
</g>
<!-- Node1&#45;&gt;Node7 -->
<g id="edge6" class="edge">
<title>Node1&#45;&gt;Node7</title>
<path fill="none" stroke="black" d="M205,-112.48C216.21,-88.95 237.6,-51.27 267.5,-30.38 272.78,-26.68 278.7,-23.67 284.84,-21.22"/>
<polygon fill="black" stroke="black" points="201.9,-110.83 200.95,-121.38 208.27,-113.73 201.9,-110.83"/>
</g>
<!-- Node2 -->
<g id="Node000002" class="node">
<title>Node2</title>
<g id="a_Node000002"><a xlink:href="group__STM32F4xx__HAL__Driver.html" target="_top" xlink:title=" ">
<polygon fill="white" stroke="#666666" points="122.5,-143.75 0,-143.75 0,-123 122.5,-123 122.5,-143.75"/>
<text text-anchor="middle" x="61.25" y="-130.25" font-family="Helvetica,sans-Serif" font-size="10.00">STM32F4xx_HAL_Driver</text>
</a>
</g>
</g>
<!-- Node2&#45;&gt;Node1 -->
<g id="edge1" class="edge">
<title>Node2&#45;&gt;Node1</title>
<path fill="none" stroke="black" d="M134.16,-133.38C142.53,-133.38 150.76,-133.38 158.32,-133.38"/>
<polygon fill="black" stroke="black" points="134.24,-129.88 124.24,-133.38 134.24,-136.88 134.24,-129.88"/>
</g>
</g>
</svg>
