<?xml version="1.0" encoding="UTF-8" standalone="no"?>
<!DOCTYPE svg PUBLIC "-//W3C//DTD SVG 1.1//EN"
 "http://www.w3.org/Graphics/SVG/1.1/DTD/svg11.dtd">
<!-- Generated by graphviz version 2.43.0 (0)
 -->
<!-- Title: UART Exported Constants Pages: 1 -->
<svg width="410pt" height="544pt"
 viewBox="0.00 0.00 410.00 544.00" xmlns="http://www.w3.org/2000/svg" xmlns:xlink="http://www.w3.org/1999/xlink">
<g id="graph0" class="graph" transform="scale(1 1) rotate(0) translate(4 540)">
<title>UART Exported Constants</title>
<!-- Node2 -->
<g id="Node000002" class="node">
<title>Node2</title>
<g id="a_Node000002"><a xlink:href="group__UART.html" target="_top" xlink:title="HAL UART module driver.">
<polygon fill="white" stroke="#666666" points="43,-271 0,-271 0,-252 43,-252 43,-271"/>
<text text-anchor="middle" x="21.5" y="-259" font-family="Helvetica,sans-Serif" font-size="10.00">UART</text>
</a>
</g>
</g>
<!-- Node1 -->
<g id="Node000001" class="node">
<title>Node1</title>
<g id="a_Node000001"><a xlink:title=" ">
<polygon fill="#999999" stroke="#666666" points="220,-271 79,-271 79,-252 220,-252 220,-271"/>
<text text-anchor="middle" x="149.5" y="-259" font-family="Helvetica,sans-Serif" font-size="10.00">UART Exported Constants</text>
</a>
</g>
</g>
<!-- Node2&#45;&gt;Node1 -->
<g id="edge1" class="edge">
<title>Node2&#45;&gt;Node1</title>
<path fill="none" stroke="black" d="M53.16,-261.5C61.06,-261.5 69.9,-261.5 78.92,-261.5"/>
<polygon fill="black" stroke="black" points="53.02,-258 43.02,-261.5 53.02,-265 53.02,-258"/>
</g>
<!-- Node3 -->
<g id="Node000003" class="node">
<title>Node3</title>
<g id="a_Node000003"><a xlink:href="group__UART__Error__Code.html" target="_top" xlink:title=" ">
<polygon fill="white" stroke="#666666" points="377.5,-536 280.5,-536 280.5,-517 377.5,-517 377.5,-536"/>
<text text-anchor="middle" x="329" y="-524" font-family="Helvetica,sans-Serif" font-size="10.00">UART Error Code</text>
</a>
</g>
</g>
<!-- Node1&#45;&gt;Node3 -->
<g id="edge2" class="edge">
<title>Node1&#45;&gt;Node3</title>
<path fill="none" stroke="black" d="M152.95,-281.13C159.89,-328.01 184.05,-447.15 256,-508.5 262.96,-514.44 271.6,-518.46 280.45,-521.19"/>
<polygon fill="black" stroke="black" points="156.4,-280.51 151.57,-271.08 149.47,-281.47 156.4,-280.51"/>
</g>
<!-- Node13 -->
<g id="Node000013" class="node">
<title>Node13</title>
<g id="a_Node000013"><a xlink:href="group__UART__Flags.html" target="_top" xlink:title=" ">
<polygon fill="white" stroke="#666666" points="366,-499 292,-499 292,-480 366,-480 366,-499"/>
<text text-anchor="middle" x="329" y="-487" font-family="Helvetica,sans-Serif" font-size="10.00">UART FLags</text>
</a>
</g>
</g>
<!-- Node1&#45;&gt;Node13 -->
<g id="edge12" class="edge">
<title>Node1&#45;&gt;Node13</title>
<path fill="none" stroke="black" d="M154.68,-281.11C164.59,-322.66 193.5,-419.89 256,-470.5 266.15,-478.72 279.5,-483.41 291.94,-486.08"/>
<polygon fill="black" stroke="black" points="158.05,-280.14 152.42,-271.17 151.22,-281.69 158.05,-280.14"/>
</g>
<!-- Node7 -->
<g id="Node000007" class="node">
<title>Node7</title>
<g id="a_Node000007"><a xlink:href="group__UART__Hardware__Flow__Control.html" target="_top" xlink:title=" ">
<polygon fill="white" stroke="#666666" points="388.5,-461.5 269.5,-461.5 269.5,-431.5 388.5,-431.5 388.5,-461.5"/>
<text text-anchor="start" x="277.5" y="-449.5" font-family="Helvetica,sans-Serif" font-size="10.00">UART Hardware Flow</text>
<text text-anchor="middle" x="329" y="-438.5" font-family="Helvetica,sans-Serif" font-size="10.00"> Control</text>
</a>
</g>
</g>
<!-- Node1&#45;&gt;Node7 -->
<g id="edge6" class="edge">
<title>Node1&#45;&gt;Node7</title>
<path fill="none" stroke="black" d="M158,-280.63C172.13,-314.21 205.83,-383.86 256,-422.5 260.49,-425.96 265.5,-428.93 270.73,-431.48"/>
<polygon fill="black" stroke="black" points="161.13,-279.02 154.11,-271.08 154.64,-281.66 161.13,-279.02"/>
</g>
<!-- Node14 -->
<g id="Node000014" class="node">
<title>Node14</title>
<g id="a_Node000014"><a xlink:href="group__UART__Interrupt__definition.html" target="_top" xlink:title=" ">
<polygon fill="white" stroke="#666666" points="400.5,-413 257.5,-413 257.5,-394 400.5,-394 400.5,-413"/>
<text text-anchor="middle" x="329" y="-401" font-family="Helvetica,sans-Serif" font-size="10.00">UART Interrupt Definitions</text>
</a>
</g>
</g>
<!-- Node1&#45;&gt;Node14 -->
<g id="edge13" class="edge">
<title>Node1&#45;&gt;Node14</title>
<path fill="none" stroke="black" d="M161.31,-280.11C178.06,-307.28 212.9,-357.49 256,-384.5 262.13,-388.35 269.03,-391.42 276.06,-393.87"/>
<polygon fill="black" stroke="black" points="164.12,-278 155.97,-271.23 158.12,-281.61 164.12,-278"/>
</g>
<!-- Node11 -->
<g id="Node000011" class="node">
<title>Node11</title>
<g id="a_Node000011"><a xlink:href="group__UART__LIN__Break__Detection__Length.html" target="_top" xlink:title=" ">
<polygon fill="white" stroke="#666666" points="400.5,-375.5 257.5,-375.5 257.5,-345.5 400.5,-345.5 400.5,-375.5"/>
<text text-anchor="start" x="265.5" y="-363.5" font-family="Helvetica,sans-Serif" font-size="10.00">UART LIN Break Detection</text>
<text text-anchor="middle" x="329" y="-352.5" font-family="Helvetica,sans-Serif" font-size="10.00"> Length</text>
</a>
</g>
</g>
<!-- Node1&#45;&gt;Node11 -->
<g id="edge10" class="edge">
<title>Node1&#45;&gt;Node11</title>
<path fill="none" stroke="black" d="M169.32,-277.51C189.6,-294.12 223.39,-319.94 256,-336.5 262.46,-339.78 269.47,-342.76 276.49,-345.42"/>
<polygon fill="black" stroke="black" points="171.42,-274.71 161.49,-271.01 166.95,-280.09 171.42,-274.71"/>
</g>
<!-- Node8 -->
<g id="Node000008" class="node">
<title>Node8</title>
<g id="a_Node000008"><a xlink:href="group__UART__Mode.html" target="_top" xlink:title=" ">
<polygon fill="white" stroke="#666666" points="386.5,-327 271.5,-327 271.5,-308 386.5,-308 386.5,-327"/>
<text text-anchor="middle" x="329" y="-315" font-family="Helvetica,sans-Serif" font-size="10.00">UART Transfer Mode</text>
</a>
</g>
</g>
<!-- Node1&#45;&gt;Node8 -->
<g id="edge7" class="edge">
<title>Node1&#45;&gt;Node8</title>
<path fill="none" stroke="black" d="M184.53,-274.74C205.06,-282.48 231.83,-292.15 256,-299.5 265.86,-302.5 276.59,-305.38 286.68,-307.93"/>
<polygon fill="black" stroke="black" points="185.58,-271.4 174.99,-271.12 183.09,-277.94 185.58,-271.4"/>
</g>
<!-- Node10 -->
<g id="Node000010" class="node">
<title>Node10</title>
<g id="a_Node000010"><a xlink:href="group__UART__Over__Sampling.html" target="_top" xlink:title=" ">
<polygon fill="white" stroke="#666666" points="388,-290 270,-290 270,-271 388,-271 388,-290"/>
<text text-anchor="middle" x="329" y="-278" font-family="Helvetica,sans-Serif" font-size="10.00">UART Over Sampling</text>
</a>
</g>
</g>
<!-- Node1&#45;&gt;Node10 -->
<g id="edge9" class="edge">
<title>Node1&#45;&gt;Node10</title>
<path fill="none" stroke="black" d="M230.24,-270.04C243.54,-271.46 257.11,-272.91 269.74,-274.26"/>
<polygon fill="black" stroke="black" points="230.46,-266.54 220.14,-268.95 229.71,-273.5 230.46,-266.54"/>
</g>
<!-- Node6 -->
<g id="Node000006" class="node">
<title>Node6</title>
<g id="a_Node000006"><a xlink:href="group__UART__Parity.html" target="_top" xlink:title=" ">
<polygon fill="white" stroke="#666666" points="366,-253 292,-253 292,-234 366,-234 366,-253"/>
<text text-anchor="middle" x="329" y="-241" font-family="Helvetica,sans-Serif" font-size="10.00">UART Parity</text>
</a>
</g>
</g>
<!-- Node1&#45;&gt;Node6 -->
<g id="edge5" class="edge">
<title>Node1&#45;&gt;Node6</title>
<path fill="none" stroke="black" d="M230.28,-253.41C251.76,-251.23 273.95,-248.98 291.74,-247.18"/>
<polygon fill="black" stroke="black" points="229.74,-249.95 220.14,-254.44 230.45,-256.91 229.74,-249.95"/>
</g>
<!-- Node15 -->
<g id="Node000015" class="node">
<title>Node15</title>
<g id="a_Node000015"><a xlink:href="group__UART__Reception__Type__Values.html" target="_top" xlink:title=" ">
<polygon fill="white" stroke="#666666" points="388.5,-215.5 269.5,-215.5 269.5,-185.5 388.5,-185.5 388.5,-215.5"/>
<text text-anchor="start" x="277.5" y="-203.5" font-family="Helvetica,sans-Serif" font-size="10.00">UART Reception type</text>
<text text-anchor="middle" x="329" y="-192.5" font-family="Helvetica,sans-Serif" font-size="10.00"> values</text>
</a>
</g>
</g>
<!-- Node1&#45;&gt;Node15 -->
<g id="edge14" class="edge">
<title>Node1&#45;&gt;Node15</title>
<path fill="none" stroke="black" d="M187.72,-248.71C215.87,-239.04 254.6,-225.72 284.24,-215.54"/>
<polygon fill="black" stroke="black" points="186.55,-245.41 178.23,-251.97 188.83,-252.03 186.55,-245.41"/>
</g>
<!-- Node16 -->
<g id="Node000016" class="node">
<title>Node16</title>
<g id="a_Node000016"><a xlink:href="group__UART__RxEvent__Type__Values.html" target="_top" xlink:title=" ">
<polygon fill="white" stroke="#666666" points="402,-167 256,-167 256,-148 402,-148 402,-167"/>
<text text-anchor="middle" x="329" y="-155" font-family="Helvetica,sans-Serif" font-size="10.00">UART RxEvent type values</text>
</a>
</g>
</g>
<!-- Node1&#45;&gt;Node16 -->
<g id="edge15" class="edge">
<title>Node1&#45;&gt;Node16</title>
<path fill="none" stroke="black" d="M166.87,-244.55C186.37,-225.32 220.76,-194.32 256,-176.5 263.61,-172.65 272.09,-169.52 280.47,-167"/>
<polygon fill="black" stroke="black" points="164.27,-242.21 159.7,-251.76 169.23,-247.14 164.27,-242.21"/>
</g>
<!-- Node9 -->
<g id="Node000009" class="node">
<title>Node9</title>
<g id="a_Node000009"><a xlink:href="group__UART__State.html" target="_top" xlink:title=" ">
<polygon fill="white" stroke="#666666" points="364.5,-130 293.5,-130 293.5,-111 364.5,-111 364.5,-130"/>
<text text-anchor="middle" x="329" y="-118" font-family="Helvetica,sans-Serif" font-size="10.00">UART State</text>
</a>
</g>
</g>
<!-- Node1&#45;&gt;Node9 -->
<g id="edge8" class="edge">
<title>Node1&#45;&gt;Node9</title>
<path fill="none" stroke="black" d="M161.34,-243.04C178.15,-216.1 213.05,-166.3 256,-139.5 267.19,-132.52 280.89,-128.08 293.33,-125.28"/>
<polygon fill="black" stroke="black" points="158.19,-241.48 155.99,-251.85 164.18,-245.12 158.19,-241.48"/>
</g>
<!-- Node5 -->
<g id="Node000005" class="node">
<title>Node5</title>
<g id="a_Node000005"><a xlink:href="group__UART__Stop__Bits.html" target="_top" xlink:title=" ">
<polygon fill="white" stroke="#666666" points="401,-93 257,-93 257,-74 401,-74 401,-93"/>
<text text-anchor="middle" x="329" y="-81" font-family="Helvetica,sans-Serif" font-size="10.00">UART Number of Stop Bits</text>
</a>
</g>
</g>
<!-- Node1&#45;&gt;Node5 -->
<g id="edge4" class="edge">
<title>Node1&#45;&gt;Node5</title>
<path fill="none" stroke="black" d="M157.83,-242.28C171.68,-208.61 204.96,-139.05 256,-102.5 261.47,-98.59 267.68,-95.48 274.12,-93.01"/>
<polygon fill="black" stroke="black" points="154.46,-241.28 154.02,-251.87 160.96,-243.87 154.46,-241.28"/>
</g>
<!-- Node12 -->
<g id="Node000012" class="node">
<title>Node12</title>
<g id="a_Node000012"><a xlink:href="group__UART__WakeUp__functions.html" target="_top" xlink:title=" ">
<polygon fill="white" stroke="#666666" points="396,-56 262,-56 262,-37 396,-37 396,-56"/>
<text text-anchor="middle" x="329" y="-44" font-family="Helvetica,sans-Serif" font-size="10.00">UART Wakeup Functions</text>
</a>
</g>
</g>
<!-- Node1&#45;&gt;Node12 -->
<g id="edge11" class="edge">
<title>Node1&#45;&gt;Node12</title>
<path fill="none" stroke="black" d="M155.28,-242.29C166.11,-202.85 196.36,-112.51 256,-65.5 260.87,-61.66 266.45,-58.59 272.3,-56.14"/>
<polygon fill="black" stroke="black" points="151.89,-241.42 152.73,-251.99 158.66,-243.2 151.89,-241.42"/>
</g>
<!-- Node4 -->
<g id="Node000004" class="node">
<title>Node4</title>
<g id="a_Node000004"><a xlink:href="group__UART__Word__Length.html" target="_top" xlink:title=" ">
<polygon fill="white" stroke="#666666" points="382.5,-19 275.5,-19 275.5,0 382.5,0 382.5,-19"/>
<text text-anchor="middle" x="329" y="-7" font-family="Helvetica,sans-Serif" font-size="10.00">UART Word Length</text>
</a>
</g>
</g>
<!-- Node1&#45;&gt;Node4 -->
<g id="edge3" class="edge">
<title>Node1&#45;&gt;Node4</title>
<path fill="none" stroke="black" d="M153.58,-241.82C161.68,-196.86 187.85,-86.11 256,-28.5 261.63,-23.74 268.32,-20.16 275.32,-17.47"/>
<polygon fill="black" stroke="black" points="150.12,-241.31 151.9,-251.75 157.02,-242.48 150.12,-241.31"/>
</g>
</g>
</svg>
