<?xml version="1.0" encoding="UTF-8" standalone="no"?>
<!DOCTYPE svg PUBLIC "-//W3C//DTD SVG 1.1//EN"
 "http://www.w3.org/Graphics/SVG/1.1/DTD/svg11.dtd">
<!-- Generated by graphviz version 12.2.1 (20241206.2353)
 -->
<!-- Title: FLASH Private Macros Pages: 1 -->
<svg width="375pt" height="42pt"
 viewBox="0.00 0.00 374.75 41.50" xmlns="http://www.w3.org/2000/svg" xmlns:xlink="http://www.w3.org/1999/xlink">
<g id="page0,1_graph0" class="graph" transform="scale(1 1) rotate(0) translate(4 37.5)">
<title>FLASH Private Macros</title>
<!-- Node2 -->
<g id="Node000002" class="node">
<title>Node2</title>
<g id="a_Node000002"><a xlink:href="group__FLASH.html" target="_top" xlink:title="FLASH HAL module driver.">
<polygon fill="white" stroke="#666666" points="46,-27.12 0,-27.12 0,-6.38 46,-6.38 46,-27.12"/>
<text text-anchor="middle" x="23" y="-13.62" font-family="Helvetica,sans-Serif" font-size="10.00">FLASH</text>
</a>
</g>
</g>
<!-- Node1 -->
<g id="Node000001" class="node">
<title>Node1</title>
<g id="a_Node000001"><a xlink:title=" ">
<polygon fill="#999999" stroke="#666666" points="195.5,-27.12 82,-27.12 82,-6.38 195.5,-6.38 195.5,-27.12"/>
<text text-anchor="middle" x="138.75" y="-13.62" font-family="Helvetica,sans-Serif" font-size="10.00">FLASH Private Macros</text>
</a>
</g>
</g>
<!-- Node2&#45;&gt;Node1 -->
<g id="edge1" class="edge">
<title>Node2&#45;&gt;Node1</title>
<path fill="none" stroke="black" d="M57.77,-16.75C65.36,-16.75 73.62,-16.75 81.86,-16.75"/>
<polygon fill="black" stroke="black" points="57.99,-13.25 47.99,-16.75 57.99,-20.25 57.99,-13.25"/>
</g>
<!-- Node3 -->
<g id="Node000003" class="node">
<title>Node3</title>
<g id="a_Node000003"><a xlink:href="group__FLASH__IS__FLASH__Definitions.html" target="_top" xlink:title=" ">
<polygon fill="white" stroke="#666666" points="366.75,-33.5 231.5,-33.5 231.5,0 366.75,0 366.75,-33.5"/>
<text text-anchor="start" x="239.5" y="-20" font-family="Helvetica,sans-Serif" font-size="10.00">FLASH Private macros</text>
<text text-anchor="middle" x="299.12" y="-7.25" font-family="Helvetica,sans-Serif" font-size="10.00"> to check input parameters</text>
</a>
</g>
</g>
<!-- Node1&#45;&gt;Node3 -->
<g id="edge2" class="edge">
<title>Node1&#45;&gt;Node3</title>
<path fill="none" stroke="black" d="M207.09,-16.75C215.05,-16.75 223.17,-16.75 231.12,-16.75"/>
<polygon fill="black" stroke="black" points="207.1,-13.25 197.1,-16.75 207.1,-20.25 207.1,-13.25"/>
</g>
</g>
</svg>
