<?xml version="1.0" encoding="UTF-8" standalone="no"?>
<!DOCTYPE svg PUBLIC "-//W3C//DTD SVG 1.1//EN"
 "http://www.w3.org/Graphics/SVG/1.1/DTD/svg11.dtd">
<!-- Generated by graphviz version 12.2.1 (20241206.2353)
 -->
<!-- Title: PWR Exported Constants Pages: 1 -->
<svg width="375pt" height="275pt"
 viewBox="0.00 0.00 374.75 274.75" xmlns="http://www.w3.org/2000/svg" xmlns:xlink="http://www.w3.org/1999/xlink">

<svg id="main" version="1.1" xmlns="http://www.w3.org/2000/svg" xmlns:xlink="http://www.w3.org/1999/xlink" xml:space="preserve">

<style type="text/css"><![CDATA[
.node, .edge {opacity: 0.7;}
.node.selected, .edge.selected {opacity: 1;}
.edge:hover path { stroke: red; }
.edge:hover polygon { stroke: red; fill: red; }
]]></style>
<script type="application/ecmascript" xlink:href="svg.min.js"/>
<svg id="graph" class="graph">
<g id="graph0" class="graph" transform="scale(1 1) rotate(0) translate(4 270.75)">
<title>PWR Exported Constants</title>
<!-- Node2 -->
<g id="Node000002" class="node">
<title>Node2</title>
<g id="a_Node000002"><a xlink:href="group__PWR.html" target="_top" xlink:title="PWR HAL module driver.">
<polygon fill="white" stroke="#666666" points="37.75,-143.75 0,-143.75 0,-123 37.75,-123 37.75,-143.75"/>
<text text-anchor="middle" x="18.88" y="-130.25" font-family="Helvetica,sans-Serif" font-size="10.00">PWR</text>
</a>
</g>
</g>
<!-- Node1 -->
<g id="Node000001" class="node">
<title>Node1</title>
<g id="a_Node000001"><a xlink:title=" ">
<polygon fill="#999999" stroke="#666666" points="203.75,-143.75 73.75,-143.75 73.75,-123 203.75,-123 203.75,-143.75"/>
<text text-anchor="middle" x="138.75" y="-130.25" font-family="Helvetica,sans-Serif" font-size="10.00">PWR Exported Constants</text>
</a>
</g>
</g>
<!-- Node2&#45;&gt;Node1 -->
<g id="edge1" class="edge">
<title>Node2&#45;&gt;Node1</title>
<path fill="none" stroke="black" d="M49.29,-133.38C56.74,-133.38 65.04,-133.38 73.48,-133.38"/>
<polygon fill="black" stroke="black" points="49.55,-129.88 39.55,-133.38 49.55,-136.88 49.55,-129.88"/>
</g>
<!-- Node9 -->
<g id="Node000009" class="node">
<title>Node9</title>
<g id="a_Node000009"><a xlink:href="group__PWR__Flag.html" target="_top" xlink:title=" ">
<polygon fill="white" stroke="#666666" points="333.38,-266.75 273.12,-266.75 273.12,-246 333.38,-246 333.38,-266.75"/>
<text text-anchor="middle" x="303.25" y="-253.25" font-family="Helvetica,sans-Serif" font-size="10.00">PWR Flag</text>
</a>
</g>
</g>
<!-- Node1&#45;&gt;Node9 -->
<g id="edge8" class="edge">
<title>Node1&#45;&gt;Node9</title>
<path fill="none" stroke="black" d="M154.15,-153.29C171.84,-176.41 203.95,-214.18 239.75,-236.38 249.72,-242.56 261.79,-247 272.65,-250.11"/>
<polygon fill="black" stroke="black" points="156.97,-151.22 148.18,-145.3 151.36,-155.41 156.97,-151.22"/>
</g>
<!-- Node5 -->
<g id="Node000005" class="node">
<title>Node5</title>
<g id="a_Node000005"><a xlink:href="group__PWR__PVD__Mode.html" target="_top" xlink:title=" ">
<polygon fill="white" stroke="#666666" points="346.5,-227.75 260,-227.75 260,-207 346.5,-207 346.5,-227.75"/>
<text text-anchor="middle" x="303.25" y="-214.25" font-family="Helvetica,sans-Serif" font-size="10.00">PWR PVD Mode</text>
</a>
</g>
</g>
<!-- Node1&#45;&gt;Node5 -->
<g id="edge4" class="edge">
<title>Node1&#45;&gt;Node5</title>
<path fill="none" stroke="black" d="M163.05,-150.76C182.7,-164.81 211.98,-184.32 239.75,-197.38 247.07,-200.82 255.14,-203.89 262.97,-206.53"/>
<polygon fill="black" stroke="black" points="165.34,-148.1 155.19,-145.06 161.23,-153.77 165.34,-148.1"/>
</g>
<!-- Node4 -->
<g id="Node000004" class="node">
<title>Node4</title>
<g id="a_Node000004"><a xlink:href="group__PWR__PVD__detection__level.html" target="_top" xlink:title=" ">
<polygon fill="white" stroke="#666666" points="366.75,-188.75 239.75,-188.75 239.75,-168 366.75,-168 366.75,-188.75"/>
<text text-anchor="middle" x="303.25" y="-175.25" font-family="Helvetica,sans-Serif" font-size="10.00">PWR PVD detection level</text>
</a>
</g>
</g>
<!-- Node1&#45;&gt;Node4 -->
<g id="edge3" class="edge">
<title>Node1&#45;&gt;Node4</title>
<path fill="none" stroke="black" d="M189.54,-147.16C213.17,-153.71 240.99,-161.41 263.08,-167.53"/>
<polygon fill="black" stroke="black" points="190.7,-143.85 180.13,-144.56 188.83,-150.6 190.7,-143.85"/>
</g>
<!-- Node6 -->
<g id="Node000006" class="node">
<title>Node6</title>
<g id="a_Node000006"><a xlink:href="group__PWR__Regulator__state__in__STOP__mode.html" target="_top" xlink:title=" ">
<polygon fill="white" stroke="#666666" points="360.38,-150.12 246.12,-150.12 246.12,-116.62 360.38,-116.62 360.38,-150.12"/>
<text text-anchor="start" x="254.12" y="-136.62" font-family="Helvetica,sans-Serif" font-size="10.00">PWR Regulator state</text>
<text text-anchor="middle" x="303.25" y="-123.88" font-family="Helvetica,sans-Serif" font-size="10.00"> in SLEEP/STOP mode</text>
</a>
</g>
</g>
<!-- Node1&#45;&gt;Node6 -->
<g id="edge5" class="edge">
<title>Node1&#45;&gt;Node6</title>
<path fill="none" stroke="black" d="M215.45,-133.38C225.68,-133.38 236.04,-133.38 245.86,-133.38"/>
<polygon fill="black" stroke="black" points="215.49,-129.88 205.49,-133.38 215.49,-136.88 215.49,-129.88"/>
</g>
<!-- Node7 -->
<g id="Node000007" class="node">
<title>Node7</title>
<g id="a_Node000007"><a xlink:href="group__PWR__SLEEP__mode__entry.html" target="_top" xlink:title=" ">
<polygon fill="white" stroke="#666666" points="364.5,-98.75 242,-98.75 242,-78 364.5,-78 364.5,-98.75"/>
<text text-anchor="middle" x="303.25" y="-85.25" font-family="Helvetica,sans-Serif" font-size="10.00">PWR SLEEP mode entry</text>
</a>
</g>
</g>
<!-- Node1&#45;&gt;Node7 -->
<g id="edge6" class="edge">
<title>Node1&#45;&gt;Node7</title>
<path fill="none" stroke="black" d="M189.54,-119.59C213.17,-113.04 240.99,-105.34 263.08,-99.22"/>
<polygon fill="black" stroke="black" points="188.83,-116.15 180.13,-122.19 190.7,-122.9 188.83,-116.15"/>
</g>
<!-- Node8 -->
<g id="Node000008" class="node">
<title>Node8</title>
<g id="a_Node000008"><a xlink:href="group__PWR__STOP__mode__entry.html" target="_top" xlink:title=" ">
<polygon fill="white" stroke="#666666" points="362.62,-59.75 243.88,-59.75 243.88,-39 362.62,-39 362.62,-59.75"/>
<text text-anchor="middle" x="303.25" y="-46.25" font-family="Helvetica,sans-Serif" font-size="10.00">PWR STOP mode entry</text>
</a>
</g>
</g>
<!-- Node1&#45;&gt;Node8 -->
<g id="edge7" class="edge">
<title>Node1&#45;&gt;Node8</title>
<path fill="none" stroke="black" d="M163.05,-115.99C182.7,-101.94 211.98,-82.43 239.75,-69.38 247.07,-65.93 255.14,-62.86 262.97,-60.22"/>
<polygon fill="black" stroke="black" points="161.23,-112.98 155.19,-121.69 165.34,-118.65 161.23,-112.98"/>
</g>
<!-- Node3 -->
<g id="Node000003" class="node">
<title>Node3</title>
<g id="a_Node000003"><a xlink:href="group__PWR__WakeUp__Pins.html" target="_top" xlink:title=" ">
<polygon fill="white" stroke="#666666" points="352.88,-20.75 253.62,-20.75 253.62,0 352.88,0 352.88,-20.75"/>
<text text-anchor="middle" x="303.25" y="-7.25" font-family="Helvetica,sans-Serif" font-size="10.00">PWR WakeUp Pins</text>
</a>
</g>
</g>
<!-- Node1&#45;&gt;Node3 -->
<g id="edge2" class="edge">
<title>Node1&#45;&gt;Node3</title>
<path fill="none" stroke="black" d="M154.15,-113.46C171.84,-90.34 203.95,-52.57 239.75,-30.38 245.66,-26.71 252.3,-23.66 258.99,-21.14"/>
<polygon fill="black" stroke="black" points="151.36,-111.34 148.18,-121.45 156.97,-115.53 151.36,-111.34"/>
</g>
</g>
</svg>
</svg>

<style type='text/css'>
<![CDATA[
[data-mouse-over-selected='false'] { opacity: 0.7; }
[data-mouse-over-selected='true']  { opacity: 1.0; }
]]>
</style>
<script type="application/ecmascript"><![CDATA[
document.addEventListener('DOMContentLoaded', (event) => {
  highlightEdges();
  highlightAdjacentNodes();
});
]]></script>
</svg>
