<?xml version="1.0" encoding="UTF-8" standalone="no"?>
<!DOCTYPE svg PUBLIC "-//W3C//DTD SVG 1.1//EN"
 "http://www.w3.org/Graphics/SVG/1.1/DTD/svg11.dtd">
<!-- Generated by graphviz version 2.43.0 (0)
 -->
<!-- Title: HAL Pages: 1 -->
<svg width="385pt" height="249pt"
 viewBox="0.00 0.00 385.00 249.00" xmlns="http://www.w3.org/2000/svg" xmlns:xlink="http://www.w3.org/1999/xlink">

<svg id="main" version="1.1" xmlns="http://www.w3.org/2000/svg" xmlns:xlink="http://www.w3.org/1999/xlink" xml:space="preserve" onload="init(evt)">
<style type="text/css"><![CDATA[
.node, .edge {opacity: 0.7;}
.node.selected, .edge.selected {opacity: 1;}
.edge:hover path { stroke: red; }
.edge:hover polygon { stroke: red; fill: red; }
]]></style>
<script type="application/ecmascript" xlink:href="svg.min.js"/>
<svg id="graph" class="graph">
<g id="graph0" class="graph" transform="scale(1 1) rotate(0) translate(4 245)">
<title>HAL</title>
<!-- Node1 -->
<g id="Node000001" class="node">
<title>Node1</title>
<g id="a_Node000001"><a xlink:title="HAL module driver.">
<polygon fill="#999999" stroke="#666666" points="206,-130 170,-130 170,-111 206,-111 206,-130"/>
<text text-anchor="middle" x="188" y="-118" font-family="Helvetica,sans-Serif" font-size="10.00">HAL</text>
</a>
</g>
</g>
<!-- Node3 -->
<g id="Node000003" class="node">
<title>Node3</title>
<g id="a_Node000003"><a xlink:href="group__HAL__Exported__Constants.html" target="_top" xlink:title=" ">
<polygon fill="white" stroke="#666666" points="376.5,-241 242.5,-241 242.5,-222 376.5,-222 376.5,-241"/>
<text text-anchor="middle" x="309.5" y="-229" font-family="Helvetica,sans-Serif" font-size="10.00">HAL Exported Constants</text>
</a>
</g>
</g>
<!-- Node1&#45;&gt;Node3 -->
<g id="edge2" class="edge">
<title>Node1&#45;&gt;Node3</title>
<path fill="none" stroke="black" d="M194.89,-139.59C202.41,-160.79 217.48,-194.53 242,-213.5 246.45,-216.94 251.5,-219.72 256.79,-221.98"/>
<polygon fill="black" stroke="black" points="198.19,-138.43 191.71,-130.05 191.55,-140.64 198.19,-138.43"/>
</g>
<!-- Node8 -->
<g id="Node000008" class="node">
<title>Node8</title>
<g id="a_Node000008"><a xlink:href="group__HAL__Exported__Functions.html" target="_top" xlink:title=" ">
<polygon fill="white" stroke="#666666" points="375.5,-204 243.5,-204 243.5,-185 375.5,-185 375.5,-204"/>
<text text-anchor="middle" x="309.5" y="-192" font-family="Helvetica,sans-Serif" font-size="10.00">HAL Exported Functions</text>
</a>
</g>
</g>
<!-- Node1&#45;&gt;Node8 -->
<g id="edge7" class="edge">
<title>Node1&#45;&gt;Node8</title>
<path fill="none" stroke="black" d="M201.87,-138.65C211.57,-151.04 225.91,-166.89 242,-176.5 247.75,-179.94 254.17,-182.73 260.68,-185"/>
<polygon fill="black" stroke="black" points="204.47,-136.28 195.68,-130.38 198.87,-140.48 204.47,-136.28"/>
</g>
<!-- Node4 -->
<g id="Node000004" class="node">
<title>Node4</title>
<g id="a_Node000004"><a xlink:href="group__HAL__Exported__Macros.html" target="_top" xlink:title=" ">
<polygon fill="white" stroke="#666666" points="370,-167 249,-167 249,-148 370,-148 370,-167"/>
<text text-anchor="middle" x="309.5" y="-155" font-family="Helvetica,sans-Serif" font-size="10.00">HAL Exported Macros</text>
</a>
</g>
</g>
<!-- Node1&#45;&gt;Node4 -->
<g id="edge3" class="edge">
<title>Node1&#45;&gt;Node4</title>
<path fill="none" stroke="black" d="M215.71,-130.54C224.08,-133.56 233.38,-136.79 242,-139.5 251.36,-142.44 261.54,-145.34 271.07,-147.93"/>
<polygon fill="black" stroke="black" points="216.66,-127.17 206.07,-127.01 214.25,-133.74 216.66,-127.17"/>
</g>
<!-- Node9 -->
<g id="Node000009" class="node">
<title>Node9</title>
<g id="a_Node000009"><a xlink:href="group__HAL__Exported__Variables.html" target="_top" xlink:title=" ">
<polygon fill="white" stroke="#666666" points="377,-130 242,-130 242,-111 377,-111 377,-130"/>
<text text-anchor="middle" x="309.5" y="-118" font-family="Helvetica,sans-Serif" font-size="10.00">HAL_Exported_Variables</text>
</a>
</g>
</g>
<!-- Node1&#45;&gt;Node9 -->
<g id="edge8" class="edge">
<title>Node1&#45;&gt;Node9</title>
<path fill="none" stroke="black" d="M216.3,-120.5C224.05,-120.5 232.84,-120.5 241.85,-120.5"/>
<polygon fill="black" stroke="black" points="216.12,-117 206.12,-120.5 216.12,-124 216.12,-117"/>
</g>
<!-- Node7 -->
<g id="Node000007" class="node">
<title>Node7</title>
<g id="a_Node000007"><a xlink:href="group__HAL__Private__Constants.html" target="_top" xlink:title=" ">
<polygon fill="white" stroke="#666666" points="372,-93 247,-93 247,-74 372,-74 372,-93"/>
<text text-anchor="middle" x="309.5" y="-81" font-family="Helvetica,sans-Serif" font-size="10.00">HAL Private Constants</text>
</a>
</g>
</g>
<!-- Node1&#45;&gt;Node7 -->
<g id="edge6" class="edge">
<title>Node1&#45;&gt;Node7</title>
<path fill="none" stroke="black" d="M215.71,-110.46C224.08,-107.44 233.38,-104.21 242,-101.5 251.36,-98.56 261.54,-95.66 271.07,-93.07"/>
<polygon fill="black" stroke="black" points="214.25,-107.26 206.07,-113.99 216.66,-113.83 214.25,-107.26"/>
</g>
<!-- Node5 -->
<g id="Node000005" class="node">
<title>Node5</title>
<g id="a_Node000005"><a xlink:href="group__HAL__Private__Macros.html" target="_top" xlink:title=" ">
<polygon fill="white" stroke="#666666" points="365.5,-56 253.5,-56 253.5,-37 365.5,-37 365.5,-56"/>
<text text-anchor="middle" x="309.5" y="-44" font-family="Helvetica,sans-Serif" font-size="10.00">HAL Private Macros</text>
</a>
</g>
</g>
<!-- Node1&#45;&gt;Node5 -->
<g id="edge4" class="edge">
<title>Node1&#45;&gt;Node5</title>
<path fill="none" stroke="black" d="M201.87,-102.35C211.57,-89.96 225.91,-74.11 242,-64.5 247.75,-61.06 254.17,-58.27 260.68,-56"/>
<polygon fill="black" stroke="black" points="198.87,-100.52 195.68,-110.62 204.47,-104.72 198.87,-100.52"/>
</g>
<!-- Node6 -->
<g id="Node000006" class="node">
<title>Node6</title>
<g id="a_Node000006"><a xlink:href="group__HAL__Private__Variables.html" target="_top" xlink:title=" ">
<polygon fill="white" stroke="#666666" points="370.5,-19 248.5,-19 248.5,0 370.5,0 370.5,-19"/>
<text text-anchor="middle" x="309.5" y="-7" font-family="Helvetica,sans-Serif" font-size="10.00">HAL Private Variables</text>
</a>
</g>
</g>
<!-- Node1&#45;&gt;Node6 -->
<g id="edge5" class="edge">
<title>Node1&#45;&gt;Node6</title>
<path fill="none" stroke="black" d="M194.89,-101.41C202.41,-80.21 217.48,-46.47 242,-27.5 246.45,-24.06 251.5,-21.28 256.79,-19.02"/>
<polygon fill="black" stroke="black" points="191.55,-100.36 191.71,-110.95 198.19,-102.57 191.55,-100.36"/>
</g>
<!-- Node2 -->
<g id="Node000002" class="node">
<title>Node2</title>
<g id="a_Node000002"><a xlink:href="group__STM32F4xx__HAL__Driver.html" target="_top" xlink:title=" ">
<polygon fill="white" stroke="#666666" points="134,-130 0,-130 0,-111 134,-111 134,-130"/>
<text text-anchor="middle" x="67" y="-118" font-family="Helvetica,sans-Serif" font-size="10.00">STM32F4xx_HAL_Driver</text>
</a>
</g>
</g>
<!-- Node2&#45;&gt;Node1 -->
<g id="edge1" class="edge">
<title>Node2&#45;&gt;Node1</title>
<path fill="none" stroke="black" d="M144.24,-120.5C153.78,-120.5 162.7,-120.5 169.9,-120.5"/>
<polygon fill="black" stroke="black" points="144.11,-117 134.11,-120.5 144.11,-124 144.11,-117"/>
</g>
</g>
</svg>
</svg>

<style type='text/css'>
<![CDATA[
[data-mouse-over-selected='false'] { opacity: 0.7; }
[data-mouse-over-selected='true']  { opacity: 1.0; }
]]>
</style>
<script type="application/ecmascript"><![CDATA[
document.addEventListener('DOMContentLoaded', (event) => {
  highlightEdges();
  highlightAdjacentNodes();
});
]]></script>
</svg>
