<?xml version="1.0" encoding="UTF-8" standalone="no"?>
<!DOCTYPE svg PUBLIC "-//W3C//DTD SVG 1.1//EN"
 "http://www.w3.org/Graphics/SVG/1.1/DTD/svg11.dtd">
<!-- Generated by graphviz version 12.2.1 (20241206.2353)
 -->
<!-- Title: FMC_LL &#160;Private Macros Pages: 1 -->
<svg width="289pt" height="68pt"
 viewBox="0.00 0.00 289.00 67.75" xmlns="http://www.w3.org/2000/svg" xmlns:xlink="http://www.w3.org/1999/xlink">
<g id="page0,1_graph0" class="graph" transform="scale(1 1) rotate(0) translate(4 63.75)">
<title>FMC_LL &#160;Private Macros</title>
<!-- Node3 -->
<g id="Node000003" class="node">
<title>Node3</title>
<g id="a_Node000003"><a xlink:href="group__FMC__LL.html" target="_top" xlink:title=" ">
<polygon fill="white" stroke="#666666" points="87.62,-59.75 34.88,-59.75 34.88,-39 87.62,-39 87.62,-59.75"/>
<text text-anchor="middle" x="61.25" y="-46.25" font-family="Helvetica,sans-Serif" font-size="10.00">FMC_LL</text>
</a>
</g>
</g>
<!-- Node1 -->
<g id="Node000001" class="node">
<title>Node1</title>
<g id="a_Node000001"><a xlink:title=" ">
<polygon fill="#999999" stroke="#666666" points="281,-39.75 158.5,-39.75 158.5,-19 281,-19 281,-39.75"/>
<text text-anchor="middle" x="219.75" y="-26.25" font-family="Helvetica,sans-Serif" font-size="10.00">FMC_LL &#160;Private Macros</text>
</a>
</g>
</g>
<!-- Node3&#45;&gt;Node1 -->
<g id="edge2" class="edge">
<title>Node3&#45;&gt;Node1</title>
<path fill="none" stroke="black" d="M99.28,-44.64C116.81,-42.4 138.22,-39.67 158.04,-37.13"/>
<polygon fill="black" stroke="black" points="99.07,-41.14 89.59,-45.88 99.96,-48.08 99.07,-41.14"/>
</g>
<!-- Node2 -->
<g id="Node000002" class="node">
<title>Node2</title>
<g id="a_Node000002"><a xlink:href="group__STM32F4xx__HAL__Driver.html" target="_top" xlink:title=" ">
<polygon fill="white" stroke="#666666" points="122.5,-20.75 0,-20.75 0,0 122.5,0 122.5,-20.75"/>
<text text-anchor="middle" x="61.25" y="-7.25" font-family="Helvetica,sans-Serif" font-size="10.00">STM32F4xx_HAL_Driver</text>
</a>
</g>
</g>
<!-- Node2&#45;&gt;Node1 -->
<g id="edge1" class="edge">
<title>Node2&#45;&gt;Node1</title>
<path fill="none" stroke="black" d="M134.05,-19.09C142.1,-20.07 150.25,-21.06 158.15,-22.02"/>
<polygon fill="black" stroke="black" points="134.61,-15.63 124.26,-17.9 133.76,-22.58 134.61,-15.63"/>
</g>
</g>
</svg>
