<?xml version="1.0" encoding="UTF-8" standalone="no"?>
<!DOCTYPE svg PUBLIC "-//W3C//DTD SVG 1.1//EN"
 "http://www.w3.org/Graphics/SVG/1.1/DTD/svg11.dtd">
<!-- Generated by graphviz version 2.43.0 (0)
 -->
<!-- Title: CORTEX Exported Constants Pages: 1 -->
<svg width="443pt" height="86pt"
 viewBox="0.00 0.00 443.00 86.00" xmlns="http://www.w3.org/2000/svg" xmlns:xlink="http://www.w3.org/1999/xlink">

<svg id="main" version="1.1" xmlns="http://www.w3.org/2000/svg" xmlns:xlink="http://www.w3.org/1999/xlink" xml:space="preserve">

<style type="text/css"><![CDATA[
.node, .edge {opacity: 0.7;}
.node.selected, .edge.selected {opacity: 1;}
.edge:hover path { stroke: red; }
.edge:hover polygon { stroke: red; fill: red; }
]]></style>
<script type="application/ecmascript" xlink:href="svg.min.js"/>
<svg id="graph" class="graph">
<g id="graph0" class="graph" transform="scale(1 1) rotate(0) translate(4 82)">
<title>CORTEX Exported Constants</title>
<!-- Node2 -->
<g id="Node000002" class="node">
<title>Node2</title>
<g id="a_Node000002"><a xlink:href="group__CORTEX.html" target="_top" xlink:title="CORTEX HAL module driver.">
<polygon fill="white" stroke="#666666" points="56,-48.5 0,-48.5 0,-29.5 56,-29.5 56,-48.5"/>
<text text-anchor="middle" x="28" y="-36.5" font-family="Helvetica,sans-Serif" font-size="10.00">CORTEX</text>
</a>
</g>
</g>
<!-- Node1 -->
<g id="Node000001" class="node">
<title>Node1</title>
<g id="a_Node000001"><a xlink:title=" ">
<polygon fill="#999999" stroke="#666666" points="246,-48.5 92,-48.5 92,-29.5 246,-29.5 246,-48.5"/>
<text text-anchor="middle" x="169" y="-36.5" font-family="Helvetica,sans-Serif" font-size="10.00">CORTEX Exported Constants</text>
</a>
</g>
</g>
<!-- Node2&#45;&gt;Node1 -->
<g id="edge1" class="edge">
<title>Node2&#45;&gt;Node1</title>
<path fill="none" stroke="black" d="M66.19,-39C74.2,-39 82.94,-39 91.84,-39"/>
<polygon fill="black" stroke="black" points="66.13,-35.5 56.13,-39 66.13,-42.5 66.13,-35.5"/>
</g>
<!-- Node3 -->
<g id="Node000003" class="node">
<title>Node3</title>
<g id="a_Node000003"><a xlink:href="group__CORTEX__Preemption__Priority__Group.html" target="_top" xlink:title=" ">
<polygon fill="white" stroke="#666666" points="435,-78 282,-78 282,-48 435,-48 435,-78"/>
<text text-anchor="start" x="290" y="-66" font-family="Helvetica,sans-Serif" font-size="10.00">CORTEX Preemption Priority</text>
<text text-anchor="middle" x="358.5" y="-55" font-family="Helvetica,sans-Serif" font-size="10.00"> Group</text>
</a>
</g>
</g>
<!-- Node1&#45;&gt;Node3 -->
<g id="edge2" class="edge">
<title>Node1&#45;&gt;Node3</title>
<path fill="none" stroke="black" d="M254.32,-49.79C263.54,-50.97 272.88,-52.17 281.99,-53.33"/>
<polygon fill="black" stroke="black" points="254.74,-46.32 244.37,-48.52 253.85,-53.26 254.74,-46.32"/>
</g>
<!-- Node4 -->
<g id="Node000004" class="node">
<title>Node4</title>
<g id="a_Node000004"><a xlink:href="group__CORTEX__SysTick__clock__source.html" target="_top" xlink:title=" ">
<polygon fill="white" stroke="#666666" points="423.5,-30 293.5,-30 293.5,0 423.5,0 423.5,-30"/>
<text text-anchor="start" x="301.5" y="-18" font-family="Helvetica,sans-Serif" font-size="10.00">CORTEX _SysTick clock</text>
<text text-anchor="middle" x="358.5" y="-7" font-family="Helvetica,sans-Serif" font-size="10.00"> source</text>
</a>
</g>
</g>
<!-- Node1&#45;&gt;Node4 -->
<g id="edge3" class="edge">
<title>Node1&#45;&gt;Node4</title>
<path fill="none" stroke="black" d="M254.3,-28.21C267.37,-26.54 280.68,-24.83 293.21,-23.23"/>
<polygon fill="black" stroke="black" points="253.85,-24.74 244.37,-29.48 254.74,-31.68 253.85,-24.74"/>
</g>
</g>
</svg>
</svg>

<style type='text/css'>
<![CDATA[
[data-mouse-over-selected='false'] { opacity: 0.7; }
[data-mouse-over-selected='true']  { opacity: 1.0; }
]]>
</style>
<script type="application/ecmascript"><![CDATA[
document.addEventListener('DOMContentLoaded', (event) => {
  highlightEdges();
  highlightAdjacentNodes();
});
]]></script>
</svg>
