<?xml version="1.0" encoding="UTF-8" standalone="no"?>
<!DOCTYPE svg PUBLIC "-//W3C//DTD SVG 1.1//EN"
 "http://www.w3.org/Graphics/SVG/1.1/DTD/svg11.dtd">
<!-- Generated by graphviz version 12.2.1 (20241206.2353)
 -->
<!-- Title: UART Exported Constants Pages: 1 -->
<svg width="388pt" height="572pt"
 viewBox="0.00 0.00 388.25 571.75" xmlns="http://www.w3.org/2000/svg" xmlns:xlink="http://www.w3.org/1999/xlink">
<g id="page0,1_graph0" class="graph" transform="scale(1 1) rotate(0) translate(4 567.75)">
<title>UART Exported Constants</title>
<!-- Node2 -->
<g id="Node000002" class="node">
<title>Node2</title>
<g id="a_Node000002"><a xlink:href="group__UART.html" target="_top" xlink:title="HAL UART module driver.">
<polygon fill="white" stroke="#666666" points="40.75,-285.75 0,-285.75 0,-265 40.75,-265 40.75,-285.75"/>
<text text-anchor="middle" x="20.38" y="-272.25" font-family="Helvetica,sans-Serif" font-size="10.00">UART</text>
</a>
</g>
</g>
<!-- Node1 -->
<g id="Node000001" class="node">
<title>Node1</title>
<g id="a_Node000001"><a xlink:title=" ">
<polygon fill="#999999" stroke="#666666" points="209.75,-285.75 76.75,-285.75 76.75,-265 209.75,-265 209.75,-285.75"/>
<text text-anchor="middle" x="143.25" y="-272.25" font-family="Helvetica,sans-Serif" font-size="10.00">UART Exported Constants</text>
</a>
</g>
</g>
<!-- Node2&#45;&gt;Node1 -->
<g id="edge1" class="edge">
<title>Node2&#45;&gt;Node1</title>
<path fill="none" stroke="black" d="M52.33,-275.38C59.75,-275.38 67.95,-275.38 76.29,-275.38"/>
<polygon fill="black" stroke="black" points="52.58,-271.88 42.58,-275.38 52.58,-278.88 52.58,-271.88"/>
</g>
<!-- Node3 -->
<g id="Node000003" class="node">
<title>Node3</title>
<g id="a_Node000003"><a xlink:href="group__UART__Error__Code.html" target="_top" xlink:title=" ">
<polygon fill="white" stroke="#666666" points="359.25,-563.75 266.75,-563.75 266.75,-543 359.25,-543 359.25,-563.75"/>
<text text-anchor="middle" x="313" y="-550.25" font-family="Helvetica,sans-Serif" font-size="10.00">UART Error Code</text>
</a>
</g>
</g>
<!-- Node1&#45;&gt;Node3 -->
<g id="edge2" class="edge">
<title>Node1&#45;&gt;Node3</title>
<path fill="none" stroke="black" d="M146.48,-297.24C152.71,-346.71 174.77,-467.96 245.75,-533.38 251.58,-538.75 258.81,-542.68 266.33,-545.56"/>
<polygon fill="black" stroke="black" points="149.99,-297.08 145.37,-287.54 143.03,-297.88 149.99,-297.08"/>
</g>
<!-- Node13 -->
<g id="Node000013" class="node">
<title>Node13</title>
<g id="a_Node000013"><a xlink:href="group__UART__Flags.html" target="_top" xlink:title=" ">
<polygon fill="white" stroke="#666666" points="348,-524.75 278,-524.75 278,-504 348,-504 348,-524.75"/>
<text text-anchor="middle" x="313" y="-511.25" font-family="Helvetica,sans-Serif" font-size="10.00">UART FLags</text>
</a>
</g>
</g>
<!-- Node1&#45;&gt;Node13 -->
<g id="edge12" class="edge">
<title>Node1&#45;&gt;Node13</title>
<path fill="none" stroke="black" d="M148.04,-297.05C156.89,-341.15 183.14,-441.67 245.75,-495.38 254.65,-503.01 266.45,-507.58 277.61,-510.32"/>
<polygon fill="black" stroke="black" points="151.52,-296.63 146.22,-287.45 144.64,-297.93 151.52,-296.63"/>
</g>
<!-- Node7 -->
<g id="Node000007" class="node">
<title>Node7</title>
<g id="a_Node000007"><a xlink:href="group__UART__Hardware__Flow__Control.html" target="_top" xlink:title=" ">
<polygon fill="white" stroke="#666666" points="369,-486.12 257,-486.12 257,-452.62 369,-452.62 369,-486.12"/>
<text text-anchor="start" x="265" y="-472.62" font-family="Helvetica,sans-Serif" font-size="10.00">UART Hardware Flow</text>
<text text-anchor="middle" x="313" y="-459.88" font-family="Helvetica,sans-Serif" font-size="10.00"> Control</text>
</a>
</g>
</g>
<!-- Node1&#45;&gt;Node7 -->
<g id="edge6" class="edge">
<title>Node1&#45;&gt;Node7</title>
<path fill="none" stroke="black" d="M151.81,-296.53C165.38,-331.68 197.07,-402.32 245.75,-443.38 249.72,-446.72 254.17,-449.67 258.83,-452.26"/>
<polygon fill="black" stroke="black" points="155.21,-295.62 148.43,-287.48 148.65,-298.07 155.21,-295.62"/>
</g>
<!-- Node14 -->
<g id="Node000014" class="node">
<title>Node14</title>
<g id="a_Node000014"><a xlink:href="group__UART__Interrupt__definition.html" target="_top" xlink:title=" ">
<polygon fill="white" stroke="#666666" points="380.25,-434.75 245.75,-434.75 245.75,-414 380.25,-414 380.25,-434.75"/>
<text text-anchor="middle" x="313" y="-421.25" font-family="Helvetica,sans-Serif" font-size="10.00">UART Interrupt Definitions</text>
</a>
</g>
</g>
<!-- Node1&#45;&gt;Node14 -->
<g id="edge13" class="edge">
<title>Node1&#45;&gt;Node14</title>
<path fill="none" stroke="black" d="M154.71,-295.75C170.52,-324.5 203.24,-376.69 245.75,-405.38 250.61,-408.65 256.04,-411.37 261.64,-413.63"/>
<polygon fill="black" stroke="black" points="158,-294.48 150.21,-287.3 151.83,-297.77 158,-294.48"/>
</g>
<!-- Node11 -->
<g id="Node000011" class="node">
<title>Node11</title>
<g id="a_Node000011"><a xlink:href="group__UART__LIN__Break__Detection__Length.html" target="_top" xlink:title=" ">
<polygon fill="white" stroke="#666666" points="379.12,-396.12 246.88,-396.12 246.88,-362.62 379.12,-362.62 379.12,-396.12"/>
<text text-anchor="start" x="254.88" y="-382.62" font-family="Helvetica,sans-Serif" font-size="10.00">UART LIN Break Detection</text>
<text text-anchor="middle" x="313" y="-369.88" font-family="Helvetica,sans-Serif" font-size="10.00"> Length</text>
</a>
</g>
</g>
<!-- Node1&#45;&gt;Node11 -->
<g id="edge10" class="edge">
<title>Node1&#45;&gt;Node11</title>
<path fill="none" stroke="black" d="M164.38,-293.6C184.04,-310.72 215.35,-336.19 245.75,-353.38 251.34,-356.54 257.4,-359.49 263.49,-362.18"/>
<polygon fill="black" stroke="black" points="166.91,-291.17 157.1,-287.17 162.27,-296.42 166.91,-291.17"/>
</g>
<!-- Node8 -->
<g id="Node000008" class="node">
<title>Node8</title>
<g id="a_Node000008"><a xlink:href="group__UART__Mode.html" target="_top" xlink:title=" ">
<polygon fill="white" stroke="#666666" points="367.5,-344.75 258.5,-344.75 258.5,-324 367.5,-324 367.5,-344.75"/>
<text text-anchor="middle" x="313" y="-331.25" font-family="Helvetica,sans-Serif" font-size="10.00">UART Transfer Mode</text>
</a>
</g>
</g>
<!-- Node1&#45;&gt;Node8 -->
<g id="edge7" class="edge">
<title>Node1&#45;&gt;Node8</title>
<path fill="none" stroke="black" d="M181.43,-290.41C200.53,-297.95 224.25,-307.01 245.75,-314.38 254.96,-317.53 264.97,-320.69 274.36,-323.54"/>
<polygon fill="black" stroke="black" points="182.76,-287.18 172.17,-286.74 180.17,-293.68 182.76,-287.18"/>
</g>
<!-- Node10 -->
<g id="Node000010" class="node">
<title>Node10</title>
<g id="a_Node000010"><a xlink:href="group__UART__Over__Sampling.html" target="_top" xlink:title=" ">
<polygon fill="white" stroke="#666666" points="367.5,-305.75 258.5,-305.75 258.5,-285 367.5,-285 367.5,-305.75"/>
<text text-anchor="middle" x="313" y="-292.25" font-family="Helvetica,sans-Serif" font-size="10.00">UART Over Sampling</text>
</a>
</g>
</g>
<!-- Node1&#45;&gt;Node10 -->
<g id="edge9" class="edge">
<title>Node1&#45;&gt;Node10</title>
<path fill="none" stroke="black" d="M221.35,-284.57C233.73,-286.04 246.31,-287.54 258,-288.94"/>
<polygon fill="black" stroke="black" points="221.91,-281.11 211.57,-283.4 221.09,-288.06 221.91,-281.11"/>
</g>
<!-- Node6 -->
<g id="Node000006" class="node">
<title>Node6</title>
<g id="a_Node000006"><a xlink:href="group__UART__Parity.html" target="_top" xlink:title=" ">
<polygon fill="white" stroke="#666666" points="347.25,-266.75 278.75,-266.75 278.75,-246 347.25,-246 347.25,-266.75"/>
<text text-anchor="middle" x="313" y="-253.25" font-family="Helvetica,sans-Serif" font-size="10.00">UART Parity</text>
</a>
</g>
</g>
<!-- Node1&#45;&gt;Node6 -->
<g id="edge5" class="edge">
<title>Node1&#45;&gt;Node6</title>
<path fill="none" stroke="black" d="M221.48,-266.63C241.58,-264.35 262.19,-262.02 278.66,-260.15"/>
<polygon fill="black" stroke="black" points="221.11,-263.15 211.57,-267.75 221.9,-270.1 221.11,-263.15"/>
</g>
<!-- Node15 -->
<g id="Node000015" class="node">
<title>Node15</title>
<g id="a_Node000015"><a xlink:href="group__UART__Reception__Type__Values.html" target="_top" xlink:title=" ">
<polygon fill="white" stroke="#666666" points="367.88,-228.12 258.12,-228.12 258.12,-194.62 367.88,-194.62 367.88,-228.12"/>
<text text-anchor="start" x="266.12" y="-214.62" font-family="Helvetica,sans-Serif" font-size="10.00">UART Reception type</text>
<text text-anchor="middle" x="313" y="-201.88" font-family="Helvetica,sans-Serif" font-size="10.00"> values</text>
</a>
</g>
</g>
<!-- Node1&#45;&gt;Node15 -->
<g id="edge14" class="edge">
<title>Node1&#45;&gt;Node15</title>
<path fill="none" stroke="black" d="M183.27,-260.49C208.28,-250.95 240.83,-238.53 266.94,-228.57"/>
<polygon fill="black" stroke="black" points="182.22,-257.14 174.12,-263.98 184.71,-263.68 182.22,-257.14"/>
</g>
<!-- Node16 -->
<g id="Node000016" class="node">
<title>Node16</title>
<g id="a_Node000016"><a xlink:href="group__UART__RxEvent__Type__Values.html" target="_top" xlink:title=" ">
<polygon fill="white" stroke="#666666" points="378.38,-176.75 247.62,-176.75 247.62,-156 378.38,-156 378.38,-176.75"/>
<text text-anchor="middle" x="313" y="-163.25" font-family="Helvetica,sans-Serif" font-size="10.00">UART RxEvent type values</text>
</a>
</g>
</g>
<!-- Node1&#45;&gt;Node16 -->
<g id="edge15" class="edge">
<title>Node1&#45;&gt;Node16</title>
<path fill="none" stroke="black" d="M161.07,-256.03C179.8,-235.64 211.92,-203.96 245.75,-185.38 251.62,-182.15 258.1,-179.42 264.63,-177.14"/>
<polygon fill="black" stroke="black" points="158.54,-253.61 154.46,-263.39 163.75,-258.29 158.54,-253.61"/>
</g>
<!-- Node9 -->
<g id="Node000009" class="node">
<title>Node9</title>
<g id="a_Node000009"><a xlink:href="group__UART__State.html" target="_top" xlink:title=" ">
<polygon fill="white" stroke="#666666" points="346.12,-137.75 279.88,-137.75 279.88,-117 346.12,-117 346.12,-137.75"/>
<text text-anchor="middle" x="313" y="-124.25" font-family="Helvetica,sans-Serif" font-size="10.00">UART State</text>
</a>
</g>
</g>
<!-- Node1&#45;&gt;Node9 -->
<g id="edge8" class="edge">
<title>Node1&#45;&gt;Node9</title>
<path fill="none" stroke="black" d="M155.3,-254.6C171.44,-226.23 204.12,-175.66 245.75,-147.38 255.79,-140.56 268.22,-136 279.59,-132.99"/>
<polygon fill="black" stroke="black" points="152.27,-252.85 150.49,-263.3 158.39,-256.24 152.27,-252.85"/>
</g>
<!-- Node5 -->
<g id="Node000005" class="node">
<title>Node5</title>
<g id="a_Node000005"><a xlink:href="group__UART__Stop__Bits.html" target="_top" xlink:title=" ">
<polygon fill="white" stroke="#666666" points="379.88,-98.75 246.12,-98.75 246.12,-78 379.88,-78 379.88,-98.75"/>
<text text-anchor="middle" x="313" y="-85.25" font-family="Helvetica,sans-Serif" font-size="10.00">UART Number of Stop Bits</text>
</a>
</g>
</g>
<!-- Node1&#45;&gt;Node5 -->
<g id="edge4" class="edge">
<title>Node1&#45;&gt;Node5</title>
<path fill="none" stroke="black" d="M151.49,-253.91C164.59,-218.33 195.62,-147.19 245.75,-108.38 250.5,-104.7 255.92,-101.69 261.57,-99.24"/>
<polygon fill="black" stroke="black" points="148.28,-252.5 148.24,-263.09 154.88,-254.84 148.28,-252.5"/>
</g>
<!-- Node12 -->
<g id="Node000012" class="node">
<title>Node12</title>
<g id="a_Node000012"><a xlink:href="group__UART__WakeUp__functions.html" target="_top" xlink:title=" ">
<polygon fill="white" stroke="#666666" points="376.12,-59.75 249.88,-59.75 249.88,-39 376.12,-39 376.12,-59.75"/>
<text text-anchor="middle" x="313" y="-46.25" font-family="Helvetica,sans-Serif" font-size="10.00">UART Wakeup Functions</text>
</a>
</g>
</g>
<!-- Node1&#45;&gt;Node12 -->
<g id="edge11" class="edge">
<title>Node1&#45;&gt;Node12</title>
<path fill="none" stroke="black" d="M148.93,-253.42C159.04,-211.37 186.91,-119.24 245.75,-69.38 250.15,-65.65 255.23,-62.61 260.58,-60.14"/>
<polygon fill="black" stroke="black" points="145.54,-252.54 146.73,-263.06 152.37,-254.09 145.54,-252.54"/>
</g>
<!-- Node4 -->
<g id="Node000004" class="node">
<title>Node4</title>
<g id="a_Node000004"><a xlink:href="group__UART__Word__Length.html" target="_top" xlink:title=" ">
<polygon fill="white" stroke="#666666" points="364.5,-20.75 261.5,-20.75 261.5,0 364.5,0 364.5,-20.75"/>
<text text-anchor="middle" x="313" y="-7.25" font-family="Helvetica,sans-Serif" font-size="10.00">UART Word Length</text>
</a>
</g>
</g>
<!-- Node1&#45;&gt;Node4 -->
<g id="edge3" class="edge">
<title>Node1&#45;&gt;Node4</title>
<path fill="none" stroke="black" d="M147.03,-253.33C154.22,-205.54 177.9,-91.79 245.75,-30.38 250.29,-26.26 255.66,-23 261.33,-20.4"/>
<polygon fill="black" stroke="black" points="143.56,-252.83 145.65,-263.22 150.5,-253.8 143.56,-252.83"/>
</g>
</g>
</svg>
