<?xml version="1.0" encoding="UTF-8" standalone="no"?>
<!DOCTYPE svg PUBLIC "-//W3C//DTD SVG 1.1//EN"
 "http://www.w3.org/Graphics/SVG/1.1/DTD/svg11.dtd">
<!-- Generated by graphviz version 2.43.0 (0)
 -->
<!-- Title: ADC Pages: 1 -->
<svg width="390pt" height="249pt"
 viewBox="0.00 0.00 390.00 249.00" xmlns="http://www.w3.org/2000/svg" xmlns:xlink="http://www.w3.org/1999/xlink">
<g id="graph0" class="graph" transform="scale(1 1) rotate(0) translate(4 245)">
<title>ADC</title>
<!-- Node1 -->
<g id="Node000001" class="node">
<title>Node1</title>
<g id="a_Node000001"><a xlink:title="ADC driver modules.">
<polygon fill="#999999" stroke="#666666" points="208,-130 170,-130 170,-111 208,-111 208,-130"/>
<text text-anchor="middle" x="189" y="-118" font-family="Helvetica,sans-Serif" font-size="10.00">ADC</text>
</a>
</g>
</g>
<!-- Node4 -->
<g id="Node000004" class="node">
<title>Node4</title>
<g id="a_Node000004"><a xlink:href="group__ADC__Exported__Constants.html" target="_top" xlink:title=" ">
<polygon fill="white" stroke="#666666" points="381,-241 245,-241 245,-222 381,-222 381,-241"/>
<text text-anchor="middle" x="313" y="-229" font-family="Helvetica,sans-Serif" font-size="10.00">ADC Exported Constants</text>
</a>
</g>
</g>
<!-- Node1&#45;&gt;Node4 -->
<g id="edge3" class="edge">
<title>Node1&#45;&gt;Node4</title>
<path fill="none" stroke="black" d="M196.08,-139.62C203.82,-160.85 219.24,-194.61 244,-213.5 248.47,-216.91 253.52,-219.67 258.81,-221.91"/>
<polygon fill="black" stroke="black" points="199.36,-138.39 192.81,-130.06 192.74,-140.66 199.36,-138.39"/>
</g>
<!-- Node9 -->
<g id="Node000009" class="node">
<title>Node9</title>
<g id="a_Node000009"><a xlink:href="group__ADC__Exported__Functions.html" target="_top" xlink:title=" ">
<polygon fill="white" stroke="#666666" points="382,-204 244,-204 244,-185 382,-185 382,-204"/>
<text text-anchor="middle" x="313" y="-192" font-family="Helvetica,sans-Serif" font-size="10.00">ADC_Exported_Functions</text>
</a>
</g>
</g>
<!-- Node1&#45;&gt;Node9 -->
<g id="edge8" class="edge">
<title>Node1&#45;&gt;Node9</title>
<path fill="none" stroke="black" d="M203.17,-138.67C213.07,-151.07 227.7,-166.92 244,-176.5 249.79,-179.9 256.23,-182.67 262.78,-184.93"/>
<polygon fill="black" stroke="black" points="205.69,-136.21 196.84,-130.39 200.13,-140.46 205.69,-136.21"/>
</g>
<!-- Node5 -->
<g id="Node000005" class="node">
<title>Node5</title>
<g id="a_Node000005"><a xlink:href="group__ADC__Exported__Macros.html" target="_top" xlink:title=" ">
<polygon fill="white" stroke="#666666" points="374,-167 252,-167 252,-148 374,-148 374,-167"/>
<text text-anchor="middle" x="313" y="-155" font-family="Helvetica,sans-Serif" font-size="10.00">ADC Exported Macros</text>
</a>
</g>
</g>
<!-- Node1&#45;&gt;Node5 -->
<g id="edge4" class="edge">
<title>Node1&#45;&gt;Node5</title>
<path fill="none" stroke="black" d="M218,-130.83C226.33,-133.77 235.49,-136.88 244,-139.5 253.57,-142.45 263.99,-145.35 273.73,-147.94"/>
<polygon fill="black" stroke="black" points="218.97,-127.46 208.37,-127.37 216.6,-134.05 218.97,-127.46"/>
</g>
<!-- Node3 -->
<g id="Node000003" class="node">
<title>Node3</title>
<g id="a_Node000003"><a xlink:href="group__ADC__Exported__Types.html" target="_top" xlink:title=" ">
<polygon fill="white" stroke="#666666" points="370.5,-130 255.5,-130 255.5,-111 370.5,-111 370.5,-130"/>
<text text-anchor="middle" x="313" y="-118" font-family="Helvetica,sans-Serif" font-size="10.00">ADC Exported Types</text>
</a>
</g>
</g>
<!-- Node1&#45;&gt;Node3 -->
<g id="edge2" class="edge">
<title>Node1&#45;&gt;Node3</title>
<path fill="none" stroke="black" d="M218.29,-120.5C229.35,-120.5 242.44,-120.5 255.28,-120.5"/>
<polygon fill="black" stroke="black" points="218,-117 208,-120.5 218,-124 218,-117"/>
</g>
<!-- Node6 -->
<g id="Node000006" class="node">
<title>Node6</title>
<g id="a_Node000006"><a xlink:href="group__ADC__Private__Constants.html" target="_top" xlink:title=" ">
<polygon fill="white" stroke="#666666" points="376.5,-93 249.5,-93 249.5,-74 376.5,-74 376.5,-93"/>
<text text-anchor="middle" x="313" y="-81" font-family="Helvetica,sans-Serif" font-size="10.00">ADC Private Constants</text>
</a>
</g>
</g>
<!-- Node1&#45;&gt;Node6 -->
<g id="edge5" class="edge">
<title>Node1&#45;&gt;Node6</title>
<path fill="none" stroke="black" d="M218,-110.17C226.33,-107.23 235.49,-104.12 244,-101.5 253.57,-98.55 263.99,-95.65 273.73,-93.06"/>
<polygon fill="black" stroke="black" points="216.6,-106.95 208.37,-113.63 218.97,-113.54 216.6,-106.95"/>
</g>
<!-- Node8 -->
<g id="Node000008" class="node">
<title>Node8</title>
<g id="a_Node000008"><a xlink:href="group__ADC__Private__Functions.html" target="_top" xlink:title=" ">
<polygon fill="white" stroke="#666666" points="375.5,-56 250.5,-56 250.5,-37 375.5,-37 375.5,-56"/>
<text text-anchor="middle" x="313" y="-44" font-family="Helvetica,sans-Serif" font-size="10.00">ADC Private Functions</text>
</a>
</g>
</g>
<!-- Node1&#45;&gt;Node8 -->
<g id="edge7" class="edge">
<title>Node1&#45;&gt;Node8</title>
<path fill="none" stroke="black" d="M203.17,-102.33C213.07,-89.93 227.7,-74.08 244,-64.5 249.79,-61.1 256.23,-58.33 262.78,-56.07"/>
<polygon fill="black" stroke="black" points="200.13,-100.54 196.84,-110.61 205.69,-104.79 200.13,-100.54"/>
</g>
<!-- Node7 -->
<g id="Node000007" class="node">
<title>Node7</title>
<g id="a_Node000007"><a xlink:href="group__ADC__Private__Macros.html" target="_top" xlink:title=" ">
<polygon fill="white" stroke="#666666" points="369.5,-19 256.5,-19 256.5,0 369.5,0 369.5,-19"/>
<text text-anchor="middle" x="313" y="-7" font-family="Helvetica,sans-Serif" font-size="10.00">ADC Private Macros</text>
</a>
</g>
</g>
<!-- Node1&#45;&gt;Node7 -->
<g id="edge6" class="edge">
<title>Node1&#45;&gt;Node7</title>
<path fill="none" stroke="black" d="M196.08,-101.38C203.82,-80.15 219.24,-46.39 244,-27.5 248.47,-24.09 253.52,-21.33 258.81,-19.09"/>
<polygon fill="black" stroke="black" points="192.74,-100.34 192.81,-110.94 199.36,-102.61 192.74,-100.34"/>
</g>
<!-- Node2 -->
<g id="Node000002" class="node">
<title>Node2</title>
<g id="a_Node000002"><a xlink:href="group__STM32F4xx__HAL__Driver.html" target="_top" xlink:title=" ">
<polygon fill="white" stroke="#666666" points="134,-130 0,-130 0,-111 134,-111 134,-130"/>
<text text-anchor="middle" x="67" y="-118" font-family="Helvetica,sans-Serif" font-size="10.00">STM32F4xx_HAL_Driver</text>
</a>
</g>
</g>
<!-- Node2&#45;&gt;Node1 -->
<g id="edge1" class="edge">
<title>Node2&#45;&gt;Node1</title>
<path fill="none" stroke="black" d="M144.55,-120.5C153.82,-120.5 162.52,-120.5 169.66,-120.5"/>
<polygon fill="black" stroke="black" points="144.32,-117 134.32,-120.5 144.32,-124 144.32,-117"/>
</g>
</g>
</svg>
