<?xml version="1.0" encoding="UTF-8" standalone="no"?>
<!DOCTYPE svg PUBLIC "-//W3C//DTD SVG 1.1//EN"
 "http://www.w3.org/Graphics/SVG/1.1/DTD/svg11.dtd">
<!-- Generated by graphviz version 2.43.0 (0)
 -->
<!-- Title: RTCEx Pages: 1 -->
<svg width="406pt" height="212pt"
 viewBox="0.00 0.00 406.00 212.00" xmlns="http://www.w3.org/2000/svg" xmlns:xlink="http://www.w3.org/1999/xlink">
<g id="graph0" class="graph" transform="scale(1 1) rotate(0) translate(4 208)">
<title>RTCEx</title>
<!-- Node1 -->
<g id="Node000001" class="node">
<title>Node1</title>
<g id="a_Node000001"><a xlink:title="RTC Extended HAL module driver.">
<polygon fill="#999999" stroke="#666666" points="217,-111 170,-111 170,-92 217,-92 217,-111"/>
<text text-anchor="middle" x="193.5" y="-99" font-family="Helvetica,sans-Serif" font-size="10.00">RTCEx</text>
</a>
</g>
</g>
<!-- Node4 -->
<g id="Node000004" class="node">
<title>Node4</title>
<g id="a_Node000004"><a xlink:href="group__RTCEx__Exported__Constants.html" target="_top" xlink:title=" ">
<polygon fill="white" stroke="#666666" points="398,-204 253,-204 253,-185 398,-185 398,-204"/>
<text text-anchor="middle" x="325.5" y="-192" font-family="Helvetica,sans-Serif" font-size="10.00">RTCEx Exported Constants</text>
</a>
</g>
</g>
<!-- Node1&#45;&gt;Node4 -->
<g id="edge3" class="edge">
<title>Node1&#45;&gt;Node4</title>
<path fill="none" stroke="black" d="M204.36,-120.35C214.35,-137.56 231.37,-162.41 253,-176.5 258.26,-179.92 264.12,-182.7 270.16,-184.94"/>
<polygon fill="black" stroke="black" points="207.22,-118.29 199.32,-111.23 201.1,-121.68 207.22,-118.29"/>
</g>
<!-- Node6 -->
<g id="Node000006" class="node">
<title>Node6</title>
<g id="a_Node000006"><a xlink:href="group__RTCEx__Exported__Functions.html" target="_top" xlink:title=" ">
<polygon fill="white" stroke="#666666" points="397,-167 254,-167 254,-148 397,-148 397,-167"/>
<text text-anchor="middle" x="325.5" y="-155" font-family="Helvetica,sans-Serif" font-size="10.00">RTCEx Exported Functions</text>
</a>
</g>
</g>
<!-- Node1&#45;&gt;Node6 -->
<g id="edge5" class="edge">
<title>Node1&#45;&gt;Node6</title>
<path fill="none" stroke="black" d="M215.13,-117.3C225.92,-124.93 239.64,-133.67 253,-139.5 260.63,-142.83 268.99,-145.62 277.22,-147.95"/>
<polygon fill="black" stroke="black" points="216.96,-114.31 206.82,-111.24 212.83,-119.96 216.96,-114.31"/>
</g>
<!-- Node5 -->
<g id="Node000005" class="node">
<title>Node5</title>
<g id="a_Node000005"><a xlink:href="group__RTCEx__Exported__Macros.html" target="_top" xlink:title=" ">
<polygon fill="white" stroke="#666666" points="391,-130 260,-130 260,-111 391,-111 391,-130"/>
<text text-anchor="middle" x="325.5" y="-118" font-family="Helvetica,sans-Serif" font-size="10.00">RTCEx Exported Macros</text>
</a>
</g>
</g>
<!-- Node1&#45;&gt;Node5 -->
<g id="edge4" class="edge">
<title>Node1&#45;&gt;Node5</title>
<path fill="none" stroke="black" d="M227.05,-106.26C237.09,-107.73 248.53,-109.4 259.95,-111.07"/>
<polygon fill="black" stroke="black" points="227.55,-102.79 217.14,-104.81 226.53,-109.72 227.55,-102.79"/>
</g>
<!-- Node3 -->
<g id="Node000003" class="node">
<title>Node3</title>
<g id="a_Node000003"><a xlink:href="group__RTCEx__Exported__Types.html" target="_top" xlink:title=" ">
<polygon fill="white" stroke="#666666" points="387.5,-93 263.5,-93 263.5,-74 387.5,-74 387.5,-93"/>
<text text-anchor="middle" x="325.5" y="-81" font-family="Helvetica,sans-Serif" font-size="10.00">RTCEx Exported Types</text>
</a>
</g>
</g>
<!-- Node1&#45;&gt;Node3 -->
<g id="edge2" class="edge">
<title>Node1&#45;&gt;Node3</title>
<path fill="none" stroke="black" d="M227.13,-96.98C238.14,-95.46 250.81,-93.7 263.3,-91.97"/>
<polygon fill="black" stroke="black" points="226.57,-93.53 217.14,-98.36 227.53,-100.46 226.57,-93.53"/>
</g>
<!-- Node7 -->
<g id="Node000007" class="node">
<title>Node7</title>
<g id="a_Node000007"><a xlink:href="group__RTCEx__Private__Constants.html" target="_top" xlink:title=" ">
<polygon fill="white" stroke="#666666" points="393.5,-56 257.5,-56 257.5,-37 393.5,-37 393.5,-56"/>
<text text-anchor="middle" x="325.5" y="-44" font-family="Helvetica,sans-Serif" font-size="10.00">RTCEx Private Constants</text>
</a>
</g>
</g>
<!-- Node1&#45;&gt;Node7 -->
<g id="edge6" class="edge">
<title>Node1&#45;&gt;Node7</title>
<path fill="none" stroke="black" d="M215.61,-85.85C226.35,-78.49 239.89,-70.13 253,-64.5 260.76,-61.17 269.28,-58.36 277.64,-56.02"/>
<polygon fill="black" stroke="black" points="213.46,-83.08 207.31,-91.71 217.5,-88.8 213.46,-83.08"/>
</g>
<!-- Node8 -->
<g id="Node000008" class="node">
<title>Node8</title>
<g id="a_Node000008"><a xlink:href="group__RTCEx__Private__Macros.html" target="_top" xlink:title=" ">
<polygon fill="white" stroke="#666666" points="386.5,-19 264.5,-19 264.5,0 386.5,0 386.5,-19"/>
<text text-anchor="middle" x="325.5" y="-7" font-family="Helvetica,sans-Serif" font-size="10.00">RTCEx Private Macros</text>
</a>
</g>
</g>
<!-- Node1&#45;&gt;Node8 -->
<g id="edge7" class="edge">
<title>Node1&#45;&gt;Node8</title>
<path fill="none" stroke="black" d="M204.42,-82.9C214.45,-65.92 231.51,-41.41 253,-27.5 258.27,-24.09 264.14,-21.33 270.19,-19.09"/>
<polygon fill="black" stroke="black" points="201.22,-81.47 199.35,-91.9 207.32,-84.9 201.22,-81.47"/>
</g>
<!-- Node2 -->
<g id="Node000002" class="node">
<title>Node2</title>
<g id="a_Node000002"><a xlink:href="group__STM32F4xx__HAL__Driver.html" target="_top" xlink:title=" ">
<polygon fill="white" stroke="#666666" points="134,-111 0,-111 0,-92 134,-92 134,-111"/>
<text text-anchor="middle" x="67" y="-99" font-family="Helvetica,sans-Serif" font-size="10.00">STM32F4xx_HAL_Driver</text>
</a>
</g>
</g>
<!-- Node2&#45;&gt;Node1 -->
<g id="edge1" class="edge">
<title>Node2&#45;&gt;Node1</title>
<path fill="none" stroke="black" d="M144.35,-101.5C153.53,-101.5 162.28,-101.5 169.74,-101.5"/>
<polygon fill="black" stroke="black" points="144.26,-98 134.26,-101.5 144.26,-105 144.26,-98"/>
</g>
</g>
</svg>
