<?xml version="1.0" encoding="UTF-8" standalone="no"?>
<!DOCTYPE svg PUBLIC "-//W3C//DTD SVG 1.1//EN"
 "http://www.w3.org/Graphics/SVG/1.1/DTD/svg11.dtd">
<!-- Generated by graphviz version 12.2.1 (20241206.2353)
 -->
<!-- Title: ADC Exported Constants Pages: 1 -->
<svg width="388pt" height="262pt"
 viewBox="0.00 0.00 388.25 261.75" xmlns="http://www.w3.org/2000/svg" xmlns:xlink="http://www.w3.org/1999/xlink">
<g id="page0,1_graph0" class="graph" transform="scale(1 1) rotate(0) translate(4 257.75)">
<title>ADC Exported Constants</title>
<!-- Node2 -->
<g id="Node000002" class="node">
<title>Node2</title>
<g id="a_Node000002"><a xlink:href="group__ADCEx.html" target="_top" xlink:title="ADC Extended driver modules.">
<polygon fill="white" stroke="#666666" points="46,-130.75 0,-130.75 0,-110 46,-110 46,-130.75"/>
<text text-anchor="middle" x="23" y="-117.25" font-family="Helvetica,sans-Serif" font-size="10.00">ADCEx</text>
</a>
</g>
</g>
<!-- Node1 -->
<g id="Node000001" class="node">
<title>Node1</title>
<g id="a_Node000001"><a xlink:title=" ">
<polygon fill="#999999" stroke="#666666" points="209.75,-130.75 82,-130.75 82,-110 209.75,-110 209.75,-130.75"/>
<text text-anchor="middle" x="145.88" y="-117.25" font-family="Helvetica,sans-Serif" font-size="10.00">ADC Exported Constants</text>
</a>
</g>
</g>
<!-- Node2&#45;&gt;Node1 -->
<g id="edge1" class="edge">
<title>Node2&#45;&gt;Node1</title>
<path fill="none" stroke="black" d="M57.9,-120.38C65.36,-120.38 73.49,-120.38 81.69,-120.38"/>
<polygon fill="black" stroke="black" points="57.97,-116.88 47.97,-120.38 57.97,-123.88 57.97,-116.88"/>
</g>
<!-- Node3 -->
<g id="Node000003" class="node">
<title>Node3</title>
<g id="a_Node000003"><a xlink:href="group__ADCEx__Common__mode.html" target="_top" xlink:title=" ">
<polygon fill="white" stroke="#666666" points="367.12,-253.75 258.88,-253.75 258.88,-233 367.12,-233 367.12,-253.75"/>
<text text-anchor="middle" x="313" y="-240.25" font-family="Helvetica,sans-Serif" font-size="10.00">ADC Common Mode</text>
</a>
</g>
</g>
<!-- Node4 -->
<g id="Node000004" class="node">
<title>Node4</title>
<g id="a_Node000004"><a xlink:href="group__ADCEx__Direct__memory__access__mode__for__multi__mode.html" target="_top" xlink:title=" ">
<polygon fill="white" stroke="#666666" points="380.25,-215.12 245.75,-215.12 245.75,-181.62 380.25,-181.62 380.25,-215.12"/>
<text text-anchor="start" x="253.75" y="-201.62" font-family="Helvetica,sans-Serif" font-size="10.00">ADC Direct Memory Access</text>
<text text-anchor="middle" x="313" y="-188.88" font-family="Helvetica,sans-Serif" font-size="10.00"> Mode For Multi Mode</text>
</a>
</g>
</g>
<!-- Node1&#45;&gt;Node3 -->
<g id="edge2" class="edge">
<title>Node1&#45;&gt;Node3</title>
<path fill="none" stroke="black" d="M160.63,-140.32C177.87,-163.82 209.56,-202.44 245.75,-224.38 251.07,-227.6 256.96,-230.3 262.98,-232.55"/>
<polygon fill="black" stroke="black" points="163.5,-138.32 154.84,-132.22 157.81,-142.39 163.5,-138.32"/>
</g>
<!-- Node1&#45;&gt;Node4 -->
<g id="edge3" class="edge">
<title>Node1&#45;&gt;Node4</title>
<path fill="none" stroke="black" d="M175.94,-136.74C195.42,-147.44 221.79,-161.41 245.75,-172.38 252.38,-175.41 259.47,-178.42 266.46,-181.27"/>
<polygon fill="black" stroke="black" points="177.65,-133.69 167.21,-131.91 174.26,-139.82 177.65,-133.69"/>
</g>
<!-- Node6 -->
<g id="Node000006" class="node">
<title>Node6</title>
<g id="a_Node000006"><a xlink:href="group__ADCEx__External__trigger__Source__Injected.html" target="_top" xlink:title=" ">
<polygon fill="white" stroke="#666666" points="368.25,-163.12 257.75,-163.12 257.75,-129.62 368.25,-129.62 368.25,-163.12"/>
<text text-anchor="start" x="265.75" y="-149.62" font-family="Helvetica,sans-Serif" font-size="10.00">ADC External Trigger</text>
<text text-anchor="middle" x="313" y="-136.88" font-family="Helvetica,sans-Serif" font-size="10.00"> Source Injected</text>
</a>
</g>
</g>
<!-- Node1&#45;&gt;Node6 -->
<g id="edge5" class="edge">
<title>Node1&#45;&gt;Node6</title>
<path fill="none" stroke="black" d="M221.31,-132.09C233.46,-134.01 245.85,-135.96 257.41,-137.78"/>
<polygon fill="black" stroke="black" points="222.16,-128.69 211.74,-130.59 221.07,-135.6 222.16,-128.69"/>
</g>
<!-- Node5 -->
<g id="Node000005" class="node">
<title>Node5</title>
<g id="a_Node000005"><a xlink:href="group__ADCEx__External__trigger__edge__Injected.html" target="_top" xlink:title=" ">
<polygon fill="white" stroke="#666666" points="368.25,-111.12 257.75,-111.12 257.75,-77.62 368.25,-77.62 368.25,-111.12"/>
<text text-anchor="start" x="265.75" y="-97.62" font-family="Helvetica,sans-Serif" font-size="10.00">ADC External Trigger</text>
<text text-anchor="middle" x="313" y="-84.88" font-family="Helvetica,sans-Serif" font-size="10.00"> Edge Injected</text>
</a>
</g>
</g>
<!-- Node1&#45;&gt;Node5 -->
<g id="edge4" class="edge">
<title>Node1&#45;&gt;Node5</title>
<path fill="none" stroke="black" d="M221.31,-108.66C233.46,-106.74 245.85,-104.79 257.41,-102.97"/>
<polygon fill="black" stroke="black" points="221.07,-105.15 211.74,-110.16 222.16,-112.06 221.07,-105.15"/>
</g>
<!-- Node8 -->
<g id="Node000008" class="node">
<title>Node8</title>
<g id="a_Node000008"><a xlink:href="group__ADCEx__channels.html" target="_top" xlink:title=" ">
<polygon fill="white" stroke="#666666" points="371.25,-59.75 254.75,-59.75 254.75,-39 371.25,-39 371.25,-59.75"/>
<text text-anchor="middle" x="313" y="-46.25" font-family="Helvetica,sans-Serif" font-size="10.00">ADC Specific Channels</text>
</a>
</g>
</g>
<!-- Node1&#45;&gt;Node8 -->
<g id="edge7" class="edge">
<title>Node1&#45;&gt;Node8</title>
<path fill="none" stroke="black" d="M174.27,-104.02C193.73,-92.89 220.73,-78.42 245.75,-68.38 253.3,-65.34 261.51,-62.58 269.51,-60.16"/>
<polygon fill="black" stroke="black" points="172.77,-100.84 165.88,-108.89 176.28,-106.89 172.77,-100.84"/>
</g>
<!-- Node7 -->
<g id="Node000007" class="node">
<title>Node7</title>
<g id="a_Node000007"><a xlink:href="group__ADCEx__injected__rank.html" target="_top" xlink:title=" ">
<polygon fill="white" stroke="#666666" points="362.25,-20.75 263.75,-20.75 263.75,0 362.25,0 362.25,-20.75"/>
<text text-anchor="middle" x="313" y="-7.25" font-family="Helvetica,sans-Serif" font-size="10.00">ADC Injected Rank</text>
</a>
</g>
</g>
<!-- Node1&#45;&gt;Node7 -->
<g id="edge6" class="edge">
<title>Node1&#45;&gt;Node7</title>
<path fill="none" stroke="black" d="M163.21,-101.1C181.41,-80.77 212.66,-49.14 245.75,-30.38 252.13,-26.76 259.22,-23.73 266.34,-21.22"/>
<polygon fill="black" stroke="black" points="160.76,-98.59 156.8,-108.42 166.02,-103.2 160.76,-98.59"/>
</g>
</g>
</svg>
