<?xml version="1.0" encoding="UTF-8" standalone="no"?>
<!DOCTYPE svg PUBLIC "-//W3C//DTD SVG 1.1//EN"
 "http://www.w3.org/Graphics/SVG/1.1/DTD/svg11.dtd">
<!-- Generated by graphviz version 2.43.0 (0)
 -->
<!-- Title: I2C Exported Constants Pages: 1 -->
<svg width="422pt" height="372pt"
 viewBox="0.00 0.00 422.00 372.00" xmlns="http://www.w3.org/2000/svg" xmlns:xlink="http://www.w3.org/1999/xlink">

<svg id="main" version="1.1" xmlns="http://www.w3.org/2000/svg" xmlns:xlink="http://www.w3.org/1999/xlink" xml:space="preserve">

<style type="text/css"><![CDATA[
.node, .edge {opacity: 0.7;}
.node.selected, .edge.selected {opacity: 1;}
.edge:hover path { stroke: red; }
.edge:hover polygon { stroke: red; fill: red; }
]]></style>
<script type="application/ecmascript" xlink:href="svg.min.js"/>
<svg id="graph" class="graph">
<g id="graph0" class="graph" transform="scale(1 1) rotate(0) translate(4 368)">
<title>I2C Exported Constants</title>
<!-- Node2 -->
<g id="Node000002" class="node">
<title>Node2</title>
<g id="a_Node000002"><a xlink:href="group__I2C.html" target="_top" xlink:title="I2C HAL module driver.">
<polygon fill="white" stroke="#666666" points="32,-185 0,-185 0,-166 32,-166 32,-185"/>
<text text-anchor="middle" x="16" y="-173" font-family="Helvetica,sans-Serif" font-size="10.00">I2C</text>
</a>
</g>
</g>
<!-- Node1 -->
<g id="Node000001" class="node">
<title>Node1</title>
<g id="a_Node000001"><a xlink:title=" ">
<polygon fill="#999999" stroke="#666666" points="199,-185 68,-185 68,-166 199,-166 199,-185"/>
<text text-anchor="middle" x="133.5" y="-173" font-family="Helvetica,sans-Serif" font-size="10.00">I2C Exported Constants</text>
</a>
</g>
</g>
<!-- Node2&#45;&gt;Node1 -->
<g id="edge1" class="edge">
<title>Node2&#45;&gt;Node1</title>
<path fill="none" stroke="black" d="M42.18,-175.5C49.92,-175.5 58.82,-175.5 67.96,-175.5"/>
<polygon fill="black" stroke="black" points="42.1,-172 32.1,-175.5 42.1,-179 42.1,-172"/>
</g>
<!-- Node12 -->
<g id="Node000012" class="node">
<title>Node12</title>
<g id="a_Node000012"><a xlink:href="group__I2C__Flag__definition.html" target="_top" xlink:title=" ">
<polygon fill="white" stroke="#666666" points="377,-364 272,-364 272,-345 377,-345 377,-364"/>
<text text-anchor="middle" x="324.5" y="-352" font-family="Helvetica,sans-Serif" font-size="10.00">I2C Flag definition</text>
</a>
</g>
</g>
<!-- Node1&#45;&gt;Node12 -->
<g id="edge11" class="edge">
<title>Node1&#45;&gt;Node12</title>
<path fill="none" stroke="black" d="M141.01,-195.07C153.48,-229.31 184.08,-299.85 235,-335.5 245.81,-343.07 259.06,-347.72 271.98,-350.55"/>
<polygon fill="black" stroke="black" points="144.21,-193.6 137.6,-185.32 137.6,-195.91 144.21,-193.6"/>
</g>
<!-- Node11 -->
<g id="Node000011" class="node">
<title>Node11</title>
<g id="a_Node000011"><a xlink:href="group__I2C__Interrupt__configuration__definition.html" target="_top" xlink:title="I2C Interrupt definition Elements values convention: 0xXXXXXXXX.">
<polygon fill="white" stroke="#666666" points="396.5,-326.5 252.5,-326.5 252.5,-296.5 396.5,-296.5 396.5,-326.5"/>
<text text-anchor="start" x="260.5" y="-314.5" font-family="Helvetica,sans-Serif" font-size="10.00">I2C Interrupt configuration</text>
<text text-anchor="middle" x="324.5" y="-303.5" font-family="Helvetica,sans-Serif" font-size="10.00"> definition</text>
</a>
</g>
</g>
<!-- Node1&#45;&gt;Node11 -->
<g id="edge10" class="edge">
<title>Node1&#45;&gt;Node11</title>
<path fill="none" stroke="black" d="M145.96,-193.84C162.53,-218.82 195.55,-263.2 235,-287.5 240.56,-290.92 246.6,-293.87 252.84,-296.39"/>
<polygon fill="black" stroke="black" points="148.81,-191.8 140.44,-185.3 142.93,-195.6 148.81,-191.8"/>
</g>
<!-- Node8 -->
<g id="Node000008" class="node">
<title>Node8</title>
<g id="a_Node000008"><a xlink:href="group__I2C__Memory__Address__Size.html" target="_top" xlink:title=" ">
<polygon fill="white" stroke="#666666" points="395,-278 254,-278 254,-259 395,-259 395,-278"/>
<text text-anchor="middle" x="324.5" y="-266" font-family="Helvetica,sans-Serif" font-size="10.00">I2C Memory Address Size</text>
</a>
</g>
</g>
<!-- Node1&#45;&gt;Node8 -->
<g id="edge7" class="edge">
<title>Node1&#45;&gt;Node8</title>
<path fill="none" stroke="black" d="M151.56,-192.02C170.42,-209.31 202.46,-235.93 235,-250.5 242.58,-253.9 250.82,-256.66 259.12,-258.9"/>
<polygon fill="black" stroke="black" points="153.79,-189.31 144.1,-185.02 149,-194.42 153.79,-189.31"/>
</g>
<!-- Node9 -->
<g id="Node000009" class="node">
<title>Node9</title>
<g id="a_Node000009"><a xlink:href="group__I2C__XferDirection__definition.html" target="_top" xlink:title=" ">
<polygon fill="white" stroke="#666666" points="399,-241 250,-241 250,-222 399,-222 399,-241"/>
<text text-anchor="middle" x="324.5" y="-229" font-family="Helvetica,sans-Serif" font-size="10.00">I2C XferDirection definition</text>
</a>
</g>
</g>
<!-- Node1&#45;&gt;Node9 -->
<g id="edge8" class="edge">
<title>Node1&#45;&gt;Node9</title>
<path fill="none" stroke="black" d="M166.24,-189C185.8,-196.95 211.54,-206.73 235,-213.5 246,-216.67 257.92,-219.5 269.34,-221.92"/>
<polygon fill="black" stroke="black" points="167.48,-185.73 156.9,-185.16 164.81,-192.2 167.48,-185.73"/>
</g>
<!-- Node10 -->
<g id="Node000010" class="node">
<title>Node10</title>
<g id="a_Node000010"><a xlink:href="group__I2C__XferOptions__definition.html" target="_top" xlink:title=" ">
<polygon fill="white" stroke="#666666" points="395.5,-204 253.5,-204 253.5,-185 395.5,-185 395.5,-204"/>
<text text-anchor="middle" x="324.5" y="-192" font-family="Helvetica,sans-Serif" font-size="10.00">I2C XferOptions definition</text>
</a>
</g>
</g>
<!-- Node1&#45;&gt;Node10 -->
<g id="edge9" class="edge">
<title>Node1&#45;&gt;Node10</title>
<path fill="none" stroke="black" d="M209.02,-182.99C223.66,-184.46 238.97,-186 253.45,-187.46"/>
<polygon fill="black" stroke="black" points="209.31,-179.5 199.01,-181.99 208.61,-186.47 209.31,-179.5"/>
</g>
<!-- Node4 -->
<g id="Node000004" class="node">
<title>Node4</title>
<g id="a_Node000004"><a xlink:href="group__I2C__addressing__mode.html" target="_top" xlink:title=" ">
<polygon fill="white" stroke="#666666" points="384,-167 265,-167 265,-148 384,-148 384,-167"/>
<text text-anchor="middle" x="324.5" y="-155" font-family="Helvetica,sans-Serif" font-size="10.00">I2C addressing mode</text>
</a>
</g>
</g>
<!-- Node1&#45;&gt;Node4 -->
<g id="edge3" class="edge">
<title>Node1&#45;&gt;Node4</title>
<path fill="none" stroke="black" d="M209.19,-168.39C227.73,-166.62 247.34,-164.75 264.99,-163.07"/>
<polygon fill="black" stroke="black" points="208.64,-164.92 199.01,-169.36 209.3,-171.89 208.64,-164.92"/>
</g>
<!-- Node5 -->
<g id="Node000005" class="node">
<title>Node5</title>
<g id="a_Node000005"><a xlink:href="group__I2C__dual__addressing__mode.html" target="_top" xlink:title=" ">
<polygon fill="white" stroke="#666666" points="396,-130 253,-130 253,-111 396,-111 396,-130"/>
<text text-anchor="middle" x="324.5" y="-118" font-family="Helvetica,sans-Serif" font-size="10.00">I2C dual addressing mode</text>
</a>
</g>
</g>
<!-- Node1&#45;&gt;Node5 -->
<g id="edge4" class="edge">
<title>Node1&#45;&gt;Node5</title>
<path fill="none" stroke="black" d="M168.15,-162.18C187.5,-154.85 212.39,-145.95 235,-139.5 247.39,-135.97 260.93,-132.75 273.6,-130"/>
<polygon fill="black" stroke="black" points="166.66,-159.01 158.58,-165.86 169.17,-165.54 166.66,-159.01"/>
</g>
<!-- Node3 -->
<g id="Node000003" class="node">
<title>Node3</title>
<g id="a_Node000003"><a xlink:href="group__I2C__duty__cycle__in__fast__mode.html" target="_top" xlink:title=" ">
<polygon fill="white" stroke="#666666" points="399.5,-93 249.5,-93 249.5,-74 399.5,-74 399.5,-93"/>
<text text-anchor="middle" x="324.5" y="-81" font-family="Helvetica,sans-Serif" font-size="10.00">I2C duty cycle in fast mode</text>
</a>
</g>
</g>
<!-- Node1&#45;&gt;Node3 -->
<g id="edge2" class="edge">
<title>Node1&#45;&gt;Node3</title>
<path fill="none" stroke="black" d="M152.29,-158.97C171.32,-142.2 203.09,-116.74 235,-102.5 243.61,-98.66 253.05,-95.57 262.45,-93.1"/>
<polygon fill="black" stroke="black" points="149.81,-156.49 144.72,-165.78 154.49,-161.69 149.81,-156.49"/>
</g>
<!-- Node6 -->
<g id="Node000006" class="node">
<title>Node6</title>
<g id="a_Node000006"><a xlink:href="group__I2C__general__call__addressing__mode.html" target="_top" xlink:title=" ">
<polygon fill="white" stroke="#666666" points="414,-56 235,-56 235,-37 414,-37 414,-56"/>
<text text-anchor="middle" x="324.5" y="-44" font-family="Helvetica,sans-Serif" font-size="10.00">I2C general call addressing mode</text>
</a>
</g>
</g>
<!-- Node1&#45;&gt;Node6 -->
<g id="edge5" class="edge">
<title>Node1&#45;&gt;Node6</title>
<path fill="none" stroke="black" d="M145.86,-157.19C162.32,-132.32 195.21,-88.33 235,-65.5 241.81,-61.59 249.34,-58.48 257.05,-56.01"/>
<polygon fill="black" stroke="black" points="142.85,-155.41 140.38,-165.71 148.74,-159.2 142.85,-155.41"/>
</g>
<!-- Node7 -->
<g id="Node000007" class="node">
<title>Node7</title>
<g id="a_Node000007"><a xlink:href="group__I2C__nostretch__mode.html" target="_top" xlink:title=" ">
<polygon fill="white" stroke="#666666" points="380.5,-19 268.5,-19 268.5,0 380.5,0 380.5,-19"/>
<text text-anchor="middle" x="324.5" y="-7" font-family="Helvetica,sans-Serif" font-size="10.00">I2C nostretch mode</text>
</a>
</g>
</g>
<!-- Node1&#45;&gt;Node7 -->
<g id="edge6" class="edge">
<title>Node1&#45;&gt;Node7</title>
<path fill="none" stroke="black" d="M142.03,-156.18C155.54,-124.22 187.04,-60.7 235,-28.5 244.92,-21.84 256.74,-17.46 268.47,-14.6"/>
<polygon fill="black" stroke="black" points="138.68,-155.13 138.14,-165.71 145.16,-157.78 138.68,-155.13"/>
</g>
</g>
</svg>
</svg>

<style type='text/css'>
<![CDATA[
[data-mouse-over-selected='false'] { opacity: 0.7; }
[data-mouse-over-selected='true']  { opacity: 1.0; }
]]>
</style>
<script type="application/ecmascript"><![CDATA[
document.addEventListener('DOMContentLoaded', (event) => {
  highlightEdges();
  highlightAdjacentNodes();
});
]]></script>
</svg>
