<?xml version="1.0" encoding="UTF-8" standalone="no"?>
<!DOCTYPE svg PUBLIC "-//W3C//DTD SVG 1.1//EN"
 "http://www.w3.org/Graphics/SVG/1.1/DTD/svg11.dtd">
<!-- Generated by graphviz version 12.2.1 (20241206.2353)
 -->
<!-- Title: FLASH Pages: 1 -->
<svg width="391pt" height="302pt"
 viewBox="0.00 0.00 390.50 301.75" xmlns="http://www.w3.org/2000/svg" xmlns:xlink="http://www.w3.org/1999/xlink">

<svg id="main" version="1.1" xmlns="http://www.w3.org/2000/svg" xmlns:xlink="http://www.w3.org/1999/xlink" xml:space="preserve">

<style type="text/css"><![CDATA[
.node, .edge {opacity: 0.7;}
.node.selected, .edge.selected {opacity: 1;}
.edge:hover path { stroke: red; }
.edge:hover polygon { stroke: red; fill: red; }
]]></style>
<script type="application/ecmascript" xlink:href="svg.min.js"/>
<svg id="graph" class="graph">
<g id="graph0" class="graph" transform="scale(1 1) rotate(0) translate(4 297.75)">
<title>FLASH</title>
<!-- Node1 -->
<g id="Node000001" class="node">
<title>Node1</title>
<g id="a_Node000001"><a xlink:title="FLASH HAL module driver.">
<polygon fill="#999999" stroke="#666666" points="204.5,-156.75 158.5,-156.75 158.5,-136 204.5,-136 204.5,-156.75"/>
<text text-anchor="middle" x="181.5" y="-143.25" font-family="Helvetica,sans-Serif" font-size="10.00">FLASH</text>
</a>
</g>
</g>
<!-- Node4 -->
<g id="Node000004" class="node">
<title>Node4</title>
<g id="a_Node000004"><a xlink:href="group__FLASH__Exported__Constants.html" target="_top" xlink:title=" ">
<polygon fill="white" stroke="#666666" points="380.62,-293.75 242.38,-293.75 242.38,-273 380.62,-273 380.62,-293.75"/>
<text text-anchor="middle" x="311.5" y="-280.25" font-family="Helvetica,sans-Serif" font-size="10.00">FLASH Exported Constants</text>
</a>
</g>
</g>
<!-- Node1&#45;&gt;Node4 -->
<g id="edge3" class="edge">
<title>Node1&#45;&gt;Node4</title>
<path fill="none" stroke="black" d="M187.59,-168.33C194.85,-194.73 210.72,-238.58 240.5,-263.38 244.97,-267.1 250.09,-270.12 255.49,-272.59"/>
<polygon fill="black" stroke="black" points="191,-167.54 185.14,-158.71 184.22,-169.27 191,-167.54"/>
</g>
<!-- Node10 -->
<g id="Node000010" class="node">
<title>Node10</title>
<g id="a_Node000010"><a xlink:href="group__FLASH__Exported__Functions.html" target="_top" xlink:title=" ">
<polygon fill="white" stroke="#666666" points="382.5,-254.75 240.5,-254.75 240.5,-234 382.5,-234 382.5,-254.75"/>
<text text-anchor="middle" x="311.5" y="-241.25" font-family="Helvetica,sans-Serif" font-size="10.00">FLASH_Exported_Functions</text>
</a>
</g>
</g>
<!-- Node1&#45;&gt;Node10 -->
<g id="edge9" class="edge">
<title>Node1&#45;&gt;Node10</title>
<path fill="none" stroke="black" d="M192.92,-167.18C202.83,-184.9 219.35,-209.75 240.5,-224.38 245.91,-228.11 252,-231.16 258.29,-233.64"/>
<polygon fill="black" stroke="black" points="196.12,-165.75 188.33,-158.56 189.94,-169.03 196.12,-165.75"/>
</g>
<!-- Node5 -->
<g id="Node000005" class="node">
<title>Node5</title>
<g id="a_Node000005"><a xlink:href="group__FLASH__Exported__Macros.html" target="_top" xlink:title=" ">
<polygon fill="white" stroke="#666666" points="373.5,-215.75 249.5,-215.75 249.5,-195 373.5,-195 373.5,-215.75"/>
<text text-anchor="middle" x="311.5" y="-202.25" font-family="Helvetica,sans-Serif" font-size="10.00">FLASH Exported Macros</text>
</a>
</g>
</g>
<!-- Node1&#45;&gt;Node5 -->
<g id="edge4" class="edge">
<title>Node1&#45;&gt;Node5</title>
<path fill="none" stroke="black" d="M204.75,-163.74C215.16,-171.22 227.99,-179.56 240.5,-185.38 248.18,-188.94 256.63,-192.02 264.93,-194.6"/>
<polygon fill="black" stroke="black" points="206.94,-161.01 196.82,-157.85 202.76,-166.63 206.94,-161.01"/>
</g>
<!-- Node3 -->
<g id="Node000003" class="node">
<title>Node3</title>
<g id="a_Node000003"><a xlink:href="group__FLASH__Exported__Types.html" target="_top" xlink:title=" ">
<polygon fill="white" stroke="#666666" points="370.5,-176.75 252.5,-176.75 252.5,-156 370.5,-156 370.5,-176.75"/>
<text text-anchor="middle" x="311.5" y="-163.25" font-family="Helvetica,sans-Serif" font-size="10.00">FLASH Exported Types</text>
</a>
</g>
</g>
<!-- Node1&#45;&gt;Node3 -->
<g id="edge2" class="edge">
<title>Node1&#45;&gt;Node3</title>
<path fill="none" stroke="black" d="M216.09,-151.62C227.16,-153.35 239.8,-155.33 252.17,-157.26"/>
<polygon fill="black" stroke="black" points="216.71,-148.18 206.29,-150.09 215.63,-155.09 216.71,-148.18"/>
</g>
<!-- Node7 -->
<g id="Node000007" class="node">
<title>Node7</title>
<g id="a_Node000007"><a xlink:href="group__FLASH__Private__Constants.html" target="_top" xlink:title=" ">
<polygon fill="white" stroke="#666666" points="375.38,-137.75 247.62,-137.75 247.62,-117 375.38,-117 375.38,-137.75"/>
<text text-anchor="middle" x="311.5" y="-124.25" font-family="Helvetica,sans-Serif" font-size="10.00">FLASH Private Constants</text>
</a>
</g>
</g>
<!-- Node1&#45;&gt;Node7 -->
<g id="edge6" class="edge">
<title>Node1&#45;&gt;Node7</title>
<path fill="none" stroke="black" d="M215.88,-141.42C225.52,-139.99 236.38,-138.38 247.21,-136.77"/>
<polygon fill="black" stroke="black" points="215.67,-137.91 206.29,-142.84 216.7,-144.84 215.67,-137.91"/>
</g>
<!-- Node9 -->
<g id="Node000009" class="node">
<title>Node9</title>
<g id="a_Node000009"><a xlink:href="group__FLASH__Private__Functions.html" target="_top" xlink:title=" ">
<polygon fill="white" stroke="#666666" points="374.25,-98.75 248.75,-98.75 248.75,-78 374.25,-78 374.25,-98.75"/>
<text text-anchor="middle" x="311.5" y="-85.25" font-family="Helvetica,sans-Serif" font-size="10.00">FLASH Private Functions</text>
</a>
</g>
</g>
<!-- Node1&#45;&gt;Node9 -->
<g id="edge8" class="edge">
<title>Node1&#45;&gt;Node9</title>
<path fill="none" stroke="black" d="M205.23,-129.19C215.57,-121.98 228.22,-113.99 240.5,-108.38 248.2,-104.85 256.66,-101.8 264.97,-99.22"/>
<polygon fill="black" stroke="black" points="203.41,-126.18 197.34,-134.87 207.5,-131.87 203.41,-126.18"/>
</g>
<!-- Node8 -->
<g id="Node000008" class="node">
<title>Node8</title>
<g id="a_Node000008"><a xlink:href="group__FLASH__Private__Macros.html" target="_top" xlink:title=" ">
<polygon fill="white" stroke="#666666" points="368.25,-59.75 254.75,-59.75 254.75,-39 368.25,-39 368.25,-59.75"/>
<text text-anchor="middle" x="311.5" y="-46.25" font-family="Helvetica,sans-Serif" font-size="10.00">FLASH Private Macros</text>
</a>
</g>
</g>
<!-- Node1&#45;&gt;Node8 -->
<g id="edge7" class="edge">
<title>Node1&#45;&gt;Node8</title>
<path fill="none" stroke="black" d="M192.98,-125.84C202.93,-108.34 219.48,-83.81 240.5,-69.38 245.92,-65.65 252.02,-62.62 258.31,-60.15"/>
<polygon fill="black" stroke="black" points="190.06,-123.87 188.38,-134.33 196.22,-127.21 190.06,-123.87"/>
</g>
<!-- Node6 -->
<g id="Node000006" class="node">
<title>Node6</title>
<g id="a_Node000006"><a xlink:href="group__FLASH__Private__Variables.html" target="_top" xlink:title=" ">
<polygon fill="white" stroke="#666666" points="372.75,-20.75 250.25,-20.75 250.25,0 372.75,0 372.75,-20.75"/>
<text text-anchor="middle" x="311.5" y="-7.25" font-family="Helvetica,sans-Serif" font-size="10.00">FLASH Private Variables</text>
</a>
</g>
</g>
<!-- Node1&#45;&gt;Node6 -->
<g id="edge5" class="edge">
<title>Node1&#45;&gt;Node6</title>
<path fill="none" stroke="black" d="M187.65,-124.6C194.96,-98.42 210.88,-54.95 240.5,-30.38 244.97,-26.66 250.1,-23.64 255.5,-21.17"/>
<polygon fill="black" stroke="black" points="184.3,-123.57 185.18,-134.13 191.07,-125.33 184.3,-123.57"/>
</g>
<!-- Node2 -->
<g id="Node000002" class="node">
<title>Node2</title>
<g id="a_Node000002"><a xlink:href="group__STM32F4xx__HAL__Driver.html" target="_top" xlink:title=" ">
<polygon fill="white" stroke="#666666" points="122.5,-156.75 0,-156.75 0,-136 122.5,-136 122.5,-156.75"/>
<text text-anchor="middle" x="61.25" y="-143.25" font-family="Helvetica,sans-Serif" font-size="10.00">STM32F4xx_HAL_Driver</text>
</a>
</g>
</g>
<!-- Node2&#45;&gt;Node1 -->
<g id="edge1" class="edge">
<title>Node2&#45;&gt;Node1</title>
<path fill="none" stroke="black" d="M134.2,-146.38C142.79,-146.38 151,-146.38 158.05,-146.38"/>
<polygon fill="black" stroke="black" points="134.27,-142.88 124.27,-146.38 134.27,-149.88 134.27,-142.88"/>
</g>
</g>
</svg>
</svg>

<style type='text/css'>
<![CDATA[
[data-mouse-over-selected='false'] { opacity: 0.7; }
[data-mouse-over-selected='true']  { opacity: 1.0; }
]]>
</style>
<script type="application/ecmascript"><![CDATA[
document.addEventListener('DOMContentLoaded', (event) => {
  highlightEdges();
  highlightAdjacentNodes();
});
]]></script>
</svg>
