<?xml version="1.0" encoding="UTF-8" standalone="no"?>
<!DOCTYPE svg PUBLIC "-//W3C//DTD SVG 1.1//EN"
 "http://www.w3.org/Graphics/SVG/1.1/DTD/svg11.dtd">
<!-- Generated by graphviz version 2.43.0 (0)
 -->
<!-- Title: ADC Exported Macros Pages: 1 -->
<svg width="216pt" height="64pt"
 viewBox="0.00 0.00 216.00 64.00" xmlns="http://www.w3.org/2000/svg" xmlns:xlink="http://www.w3.org/1999/xlink">
<g id="graph0" class="graph" transform="scale(1 1) rotate(0) translate(4 60)">
<title>ADC Exported Macros</title>
<!-- Node2 -->
<g id="Node000002" class="node">
<title>Node2</title>
<g id="a_Node000002"><a xlink:href="group__ADC.html" target="_top" xlink:title="ADC driver modules.">
<polygon fill="white" stroke="#666666" points="44,-56 6,-56 6,-37 44,-37 44,-56"/>
<text text-anchor="middle" x="25" y="-44" font-family="Helvetica,sans-Serif" font-size="10.00">ADC</text>
</a>
</g>
</g>
<!-- Node1 -->
<g id="Node000001" class="node">
<title>Node1</title>
<g id="a_Node000001"><a xlink:title=" ">
<polygon fill="#999999" stroke="#666666" points="208,-37 86,-37 86,-18 208,-18 208,-37"/>
<text text-anchor="middle" x="147" y="-25" font-family="Helvetica,sans-Serif" font-size="10.00">ADC Exported Macros</text>
</a>
</g>
</g>
<!-- Node2&#45;&gt;Node1 -->
<g id="edge1" class="edge">
<title>Node2&#45;&gt;Node1</title>
<path fill="none" stroke="black" d="M54.27,-42.02C63.81,-40.51 74.84,-38.77 85.88,-37.02"/>
<polygon fill="black" stroke="black" points="53.56,-38.59 44.23,-43.61 54.65,-45.51 53.56,-38.59"/>
</g>
<!-- Node3 -->
<g id="Node000003" class="node">
<title>Node3</title>
<g id="a_Node000003"><a xlink:href="group__ADCEx.html" target="_top" xlink:title="ADC Extended driver modules.">
<polygon fill="white" stroke="#666666" points="50,-19 0,-19 0,0 50,0 50,-19"/>
<text text-anchor="middle" x="25" y="-7" font-family="Helvetica,sans-Serif" font-size="10.00">ADCEx</text>
</a>
</g>
</g>
<!-- Node3&#45;&gt;Node1 -->
<g id="edge2" class="edge">
<title>Node3&#45;&gt;Node1</title>
<path fill="none" stroke="black" d="M60.22,-14.63C68.16,-15.82 76.83,-17.12 85.52,-18.43"/>
<polygon fill="black" stroke="black" points="60.69,-11.16 50.28,-13.14 59.65,-18.09 60.69,-11.16"/>
</g>
</g>
</svg>
