<?xml version="1.0" encoding="UTF-8" standalone="no"?>
<!DOCTYPE svg PUBLIC "-//W3C//DTD SVG 1.1//EN"
 "http://www.w3.org/Graphics/SVG/1.1/DTD/svg11.dtd">
<!-- Generated by graphviz version 12.2.1 (20241206.2353)
 -->
<!-- Title: I2S Pages: 1 -->
<svg width="358pt" height="185pt"
 viewBox="0.00 0.00 357.50 184.75" xmlns="http://www.w3.org/2000/svg" xmlns:xlink="http://www.w3.org/1999/xlink">
<g id="page0,1_graph0" class="graph" transform="scale(1 1) rotate(0) translate(4 180.75)">
<title>I2S</title>
<!-- Node1 -->
<g id="Node000001" class="node">
<title>Node1</title>
<g id="a_Node000001"><a xlink:title=" ">
<polygon fill="#999999" stroke="#666666" points="188,-98.75 158.5,-98.75 158.5,-78 188,-78 188,-98.75"/>
<text text-anchor="middle" x="173.25" y="-85.25" font-family="Helvetica,sans-Serif" font-size="10.00">I2S</text>
</a>
</g>
</g>
<!-- Node4 -->
<g id="Node000004" class="node">
<title>Node4</title>
<g id="a_Node000004"><a xlink:href="group__I2S__Exported__Constants.html" target="_top" xlink:title=" ">
<polygon fill="white" stroke="#666666" points="347.62,-176.75 225.88,-176.75 225.88,-156 347.62,-156 347.62,-176.75"/>
<text text-anchor="middle" x="286.75" y="-163.25" font-family="Helvetica,sans-Serif" font-size="10.00">I2S Exported Constants</text>
</a>
</g>
</g>
<!-- Node1&#45;&gt;Node4 -->
<g id="edge3" class="edge">
<title>Node1&#45;&gt;Node4</title>
<path fill="none" stroke="black" d="M186.95,-108.15C195.94,-120.7 209.01,-136.39 224,-146.38 229.53,-150.06 235.8,-153.11 242.16,-155.62"/>
<polygon fill="black" stroke="black" points="190.05,-106.47 181.52,-100.18 184.26,-110.41 190.05,-106.47"/>
</g>
<!-- Node7 -->
<g id="Node000007" class="node">
<title>Node7</title>
<g id="a_Node000007"><a xlink:href="group__I2S__Exported__Functions.html" target="_top" xlink:title=" ">
<polygon fill="white" stroke="#666666" points="349.5,-137.75 224,-137.75 224,-117 349.5,-117 349.5,-137.75"/>
<text text-anchor="middle" x="286.75" y="-124.25" font-family="Helvetica,sans-Serif" font-size="10.00">I2S_Exported_Functions</text>
</a>
</g>
</g>
<!-- Node1&#45;&gt;Node7 -->
<g id="edge6" class="edge">
<title>Node1&#45;&gt;Node7</title>
<path fill="none" stroke="black" d="M198.66,-97.99C206.7,-101.07 215.7,-104.45 224,-107.38 232.82,-110.49 242.41,-113.68 251.35,-116.58"/>
<polygon fill="black" stroke="black" points="200.12,-94.8 189.53,-94.44 197.58,-101.32 200.12,-94.8"/>
</g>
<!-- Node3 -->
<g id="Node000003" class="node">
<title>Node3</title>
<g id="a_Node000003"><a xlink:href="group__I2S__Exported__Types.html" target="_top" xlink:title=" ">
<polygon fill="white" stroke="#666666" points="337.5,-98.75 236,-98.75 236,-78 337.5,-78 337.5,-98.75"/>
<text text-anchor="middle" x="286.75" y="-85.25" font-family="Helvetica,sans-Serif" font-size="10.00">I2S Exported Types</text>
</a>
</g>
</g>
<!-- Node1&#45;&gt;Node3 -->
<g id="edge2" class="edge">
<title>Node1&#45;&gt;Node3</title>
<path fill="none" stroke="black" d="M199.78,-88.38C210.45,-88.38 223.25,-88.38 235.66,-88.38"/>
<polygon fill="black" stroke="black" points="199.89,-84.88 189.89,-88.38 199.89,-91.88 199.89,-84.88"/>
</g>
<!-- Node5 -->
<g id="Node000005" class="node">
<title>Node5</title>
<g id="a_Node000005"><a xlink:href="group__I2S__Exported__macros.html" target="_top" xlink:title=" ">
<polygon fill="white" stroke="#666666" points="340.5,-59.75 233,-59.75 233,-39 340.5,-39 340.5,-59.75"/>
<text text-anchor="middle" x="286.75" y="-46.25" font-family="Helvetica,sans-Serif" font-size="10.00">I2S Exported Macros</text>
</a>
</g>
</g>
<!-- Node1&#45;&gt;Node5 -->
<g id="edge4" class="edge">
<title>Node1&#45;&gt;Node5</title>
<path fill="none" stroke="black" d="M198.66,-78.76C206.7,-75.68 215.7,-72.3 224,-69.38 232.82,-66.26 242.41,-63.07 251.35,-60.17"/>
<polygon fill="black" stroke="black" points="197.58,-75.43 189.53,-82.31 200.12,-81.95 197.58,-75.43"/>
</g>
<!-- Node6 -->
<g id="Node000006" class="node">
<title>Node6</title>
<g id="a_Node000006"><a xlink:href="group__I2S__Private__Macros.html" target="_top" xlink:title=" ">
<polygon fill="white" stroke="#666666" points="335.25,-20.75 238.25,-20.75 238.25,0 335.25,0 335.25,-20.75"/>
<text text-anchor="middle" x="286.75" y="-7.25" font-family="Helvetica,sans-Serif" font-size="10.00">I2S Private Macros</text>
</a>
</g>
</g>
<!-- Node1&#45;&gt;Node6 -->
<g id="edge5" class="edge">
<title>Node1&#45;&gt;Node6</title>
<path fill="none" stroke="black" d="M186.95,-68.6C195.94,-56.05 209.01,-40.36 224,-30.38 229.53,-26.69 235.8,-23.64 242.16,-21.13"/>
<polygon fill="black" stroke="black" points="184.26,-66.34 181.52,-76.57 190.05,-70.28 184.26,-66.34"/>
</g>
<!-- Node2 -->
<g id="Node000002" class="node">
<title>Node2</title>
<g id="a_Node000002"><a xlink:href="group__STM32F4xx__HAL__Driver.html" target="_top" xlink:title=" ">
<polygon fill="white" stroke="#666666" points="122.5,-98.75 0,-98.75 0,-78 122.5,-78 122.5,-98.75"/>
<text text-anchor="middle" x="61.25" y="-85.25" font-family="Helvetica,sans-Serif" font-size="10.00">STM32F4xx_HAL_Driver</text>
</a>
</g>
</g>
<!-- Node2&#45;&gt;Node1 -->
<g id="edge1" class="edge">
<title>Node2&#45;&gt;Node1</title>
<path fill="none" stroke="black" d="M134.14,-88.38C143.28,-88.38 151.73,-88.38 158.34,-88.38"/>
<polygon fill="black" stroke="black" points="134.23,-84.88 124.23,-88.38 134.23,-91.88 134.23,-84.88"/>
</g>
</g>
</svg>
