<?xml version="1.0" encoding="UTF-8" standalone="no"?>
<!DOCTYPE svg PUBLIC "-//W3C//DTD SVG 1.1//EN"
 "http://www.w3.org/Graphics/SVG/1.1/DTD/svg11.dtd">
<!-- Generated by graphviz version 12.2.1 (20241206.2353)
 -->
<!-- Title: SPI_Exported_Functions Pages: 1 -->
<svg width="363pt" height="146pt"
 viewBox="0.00 0.00 362.75 145.50" xmlns="http://www.w3.org/2000/svg" xmlns:xlink="http://www.w3.org/1999/xlink">

<svg id="main" version="1.1" xmlns="http://www.w3.org/2000/svg" xmlns:xlink="http://www.w3.org/1999/xlink" xml:space="preserve">

<style type="text/css"><![CDATA[
.node, .edge {opacity: 0.7;}
.node.selected, .edge.selected {opacity: 1;}
.edge:hover path { stroke: red; }
.edge:hover polygon { stroke: red; fill: red; }
]]></style>
<script type="application/ecmascript" xlink:href="svg.min.js"/>
<svg id="graph" class="graph">
<g id="graph0" class="graph" transform="scale(1 1) rotate(0) translate(4 141.5)">
<title>SPI_Exported_Functions</title>
<!-- Node2 -->
<g id="Node000002" class="node">
<title>Node2</title>
<g id="a_Node000002"><a xlink:href="group__SPI.html" target="_top" xlink:title="SPI HAL module driver.">
<polygon fill="white" stroke="#666666" points="30.25,-79.12 0,-79.12 0,-58.38 30.25,-58.38 30.25,-79.12"/>
<text text-anchor="middle" x="15.12" y="-65.62" font-family="Helvetica,sans-Serif" font-size="10.00">SPI</text>
</a>
</g>
</g>
<!-- Node1 -->
<g id="Node000001" class="node">
<title>Node1</title>
<g id="a_Node000001"><a xlink:title=" ">
<polygon fill="#999999" stroke="#666666" points="192.5,-79.12 66.25,-79.12 66.25,-58.38 192.5,-58.38 192.5,-79.12"/>
<text text-anchor="middle" x="129.38" y="-65.62" font-family="Helvetica,sans-Serif" font-size="10.00">SPI_Exported_Functions</text>
</a>
</g>
</g>
<!-- Node2&#45;&gt;Node1 -->
<g id="edge1" class="edge">
<title>Node2&#45;&gt;Node1</title>
<path fill="none" stroke="black" d="M41.64,-68.75C49,-68.75 57.38,-68.75 65.95,-68.75"/>
<polygon fill="black" stroke="black" points="41.86,-65.25 31.86,-68.75 41.86,-72.25 41.86,-65.25"/>
</g>
<!-- Node3 -->
<g id="Node000003" class="node">
<title>Node3</title>
<g id="a_Node000003"><a xlink:href="group__SPI__Exported__Functions__Group1.html" target="_top" xlink:title=" ">
<polygon fill="white" stroke="#666666" points="354.75,-137.5 228.5,-137.5 228.5,-104 354.75,-104 354.75,-137.5"/>
<text text-anchor="start" x="236.5" y="-124" font-family="Helvetica,sans-Serif" font-size="10.00">SPI_Exported_Functions</text>
<text text-anchor="middle" x="291.62" y="-111.25" font-family="Helvetica,sans-Serif" font-size="10.00">_Group1</text>
</a>
</g>
</g>
<!-- Node1&#45;&gt;Node3 -->
<g id="edge2" class="edge">
<title>Node1&#45;&gt;Node3</title>
<path fill="none" stroke="black" d="M174.33,-83.01C193.88,-89.36 217.08,-96.89 237.59,-103.54"/>
<polygon fill="black" stroke="black" points="175.61,-79.75 165.02,-79.99 173.45,-86.41 175.61,-79.75"/>
</g>
<!-- Node4 -->
<g id="Node000004" class="node">
<title>Node4</title>
<g id="a_Node000004"><a xlink:href="group__SPI__Exported__Functions__Group2.html" target="_top" xlink:title=" ">
<polygon fill="white" stroke="#666666" points="354.75,-85.5 228.5,-85.5 228.5,-52 354.75,-52 354.75,-85.5"/>
<text text-anchor="start" x="236.5" y="-72" font-family="Helvetica,sans-Serif" font-size="10.00">SPI_Exported_Functions</text>
<text text-anchor="middle" x="291.62" y="-59.25" font-family="Helvetica,sans-Serif" font-size="10.00">_Group2</text>
</a>
</g>
</g>
<!-- Node1&#45;&gt;Node4 -->
<g id="edge3" class="edge">
<title>Node1&#45;&gt;Node4</title>
<path fill="none" stroke="black" d="M204.06,-68.75C212.1,-68.75 220.23,-68.75 228.12,-68.75"/>
<polygon fill="black" stroke="black" points="204.3,-65.25 194.3,-68.75 204.3,-72.25 204.3,-65.25"/>
</g>
<!-- Node5 -->
<g id="Node000005" class="node">
<title>Node5</title>
<g id="a_Node000005"><a xlink:href="group__SPI__Exported__Functions__Group3.html" target="_top" xlink:title=" ">
<polygon fill="white" stroke="#666666" points="354.75,-33.5 228.5,-33.5 228.5,0 354.75,0 354.75,-33.5"/>
<text text-anchor="start" x="236.5" y="-20" font-family="Helvetica,sans-Serif" font-size="10.00">SPI_Exported_Functions</text>
<text text-anchor="middle" x="291.62" y="-7.25" font-family="Helvetica,sans-Serif" font-size="10.00">_Group3</text>
</a>
</g>
</g>
<!-- Node1&#45;&gt;Node5 -->
<g id="edge4" class="edge">
<title>Node1&#45;&gt;Node5</title>
<path fill="none" stroke="black" d="M174.33,-54.49C193.88,-48.14 217.08,-40.61 237.59,-33.96"/>
<polygon fill="black" stroke="black" points="173.45,-51.09 165.02,-57.51 175.61,-57.75 173.45,-51.09"/>
</g>
</g>
</svg>
</svg>

<style type='text/css'>
<![CDATA[
[data-mouse-over-selected='false'] { opacity: 0.7; }
[data-mouse-over-selected='true']  { opacity: 1.0; }
]]>
</style>
<script type="application/ecmascript"><![CDATA[
document.addEventListener('DOMContentLoaded', (event) => {
  highlightEdges();
  highlightAdjacentNodes();
});
]]></script>
</svg>
