<?xml version="1.0" encoding="UTF-8" standalone="no"?>
<!DOCTYPE svg PUBLIC "-//W3C//DTD SVG 1.1//EN"
 "http://www.w3.org/Graphics/SVG/1.1/DTD/svg11.dtd">
<!-- Generated by graphviz version 12.2.1 (20241206.2353)
 -->
<!-- Title: IWDG Exported Functions Pages: 1 -->
<svg width="373pt" height="80pt"
 viewBox="0.00 0.00 373.25 80.12" xmlns="http://www.w3.org/2000/svg" xmlns:xlink="http://www.w3.org/1999/xlink">
<g id="page0,1_graph0" class="graph" transform="scale(1 1) rotate(0) translate(4 76.12)">
<title>IWDG Exported Functions</title>
<!-- Node2 -->
<g id="Node000002" class="node">
<title>Node2</title>
<g id="a_Node000002"><a xlink:href="group__IWDG.html" target="_top" xlink:title=" ">
<polygon fill="white" stroke="#666666" points="43,-42.75 0,-42.75 0,-22 43,-22 43,-42.75"/>
<text text-anchor="middle" x="21.5" y="-29.25" font-family="Helvetica,sans-Serif" font-size="10.00">IWDG</text>
</a>
</g>
</g>
<!-- Node1 -->
<g id="Node000001" class="node">
<title>Node1</title>
<g id="a_Node000001"><a xlink:title=" ">
<polygon fill="#999999" stroke="#666666" points="212,-42.75 79,-42.75 79,-22 212,-22 212,-42.75"/>
<text text-anchor="middle" x="145.5" y="-29.25" font-family="Helvetica,sans-Serif" font-size="10.00">IWDG Exported Functions</text>
</a>
</g>
</g>
<!-- Node2&#45;&gt;Node1 -->
<g id="edge1" class="edge">
<title>Node2&#45;&gt;Node1</title>
<path fill="none" stroke="black" d="M54.81,-32.38C62.24,-32.38 70.4,-32.38 78.68,-32.38"/>
<polygon fill="black" stroke="black" points="54.99,-28.88 44.99,-32.38 54.99,-35.88 54.99,-28.88"/>
</g>
<!-- Node3 -->
<g id="Node000003" class="node">
<title>Node3</title>
<g id="a_Node000003"><a xlink:href="group__IWDG__Exported__Functions__Group1.html" target="_top" xlink:title=" ">
<polygon fill="white" stroke="#666666" points="352.12,-72.12 261.12,-72.12 261.12,-38.62 352.12,-38.62 352.12,-72.12"/>
<text text-anchor="start" x="269.12" y="-58.62" font-family="Helvetica,sans-Serif" font-size="10.00">Initialization and</text>
<text text-anchor="middle" x="306.62" y="-45.88" font-family="Helvetica,sans-Serif" font-size="10.00"> Start functions</text>
</a>
</g>
</g>
<!-- Node1&#45;&gt;Node3 -->
<g id="edge2" class="edge">
<title>Node1&#45;&gt;Node3</title>
<path fill="none" stroke="black" d="M223.41,-43.49C236.29,-45.35 249.27,-47.23 260.98,-48.92"/>
<polygon fill="black" stroke="black" points="224.04,-40.05 213.64,-42.08 223.04,-46.97 224.04,-40.05"/>
</g>
<!-- Node4 -->
<g id="Node000004" class="node">
<title>Node4</title>
<g id="a_Node000004"><a xlink:href="group__IWDG__Exported__Functions__Group2.html" target="_top" xlink:title=" ">
<polygon fill="white" stroke="#666666" points="365.25,-20.75 248,-20.75 248,0 365.25,0 365.25,-20.75"/>
<text text-anchor="middle" x="306.62" y="-7.25" font-family="Helvetica,sans-Serif" font-size="10.00">IO operation functions</text>
</a>
</g>
</g>
<!-- Node1&#45;&gt;Node4 -->
<g id="edge3" class="edge">
<title>Node1&#45;&gt;Node4</title>
<path fill="none" stroke="black" d="M223.5,-21.73C231.58,-20.61 239.7,-19.49 247.51,-18.41"/>
<polygon fill="black" stroke="black" points="223.07,-18.26 213.64,-23.09 224.03,-25.19 223.07,-18.26"/>
</g>
</g>
</svg>
