<?xml version="1.0" encoding="UTF-8" standalone="no"?>
<!DOCTYPE svg PUBLIC "-//W3C//DTD SVG 1.1//EN"
 "http://www.w3.org/Graphics/SVG/1.1/DTD/svg11.dtd">
<!-- Generated by graphviz version 12.2.1 (20241206.2353)
 -->
<!-- Title: DMA Exported Constants Pages: 1 -->
<svg width="420pt" height="599pt"
 viewBox="0.00 0.00 419.75 598.75" xmlns="http://www.w3.org/2000/svg" xmlns:xlink="http://www.w3.org/1999/xlink">
<g id="page0,1_graph0" class="graph" transform="scale(1 1) rotate(0) translate(4 594.75)">
<title>DMA Exported Constants</title>
<!-- Node2 -->
<g id="Node000002" class="node">
<title>Node2</title>
<g id="a_Node000002"><a xlink:href="group__DMA.html" target="_top" xlink:title="DMA HAL module driver.">
<polygon fill="white" stroke="#666666" points="37,-305.75 0,-305.75 0,-285 37,-285 37,-305.75"/>
<text text-anchor="middle" x="18.5" y="-292.25" font-family="Helvetica,sans-Serif" font-size="10.00">DMA</text>
</a>
</g>
</g>
<!-- Node1 -->
<g id="Node000001" class="node">
<title>Node1</title>
<g id="a_Node000001"><a xlink:title="DMA Exported constants.">
<polygon fill="#999999" stroke="#666666" points="202.25,-305.75 73,-305.75 73,-285 202.25,-285 202.25,-305.75"/>
<text text-anchor="middle" x="137.62" y="-292.25" font-family="Helvetica,sans-Serif" font-size="10.00">DMA Exported Constants</text>
</a>
</g>
</g>
<!-- Node2&#45;&gt;Node1 -->
<g id="edge1" class="edge">
<title>Node2&#45;&gt;Node1</title>
<path fill="none" stroke="black" d="M48.73,-295.38C56.06,-295.38 64.22,-295.38 72.52,-295.38"/>
<polygon fill="black" stroke="black" points="48.8,-291.88 38.8,-295.38 48.8,-298.88 48.8,-291.88"/>
</g>
<!-- Node4 -->
<g id="Node000004" class="node">
<title>Node4</title>
<g id="a_Node000004"><a xlink:href="group__DMA__Channel__selection.html" target="_top" xlink:title="DMA channel selection.">
<polygon fill="white" stroke="#666666" points="385.12,-590.75 264.88,-590.75 264.88,-570 385.12,-570 385.12,-590.75"/>
<text text-anchor="middle" x="325" y="-577.25" font-family="Helvetica,sans-Serif" font-size="10.00">DMA Channel selection</text>
</a>
</g>
</g>
<!-- Node5 -->
<g id="Node000005" class="node">
<title>Node5</title>
<g id="a_Node000005"><a xlink:href="group__DMA__Data__transfer__direction.html" target="_top" xlink:title="DMA data transfer direction.">
<polygon fill="white" stroke="#666666" points="395.25,-551.75 254.75,-551.75 254.75,-531 395.25,-531 395.25,-551.75"/>
<text text-anchor="middle" x="325" y="-538.25" font-family="Helvetica,sans-Serif" font-size="10.00">DMA Data transfer direction</text>
</a>
</g>
</g>
<!-- Node3 -->
<g id="Node000003" class="node">
<title>Node3</title>
<g id="a_Node000003"><a xlink:href="group__DMA__Error__Code.html" target="_top" xlink:title="DMA Error Code.">
<polygon fill="white" stroke="#666666" points="369.38,-512.75 280.62,-512.75 280.62,-492 369.38,-492 369.38,-512.75"/>
<text text-anchor="middle" x="325" y="-499.25" font-family="Helvetica,sans-Serif" font-size="10.00">DMA Error Code</text>
</a>
</g>
</g>
<!-- Node1&#45;&gt;Node4 -->
<g id="edge3" class="edge">
<title>Node1&#45;&gt;Node4</title>
<path fill="none" stroke="black" d="M140.13,-317.46C144.84,-368.47 163.83,-495.08 238.25,-560.38 245.72,-566.93 254.92,-571.44 264.5,-574.53"/>
<polygon fill="black" stroke="black" points="143.64,-317.4 139.34,-307.72 136.66,-317.97 143.64,-317.4"/>
</g>
<!-- Node1&#45;&gt;Node5 -->
<g id="edge4" class="edge">
<title>Node1&#45;&gt;Node5</title>
<path fill="none" stroke="black" d="M141.7,-317.28C149.29,-362.71 173.24,-467.46 238.25,-521.38 243.07,-525.38 248.55,-528.61 254.35,-531.22"/>
<polygon fill="black" stroke="black" points="145.2,-316.97 140.21,-307.62 138.28,-318.04 145.2,-316.97"/>
</g>
<!-- Node1&#45;&gt;Node3 -->
<g id="edge2" class="edge">
<title>Node1&#45;&gt;Node3</title>
<path fill="none" stroke="black" d="M143.81,-316.96C154.42,-356.28 182.45,-439.5 238.25,-482.38 250.25,-491.6 265.79,-496.68 280.34,-499.44"/>
<polygon fill="black" stroke="black" points="147.21,-316.12 141.34,-307.3 140.43,-317.86 147.21,-316.12"/>
</g>
<!-- Node12 -->
<g id="Node000012" class="node">
<title>Node12</title>
<g id="a_Node000012"><a xlink:href="group__DMA__FIFO__direct__mode.html" target="_top" xlink:title="DMA FIFO direct mode.">
<polygon fill="white" stroke="#666666" points="384,-473.75 266,-473.75 266,-453 384,-453 384,-473.75"/>
<text text-anchor="middle" x="325" y="-460.25" font-family="Helvetica,sans-Serif" font-size="10.00">DMA FIFO direct mode</text>
</a>
</g>
</g>
<!-- Node1&#45;&gt;Node12 -->
<g id="edge11" class="edge">
<title>Node1&#45;&gt;Node12</title>
<path fill="none" stroke="black" d="M146.74,-316.72C160.38,-349.59 191.12,-412.15 238.25,-444.38 246.43,-449.97 255.99,-453.95 265.69,-456.77"/>
<polygon fill="black" stroke="black" points="150,-315.46 143.05,-307.47 143.5,-318.06 150,-315.46"/>
</g>
<!-- Node13 -->
<g id="Node000013" class="node">
<title>Node13</title>
<g id="a_Node000013"><a xlink:href="group__DMA__FIFO__threshold__level.html" target="_top" xlink:title="DMA FIFO level.">
<polygon fill="white" stroke="#666666" points="379.12,-435.12 270.88,-435.12 270.88,-401.62 379.12,-401.62 379.12,-435.12"/>
<text text-anchor="start" x="278.88" y="-421.62" font-family="Helvetica,sans-Serif" font-size="10.00">DMA FIFO threshold</text>
<text text-anchor="middle" x="325" y="-408.88" font-family="Helvetica,sans-Serif" font-size="10.00"> level</text>
</a>
</g>
</g>
<!-- Node1&#45;&gt;Node13 -->
<g id="edge12" class="edge">
<title>Node1&#45;&gt;Node13</title>
<path fill="none" stroke="black" d="M153.71,-314.87C171.62,-336.74 203.48,-371.85 238.25,-392.38 248.16,-398.23 259.51,-402.87 270.63,-406.51"/>
<polygon fill="black" stroke="black" points="156.63,-312.92 147.65,-307.3 151.17,-317.29 156.63,-312.92"/>
</g>
<!-- Node14 -->
<g id="Node000014" class="node">
<title>Node14</title>
<g id="a_Node000014"><a xlink:href="group__DMA__Memory__burst.html" target="_top" xlink:title="DMA memory burst.">
<polygon fill="white" stroke="#666666" points="375.75,-383.75 274.25,-383.75 274.25,-363 375.75,-363 375.75,-383.75"/>
<text text-anchor="middle" x="325" y="-370.25" font-family="Helvetica,sans-Serif" font-size="10.00">DMA Memory burst</text>
</a>
</g>
</g>
<!-- Node1&#45;&gt;Node14 -->
<g id="edge13" class="edge">
<title>Node1&#45;&gt;Node14</title>
<path fill="none" stroke="black" d="M163.11,-312.42C182.66,-325.33 211.17,-342.61 238.25,-353.38 249.47,-357.83 261.94,-361.45 273.8,-364.31"/>
<polygon fill="black" stroke="black" points="165.27,-309.66 155.02,-306.98 161.36,-315.46 165.27,-309.66"/>
</g>
<!-- Node9 -->
<g id="Node000009" class="node">
<title>Node9</title>
<g id="a_Node000009"><a xlink:href="group__DMA__Memory__data__size.html" target="_top" xlink:title="DMA memory data size.">
<polygon fill="white" stroke="#666666" points="383.62,-344.75 266.38,-344.75 266.38,-324 383.62,-324 383.62,-344.75"/>
<text text-anchor="middle" x="325" y="-331.25" font-family="Helvetica,sans-Serif" font-size="10.00">DMA Memory data size</text>
</a>
</g>
</g>
<!-- Node1&#45;&gt;Node9 -->
<g id="edge8" class="edge">
<title>Node1&#45;&gt;Node9</title>
<path fill="none" stroke="black" d="M201.35,-308.57C224.44,-313.43 250.31,-318.87 272.32,-323.5"/>
<polygon fill="black" stroke="black" points="202.25,-305.18 191.74,-306.55 200.81,-312.03 202.25,-305.18"/>
</g>
<!-- Node7 -->
<g id="Node000007" class="node">
<title>Node7</title>
<g id="a_Node000007"><a xlink:href="group__DMA__Memory__incremented__mode.html" target="_top" xlink:title="DMA memory incremented mode.">
<polygon fill="white" stroke="#666666" points="406.88,-305.75 243.12,-305.75 243.12,-285 406.88,-285 406.88,-305.75"/>
<text text-anchor="middle" x="325" y="-292.25" font-family="Helvetica,sans-Serif" font-size="10.00">DMA Memory incremented mode</text>
</a>
</g>
</g>
<!-- Node1&#45;&gt;Node7 -->
<g id="edge6" class="edge">
<title>Node1&#45;&gt;Node7</title>
<path fill="none" stroke="black" d="M214.11,-295.38C223.61,-295.38 233.36,-295.38 242.94,-295.38"/>
<polygon fill="black" stroke="black" points="214.19,-291.88 204.19,-295.38 214.19,-298.88 214.19,-291.88"/>
</g>
<!-- Node15 -->
<g id="Node000015" class="node">
<title>Node15</title>
<g id="a_Node000015"><a xlink:href="group__DMA__Peripheral__burst.html" target="_top" xlink:title="DMA peripheral burst.">
<polygon fill="white" stroke="#666666" points="380.62,-266.75 269.38,-266.75 269.38,-246 380.62,-246 380.62,-266.75"/>
<text text-anchor="middle" x="325" y="-253.25" font-family="Helvetica,sans-Serif" font-size="10.00">DMA Peripheral burst</text>
</a>
</g>
</g>
<!-- Node1&#45;&gt;Node15 -->
<g id="edge14" class="edge">
<title>Node1&#45;&gt;Node15</title>
<path fill="none" stroke="black" d="M201.35,-282.18C224.44,-277.32 250.31,-271.88 272.32,-267.25"/>
<polygon fill="black" stroke="black" points="200.81,-278.72 191.74,-284.2 202.25,-285.57 200.81,-278.72"/>
</g>
<!-- Node8 -->
<g id="Node000008" class="node">
<title>Node8</title>
<g id="a_Node000008"><a xlink:href="group__DMA__Peripheral__data__size.html" target="_top" xlink:title="DMA peripheral data size.">
<polygon fill="white" stroke="#666666" points="388.5,-227.75 261.5,-227.75 261.5,-207 388.5,-207 388.5,-227.75"/>
<text text-anchor="middle" x="325" y="-214.25" font-family="Helvetica,sans-Serif" font-size="10.00">DMA Peripheral data size</text>
</a>
</g>
</g>
<!-- Node1&#45;&gt;Node8 -->
<g id="edge7" class="edge">
<title>Node1&#45;&gt;Node8</title>
<path fill="none" stroke="black" d="M163.11,-278.33C182.66,-265.42 211.17,-248.14 238.25,-237.38 247.34,-233.76 257.25,-230.71 266.99,-228.15"/>
<polygon fill="black" stroke="black" points="161.36,-275.29 155.02,-283.77 165.27,-281.09 161.36,-275.29"/>
</g>
<!-- Node6 -->
<g id="Node000006" class="node">
<title>Node6</title>
<g id="a_Node000006"><a xlink:href="group__DMA__Peripheral__incremented__mode.html" target="_top" xlink:title="DMA peripheral incremented mode.">
<polygon fill="white" stroke="#666666" points="411.75,-188.75 238.25,-188.75 238.25,-168 411.75,-168 411.75,-188.75"/>
<text text-anchor="middle" x="325" y="-175.25" font-family="Helvetica,sans-Serif" font-size="10.00">DMA Peripheral incremented mode</text>
</a>
</g>
</g>
<!-- Node1&#45;&gt;Node6 -->
<g id="edge5" class="edge">
<title>Node1&#45;&gt;Node6</title>
<path fill="none" stroke="black" d="M153.2,-275.82C170.84,-253.58 202.65,-217.85 238.25,-198.38 245.09,-194.63 252.61,-191.59 260.26,-189.11"/>
<polygon fill="black" stroke="black" points="150.6,-273.45 147.26,-283.51 156.14,-277.73 150.6,-273.45"/>
</g>
<!-- Node11 -->
<g id="Node000011" class="node">
<title>Node11</title>
<g id="a_Node000011"><a xlink:href="group__DMA__Priority__level.html" target="_top" xlink:title="DMA priority levels.">
<polygon fill="white" stroke="#666666" points="372.38,-149.75 277.62,-149.75 277.62,-129 372.38,-129 372.38,-149.75"/>
<text text-anchor="middle" x="325" y="-136.25" font-family="Helvetica,sans-Serif" font-size="10.00">DMA Priority level</text>
</a>
</g>
</g>
<!-- Node1&#45;&gt;Node11 -->
<g id="edge10" class="edge">
<title>Node1&#45;&gt;Node11</title>
<path fill="none" stroke="black" d="M148.13,-274.21C162.9,-243.86 194.29,-188.42 238.25,-159.38 249.86,-151.71 264.05,-146.96 277.52,-144.03"/>
<polygon fill="black" stroke="black" points="145.02,-272.6 143.94,-283.14 151.36,-275.58 145.02,-272.6"/>
</g>
<!-- Node17 -->
<g id="Node000017" class="node">
<title>Node17</title>
<g id="a_Node000017"><a xlink:href="group__DMA__flag__definitions.html" target="_top" xlink:title="DMA flag definitions.">
<polygon fill="white" stroke="#666666" points="378.38,-110.75 271.62,-110.75 271.62,-90 378.38,-90 378.38,-110.75"/>
<text text-anchor="middle" x="325" y="-97.25" font-family="Helvetica,sans-Serif" font-size="10.00">DMA flag definitions</text>
</a>
</g>
</g>
<!-- Node1&#45;&gt;Node17 -->
<g id="edge16" class="edge">
<title>Node1&#45;&gt;Node17</title>
<path fill="none" stroke="black" d="M144.55,-274.1C156.08,-236.85 185.16,-160 238.25,-120.38 247.81,-113.24 259.5,-108.6 271.14,-105.59"/>
<polygon fill="black" stroke="black" points="141.33,-272.67 141.85,-283.26 148.04,-274.66 141.33,-272.67"/>
</g>
<!-- Node16 -->
<g id="Node000016" class="node">
<title>Node16</title>
<g id="a_Node000016"><a xlink:href="group__DMA__interrupt__enable__definitions.html" target="_top" xlink:title="DMA interrupts definition.">
<polygon fill="white" stroke="#666666" points="381,-72.12 269,-72.12 269,-38.62 381,-38.62 381,-72.12"/>
<text text-anchor="start" x="277" y="-58.62" font-family="Helvetica,sans-Serif" font-size="10.00">DMA interrupt enable</text>
<text text-anchor="middle" x="325" y="-45.88" font-family="Helvetica,sans-Serif" font-size="10.00"> definitions</text>
</a>
</g>
</g>
<!-- Node1&#45;&gt;Node16 -->
<g id="edge15" class="edge">
<title>Node1&#45;&gt;Node16</title>
<path fill="none" stroke="black" d="M142.65,-273.49C151.74,-230.28 177.96,-133.69 238.25,-81.38 246.94,-73.83 257.78,-68.47 268.79,-64.67"/>
<polygon fill="black" stroke="black" points="139.25,-272.65 140.74,-283.14 146.11,-274.01 139.25,-272.65"/>
</g>
<!-- Node10 -->
<g id="Node000010" class="node">
<title>Node10</title>
<g id="a_Node000010"><a xlink:href="group__DMA__mode.html" target="_top" xlink:title="DMA mode.">
<polygon fill="white" stroke="#666666" points="357.75,-20.75 292.25,-20.75 292.25,0 357.75,0 357.75,-20.75"/>
<text text-anchor="middle" x="325" y="-7.25" font-family="Helvetica,sans-Serif" font-size="10.00">DMA mode</text>
</a>
</g>
</g>
<!-- Node1&#45;&gt;Node10 -->
<g id="edge9" class="edge">
<title>Node1&#45;&gt;Node10</title>
<path fill="none" stroke="black" d="M140.02,-273.5C144.52,-222.41 163.09,-94.67 238.25,-29.38 252.87,-16.68 274.09,-11.9 291.76,-10.31"/>
<polygon fill="black" stroke="black" points="136.55,-273 139.27,-283.24 143.53,-273.54 136.55,-273"/>
</g>
</g>
</svg>
