<?xml version="1.0" encoding="UTF-8" standalone="no"?>
<!DOCTYPE svg PUBLIC "-//W3C//DTD SVG 1.1//EN"
 "http://www.w3.org/Graphics/SVG/1.1/DTD/svg11.dtd">
<!-- Generated by graphviz version 2.43.0 (0)
 -->
<!-- Title: CRC Pages: 1 -->
<svg width="386pt" height="175pt"
 viewBox="0.00 0.00 386.00 175.00" xmlns="http://www.w3.org/2000/svg" xmlns:xlink="http://www.w3.org/1999/xlink">
<g id="graph0" class="graph" transform="scale(1 1) rotate(0) translate(4 171)">
<title>CRC</title>
<!-- Node1 -->
<g id="Node000001" class="node">
<title>Node1</title>
<g id="a_Node000001"><a xlink:title="CRC HAL module driver.">
<polygon fill="#999999" stroke="#666666" points="207,-93 170,-93 170,-74 207,-74 207,-93"/>
<text text-anchor="middle" x="188.5" y="-81" font-family="Helvetica,sans-Serif" font-size="10.00">CRC</text>
</a>
</g>
</g>
<!-- Node4 -->
<g id="Node000004" class="node">
<title>Node4</title>
<g id="a_Node000004"><a xlink:href="group__CRC__Exported__Constants.html" target="_top" xlink:title=" ">
<polygon fill="white" stroke="#666666" points="378,-167 243,-167 243,-148 378,-148 378,-167"/>
<text text-anchor="middle" x="310.5" y="-155" font-family="Helvetica,sans-Serif" font-size="10.00">CRC Exported Constants</text>
</a>
</g>
</g>
<!-- Node1&#45;&gt;Node4 -->
<g id="edge3" class="edge">
<title>Node1&#45;&gt;Node4</title>
<path fill="none" stroke="black" d="M202.53,-101.65C212.33,-114.03 226.82,-129.88 243,-139.5 248.76,-142.92 255.18,-145.71 261.7,-147.97"/>
<polygon fill="black" stroke="black" points="205.09,-99.23 196.26,-93.38 199.51,-103.46 205.09,-99.23"/>
</g>
<!-- Node7 -->
<g id="Node000007" class="node">
<title>Node7</title>
<g id="a_Node000007"><a xlink:href="group__CRC__Exported__Functions.html" target="_top" xlink:title=" ">
<polygon fill="white" stroke="#666666" points="377,-130 244,-130 244,-111 377,-111 377,-130"/>
<text text-anchor="middle" x="310.5" y="-118" font-family="Helvetica,sans-Serif" font-size="10.00">CRC Exported Functions</text>
</a>
</g>
</g>
<!-- Node1&#45;&gt;Node7 -->
<g id="edge6" class="edge">
<title>Node1&#45;&gt;Node7</title>
<path fill="none" stroke="black" d="M216.86,-93.67C225.2,-96.65 234.44,-99.83 243,-102.5 252.36,-105.42 262.55,-108.32 272.07,-110.91"/>
<polygon fill="black" stroke="black" points="217.81,-90.3 207.22,-90.18 215.43,-96.88 217.81,-90.3"/>
</g>
<!-- Node5 -->
<g id="Node000005" class="node">
<title>Node5</title>
<g id="a_Node000005"><a xlink:href="group__CRC__Exported__Macros.html" target="_top" xlink:title=" ">
<polygon fill="white" stroke="#666666" points="371.5,-93 249.5,-93 249.5,-74 371.5,-74 371.5,-93"/>
<text text-anchor="middle" x="310.5" y="-81" font-family="Helvetica,sans-Serif" font-size="10.00">CRC Exported Macros</text>
</a>
</g>
</g>
<!-- Node1&#45;&gt;Node5 -->
<g id="edge4" class="edge">
<title>Node1&#45;&gt;Node5</title>
<path fill="none" stroke="black" d="M217.35,-83.5C227,-83.5 238.22,-83.5 249.45,-83.5"/>
<polygon fill="black" stroke="black" points="217.21,-80 207.21,-83.5 217.21,-87 217.21,-80"/>
</g>
<!-- Node3 -->
<g id="Node000003" class="node">
<title>Node3</title>
<g id="a_Node000003"><a xlink:href="group__CRC__Exported__Types.html" target="_top" xlink:title=" ">
<polygon fill="white" stroke="#666666" points="367.5,-56 253.5,-56 253.5,-37 367.5,-37 367.5,-56"/>
<text text-anchor="middle" x="310.5" y="-44" font-family="Helvetica,sans-Serif" font-size="10.00">CRC Exported Types</text>
</a>
</g>
</g>
<!-- Node1&#45;&gt;Node3 -->
<g id="edge2" class="edge">
<title>Node1&#45;&gt;Node3</title>
<path fill="none" stroke="black" d="M216.86,-73.33C225.2,-70.35 234.44,-67.17 243,-64.5 252.36,-61.58 262.55,-58.68 272.07,-56.09"/>
<polygon fill="black" stroke="black" points="215.43,-70.12 207.22,-76.82 217.81,-76.7 215.43,-70.12"/>
</g>
<!-- Node6 -->
<g id="Node000006" class="node">
<title>Node6</title>
<g id="a_Node000006"><a xlink:href="group__CRC__Private__Macros.html" target="_top" xlink:title=" ">
<polygon fill="white" stroke="#666666" points="367,-19 254,-19 254,0 367,0 367,-19"/>
<text text-anchor="middle" x="310.5" y="-7" font-family="Helvetica,sans-Serif" font-size="10.00">CRC Private Macros</text>
</a>
</g>
</g>
<!-- Node1&#45;&gt;Node6 -->
<g id="edge5" class="edge">
<title>Node1&#45;&gt;Node6</title>
<path fill="none" stroke="black" d="M202.53,-65.35C212.33,-52.97 226.82,-37.12 243,-27.5 248.76,-24.08 255.18,-21.29 261.7,-19.03"/>
<polygon fill="black" stroke="black" points="199.51,-63.54 196.26,-73.62 205.09,-67.77 199.51,-63.54"/>
</g>
<!-- Node2 -->
<g id="Node000002" class="node">
<title>Node2</title>
<g id="a_Node000002"><a xlink:href="group__STM32F4xx__HAL__Driver.html" target="_top" xlink:title=" ">
<polygon fill="white" stroke="#666666" points="134,-93 0,-93 0,-74 134,-74 134,-93"/>
<text text-anchor="middle" x="67" y="-81" font-family="Helvetica,sans-Serif" font-size="10.00">STM32F4xx_HAL_Driver</text>
</a>
</g>
</g>
<!-- Node2&#45;&gt;Node1 -->
<g id="edge1" class="edge">
<title>Node2&#45;&gt;Node1</title>
<path fill="none" stroke="black" d="M144.1,-83.5C153.59,-83.5 162.48,-83.5 169.72,-83.5"/>
<polygon fill="black" stroke="black" points="144.04,-80 134.04,-83.5 144.04,-87 144.04,-80"/>
</g>
</g>
</svg>
