<?xml version="1.0" encoding="UTF-8" standalone="no"?>
<!DOCTYPE svg PUBLIC "-//W3C//DTD SVG 1.1//EN"
 "http://www.w3.org/Graphics/SVG/1.1/DTD/svg11.dtd">
<!-- Generated by graphviz version 12.2.1 (20241206.2353)
 -->
<!-- Title: EXTI Exported Constants Pages: 1 -->
<svg width="323pt" height="146pt"
 viewBox="0.00 0.00 323.00 145.75" xmlns="http://www.w3.org/2000/svg" xmlns:xlink="http://www.w3.org/1999/xlink">
<g id="page0,1_graph0" class="graph" transform="scale(1 1) rotate(0) translate(4 141.75)">
<title>EXTI Exported Constants</title>
<!-- Node2 -->
<g id="Node000002" class="node">
<title>Node2</title>
<g id="a_Node000002"><a xlink:href="group__EXTI.html" target="_top" xlink:title="EXTI HAL module driver.">
<polygon fill="white" stroke="#666666" points="37,-78.75 0,-78.75 0,-58 37,-58 37,-78.75"/>
<text text-anchor="middle" x="18.5" y="-65.25" font-family="Helvetica,sans-Serif" font-size="10.00">EXTI</text>
</a>
</g>
</g>
<!-- Node1 -->
<g id="Node000001" class="node">
<title>Node1</title>
<g id="a_Node000001"><a xlink:title=" ">
<polygon fill="#999999" stroke="#666666" points="202.25,-78.75 73,-78.75 73,-58 202.25,-58 202.25,-78.75"/>
<text text-anchor="middle" x="137.62" y="-65.25" font-family="Helvetica,sans-Serif" font-size="10.00">EXTI Exported Constants</text>
</a>
</g>
</g>
<!-- Node2&#45;&gt;Node1 -->
<g id="edge1" class="edge">
<title>Node2&#45;&gt;Node1</title>
<path fill="none" stroke="black" d="M48.73,-68.38C56.06,-68.38 64.22,-68.38 72.52,-68.38"/>
<polygon fill="black" stroke="black" points="48.8,-64.88 38.8,-68.38 48.8,-71.88 48.8,-64.88"/>
</g>
<!-- Node6 -->
<g id="Node000006" class="node">
<title>Node6</title>
<g id="a_Node000006"><a xlink:href="group__EXTI__GPIOSel.html" target="_top" xlink:title=" ">
<polygon fill="white" stroke="#666666" points="315,-137.75 238.25,-137.75 238.25,-117 315,-117 315,-137.75"/>
<text text-anchor="middle" x="276.62" y="-124.25" font-family="Helvetica,sans-Serif" font-size="10.00">EXTI GPIOSel</text>
</a>
</g>
</g>
<!-- Node1&#45;&gt;Node6 -->
<g id="edge5" class="edge">
<title>Node1&#45;&gt;Node6</title>
<path fill="none" stroke="black" d="M174.22,-83.7C198.21,-94.04 229.27,-107.41 250.66,-116.62"/>
<polygon fill="black" stroke="black" points="175.71,-80.54 165.14,-79.8 172.94,-86.97 175.71,-80.54"/>
</g>
<!-- Node3 -->
<g id="Node000003" class="node">
<title>Node3</title>
<g id="a_Node000003"><a xlink:href="group__EXTI__Line.html" target="_top" xlink:title=" ">
<polygon fill="white" stroke="#666666" points="305.62,-98.75 247.62,-98.75 247.62,-78 305.62,-78 305.62,-98.75"/>
<text text-anchor="middle" x="276.62" y="-85.25" font-family="Helvetica,sans-Serif" font-size="10.00">EXTI Line</text>
</a>
</g>
</g>
<!-- Node1&#45;&gt;Node3 -->
<g id="edge2" class="edge">
<title>Node1&#45;&gt;Node3</title>
<path fill="none" stroke="black" d="M214.05,-79.39C225.84,-81.11 237.36,-82.79 247.18,-84.22"/>
<polygon fill="black" stroke="black" points="214.61,-75.93 204.21,-77.95 213.6,-82.86 214.61,-75.93"/>
</g>
<!-- Node4 -->
<g id="Node000004" class="node">
<title>Node4</title>
<g id="a_Node000004"><a xlink:href="group__EXTI__Mode.html" target="_top" xlink:title=" ">
<polygon fill="white" stroke="#666666" points="309,-59.75 244.25,-59.75 244.25,-39 309,-39 309,-59.75"/>
<text text-anchor="middle" x="276.62" y="-46.25" font-family="Helvetica,sans-Serif" font-size="10.00">EXTI Mode</text>
</a>
</g>
</g>
<!-- Node1&#45;&gt;Node4 -->
<g id="edge3" class="edge">
<title>Node1&#45;&gt;Node4</title>
<path fill="none" stroke="black" d="M213.82,-57.95C224.44,-56.47 234.84,-55.03 244,-53.76"/>
<polygon fill="black" stroke="black" points="213.64,-54.44 204.21,-59.28 214.6,-61.37 213.64,-54.44"/>
</g>
<!-- Node5 -->
<g id="Node000005" class="node">
<title>Node5</title>
<g id="a_Node000005"><a xlink:href="group__EXTI__Trigger.html" target="_top" xlink:title=" ">
<polygon fill="white" stroke="#666666" points="312.75,-20.75 240.5,-20.75 240.5,0 312.75,0 312.75,-20.75"/>
<text text-anchor="middle" x="276.62" y="-7.25" font-family="Helvetica,sans-Serif" font-size="10.00">EXTI Trigger</text>
</a>
</g>
</g>
<!-- Node1&#45;&gt;Node5 -->
<g id="edge4" class="edge">
<title>Node1&#45;&gt;Node5</title>
<path fill="none" stroke="black" d="M174.48,-53.2C198.31,-43.11 229.01,-30.11 250.31,-21.09"/>
<polygon fill="black" stroke="black" points="173.31,-49.89 165.47,-57.01 176.04,-56.34 173.31,-49.89"/>
</g>
</g>
</svg>
