<?xml version="1.0" encoding="UTF-8" standalone="no"?>
<!DOCTYPE svg PUBLIC "-//W3C//DTD SVG 1.1//EN"
 "http://www.w3.org/Graphics/SVG/1.1/DTD/svg11.dtd">
<!-- Generated by graphviz version 12.2.1 (20241206.2353)
 -->
<!-- Title: RTCEx Exported Constants Pages: 1 -->
<!--zoomable 884 -->

<svg id="main" version="1.1" xmlns="http://www.w3.org/2000/svg" xmlns:xlink="http://www.w3.org/1999/xlink" xml:space="preserve" onload="init(evt)">

<style type="text/css"><![CDATA[
.node, .edge {opacity: 0.7;}
.node.selected, .edge.selected {opacity: 1;}
.edge:hover path { stroke: red; }
.edge:hover polygon { stroke: red; fill: red; }
]]></style>

<defs>
  <circle id="rim" cx="0" cy="0" r="7"/>
  <circle id="rim2" cx="0" cy="0" r="3.5"/>
  <g id="zoomPlus">
    <use xlink:href="#rim" fill="#404040"><set attributeName="fill" to="#808080" begin="zoomplus.mouseover" end="zoomplus.mouseout"/></use>
    <path d="M-4,0h8M0,-4v8" fill="none" stroke="white" stroke-width="1.5" pointer-events="none"/>
  </g>
  <g id="zoomMin">
    <use xlink:href="#rim" fill="#404040"><set attributeName="fill" to="#808080" begin="zoomminus.mouseover" end="zoomminus.mouseout"/></use>
    <path d="M-4,0h8" fill="none" stroke="white" stroke-width="1.5" pointer-events="none"/>
  </g>
  <g id="arrowUp" transform="translate(30 24)">
    <use xlink:href="#rim"/>
    <path pointer-events="none" fill="none" stroke="white" stroke-width="1.5" d="M0,-3.0v7 M-2.5,-0.5L0,-3.0L2.5,-0.5"/>
  </g>
  <g id="arrowRight" transform="rotate(90) translate(36 -43)">
    <use xlink:href="#rim"/>
    <path pointer-events="none" fill="none" stroke="white" stroke-width="1.5" d="M0,-3.0v7 M-2.5,-0.5L0,-3.0L2.5,-0.5"/>
  </g>
  <g id="arrowDown" transform="rotate(180) translate(-30 -48)">
    <use xlink:href="#rim"/>
    <path pointer-events="none" fill="none" stroke="white" stroke-width="1.5" d="M0,-3.0v7 M-2.5,-0.5L0,-3.0L2.5,-0.5"/>
  </g>
  <g id="arrowLeft" transform="rotate(270) translate(-36 17)">
    <use xlink:href="#rim"/>
    <path pointer-events="none" fill="none" stroke="white" stroke-width="1.5" d="M0,-3.0v7 M-2.5,-0.5L0,-3.0L2.5,-0.5"/>
  </g>
  <g id="resetDef">
    <use xlink:href="#rim2" fill="#404040"><set attributeName="fill" to="#808080" begin="reset.mouseover" end="reset.mouseout"/></use>
  </g>
</defs>
<script type="application/ecmascript">
var viewWidth = 429;
var viewHeight = 884;
var sectionId = 'dynsection-0';
</script>
<script type="application/ecmascript" xlink:href="svg.min.js"/>
<svg id="graph" class="graph">
<g id="viewport">
<title>RTCEx Exported Constants</title>
<!-- Node2 -->
<g id="Node000002" class="node">
<title>Node2</title>
<g id="a_Node000002"><a xlink:href="group__RTCEx.html" target="_top" xlink:title="RTC Extended HAL module driver.">
<polygon fill="white" stroke="#666666" points="45.25,-437.12 0,-437.12 0,-416.38 45.25,-416.38 45.25,-437.12"/>
<text text-anchor="middle" x="22.62" y="-423.62" font-family="Helvetica,sans-Serif" font-size="10.00">RTCEx</text>
</a>
</g>
</g>
<!-- Node1 -->
<g id="Node000001" class="node">
<title>Node1</title>
<g id="a_Node000001"><a xlink:title=" ">
<polygon fill="#999999" stroke="#666666" points="218.75,-437.12 81.25,-437.12 81.25,-416.38 218.75,-416.38 218.75,-437.12"/>
<text text-anchor="middle" x="150" y="-423.62" font-family="Helvetica,sans-Serif" font-size="10.00">RTCEx Exported Constants</text>
</a>
</g>
</g>
<!-- Node2&#45;&gt;Node1 -->
<g id="edge1" class="edge">
<title>Node2&#45;&gt;Node1</title>
<path fill="none" stroke="black" d="M56.87,-426.75C64.33,-426.75 72.51,-426.75 80.81,-426.75"/>
<polygon fill="black" stroke="black" points="56.98,-423.25 46.98,-426.75 56.98,-430.25 56.98,-423.25"/>
</g>
<!-- Node19 -->
<g id="Node000019" class="node">
<title>Node19</title>
<g id="a_Node000019"><a xlink:href="group__RTCEx__Add__1__Second__Parameter__Definitions.html" target="_top" xlink:title=" ">
<polygon fill="white" stroke="#666666" points="396,-875.5 279.5,-875.5 279.5,-842 396,-842 396,-875.5"/>
<text text-anchor="start" x="287.5" y="-862" font-family="Helvetica,sans-Serif" font-size="10.00">RTCEx Add 1 Second</text>
<text text-anchor="middle" x="337.75" y="-849.25" font-family="Helvetica,sans-Serif" font-size="10.00"> Parameter Definitions</text>
</a>
</g>
</g>
<!-- Node3 -->
<g id="Node000003" class="node">
<title>Node3</title>
<g id="a_Node000003"><a xlink:href="group__RTCEx__Backup__Registers__Definitions.html" target="_top" xlink:title=" ">
<polygon fill="white" stroke="#666666" points="399.38,-823.5 276.12,-823.5 276.12,-790 399.38,-790 399.38,-823.5"/>
<text text-anchor="start" x="284.12" y="-810" font-family="Helvetica,sans-Serif" font-size="10.00">RTCEx Backup Registers</text>
<text text-anchor="middle" x="337.75" y="-797.25" font-family="Helvetica,sans-Serif" font-size="10.00"> Definitions</text>
</a>
</g>
</g>
<!-- Node20 -->
<g id="Node000020" class="node">
<title>Node20</title>
<g id="a_Node000020"><a xlink:href="group__RTCEx__Calib__Output__selection__Definitions.html" target="_top" xlink:title=" ">
<polygon fill="white" stroke="#666666" points="393,-771.5 282.5,-771.5 282.5,-738 393,-738 393,-771.5"/>
<text text-anchor="start" x="290.5" y="-758" font-family="Helvetica,sans-Serif" font-size="10.00">RTCEx Calib Output</text>
<text text-anchor="middle" x="337.75" y="-745.25" font-family="Helvetica,sans-Serif" font-size="10.00"> Selection Definitions</text>
</a>
</g>
</g>
<!-- Node16 -->
<g id="Node000016" class="node">
<title>Node16</title>
<g id="a_Node000016"><a xlink:href="group__RTCEx__Coarse__Calibration__Definitions.html" target="_top" xlink:title=" ">
<polygon fill="white" stroke="#666666" points="390,-719.5 285.5,-719.5 285.5,-686 390,-686 390,-719.5"/>
<text text-anchor="start" x="293.5" y="-706" font-family="Helvetica,sans-Serif" font-size="10.00">RTCEx Coarse Calib</text>
<text text-anchor="middle" x="337.75" y="-693.25" font-family="Helvetica,sans-Serif" font-size="10.00"> Definitions</text>
</a>
</g>
</g>
<!-- Node1&#45;&gt;Node19 -->
<g id="edge18" class="edge">
<title>Node1&#45;&gt;Node19</title>
<path fill="none" stroke="black" d="M153.79,-448.7C163.87,-524.76 200.67,-775.51 254.75,-832.75 261.42,-839.81 269.98,-844.96 279.06,-848.71"/>
<polygon fill="black" stroke="black" points="157.26,-448.29 152.5,-438.83 150.32,-449.19 157.26,-448.29"/>
</g>
<!-- Node1&#45;&gt;Node3 -->
<g id="edge2" class="edge">
<title>Node1&#45;&gt;Node3</title>
<path fill="none" stroke="black" d="M150.74,-448.79C151.26,-510.24 161.3,-685.23 254.75,-780.75 260.7,-786.84 268.07,-791.5 275.93,-795.07"/>
<polygon fill="black" stroke="black" points="154.24,-448.99 150.75,-438.98 147.24,-448.98 154.24,-448.99"/>
</g>
<!-- Node1&#45;&gt;Node20 -->
<g id="edge19" class="edge">
<title>Node1&#45;&gt;Node20</title>
<path fill="none" stroke="black" d="M152.05,-448.8C155.89,-504.03 173.59,-649.51 254.75,-728.75 262.34,-736.16 272.02,-741.46 282.06,-745.25"/>
<polygon fill="black" stroke="black" points="155.55,-448.63 151.46,-438.85 148.56,-449.04 155.55,-448.63"/>
</g>
<!-- Node1&#45;&gt;Node16 -->
<g id="edge15" class="edge">
<title>Node1&#45;&gt;Node16</title>
<path fill="none" stroke="black" d="M153.87,-448.87C161.32,-497.3 185.77,-613.48 254.75,-676.75 263.33,-684.62 274.3,-690.11 285.4,-693.94"/>
<polygon fill="black" stroke="black" points="157.35,-448.49 152.47,-439.09 150.42,-449.48 157.35,-448.49"/>
</g>
<!-- Node18 -->
<g id="Node000018" class="node">
<title>Node18</title>
<g id="a_Node000018"><a xlink:href="group__RTCEx__Smooth__calib__Plus__pulses__Definitions.html" target="_top" xlink:title=" ">
<polygon fill="white" stroke="#666666" points="397.12,-667.5 278.38,-667.5 278.38,-634 397.12,-634 397.12,-667.5"/>
<text text-anchor="start" x="286.38" y="-654" font-family="Helvetica,sans-Serif" font-size="10.00">RTCEx Smooth Calib</text>
<text text-anchor="middle" x="337.75" y="-641.25" font-family="Helvetica,sans-Serif" font-size="10.00"> Plus Pulses Definitions</text>
</a>
</g>
</g>
<!-- Node1&#45;&gt;Node18 -->
<g id="edge17" class="edge">
<title>Node1&#45;&gt;Node18</title>
<path fill="none" stroke="black" d="M156.48,-448.63C167.8,-489.33 197.61,-576.85 254.75,-624.75 261.62,-630.51 269.77,-634.99 278.23,-638.49"/>
<polygon fill="black" stroke="black" points="159.89,-447.83 153.94,-439.07 153.12,-449.63 159.89,-447.83"/>
</g>
<!-- Node17 -->
<g id="Node000017" class="node">
<title>Node17</title>
<g id="a_Node000017"><a xlink:href="group__RTCEx__Smooth__calib__period__Definitions.html" target="_top" xlink:title=" ">
<polygon fill="white" stroke="#666666" points="392.25,-615.5 283.25,-615.5 283.25,-582 392.25,-582 392.25,-615.5"/>
<text text-anchor="start" x="291.25" y="-602" font-family="Helvetica,sans-Serif" font-size="10.00">RTCEx Smooth Calib</text>
<text text-anchor="middle" x="337.75" y="-589.25" font-family="Helvetica,sans-Serif" font-size="10.00"> Period Definitions</text>
</a>
</g>
</g>
<!-- Node1&#45;&gt;Node17 -->
<g id="edge16" class="edge">
<title>Node1&#45;&gt;Node17</title>
<path fill="none" stroke="black" d="M160.39,-447.64C175.66,-479.3 208.88,-539.3 254.75,-572.75 263.2,-578.91 273.16,-583.64 283.17,-587.27"/>
<polygon fill="black" stroke="black" points="163.63,-446.3 156.22,-438.72 157.29,-449.27 163.63,-446.3"/>
</g>
<!-- Node10 -->
<g id="Node000010" class="node">
<title>Node10</title>
<g id="a_Node000010"><a xlink:href="group__RTCEx__Tamper__Filter__Definitions.html" target="_top" xlink:title=" ">
<polygon fill="white" stroke="#666666" points="392.25,-563.5 283.25,-563.5 283.25,-530 392.25,-530 392.25,-563.5"/>
<text text-anchor="start" x="291.25" y="-550" font-family="Helvetica,sans-Serif" font-size="10.00">RTCEx Tamper Filter</text>
<text text-anchor="middle" x="337.75" y="-537.25" font-family="Helvetica,sans-Serif" font-size="10.00"> Definitions</text>
</a>
</g>
</g>
<!-- Node1&#45;&gt;Node10 -->
<g id="edge9" class="edge">
<title>Node1&#45;&gt;Node10</title>
<path fill="none" stroke="black" d="M167.35,-445.84C186.38,-466.94 219.69,-500.6 254.75,-520.75 263.43,-525.74 273.18,-529.89 282.85,-533.31"/>
<polygon fill="black" stroke="black" points="170.13,-443.69 160.89,-438.51 164.88,-448.33 170.13,-443.69"/>
</g>
<!-- Node8 -->
<g id="Node000008" class="node">
<title>Node8</title>
<g id="a_Node000008"><a xlink:href="group__RTCEx__Tamper__Interrupt__Definitions.html" target="_top" xlink:title=" ">
<polygon fill="white" stroke="#666666" points="400.5,-511.5 275,-511.5 275,-478 400.5,-478 400.5,-511.5"/>
<text text-anchor="start" x="283" y="-498" font-family="Helvetica,sans-Serif" font-size="10.00">RTCEx Tamper Interrupt</text>
<text text-anchor="middle" x="337.75" y="-485.25" font-family="Helvetica,sans-Serif" font-size="10.00"> Definitions</text>
</a>
</g>
</g>
<!-- Node1&#45;&gt;Node8 -->
<g id="edge7" class="edge">
<title>Node1&#45;&gt;Node8</title>
<path fill="none" stroke="black" d="M186.4,-441.88C206.34,-450.19 231.77,-460.47 254.75,-468.75 263.04,-471.74 271.86,-474.73 280.54,-477.56"/>
<polygon fill="black" stroke="black" points="187.92,-438.72 177.34,-438.07 185.21,-445.17 187.92,-438.72"/>
</g>
<!-- Node6 -->
<g id="Node000006" class="node">
<title>Node6</title>
<g id="a_Node000006"><a xlink:href="group__RTCEx__Tamper__Pin__Definitions.html" target="_top" xlink:title=" ">
<polygon fill="white" stroke="#666666" points="415.12,-460.12 260.38,-460.12 260.38,-439.38 415.12,-439.38 415.12,-460.12"/>
<text text-anchor="middle" x="337.75" y="-446.62" font-family="Helvetica,sans-Serif" font-size="10.00">RTCEx Tamper Pins Definitions</text>
</a>
</g>
</g>
<!-- Node1&#45;&gt;Node6 -->
<g id="edge5" class="edge">
<title>Node1&#45;&gt;Node6</title>
<path fill="none" stroke="black" d="M230.53,-436.6C240.36,-437.81 250.39,-439.06 260.17,-440.27"/>
<polygon fill="black" stroke="black" points="230.97,-433.13 220.61,-435.37 230.11,-440.07 230.97,-433.13"/>
</g>
<!-- Node12 -->
<g id="Node000012" class="node">
<title>Node12</title>
<g id="a_Node000012"><a xlink:href="group__RTCEx__Tamper__Pin__Precharge__Duration__Definitions.html" target="_top" xlink:title=" ">
<polygon fill="white" stroke="#666666" points="411.38,-421.5 264.12,-421.5 264.12,-388 411.38,-388 411.38,-421.5"/>
<text text-anchor="start" x="272.12" y="-408" font-family="Helvetica,sans-Serif" font-size="10.00">RTCEx Tamper Pin Precharge</text>
<text text-anchor="middle" x="337.75" y="-395.25" font-family="Helvetica,sans-Serif" font-size="10.00"> Duration Definitions</text>
</a>
</g>
</g>
<!-- Node1&#45;&gt;Node12 -->
<g id="edge11" class="edge">
<title>Node1&#45;&gt;Node12</title>
<path fill="none" stroke="black" d="M230.47,-417.34C241.48,-416.03 252.75,-414.7 263.64,-413.41"/>
<polygon fill="black" stroke="black" points="230.13,-413.85 220.61,-418.5 230.96,-420.8 230.13,-413.85"/>
</g>
<!-- Node7 -->
<g id="Node000007" class="node">
<title>Node7</title>
<g id="a_Node000007"><a xlink:href="group__RTCEx__Tamper__Pin__Selection.html" target="_top" xlink:title=" ">
<polygon fill="white" stroke="#666666" points="405,-370.12 270.5,-370.12 270.5,-349.38 405,-349.38 405,-370.12"/>
<text text-anchor="middle" x="337.75" y="-356.62" font-family="Helvetica,sans-Serif" font-size="10.00">RTC tamper Pins Selection</text>
</a>
</g>
</g>
<!-- Node1&#45;&gt;Node7 -->
<g id="edge6" class="edge">
<title>Node1&#45;&gt;Node7</title>
<path fill="none" stroke="black" d="M181.36,-410.69C201.69,-400.44 229.29,-387.49 254.75,-378.75 263.73,-375.67 273.44,-372.93 282.93,-370.55"/>
<polygon fill="black" stroke="black" points="179.81,-407.55 172.5,-415.22 183,-413.78 179.81,-407.55"/>
</g>
<!-- Node13 -->
<g id="Node000013" class="node">
<title>Node13</title>
<g id="a_Node000013"><a xlink:href="group__RTCEx__Tamper__Pull__Up__Definitions.html" target="_top" xlink:title=" ">
<polygon fill="white" stroke="#666666" points="396.38,-331.5 279.12,-331.5 279.12,-298 396.38,-298 396.38,-331.5"/>
<text text-anchor="start" x="287.12" y="-318" font-family="Helvetica,sans-Serif" font-size="10.00">RTCEx Tamper Pull Up</text>
<text text-anchor="middle" x="337.75" y="-305.25" font-family="Helvetica,sans-Serif" font-size="10.00"> Definitions</text>
</a>
</g>
</g>
<!-- Node1&#45;&gt;Node13 -->
<g id="edge12" class="edge">
<title>Node1&#45;&gt;Node13</title>
<path fill="none" stroke="black" d="M169.18,-407.88C188.71,-388.58 221.45,-358.93 254.75,-340.75 262.22,-336.67 270.43,-333.12 278.68,-330.06"/>
<polygon fill="black" stroke="black" points="166.8,-405.3 162.24,-414.87 171.77,-410.23 166.8,-405.3"/>
</g>
<!-- Node11 -->
<g id="Node000011" class="node">
<title>Node11</title>
<g id="a_Node000011"><a xlink:href="group__RTCEx__Tamper__Sampling__Frequencies__Definitions.html" target="_top" xlink:title=" ">
<polygon fill="white" stroke="#666666" points="401.62,-279.5 273.88,-279.5 273.88,-246 401.62,-246 401.62,-279.5"/>
<text text-anchor="start" x="281.88" y="-266" font-family="Helvetica,sans-Serif" font-size="10.00">RTCEx Tamper Sampling</text>
<text text-anchor="middle" x="337.75" y="-253.25" font-family="Helvetica,sans-Serif" font-size="10.00"> Frequencies Definitions</text>
</a>
</g>
</g>
<!-- Node1&#45;&gt;Node11 -->
<g id="edge10" class="edge">
<title>Node1&#45;&gt;Node11</title>
<path fill="none" stroke="black" d="M161.36,-405.73C177.32,-375.5 210.73,-319.95 254.75,-288.75 260.48,-284.69 266.86,-281.25 273.48,-278.33"/>
<polygon fill="black" stroke="black" points="158.25,-404.14 156.81,-414.63 164.48,-407.33 158.25,-404.14"/>
</g>
<!-- Node14 -->
<g id="Node000014" class="node">
<title>Node14</title>
<g id="a_Node000014"><a xlink:href="group__RTCEx__Tamper__TimeStampOnTamperDetection__Definitions.html" target="_top" xlink:title=" ">
<polygon fill="white" stroke="#666666" points="420.75,-227.5 254.75,-227.5 254.75,-194 420.75,-194 420.75,-227.5"/>
<text text-anchor="start" x="262.75" y="-214" font-family="Helvetica,sans-Serif" font-size="10.00">RTCEx Tamper TimeStamp</text>
<text text-anchor="middle" x="337.75" y="-201.25" font-family="Helvetica,sans-Serif" font-size="10.00"> On Tamper Detection Definitions</text>
</a>
</g>
</g>
<!-- Node1&#45;&gt;Node14 -->
<g id="edge13" class="edge">
<title>Node1&#45;&gt;Node14</title>
<path fill="none" stroke="black" d="M156.99,-404.93C168.92,-365.52 199.4,-282.34 254.75,-236.75 258.78,-233.43 263.25,-230.53 267.95,-227.99"/>
<polygon fill="black" stroke="black" points="153.66,-403.84 154.24,-414.42 160.38,-405.79 153.66,-403.84"/>
</g>
<!-- Node9 -->
<g id="Node000009" class="node">
<title>Node9</title>
<g id="a_Node000009"><a xlink:href="group__RTCEx__Tamper__Trigger__Definitions.html" target="_top" xlink:title=" ">
<polygon fill="white" stroke="#666666" points="399,-175.5 276.5,-175.5 276.5,-142 399,-142 399,-175.5"/>
<text text-anchor="start" x="284.5" y="-162" font-family="Helvetica,sans-Serif" font-size="10.00">RTCEx Tamper Triggers</text>
<text text-anchor="middle" x="337.75" y="-149.25" font-family="Helvetica,sans-Serif" font-size="10.00"> Definitions</text>
</a>
</g>
</g>
<!-- Node1&#45;&gt;Node9 -->
<g id="edge8" class="edge">
<title>Node1&#45;&gt;Node9</title>
<path fill="none" stroke="black" d="M154.2,-404.7C162.22,-357.42 187.59,-245.64 254.75,-184.75 260.95,-179.13 268.36,-174.73 276.15,-171.28"/>
<polygon fill="black" stroke="black" points="150.75,-404.07 152.65,-414.5 157.67,-405.17 150.75,-404.07"/>
</g>
<!-- Node4 -->
<g id="Node000004" class="node">
<title>Node4</title>
<g id="a_Node000004"><a xlink:href="group__RTCEx__Timestamp__Edges__Definitions.html" target="_top" xlink:title=" ">
<polygon fill="white" stroke="#666666" points="402,-123.5 273.5,-123.5 273.5,-90 402,-90 402,-123.5"/>
<text text-anchor="start" x="281.5" y="-110" font-family="Helvetica,sans-Serif" font-size="10.00">RTCEx Timestamp Edges</text>
<text text-anchor="middle" x="337.75" y="-97.25" font-family="Helvetica,sans-Serif" font-size="10.00"> Definitions</text>
</a>
</g>
</g>
<!-- Node1&#45;&gt;Node4 -->
<g id="edge3" class="edge">
<title>Node1&#45;&gt;Node4</title>
<path fill="none" stroke="black" d="M152.28,-404.9C156.62,-350.83 175.37,-209.61 254.75,-132.75 260.11,-127.56 266.51,-123.4 273.33,-120.07"/>
<polygon fill="black" stroke="black" points="148.8,-404.42 151.59,-414.64 155.78,-404.91 148.8,-404.42"/>
</g>
<!-- Node5 -->
<g id="Node000005" class="node">
<title>Node5</title>
<g id="a_Node000005"><a xlink:href="group__RTCEx__Timestamp__Pin__Selection.html" target="_top" xlink:title=" ">
<polygon fill="white" stroke="#666666" points="411.75,-72.12 263.75,-72.12 263.75,-51.38 411.75,-51.38 411.75,-72.12"/>
<text text-anchor="middle" x="337.75" y="-58.62" font-family="Helvetica,sans-Serif" font-size="10.00">RTC Timestamp Pin Selection</text>
</a>
</g>
</g>
<!-- Node1&#45;&gt;Node5 -->
<g id="edge4" class="edge">
<title>Node1&#45;&gt;Node5</title>
<path fill="none" stroke="black" d="M150.54,-404.81C150.53,-343.73 159.33,-170.29 254.75,-80.75 258.16,-77.55 262,-74.85 266.11,-72.58"/>
<polygon fill="black" stroke="black" points="147.04,-404.59 150.64,-414.56 154.04,-404.53 147.04,-404.59"/>
</g>
<!-- Node15 -->
<g id="Node000015" class="node">
<title>Node15</title>
<g id="a_Node000015"><a xlink:href="group__RTCEx__Wakeup__Timer__Definitions.html" target="_top" xlink:title=" ">
<polygon fill="white" stroke="#666666" points="394.12,-33.5 281.38,-33.5 281.38,0 394.12,0 394.12,-33.5"/>
<text text-anchor="start" x="289.38" y="-20" font-family="Helvetica,sans-Serif" font-size="10.00">RTCEx Wakeup Timer</text>
<text text-anchor="middle" x="337.75" y="-7.25" font-family="Helvetica,sans-Serif" font-size="10.00"> Definitions</text>
</a>
</g>
</g>
<!-- Node1&#45;&gt;Node15 -->
<g id="edge14" class="edge">
<title>Node1&#45;&gt;Node15</title>
<path fill="none" stroke="black" d="M154.1,-405.03C164.93,-331.93 203.28,-96.5 254.75,-42.75 261.98,-35.2 271.39,-29.83 281.24,-26.02"/>
<polygon fill="black" stroke="black" points="150.69,-404.12 152.72,-414.52 157.62,-405.13 150.69,-404.12"/>
</g>
</g>
</svg>

<g id="navigator" transform="translate(0 0)" fill="#404254">
  <rect fill="#f2f5e9" fill-opacity="0.5" stroke="#606060" stroke-width=".5" x="0" y="0" width="60" height="60"/>
  <use id="zoomplus" xlink:href="#zoomPlus" x="17" y="9" onmousedown="handleZoom(evt,'in')"/>
  <use id="zoomminus" xlink:href="#zoomMin" x="42" y="9" onmousedown="handleZoom(evt,'out')"/>
  <use id="reset" xlink:href="#resetDef" x="30" y="36" onmousedown="handleReset()"/>
   <use id="arrowup" xlink:href="#arrowUp" x="0" y="0" onmousedown="handlePan(0,-1)"/>
  <use id="arrowright" xlink:href="#arrowRight" x="0" y="0" onmousedown="handlePan(1,0)"/>
  <use id="arrowdown" xlink:href="#arrowDown" x="0" y="0" onmousedown="handlePan(0,1)"/>
  <use id="arrowleft" xlink:href="#arrowLeft" x="0" y="0" onmousedown="handlePan(-1,0)"/>
</g>
<svg viewBox="0 0 15 15" width="100%" height="30px" preserveAspectRatio="xMaxYMin meet">
 <g id="arrow_out" transform="scale(0.3 0.3)">
  <a xlink:href="group__RTCEx__Exported__Constants_org.svg" target="_base">
   <rect id="button" ry="5" rx="5" y="6" x="6" height="38" width="38"
        fill="#f2f5e9" fill-opacity="0.5" stroke="#606060" stroke-width="1.0"/>
   <path id="arrow"
     d="M 11.500037,31.436501 C 11.940474,20.09759 22.043105,11.32322 32.158766,21.979434 L 37.068811,17.246167 C 37.068811,17.246167 37.088388,32 37.088388,32 L 22.160133,31.978069 C 22.160133,31.978069 26.997745,27.140456 26.997745,27.140456 C 18.528582,18.264221 13.291696,25.230495 11.500037,31.436501 z"
     style="fill:#404040;"/>
  </a>
 </g>
</svg>

<style type='text/css'>
<![CDATA[
[data-mouse-over-selected='false'] { opacity: 0.7; }
[data-mouse-over-selected='true']  { opacity: 1.0; }
]]>
</style>
<script type="application/ecmascript"><![CDATA[
document.addEventListener('DOMContentLoaded', (event) => {
  highlightEdges();
  highlightAdjacentNodes();
});
]]></script>
</svg>
