<?xml version="1.0" encoding="UTF-8" standalone="no"?>
<!DOCTYPE svg PUBLIC "-//W3C//DTD SVG 1.1//EN"
 "http://www.w3.org/Graphics/SVG/1.1/DTD/svg11.dtd">
<!-- Generated by graphviz version 12.2.1 (20241206.2353)
 -->
<!-- Title: UART Pages: 1 -->
<svg width="380pt" height="263pt"
 viewBox="0.00 0.00 380.00 262.75" xmlns="http://www.w3.org/2000/svg" xmlns:xlink="http://www.w3.org/1999/xlink">

<svg id="main" version="1.1" xmlns="http://www.w3.org/2000/svg" xmlns:xlink="http://www.w3.org/1999/xlink" xml:space="preserve">

<style type="text/css"><![CDATA[
.node, .edge {opacity: 0.7;}
.node.selected, .edge.selected {opacity: 1;}
.edge:hover path { stroke: red; }
.edge:hover polygon { stroke: red; fill: red; }
]]></style>
<script type="application/ecmascript" xlink:href="svg.min.js"/>
<svg id="graph" class="graph">
<g id="graph0" class="graph" transform="scale(1 1) rotate(0) translate(4 258.75)">
<title>UART</title>
<!-- Node2 -->
<g id="Node000002" class="node">
<title>Node2</title>
<g id="a_Node000002"><a xlink:href="group__STM32F4xx__HAL__Driver.html" target="_top" xlink:title=" ">
<polygon fill="white" stroke="#666666" points="122.5,-137.75 0,-137.75 0,-117 122.5,-117 122.5,-137.75"/>
<text text-anchor="middle" x="61.25" y="-124.25" font-family="Helvetica,sans-Serif" font-size="10.00">STM32F4xx_HAL_Driver</text>
</a>
</g>
</g>
<!-- Node1 -->
<g id="Node000001" class="node">
<title>Node1</title>
<g id="a_Node000001"><a xlink:title="HAL UART module driver.">
<polygon fill="#999999" stroke="#666666" points="199.25,-137.75 158.5,-137.75 158.5,-117 199.25,-117 199.25,-137.75"/>
<text text-anchor="middle" x="178.88" y="-124.25" font-family="Helvetica,sans-Serif" font-size="10.00">UART</text>
</a>
</g>
</g>
<!-- Node2&#45;&gt;Node1 -->
<g id="edge1" class="edge">
<title>Node2&#45;&gt;Node1</title>
<path fill="none" stroke="black" d="M134.05,-127.38C142.81,-127.38 151.11,-127.38 158.09,-127.38"/>
<polygon fill="black" stroke="black" points="134.29,-123.88 124.29,-127.38 134.29,-130.88 134.29,-123.88"/>
</g>
<!-- Node4 -->
<g id="Node000004" class="node">
<title>Node4</title>
<g id="a_Node000004"><a xlink:href="group__UART__Exported__Constants.html" target="_top" xlink:title=" ">
<polygon fill="white" stroke="#666666" points="370.12,-254.75 237.12,-254.75 237.12,-234 370.12,-234 370.12,-254.75"/>
<text text-anchor="middle" x="303.62" y="-241.25" font-family="Helvetica,sans-Serif" font-size="10.00">UART Exported Constants</text>
</a>
</g>
</g>
<!-- Node1&#45;&gt;Node4 -->
<g id="edge3" class="edge">
<title>Node1&#45;&gt;Node4</title>
<path fill="none" stroke="black" d="M186.72,-148.81C194.85,-170.89 210.52,-204.77 235.25,-224.38 239.94,-228.09 245.3,-231.11 250.9,-233.58"/>
<polygon fill="black" stroke="black" points="190.12,-147.94 183.55,-139.63 183.51,-150.22 190.12,-147.94"/>
</g>
<!-- Node9 -->
<g id="Node000009" class="node">
<title>Node9</title>
<g id="a_Node000009"><a xlink:href="group__UART__Exported__Functions.html" target="_top" xlink:title=" ">
<polygon fill="white" stroke="#666666" points="372,-215.75 235.25,-215.75 235.25,-195 372,-195 372,-215.75"/>
<text text-anchor="middle" x="303.62" y="-202.25" font-family="Helvetica,sans-Serif" font-size="10.00">UART_Exported_Functions</text>
</a>
</g>
</g>
<!-- Node1&#45;&gt;Node9 -->
<g id="edge8" class="edge">
<title>Node1&#45;&gt;Node9</title>
<path fill="none" stroke="black" d="M194.08,-146.86C204.25,-159.5 218.97,-175.42 235.25,-185.38 241.29,-189.07 248.05,-192.11 254.9,-194.61"/>
<polygon fill="black" stroke="black" points="197.05,-144.97 188.17,-139.18 191.5,-149.24 197.05,-144.97"/>
</g>
<!-- Node5 -->
<g id="Node000005" class="node">
<title>Node5</title>
<g id="a_Node000005"><a xlink:href="group__UART__Exported__Macros.html" target="_top" xlink:title=" ">
<polygon fill="white" stroke="#666666" points="363,-176.75 244.25,-176.75 244.25,-156 363,-156 363,-176.75"/>
<text text-anchor="middle" x="303.62" y="-163.25" font-family="Helvetica,sans-Serif" font-size="10.00">UART Exported Macros</text>
</a>
</g>
</g>
<!-- Node1&#45;&gt;Node5 -->
<g id="edge4" class="edge">
<title>Node1&#45;&gt;Node5</title>
<path fill="none" stroke="black" d="M210.38,-138.1C218.44,-140.86 227.16,-143.79 235.25,-146.38 244.9,-149.46 255.37,-152.65 265.12,-155.55"/>
<polygon fill="black" stroke="black" points="211.57,-134.81 200.97,-134.84 209.28,-141.42 211.57,-134.81"/>
</g>
<!-- Node3 -->
<g id="Node000003" class="node">
<title>Node3</title>
<g id="a_Node000003"><a xlink:href="group__UART__Exported__Types.html" target="_top" xlink:title=" ">
<polygon fill="white" stroke="#666666" points="360,-137.75 247.25,-137.75 247.25,-117 360,-117 360,-137.75"/>
<text text-anchor="middle" x="303.62" y="-124.25" font-family="Helvetica,sans-Serif" font-size="10.00">UART Exported Types</text>
</a>
</g>
</g>
<!-- Node1&#45;&gt;Node3 -->
<g id="edge2" class="edge">
<title>Node1&#45;&gt;Node3</title>
<path fill="none" stroke="black" d="M211.09,-127.38C222,-127.38 234.61,-127.38 246.91,-127.38"/>
<polygon fill="black" stroke="black" points="211.11,-123.88 201.11,-127.38 211.11,-130.88 211.11,-123.88"/>
</g>
<!-- Node6 -->
<g id="Node000006" class="node">
<title>Node6</title>
<g id="a_Node000006"><a xlink:href="group__UART__Private__Constants.html" target="_top" xlink:title=" ">
<polygon fill="white" stroke="#666666" points="364.88,-98.75 242.38,-98.75 242.38,-78 364.88,-78 364.88,-98.75"/>
<text text-anchor="middle" x="303.62" y="-85.25" font-family="Helvetica,sans-Serif" font-size="10.00">UART Private Constants</text>
</a>
</g>
</g>
<!-- Node1&#45;&gt;Node6 -->
<g id="edge5" class="edge">
<title>Node1&#45;&gt;Node6</title>
<path fill="none" stroke="black" d="M210.38,-116.65C218.44,-113.89 227.16,-110.96 235.25,-108.38 244.9,-105.29 255.37,-102.1 265.12,-99.2"/>
<polygon fill="black" stroke="black" points="209.28,-113.33 200.97,-119.91 211.57,-119.94 209.28,-113.33"/>
</g>
<!-- Node8 -->
<g id="Node000008" class="node">
<title>Node8</title>
<g id="a_Node000008"><a xlink:href="group__UART__Private__Functions.html" target="_top" xlink:title=" ">
<polygon fill="white" stroke="#666666" points="363.75,-59.75 243.5,-59.75 243.5,-39 363.75,-39 363.75,-59.75"/>
<text text-anchor="middle" x="303.62" y="-46.25" font-family="Helvetica,sans-Serif" font-size="10.00">UART Private Functions</text>
</a>
</g>
</g>
<!-- Node1&#45;&gt;Node8 -->
<g id="edge7" class="edge">
<title>Node1&#45;&gt;Node8</title>
<path fill="none" stroke="black" d="M194.08,-107.89C204.25,-95.25 218.97,-79.33 235.25,-69.38 241.29,-65.68 248.05,-62.64 254.9,-60.14"/>
<polygon fill="black" stroke="black" points="191.5,-105.51 188.17,-115.57 197.05,-109.78 191.5,-105.51"/>
</g>
<!-- Node7 -->
<g id="Node000007" class="node">
<title>Node7</title>
<g id="a_Node000007"><a xlink:href="group__UART__Private__Macros.html" target="_top" xlink:title=" ">
<polygon fill="white" stroke="#666666" points="357.75,-20.75 249.5,-20.75 249.5,0 357.75,0 357.75,-20.75"/>
<text text-anchor="middle" x="303.62" y="-7.25" font-family="Helvetica,sans-Serif" font-size="10.00">UART Private Macros</text>
</a>
</g>
</g>
<!-- Node1&#45;&gt;Node7 -->
<g id="edge6" class="edge">
<title>Node1&#45;&gt;Node7</title>
<path fill="none" stroke="black" d="M186.72,-105.94C194.85,-83.86 210.52,-49.98 235.25,-30.38 239.94,-26.66 245.3,-23.64 250.9,-21.17"/>
<polygon fill="black" stroke="black" points="183.51,-104.53 183.55,-115.12 190.12,-106.81 183.51,-104.53"/>
</g>
</g>
</svg>
</svg>

<style type='text/css'>
<![CDATA[
[data-mouse-over-selected='false'] { opacity: 0.7; }
[data-mouse-over-selected='true']  { opacity: 1.0; }
]]>
</style>
<script type="application/ecmascript"><![CDATA[
document.addEventListener('DOMContentLoaded', (event) => {
  highlightEdges();
  highlightAdjacentNodes();
});
]]></script>
</svg>
