<?xml version="1.0" encoding="UTF-8" standalone="no"?>
<!DOCTYPE svg PUBLIC "-//W3C//DTD SVG 1.1//EN"
 "http://www.w3.org/Graphics/SVG/1.1/DTD/svg11.dtd">
<!-- Generated by graphviz version 12.2.1 (20241206.2353)
 -->
<!-- Title: RCCEx Private Constants Pages: 1 -->
<svg width="394pt" height="29pt"
 viewBox="0.00 0.00 394.25 28.75" xmlns="http://www.w3.org/2000/svg" xmlns:xlink="http://www.w3.org/1999/xlink">
<g id="page0,1_graph0" class="graph" transform="scale(1 1) rotate(0) translate(4 24.75)">
<title>RCCEx Private Constants</title>
<!-- Node2 -->
<g id="Node000002" class="node">
<title>Node2</title>
<g id="a_Node000002"><a xlink:href="group__RCCEx.html" target="_top" xlink:title="RCCEx HAL module driver.">
<polygon fill="white" stroke="#666666" points="46,-20.75 0,-20.75 0,0 46,0 46,-20.75"/>
<text text-anchor="middle" x="23" y="-7.25" font-family="Helvetica,sans-Serif" font-size="10.00">RCCEx</text>
</a>
</g>
</g>
<!-- Node1 -->
<g id="Node000001" class="node">
<title>Node1</title>
<g id="a_Node000001"><a xlink:title=" ">
<polygon fill="#999999" stroke="#666666" points="209.75,-20.75 82,-20.75 82,0 209.75,0 209.75,-20.75"/>
<text text-anchor="middle" x="145.88" y="-7.25" font-family="Helvetica,sans-Serif" font-size="10.00">RCCEx Private Constants</text>
</a>
</g>
</g>
<!-- Node2&#45;&gt;Node1 -->
<g id="edge1" class="edge">
<title>Node2&#45;&gt;Node1</title>
<path fill="none" stroke="black" d="M57.9,-10.38C65.36,-10.38 73.49,-10.38 81.69,-10.38"/>
<polygon fill="black" stroke="black" points="57.97,-6.88 47.97,-10.38 57.97,-13.88 57.97,-6.88"/>
</g>
<!-- Node3 -->
<g id="Node000003" class="node">
<title>Node3</title>
<g id="a_Node000003"><a xlink:href="group__RCCEx__BitAddress__AliasRegion.html" target="_top" xlink:title="RCC registers bit address in the alias region.">
<polygon fill="white" stroke="#666666" points="386.25,-20.75 245.75,-20.75 245.75,0 386.25,0 386.25,-20.75"/>
<text text-anchor="middle" x="316" y="-7.25" font-family="Helvetica,sans-Serif" font-size="10.00">RCC BitAddress AliasRegion</text>
</a>
</g>
</g>
<!-- Node1&#45;&gt;Node3 -->
<g id="edge2" class="edge">
<title>Node1&#45;&gt;Node3</title>
<path fill="none" stroke="black" d="M221.2,-10.38C229.23,-10.38 237.39,-10.38 245.36,-10.38"/>
<polygon fill="black" stroke="black" points="221.47,-6.88 211.47,-10.38 221.47,-13.88 221.47,-6.88"/>
</g>
</g>
</svg>
