<?xml version="1.0" encoding="UTF-8" standalone="no"?>
<!DOCTYPE svg PUBLIC "-//W3C//DTD SVG 1.1//EN"
 "http://www.w3.org/Graphics/SVG/1.1/DTD/svg11.dtd">
<!-- Generated by graphviz version 2.43.0 (0)
 -->
<!-- Title: PWR Exported Constants Pages: 1 -->
<svg width="394pt" height="261pt"
 viewBox="0.00 0.00 394.00 261.00" xmlns="http://www.w3.org/2000/svg" xmlns:xlink="http://www.w3.org/1999/xlink">
<g id="graph0" class="graph" transform="scale(1 1) rotate(0) translate(4 257)">
<title>PWR Exported Constants</title>
<!-- Node2 -->
<g id="Node000002" class="node">
<title>Node2</title>
<g id="a_Node000002"><a xlink:href="group__PWR.html" target="_top" xlink:title="PWR HAL module driver.">
<polygon fill="white" stroke="#666666" points="39,-136 0,-136 0,-117 39,-117 39,-136"/>
<text text-anchor="middle" x="19.5" y="-124" font-family="Helvetica,sans-Serif" font-size="10.00">PWR</text>
</a>
</g>
</g>
<!-- Node1 -->
<g id="Node000001" class="node">
<title>Node1</title>
<g id="a_Node000001"><a xlink:title=" ">
<polygon fill="#999999" stroke="#666666" points="212,-136 75,-136 75,-117 212,-117 212,-136"/>
<text text-anchor="middle" x="143.5" y="-124" font-family="Helvetica,sans-Serif" font-size="10.00">PWR Exported Constants</text>
</a>
</g>
</g>
<!-- Node2&#45;&gt;Node1 -->
<g id="edge1" class="edge">
<title>Node2&#45;&gt;Node1</title>
<path fill="none" stroke="black" d="M49.06,-126.5C56.94,-126.5 65.84,-126.5 74.93,-126.5"/>
<polygon fill="black" stroke="black" points="49.03,-123 39.03,-126.5 49.03,-130 49.03,-123"/>
</g>
<!-- Node9 -->
<g id="Node000009" class="node">
<title>Node9</title>
<g id="a_Node000009"><a xlink:href="group__PWR__Flag.html" target="_top" xlink:title=" ">
<polygon fill="white" stroke="#666666" points="348.5,-253 285.5,-253 285.5,-234 348.5,-234 348.5,-253"/>
<text text-anchor="middle" x="317" y="-241" font-family="Helvetica,sans-Serif" font-size="10.00">PWR Flag</text>
</a>
</g>
</g>
<!-- Node1&#45;&gt;Node9 -->
<g id="edge8" class="edge">
<title>Node1&#45;&gt;Node9</title>
<path fill="none" stroke="black" d="M157.97,-143.99C176.04,-166.25 210.28,-204.35 248,-225.5 259.4,-231.89 273.15,-236.08 285.29,-238.8"/>
<polygon fill="black" stroke="black" points="160.61,-141.69 151.65,-136.03 155.13,-146.04 160.61,-141.69"/>
</g>
<!-- Node5 -->
<g id="Node000005" class="node">
<title>Node5</title>
<g id="a_Node000005"><a xlink:href="group__PWR__PVD__Mode.html" target="_top" xlink:title=" ">
<polygon fill="white" stroke="#666666" points="363,-216 271,-216 271,-197 363,-197 363,-216"/>
<text text-anchor="middle" x="317" y="-204" font-family="Helvetica,sans-Serif" font-size="10.00">PWR PVD Mode</text>
</a>
</g>
</g>
<!-- Node1&#45;&gt;Node5 -->
<g id="edge4" class="edge">
<title>Node1&#45;&gt;Node5</title>
<path fill="none" stroke="black" d="M166.13,-141.93C186.43,-155.8 218.08,-175.88 248,-188.5 255.76,-191.78 264.28,-194.59 272.58,-196.96"/>
<polygon fill="black" stroke="black" points="168.11,-139.05 157.9,-136.22 164.13,-144.8 168.11,-139.05"/>
</g>
<!-- Node4 -->
<g id="Node000004" class="node">
<title>Node4</title>
<g id="a_Node000004"><a xlink:href="group__PWR__PVD__detection__level.html" target="_top" xlink:title=" ">
<polygon fill="white" stroke="#666666" points="386,-179 248,-179 248,-160 386,-160 386,-179"/>
<text text-anchor="middle" x="317" y="-167" font-family="Helvetica,sans-Serif" font-size="10.00">PWR PVD detection level</text>
</a>
</g>
</g>
<!-- Node1&#45;&gt;Node4 -->
<g id="edge3" class="edge">
<title>Node1&#45;&gt;Node4</title>
<path fill="none" stroke="black" d="M192.58,-138.56C219.61,-145.33 252.87,-153.67 278.04,-159.98"/>
<polygon fill="black" stroke="black" points="193.11,-135.08 182.56,-136.04 191.41,-141.87 193.11,-135.08"/>
</g>
<!-- Node6 -->
<g id="Node000006" class="node">
<title>Node6</title>
<g id="a_Node000006"><a xlink:href="group__PWR__Regulator__state__in__STOP__mode.html" target="_top" xlink:title=" ">
<polygon fill="white" stroke="#666666" points="377,-141.5 257,-141.5 257,-111.5 377,-111.5 377,-141.5"/>
<text text-anchor="start" x="265" y="-129.5" font-family="Helvetica,sans-Serif" font-size="10.00">PWR Regulator state</text>
<text text-anchor="middle" x="317" y="-118.5" font-family="Helvetica,sans-Serif" font-size="10.00"> in SLEEP/STOP mode</text>
</a>
</g>
</g>
<!-- Node1&#45;&gt;Node6 -->
<g id="edge5" class="edge">
<title>Node1&#45;&gt;Node6</title>
<path fill="none" stroke="black" d="M222.36,-126.5C233.92,-126.5 245.67,-126.5 256.76,-126.5"/>
<polygon fill="black" stroke="black" points="222.28,-123 212.28,-126.5 222.28,-130 222.28,-123"/>
</g>
<!-- Node7 -->
<g id="Node000007" class="node">
<title>Node7</title>
<g id="a_Node000007"><a xlink:href="group__PWR__SLEEP__mode__entry.html" target="_top" xlink:title=" ">
<polygon fill="white" stroke="#666666" points="382.5,-93 251.5,-93 251.5,-74 382.5,-74 382.5,-93"/>
<text text-anchor="middle" x="317" y="-81" font-family="Helvetica,sans-Serif" font-size="10.00">PWR SLEEP mode entry</text>
</a>
</g>
</g>
<!-- Node1&#45;&gt;Node7 -->
<g id="edge6" class="edge">
<title>Node1&#45;&gt;Node7</title>
<path fill="none" stroke="black" d="M192.58,-114.44C219.61,-107.67 252.87,-99.33 278.04,-93.02"/>
<polygon fill="black" stroke="black" points="191.41,-111.13 182.56,-116.96 193.11,-117.92 191.41,-111.13"/>
</g>
<!-- Node8 -->
<g id="Node000008" class="node">
<title>Node8</title>
<g id="a_Node000008"><a xlink:href="group__PWR__STOP__mode__entry.html" target="_top" xlink:title=" ">
<polygon fill="white" stroke="#666666" points="380.5,-56 253.5,-56 253.5,-37 380.5,-37 380.5,-56"/>
<text text-anchor="middle" x="317" y="-44" font-family="Helvetica,sans-Serif" font-size="10.00">PWR STOP mode entry</text>
</a>
</g>
</g>
<!-- Node1&#45;&gt;Node8 -->
<g id="edge7" class="edge">
<title>Node1&#45;&gt;Node8</title>
<path fill="none" stroke="black" d="M166.83,-111.02C187.2,-97.47 218.54,-78.04 248,-65.5 256.57,-61.85 266.05,-58.69 275.13,-56.06"/>
<polygon fill="black" stroke="black" points="164.61,-108.29 158.28,-116.79 168.53,-114.1 164.61,-108.29"/>
</g>
<!-- Node3 -->
<g id="Node000003" class="node">
<title>Node3</title>
<g id="a_Node000003"><a xlink:href="group__PWR__WakeUp__Pins.html" target="_top" xlink:title=" ">
<polygon fill="white" stroke="#666666" points="369.5,-19 264.5,-19 264.5,0 369.5,0 369.5,-19"/>
<text text-anchor="middle" x="317" y="-7" font-family="Helvetica,sans-Serif" font-size="10.00">PWR WakeUp Pins</text>
</a>
</g>
</g>
<!-- Node1&#45;&gt;Node3 -->
<g id="edge2" class="edge">
<title>Node1&#45;&gt;Node3</title>
<path fill="none" stroke="black" d="M158.33,-108.94C176.57,-86.95 210.74,-49.6 248,-28.5 254.83,-24.63 262.49,-21.51 270.14,-19.01"/>
<polygon fill="black" stroke="black" points="155.52,-106.84 151.94,-116.81 160.96,-111.25 155.52,-106.84"/>
</g>
</g>
</svg>
