<?xml version="1.0" encoding="UTF-8" standalone="no"?>
<!DOCTYPE svg PUBLIC "-//W3C//DTD SVG 1.1//EN"
 "http://www.w3.org/Graphics/SVG/1.1/DTD/svg11.dtd">
<!-- Generated by graphviz version 2.43.0 (0)
 -->
<!-- Title: DMAEx Pages: 1 -->
<svg width="414pt" height="101pt"
 viewBox="0.00 0.00 414.00 101.00" xmlns="http://www.w3.org/2000/svg" xmlns:xlink="http://www.w3.org/1999/xlink">

<svg id="main" version="1.1" xmlns="http://www.w3.org/2000/svg" xmlns:xlink="http://www.w3.org/1999/xlink" xml:space="preserve">

<style type="text/css"><![CDATA[
.node, .edge {opacity: 0.7;}
.node.selected, .edge.selected {opacity: 1;}
.edge:hover path { stroke: red; }
.edge:hover polygon { stroke: red; fill: red; }
]]></style>
<script type="application/ecmascript" xlink:href="svg.min.js"/>
<svg id="graph" class="graph">
<g id="graph0" class="graph" transform="scale(1 1) rotate(0) translate(4 97)">
<title>DMAEx</title>
<!-- Node1 -->
<g id="Node000001" class="node">
<title>Node1</title>
<g id="a_Node000001"><a xlink:title="DMA Extended HAL module driver.">
<polygon fill="#999999" stroke="#666666" points="222,-56 170,-56 170,-37 222,-37 222,-56"/>
<text text-anchor="middle" x="196" y="-44" font-family="Helvetica,sans-Serif" font-size="10.00">DMAEx</text>
</a>
</g>
</g>
<!-- Node4 -->
<g id="Node000004" class="node">
<title>Node4</title>
<g id="a_Node000004"><a xlink:href="group__DMAEx__Exported__Functions.html" target="_top" xlink:title="DMAEx Exported functions.">
<polygon fill="white" stroke="#666666" points="406,-93 258,-93 258,-74 406,-74 406,-93"/>
<text text-anchor="middle" x="332" y="-81" font-family="Helvetica,sans-Serif" font-size="10.00">DMAEx Exported Functions</text>
</a>
</g>
</g>
<!-- Node1&#45;&gt;Node4 -->
<g id="edge3" class="edge">
<title>Node1&#45;&gt;Node4</title>
<path fill="none" stroke="black" d="M231.8,-57.74C240.34,-60.38 249.48,-63.12 258,-65.5 268.44,-68.41 279.78,-71.32 290.34,-73.94"/>
<polygon fill="black" stroke="black" points="232.71,-54.35 222.13,-54.7 230.62,-61.03 232.71,-54.35"/>
</g>
<!-- Node3 -->
<g id="Node000003" class="node">
<title>Node3</title>
<g id="a_Node000003"><a xlink:href="group__DMAEx__Exported__Types.html" target="_top" xlink:title="DMAEx Exported types.">
<polygon fill="white" stroke="#666666" points="396.5,-56 267.5,-56 267.5,-37 396.5,-37 396.5,-56"/>
<text text-anchor="middle" x="332" y="-44" font-family="Helvetica,sans-Serif" font-size="10.00">DMAEx Exported Types</text>
</a>
</g>
</g>
<!-- Node1&#45;&gt;Node3 -->
<g id="edge2" class="edge">
<title>Node1&#45;&gt;Node3</title>
<path fill="none" stroke="black" d="M232.46,-46.5C243.24,-46.5 255.43,-46.5 267.47,-46.5"/>
<polygon fill="black" stroke="black" points="232.2,-43 222.2,-46.5 232.2,-50 232.2,-43"/>
</g>
<!-- Node5 -->
<g id="Node000005" class="node">
<title>Node5</title>
<g id="a_Node000005"><a xlink:href="group__DMAEx__Private__Functions.html" target="_top" xlink:title="DMAEx Private functions.">
<polygon fill="white" stroke="#666666" points="401.5,-19 262.5,-19 262.5,0 401.5,0 401.5,-19"/>
<text text-anchor="middle" x="332" y="-7" font-family="Helvetica,sans-Serif" font-size="10.00">DMAEx Private Functions</text>
</a>
</g>
</g>
<!-- Node1&#45;&gt;Node5 -->
<g id="edge4" class="edge">
<title>Node1&#45;&gt;Node5</title>
<path fill="none" stroke="black" d="M231.8,-35.26C240.34,-32.62 249.48,-29.88 258,-27.5 268.44,-24.59 279.78,-21.68 290.34,-19.06"/>
<polygon fill="black" stroke="black" points="230.62,-31.97 222.13,-38.3 232.71,-38.65 230.62,-31.97"/>
</g>
<!-- Node2 -->
<g id="Node000002" class="node">
<title>Node2</title>
<g id="a_Node000002"><a xlink:href="group__STM32F4xx__HAL__Driver.html" target="_top" xlink:title=" ">
<polygon fill="white" stroke="#666666" points="134,-56 0,-56 0,-37 134,-37 134,-56"/>
<text text-anchor="middle" x="67" y="-44" font-family="Helvetica,sans-Serif" font-size="10.00">STM32F4xx_HAL_Driver</text>
</a>
</g>
</g>
<!-- Node2&#45;&gt;Node1 -->
<g id="edge1" class="edge">
<title>Node2&#45;&gt;Node1</title>
<path fill="none" stroke="black" d="M144.22,-46.5C153.44,-46.5 162.29,-46.5 169.94,-46.5"/>
<polygon fill="black" stroke="black" points="144.1,-43 134.1,-46.5 144.1,-50 144.1,-43"/>
</g>
</g>
</svg>
</svg>

<style type='text/css'>
<![CDATA[
[data-mouse-over-selected='false'] { opacity: 0.7; }
[data-mouse-over-selected='true']  { opacity: 1.0; }
]]>
</style>
<script type="application/ecmascript"><![CDATA[
document.addEventListener('DOMContentLoaded', (event) => {
  highlightEdges();
  highlightAdjacentNodes();
});
]]></script>
</svg>
