<?xml version="1.0" encoding="UTF-8" standalone="no"?>
<!DOCTYPE svg PUBLIC "-//W3C//DTD SVG 1.1//EN"
 "http://www.w3.org/Graphics/SVG/1.1/DTD/svg11.dtd">
<!-- Generated by graphviz version 12.2.1 (20241206.2353)
 -->
<!-- Title: SMBUS Pages: 1 -->
<svg width="394pt" height="263pt"
 viewBox="0.00 0.00 393.50 262.75" xmlns="http://www.w3.org/2000/svg" xmlns:xlink="http://www.w3.org/1999/xlink">
<g id="page0,1_graph0" class="graph" transform="scale(1 1) rotate(0) translate(4 258.75)">
<title>SMBUS</title>
<!-- Node1 -->
<g id="Node000001" class="node">
<title>Node1</title>
<g id="a_Node000001"><a xlink:title="SMBUS HAL module driver.">
<polygon fill="#999999" stroke="#666666" points="206,-137.75 158.5,-137.75 158.5,-117 206,-117 206,-137.75"/>
<text text-anchor="middle" x="182.25" y="-124.25" font-family="Helvetica,sans-Serif" font-size="10.00">SMBUS</text>
</a>
</g>
</g>
<!-- Node4 -->
<g id="Node000004" class="node">
<title>Node4</title>
<g id="a_Node000004"><a xlink:href="group__SMBUS__Exported__Constants.html" target="_top" xlink:title=" ">
<polygon fill="white" stroke="#666666" points="383.62,-254.75 243.88,-254.75 243.88,-234 383.62,-234 383.62,-254.75"/>
<text text-anchor="middle" x="313.75" y="-241.25" font-family="Helvetica,sans-Serif" font-size="10.00">SMBUS Exported Constants</text>
</a>
</g>
</g>
<!-- Node1&#45;&gt;Node4 -->
<g id="edge3" class="edge">
<title>Node1&#45;&gt;Node4</title>
<path fill="none" stroke="black" d="M190.81,-148.88C199.68,-171.03 216.51,-204.96 242,-224.38 246.87,-228.09 252.41,-231.11 258.18,-233.57"/>
<polygon fill="black" stroke="black" points="194.13,-147.77 187.33,-139.65 187.58,-150.24 194.13,-147.77"/>
</g>
<!-- Node9 -->
<g id="Node000009" class="node">
<title>Node9</title>
<g id="a_Node000009"><a xlink:href="group__SMBUS__Exported__Functions.html" target="_top" xlink:title=" ">
<polygon fill="white" stroke="#666666" points="385.5,-215.75 242,-215.75 242,-195 385.5,-195 385.5,-215.75"/>
<text text-anchor="middle" x="313.75" y="-202.25" font-family="Helvetica,sans-Serif" font-size="10.00">SMBUS_Exported_Functions</text>
</a>
</g>
</g>
<!-- Node1&#45;&gt;Node9 -->
<g id="edge8" class="edge">
<title>Node1&#45;&gt;Node9</title>
<path fill="none" stroke="black" d="M198.2,-146.53C209.08,-159.25 224.86,-175.39 242,-185.38 248.29,-189.04 255.28,-192.06 262.36,-194.54"/>
<polygon fill="black" stroke="black" points="201.21,-144.68 192.15,-139.17 195.8,-149.12 201.21,-144.68"/>
</g>
<!-- Node5 -->
<g id="Node000005" class="node">
<title>Node5</title>
<g id="a_Node000005"><a xlink:href="group__SMBUS__Exported__Macros.html" target="_top" xlink:title=" ">
<polygon fill="white" stroke="#666666" points="376.5,-176.75 251,-176.75 251,-156 376.5,-156 376.5,-176.75"/>
<text text-anchor="middle" x="313.75" y="-163.25" font-family="Helvetica,sans-Serif" font-size="10.00">SMBUS Exported Macros</text>
</a>
</g>
</g>
<!-- Node1&#45;&gt;Node5 -->
<g id="edge4" class="edge">
<title>Node1&#45;&gt;Node5</title>
<path fill="none" stroke="black" d="M217.03,-138.54C225.18,-141.17 233.89,-143.92 242,-146.38 252.14,-149.45 263.14,-152.63 273.38,-155.53"/>
<polygon fill="black" stroke="black" points="218.38,-135.3 207.79,-135.53 216.21,-141.95 218.38,-135.3"/>
</g>
<!-- Node3 -->
<g id="Node000003" class="node">
<title>Node3</title>
<g id="a_Node000003"><a xlink:href="group__SMBUS__Exported__Types.html" target="_top" xlink:title=" ">
<polygon fill="white" stroke="#666666" points="373.5,-137.75 254,-137.75 254,-117 373.5,-117 373.5,-137.75"/>
<text text-anchor="middle" x="313.75" y="-124.25" font-family="Helvetica,sans-Serif" font-size="10.00">SMBUS Exported Types</text>
</a>
</g>
</g>
<!-- Node1&#45;&gt;Node3 -->
<g id="edge2" class="edge">
<title>Node1&#45;&gt;Node3</title>
<path fill="none" stroke="black" d="M217.72,-127.38C228.78,-127.38 241.36,-127.38 253.66,-127.38"/>
<polygon fill="black" stroke="black" points="217.92,-123.88 207.92,-127.38 217.92,-130.88 217.92,-123.88"/>
</g>
<!-- Node6 -->
<g id="Node000006" class="node">
<title>Node6</title>
<g id="a_Node000006"><a xlink:href="group__SMBUS__Private__Constants.html" target="_top" xlink:title=" ">
<polygon fill="white" stroke="#666666" points="378.38,-98.75 249.12,-98.75 249.12,-78 378.38,-78 378.38,-98.75"/>
<text text-anchor="middle" x="313.75" y="-85.25" font-family="Helvetica,sans-Serif" font-size="10.00">SMBUS Private Constants</text>
</a>
</g>
</g>
<!-- Node1&#45;&gt;Node6 -->
<g id="edge5" class="edge">
<title>Node1&#45;&gt;Node6</title>
<path fill="none" stroke="black" d="M217.03,-116.21C225.18,-113.58 233.89,-110.83 242,-108.38 252.14,-105.3 263.14,-102.12 273.38,-99.22"/>
<polygon fill="black" stroke="black" points="216.21,-112.8 207.79,-119.22 218.38,-119.45 216.21,-112.8"/>
</g>
<!-- Node8 -->
<g id="Node000008" class="node">
<title>Node8</title>
<g id="a_Node000008"><a xlink:href="group__SMBUS__Private__Functions.html" target="_top" xlink:title=" ">
<polygon fill="white" stroke="#666666" points="377.25,-59.75 250.25,-59.75 250.25,-39 377.25,-39 377.25,-59.75"/>
<text text-anchor="middle" x="313.75" y="-46.25" font-family="Helvetica,sans-Serif" font-size="10.00">SMBUS Private Functions</text>
</a>
</g>
</g>
<!-- Node1&#45;&gt;Node8 -->
<g id="edge7" class="edge">
<title>Node1&#45;&gt;Node8</title>
<path fill="none" stroke="black" d="M198.2,-108.22C209.08,-95.5 224.86,-79.36 242,-69.38 248.29,-65.71 255.28,-62.69 262.36,-60.21"/>
<polygon fill="black" stroke="black" points="195.8,-105.63 192.15,-115.58 201.21,-110.07 195.8,-105.63"/>
</g>
<!-- Node7 -->
<g id="Node000007" class="node">
<title>Node7</title>
<g id="a_Node000007"><a xlink:href="group__SMBUS__Private__Macros.html" target="_top" xlink:title=" ">
<polygon fill="white" stroke="#666666" points="371.25,-20.75 256.25,-20.75 256.25,0 371.25,0 371.25,-20.75"/>
<text text-anchor="middle" x="313.75" y="-7.25" font-family="Helvetica,sans-Serif" font-size="10.00">SMBUS Private Macros</text>
</a>
</g>
</g>
<!-- Node1&#45;&gt;Node7 -->
<g id="edge6" class="edge">
<title>Node1&#45;&gt;Node7</title>
<path fill="none" stroke="black" d="M190.81,-105.87C199.68,-83.72 216.51,-49.79 242,-30.38 246.87,-26.66 252.41,-23.64 258.18,-21.18"/>
<polygon fill="black" stroke="black" points="187.58,-104.51 187.33,-115.1 194.13,-106.98 187.58,-104.51"/>
</g>
<!-- Node2 -->
<g id="Node000002" class="node">
<title>Node2</title>
<g id="a_Node000002"><a xlink:href="group__STM32F4xx__HAL__Driver.html" target="_top" xlink:title=" ">
<polygon fill="white" stroke="#666666" points="122.5,-137.75 0,-137.75 0,-117 122.5,-117 122.5,-137.75"/>
<text text-anchor="middle" x="61.25" y="-124.25" font-family="Helvetica,sans-Serif" font-size="10.00">STM32F4xx_HAL_Driver</text>
</a>
</g>
</g>
<!-- Node2&#45;&gt;Node1 -->
<g id="edge1" class="edge">
<title>Node2&#45;&gt;Node1</title>
<path fill="none" stroke="black" d="M134.26,-127.38C142.87,-127.38 151.11,-127.38 158.22,-127.38"/>
<polygon fill="black" stroke="black" points="134.31,-123.88 124.31,-127.38 134.31,-130.88 134.31,-123.88"/>
</g>
</g>
</svg>
