<?xml version="1.0" encoding="UTF-8" standalone="no"?>
<!DOCTYPE svg PUBLIC "-//W3C//DTD SVG 1.1//EN"
 "http://www.w3.org/Graphics/SVG/1.1/DTD/svg11.dtd">
<!-- Generated by graphviz version 12.2.1 (20241206.2353)
 -->
<!-- Title: SPI Pages: 1 -->
<svg width="359pt" height="185pt"
 viewBox="0.00 0.00 359.00 184.75" xmlns="http://www.w3.org/2000/svg" xmlns:xlink="http://www.w3.org/1999/xlink">

<svg id="main" version="1.1" xmlns="http://www.w3.org/2000/svg" xmlns:xlink="http://www.w3.org/1999/xlink" xml:space="preserve">

<style type="text/css"><![CDATA[
.node, .edge {opacity: 0.7;}
.node.selected, .edge.selected {opacity: 1;}
.edge:hover path { stroke: red; }
.edge:hover polygon { stroke: red; fill: red; }
]]></style>
<script type="application/ecmascript" xlink:href="svg.min.js"/>
<svg id="graph" class="graph">
<g id="graph0" class="graph" transform="scale(1 1) rotate(0) translate(4 180.75)">
<title>SPI</title>
<!-- Node1 -->
<g id="Node000001" class="node">
<title>Node1</title>
<g id="a_Node000001"><a xlink:title="SPI HAL module driver.">
<polygon fill="#999999" stroke="#666666" points="188.75,-98.75 158.5,-98.75 158.5,-78 188.75,-78 188.75,-98.75"/>
<text text-anchor="middle" x="173.62" y="-85.25" font-family="Helvetica,sans-Serif" font-size="10.00">SPI</text>
</a>
</g>
</g>
<!-- Node4 -->
<g id="Node000004" class="node">
<title>Node4</title>
<g id="a_Node000004"><a xlink:href="group__SPI__Exported__Constants.html" target="_top" xlink:title=" ">
<polygon fill="white" stroke="#666666" points="349.12,-176.75 226.62,-176.75 226.62,-156 349.12,-156 349.12,-176.75"/>
<text text-anchor="middle" x="287.88" y="-163.25" font-family="Helvetica,sans-Serif" font-size="10.00">SPI Exported Constants</text>
</a>
</g>
</g>
<!-- Node1&#45;&gt;Node4 -->
<g id="edge3" class="edge">
<title>Node1&#45;&gt;Node4</title>
<path fill="none" stroke="black" d="M187.45,-108.15C196.51,-120.7 209.69,-136.4 224.75,-146.38 230.23,-150 236.42,-153.01 242.71,-155.5"/>
<polygon fill="black" stroke="black" points="190.52,-106.43 181.97,-100.18 184.75,-110.4 190.52,-106.43"/>
</g>
<!-- Node7 -->
<g id="Node000007" class="node">
<title>Node7</title>
<g id="a_Node000007"><a xlink:href="group__SPI__Exported__Functions.html" target="_top" xlink:title=" ">
<polygon fill="white" stroke="#666666" points="351,-137.75 224.75,-137.75 224.75,-117 351,-117 351,-137.75"/>
<text text-anchor="middle" x="287.88" y="-124.25" font-family="Helvetica,sans-Serif" font-size="10.00">SPI_Exported_Functions</text>
</a>
</g>
</g>
<!-- Node1&#45;&gt;Node7 -->
<g id="edge6" class="edge">
<title>Node1&#45;&gt;Node7</title>
<path fill="none" stroke="black" d="M199.57,-98.12C207.58,-101.17 216.51,-104.49 224.75,-107.38 233.63,-110.48 243.28,-113.68 252.27,-116.58"/>
<polygon fill="black" stroke="black" points="201.03,-94.93 190.44,-94.6 198.52,-101.46 201.03,-94.93"/>
</g>
<!-- Node5 -->
<g id="Node000005" class="node">
<title>Node5</title>
<g id="a_Node000005"><a xlink:href="group__SPI__Exported__Macros.html" target="_top" xlink:title=" ">
<polygon fill="white" stroke="#666666" points="342,-98.75 233.75,-98.75 233.75,-78 342,-78 342,-98.75"/>
<text text-anchor="middle" x="287.88" y="-85.25" font-family="Helvetica,sans-Serif" font-size="10.00">SPI Exported Macros</text>
</a>
</g>
</g>
<!-- Node1&#45;&gt;Node5 -->
<g id="edge4" class="edge">
<title>Node1&#45;&gt;Node5</title>
<path fill="none" stroke="black" d="M200.25,-88.38C210.14,-88.38 221.84,-88.38 233.39,-88.38"/>
<polygon fill="black" stroke="black" points="200.36,-84.88 190.36,-88.38 200.36,-91.88 200.36,-84.88"/>
</g>
<!-- Node3 -->
<g id="Node000003" class="node">
<title>Node3</title>
<g id="a_Node000003"><a xlink:href="group__SPI__Exported__Types.html" target="_top" xlink:title=" ">
<polygon fill="white" stroke="#666666" points="339,-59.75 236.75,-59.75 236.75,-39 339,-39 339,-59.75"/>
<text text-anchor="middle" x="287.88" y="-46.25" font-family="Helvetica,sans-Serif" font-size="10.00">SPI Exported Types</text>
</a>
</g>
</g>
<!-- Node1&#45;&gt;Node3 -->
<g id="edge2" class="edge">
<title>Node1&#45;&gt;Node3</title>
<path fill="none" stroke="black" d="M199.57,-78.63C207.58,-75.58 216.51,-72.26 224.75,-69.38 233.63,-66.27 243.28,-63.07 252.27,-60.17"/>
<polygon fill="black" stroke="black" points="198.52,-75.29 190.44,-82.15 201.03,-81.82 198.52,-75.29"/>
</g>
<!-- Node6 -->
<g id="Node000006" class="node">
<title>Node6</title>
<g id="a_Node000006"><a xlink:href="group__SPI__Private__Macros.html" target="_top" xlink:title=" ">
<polygon fill="white" stroke="#666666" points="336.75,-20.75 239,-20.75 239,0 336.75,0 336.75,-20.75"/>
<text text-anchor="middle" x="287.88" y="-7.25" font-family="Helvetica,sans-Serif" font-size="10.00">SPI Private Macros</text>
</a>
</g>
</g>
<!-- Node1&#45;&gt;Node6 -->
<g id="edge5" class="edge">
<title>Node1&#45;&gt;Node6</title>
<path fill="none" stroke="black" d="M187.45,-68.6C196.51,-56.05 209.69,-40.35 224.75,-30.38 230.23,-26.75 236.42,-23.74 242.71,-21.25"/>
<polygon fill="black" stroke="black" points="184.75,-66.35 181.97,-76.57 190.52,-70.32 184.75,-66.35"/>
</g>
<!-- Node2 -->
<g id="Node000002" class="node">
<title>Node2</title>
<g id="a_Node000002"><a xlink:href="group__STM32F4xx__HAL__Driver.html" target="_top" xlink:title=" ">
<polygon fill="white" stroke="#666666" points="122.5,-98.75 0,-98.75 0,-78 122.5,-78 122.5,-98.75"/>
<text text-anchor="middle" x="61.25" y="-85.25" font-family="Helvetica,sans-Serif" font-size="10.00">STM32F4xx_HAL_Driver</text>
</a>
</g>
</g>
<!-- Node2&#45;&gt;Node1 -->
<g id="edge1" class="edge">
<title>Node2&#45;&gt;Node1</title>
<path fill="none" stroke="black" d="M134.21,-88.38C143.26,-88.38 151.64,-88.38 158.25,-88.38"/>
<polygon fill="black" stroke="black" points="134.44,-84.88 124.44,-88.38 134.44,-91.88 134.44,-84.88"/>
</g>
</g>
</svg>
</svg>

<style type='text/css'>
<![CDATA[
[data-mouse-over-selected='false'] { opacity: 0.7; }
[data-mouse-over-selected='true']  { opacity: 1.0; }
]]>
</style>
<script type="application/ecmascript"><![CDATA[
document.addEventListener('DOMContentLoaded', (event) => {
  highlightEdges();
  highlightAdjacentNodes();
});
]]></script>
</svg>
