<?xml version="1.0" encoding="UTF-8" standalone="no"?>
<!DOCTYPE svg PUBLIC "-//W3C//DTD SVG 1.1//EN"
 "http://www.w3.org/Graphics/SVG/1.1/DTD/svg11.dtd">
<!-- Generated by graphviz version 12.2.1 (20241206.2353)
 -->
<!-- Title: FLASHEx Pages: 1 -->
<svg width="412pt" height="224pt"
 viewBox="0.00 0.00 411.50 223.75" xmlns="http://www.w3.org/2000/svg" xmlns:xlink="http://www.w3.org/1999/xlink">

<svg id="main" version="1.1" xmlns="http://www.w3.org/2000/svg" xmlns:xlink="http://www.w3.org/1999/xlink" xml:space="preserve">

<style type="text/css"><![CDATA[
.node, .edge {opacity: 0.7;}
.node.selected, .edge.selected {opacity: 1;}
.edge:hover path { stroke: red; }
.edge:hover polygon { stroke: red; fill: red; }
]]></style>
<script type="application/ecmascript" xlink:href="svg.min.js"/>
<svg id="graph" class="graph">
<g id="graph0" class="graph" transform="scale(1 1) rotate(0) translate(4 219.75)">
<title>FLASHEx</title>
<!-- Node1 -->
<g id="Node000001" class="node">
<title>Node1</title>
<g id="a_Node000001"><a xlink:title="FLASH HAL Extension module driver.">
<polygon fill="#999999" stroke="#666666" points="215,-117.75 158.5,-117.75 158.5,-97 215,-97 215,-117.75"/>
<text text-anchor="middle" x="186.75" y="-104.25" font-family="Helvetica,sans-Serif" font-size="10.00">FLASHEx</text>
</a>
</g>
</g>
<!-- Node4 -->
<g id="Node000004" class="node">
<title>Node4</title>
<g id="a_Node000004"><a xlink:href="group__FLASHEx__Exported__Constants.html" target="_top" xlink:title=" ">
<polygon fill="white" stroke="#666666" points="396.38,-215.75 258.12,-215.75 258.12,-195 396.38,-195 396.38,-215.75"/>
<text text-anchor="middle" x="327.25" y="-202.25" font-family="Helvetica,sans-Serif" font-size="10.00">FLASH Exported Constants</text>
</a>
</g>
</g>
<!-- Node1&#45;&gt;Node4 -->
<g id="edge3" class="edge">
<title>Node1&#45;&gt;Node4</title>
<path fill="none" stroke="black" d="M199.15,-127.73C210.17,-145.54 228.47,-170.79 251,-185.38 256.67,-189.05 263,-192.05 269.51,-194.5"/>
<polygon fill="black" stroke="black" points="202.27,-126.13 194.17,-119.3 196.25,-129.69 202.27,-126.13"/>
</g>
<!-- Node8 -->
<g id="Node000008" class="node">
<title>Node8</title>
<g id="a_Node000008"><a xlink:href="group__FLASHEx__Exported__Functions.html" target="_top" xlink:title=" ">
<polygon fill="white" stroke="#666666" points="403.5,-176.75 251,-176.75 251,-156 403.5,-156 403.5,-176.75"/>
<text text-anchor="middle" x="327.25" y="-163.25" font-family="Helvetica,sans-Serif" font-size="10.00">FLASHEx_Exported_Functions</text>
</a>
</g>
</g>
<!-- Node1&#45;&gt;Node8 -->
<g id="edge7" class="edge">
<title>Node1&#45;&gt;Node8</title>
<path fill="none" stroke="black" d="M211.47,-124.3C222.97,-131.9 237.25,-140.46 251,-146.38 259.2,-149.9 268.17,-152.94 276.97,-155.5"/>
<polygon fill="black" stroke="black" points="213.65,-121.55 203.41,-118.82 209.71,-127.34 213.65,-121.55"/>
</g>
<!-- Node3 -->
<g id="Node000003" class="node">
<title>Node3</title>
<g id="a_Node000003"><a xlink:href="group__FLASHEx__Exported__Types.html" target="_top" xlink:title=" ">
<polygon fill="white" stroke="#666666" points="386.25,-137.75 268.25,-137.75 268.25,-117 386.25,-117 386.25,-137.75"/>
<text text-anchor="middle" x="327.25" y="-124.25" font-family="Helvetica,sans-Serif" font-size="10.00">FLASH Exported Types</text>
</a>
</g>
</g>
<!-- Node1&#45;&gt;Node3 -->
<g id="edge2" class="edge">
<title>Node1&#45;&gt;Node3</title>
<path fill="none" stroke="black" d="M226.67,-112.99C239.49,-114.85 254.04,-116.95 267.98,-118.96"/>
<polygon fill="black" stroke="black" points="227.34,-109.56 216.94,-111.59 226.34,-116.48 227.34,-109.56"/>
</g>
<!-- Node5 -->
<g id="Node000005" class="node">
<title>Node5</title>
<g id="a_Node000005"><a xlink:href="group__FLASHEx__Private__Constants.html" target="_top" xlink:title=" ">
<polygon fill="white" stroke="#666666" points="391.12,-98.75 263.38,-98.75 263.38,-78 391.12,-78 391.12,-98.75"/>
<text text-anchor="middle" x="327.25" y="-85.25" font-family="Helvetica,sans-Serif" font-size="10.00">FLASH Private Constants</text>
</a>
</g>
</g>
<!-- Node1&#45;&gt;Node5 -->
<g id="edge4" class="edge">
<title>Node1&#45;&gt;Node5</title>
<path fill="none" stroke="black" d="M226.69,-102.03C238.02,-100.48 250.69,-98.74 263.1,-97.04"/>
<polygon fill="black" stroke="black" points="226.38,-98.54 216.94,-103.37 227.33,-105.48 226.38,-98.54"/>
</g>
<!-- Node7 -->
<g id="Node000007" class="node">
<title>Node7</title>
<g id="a_Node000007"><a xlink:href="group__FLASHEx__Private__Functions.html" target="_top" xlink:title=" ">
<polygon fill="white" stroke="#666666" points="390,-59.75 264.5,-59.75 264.5,-39 390,-39 390,-59.75"/>
<text text-anchor="middle" x="327.25" y="-46.25" font-family="Helvetica,sans-Serif" font-size="10.00">FLASH Private Functions</text>
</a>
</g>
</g>
<!-- Node1&#45;&gt;Node7 -->
<g id="edge6" class="edge">
<title>Node1&#45;&gt;Node7</title>
<path fill="none" stroke="black" d="M212.57,-90.24C223.89,-83.02 237.72,-74.99 251,-69.38 259.34,-65.84 268.47,-62.79 277.4,-60.21"/>
<polygon fill="black" stroke="black" points="210.65,-87.32 204.22,-95.73 214.5,-93.16 210.65,-87.32"/>
</g>
<!-- Node6 -->
<g id="Node000006" class="node">
<title>Node6</title>
<g id="a_Node000006"><a xlink:href="group__FLASHEx__Private__Macros.html" target="_top" xlink:title=" ">
<polygon fill="white" stroke="#666666" points="384,-20.75 270.5,-20.75 270.5,0 384,0 384,-20.75"/>
<text text-anchor="middle" x="327.25" y="-7.25" font-family="Helvetica,sans-Serif" font-size="10.00">FLASH Private Macros</text>
</a>
</g>
</g>
<!-- Node1&#45;&gt;Node6 -->
<g id="edge5" class="edge">
<title>Node1&#45;&gt;Node6</title>
<path fill="none" stroke="black" d="M199.24,-87.24C210.3,-69.66 228.62,-44.77 251,-30.38 256.91,-26.57 263.53,-23.49 270.32,-20.99"/>
<polygon fill="black" stroke="black" points="196.54,-84.95 194.37,-95.32 202.53,-88.56 196.54,-84.95"/>
</g>
<!-- Node2 -->
<g id="Node000002" class="node">
<title>Node2</title>
<g id="a_Node000002"><a xlink:href="group__STM32F4xx__HAL__Driver.html" target="_top" xlink:title=" ">
<polygon fill="white" stroke="#666666" points="122.5,-117.75 0,-117.75 0,-97 122.5,-97 122.5,-117.75"/>
<text text-anchor="middle" x="61.25" y="-104.25" font-family="Helvetica,sans-Serif" font-size="10.00">STM32F4xx_HAL_Driver</text>
</a>
</g>
</g>
<!-- Node2&#45;&gt;Node1 -->
<g id="edge1" class="edge">
<title>Node2&#45;&gt;Node1</title>
<path fill="none" stroke="black" d="M134.42,-107.38C142.79,-107.38 150.89,-107.38 158.09,-107.38"/>
<polygon fill="black" stroke="black" points="134.43,-103.88 124.43,-107.38 134.43,-110.88 134.43,-103.88"/>
</g>
</g>
</svg>
</svg>

<style type='text/css'>
<![CDATA[
[data-mouse-over-selected='false'] { opacity: 0.7; }
[data-mouse-over-selected='true']  { opacity: 1.0; }
]]>
</style>
<script type="application/ecmascript"><![CDATA[
document.addEventListener('DOMContentLoaded', (event) => {
  highlightEdges();
  highlightAdjacentNodes();
});
]]></script>
</svg>
