<?xml version="1.0" encoding="UTF-8" standalone="no"?>
<!DOCTYPE svg PUBLIC "-//W3C//DTD SVG 1.1//EN"
 "http://www.w3.org/Graphics/SVG/1.1/DTD/svg11.dtd">
<!-- Generated by graphviz version 12.2.1 (20241206.2353)
 -->
<!-- Title: Input and Output operation functions Pages: 1 -->
<svg width="514pt" height="107pt"
 viewBox="0.00 0.00 513.50 106.75" xmlns="http://www.w3.org/2000/svg" xmlns:xlink="http://www.w3.org/1999/xlink">
<g id="page0,1_graph0" class="graph" transform="scale(1 1) rotate(0) translate(4 102.75)">
<title>Input and Output operation functions</title>
<!-- Node3 -->
<g id="Node000003" class="node">
<title>Node3</title>
<g id="a_Node000003"><a xlink:href="group__Blocking__mode__Polling.html" target="_top" xlink:title=" ">
<polygon fill="white" stroke="#666666" points="489.38,-98.75 371.38,-98.75 371.38,-78 489.38,-78 489.38,-98.75"/>
<text text-anchor="middle" x="430.38" y="-85.25" font-family="Helvetica,sans-Serif" font-size="10.00">Blocking mode Polling</text>
</a>
</g>
</g>
<!-- Node4 -->
<g id="Node000004" class="node">
<title>Node4</title>
<g id="a_Node000004"><a xlink:href="group__Non-Blocking__mode__Interrupt.html" target="_top" xlink:title=" ">
<polygon fill="white" stroke="#666666" points="505.5,-59.75 355.25,-59.75 355.25,-39 505.5,-39 505.5,-59.75"/>
<text text-anchor="middle" x="430.38" y="-46.25" font-family="Helvetica,sans-Serif" font-size="10.00">Non&#45;Blocking mode Interrupt</text>
</a>
</g>
</g>
<!-- Node2 -->
<g id="Node000002" class="node">
<title>Node2</title>
<g id="a_Node000002"><a xlink:href="group__SMBUS__Exported__Functions.html" target="_top" xlink:title=" ">
<polygon fill="white" stroke="#666666" points="143.5,-59.75 0,-59.75 0,-39 143.5,-39 143.5,-59.75"/>
<text text-anchor="middle" x="71.75" y="-46.25" font-family="Helvetica,sans-Serif" font-size="10.00">SMBUS_Exported_Functions</text>
</a>
</g>
</g>
<!-- Node1 -->
<g id="Node000001" class="node">
<title>Node1</title>
<g id="a_Node000001"><a xlink:title=" ">
<polygon fill="#999999" stroke="#666666" points="319.25,-66.12 179.5,-66.12 179.5,-32.62 319.25,-32.62 319.25,-66.12"/>
<text text-anchor="start" x="187.5" y="-52.62" font-family="Helvetica,sans-Serif" font-size="10.00">Input and Output operation</text>
<text text-anchor="middle" x="249.38" y="-39.88" font-family="Helvetica,sans-Serif" font-size="10.00"> functions</text>
</a>
</g>
</g>
<!-- Node2&#45;&gt;Node1 -->
<g id="edge1" class="edge">
<title>Node2&#45;&gt;Node1</title>
<path fill="none" stroke="black" d="M155.17,-49.38C163.17,-49.38 171.23,-49.38 179.09,-49.38"/>
<polygon fill="black" stroke="black" points="155.44,-45.88 145.44,-49.38 155.44,-52.88 155.44,-45.88"/>
</g>
<!-- Node1&#45;&gt;Node3 -->
<g id="edge2" class="edge">
<title>Node1&#45;&gt;Node3</title>
<path fill="none" stroke="black" d="M330.46,-66.82C347.15,-70.46 364.28,-74.19 379.5,-77.51"/>
<polygon fill="black" stroke="black" points="331.58,-63.48 321.06,-64.78 330.09,-70.32 331.58,-63.48"/>
</g>
<!-- Node1&#45;&gt;Node4 -->
<g id="edge3" class="edge">
<title>Node1&#45;&gt;Node4</title>
<path fill="none" stroke="black" d="M330.86,-49.38C338.9,-49.38 347.04,-49.38 355.01,-49.38"/>
<polygon fill="black" stroke="black" points="331.09,-45.88 321.09,-49.38 331.09,-52.88 331.09,-45.88"/>
</g>
<!-- Node5 -->
<g id="Node000005" class="node">
<title>Node5</title>
<g id="a_Node000005"><a xlink:href="group__SMBUS__IRQ__Handler__and__Callbacks.html" target="_top" xlink:title=" ">
<polygon fill="white" stroke="#666666" points="498.75,-20.75 362,-20.75 362,0 498.75,0 498.75,-20.75"/>
<text text-anchor="middle" x="430.38" y="-7.25" font-family="Helvetica,sans-Serif" font-size="10.00">IRQ Handler and Callbacks</text>
</a>
</g>
</g>
<!-- Node1&#45;&gt;Node5 -->
<g id="edge4" class="edge">
<title>Node1&#45;&gt;Node5</title>
<path fill="none" stroke="black" d="M330.46,-31.93C347.15,-28.29 364.28,-24.56 379.5,-21.24"/>
<polygon fill="black" stroke="black" points="330.09,-28.43 321.06,-33.97 331.58,-35.27 330.09,-28.43"/>
</g>
</g>
</svg>
