<?xml version="1.0" encoding="UTF-8" standalone="no"?>
<!DOCTYPE svg PUBLIC "-//W3C//DTD SVG 1.1//EN"
 "http://www.w3.org/Graphics/SVG/1.1/DTD/svg11.dtd">
<!-- Generated by graphviz version 2.43.0 (0)
 -->
<!-- Title: HAL_InitTick Pages: 1 -->
<svg width="263pt" height="212pt"
 viewBox="0.00 0.00 263.00 212.00" xmlns="http://www.w3.org/2000/svg" xmlns:xlink="http://www.w3.org/1999/xlink">

<svg id="main" version="1.1" xmlns="http://www.w3.org/2000/svg" xmlns:xlink="http://www.w3.org/1999/xlink" xml:space="preserve">

<style type="text/css"><![CDATA[
.node, .edge {opacity: 0.7;}
.node.selected, .edge.selected {opacity: 1;}
.edge:hover path { stroke: red; }
.edge:hover polygon { stroke: red; fill: red; }
]]></style>
<script type="application/ecmascript" xlink:href="svg.min.js"/>
<svg id="graph" class="graph">
<g id="graph0" class="graph" transform="scale(1 1) rotate(0) translate(4 208)">
<title>HAL_InitTick</title>
<!-- Node1 -->
<g id="Node000001" class="node">
<title>Node1</title>
<g id="a_Node000001"><a xlink:title="This function configures the TIM6 as a time base source. The time source is configured to have 1ms ti...">
<polygon fill="#999999" stroke="#666666" points="77,-111 0,-111 0,-92 77,-92 77,-111"/>
<text text-anchor="middle" x="38.5" y="-99" font-family="Helvetica,sans-Serif" font-size="10.00">HAL_InitTick</text>
</a>
</g>
</g>
<!-- Node2 -->
<g id="Node000002" class="node">
<title>Node2</title>
<g id="a_Node000002"><a xlink:href="group__CORTEX__Exported__Functions__Group1.html#gaaad4492c1b25e006d69948a15790352a" target="_top" xlink:title=" ">
<polygon fill="white" stroke="#666666" points="244.5,-204 123.5,-204 123.5,-185 244.5,-185 244.5,-204"/>
<text text-anchor="middle" x="184" y="-192" font-family="Helvetica,sans-Serif" font-size="10.00">HAL_NVIC_EnableIRQ</text>
</a>
</g>
</g>
<!-- Node1&#45;&gt;Node2 -->
<g id="edge1_Node000001_Node000002" class="edge">
<title>Node1&#45;&gt;Node2</title>
<g id="a_edge1_Node000001_Node000002"><a xlink:title=" ">
<path fill="none" stroke="#63b8ff" d="M46.21,-111.19C57.87,-127.29 83.48,-159.45 113,-176.5 116.03,-178.25 119.22,-179.83 122.51,-181.26"/>
<polygon fill="#63b8ff" stroke="#63b8ff" points="121.4,-184.58 131.99,-184.89 123.91,-178.04 121.4,-184.58"/>
</a>
</g>
</g>
<!-- Node3 -->
<g id="Node000003" class="node">
<title>Node3</title>
<g id="a_Node000003"><a xlink:href="group__CORTEX__Exported__Functions__Group1.html#ga8581a82025a4780efd00876a66e3e91b" target="_top" xlink:title=" ">
<polygon fill="white" stroke="#666666" points="245,-167 123,-167 123,-148 245,-148 245,-167"/>
<text text-anchor="middle" x="184" y="-155" font-family="Helvetica,sans-Serif" font-size="10.00">HAL_NVIC_SetPriority</text>
</a>
</g>
</g>
<!-- Node1&#45;&gt;Node3 -->
<g id="edge2_Node000001_Node000003" class="edge">
<title>Node1&#45;&gt;Node3</title>
<g id="a_edge2_Node000001_Node000003"><a xlink:title=" ">
<path fill="none" stroke="#63b8ff" d="M55.36,-111.04C69.93,-119.47 92.33,-131.62 113,-139.5 118.41,-141.56 124.14,-143.47 129.9,-145.2"/>
<polygon fill="#63b8ff" stroke="#63b8ff" points="129,-148.58 139.58,-147.96 130.92,-141.85 129,-148.58"/>
</a>
</g>
</g>
<!-- Node4 -->
<g id="Node000004" class="node">
<title>Node4</title>
<g id="a_Node000004"><a xlink:href="group__RCC__Exported__Functions__Group2.html#gabc95375dfca279d88b9ded9d063d2323" target="_top" xlink:title=" ">
<polygon fill="white" stroke="#666666" points="255,-130 113,-130 113,-111 255,-111 255,-130"/>
<text text-anchor="middle" x="184" y="-118" font-family="Helvetica,sans-Serif" font-size="10.00">HAL_RCC_GetClockConfig</text>
</a>
</g>
</g>
<!-- Node1&#45;&gt;Node4 -->
<g id="edge3_Node000001_Node000004" class="edge">
<title>Node1&#45;&gt;Node4</title>
<g id="a_edge3_Node000001_Node000004"><a xlink:title=" ">
<path fill="none" stroke="#63b8ff" d="M77.2,-106.49C85.17,-107.55 93.86,-108.7 102.73,-109.87"/>
<polygon fill="#63b8ff" stroke="#63b8ff" points="102.41,-113.36 112.79,-111.2 103.33,-106.42 102.41,-113.36"/>
</a>
</g>
</g>
<!-- Node5 -->
<g id="Node000005" class="node">
<title>Node5</title>
<g id="a_Node000005"><a xlink:href="group__RCC__Exported__Functions__Group2.html#gab3042d8ac5703ac696cabf0ee461c599" target="_top" xlink:title=" ">
<polygon fill="white" stroke="#666666" points="252,-93 116,-93 116,-74 252,-74 252,-93"/>
<text text-anchor="middle" x="184" y="-81" font-family="Helvetica,sans-Serif" font-size="10.00">HAL_RCC_GetPCLK1Freq</text>
</a>
</g>
</g>
<!-- Node1&#45;&gt;Node5 -->
<g id="edge4_Node000001_Node000005" class="edge">
<title>Node1&#45;&gt;Node5</title>
<g id="a_edge4_Node000001_Node000005"><a xlink:title=" ">
<path fill="none" stroke="#63b8ff" d="M77.2,-96.77C86.11,-95.65 95.93,-94.42 105.88,-93.17"/>
<polygon fill="#63b8ff" stroke="#63b8ff" points="106.37,-96.64 115.86,-91.92 105.5,-89.69 106.37,-96.64"/>
</a>
</g>
</g>
<!-- Node6 -->
<g id="Node000006" class="node">
<title>Node6</title>
<g id="a_Node000006"><a xlink:href="group__TIM__Exported__Functions__Group1.html#ga1b288eb68eb52c97b8d187cdd6e9088f" target="_top" xlink:title=" ">
<polygon fill="white" stroke="#666666" points="239,-56 129,-56 129,-37 239,-37 239,-56"/>
<text text-anchor="middle" x="184" y="-44" font-family="Helvetica,sans-Serif" font-size="10.00">HAL_TIM_Base_Init</text>
</a>
</g>
</g>
<!-- Node1&#45;&gt;Node6 -->
<g id="edge5_Node000001_Node000006" class="edge">
<title>Node1&#45;&gt;Node6</title>
<g id="a_edge5_Node000001_Node000006"><a xlink:title=" ">
<path fill="none" stroke="#63b8ff" d="M56.61,-91.96C71.25,-84.08 93.05,-73.01 113,-65.5 119.33,-63.11 126.09,-60.89 132.82,-58.87"/>
<polygon fill="#63b8ff" stroke="#63b8ff" points="133.96,-62.19 142.6,-56.06 132.03,-55.46 133.96,-62.19"/>
</a>
</g>
</g>
<!-- Node7 -->
<g id="Node000007" class="node">
<title>Node7</title>
<g id="a_Node000007"><a xlink:href="group__TIM__Exported__Functions__Group1.html#gae517d80e2ac713069767df8e8915971e" target="_top" xlink:title=" ">
<polygon fill="white" stroke="#666666" points="249.5,-19 118.5,-19 118.5,0 249.5,0 249.5,-19"/>
<text text-anchor="middle" x="184" y="-7" font-family="Helvetica,sans-Serif" font-size="10.00">HAL_TIM_Base_Start_IT</text>
</a>
</g>
</g>
<!-- Node1&#45;&gt;Node7 -->
<g id="edge6_Node000001_Node000007" class="edge">
<title>Node1&#45;&gt;Node7</title>
<g id="a_edge6_Node000001_Node000007"><a xlink:title=" ">
<path fill="none" stroke="#63b8ff" d="M46.48,-91.86C58.36,-76.18 84.03,-45.22 113,-28.5 116.85,-26.28 120.96,-24.31 125.2,-22.57"/>
<polygon fill="#63b8ff" stroke="#63b8ff" points="126.44,-25.84 134.61,-19.09 124.02,-19.27 126.44,-25.84"/>
</a>
</g>
</g>
</g>
</svg>
</svg>

<style type='text/css'>
<![CDATA[
[data-mouse-over-selected='false'] { opacity: 0.7; }
[data-mouse-over-selected='true']  { opacity: 1.0; }
]]>
</style>
<script type="application/ecmascript"><![CDATA[
document.addEventListener('DOMContentLoaded', (event) => {
  highlightEdges();
  highlightAdjacentNodes();
});
]]></script>
</svg>
