<?xml version="1.0" encoding="UTF-8" standalone="no"?>
<!DOCTYPE svg PUBLIC "-//W3C//DTD SVG 1.1//EN"
 "http://www.w3.org/Graphics/SVG/1.1/DTD/svg11.dtd">
<!-- Generated by graphviz version 12.2.1 (20241206.2353)
 -->
<!-- Title: TIM Exported Constants Pages: 1 -->
<!--zoomable 2079 -->

<svg id="main" version="1.1" xmlns="http://www.w3.org/2000/svg" xmlns:xlink="http://www.w3.org/1999/xlink" xml:space="preserve" onload="init(evt)">

<style type="text/css"><![CDATA[
.node, .edge {opacity: 0.7;}
.node.selected, .edge.selected {opacity: 1;}
.edge:hover path { stroke: red; }
.edge:hover polygon { stroke: red; fill: red; }
]]></style>

<defs>
  <circle id="rim" cx="0" cy="0" r="7"/>
  <circle id="rim2" cx="0" cy="0" r="3.5"/>
  <g id="zoomPlus">
    <use xlink:href="#rim" fill="#404040"><set attributeName="fill" to="#808080" begin="zoomplus.mouseover" end="zoomplus.mouseout"/></use>
    <path d="M-4,0h8M0,-4v8" fill="none" stroke="white" stroke-width="1.5" pointer-events="none"/>
  </g>
  <g id="zoomMin">
    <use xlink:href="#rim" fill="#404040"><set attributeName="fill" to="#808080" begin="zoomminus.mouseover" end="zoomminus.mouseout"/></use>
    <path d="M-4,0h8" fill="none" stroke="white" stroke-width="1.5" pointer-events="none"/>
  </g>
  <g id="arrowUp" transform="translate(30 24)">
    <use xlink:href="#rim"/>
    <path pointer-events="none" fill="none" stroke="white" stroke-width="1.5" d="M0,-3.0v7 M-2.5,-0.5L0,-3.0L2.5,-0.5"/>
  </g>
  <g id="arrowRight" transform="rotate(90) translate(36 -43)">
    <use xlink:href="#rim"/>
    <path pointer-events="none" fill="none" stroke="white" stroke-width="1.5" d="M0,-3.0v7 M-2.5,-0.5L0,-3.0L2.5,-0.5"/>
  </g>
  <g id="arrowDown" transform="rotate(180) translate(-30 -48)">
    <use xlink:href="#rim"/>
    <path pointer-events="none" fill="none" stroke="white" stroke-width="1.5" d="M0,-3.0v7 M-2.5,-0.5L0,-3.0L2.5,-0.5"/>
  </g>
  <g id="arrowLeft" transform="rotate(270) translate(-36 17)">
    <use xlink:href="#rim"/>
    <path pointer-events="none" fill="none" stroke="white" stroke-width="1.5" d="M0,-3.0v7 M-2.5,-0.5L0,-3.0L2.5,-0.5"/>
  </g>
  <g id="resetDef">
    <use xlink:href="#rim2" fill="#404040"><set attributeName="fill" to="#808080" begin="reset.mouseover" end="reset.mouseout"/></use>
  </g>
</defs>
<script type="application/ecmascript">
var viewWidth = 382;
var viewHeight = 2079;
var sectionId = 'dynsection-0';
</script>
<script type="application/ecmascript" xlink:href="svg.min.js"/>
<svg id="graph" class="graph">
<g id="viewport">
<title>TIM Exported Constants</title>
<!-- Node52 -->
<g id="Node000052" class="node">
<title>Node52</title>
<g id="a_Node000052"><a xlink:href="group__Channel__CC__State.html" target="_top" xlink:title=" ">
<polygon fill="white" stroke="#666666" points="361.12,-2071.12 243.88,-2071.12 243.88,-2037.62 361.12,-2037.62 361.12,-2071.12"/>
<text text-anchor="start" x="251.88" y="-2057.62" font-family="Helvetica,sans-Serif" font-size="10.00">TIM Capture/Compare</text>
<text text-anchor="middle" x="302.5" y="-2044.88" font-family="Helvetica,sans-Serif" font-size="10.00"> Channel State</text>
</a>
</g>
</g>
<!-- Node51 -->
<g id="Node000051" class="node">
<title>Node51</title>
<g id="a_Node000051"><a xlink:href="group__DMA__Handle__index.html" target="_top" xlink:title=" ">
<polygon fill="white" stroke="#666666" points="361.88,-2019.75 243.12,-2019.75 243.12,-1999 361.88,-1999 361.88,-2019.75"/>
<text text-anchor="middle" x="302.5" y="-2006.25" font-family="Helvetica,sans-Serif" font-size="10.00">TIM DMA Handle Index</text>
</a>
</g>
</g>
<!-- Node2 -->
<g id="Node000002" class="node">
<title>Node2</title>
<g id="a_Node000002"><a xlink:href="group__TIM.html" target="_top" xlink:title="TIM HAL module driver.">
<polygon fill="white" stroke="#666666" points="33.25,-1090.75 0,-1090.75 0,-1070 33.25,-1070 33.25,-1090.75"/>
<text text-anchor="middle" x="16.62" y="-1077.25" font-family="Helvetica,sans-Serif" font-size="10.00">TIM</text>
</a>
</g>
</g>
<!-- Node1 -->
<g id="Node000001" class="node">
<title>Node1</title>
<g id="a_Node000001"><a xlink:title=" ">
<polygon fill="#999999" stroke="#666666" points="194.75,-1090.75 69.25,-1090.75 69.25,-1070 194.75,-1070 194.75,-1090.75"/>
<text text-anchor="middle" x="132" y="-1077.25" font-family="Helvetica,sans-Serif" font-size="10.00">TIM Exported Constants</text>
</a>
</g>
</g>
<!-- Node2&#45;&gt;Node1 -->
<g id="edge1" class="edge">
<title>Node2&#45;&gt;Node1</title>
<path fill="none" stroke="black" d="M44.76,-1080.38C52.11,-1080.38 60.38,-1080.38 68.82,-1080.38"/>
<polygon fill="black" stroke="black" points="44.9,-1076.88 34.9,-1080.38 44.9,-1083.88 44.9,-1076.88"/>
</g>
<!-- Node41 -->
<g id="Node000041" class="node">
<title>Node41</title>
<g id="a_Node000041"><a xlink:href="group__TIM__AOE__Bit__Set__Reset.html" target="_top" xlink:title=" ">
<polygon fill="white" stroke="#666666" points="360,-1981.12 245,-1981.12 245,-1947.62 360,-1947.62 360,-1981.12"/>
<text text-anchor="start" x="253" y="-1967.62" font-family="Helvetica,sans-Serif" font-size="10.00">TIM Automatic Output</text>
<text text-anchor="middle" x="302.5" y="-1954.88" font-family="Helvetica,sans-Serif" font-size="10.00"> Enable</text>
</a>
</g>
</g>
<!-- Node12 -->
<g id="Node000012" class="node">
<title>Node12</title>
<g id="a_Node000012"><a xlink:href="group__TIM__AutoReloadPreload.html" target="_top" xlink:title=" ">
<polygon fill="white" stroke="#666666" points="367.5,-1929.75 237.5,-1929.75 237.5,-1909 367.5,-1909 367.5,-1929.75"/>
<text text-anchor="middle" x="302.5" y="-1916.25" font-family="Helvetica,sans-Serif" font-size="10.00">TIM Auto&#45;Reload Preload</text>
</a>
</g>
</g>
<!-- Node39 -->
<g id="Node000039" class="node">
<title>Node39</title>
<g id="a_Node000039"><a xlink:href="group__TIM__Break__Input__enable__disable.html" target="_top" xlink:title=" ">
<polygon fill="white" stroke="#666666" points="363,-1890.75 242,-1890.75 242,-1870 363,-1870 363,-1890.75"/>
<text text-anchor="middle" x="302.5" y="-1877.25" font-family="Helvetica,sans-Serif" font-size="10.00">TIM Break Input Enable</text>
</a>
</g>
</g>
<!-- Node40 -->
<g id="Node000040" class="node">
<title>Node40</title>
<g id="a_Node000040"><a xlink:href="group__TIM__Break__Polarity.html" target="_top" xlink:title=" ">
<polygon fill="white" stroke="#666666" points="364.5,-1851.75 240.5,-1851.75 240.5,-1831 364.5,-1831 364.5,-1851.75"/>
<text text-anchor="middle" x="302.5" y="-1838.25" font-family="Helvetica,sans-Serif" font-size="10.00">TIM Break Input Polarity</text>
</a>
</g>
</g>
<!-- Node28 -->
<g id="Node000028" class="node">
<title>Node28</title>
<g id="a_Node000028"><a xlink:href="group__TIM__CC__DMA__Request.html" target="_top" xlink:title=" ">
<polygon fill="white" stroke="#666666" points="370.5,-1812.75 234.5,-1812.75 234.5,-1792 370.5,-1792 370.5,-1812.75"/>
<text text-anchor="middle" x="302.5" y="-1799.25" font-family="Helvetica,sans-Serif" font-size="10.00">CCx DMA request selection</text>
</a>
</g>
</g>
<!-- Node30 -->
<g id="Node000030" class="node">
<title>Node30</title>
<g id="a_Node000030"><a xlink:href="group__TIM__Channel.html" target="_top" xlink:title=" ">
<polygon fill="white" stroke="#666666" points="339.38,-1773.75 265.62,-1773.75 265.62,-1753 339.38,-1753 339.38,-1773.75"/>
<text text-anchor="middle" x="302.5" y="-1760.25" font-family="Helvetica,sans-Serif" font-size="10.00">TIM Channel</text>
</a>
</g>
</g>
<!-- Node34 -->
<g id="Node000034" class="node">
<title>Node34</title>
<g id="a_Node000034"><a xlink:href="group__TIM__ClearInput__Polarity.html" target="_top" xlink:title=" ">
<polygon fill="white" stroke="#666666" points="363.75,-1734.75 241.25,-1734.75 241.25,-1714 363.75,-1714 363.75,-1734.75"/>
<text text-anchor="middle" x="302.5" y="-1721.25" font-family="Helvetica,sans-Serif" font-size="10.00">TIM Clear Input Polarity</text>
</a>
</g>
</g>
<!-- Node35 -->
<g id="Node000035" class="node">
<title>Node35</title>
<g id="a_Node000035"><a xlink:href="group__TIM__ClearInput__Prescaler.html" target="_top" xlink:title=" ">
<polygon fill="white" stroke="#666666" points="367.12,-1695.75 237.88,-1695.75 237.88,-1675 367.12,-1675 367.12,-1695.75"/>
<text text-anchor="middle" x="302.5" y="-1682.25" font-family="Helvetica,sans-Serif" font-size="10.00">TIM Clear Input Prescaler</text>
</a>
</g>
</g>
<!-- Node3 -->
<g id="Node000003" class="node">
<title>Node3</title>
<g id="a_Node000003"><a xlink:href="group__TIM__ClearInput__Source.html" target="_top" xlink:title=" ">
<polygon fill="white" stroke="#666666" points="361.5,-1656.75 243.5,-1656.75 243.5,-1636 361.5,-1636 361.5,-1656.75"/>
<text text-anchor="middle" x="302.5" y="-1643.25" font-family="Helvetica,sans-Serif" font-size="10.00">TIM Clear Input Source</text>
</a>
</g>
</g>
<!-- Node10 -->
<g id="Node000010" class="node">
<title>Node10</title>
<g id="a_Node000010"><a xlink:href="group__TIM__ClockDivision.html" target="_top" xlink:title=" ">
<polygon fill="white" stroke="#666666" points="351.38,-1617.75 253.62,-1617.75 253.62,-1597 351.38,-1597 351.38,-1617.75"/>
<text text-anchor="middle" x="302.5" y="-1604.25" font-family="Helvetica,sans-Serif" font-size="10.00">TIM Clock Division</text>
</a>
</g>
</g>
<!-- Node32 -->
<g id="Node000032" class="node">
<title>Node32</title>
<g id="a_Node000032"><a xlink:href="group__TIM__Clock__Polarity.html" target="_top" xlink:title=" ">
<polygon fill="white" stroke="#666666" points="351.38,-1578.75 253.62,-1578.75 253.62,-1558 351.38,-1558 351.38,-1578.75"/>
<text text-anchor="middle" x="302.5" y="-1565.25" font-family="Helvetica,sans-Serif" font-size="10.00">TIM Clock Polarity</text>
</a>
</g>
</g>
<!-- Node33 -->
<g id="Node000033" class="node">
<title>Node33</title>
<g id="a_Node000033"><a xlink:href="group__TIM__Clock__Prescaler.html" target="_top" xlink:title=" ">
<polygon fill="white" stroke="#666666" points="354.75,-1539.75 250.25,-1539.75 250.25,-1519 354.75,-1519 354.75,-1539.75"/>
<text text-anchor="middle" x="302.5" y="-1526.25" font-family="Helvetica,sans-Serif" font-size="10.00">TIM Clock Prescaler</text>
</a>
</g>
</g>
<!-- Node31 -->
<g id="Node000031" class="node">
<title>Node31</title>
<g id="a_Node000031"><a xlink:href="group__TIM__Clock__Source.html" target="_top" xlink:title=" ">
<polygon fill="white" stroke="#666666" points="349.12,-1500.75 255.88,-1500.75 255.88,-1480 349.12,-1480 349.12,-1500.75"/>
<text text-anchor="middle" x="302.5" y="-1487.25" font-family="Helvetica,sans-Serif" font-size="10.00">TIM Clock Source</text>
</a>
</g>
</g>
<!-- Node26 -->
<g id="Node000026" class="node">
<title>Node26</title>
<g id="a_Node000026"><a xlink:href="group__TIM__Commutation__Source.html" target="_top" xlink:title=" ">
<polygon fill="white" stroke="#666666" points="367.88,-1461.75 237.12,-1461.75 237.12,-1441 367.88,-1441 367.88,-1461.75"/>
<text text-anchor="middle" x="302.5" y="-1448.25" font-family="Helvetica,sans-Serif" font-size="10.00">TIM Commutation Source</text>
</a>
</g>
</g>
<!-- Node9 -->
<g id="Node000009" class="node">
<title>Node9</title>
<g id="a_Node000009"><a xlink:href="group__TIM__Counter__Mode.html" target="_top" xlink:title=" ">
<polygon fill="white" stroke="#666666" points="352.5,-1422.75 252.5,-1422.75 252.5,-1402 352.5,-1402 352.5,-1422.75"/>
<text text-anchor="middle" x="302.5" y="-1409.25" font-family="Helvetica,sans-Serif" font-size="10.00">TIM Counter Mode</text>
</a>
</g>
</g>
<!-- Node4 -->
<g id="Node000004" class="node">
<title>Node4</title>
<g id="a_Node000004"><a xlink:href="group__TIM__DMA__Base__address.html" target="_top" xlink:title=" ">
<polygon fill="white" stroke="#666666" points="361.5,-1383.75 243.5,-1383.75 243.5,-1363 361.5,-1363 361.5,-1383.75"/>
<text text-anchor="middle" x="302.5" y="-1370.25" font-family="Helvetica,sans-Serif" font-size="10.00">TIM DMA Base Address</text>
</a>
</g>
</g>
<!-- Node50 -->
<g id="Node000050" class="node">
<title>Node50</title>
<g id="a_Node000050"><a xlink:href="group__TIM__DMA__Burst__Length.html" target="_top" xlink:title=" ">
<polygon fill="white" stroke="#666666" points="360.75,-1344.75 244.25,-1344.75 244.25,-1324 360.75,-1324 360.75,-1344.75"/>
<text text-anchor="middle" x="302.5" y="-1331.25" font-family="Helvetica,sans-Serif" font-size="10.00">TIM DMA Burst Length</text>
</a>
</g>
</g>
<!-- Node27 -->
<g id="Node000027" class="node">
<title>Node27</title>
<g id="a_Node000027"><a xlink:href="group__TIM__DMA__sources.html" target="_top" xlink:title=" ">
<polygon fill="white" stroke="#666666" points="349.12,-1305.75 255.88,-1305.75 255.88,-1285 349.12,-1285 349.12,-1305.75"/>
<text text-anchor="middle" x="302.5" y="-1292.25" font-family="Helvetica,sans-Serif" font-size="10.00">TIM DMA Sources</text>
</a>
</g>
</g>
<!-- Node7 -->
<g id="Node000007" class="node">
<title>Node7</title>
<g id="a_Node000007"><a xlink:href="group__TIM__ETR__Polarity.html" target="_top" xlink:title=" ">
<polygon fill="white" stroke="#666666" points="347.62,-1266.75 257.38,-1266.75 257.38,-1246 347.62,-1246 347.62,-1266.75"/>
<text text-anchor="middle" x="302.5" y="-1253.25" font-family="Helvetica,sans-Serif" font-size="10.00">TIM ETR Polarity</text>
</a>
</g>
</g>
<!-- Node8 -->
<g id="Node000008" class="node">
<title>Node8</title>
<g id="a_Node000008"><a xlink:href="group__TIM__ETR__Prescaler.html" target="_top" xlink:title=" ">
<polygon fill="white" stroke="#666666" points="351,-1227.75 254,-1227.75 254,-1207 351,-1207 351,-1227.75"/>
<text text-anchor="middle" x="302.5" y="-1214.25" font-family="Helvetica,sans-Serif" font-size="10.00">TIM ETR Prescaler</text>
</a>
</g>
</g>
<!-- Node20 -->
<g id="Node000020" class="node">
<title>Node20</title>
<g id="a_Node000020"><a xlink:href="group__TIM__Encoder__Input__Polarity.html" target="_top" xlink:title=" ">
<polygon fill="white" stroke="#666666" points="370.5,-1188.75 234.5,-1188.75 234.5,-1168 370.5,-1168 370.5,-1188.75"/>
<text text-anchor="middle" x="302.5" y="-1175.25" font-family="Helvetica,sans-Serif" font-size="10.00">TIM Encoder Input Polarity</text>
</a>
</g>
</g>
<!-- Node24 -->
<g id="Node000024" class="node">
<title>Node24</title>
<g id="a_Node000024"><a xlink:href="group__TIM__Encoder__Mode.html" target="_top" xlink:title=" ">
<polygon fill="white" stroke="#666666" points="352.88,-1149.75 252.12,-1149.75 252.12,-1129 352.88,-1129 352.88,-1149.75"/>
<text text-anchor="middle" x="302.5" y="-1136.25" font-family="Helvetica,sans-Serif" font-size="10.00">TIM Encoder Mode</text>
</a>
</g>
</g>
<!-- Node5 -->
<g id="Node000005" class="node">
<title>Node5</title>
<g id="a_Node000005"><a xlink:href="group__TIM__Event__Source.html" target="_top" xlink:title=" ">
<polygon fill="white" stroke="#666666" points="349.12,-1110.75 255.88,-1110.75 255.88,-1090 349.12,-1090 349.12,-1110.75"/>
<text text-anchor="middle" x="302.5" y="-1097.25" font-family="Helvetica,sans-Serif" font-size="10.00">TIM Event Source</text>
</a>
</g>
</g>
<!-- Node1&#45;&gt;Node52 -->
<g id="edge51" class="edge">
<title>Node1&#45;&gt;Node52</title>
<path fill="none" stroke="black" d="M133.88,-1102.2C139.49,-1236.99 171.92,-1952.68 230.75,-2028.38 234.28,-2032.92 238.69,-2036.67 243.57,-2039.77"/>
<polygon fill="black" stroke="black" points="137.39,-1102.38 133.48,-1092.53 130.4,-1102.66 137.39,-1102.38"/>
</g>
<!-- Node1&#45;&gt;Node51 -->
<g id="edge50" class="edge">
<title>Node1&#45;&gt;Node51</title>
<path fill="none" stroke="black" d="M133.9,-1102.62C139.49,-1235.48 171.08,-1920.63 230.75,-1990.38 234.14,-1994.34 238.26,-1997.52 242.79,-2000.06"/>
<polygon fill="black" stroke="black" points="137.41,-1102.59 133.49,-1092.74 130.41,-1102.88 137.41,-1102.59"/>
</g>
<!-- Node1&#45;&gt;Node41 -->
<g id="edge40" class="edge">
<title>Node1&#45;&gt;Node41</title>
<path fill="none" stroke="black" d="M134.14,-1102.46C140.92,-1230.15 177.41,-1870.49 230.75,-1938.38 234.55,-1943.21 239.34,-1947.15 244.63,-1950.35"/>
<polygon fill="black" stroke="black" points="137.65,-1102.48 133.63,-1092.68 130.66,-1102.85 137.65,-1102.48"/>
</g>
<!-- Node1&#45;&gt;Node12 -->
<g id="edge11" class="edge">
<title>Node1&#45;&gt;Node12</title>
<path fill="none" stroke="black" d="M134.18,-1102.28C141.03,-1226.29 177.3,-1836.81 230.75,-1899.38 233.9,-1903.06 237.68,-1906.1 241.82,-1908.59"/>
<polygon fill="black" stroke="black" points="137.68,-1102.3 133.64,-1092.5 130.69,-1102.68 137.68,-1102.3"/>
</g>
<!-- Node1&#45;&gt;Node39 -->
<g id="edge38" class="edge">
<title>Node1&#45;&gt;Node39</title>
<path fill="none" stroke="black" d="M132.61,-1102.51C131.03,-1217.13 129.46,-1742.53 230.75,-1860.38 233.91,-1864.05 237.69,-1867.08 241.84,-1869.57"/>
<polygon fill="black" stroke="black" points="136.1,-1102.7 132.76,-1092.65 129.11,-1102.59 136.1,-1102.7"/>
</g>
<!-- Node1&#45;&gt;Node40 -->
<g id="edge39" class="edge">
<title>Node1&#45;&gt;Node40</title>
<path fill="none" stroke="black" d="M132.77,-1102.44C132.06,-1213.46 134.38,-1709.99 230.75,-1821.38 233.92,-1825.04 237.71,-1828.06 241.87,-1830.55"/>
<polygon fill="black" stroke="black" points="136.27,-1102.66 132.85,-1092.63 129.27,-1102.6 136.27,-1102.66"/>
</g>
<!-- Node1&#45;&gt;Node28 -->
<g id="edge27" class="edge">
<title>Node1&#45;&gt;Node28</title>
<path fill="none" stroke="black" d="M132.95,-1102.29C133.14,-1209.45 139.27,-1677.41 230.75,-1782.38 233.94,-1786.03 237.74,-1789.04 241.9,-1791.52"/>
<polygon fill="black" stroke="black" points="136.45,-1102.57 132.95,-1092.57 129.45,-1102.57 136.45,-1102.57"/>
</g>
<!-- Node1&#45;&gt;Node30 -->
<g id="edge29" class="edge">
<title>Node1&#45;&gt;Node30</title>
<path fill="none" stroke="black" d="M133.15,-1102.36C134.29,-1206 144.22,-1644.88 230.75,-1743.38 239.43,-1753.25 252.58,-1758.42 265.19,-1761.07"/>
<polygon fill="black" stroke="black" points="136.65,-1102.44 133.06,-1092.47 129.65,-1102.5 136.65,-1102.44"/>
</g>
<!-- Node1&#45;&gt;Node34 -->
<g id="edge33" class="edge">
<title>Node1&#45;&gt;Node34</title>
<path fill="none" stroke="black" d="M133.37,-1102.31C135.49,-1202.1 149.12,-1612.3 230.75,-1704.38 234.05,-1708.1 237.99,-1711.15 242.29,-1713.66"/>
<polygon fill="black" stroke="black" points="136.87,-1102.25 133.18,-1092.32 129.87,-1102.38 136.87,-1102.25"/>
</g>
<!-- Node1&#45;&gt;Node35 -->
<g id="edge34" class="edge">
<title>Node1&#45;&gt;Node35</title>
<path fill="none" stroke="black" d="M133.63,-1102.46C136.79,-1198.61 154.07,-1579.76 230.75,-1665.38 234.07,-1669.08 238.02,-1672.13 242.34,-1674.62"/>
<polygon fill="black" stroke="black" points="137.13,-1102.46 133.32,-1092.58 130.13,-1102.68 137.13,-1102.46"/>
</g>
<!-- Node1&#45;&gt;Node3 -->
<g id="edge2" class="edge">
<title>Node1&#45;&gt;Node3</title>
<path fill="none" stroke="black" d="M133.93,-1102.73C138.21,-1195.28 159.03,-1547.23 230.75,-1626.38 234.26,-1630.25 238.47,-1633.4 243.05,-1635.96"/>
<polygon fill="black" stroke="black" points="137.42,-1102.58 133.49,-1092.75 130.43,-1102.89 137.42,-1102.58"/>
</g>
<!-- Node1&#45;&gt;Node10 -->
<g id="edge9" class="edge">
<title>Node1&#45;&gt;Node10</title>
<path fill="none" stroke="black" d="M134.23,-1102.24C139.6,-1189.88 163.78,-1514.45 230.75,-1587.38 236.79,-1593.96 244.82,-1598.43 253.3,-1601.47"/>
<polygon fill="black" stroke="black" points="137.73,-1102.18 133.65,-1092.4 130.75,-1102.59 137.73,-1102.18"/>
</g>
<!-- Node1&#45;&gt;Node32 -->
<g id="edge31" class="edge">
<title>Node1&#45;&gt;Node32</title>
<path fill="none" stroke="black" d="M134.61,-1102.15C141.17,-1185.33 168.62,-1481.76 230.75,-1548.38 236.84,-1554.91 244.9,-1559.37 253.38,-1562.39"/>
<polygon fill="black" stroke="black" points="138.11,-1102.1 133.86,-1092.4 131.13,-1102.63 138.11,-1102.1"/>
</g>
<!-- Node1&#45;&gt;Node33 -->
<g id="edge32" class="edge">
<title>Node1&#45;&gt;Node33</title>
<path fill="none" stroke="black" d="M135.1,-1102.59C143.01,-1181.84 173.57,-1449.17 230.75,-1509.38 236.02,-1514.93 242.71,-1518.98 249.86,-1521.92"/>
<polygon fill="black" stroke="black" points="138.58,-1102.29 134.13,-1092.68 131.62,-1102.97 138.58,-1102.29"/>
</g>
<!-- Node1&#45;&gt;Node31 -->
<g id="edge30" class="edge">
<title>Node1&#45;&gt;Node31</title>
<path fill="none" stroke="black" d="M135.57,-1102C144.75,-1175.81 178.25,-1416.28 230.75,-1470.38 237.42,-1477.24 246.25,-1481.81 255.41,-1484.82"/>
<polygon fill="black" stroke="black" points="139.09,-1101.93 134.4,-1092.43 132.14,-1102.78 139.09,-1101.93"/>
</g>
<!-- Node1&#45;&gt;Node26 -->
<g id="edge25" class="edge">
<title>Node1&#45;&gt;Node26</title>
<path fill="none" stroke="black" d="M132.24,-1102.35C131.36,-1163.61 137.6,-1337.86 230.75,-1431.38 234.44,-1435.08 238.77,-1438.12 243.43,-1440.6"/>
<polygon fill="black" stroke="black" points="135.73,-1102.66 132.47,-1092.58 128.73,-1102.49 135.73,-1102.66"/>
</g>
<!-- Node1&#45;&gt;Node9 -->
<g id="edge8" class="edge">
<title>Node1&#45;&gt;Node9</title>
<path fill="none" stroke="black" d="M133.15,-1102.52C134.77,-1159.26 147.12,-1311.06 230.75,-1392.38 236.7,-1398.16 244.19,-1402.29 252.05,-1405.25"/>
<polygon fill="black" stroke="black" points="136.65,-1102.52 132.96,-1092.59 129.65,-1102.65 136.65,-1102.52"/>
</g>
<!-- Node1&#45;&gt;Node4 -->
<g id="edge3" class="edge">
<title>Node1&#45;&gt;Node4</title>
<path fill="none" stroke="black" d="M134.3,-1102.51C138.55,-1154.26 156.47,-1284 230.75,-1353.38 234.76,-1357.12 239.42,-1360.17 244.4,-1362.66"/>
<polygon fill="black" stroke="black" points="137.8,-1102.35 133.59,-1092.63 130.81,-1102.85 137.8,-1102.35"/>
</g>
<!-- Node1&#45;&gt;Node50 -->
<g id="edge49" class="edge">
<title>Node1&#45;&gt;Node50</title>
<path fill="none" stroke="black" d="M135.79,-1102.46C142.85,-1148.81 165.7,-1256.71 230.75,-1314.38 234.95,-1318.1 239.8,-1321.14 244.95,-1323.61"/>
<polygon fill="black" stroke="black" points="139.27,-1102.02 134.41,-1092.61 132.34,-1103 139.27,-1102.02"/>
</g>
<!-- Node1&#45;&gt;Node27 -->
<g id="edge26" class="edge">
<title>Node1&#45;&gt;Node27</title>
<path fill="none" stroke="black" d="M137.81,-1102.34C147.83,-1142.78 174.79,-1229.12 230.75,-1275.38 237.93,-1281.31 246.77,-1285.49 255.74,-1288.43"/>
<polygon fill="black" stroke="black" points="141.22,-1101.55 135.53,-1092.62 134.41,-1103.15 141.22,-1101.55"/>
</g>
<!-- Node1&#45;&gt;Node7 -->
<g id="edge6" class="edge">
<title>Node1&#45;&gt;Node7</title>
<path fill="none" stroke="black" d="M140.43,-1101.44C153.4,-1135.12 183.4,-1200.88 230.75,-1236.38 238.41,-1242.12 247.65,-1246.21 256.9,-1249.13"/>
<polygon fill="black" stroke="black" points="143.84,-1100.55 137.08,-1092.39 137.27,-1102.98 143.84,-1100.55"/>
</g>
<!-- Node1&#45;&gt;Node8 -->
<g id="edge7" class="edge">
<title>Node1&#45;&gt;Node8</title>
<path fill="none" stroke="black" d="M144.52,-1100.58C160.51,-1126.81 191.9,-1172.19 230.75,-1197.38 237.71,-1201.89 245.7,-1205.4 253.74,-1208.13"/>
<polygon fill="black" stroke="black" points="147.68,-1099.06 139.58,-1092.23 141.66,-1102.62 147.68,-1099.06"/>
</g>
<!-- Node1&#45;&gt;Node20 -->
<g id="edge19" class="edge">
<title>Node1&#45;&gt;Node20</title>
<path fill="none" stroke="black" d="M151.55,-1098.98C170.11,-1116.62 200.21,-1142.69 230.75,-1158.38 237.79,-1161.99 245.57,-1165.03 253.32,-1167.56"/>
<polygon fill="black" stroke="black" points="154.11,-1096.59 144.5,-1092.14 149.23,-1101.62 154.11,-1096.59"/>
</g>
<!-- Node1&#45;&gt;Node24 -->
<g id="edge23" class="edge">
<title>Node1&#45;&gt;Node24</title>
<path fill="none" stroke="black" d="M168.58,-1095.61C186.97,-1103.21 209.88,-1112.28 230.75,-1119.38 240.3,-1122.62 250.69,-1125.77 260.5,-1128.57"/>
<polygon fill="black" stroke="black" points="170.02,-1092.42 159.44,-1091.79 167.32,-1098.87 170.02,-1092.42"/>
</g>
<!-- Node1&#45;&gt;Node5 -->
<g id="edge4" class="edge">
<title>Node1&#45;&gt;Node5</title>
<path fill="none" stroke="black" d="M205.77,-1089.01C222.67,-1091.02 240.19,-1093.1 255.56,-1094.92"/>
<polygon fill="black" stroke="black" points="206.63,-1085.59 196.29,-1087.89 205.81,-1092.54 206.63,-1085.59"/>
</g>
<!-- Node29 -->
<g id="Node000029" class="node">
<title>Node29</title>
<g id="a_Node000029"><a xlink:href="group__TIM__Flag__definition.html" target="_top" xlink:title=" ">
<polygon fill="white" stroke="#666666" points="353.62,-1071.75 251.38,-1071.75 251.38,-1051 353.62,-1051 353.62,-1071.75"/>
<text text-anchor="middle" x="302.5" y="-1058.25" font-family="Helvetica,sans-Serif" font-size="10.00">TIM Flag Definition</text>
</a>
</g>
</g>
<!-- Node1&#45;&gt;Node29 -->
<g id="edge28" class="edge">
<title>Node1&#45;&gt;Node29</title>
<path fill="none" stroke="black" d="M206.22,-1072.12C221.34,-1070.41 236.94,-1068.65 251.04,-1067.07"/>
<polygon fill="black" stroke="black" points="205.84,-1068.64 196.29,-1073.24 206.62,-1075.6 205.84,-1068.64"/>
</g>
<!-- Node19 -->
<g id="Node000019" class="node">
<title>Node19</title>
<g id="a_Node000019"><a xlink:href="group__TIM__Input__Capture__Polarity.html" target="_top" xlink:title=" ">
<polygon fill="white" stroke="#666666" points="369.75,-1032.75 235.25,-1032.75 235.25,-1012 369.75,-1012 369.75,-1032.75"/>
<text text-anchor="middle" x="302.5" y="-1019.25" font-family="Helvetica,sans-Serif" font-size="10.00">TIM Input Capture Polarity</text>
</a>
</g>
</g>
<!-- Node1&#45;&gt;Node19 -->
<g id="edge18" class="edge">
<title>Node1&#45;&gt;Node19</title>
<path fill="none" stroke="black" d="M169.38,-1065.28C187.65,-1057.95 210.21,-1049.25 230.75,-1042.38 240.31,-1039.17 250.71,-1036.04 260.52,-1033.24"/>
<polygon fill="black" stroke="black" points="168.25,-1061.96 160.29,-1068.96 170.88,-1068.45 168.25,-1061.96"/>
</g>
<!-- Node22 -->
<g id="Node000022" class="node">
<title>Node22</title>
<g id="a_Node000022"><a xlink:href="group__TIM__Input__Capture__Prescaler.html" target="_top" xlink:title=" ">
<polygon fill="white" stroke="#666666" points="373.12,-993.75 231.88,-993.75 231.88,-973 373.12,-973 373.12,-993.75"/>
<text text-anchor="middle" x="302.5" y="-980.25" font-family="Helvetica,sans-Serif" font-size="10.00">TIM Input Capture Prescaler</text>
</a>
</g>
</g>
<!-- Node1&#45;&gt;Node22 -->
<g id="edge21" class="edge">
<title>Node1&#45;&gt;Node22</title>
<path fill="none" stroke="black" d="M151.9,-1061.73C170.51,-1044.33 200.48,-1018.8 230.75,-1003.38 237.8,-999.78 245.59,-996.76 253.34,-994.23"/>
<polygon fill="black" stroke="black" points="149.63,-1059.06 144.81,-1068.5 154.46,-1064.12 149.63,-1059.06"/>
</g>
<!-- Node21 -->
<g id="Node000021" class="node">
<title>Node21</title>
<g id="a_Node000021"><a xlink:href="group__TIM__Input__Capture__Selection.html" target="_top" xlink:title=" ">
<polygon fill="white" stroke="#666666" points="373.12,-954.75 231.88,-954.75 231.88,-934 373.12,-934 373.12,-954.75"/>
<text text-anchor="middle" x="302.5" y="-941.25" font-family="Helvetica,sans-Serif" font-size="10.00">TIM Input Capture Selection</text>
</a>
</g>
</g>
<!-- Node1&#45;&gt;Node21 -->
<g id="edge20" class="edge">
<title>Node1&#45;&gt;Node21</title>
<path fill="none" stroke="black" d="M144.8,-1059.95C160.92,-1033.89 192.24,-989.22 230.75,-964.38 236.43,-960.71 242.8,-957.7 249.31,-955.24"/>
<polygon fill="black" stroke="black" points="141.96,-1057.89 139.81,-1068.27 147.96,-1061.5 141.96,-1057.89"/>
</g>
<!-- Node6 -->
<g id="Node000006" class="node">
<title>Node6</title>
<g id="a_Node000006"><a xlink:href="group__TIM__Input__Channel__Polarity.html" target="_top" xlink:title=" ">
<polygon fill="white" stroke="#666666" points="370.88,-915.75 234.12,-915.75 234.12,-895 370.88,-895 370.88,-915.75"/>
<text text-anchor="middle" x="302.5" y="-902.25" font-family="Helvetica,sans-Serif" font-size="10.00">TIM Input Channel polarity</text>
</a>
</g>
</g>
<!-- Node1&#45;&gt;Node6 -->
<g id="edge5" class="edge">
<title>Node1&#45;&gt;Node6</title>
<path fill="none" stroke="black" d="M140.47,-1059.44C153.5,-1025.98 183.56,-960.64 230.75,-925.38 235.76,-921.63 241.44,-918.59 247.36,-916.11"/>
<polygon fill="black" stroke="black" points="137.34,-1057.84 137.11,-1068.43 143.89,-1060.29 137.34,-1057.84"/>
</g>
<!-- Node25 -->
<g id="Node000025" class="node">
<title>Node25</title>
<g id="a_Node000025"><a xlink:href="group__TIM__Interrupt__definition.html" target="_top" xlink:title=" ">
<polygon fill="white" stroke="#666666" points="363.38,-876.75 241.62,-876.75 241.62,-856 363.38,-856 363.38,-876.75"/>
<text text-anchor="middle" x="302.5" y="-863.25" font-family="Helvetica,sans-Serif" font-size="10.00">TIM interrupt Definition</text>
</a>
</g>
</g>
<!-- Node1&#45;&gt;Node25 -->
<g id="edge24" class="edge">
<title>Node1&#45;&gt;Node25</title>
<path fill="none" stroke="black" d="M137.85,-1058.52C147.92,-1018.28 174.98,-932.39 230.75,-886.38 235.28,-882.64 240.47,-879.6 245.93,-877.13"/>
<polygon fill="black" stroke="black" points="134.45,-1057.65 135.55,-1068.19 141.27,-1059.27 134.45,-1057.65"/>
</g>
<!-- Node38 -->
<g id="Node000038" class="node">
<title>Node38</title>
<g id="a_Node000038"><a xlink:href="group__TIM__Lock__level.html" target="_top" xlink:title=" ">
<polygon fill="white" stroke="#666666" points="342.38,-837.75 262.62,-837.75 262.62,-817 342.38,-817 342.38,-837.75"/>
<text text-anchor="middle" x="302.5" y="-824.25" font-family="Helvetica,sans-Serif" font-size="10.00">TIM Lock level</text>
</a>
</g>
</g>
<!-- Node1&#45;&gt;Node38 -->
<g id="edge37" class="edge">
<title>Node1&#45;&gt;Node38</title>
<path fill="none" stroke="black" d="M135.82,-1058.39C142.94,-1012.23 165.9,-904.78 230.75,-847.38 239.54,-839.59 251.15,-834.82 262.42,-831.9"/>
<polygon fill="black" stroke="black" points="132.37,-1057.8 134.43,-1068.19 139.3,-1058.78 132.37,-1057.8"/>
</g>
<!-- Node42 -->
<g id="Node000042" class="node">
<title>Node42</title>
<g id="a_Node000042"><a xlink:href="group__TIM__Master__Mode__Selection.html" target="_top" xlink:title=" ">
<polygon fill="white" stroke="#666666" points="371.25,-798.75 233.75,-798.75 233.75,-778 371.25,-778 371.25,-798.75"/>
<text text-anchor="middle" x="302.5" y="-785.25" font-family="Helvetica,sans-Serif" font-size="10.00">TIM Master Mode Selection</text>
</a>
</g>
</g>
<!-- Node1&#45;&gt;Node42 -->
<g id="edge41" class="edge">
<title>Node1&#45;&gt;Node42</title>
<path fill="none" stroke="black" d="M134.33,-1058.32C138.64,-1006.76 156.67,-877.48 230.75,-808.38 234.76,-804.63 239.42,-801.58 244.4,-799.1"/>
<polygon fill="black" stroke="black" points="130.85,-1057.93 133.61,-1068.16 137.83,-1058.44 130.85,-1057.93"/>
</g>
<!-- Node43 -->
<g id="Node000043" class="node">
<title>Node43</title>
<g id="a_Node000043"><a xlink:href="group__TIM__Master__Slave__Mode.html" target="_top" xlink:title=" ">
<polygon fill="white" stroke="#666666" points="363,-759.75 242,-759.75 242,-739 363,-739 363,-759.75"/>
<text text-anchor="middle" x="302.5" y="-746.25" font-family="Helvetica,sans-Serif" font-size="10.00">TIM Master/Slave Mode</text>
</a>
</g>
</g>
<!-- Node1&#45;&gt;Node43 -->
<g id="edge42" class="edge">
<title>Node1&#45;&gt;Node43</title>
<path fill="none" stroke="black" d="M133.17,-1058.3C134.85,-1001.74 147.33,-850.41 230.75,-769.38 234.6,-765.64 239.08,-762.59 243.9,-760.11"/>
<polygon fill="black" stroke="black" points="129.67,-1058.13 132.98,-1068.2 136.67,-1058.27 129.67,-1058.13"/>
</g>
<!-- Node37 -->
<g id="Node000037" class="node">
<title>Node37</title>
<g id="a_Node000037"><a xlink:href="group__TIM__OSSI__Off__State__Selection__for__Idle__mode__state.html" target="_top" xlink:title=" ">
<polygon fill="white" stroke="#666666" points="372.75,-721.12 232.25,-721.12 232.25,-687.62 372.75,-687.62 372.75,-721.12"/>
<text text-anchor="start" x="240.25" y="-707.62" font-family="Helvetica,sans-Serif" font-size="10.00">TIM OSSI OffState Selection</text>
<text text-anchor="middle" x="302.5" y="-694.88" font-family="Helvetica,sans-Serif" font-size="10.00"> for Idle mode state</text>
</a>
</g>
</g>
<!-- Node1&#45;&gt;Node37 -->
<g id="edge36" class="edge">
<title>Node1&#45;&gt;Node37</title>
<path fill="none" stroke="black" d="M132.63,-1058.41C132.82,-997.9 141.65,-826.88 230.75,-730.38 233.86,-727.01 237.44,-724.08 241.3,-721.53"/>
<polygon fill="black" stroke="black" points="129.13,-1058.09 132.69,-1068.07 136.13,-1058.05 129.13,-1058.09"/>
</g>
<!-- Node36 -->
<g id="Node000036" class="node">
<title>Node36</title>
<g id="a_Node000036"><a xlink:href="group__TIM__OSSR__Off__State__Selection__for__Run__mode__state.html" target="_top" xlink:title=" ">
<polygon fill="white" stroke="#666666" points="374.25,-669.12 230.75,-669.12 230.75,-635.62 374.25,-635.62 374.25,-669.12"/>
<text text-anchor="start" x="238.75" y="-655.62" font-family="Helvetica,sans-Serif" font-size="10.00">TIM OSSR OffState Selection</text>
<text text-anchor="middle" x="302.5" y="-642.88" font-family="Helvetica,sans-Serif" font-size="10.00"> for Run mode state</text>
</a>
</g>
</g>
<!-- Node1&#45;&gt;Node36 -->
<g id="edge35" class="edge">
<title>Node1&#45;&gt;Node36</title>
<path fill="none" stroke="black" d="M135.63,-1058.24C145.02,-982.66 179.1,-736.25 230.75,-678.38 233.8,-674.96 237.34,-671.99 241.17,-669.41"/>
<polygon fill="black" stroke="black" points="132.17,-1057.72 134.43,-1068.07 139.12,-1058.57 132.17,-1057.72"/>
</g>
<!-- Node23 -->
<g id="Node000023" class="node">
<title>Node23</title>
<g id="a_Node000023"><a xlink:href="group__TIM__One__Pulse__Mode.html" target="_top" xlink:title=" ">
<polygon fill="white" stroke="#666666" points="356.62,-617.75 248.38,-617.75 248.38,-597 356.62,-597 356.62,-617.75"/>
<text text-anchor="middle" x="302.5" y="-604.25" font-family="Helvetica,sans-Serif" font-size="10.00">TIM One Pulse Mode</text>
</a>
</g>
</g>
<!-- Node1&#45;&gt;Node23 -->
<g id="edge22" class="edge">
<title>Node1&#45;&gt;Node23</title>
<path fill="none" stroke="black" d="M134.74,-1058.44C141.68,-976.58 169.97,-690.29 230.75,-626.38 235.57,-621.31 241.59,-617.54 248.06,-614.75"/>
<polygon fill="black" stroke="black" points="131.27,-1058 133.93,-1068.25 138.24,-1058.58 131.27,-1058"/>
</g>
<!-- Node17 -->
<g id="Node000017" class="node">
<title>Node17</title>
<g id="a_Node000017"><a xlink:href="group__TIM__Output__Compare__Idle__State.html" target="_top" xlink:title=" ">
<polygon fill="white" stroke="#666666" points="358.12,-579.12 246.88,-579.12 246.88,-545.62 358.12,-545.62 358.12,-579.12"/>
<text text-anchor="start" x="254.88" y="-565.62" font-family="Helvetica,sans-Serif" font-size="10.00">TIM Output Compare</text>
<text text-anchor="middle" x="302.5" y="-552.88" font-family="Helvetica,sans-Serif" font-size="10.00"> Idle State</text>
</a>
</g>
</g>
<!-- Node1&#45;&gt;Node17 -->
<g id="edge16" class="edge">
<title>Node1&#45;&gt;Node17</title>
<path fill="none" stroke="black" d="M134.55,-1058.47C141,-972.76 168.44,-661.25 230.75,-588.38 235.09,-583.3 240.5,-579.22 246.4,-575.93"/>
<polygon fill="black" stroke="black" points="131.06,-1058.09 133.83,-1068.31 138.05,-1058.6 131.06,-1058.09"/>
</g>
<!-- Node18 -->
<g id="Node000018" class="node">
<title>Node18</title>
<g id="a_Node000018"><a xlink:href="group__TIM__Output__Compare__N__Idle__State.html" target="_top" xlink:title=" ">
<polygon fill="white" stroke="#666666" points="373.88,-527.12 231.12,-527.12 231.12,-493.62 373.88,-493.62 373.88,-527.12"/>
<text text-anchor="start" x="239.12" y="-513.62" font-family="Helvetica,sans-Serif" font-size="10.00">TIM Complementary Output</text>
<text text-anchor="middle" x="302.5" y="-500.88" font-family="Helvetica,sans-Serif" font-size="10.00"> Compare Idle State</text>
</a>
</g>
</g>
<!-- Node1&#45;&gt;Node18 -->
<g id="edge17" class="edge">
<title>Node1&#45;&gt;Node18</title>
<path fill="none" stroke="black" d="M134.1,-1058.24C139.09,-966.6 162.33,-617.9 230.75,-536.38 233.61,-532.97 236.96,-530.01 240.62,-527.43"/>
<polygon fill="black" stroke="black" points="130.61,-1057.94 133.59,-1068.11 137.6,-1058.31 130.61,-1057.94"/>
</g>
<!-- Node16 -->
<g id="Node000016" class="node">
<title>Node16</title>
<g id="a_Node000016"><a xlink:href="group__TIM__Output__Compare__N__Polarity.html" target="_top" xlink:title=" ">
<polygon fill="white" stroke="#666666" points="373.88,-475.12 231.12,-475.12 231.12,-441.62 373.88,-441.62 373.88,-475.12"/>
<text text-anchor="start" x="239.12" y="-461.62" font-family="Helvetica,sans-Serif" font-size="10.00">TIM Complementary Output</text>
<text text-anchor="middle" x="302.5" y="-448.88" font-family="Helvetica,sans-Serif" font-size="10.00"> Compare Polarity</text>
</a>
</g>
</g>
<!-- Node1&#45;&gt;Node16 -->
<g id="edge15" class="edge">
<title>Node1&#45;&gt;Node16</title>
<path fill="none" stroke="black" d="M133.72,-1058.32C137.3,-961.47 156.12,-574.69 230.75,-484.38 233.5,-481.05 236.72,-478.14 240.24,-475.61"/>
<polygon fill="black" stroke="black" points="130.23,-1057.93 133.38,-1068.05 137.23,-1058.18 130.23,-1057.93"/>
</g>
<!-- Node14 -->
<g id="Node000014" class="node">
<title>Node14</title>
<g id="a_Node000014"><a xlink:href="group__TIM__Output__Compare__N__State.html" target="_top" xlink:title=" ">
<polygon fill="white" stroke="#666666" points="373.88,-423.12 231.12,-423.12 231.12,-389.62 373.88,-389.62 373.88,-423.12"/>
<text text-anchor="start" x="239.12" y="-409.62" font-family="Helvetica,sans-Serif" font-size="10.00">TIM Complementary Output</text>
<text text-anchor="middle" x="302.5" y="-396.88" font-family="Helvetica,sans-Serif" font-size="10.00"> Compare State</text>
</a>
</g>
</g>
<!-- Node1&#45;&gt;Node14 -->
<g id="edge13" class="edge">
<title>Node1&#45;&gt;Node14</title>
<path fill="none" stroke="black" d="M133.4,-1058.37C135.66,-956.52 149.9,-531.51 230.75,-432.38 233.48,-429.03 236.68,-426.11 240.19,-423.57"/>
<polygon fill="black" stroke="black" points="129.9,-1058.04 133.2,-1068.11 136.9,-1058.18 129.9,-1058.04"/>
</g>
<!-- Node15 -->
<g id="Node000015" class="node">
<title>Node15</title>
<g id="a_Node000015"><a xlink:href="group__TIM__Output__Compare__Polarity.html" target="_top" xlink:title=" ">
<polygon fill="white" stroke="#666666" points="358.12,-371.12 246.88,-371.12 246.88,-337.62 358.12,-337.62 358.12,-371.12"/>
<text text-anchor="start" x="254.88" y="-357.62" font-family="Helvetica,sans-Serif" font-size="10.00">TIM Output Compare</text>
<text text-anchor="middle" x="302.5" y="-344.88" font-family="Helvetica,sans-Serif" font-size="10.00"> Polarity</text>
</a>
</g>
</g>
<!-- Node1&#45;&gt;Node15 -->
<g id="edge14" class="edge">
<title>Node1&#45;&gt;Node15</title>
<path fill="none" stroke="black" d="M133.13,-1058.32C134.16,-951.47 143.68,-488.34 230.75,-380.38 235.02,-375.08 240.48,-370.86 246.46,-367.5"/>
<polygon fill="black" stroke="black" points="129.63,-1058 133.05,-1068.02 136.63,-1058.05 129.63,-1058"/>
</g>
<!-- Node11 -->
<g id="Node000011" class="node">
<title>Node11</title>
<g id="a_Node000011"><a xlink:href="group__TIM__Output__Compare__State.html" target="_top" xlink:title=" ">
<polygon fill="white" stroke="#666666" points="358.12,-319.12 246.88,-319.12 246.88,-285.62 358.12,-285.62 358.12,-319.12"/>
<text text-anchor="start" x="254.88" y="-305.62" font-family="Helvetica,sans-Serif" font-size="10.00">TIM Output Compare</text>
<text text-anchor="middle" x="302.5" y="-292.88" font-family="Helvetica,sans-Serif" font-size="10.00"> State</text>
</a>
</g>
</g>
<!-- Node1&#45;&gt;Node11 -->
<g id="edge10" class="edge">
<title>Node1&#45;&gt;Node11</title>
<path fill="none" stroke="black" d="M132.89,-1058.12C132.76,-946.15 137.49,-445.14 230.75,-328.38 235,-323.06 240.44,-318.83 246.41,-315.46"/>
<polygon fill="black" stroke="black" points="129.39,-1058.04 132.92,-1068.03 136.39,-1058.02 129.39,-1058.04"/>
</g>
<!-- Node45 -->
<g id="Node000045" class="node">
<title>Node45</title>
<g id="a_Node000045"><a xlink:href="group__TIM__Output__Compare__and__PWM__modes.html" target="_top" xlink:title=" ">
<polygon fill="white" stroke="#666666" points="358.12,-267.12 246.88,-267.12 246.88,-233.62 358.12,-233.62 358.12,-267.12"/>
<text text-anchor="start" x="254.88" y="-253.62" font-family="Helvetica,sans-Serif" font-size="10.00">TIM Output Compare</text>
<text text-anchor="middle" x="302.5" y="-240.88" font-family="Helvetica,sans-Serif" font-size="10.00"> and PWM Modes</text>
</a>
</g>
</g>
<!-- Node1&#45;&gt;Node45 -->
<g id="edge44" class="edge">
<title>Node1&#45;&gt;Node45</title>
<path fill="none" stroke="black" d="M132.68,-1058.43C131.44,-942.53 131.15,-402.15 230.75,-276.38 235.06,-270.94 240.61,-266.64 246.71,-263.24"/>
<polygon fill="black" stroke="black" points="129.18,-1058.16 132.8,-1068.12 136.18,-1058.08 129.18,-1058.16"/>
</g>
<!-- Node13 -->
<g id="Node000013" class="node">
<title>Node13</title>
<g id="a_Node000013"><a xlink:href="group__TIM__Output__Fast__State.html" target="_top" xlink:title=" ">
<polygon fill="white" stroke="#666666" points="359.62,-215.75 245.38,-215.75 245.38,-195 359.62,-195 359.62,-215.75"/>
<text text-anchor="middle" x="302.5" y="-202.25" font-family="Helvetica,sans-Serif" font-size="10.00">TIM Output Fast State</text>
</a>
</g>
</g>
<!-- Node1&#45;&gt;Node13 -->
<g id="edge12" class="edge">
<title>Node1&#45;&gt;Node13</title>
<path fill="none" stroke="black" d="M134.06,-1058.26C140.34,-930.45 174.54,-289.64 230.75,-224.38 234.73,-219.75 239.71,-216.19 245.17,-213.46"/>
<polygon fill="black" stroke="black" points="130.57,-1057.9 133.58,-1068.06 137.56,-1058.24 130.57,-1057.9"/>
</g>
<!-- Node44 -->
<g id="Node000044" class="node">
<title>Node44</title>
<g id="a_Node000044"><a xlink:href="group__TIM__Slave__Mode.html" target="_top" xlink:title=" ">
<polygon fill="white" stroke="#666666" points="346.12,-176.75 258.88,-176.75 258.88,-156 346.12,-156 346.12,-176.75"/>
<text text-anchor="middle" x="302.5" y="-163.25" font-family="Helvetica,sans-Serif" font-size="10.00">TIM Slave mode</text>
</a>
</g>
</g>
<!-- Node1&#45;&gt;Node44 -->
<g id="edge43" class="edge">
<title>Node1&#45;&gt;Node44</title>
<path fill="none" stroke="black" d="M133.94,-1058.53C139.77,-928.06 172.5,-255.23 230.75,-186.38 237.84,-177.99 248.15,-172.99 258.72,-170.03"/>
<polygon fill="black" stroke="black" points="130.46,-1058.06 133.52,-1068.2 137.45,-1058.37 130.46,-1058.06"/>
</g>
<!-- Node49 -->
<g id="Node000049" class="node">
<title>Node49</title>
<g id="a_Node000049"><a xlink:href="group__TIM__TI1__Selection.html" target="_top" xlink:title=" ">
<polygon fill="white" stroke="#666666" points="361.88,-137.75 243.12,-137.75 243.12,-117 361.88,-117 361.88,-137.75"/>
<text text-anchor="middle" x="302.5" y="-124.25" font-family="Helvetica,sans-Serif" font-size="10.00">TIM TI1 Input Selection</text>
</a>
</g>
</g>
<!-- Node1&#45;&gt;Node49 -->
<g id="edge48" class="edge">
<title>Node1&#45;&gt;Node49</title>
<path fill="none" stroke="black" d="M133.84,-1058.41C139.19,-924.33 170.03,-219.49 230.75,-147.38 234.12,-143.37 238.23,-140.14 242.75,-137.53"/>
<polygon fill="black" stroke="black" points="130.36,-1057.92 133.47,-1068.05 137.36,-1058.2 130.36,-1057.92"/>
</g>
<!-- Node47 -->
<g id="Node000047" class="node">
<title>Node47</title>
<g id="a_Node000047"><a xlink:href="group__TIM__Trigger__Polarity.html" target="_top" xlink:title=" ">
<polygon fill="white" stroke="#666666" points="355.12,-98.75 249.88,-98.75 249.88,-78 355.12,-78 355.12,-98.75"/>
<text text-anchor="middle" x="302.5" y="-85.25" font-family="Helvetica,sans-Serif" font-size="10.00">TIM Trigger Polarity</text>
</a>
</g>
</g>
<!-- Node1&#45;&gt;Node47 -->
<g id="edge46" class="edge">
<title>Node1&#45;&gt;Node47</title>
<path fill="none" stroke="black" d="M133.75,-1058.36C138.61,-920.9 167.54,-183.76 230.75,-108.38 235.75,-102.41 242.39,-98.15 249.59,-95.12"/>
<polygon fill="black" stroke="black" points="130.26,-1058.12 133.41,-1068.24 137.25,-1058.37 130.26,-1058.12"/>
</g>
<!-- Node48 -->
<g id="Node000048" class="node">
<title>Node48</title>
<g id="a_Node000048"><a xlink:href="group__TIM__Trigger__Prescaler.html" target="_top" xlink:title=" ">
<polygon fill="white" stroke="#666666" points="358.5,-59.75 246.5,-59.75 246.5,-39 358.5,-39 358.5,-59.75"/>
<text text-anchor="middle" x="302.5" y="-46.25" font-family="Helvetica,sans-Serif" font-size="10.00">TIM Trigger Prescaler</text>
</a>
</g>
</g>
<!-- Node1&#45;&gt;Node48 -->
<g id="edge47" class="edge">
<title>Node1&#45;&gt;Node48</title>
<path fill="none" stroke="black" d="M133.66,-1058.36C138.06,-917.67 165.05,-148.04 230.75,-69.38 234.92,-64.38 240.24,-60.58 246.08,-57.7"/>
<polygon fill="black" stroke="black" points="130.17,-1058.04 133.36,-1068.14 137.16,-1058.25 130.17,-1058.04"/>
</g>
<!-- Node46 -->
<g id="Node000046" class="node">
<title>Node46</title>
<g id="a_Node000046"><a xlink:href="group__TIM__Trigger__Selection.html" target="_top" xlink:title=" ">
<polygon fill="white" stroke="#666666" points="358.5,-20.75 246.5,-20.75 246.5,0 358.5,0 358.5,-20.75"/>
<text text-anchor="middle" x="302.5" y="-7.25" font-family="Helvetica,sans-Serif" font-size="10.00">TIM Trigger Selection</text>
</a>
</g>
</g>
<!-- Node1&#45;&gt;Node46 -->
<g id="edge45" class="edge">
<title>Node1&#45;&gt;Node46</title>
<path fill="none" stroke="black" d="M133.57,-1058.4C137.52,-914.69 162.54,-112.34 230.75,-30.38 234.91,-25.37 240.23,-21.57 246.07,-18.68"/>
<polygon fill="black" stroke="black" points="130.09,-1057.97 133.32,-1068.06 137.08,-1058.16 130.09,-1057.97"/>
</g>
</g>
</svg>

<g id="navigator" transform="translate(0 0)" fill="#404254">
  <rect fill="#f2f5e9" fill-opacity="0.5" stroke="#606060" stroke-width=".5" x="0" y="0" width="60" height="60"/>
  <use id="zoomplus" xlink:href="#zoomPlus" x="17" y="9" onmousedown="handleZoom(evt,'in')"/>
  <use id="zoomminus" xlink:href="#zoomMin" x="42" y="9" onmousedown="handleZoom(evt,'out')"/>
  <use id="reset" xlink:href="#resetDef" x="30" y="36" onmousedown="handleReset()"/>
   <use id="arrowup" xlink:href="#arrowUp" x="0" y="0" onmousedown="handlePan(0,-1)"/>
  <use id="arrowright" xlink:href="#arrowRight" x="0" y="0" onmousedown="handlePan(1,0)"/>
  <use id="arrowdown" xlink:href="#arrowDown" x="0" y="0" onmousedown="handlePan(0,1)"/>
  <use id="arrowleft" xlink:href="#arrowLeft" x="0" y="0" onmousedown="handlePan(-1,0)"/>
</g>
<svg viewBox="0 0 15 15" width="100%" height="30px" preserveAspectRatio="xMaxYMin meet">
 <g id="arrow_out" transform="scale(0.3 0.3)">
  <a xlink:href="group__TIM__Exported__Constants_org.svg" target="_base">
   <rect id="button" ry="5" rx="5" y="6" x="6" height="38" width="38"
        fill="#f2f5e9" fill-opacity="0.5" stroke="#606060" stroke-width="1.0"/>
   <path id="arrow"
     d="M 11.500037,31.436501 C 11.940474,20.09759 22.043105,11.32322 32.158766,21.979434 L 37.068811,17.246167 C 37.068811,17.246167 37.088388,32 37.088388,32 L 22.160133,31.978069 C 22.160133,31.978069 26.997745,27.140456 26.997745,27.140456 C 18.528582,18.264221 13.291696,25.230495 11.500037,31.436501 z"
     style="fill:#404040;"/>
  </a>
 </g>
</svg>

<style type='text/css'>
<![CDATA[
[data-mouse-over-selected='false'] { opacity: 0.7; }
[data-mouse-over-selected='true']  { opacity: 1.0; }
]]>
</style>
<script type="application/ecmascript"><![CDATA[
document.addEventListener('DOMContentLoaded', (event) => {
  highlightEdges();
  highlightAdjacentNodes();
});
]]></script>
</svg>
