<?xml version="1.0" encoding="UTF-8" standalone="no"?>
<!DOCTYPE svg PUBLIC "-//W3C//DTD SVG 1.1//EN"
 "http://www.w3.org/Graphics/SVG/1.1/DTD/svg11.dtd">
<!-- Generated by graphviz version 12.2.1 (20241206.2353)
 -->
<!-- Title: PWREx Exported Functions Pages: 1 -->
<svg width="411pt" height="42pt"
 viewBox="0.00 0.00 410.75 41.50" xmlns="http://www.w3.org/2000/svg" xmlns:xlink="http://www.w3.org/1999/xlink">
<g id="page0,1_graph0" class="graph" transform="scale(1 1) rotate(0) translate(4 37.5)">
<title>PWREx Exported Functions</title>
<!-- Node2 -->
<g id="Node000002" class="node">
<title>Node2</title>
<g id="a_Node000002"><a xlink:href="group__PWREx.html" target="_top" xlink:title="PWR HAL module driver.">
<polygon fill="white" stroke="#666666" points="48.25,-27.12 0,-27.12 0,-6.38 48.25,-6.38 48.25,-27.12"/>
<text text-anchor="middle" x="24.12" y="-13.62" font-family="Helvetica,sans-Serif" font-size="10.00">PWREx</text>
</a>
</g>
</g>
<!-- Node1 -->
<g id="Node000001" class="node">
<title>Node1</title>
<g id="a_Node000001"><a xlink:title=" ">
<polygon fill="#999999" stroke="#666666" points="222.5,-27.12 84.25,-27.12 84.25,-6.38 222.5,-6.38 222.5,-27.12"/>
<text text-anchor="middle" x="153.38" y="-13.62" font-family="Helvetica,sans-Serif" font-size="10.00">PWREx Exported Functions</text>
</a>
</g>
</g>
<!-- Node2&#45;&gt;Node1 -->
<g id="edge1" class="edge">
<title>Node2&#45;&gt;Node1</title>
<path fill="none" stroke="black" d="M59.72,-16.75C67.3,-16.75 75.58,-16.75 83.97,-16.75"/>
<polygon fill="black" stroke="black" points="59.98,-13.25 49.98,-16.75 59.98,-20.25 59.98,-13.25"/>
</g>
<!-- Node3 -->
<g id="Node000003" class="node">
<title>Node3</title>
<g id="a_Node000003"><a xlink:href="group__PWREx__Exported__Functions__Group1.html" target="_top" xlink:title=" ">
<polygon fill="white" stroke="#666666" points="402.75,-33.5 258.5,-33.5 258.5,0 402.75,0 402.75,-33.5"/>
<text text-anchor="start" x="266.5" y="-20" font-family="Helvetica,sans-Serif" font-size="10.00">PWREx_Exported_Functions</text>
<text text-anchor="middle" x="330.62" y="-7.25" font-family="Helvetica,sans-Serif" font-size="10.00">_Group1</text>
</a>
</g>
</g>
<!-- Node1&#45;&gt;Node3 -->
<g id="edge2" class="edge">
<title>Node1&#45;&gt;Node3</title>
<path fill="none" stroke="black" d="M234.16,-16.75C242.2,-16.75 250.33,-16.75 258.27,-16.75"/>
<polygon fill="black" stroke="black" points="234.4,-13.25 224.4,-16.75 234.4,-20.25 234.4,-13.25"/>
</g>
</g>
</svg>
