<?xml version="1.0" encoding="UTF-8" standalone="no"?>
<!DOCTYPE svg PUBLIC "-//W3C//DTD SVG 1.1//EN"
 "http://www.w3.org/Graphics/SVG/1.1/DTD/svg11.dtd">
<!-- Generated by graphviz version 2.43.0 (0)
 -->
<!-- Title: SMBUS_Exported_Functions Pages: 1 -->
<svg width="432pt" height="134pt"
 viewBox="0.00 0.00 432.00 134.00" xmlns="http://www.w3.org/2000/svg" xmlns:xlink="http://www.w3.org/1999/xlink">

<svg id="main" version="1.1" xmlns="http://www.w3.org/2000/svg" xmlns:xlink="http://www.w3.org/1999/xlink" xml:space="preserve">

<style type="text/css"><![CDATA[
.node, .edge {opacity: 0.7;}
.node.selected, .edge.selected {opacity: 1;}
.edge:hover path { stroke: red; }
.edge:hover polygon { stroke: red; fill: red; }
]]></style>
<script type="application/ecmascript" xlink:href="svg.min.js"/>
<svg id="graph" class="graph">
<g id="graph0" class="graph" transform="scale(1 1) rotate(0) translate(4 130)">
<title>SMBUS_Exported_Functions</title>
<!-- Node2 -->
<g id="Node000002" class="node">
<title>Node2</title>
<g id="a_Node000002"><a xlink:href="group__SMBUS.html" target="_top" xlink:title="SMBUS HAL module driver.">
<polygon fill="white" stroke="#666666" points="52,-72.5 0,-72.5 0,-53.5 52,-53.5 52,-72.5"/>
<text text-anchor="middle" x="26" y="-60.5" font-family="Helvetica,sans-Serif" font-size="10.00">SMBUS</text>
</a>
</g>
</g>
<!-- Node1 -->
<g id="Node000001" class="node">
<title>Node1</title>
<g id="a_Node000001"><a xlink:title=" ">
<polygon fill="#999999" stroke="#666666" points="240,-72.5 88,-72.5 88,-53.5 240,-53.5 240,-72.5"/>
<text text-anchor="middle" x="164" y="-60.5" font-family="Helvetica,sans-Serif" font-size="10.00">SMBUS_Exported_Functions</text>
</a>
</g>
</g>
<!-- Node2&#45;&gt;Node1 -->
<g id="edge1" class="edge">
<title>Node2&#45;&gt;Node1</title>
<path fill="none" stroke="black" d="M62.5,-63C70.4,-63 79.06,-63 87.88,-63"/>
<polygon fill="black" stroke="black" points="62.26,-59.5 52.26,-63 62.26,-66.5 62.26,-59.5"/>
</g>
<!-- Node3 -->
<g id="Node000003" class="node">
<title>Node3</title>
<g id="a_Node000003"><a xlink:href="group__SMBUS__Exported__Functions__Group1.html" target="_top" xlink:title=" ">
<polygon fill="white" stroke="#666666" points="422,-126 278,-126 278,-96 422,-96 422,-126"/>
<text text-anchor="start" x="286" y="-114" font-family="Helvetica,sans-Serif" font-size="10.00">Initialization and</text>
<text text-anchor="middle" x="350" y="-103" font-family="Helvetica,sans-Serif" font-size="10.00"> de&#45;initialization functions</text>
</a>
</g>
</g>
<!-- Node1&#45;&gt;Node3 -->
<g id="edge2" class="edge">
<title>Node1&#45;&gt;Node3</title>
<path fill="none" stroke="black" d="M211.78,-75.2C235.96,-81.51 265.67,-89.26 291.26,-95.94"/>
<polygon fill="black" stroke="black" points="212.35,-71.74 201.79,-72.6 210.59,-78.51 212.35,-71.74"/>
</g>
<!-- Node4 -->
<g id="Node000004" class="node">
<title>Node4</title>
<g id="a_Node000004"><a xlink:href="group__SMBUS__Exported__Functions__Group2.html" target="_top" xlink:title=" ">
<polygon fill="white" stroke="#666666" points="424,-78 276,-78 276,-48 424,-48 424,-78"/>
<text text-anchor="start" x="284" y="-66" font-family="Helvetica,sans-Serif" font-size="10.00">Input and Output operation</text>
<text text-anchor="middle" x="350" y="-55" font-family="Helvetica,sans-Serif" font-size="10.00"> functions</text>
</a>
</g>
</g>
<!-- Node1&#45;&gt;Node4 -->
<g id="edge3" class="edge">
<title>Node1&#45;&gt;Node4</title>
<path fill="none" stroke="black" d="M250.16,-63C258.76,-63 267.45,-63 275.92,-63"/>
<polygon fill="black" stroke="black" points="250.11,-59.5 240.11,-63 250.11,-66.5 250.11,-59.5"/>
</g>
<!-- Node5 -->
<g id="Node000005" class="node">
<title>Node5</title>
<g id="a_Node000005"><a xlink:href="group__SMBUS__Exported__Functions__Group3.html" target="_top" xlink:title=" ">
<polygon fill="white" stroke="#666666" points="414,-30 286,-30 286,0 414,0 414,-30"/>
<text text-anchor="start" x="294" y="-18" font-family="Helvetica,sans-Serif" font-size="10.00">Peripheral State, Mode</text>
<text text-anchor="middle" x="350" y="-7" font-family="Helvetica,sans-Serif" font-size="10.00"> and Error functions</text>
</a>
</g>
</g>
<!-- Node1&#45;&gt;Node5 -->
<g id="edge4" class="edge">
<title>Node1&#45;&gt;Node5</title>
<path fill="none" stroke="black" d="M211.78,-50.8C235.96,-44.49 265.67,-36.74 291.26,-30.06"/>
<polygon fill="black" stroke="black" points="210.59,-47.49 201.79,-53.4 212.35,-54.26 210.59,-47.49"/>
</g>
</g>
</svg>
</svg>

<style type='text/css'>
<![CDATA[
[data-mouse-over-selected='false'] { opacity: 0.7; }
[data-mouse-over-selected='true']  { opacity: 1.0; }
]]>
</style>
<script type="application/ecmascript"><![CDATA[
document.addEventListener('DOMContentLoaded', (event) => {
  highlightEdges();
  highlightAdjacentNodes();
});
]]></script>
</svg>
