<?xml version="1.0" encoding="UTF-8" standalone="no"?>
<!DOCTYPE svg PUBLIC "-//W3C//DTD SVG 1.1//EN"
 "http://www.w3.org/Graphics/SVG/1.1/DTD/svg11.dtd">
<!-- Generated by graphviz version 2.43.0 (0)
 -->
<!-- Title: SPI Exported Constants Pages: 1 -->
<svg width="404pt" height="471pt"
 viewBox="0.00 0.00 404.00 471.00" xmlns="http://www.w3.org/2000/svg" xmlns:xlink="http://www.w3.org/1999/xlink">
<g id="graph0" class="graph" transform="scale(1 1) rotate(0) translate(4 467)">
<title>SPI Exported Constants</title>
<!-- Node2 -->
<g id="Node000002" class="node">
<title>Node2</title>
<g id="a_Node000002"><a xlink:href="group__SPI.html" target="_top" xlink:title="SPI HAL module driver.">
<polygon fill="white" stroke="#666666" points="32,-241 0,-241 0,-222 32,-222 32,-241"/>
<text text-anchor="middle" x="16" y="-229" font-family="Helvetica,sans-Serif" font-size="10.00">SPI</text>
</a>
</g>
</g>
<!-- Node1 -->
<g id="Node000001" class="node">
<title>Node1</title>
<g id="a_Node000001"><a xlink:title=" ">
<polygon fill="#999999" stroke="#666666" points="198,-241 68,-241 68,-222 198,-222 198,-241"/>
<text text-anchor="middle" x="133" y="-229" font-family="Helvetica,sans-Serif" font-size="10.00">SPI Exported Constants</text>
</a>
</g>
</g>
<!-- Node2&#45;&gt;Node1 -->
<g id="edge1" class="edge">
<title>Node2&#45;&gt;Node1</title>
<path fill="none" stroke="black" d="M42.14,-231.5C49.9,-231.5 58.84,-231.5 68,-231.5"/>
<polygon fill="black" stroke="black" points="42.03,-228 32.03,-231.5 42.03,-235 42.03,-228"/>
</g>
<!-- Node10 -->
<g id="Node000010" class="node">
<title>Node10</title>
<g id="a_Node000010"><a xlink:href="group__SPI__BaudRate__Prescaler.html" target="_top" xlink:title=" ">
<polygon fill="white" stroke="#666666" points="380,-463 250,-463 250,-444 380,-444 380,-463"/>
<text text-anchor="middle" x="315" y="-451" font-family="Helvetica,sans-Serif" font-size="10.00">SPI BaudRate Prescaler</text>
</a>
</g>
</g>
<!-- Node13 -->
<g id="Node000013" class="node">
<title>Node13</title>
<g id="a_Node000013"><a xlink:href="group__SPI__CRC__Calculation.html" target="_top" xlink:title=" ">
<polygon fill="white" stroke="#666666" points="371.5,-426 258.5,-426 258.5,-407 371.5,-407 371.5,-426"/>
<text text-anchor="middle" x="315" y="-414" font-family="Helvetica,sans-Serif" font-size="10.00">SPI CRC Calculation</text>
</a>
</g>
</g>
<!-- Node8 -->
<g id="Node000008" class="node">
<title>Node8</title>
<g id="a_Node000008"><a xlink:href="group__SPI__Clock__Phase.html" target="_top" xlink:title=" ">
<polygon fill="white" stroke="#666666" points="362,-389 268,-389 268,-370 362,-370 362,-389"/>
<text text-anchor="middle" x="315" y="-377" font-family="Helvetica,sans-Serif" font-size="10.00">SPI Clock Phase</text>
</a>
</g>
</g>
<!-- Node7 -->
<g id="Node000007" class="node">
<title>Node7</title>
<g id="a_Node000007"><a xlink:href="group__SPI__Clock__Polarity.html" target="_top" xlink:title=" ">
<polygon fill="white" stroke="#666666" points="366,-352 264,-352 264,-333 366,-333 366,-352"/>
<text text-anchor="middle" x="315" y="-340" font-family="Helvetica,sans-Serif" font-size="10.00">SPI Clock Polarity</text>
</a>
</g>
</g>
<!-- Node6 -->
<g id="Node000006" class="node">
<title>Node6</title>
<g id="a_Node000006"><a xlink:href="group__SPI__Data__Size.html" target="_top" xlink:title=" ">
<polygon fill="white" stroke="#666666" points="355.5,-315 274.5,-315 274.5,-296 355.5,-296 355.5,-315"/>
<text text-anchor="middle" x="315" y="-303" font-family="Helvetica,sans-Serif" font-size="10.00">SPI Data Size</text>
</a>
</g>
</g>
<!-- Node5 -->
<g id="Node000005" class="node">
<title>Node5</title>
<g id="a_Node000005"><a xlink:href="group__SPI__Direction.html" target="_top" xlink:title=" ">
<polygon fill="white" stroke="#666666" points="369.5,-278 260.5,-278 260.5,-259 369.5,-259 369.5,-278"/>
<text text-anchor="middle" x="315" y="-266" font-family="Helvetica,sans-Serif" font-size="10.00">SPI Direction Mode</text>
</a>
</g>
</g>
<!-- Node3 -->
<g id="Node000003" class="node">
<title>Node3</title>
<g id="a_Node000003"><a xlink:href="group__SPI__Error__Code.html" target="_top" xlink:title=" ">
<polygon fill="white" stroke="#666666" points="358,-241 272,-241 272,-222 358,-222 358,-241"/>
<text text-anchor="middle" x="315" y="-229" font-family="Helvetica,sans-Serif" font-size="10.00">SPI Error Code</text>
</a>
</g>
</g>
<!-- Node1&#45;&gt;Node10 -->
<g id="edge9" class="edge">
<title>Node1&#45;&gt;Node10</title>
<path fill="none" stroke="black" d="M137.71,-251.07C146.55,-292.08 172.87,-387.25 234,-435.5 238.81,-439.29 244.25,-442.32 249.99,-444.73"/>
<polygon fill="black" stroke="black" points="141.09,-250.12 135.66,-241.02 134.23,-251.52 141.09,-250.12"/>
</g>
<!-- Node1&#45;&gt;Node13 -->
<g id="edge12" class="edge">
<title>Node1&#45;&gt;Node13</title>
<path fill="none" stroke="black" d="M139.91,-250.89C151.71,-286.16 181.64,-360.62 234,-398.5 241.15,-403.67 249.53,-407.4 258.12,-410.07"/>
<polygon fill="black" stroke="black" points="143.22,-249.74 136.83,-241.29 136.55,-251.88 143.22,-249.74"/>
</g>
<!-- Node1&#45;&gt;Node8 -->
<g id="edge7" class="edge">
<title>Node1&#45;&gt;Node8</title>
<path fill="none" stroke="black" d="M142.95,-250.17C157.72,-278.85 189.99,-333.4 234,-361.5 244.08,-367.94 256.16,-372.09 267.84,-374.76"/>
<polygon fill="black" stroke="black" points="146.06,-248.57 138.47,-241.18 139.8,-251.69 146.06,-248.57"/>
</g>
<!-- Node1&#45;&gt;Node7 -->
<g id="edge6" class="edge">
<title>Node1&#45;&gt;Node7</title>
<path fill="none" stroke="black" d="M147.77,-249.05C165.42,-270.29 198.06,-305.55 234,-324.5 243.19,-329.35 253.65,-332.89 263.9,-335.49"/>
<polygon fill="black" stroke="black" points="150.38,-246.71 141.36,-241.15 144.94,-251.12 150.38,-246.71"/>
</g>
<!-- Node1&#45;&gt;Node6 -->
<g id="edge5" class="edge">
<title>Node1&#45;&gt;Node6</title>
<path fill="none" stroke="black" d="M156.48,-246.59C176.16,-259.18 205.93,-276.74 234,-287.5 246.76,-292.39 261.2,-296.14 274.27,-298.93"/>
<polygon fill="black" stroke="black" points="158.22,-243.55 147.93,-241.03 154.41,-249.42 158.22,-243.55"/>
</g>
<!-- Node1&#45;&gt;Node5 -->
<g id="edge4" class="edge">
<title>Node1&#45;&gt;Node5</title>
<path fill="none" stroke="black" d="M190.35,-243.08C215.16,-248.18 243.94,-254.1 267.49,-258.94"/>
<polygon fill="black" stroke="black" points="190.85,-239.61 180.35,-241.03 189.44,-246.47 190.85,-239.61"/>
</g>
<!-- Node1&#45;&gt;Node3 -->
<g id="edge2" class="edge">
<title>Node1&#45;&gt;Node3</title>
<path fill="none" stroke="black" d="M208.38,-231.5C229.99,-231.5 252.85,-231.5 271.75,-231.5"/>
<polygon fill="black" stroke="black" points="208.22,-228 198.22,-231.5 208.22,-235 208.22,-228"/>
</g>
<!-- Node15 -->
<g id="Node000015" class="node">
<title>Node15</title>
<g id="a_Node000015"><a xlink:href="group__SPI__Flags__definition.html" target="_top" xlink:title=" ">
<polygon fill="white" stroke="#666666" points="370.5,-204 259.5,-204 259.5,-185 370.5,-185 370.5,-204"/>
<text text-anchor="middle" x="315" y="-192" font-family="Helvetica,sans-Serif" font-size="10.00">SPI Flags Definition</text>
</a>
</g>
</g>
<!-- Node1&#45;&gt;Node15 -->
<g id="edge14" class="edge">
<title>Node1&#45;&gt;Node15</title>
<path fill="none" stroke="black" d="M190.35,-219.92C215.16,-214.82 243.94,-208.9 267.49,-204.06"/>
<polygon fill="black" stroke="black" points="189.44,-216.53 180.35,-221.97 190.85,-223.39 189.44,-216.53"/>
</g>
<!-- Node14 -->
<g id="Node000014" class="node">
<title>Node14</title>
<g id="a_Node000014"><a xlink:href="group__SPI__Interrupt__definition.html" target="_top" xlink:title=" ">
<polygon fill="white" stroke="#666666" points="378.5,-167 251.5,-167 251.5,-148 378.5,-148 378.5,-167"/>
<text text-anchor="middle" x="315" y="-155" font-family="Helvetica,sans-Serif" font-size="10.00">SPI Interrupt Definition</text>
</a>
</g>
</g>
<!-- Node1&#45;&gt;Node14 -->
<g id="edge13" class="edge">
<title>Node1&#45;&gt;Node14</title>
<path fill="none" stroke="black" d="M157.23,-216.36C176.96,-204.09 206.39,-187.15 234,-176.5 243.59,-172.8 254.11,-169.68 264.29,-167.11"/>
<polygon fill="black" stroke="black" points="155.22,-213.49 148.63,-221.79 158.96,-219.41 155.22,-213.49"/>
</g>
<!-- Node11 -->
<g id="Node000011" class="node">
<title>Node11</title>
<g id="a_Node000011"><a xlink:href="group__SPI__MSB__LSB__transmission.html" target="_top" xlink:title=" ">
<polygon fill="white" stroke="#666666" points="387,-130 243,-130 243,-111 387,-111 387,-130"/>
<text text-anchor="middle" x="315" y="-118" font-family="Helvetica,sans-Serif" font-size="10.00">SPI MSB LSB Transmission</text>
</a>
</g>
</g>
<!-- Node1&#45;&gt;Node11 -->
<g id="edge10" class="edge">
<title>Node1&#45;&gt;Node11</title>
<path fill="none" stroke="black" d="M147.85,-214.21C165.58,-193.28 198.3,-158.47 234,-139.5 241.31,-135.61 249.42,-132.51 257.58,-130.04"/>
<polygon fill="black" stroke="black" points="145.09,-212.06 141.41,-222 150.48,-216.52 145.09,-212.06"/>
</g>
<!-- Node4 -->
<g id="Node000004" class="node">
<title>Node4</title>
<g id="a_Node000004"><a xlink:href="group__SPI__Mode.html" target="_top" xlink:title=" ">
<polygon fill="white" stroke="#666666" points="346,-93 284,-93 284,-74 346,-74 346,-93"/>
<text text-anchor="middle" x="315" y="-81" font-family="Helvetica,sans-Serif" font-size="10.00">SPI Mode</text>
</a>
</g>
</g>
<!-- Node1&#45;&gt;Node4 -->
<g id="edge3" class="edge">
<title>Node1&#45;&gt;Node4</title>
<path fill="none" stroke="black" d="M143.23,-212.67C158.19,-184.19 190.51,-130.52 234,-102.5 248.88,-92.91 268.12,-88.16 283.99,-85.8"/>
<polygon fill="black" stroke="black" points="139.93,-211.43 138.51,-221.93 146.17,-214.6 139.93,-211.43"/>
</g>
<!-- Node9 -->
<g id="Node000009" class="node">
<title>Node9</title>
<g id="a_Node000009"><a xlink:href="group__SPI__Slave__Select__management.html" target="_top" xlink:title=" ">
<polygon fill="white" stroke="#666666" points="396,-56 234,-56 234,-37 396,-37 396,-56"/>
<text text-anchor="middle" x="315" y="-44" font-family="Helvetica,sans-Serif" font-size="10.00">SPI Slave Select Management</text>
</a>
</g>
</g>
<!-- Node1&#45;&gt;Node9 -->
<g id="edge8" class="edge">
<title>Node1&#45;&gt;Node9</title>
<path fill="none" stroke="black" d="M139.99,-212.28C151.91,-177.32 182.05,-103.45 234,-65.5 239.3,-61.63 245.28,-58.53 251.53,-56.06"/>
<polygon fill="black" stroke="black" points="136.66,-211.2 136.87,-221.8 143.31,-213.39 136.66,-211.2"/>
</g>
<!-- Node12 -->
<g id="Node000012" class="node">
<title>Node12</title>
<g id="a_Node000012"><a xlink:href="group__SPI__TI__mode.html" target="_top" xlink:title=" ">
<polygon fill="white" stroke="#666666" points="352,-19 278,-19 278,0 352,0 352,-19"/>
<text text-anchor="middle" x="315" y="-7" font-family="Helvetica,sans-Serif" font-size="10.00">SPI TI Mode</text>
</a>
</g>
</g>
<!-- Node1&#45;&gt;Node12 -->
<g id="edge11" class="edge">
<title>Node1&#45;&gt;Node12</title>
<path fill="none" stroke="black" d="M137.85,-211.78C146.9,-170.9 173.5,-76.74 234,-28.5 246.28,-18.71 262.77,-13.83 277.6,-11.44"/>
<polygon fill="black" stroke="black" points="134.42,-211.09 135.79,-221.6 141.27,-212.53 134.42,-211.09"/>
</g>
</g>
</svg>
