<?xml version="1.0" encoding="UTF-8" standalone="no"?>
<!DOCTYPE svg PUBLIC "-//W3C//DTD SVG 1.1//EN"
 "http://www.w3.org/Graphics/SVG/1.1/DTD/svg11.dtd">
<!-- Generated by graphviz version 2.43.0 (0)
 -->
<!-- Title: EXTI Exported Functions Pages: 1 -->
<svg width="382pt" height="64pt"
 viewBox="0.00 0.00 382.00 64.00" xmlns="http://www.w3.org/2000/svg" xmlns:xlink="http://www.w3.org/1999/xlink">

<svg id="main" version="1.1" xmlns="http://www.w3.org/2000/svg" xmlns:xlink="http://www.w3.org/1999/xlink" xml:space="preserve" onload="init(evt)">
<style type="text/css"><![CDATA[
.node, .edge {opacity: 0.7;}
.node.selected, .edge.selected {opacity: 1;}
.edge:hover path { stroke: red; }
.edge:hover polygon { stroke: red; fill: red; }
]]></style>
<script type="application/ecmascript" xlink:href="svg.min.js"/>
<svg id="graph" class="graph">
<g id="graph0" class="graph" transform="scale(1 1) rotate(0) translate(4 60)">
<title>EXTI Exported Functions</title>
<!-- Node2 -->
<g id="Node000002" class="node">
<title>Node2</title>
<g id="a_Node000002"><a xlink:href="group__EXTI.html" target="_top" xlink:title="EXTI HAL module driver.">
<polygon fill="white" stroke="#666666" points="38,-37 0,-37 0,-18 38,-18 38,-37"/>
<text text-anchor="middle" x="19" y="-25" font-family="Helvetica,sans-Serif" font-size="10.00">EXTI</text>
</a>
</g>
</g>
<!-- Node1 -->
<g id="Node000001" class="node">
<title>Node1</title>
<g id="a_Node000001"><a xlink:title="EXTI Exported Functions.">
<polygon fill="#999999" stroke="#666666" points="208,-37 74,-37 74,-18 208,-18 208,-37"/>
<text text-anchor="middle" x="141" y="-25" font-family="Helvetica,sans-Serif" font-size="10.00">EXTI Exported Functions</text>
</a>
</g>
</g>
<!-- Node2&#45;&gt;Node1 -->
<g id="edge1" class="edge">
<title>Node2&#45;&gt;Node1</title>
<path fill="none" stroke="black" d="M48.43,-27.5C56.17,-27.5 64.89,-27.5 73.8,-27.5"/>
<polygon fill="black" stroke="black" points="48.23,-24 38.23,-27.5 48.23,-31 48.23,-24"/>
</g>
<!-- Node3 -->
<g id="Node000003" class="node">
<title>Node3</title>
<g id="a_Node000003"><a xlink:href="group__EXTI__Exported__Functions__Group1.html" target="_top" xlink:title="Configuration functions.">
<polygon fill="white" stroke="#666666" points="374,-56 244,-56 244,-37 374,-37 374,-56"/>
<text text-anchor="middle" x="309" y="-44" font-family="Helvetica,sans-Serif" font-size="10.00">Configuration functions</text>
</a>
</g>
</g>
<!-- Node1&#45;&gt;Node3 -->
<g id="edge2" class="edge">
<title>Node1&#45;&gt;Node3</title>
<path fill="none" stroke="black" d="M218.09,-36.21C226.67,-37.19 235.36,-38.19 243.77,-39.15"/>
<polygon fill="black" stroke="black" points="218.42,-32.72 208.08,-35.06 217.62,-39.68 218.42,-32.72"/>
</g>
<!-- Node4 -->
<g id="Node000004" class="node">
<title>Node4</title>
<g id="a_Node000004"><a xlink:href="group__EXTI__Exported__Functions__Group2.html" target="_top" xlink:title="IO operation functions.">
<polygon fill="white" stroke="#666666" points="371.5,-19 246.5,-19 246.5,0 371.5,0 371.5,-19"/>
<text text-anchor="middle" x="309" y="-7" font-family="Helvetica,sans-Serif" font-size="10.00">IO operation functions</text>
</a>
</g>
</g>
<!-- Node1&#45;&gt;Node4 -->
<g id="edge3" class="edge">
<title>Node1&#45;&gt;Node4</title>
<path fill="none" stroke="black" d="M218.26,-19.23C227.71,-18.21 237.27,-17.17 246.46,-16.17"/>
<polygon fill="black" stroke="black" points="217.65,-15.78 208.08,-20.33 218.4,-22.74 217.65,-15.78"/>
</g>
</g>
</svg>
</svg>

<style type='text/css'>
<![CDATA[
[data-mouse-over-selected='false'] { opacity: 0.7; }
[data-mouse-over-selected='true']  { opacity: 1.0; }
]]>
</style>
<script type="application/ecmascript"><![CDATA[
document.addEventListener('DOMContentLoaded', (event) => {
  highlightEdges();
  highlightAdjacentNodes();
});
]]></script>
</svg>
