<?xml version="1.0" encoding="UTF-8" standalone="no"?>
<!DOCTYPE svg PUBLIC "-//W3C//DTD SVG 1.1//EN"
 "http://www.w3.org/Graphics/SVG/1.1/DTD/svg11.dtd">
<!-- Generated by graphviz version 12.2.1 (20241206.2353)
 -->
<!-- Title: I2S_Exported_Functions Pages: 1 -->
<svg width="361pt" height="146pt"
 viewBox="0.00 0.00 360.50 145.50" xmlns="http://www.w3.org/2000/svg" xmlns:xlink="http://www.w3.org/1999/xlink">
<g id="page0,1_graph0" class="graph" transform="scale(1 1) rotate(0) translate(4 141.5)">
<title>I2S_Exported_Functions</title>
<!-- Node2 -->
<g id="Node000002" class="node">
<title>Node2</title>
<g id="a_Node000002"><a xlink:href="group__I2S.html" target="_top" xlink:title=" ">
<polygon fill="white" stroke="#666666" points="29.5,-79.12 0,-79.12 0,-58.38 29.5,-58.38 29.5,-79.12"/>
<text text-anchor="middle" x="14.75" y="-65.62" font-family="Helvetica,sans-Serif" font-size="10.00">I2S</text>
</a>
</g>
</g>
<!-- Node1 -->
<g id="Node000001" class="node">
<title>Node1</title>
<g id="a_Node000001"><a xlink:title=" ">
<polygon fill="#999999" stroke="#666666" points="191,-79.12 65.5,-79.12 65.5,-58.38 191,-58.38 191,-79.12"/>
<text text-anchor="middle" x="128.25" y="-65.62" font-family="Helvetica,sans-Serif" font-size="10.00">I2S_Exported_Functions</text>
</a>
</g>
</g>
<!-- Node2&#45;&gt;Node1 -->
<g id="edge1" class="edge">
<title>Node2&#45;&gt;Node1</title>
<path fill="none" stroke="black" d="M41.36,-68.75C48.61,-68.75 56.83,-68.75 65.25,-68.75"/>
<polygon fill="black" stroke="black" points="41.39,-65.25 31.39,-68.75 41.39,-72.25 41.39,-65.25"/>
</g>
<!-- Node3 -->
<g id="Node000003" class="node">
<title>Node3</title>
<g id="a_Node000003"><a xlink:href="group__I2S__Exported__Functions__Group1.html" target="_top" xlink:title=" ">
<polygon fill="white" stroke="#666666" points="352.5,-137.5 227,-137.5 227,-104 352.5,-104 352.5,-137.5"/>
<text text-anchor="start" x="235" y="-124" font-family="Helvetica,sans-Serif" font-size="10.00">I2S_Exported_Functions</text>
<text text-anchor="middle" x="289.75" y="-111.25" font-family="Helvetica,sans-Serif" font-size="10.00">_Group1</text>
</a>
</g>
</g>
<!-- Node1&#45;&gt;Node3 -->
<g id="edge2" class="edge">
<title>Node1&#45;&gt;Node3</title>
<path fill="none" stroke="black" d="M173,-83.01C192.46,-89.36 215.55,-96.89 235.97,-103.54"/>
<polygon fill="black" stroke="black" points="174.33,-79.77 163.74,-79.99 172.16,-86.42 174.33,-79.77"/>
</g>
<!-- Node4 -->
<g id="Node000004" class="node">
<title>Node4</title>
<g id="a_Node000004"><a xlink:href="group__I2S__Exported__Functions__Group2.html" target="_top" xlink:title=" ">
<polygon fill="white" stroke="#666666" points="352.5,-85.5 227,-85.5 227,-52 352.5,-52 352.5,-85.5"/>
<text text-anchor="start" x="235" y="-72" font-family="Helvetica,sans-Serif" font-size="10.00">I2S_Exported_Functions</text>
<text text-anchor="middle" x="289.75" y="-59.25" font-family="Helvetica,sans-Serif" font-size="10.00">_Group2</text>
</a>
</g>
</g>
<!-- Node1&#45;&gt;Node4 -->
<g id="edge3" class="edge">
<title>Node1&#45;&gt;Node4</title>
<path fill="none" stroke="black" d="M202.87,-68.75C210.78,-68.75 218.77,-68.75 226.53,-68.75"/>
<polygon fill="black" stroke="black" points="202.89,-65.25 192.89,-68.75 202.89,-72.25 202.89,-65.25"/>
</g>
<!-- Node5 -->
<g id="Node000005" class="node">
<title>Node5</title>
<g id="a_Node000005"><a xlink:href="group__I2S__Exported__Functions__Group3.html" target="_top" xlink:title=" ">
<polygon fill="white" stroke="#666666" points="352.5,-33.5 227,-33.5 227,0 352.5,0 352.5,-33.5"/>
<text text-anchor="start" x="235" y="-20" font-family="Helvetica,sans-Serif" font-size="10.00">I2S_Exported_Functions</text>
<text text-anchor="middle" x="289.75" y="-7.25" font-family="Helvetica,sans-Serif" font-size="10.00">_Group3</text>
</a>
</g>
</g>
<!-- Node1&#45;&gt;Node5 -->
<g id="edge4" class="edge">
<title>Node1&#45;&gt;Node5</title>
<path fill="none" stroke="black" d="M173,-54.49C192.46,-48.14 215.55,-40.61 235.97,-33.96"/>
<polygon fill="black" stroke="black" points="172.16,-51.08 163.74,-57.51 174.33,-57.73 172.16,-51.08"/>
</g>
</g>
</svg>
