<?xml version="1.0" encoding="UTF-8" standalone="no"?>
<!DOCTYPE svg PUBLIC "-//W3C//DTD SVG 1.1//EN"
 "http://www.w3.org/Graphics/SVG/1.1/DTD/svg11.dtd">
<!-- Generated by graphviz version 2.43.0 (0)
 -->
<!-- Title: RCCEx Pages: 1 -->
<svg width="412pt" height="212pt"
 viewBox="0.00 0.00 412.00 212.00" xmlns="http://www.w3.org/2000/svg" xmlns:xlink="http://www.w3.org/1999/xlink">

<svg id="main" version="1.1" xmlns="http://www.w3.org/2000/svg" xmlns:xlink="http://www.w3.org/1999/xlink" xml:space="preserve">

<style type="text/css"><![CDATA[
.node, .edge {opacity: 0.7;}
.node.selected, .edge.selected {opacity: 1;}
.edge:hover path { stroke: red; }
.edge:hover polygon { stroke: red; fill: red; }
]]></style>
<script type="application/ecmascript" xlink:href="svg.min.js"/>
<svg id="graph" class="graph">
<g id="graph0" class="graph" transform="scale(1 1) rotate(0) translate(4 208)">
<title>RCCEx</title>
<!-- Node1 -->
<g id="Node000001" class="node">
<title>Node1</title>
<g id="a_Node000001"><a xlink:title="RCCEx HAL module driver.">
<polygon fill="#999999" stroke="#666666" points="219,-111 170,-111 170,-92 219,-92 219,-111"/>
<text text-anchor="middle" x="194.5" y="-99" font-family="Helvetica,sans-Serif" font-size="10.00">RCCEx</text>
</a>
</g>
</g>
<!-- Node4 -->
<g id="Node000004" class="node">
<title>Node4</title>
<g id="a_Node000004"><a xlink:href="group__RCCEx__Exported__Constants.html" target="_top" xlink:title=" ">
<polygon fill="white" stroke="#666666" points="403,-204 256,-204 256,-185 403,-185 403,-204"/>
<text text-anchor="middle" x="329.5" y="-192" font-family="Helvetica,sans-Serif" font-size="10.00">RCCEx Exported Constants</text>
</a>
</g>
</g>
<!-- Node1&#45;&gt;Node4 -->
<g id="edge3" class="edge">
<title>Node1&#45;&gt;Node4</title>
<path fill="none" stroke="black" d="M205.59,-120.38C215.78,-137.61 233.13,-162.48 255,-176.5 260.31,-179.9 266.21,-182.66 272.3,-184.9"/>
<polygon fill="black" stroke="black" points="208.4,-118.24 200.44,-111.25 202.31,-121.68 208.4,-118.24"/>
</g>
<!-- Node8 -->
<g id="Node000008" class="node">
<title>Node8</title>
<g id="a_Node000008"><a xlink:href="group__RCCEx__Exported__Functions.html" target="_top" xlink:title=" ">
<polygon fill="white" stroke="#666666" points="404,-167 255,-167 255,-148 404,-148 404,-167"/>
<text text-anchor="middle" x="329.5" y="-155" font-family="Helvetica,sans-Serif" font-size="10.00">RCCEx_Exported_Functions</text>
</a>
</g>
</g>
<!-- Node1&#45;&gt;Node8 -->
<g id="edge7" class="edge">
<title>Node1&#45;&gt;Node8</title>
<path fill="none" stroke="black" d="M216.17,-117.09C227.21,-124.78 241.31,-133.64 255,-139.5 262.73,-142.81 271.19,-145.59 279.53,-147.89"/>
<polygon fill="black" stroke="black" points="218.21,-114.25 208.05,-111.25 214.12,-119.93 218.21,-114.25"/>
</g>
<!-- Node5 -->
<g id="Node000005" class="node">
<title>Node5</title>
<g id="a_Node000005"><a xlink:href="group__RCCEx__Exported__Macros.html" target="_top" xlink:title=" ">
<polygon fill="white" stroke="#666666" points="396.5,-130 262.5,-130 262.5,-111 396.5,-111 396.5,-130"/>
<text text-anchor="middle" x="329.5" y="-118" font-family="Helvetica,sans-Serif" font-size="10.00">RCCEx Exported Macros</text>
</a>
</g>
</g>
<!-- Node1&#45;&gt;Node5 -->
<g id="edge4" class="edge">
<title>Node1&#45;&gt;Node5</title>
<path fill="none" stroke="black" d="M229.3,-106.33C239.44,-107.78 250.94,-109.42 262.42,-111.06"/>
<polygon fill="black" stroke="black" points="229.67,-102.85 219.28,-104.9 228.68,-109.78 229.67,-102.85"/>
</g>
<!-- Node3 -->
<g id="Node000003" class="node">
<title>Node3</title>
<g id="a_Node000003"><a xlink:href="group__RCCEx__Exported__Types.html" target="_top" xlink:title=" ">
<polygon fill="white" stroke="#666666" points="392.5,-93 266.5,-93 266.5,-74 392.5,-74 392.5,-93"/>
<text text-anchor="middle" x="329.5" y="-81" font-family="Helvetica,sans-Serif" font-size="10.00">RCCEx Exported Types</text>
</a>
</g>
</g>
<!-- Node1&#45;&gt;Node3 -->
<g id="edge2" class="edge">
<title>Node1&#45;&gt;Node3</title>
<path fill="none" stroke="black" d="M229.51,-96.9C240.78,-95.37 253.7,-93.62 266.4,-91.9"/>
<polygon fill="black" stroke="black" points="228.72,-93.47 219.28,-98.28 229.66,-100.41 228.72,-93.47"/>
</g>
<!-- Node6 -->
<g id="Node000006" class="node">
<title>Node6</title>
<g id="a_Node000006"><a xlink:href="group__RCCEx__Private__Constants.html" target="_top" xlink:title=" ">
<polygon fill="white" stroke="#666666" points="398.5,-56 260.5,-56 260.5,-37 398.5,-37 398.5,-56"/>
<text text-anchor="middle" x="329.5" y="-44" font-family="Helvetica,sans-Serif" font-size="10.00">RCCEx Private Constants</text>
</a>
</g>
</g>
<!-- Node1&#45;&gt;Node6 -->
<g id="edge5" class="edge">
<title>Node1&#45;&gt;Node6</title>
<path fill="none" stroke="black" d="M216.99,-85.83C227.92,-78.47 241.69,-70.1 255,-64.5 262.87,-61.19 271.48,-58.4 279.95,-56.08"/>
<polygon fill="black" stroke="black" points="214.76,-83.11 208.54,-91.69 218.75,-88.86 214.76,-83.11"/>
</g>
<!-- Node7 -->
<g id="Node000007" class="node">
<title>Node7</title>
<g id="a_Node000007"><a xlink:href="group__RCCEx__Private__Macros.html" target="_top" xlink:title=" ">
<polygon fill="white" stroke="#666666" points="392,-19 267,-19 267,0 392,0 392,-19"/>
<text text-anchor="middle" x="329.5" y="-7" font-family="Helvetica,sans-Serif" font-size="10.00">RCCEx Private Macros</text>
</a>
</g>
</g>
<!-- Node1&#45;&gt;Node7 -->
<g id="edge6" class="edge">
<title>Node1&#45;&gt;Node7</title>
<path fill="none" stroke="black" d="M205.65,-82.87C215.89,-65.87 233.26,-41.34 255,-27.5 260.32,-24.11 266.23,-21.36 272.32,-19.13"/>
<polygon fill="black" stroke="black" points="202.42,-81.46 200.47,-91.88 208.49,-84.96 202.42,-81.46"/>
</g>
<!-- Node2 -->
<g id="Node000002" class="node">
<title>Node2</title>
<g id="a_Node000002"><a xlink:href="group__STM32F4xx__HAL__Driver.html" target="_top" xlink:title=" ">
<polygon fill="white" stroke="#666666" points="134,-111 0,-111 0,-92 134,-92 134,-111"/>
<text text-anchor="middle" x="67" y="-99" font-family="Helvetica,sans-Serif" font-size="10.00">STM32F4xx_HAL_Driver</text>
</a>
</g>
</g>
<!-- Node2&#45;&gt;Node1 -->
<g id="edge1" class="edge">
<title>Node2&#45;&gt;Node1</title>
<path fill="none" stroke="black" d="M144.24,-101.5C153.5,-101.5 162.36,-101.5 169.94,-101.5"/>
<polygon fill="black" stroke="black" points="144.06,-98 134.06,-101.5 144.06,-105 144.06,-98"/>
</g>
</g>
</svg>
</svg>

<style type='text/css'>
<![CDATA[
[data-mouse-over-selected='false'] { opacity: 0.7; }
[data-mouse-over-selected='true']  { opacity: 1.0; }
]]>
</style>
<script type="application/ecmascript"><![CDATA[
document.addEventListener('DOMContentLoaded', (event) => {
  highlightEdges();
  highlightAdjacentNodes();
});
]]></script>
</svg>
