<?xml version="1.0" encoding="UTF-8" standalone="no"?>
<!DOCTYPE svg PUBLIC "-//W3C//DTD SVG 1.1//EN"
 "http://www.w3.org/Graphics/SVG/1.1/DTD/svg11.dtd">
<!-- Generated by graphviz version 12.2.1 (20241206.2353)
 -->
<!-- Title: PWR Exported Functions Pages: 1 -->
<svg width="379pt" height="94pt"
 viewBox="0.00 0.00 378.50 93.50" xmlns="http://www.w3.org/2000/svg" xmlns:xlink="http://www.w3.org/1999/xlink">
<g id="page0,1_graph0" class="graph" transform="scale(1 1) rotate(0) translate(4 89.5)">
<title>PWR Exported Functions</title>
<!-- Node2 -->
<g id="Node000002" class="node">
<title>Node2</title>
<g id="a_Node000002"><a xlink:href="group__PWR.html" target="_top" xlink:title="PWR HAL module driver.">
<polygon fill="white" stroke="#666666" points="37.75,-53.12 0,-53.12 0,-32.38 37.75,-32.38 37.75,-53.12"/>
<text text-anchor="middle" x="18.88" y="-39.62" font-family="Helvetica,sans-Serif" font-size="10.00">PWR</text>
</a>
</g>
</g>
<!-- Node1 -->
<g id="Node000001" class="node">
<title>Node1</title>
<g id="a_Node000001"><a xlink:title=" ">
<polygon fill="#999999" stroke="#666666" points="201.5,-53.12 73.75,-53.12 73.75,-32.38 201.5,-32.38 201.5,-53.12"/>
<text text-anchor="middle" x="137.62" y="-39.62" font-family="Helvetica,sans-Serif" font-size="10.00">PWR Exported Functions</text>
</a>
</g>
</g>
<!-- Node2&#45;&gt;Node1 -->
<g id="edge1" class="edge">
<title>Node2&#45;&gt;Node1</title>
<path fill="none" stroke="black" d="M49.63,-42.75C56.99,-42.75 65.16,-42.75 73.47,-42.75"/>
<polygon fill="black" stroke="black" points="49.63,-39.25 39.63,-42.75 49.63,-46.25 49.63,-39.25"/>
</g>
<!-- Node3 -->
<g id="Node000003" class="node">
<title>Node3</title>
<g id="a_Node000003"><a xlink:href="group__PWR__Exported__Functions__Group1.html" target="_top" xlink:title=" ">
<polygon fill="white" stroke="#666666" points="370.5,-85.5 237.5,-85.5 237.5,-52 370.5,-52 370.5,-85.5"/>
<text text-anchor="start" x="245.5" y="-72" font-family="Helvetica,sans-Serif" font-size="10.00">Initialization and</text>
<text text-anchor="middle" x="304" y="-59.25" font-family="Helvetica,sans-Serif" font-size="10.00"> de&#45;initialization functions</text>
</a>
</g>
</g>
<!-- Node1&#45;&gt;Node3 -->
<g id="edge2" class="edge">
<title>Node1&#45;&gt;Node3</title>
<path fill="none" stroke="black" d="M212.98,-54.51C221.02,-55.78 229.16,-57.07 237.09,-58.32"/>
<polygon fill="black" stroke="black" points="213.63,-51.07 203.2,-52.96 212.53,-57.98 213.63,-51.07"/>
</g>
<!-- Node4 -->
<g id="Node000004" class="node">
<title>Node4</title>
<g id="a_Node000004"><a xlink:href="group__PWR__Exported__Functions__Group2.html" target="_top" xlink:title=" ">
<polygon fill="white" stroke="#666666" points="354,-33.5 254,-33.5 254,0 354,0 354,-33.5"/>
<text text-anchor="start" x="262" y="-20" font-family="Helvetica,sans-Serif" font-size="10.00">Peripheral Control</text>
<text text-anchor="middle" x="304" y="-7.25" font-family="Helvetica,sans-Serif" font-size="10.00"> functions</text>
</a>
</g>
</g>
<!-- Node1&#45;&gt;Node4 -->
<g id="edge3" class="edge">
<title>Node1&#45;&gt;Node4</title>
<path fill="none" stroke="black" d="M212.72,-31.03C226.57,-28.84 240.74,-26.6 253.61,-24.56"/>
<polygon fill="black" stroke="black" points="212.53,-27.52 203.2,-32.54 213.63,-34.43 212.53,-27.52"/>
</g>
</g>
</svg>
