<?xml version="1.0" encoding="UTF-8" standalone="no"?>
<!DOCTYPE svg PUBLIC "-//W3C//DTD SVG 1.1//EN"
 "http://www.w3.org/Graphics/SVG/1.1/DTD/svg11.dtd">
<!-- Generated by graphviz version 12.2.1 (20241206.2353)
 -->
<!-- Title: HAL_Init Pages: 1 -->
<svg width="408pt" height="126pt"
 viewBox="0.00 0.00 407.75 125.75" xmlns="http://www.w3.org/2000/svg" xmlns:xlink="http://www.w3.org/1999/xlink">

<svg id="main" version="1.1" xmlns="http://www.w3.org/2000/svg" xmlns:xlink="http://www.w3.org/1999/xlink" xml:space="preserve">

<style type="text/css"><![CDATA[
.node, .edge {opacity: 0.7;}
.node.selected, .edge.selected {opacity: 1;}
.edge:hover path { stroke: red; }
.edge:hover polygon { stroke: red; fill: red; }
]]></style>
<script type="application/ecmascript" xlink:href="svg.min.js"/>
<svg id="graph" class="graph">
<g id="graph0" class="graph" transform="scale(1 1) rotate(0) translate(4 121.75)">
<title>HAL_Init</title>
<!-- Node1 -->
<g id="Node000001" class="node">
<title>Node1</title>
<g id="a_Node000001"><a xlink:title="This function is used to initialize the HAL Library; it must be the first instruction to be executed ...">
<polygon fill="#999999" stroke="#666666" points="55,-59.75 0,-59.75 0,-39 55,-39 55,-59.75"/>
<text text-anchor="middle" x="27.5" y="-46.25" font-family="Helvetica,sans-Serif" font-size="10.00">HAL_Init</text>
</a>
</g>
</g>
<!-- Node2 -->
<g id="Node000002" class="node">
<title>Node2</title>
<g id="a_Node000002"><a xlink:href="group__HAL__Exported__Functions__Group1.html#ga879cdb21ef051eb81ec51c18147397d5" target="_top" xlink:title="This function configures the source of the time base. The time source is configured to have 1ms time ...">
<polygon fill="white" stroke="#666666" points="206.38,-98.75 133.38,-98.75 133.38,-78 206.38,-78 206.38,-98.75"/>
<text text-anchor="middle" x="169.88" y="-85.25" font-family="Helvetica,sans-Serif" font-size="10.00">HAL_InitTick</text>
</a>
</g>
</g>
<!-- Node1&#45;&gt;Node2 -->
<g id="edge1_Node000001_Node000002" class="edge">
<title>Node1&#45;&gt;Node2</title>
<g id="a_edge1_Node000001_Node000002"><a xlink:title=" ">
<path fill="none" stroke="#63b8ff" d="M55.5,-57.86C66.48,-61.24 79.32,-65.1 91,-68.38 101.07,-71.2 111.91,-74.08 122.21,-76.75"/>
<polygon fill="#63b8ff" stroke="#63b8ff" points="121.1,-80.07 131.65,-79.17 122.84,-73.29 121.1,-80.07"/>
</a>
</g>
</g>
<!-- Node5 -->
<g id="Node000005" class="node">
<title>Node5</title>
<g id="a_Node000005"><a xlink:href="group__HAL__Exported__Functions__Group1.html#gae4fb8e66865c87d0ebab74a726a6891f" target="_top" xlink:title="Initialize the MSP.">
<polygon fill="white" stroke="#666666" points="206.75,-59.75 133,-59.75 133,-39 206.75,-39 206.75,-59.75"/>
<text text-anchor="middle" x="169.88" y="-46.25" font-family="Helvetica,sans-Serif" font-size="10.00">HAL_MspInit</text>
</a>
</g>
</g>
<!-- Node1&#45;&gt;Node5 -->
<g id="edge4_Node000001_Node000005" class="edge">
<title>Node1&#45;&gt;Node5</title>
<g id="a_edge4_Node000001_Node000005"><a xlink:title=" ">
<path fill="none" stroke="#63b8ff" d="M55.23,-49.38C73.84,-49.38 99.17,-49.38 121.2,-49.38"/>
<polygon fill="#63b8ff" stroke="#63b8ff" points="121.18,-52.88 131.18,-49.38 121.18,-45.88 121.18,-52.88"/>
</a>
</g>
</g>
<!-- Node6 -->
<g id="Node000006" class="node">
<title>Node6</title>
<g id="a_Node000006"><a xlink:href="group__CORTEX__Exported__Functions__Group1.html#gad9be53e08b1498adea006e5e037f238f" target="_top" xlink:title=" ">
<polygon fill="white" stroke="#666666" points="248.75,-20.75 91,-20.75 91,0 248.75,0 248.75,-20.75"/>
<text text-anchor="middle" x="169.88" y="-7.25" font-family="Helvetica,sans-Serif" font-size="10.00">HAL_NVIC_SetPriorityGrouping</text>
</a>
</g>
</g>
<!-- Node1&#45;&gt;Node6 -->
<g id="edge5_Node000001_Node000006" class="edge">
<title>Node1&#45;&gt;Node6</title>
<g id="a_edge5_Node000001_Node000006"><a xlink:title=" ">
<path fill="none" stroke="#63b8ff" d="M55.5,-40.89C66.48,-37.51 79.32,-33.65 91,-30.38 98.58,-28.25 106.6,-26.09 114.51,-24.01"/>
<polygon fill="#63b8ff" stroke="#63b8ff" points="115.27,-27.43 124.07,-21.53 113.51,-20.66 115.27,-27.43"/>
</a>
</g>
</g>
<!-- Node3 -->
<g id="Node000003" class="node">
<title>Node3</title>
<g id="a_Node000003"><a xlink:href="group__CORTEX__Exported__Functions__Group1.html#ga8581a82025a4780efd00876a66e3e91b" target="_top" xlink:title=" ">
<polygon fill="white" stroke="#666666" points="399.75,-117.75 284.75,-117.75 284.75,-97 399.75,-97 399.75,-117.75"/>
<text text-anchor="middle" x="342.25" y="-104.25" font-family="Helvetica,sans-Serif" font-size="10.00">HAL_NVIC_SetPriority</text>
</a>
</g>
</g>
<!-- Node2&#45;&gt;Node3 -->
<g id="edge2_Node000002_Node000003" class="edge">
<title>Node2&#45;&gt;Node3</title>
<g id="a_edge2_Node000002_Node000003"><a xlink:title=" ">
<path fill="none" stroke="#63b8ff" d="M206.59,-92.36C225.87,-94.51 250.33,-97.24 273.1,-99.77"/>
<polygon fill="#63b8ff" stroke="#63b8ff" points="272.63,-103.24 282.95,-100.87 273.4,-96.29 272.63,-103.24"/>
</a>
</g>
</g>
<!-- Node4 -->
<g id="Node000004" class="node">
<title>Node4</title>
<g id="a_Node000004"><a xlink:href="group__CORTEX__Exported__Functions__Group1.html#gac3a3f0d53c315523a8e6e7bcac1940cf" target="_top" xlink:title=" ">
<polygon fill="white" stroke="#666666" points="399.38,-78.75 285.12,-78.75 285.12,-58 399.38,-58 399.38,-78.75"/>
<text text-anchor="middle" x="342.25" y="-65.25" font-family="Helvetica,sans-Serif" font-size="10.00">HAL_SYSTICK_Config</text>
</a>
</g>
</g>
<!-- Node2&#45;&gt;Node4 -->
<g id="edge3_Node000002_Node000004" class="edge">
<title>Node2&#45;&gt;Node4</title>
<g id="a_edge3_Node000002_Node000004"><a xlink:title=" ">
<path fill="none" stroke="#63b8ff" d="M206.59,-84.18C225.96,-81.91 250.54,-79.02 273.39,-76.34"/>
<polygon fill="#63b8ff" stroke="#63b8ff" points="273.76,-79.82 283.29,-75.18 272.95,-72.87 273.76,-79.82"/>
</a>
</g>
</g>
</g>
</svg>
</svg>

<style type='text/css'>
<![CDATA[
[data-mouse-over-selected='false'] { opacity: 0.7; }
[data-mouse-over-selected='true']  { opacity: 1.0; }
]]>
</style>
<script type="application/ecmascript"><![CDATA[
document.addEventListener('DOMContentLoaded', (event) => {
  highlightEdges();
  highlightAdjacentNodes();
});
]]></script>
</svg>
