<?xml version="1.0" encoding="UTF-8" standalone="no"?>
<!DOCTYPE svg PUBLIC "-//W3C//DTD SVG 1.1//EN"
 "http://www.w3.org/Graphics/SVG/1.1/DTD/svg11.dtd">
<!-- Generated by graphviz version 12.2.1 (20241206.2353)
 -->
<!-- Title: RCCEx Pages: 1 -->
<svg width="391pt" height="224pt"
 viewBox="0.00 0.00 390.50 223.75" xmlns="http://www.w3.org/2000/svg" xmlns:xlink="http://www.w3.org/1999/xlink">
<g id="page0,1_graph0" class="graph" transform="scale(1 1) rotate(0) translate(4 219.75)">
<title>RCCEx</title>
<!-- Node1 -->
<g id="Node000001" class="node">
<title>Node1</title>
<g id="a_Node000001"><a xlink:title="RCCEx HAL module driver.">
<polygon fill="#999999" stroke="#666666" points="204.5,-117.75 158.5,-117.75 158.5,-97 204.5,-97 204.5,-117.75"/>
<text text-anchor="middle" x="181.5" y="-104.25" font-family="Helvetica,sans-Serif" font-size="10.00">RCCEx</text>
</a>
</g>
</g>
<!-- Node4 -->
<g id="Node000004" class="node">
<title>Node4</title>
<g id="a_Node000004"><a xlink:href="group__RCCEx__Exported__Constants.html" target="_top" xlink:title=" ">
<polygon fill="white" stroke="#666666" points="380.62,-215.75 242.38,-215.75 242.38,-195 380.62,-195 380.62,-215.75"/>
<text text-anchor="middle" x="311.5" y="-202.25" font-family="Helvetica,sans-Serif" font-size="10.00">RCCEx Exported Constants</text>
</a>
</g>
</g>
<!-- Node1&#45;&gt;Node4 -->
<g id="edge3" class="edge">
<title>Node1&#45;&gt;Node4</title>
<path fill="none" stroke="black" d="M192.92,-128.18C202.83,-145.9 219.35,-170.75 240.5,-185.38 245.91,-189.11 252,-192.16 258.29,-194.64"/>
<polygon fill="black" stroke="black" points="196.12,-126.75 188.33,-119.56 189.94,-130.03 196.12,-126.75"/>
</g>
<!-- Node8 -->
<g id="Node000008" class="node">
<title>Node8</title>
<g id="a_Node000008"><a xlink:href="group__RCCEx__Exported__Functions.html" target="_top" xlink:title=" ">
<polygon fill="white" stroke="#666666" points="382.5,-176.75 240.5,-176.75 240.5,-156 382.5,-156 382.5,-176.75"/>
<text text-anchor="middle" x="311.5" y="-163.25" font-family="Helvetica,sans-Serif" font-size="10.00">RCCEx_Exported_Functions</text>
</a>
</g>
</g>
<!-- Node1&#45;&gt;Node8 -->
<g id="edge7" class="edge">
<title>Node1&#45;&gt;Node8</title>
<path fill="none" stroke="black" d="M204.75,-124.74C215.16,-132.22 227.99,-140.56 240.5,-146.38 248.18,-149.94 256.63,-153.02 264.93,-155.6"/>
<polygon fill="black" stroke="black" points="206.94,-122.01 196.82,-118.85 202.76,-127.63 206.94,-122.01"/>
</g>
<!-- Node5 -->
<g id="Node000005" class="node">
<title>Node5</title>
<g id="a_Node000005"><a xlink:href="group__RCCEx__Exported__Macros.html" target="_top" xlink:title=" ">
<polygon fill="white" stroke="#666666" points="373.5,-137.75 249.5,-137.75 249.5,-117 373.5,-117 373.5,-137.75"/>
<text text-anchor="middle" x="311.5" y="-124.25" font-family="Helvetica,sans-Serif" font-size="10.00">RCCEx Exported Macros</text>
</a>
</g>
</g>
<!-- Node1&#45;&gt;Node5 -->
<g id="edge4" class="edge">
<title>Node1&#45;&gt;Node5</title>
<path fill="none" stroke="black" d="M216.04,-112.62C226.22,-114.21 237.74,-116.01 249.14,-117.79"/>
<polygon fill="black" stroke="black" points="216.71,-109.18 206.29,-111.09 215.63,-116.09 216.71,-109.18"/>
</g>
<!-- Node3 -->
<g id="Node000003" class="node">
<title>Node3</title>
<g id="a_Node000003"><a xlink:href="group__RCCEx__Exported__Types.html" target="_top" xlink:title=" ">
<polygon fill="white" stroke="#666666" points="370.5,-98.75 252.5,-98.75 252.5,-78 370.5,-78 370.5,-98.75"/>
<text text-anchor="middle" x="311.5" y="-85.25" font-family="Helvetica,sans-Serif" font-size="10.00">RCCEx Exported Types</text>
</a>
</g>
</g>
<!-- Node1&#45;&gt;Node3 -->
<g id="edge2" class="edge">
<title>Node1&#45;&gt;Node3</title>
<path fill="none" stroke="black" d="M216.09,-102.39C227.16,-100.75 239.8,-98.87 252.17,-97.03"/>
<polygon fill="black" stroke="black" points="215.67,-98.91 206.29,-103.84 216.7,-105.84 215.67,-98.91"/>
</g>
<!-- Node6 -->
<g id="Node000006" class="node">
<title>Node6</title>
<g id="a_Node000006"><a xlink:href="group__RCCEx__Private__Constants.html" target="_top" xlink:title=" ">
<polygon fill="white" stroke="#666666" points="375.38,-59.75 247.62,-59.75 247.62,-39 375.38,-39 375.38,-59.75"/>
<text text-anchor="middle" x="311.5" y="-46.25" font-family="Helvetica,sans-Serif" font-size="10.00">RCCEx Private Constants</text>
</a>
</g>
</g>
<!-- Node1&#45;&gt;Node6 -->
<g id="edge5" class="edge">
<title>Node1&#45;&gt;Node6</title>
<path fill="none" stroke="black" d="M205.23,-90.19C215.57,-82.98 228.22,-74.99 240.5,-69.38 248.2,-65.85 256.66,-62.8 264.97,-60.22"/>
<polygon fill="black" stroke="black" points="203.41,-87.18 197.34,-95.87 207.5,-92.87 203.41,-87.18"/>
</g>
<!-- Node7 -->
<g id="Node000007" class="node">
<title>Node7</title>
<g id="a_Node000007"><a xlink:href="group__RCCEx__Private__Macros.html" target="_top" xlink:title=" ">
<polygon fill="white" stroke="#666666" points="368.25,-20.75 254.75,-20.75 254.75,0 368.25,0 368.25,-20.75"/>
<text text-anchor="middle" x="311.5" y="-7.25" font-family="Helvetica,sans-Serif" font-size="10.00">RCCEx Private Macros</text>
</a>
</g>
</g>
<!-- Node1&#45;&gt;Node7 -->
<g id="edge6" class="edge">
<title>Node1&#45;&gt;Node7</title>
<path fill="none" stroke="black" d="M192.98,-86.84C202.93,-69.34 219.48,-44.81 240.5,-30.38 245.92,-26.65 252.02,-23.62 258.31,-21.15"/>
<polygon fill="black" stroke="black" points="190.06,-84.87 188.38,-95.33 196.22,-88.21 190.06,-84.87"/>
</g>
<!-- Node2 -->
<g id="Node000002" class="node">
<title>Node2</title>
<g id="a_Node000002"><a xlink:href="group__STM32F4xx__HAL__Driver.html" target="_top" xlink:title=" ">
<polygon fill="white" stroke="#666666" points="122.5,-117.75 0,-117.75 0,-97 122.5,-97 122.5,-117.75"/>
<text text-anchor="middle" x="61.25" y="-104.25" font-family="Helvetica,sans-Serif" font-size="10.00">STM32F4xx_HAL_Driver</text>
</a>
</g>
</g>
<!-- Node2&#45;&gt;Node1 -->
<g id="edge1" class="edge">
<title>Node2&#45;&gt;Node1</title>
<path fill="none" stroke="black" d="M134.2,-107.38C142.79,-107.38 151,-107.38 158.05,-107.38"/>
<polygon fill="black" stroke="black" points="134.27,-103.88 124.27,-107.38 134.27,-110.88 134.27,-103.88"/>
</g>
</g>
</svg>
