<?xml version="1.0" encoding="UTF-8" standalone="no"?>
<!DOCTYPE svg PUBLIC "-//W3C//DTD SVG 1.1//EN"
 "http://www.w3.org/Graphics/SVG/1.1/DTD/svg11.dtd">
<!-- Generated by graphviz version 12.2.1 (20241206.2353)
 -->
<!-- Title: SMBUS Exported Constants Pages: 1 -->
<!--zoomable 507 -->

<svg id="main" version="1.1" xmlns="http://www.w3.org/2000/svg" xmlns:xlink="http://www.w3.org/1999/xlink" xml:space="preserve" onload="init(evt)">

<style type="text/css"><![CDATA[
.node, .edge {opacity: 0.7;}
.node.selected, .edge.selected {opacity: 1;}
.edge:hover path { stroke: red; }
.edge:hover polygon { stroke: red; fill: red; }
]]></style>

<defs>
  <circle id="rim" cx="0" cy="0" r="7"/>
  <circle id="rim2" cx="0" cy="0" r="3.5"/>
  <g id="zoomPlus">
    <use xlink:href="#rim" fill="#404040"><set attributeName="fill" to="#808080" begin="zoomplus.mouseover" end="zoomplus.mouseout"/></use>
    <path d="M-4,0h8M0,-4v8" fill="none" stroke="white" stroke-width="1.5" pointer-events="none"/>
  </g>
  <g id="zoomMin">
    <use xlink:href="#rim" fill="#404040"><set attributeName="fill" to="#808080" begin="zoomminus.mouseover" end="zoomminus.mouseout"/></use>
    <path d="M-4,0h8" fill="none" stroke="white" stroke-width="1.5" pointer-events="none"/>
  </g>
  <g id="arrowUp" transform="translate(30 24)">
    <use xlink:href="#rim"/>
    <path pointer-events="none" fill="none" stroke="white" stroke-width="1.5" d="M0,-3.0v7 M-2.5,-0.5L0,-3.0L2.5,-0.5"/>
  </g>
  <g id="arrowRight" transform="rotate(90) translate(36 -43)">
    <use xlink:href="#rim"/>
    <path pointer-events="none" fill="none" stroke="white" stroke-width="1.5" d="M0,-3.0v7 M-2.5,-0.5L0,-3.0L2.5,-0.5"/>
  </g>
  <g id="arrowDown" transform="rotate(180) translate(-30 -48)">
    <use xlink:href="#rim"/>
    <path pointer-events="none" fill="none" stroke="white" stroke-width="1.5" d="M0,-3.0v7 M-2.5,-0.5L0,-3.0L2.5,-0.5"/>
  </g>
  <g id="arrowLeft" transform="rotate(270) translate(-36 17)">
    <use xlink:href="#rim"/>
    <path pointer-events="none" fill="none" stroke="white" stroke-width="1.5" d="M0,-3.0v7 M-2.5,-0.5L0,-3.0L2.5,-0.5"/>
  </g>
  <g id="resetDef">
    <use xlink:href="#rim2" fill="#404040"><set attributeName="fill" to="#808080" begin="reset.mouseover" end="reset.mouseout"/></use>
  </g>
</defs>
<script type="application/ecmascript">
var viewWidth = 421;
var viewHeight = 507;
var sectionId = 'dynsection-0';
</script>
<script type="application/ecmascript" xlink:href="svg.min.js"/>
<svg id="graph" class="graph">
<g id="viewport">
<title>SMBUS Exported Constants</title>
<!-- Node2 -->
<g id="Node000002" class="node">
<title>Node2</title>
<g id="a_Node000002"><a xlink:href="group__SMBUS.html" target="_top" xlink:title="SMBUS HAL module driver.">
<polygon fill="white" stroke="#666666" points="47.5,-258.75 0,-258.75 0,-238 47.5,-238 47.5,-258.75"/>
<text text-anchor="middle" x="23.75" y="-245.25" font-family="Helvetica,sans-Serif" font-size="10.00">SMBUS</text>
</a>
</g>
</g>
<!-- Node1 -->
<g id="Node000001" class="node">
<title>Node1</title>
<g id="a_Node000001"><a xlink:title=" ">
<polygon fill="#999999" stroke="#666666" points="223.25,-258.75 83.5,-258.75 83.5,-238 223.25,-238 223.25,-258.75"/>
<text text-anchor="middle" x="153.38" y="-245.25" font-family="Helvetica,sans-Serif" font-size="10.00">SMBUS Exported Constants</text>
</a>
</g>
</g>
<!-- Node2&#45;&gt;Node1 -->
<g id="edge1" class="edge">
<title>Node2&#45;&gt;Node1</title>
<path fill="none" stroke="black" d="M59.33,-248.38C66.8,-248.38 74.95,-248.38 83.23,-248.38"/>
<polygon fill="black" stroke="black" points="59.38,-244.88 49.38,-248.38 59.38,-251.88 59.38,-244.88"/>
</g>
<!-- Node4 -->
<g id="Node000004" class="node">
<title>Node4</title>
<g id="a_Node000004"><a xlink:href="group__SMBUS__Analog__Filter.html" target="_top" xlink:title=" ">
<polygon fill="white" stroke="#666666" points="390,-498.75 281.75,-498.75 281.75,-478 390,-478 390,-498.75"/>
<text text-anchor="middle" x="335.88" y="-485.25" font-family="Helvetica,sans-Serif" font-size="10.00">SMBUS Analog Filter</text>
</a>
</g>
</g>
<!-- Node3 -->
<g id="Node000003" class="node">
<title>Node3</title>
<g id="a_Node000003"><a xlink:href="group__SMBUS__Error__Code__definition.html" target="_top" xlink:title="SMBUS Error Code.">
<polygon fill="white" stroke="#666666" points="385.5,-459.75 286.25,-459.75 286.25,-439 385.5,-439 385.5,-459.75"/>
<text text-anchor="middle" x="335.88" y="-446.25" font-family="Helvetica,sans-Serif" font-size="10.00">SMBUS Error Code</text>
</a>
</g>
</g>
<!-- Node1&#45;&gt;Node4 -->
<g id="edge3" class="edge">
<title>Node1&#45;&gt;Node4</title>
<path fill="none" stroke="black" d="M158.42,-270.17C167.82,-314.5 195.37,-415.41 259.25,-468.38 265.73,-473.75 273.51,-477.69 281.58,-480.59"/>
<polygon fill="black" stroke="black" points="161.88,-269.63 156.49,-260.51 155.02,-271 161.88,-269.63"/>
</g>
<!-- Node1&#45;&gt;Node3 -->
<g id="edge2" class="edge">
<title>Node1&#45;&gt;Node3</title>
<path fill="none" stroke="black" d="M160.68,-269.68C173.07,-307.75 204.29,-387.41 259.25,-429.38 267.02,-435.31 276.4,-439.49 285.88,-442.43"/>
<polygon fill="black" stroke="black" points="164.08,-268.83 157.76,-260.32 157.4,-270.91 164.08,-268.83"/>
</g>
<!-- Node14 -->
<g id="Node000014" class="node">
<title>Node14</title>
<g id="a_Node000014"><a xlink:href="group__SMBUS__Flag__definition.html" target="_top" xlink:title=" ">
<polygon fill="white" stroke="#666666" points="393.75,-420.75 278,-420.75 278,-400 393.75,-400 393.75,-420.75"/>
<text text-anchor="middle" x="335.88" y="-407.25" font-family="Helvetica,sans-Serif" font-size="10.00">SMBUS Flag definition</text>
</a>
</g>
</g>
<!-- Node1&#45;&gt;Node14 -->
<g id="edge13" class="edge">
<title>Node1&#45;&gt;Node14</title>
<path fill="none" stroke="black" d="M163.8,-269.17C179.15,-300.64 212.61,-360 259.25,-391.38 264.87,-395.15 271.17,-398.18 277.69,-400.6"/>
<polygon fill="black" stroke="black" points="167.05,-267.86 159.61,-260.31 160.72,-270.85 167.05,-267.86"/>
</g>
<!-- Node13 -->
<g id="Node000013" class="node">
<title>Node13</title>
<g id="a_Node000013"><a xlink:href="group__SMBUS__Interrupt__configuration__definition.html" target="_top" xlink:title=" ">
<polygon fill="white" stroke="#666666" points="412.5,-382.12 259.25,-382.12 259.25,-348.62 412.5,-348.62 412.5,-382.12"/>
<text text-anchor="start" x="267.25" y="-368.62" font-family="Helvetica,sans-Serif" font-size="10.00">SMBUS Interrupt configuration</text>
<text text-anchor="middle" x="335.88" y="-355.88" font-family="Helvetica,sans-Serif" font-size="10.00"> definition</text>
</a>
</g>
</g>
<!-- Node1&#45;&gt;Node13 -->
<g id="edge12" class="edge">
<title>Node1&#45;&gt;Node13</title>
<path fill="none" stroke="black" d="M171.78,-267.3C191.33,-287.59 224.87,-319.55 259.25,-339.38 264.9,-342.63 271.03,-345.57 277.27,-348.2"/>
<polygon fill="black" stroke="black" points="174.51,-265.1 165.09,-260.24 169.42,-269.91 174.51,-265.1"/>
</g>
<!-- Node11 -->
<g id="Node000011" class="node">
<title>Node11</title>
<g id="a_Node000011"><a xlink:href="group__SMBUS__XferDirection__definition.html" target="_top" xlink:title=" ">
<polygon fill="white" stroke="#666666" points="390.38,-330.12 281.38,-330.12 281.38,-296.62 390.38,-296.62 390.38,-330.12"/>
<text text-anchor="start" x="289.38" y="-316.62" font-family="Helvetica,sans-Serif" font-size="10.00">SMBUS XferDirection</text>
<text text-anchor="middle" x="335.88" y="-303.88" font-family="Helvetica,sans-Serif" font-size="10.00"> definition</text>
</a>
</g>
</g>
<!-- Node1&#45;&gt;Node11 -->
<g id="edge10" class="edge">
<title>Node1&#45;&gt;Node11</title>
<path fill="none" stroke="black" d="M193.51,-263.19C213.19,-270.57 237.44,-279.57 259.25,-287.38 267.35,-290.27 275.97,-293.29 284.37,-296.21"/>
<polygon fill="black" stroke="black" points="194.8,-259.94 184.21,-259.69 192.34,-266.49 194.8,-259.94"/>
</g>
<!-- Node12 -->
<g id="Node000012" class="node">
<title>Node12</title>
<g id="a_Node000012"><a xlink:href="group__SMBUS__XferOptions__definition.html" target="_top" xlink:title=" ">
<polygon fill="white" stroke="#666666" points="411,-278.75 260.75,-278.75 260.75,-258 411,-258 411,-278.75"/>
<text text-anchor="middle" x="335.88" y="-265.25" font-family="Helvetica,sans-Serif" font-size="10.00">SMBUS XferOptions definition</text>
</a>
</g>
</g>
<!-- Node1&#45;&gt;Node12 -->
<g id="edge11" class="edge">
<title>Node1&#45;&gt;Node12</title>
<path fill="none" stroke="black" d="M235.05,-257.31C243.48,-258.25 252.03,-259.2 260.39,-260.12"/>
<polygon fill="black" stroke="black" points="235.47,-253.84 225.15,-256.22 234.7,-260.8 235.47,-253.84"/>
</g>
<!-- Node5 -->
<g id="Node000005" class="node">
<title>Node5</title>
<g id="a_Node000005"><a xlink:href="group__SMBUS__addressing__mode.html" target="_top" xlink:title=" ">
<polygon fill="white" stroke="#666666" points="399.75,-239.75 272,-239.75 272,-219 399.75,-219 399.75,-239.75"/>
<text text-anchor="middle" x="335.88" y="-226.25" font-family="Helvetica,sans-Serif" font-size="10.00">SMBUS addressing mode</text>
</a>
</g>
</g>
<!-- Node1&#45;&gt;Node5 -->
<g id="edge4" class="edge">
<title>Node1&#45;&gt;Node5</title>
<path fill="none" stroke="black" d="M234.88,-239.9C247.22,-238.6 259.81,-237.28 271.71,-236.02"/>
<polygon fill="black" stroke="black" points="234.73,-236.4 225.15,-240.92 235.46,-243.36 234.73,-236.4"/>
</g>
<!-- Node6 -->
<g id="Node000006" class="node">
<title>Node6</title>
<g id="a_Node000006"><a xlink:href="group__SMBUS__dual__addressing__mode.html" target="_top" xlink:title=" ">
<polygon fill="white" stroke="#666666" points="410.62,-200.75 261.12,-200.75 261.12,-180 410.62,-180 410.62,-200.75"/>
<text text-anchor="middle" x="335.88" y="-187.25" font-family="Helvetica,sans-Serif" font-size="10.00">SMBUS dual addressing mode</text>
</a>
</g>
</g>
<!-- Node1&#45;&gt;Node6 -->
<g id="edge5" class="edge">
<title>Node1&#45;&gt;Node6</title>
<path fill="none" stroke="black" d="M192.89,-233.49C212.6,-226.11 237.05,-217.32 259.25,-210.38 269.49,-207.17 280.61,-204.04 291.1,-201.24"/>
<polygon fill="black" stroke="black" points="191.72,-230.19 183.6,-237 194.2,-236.74 191.72,-230.19"/>
</g>
<!-- Node7 -->
<g id="Node000007" class="node">
<title>Node7</title>
<g id="a_Node000007"><a xlink:href="group__SMBUS__general__call__addressing__mode.html" target="_top" xlink:title=" ">
<polygon fill="white" stroke="#666666" points="387,-162.12 284.75,-162.12 284.75,-128.62 387,-128.62 387,-162.12"/>
<text text-anchor="start" x="292.75" y="-148.62" font-family="Helvetica,sans-Serif" font-size="10.00">SMBUS general call</text>
<text text-anchor="middle" x="335.88" y="-135.88" font-family="Helvetica,sans-Serif" font-size="10.00"> addressing mode</text>
</a>
</g>
</g>
<!-- Node1&#45;&gt;Node7 -->
<g id="edge6" class="edge">
<title>Node1&#45;&gt;Node7</title>
<path fill="none" stroke="black" d="M175.16,-230.15C195.46,-213.09 227.81,-187.83 259.25,-171.38 267.12,-167.25 275.78,-163.57 284.35,-160.36"/>
<polygon fill="black" stroke="black" points="172.95,-227.43 167.62,-236.59 177.5,-232.76 172.95,-227.43"/>
</g>
<!-- Node8 -->
<g id="Node000008" class="node">
<title>Node8</title>
<g id="a_Node000008"><a xlink:href="group__SMBUS__nostretch__mode.html" target="_top" xlink:title=" ">
<polygon fill="white" stroke="#666666" points="396.75,-110.75 275,-110.75 275,-90 396.75,-90 396.75,-110.75"/>
<text text-anchor="middle" x="335.88" y="-97.25" font-family="Helvetica,sans-Serif" font-size="10.00">SMBUS nostretch mode</text>
</a>
</g>
</g>
<!-- Node1&#45;&gt;Node8 -->
<g id="edge7" class="edge">
<title>Node1&#45;&gt;Node8</title>
<path fill="none" stroke="black" d="M165.27,-227.97C181.72,-199.21 215.65,-147.15 259.25,-119.38 264.39,-116.1 270.06,-113.39 275.91,-111.15"/>
<polygon fill="black" stroke="black" points="162.37,-225.99 160.58,-236.43 168.49,-229.39 162.37,-225.99"/>
</g>
<!-- Node9 -->
<g id="Node000009" class="node">
<title>Node9</title>
<g id="a_Node000009"><a xlink:href="group__SMBUS__packet__error__check__mode.html" target="_top" xlink:title=" ">
<polygon fill="white" stroke="#666666" points="388.12,-72.12 283.62,-72.12 283.62,-38.62 388.12,-38.62 388.12,-72.12"/>
<text text-anchor="start" x="291.62" y="-58.62" font-family="Helvetica,sans-Serif" font-size="10.00">SMBUS packet error</text>
<text text-anchor="middle" x="335.88" y="-45.88" font-family="Helvetica,sans-Serif" font-size="10.00"> check mode</text>
</a>
</g>
</g>
<!-- Node1&#45;&gt;Node9 -->
<g id="edge8" class="edge">
<title>Node1&#45;&gt;Node9</title>
<path fill="none" stroke="black" d="M162.22,-227.12C176.3,-191.84 209.13,-121.13 259.25,-81.38 266.32,-75.77 274.68,-71.33 283.21,-67.83"/>
<polygon fill="black" stroke="black" points="159.04,-225.63 158.71,-236.22 165.58,-228.15 159.04,-225.63"/>
</g>
<!-- Node10 -->
<g id="Node000010" class="node">
<title>Node10</title>
<g id="a_Node000010"><a xlink:href="group__SMBUS__peripheral__mode.html" target="_top" xlink:title=" ">
<polygon fill="white" stroke="#666666" points="398.25,-20.75 273.5,-20.75 273.5,0 398.25,0 398.25,-20.75"/>
<text text-anchor="middle" x="335.88" y="-7.25" font-family="Helvetica,sans-Serif" font-size="10.00">SMBUS peripheral mode</text>
</a>
</g>
</g>
<!-- Node1&#45;&gt;Node10 -->
<g id="edge9" class="edge">
<title>Node1&#45;&gt;Node10</title>
<path fill="none" stroke="black" d="M158.4,-226.61C167.76,-182.36 195.24,-81.69 259.25,-29.38 263.44,-25.95 268.17,-23.13 273.17,-20.81"/>
<polygon fill="black" stroke="black" points="155,-225.76 156.48,-236.25 161.87,-227.13 155,-225.76"/>
</g>
</g>
</svg>

<g id="navigator" transform="translate(0 0)" fill="#404254">
  <rect fill="#f2f5e9" fill-opacity="0.5" stroke="#606060" stroke-width=".5" x="0" y="0" width="60" height="60"/>
  <use id="zoomplus" xlink:href="#zoomPlus" x="17" y="9" onmousedown="handleZoom(evt,'in')"/>
  <use id="zoomminus" xlink:href="#zoomMin" x="42" y="9" onmousedown="handleZoom(evt,'out')"/>
  <use id="reset" xlink:href="#resetDef" x="30" y="36" onmousedown="handleReset()"/>
   <use id="arrowup" xlink:href="#arrowUp" x="0" y="0" onmousedown="handlePan(0,-1)"/>
  <use id="arrowright" xlink:href="#arrowRight" x="0" y="0" onmousedown="handlePan(1,0)"/>
  <use id="arrowdown" xlink:href="#arrowDown" x="0" y="0" onmousedown="handlePan(0,1)"/>
  <use id="arrowleft" xlink:href="#arrowLeft" x="0" y="0" onmousedown="handlePan(-1,0)"/>
</g>
<svg viewBox="0 0 15 15" width="100%" height="30px" preserveAspectRatio="xMaxYMin meet">
 <g id="arrow_out" transform="scale(0.3 0.3)">
  <a xlink:href="group__SMBUS__Exported__Constants_org.svg" target="_base">
   <rect id="button" ry="5" rx="5" y="6" x="6" height="38" width="38"
        fill="#f2f5e9" fill-opacity="0.5" stroke="#606060" stroke-width="1.0"/>
   <path id="arrow"
     d="M 11.500037,31.436501 C 11.940474,20.09759 22.043105,11.32322 32.158766,21.979434 L 37.068811,17.246167 C 37.068811,17.246167 37.088388,32 37.088388,32 L 22.160133,31.978069 C 22.160133,31.978069 26.997745,27.140456 26.997745,27.140456 C 18.528582,18.264221 13.291696,25.230495 11.500037,31.436501 z"
     style="fill:#404040;"/>
  </a>
 </g>
</svg>

<style type='text/css'>
<![CDATA[
[data-mouse-over-selected='false'] { opacity: 0.7; }
[data-mouse-over-selected='true']  { opacity: 1.0; }
]]>
</style>
<script type="application/ecmascript"><![CDATA[
document.addEventListener('DOMContentLoaded', (event) => {
  highlightEdges();
  highlightAdjacentNodes();
});
]]></script>
</svg>
