<?xml version="1.0" encoding="UTF-8" standalone="no"?>
<!DOCTYPE svg PUBLIC "-//W3C//DTD SVG 1.1//EN"
 "http://www.w3.org/Graphics/SVG/1.1/DTD/svg11.dtd">
<!-- Generated by graphviz version 12.2.1 (20241206.2353)
 -->
<!-- Title: ADCEx Pages: 1 -->
<svg width="391pt" height="263pt"
 viewBox="0.00 0.00 390.50 262.75" xmlns="http://www.w3.org/2000/svg" xmlns:xlink="http://www.w3.org/1999/xlink">

<svg id="main" version="1.1" xmlns="http://www.w3.org/2000/svg" xmlns:xlink="http://www.w3.org/1999/xlink" xml:space="preserve">

<style type="text/css"><![CDATA[
.node, .edge {opacity: 0.7;}
.node.selected, .edge.selected {opacity: 1;}
.edge:hover path { stroke: red; }
.edge:hover polygon { stroke: red; fill: red; }
]]></style>
<script type="application/ecmascript" xlink:href="svg.min.js"/>
<svg id="graph" class="graph">
<g id="graph0" class="graph" transform="scale(1 1) rotate(0) translate(4 258.75)">
<title>ADCEx</title>
<!-- Node1 -->
<g id="Node000001" class="node">
<title>Node1</title>
<g id="a_Node000001"><a xlink:title="ADC Extended driver modules.">
<polygon fill="#999999" stroke="#666666" points="204.5,-137.75 158.5,-137.75 158.5,-117 204.5,-117 204.5,-137.75"/>
<text text-anchor="middle" x="181.5" y="-124.25" font-family="Helvetica,sans-Serif" font-size="10.00">ADCEx</text>
</a>
</g>
</g>
<!-- Node4 -->
<g id="Node000004" class="node">
<title>Node4</title>
<g id="a_Node000004"><a xlink:href="group__ADCEx__Exported__Constants.html" target="_top" xlink:title=" ">
<polygon fill="white" stroke="#666666" points="375.38,-254.75 247.62,-254.75 247.62,-234 375.38,-234 375.38,-254.75"/>
<text text-anchor="middle" x="311.5" y="-241.25" font-family="Helvetica,sans-Serif" font-size="10.00">ADC Exported Constants</text>
</a>
</g>
</g>
<!-- Node1&#45;&gt;Node4 -->
<g id="edge3" class="edge">
<title>Node1&#45;&gt;Node4</title>
<path fill="none" stroke="black" d="M189.9,-148.87C198.61,-171 215.18,-204.92 240.5,-224.38 245.31,-228.07 250.78,-231.08 256.49,-233.54"/>
<polygon fill="black" stroke="black" points="193.24,-147.81 186.49,-139.65 186.68,-150.24 193.24,-147.81"/>
</g>
<!-- Node9 -->
<g id="Node000009" class="node">
<title>Node9</title>
<g id="a_Node000009"><a xlink:href="group__ADCEx__Exported__Functions.html" target="_top" xlink:title=" ">
<polygon fill="white" stroke="#666666" points="382.5,-215.75 240.5,-215.75 240.5,-195 382.5,-195 382.5,-215.75"/>
<text text-anchor="middle" x="311.5" y="-202.25" font-family="Helvetica,sans-Serif" font-size="10.00">ADCEx_Exported_Functions</text>
</a>
</g>
</g>
<!-- Node1&#45;&gt;Node9 -->
<g id="edge8" class="edge">
<title>Node1&#45;&gt;Node9</title>
<path fill="none" stroke="black" d="M197.53,-146.89C208.24,-159.55 223.68,-175.48 240.5,-185.38 246.71,-189.03 253.62,-192.05 260.62,-194.53"/>
<polygon fill="black" stroke="black" points="200.29,-144.73 191.27,-139.17 194.85,-149.14 200.29,-144.73"/>
</g>
<!-- Node3 -->
<g id="Node000003" class="node">
<title>Node3</title>
<g id="a_Node000003"><a xlink:href="group__ADCEx__Exported__Types.html" target="_top" xlink:title=" ">
<polygon fill="white" stroke="#666666" points="365.25,-176.75 257.75,-176.75 257.75,-156 365.25,-156 365.25,-176.75"/>
<text text-anchor="middle" x="311.5" y="-163.25" font-family="Helvetica,sans-Serif" font-size="10.00">ADC Exported Types</text>
</a>
</g>
</g>
<!-- Node1&#45;&gt;Node3 -->
<g id="edge2" class="edge">
<title>Node1&#45;&gt;Node3</title>
<path fill="none" stroke="black" d="M215.42,-138.4C223.6,-141.07 232.35,-143.88 240.5,-146.38 250.53,-149.45 261.41,-152.63 271.54,-155.53"/>
<polygon fill="black" stroke="black" points="216.78,-135.16 206.18,-135.36 214.59,-141.81 216.78,-135.16"/>
</g>
<!-- Node6 -->
<g id="Node000006" class="node">
<title>Node6</title>
<g id="a_Node000006"><a xlink:href="group__ADCEx__Private__Constants.html" target="_top" xlink:title=" ">
<polygon fill="white" stroke="#666666" points="370.12,-137.75 252.88,-137.75 252.88,-117 370.12,-117 370.12,-137.75"/>
<text text-anchor="middle" x="311.5" y="-124.25" font-family="Helvetica,sans-Serif" font-size="10.00">ADC Private Constants</text>
</a>
</g>
</g>
<!-- Node1&#45;&gt;Node6 -->
<g id="edge5" class="edge">
<title>Node1&#45;&gt;Node6</title>
<path fill="none" stroke="black" d="M216.16,-127.38C227.29,-127.38 240.02,-127.38 252.44,-127.38"/>
<polygon fill="black" stroke="black" points="216.31,-123.88 206.31,-127.38 216.31,-130.88 216.31,-123.88"/>
</g>
<!-- Node8 -->
<g id="Node000008" class="node">
<title>Node8</title>
<g id="a_Node000008"><a xlink:href="group__ADCEx__Private__Functions.html" target="_top" xlink:title=" ">
<polygon fill="white" stroke="#666666" points="369,-98.75 254,-98.75 254,-78 369,-78 369,-98.75"/>
<text text-anchor="middle" x="311.5" y="-85.25" font-family="Helvetica,sans-Serif" font-size="10.00">ADC Private Functions</text>
</a>
</g>
</g>
<!-- Node1&#45;&gt;Node8 -->
<g id="edge7" class="edge">
<title>Node1&#45;&gt;Node8</title>
<path fill="none" stroke="black" d="M215.42,-116.35C223.6,-113.68 232.35,-110.87 240.5,-108.38 250.53,-105.3 261.41,-102.12 271.54,-99.22"/>
<polygon fill="black" stroke="black" points="214.59,-112.94 206.18,-119.39 216.78,-119.59 214.59,-112.94"/>
</g>
<!-- Node7 -->
<g id="Node000007" class="node">
<title>Node7</title>
<g id="a_Node000007"><a xlink:href="group__ADCEx__Private__Macros.html" target="_top" xlink:title=" ">
<polygon fill="white" stroke="#666666" points="363,-59.75 260,-59.75 260,-39 363,-39 363,-59.75"/>
<text text-anchor="middle" x="311.5" y="-46.25" font-family="Helvetica,sans-Serif" font-size="10.00">ADC Private Macros</text>
</a>
</g>
</g>
<!-- Node1&#45;&gt;Node7 -->
<g id="edge6" class="edge">
<title>Node1&#45;&gt;Node7</title>
<path fill="none" stroke="black" d="M197.53,-107.86C208.24,-95.2 223.68,-79.27 240.5,-69.38 246.71,-65.72 253.62,-62.7 260.62,-60.22"/>
<polygon fill="black" stroke="black" points="194.85,-105.61 191.27,-115.58 200.29,-110.02 194.85,-105.61"/>
</g>
<!-- Node5 -->
<g id="Node000005" class="node">
<title>Node5</title>
<g id="a_Node000005"><a xlink:href="group__ADC__Exported__Macros.html" target="_top" xlink:title=" ">
<polygon fill="white" stroke="#666666" points="368.25,-20.75 254.75,-20.75 254.75,0 368.25,0 368.25,-20.75"/>
<text text-anchor="middle" x="311.5" y="-7.25" font-family="Helvetica,sans-Serif" font-size="10.00">ADC Exported Macros</text>
</a>
</g>
</g>
<!-- Node1&#45;&gt;Node5 -->
<g id="edge4" class="edge">
<title>Node1&#45;&gt;Node5</title>
<path fill="none" stroke="black" d="M189.9,-105.88C198.61,-83.75 215.18,-49.83 240.5,-30.38 245.31,-26.68 250.78,-23.67 256.49,-21.21"/>
<polygon fill="black" stroke="black" points="186.68,-104.51 186.49,-115.1 193.24,-106.94 186.68,-104.51"/>
</g>
<!-- Node2 -->
<g id="Node000002" class="node">
<title>Node2</title>
<g id="a_Node000002"><a xlink:href="group__STM32F4xx__HAL__Driver.html" target="_top" xlink:title=" ">
<polygon fill="white" stroke="#666666" points="122.5,-137.75 0,-137.75 0,-117 122.5,-117 122.5,-137.75"/>
<text text-anchor="middle" x="61.25" y="-124.25" font-family="Helvetica,sans-Serif" font-size="10.00">STM32F4xx_HAL_Driver</text>
</a>
</g>
</g>
<!-- Node2&#45;&gt;Node1 -->
<g id="edge1" class="edge">
<title>Node2&#45;&gt;Node1</title>
<path fill="none" stroke="black" d="M134.2,-127.38C142.79,-127.38 151,-127.38 158.05,-127.38"/>
<polygon fill="black" stroke="black" points="134.27,-123.88 124.27,-127.38 134.27,-130.88 134.27,-123.88"/>
</g>
</g>
</svg>
</svg>

<style type='text/css'>
<![CDATA[
[data-mouse-over-selected='false'] { opacity: 0.7; }
[data-mouse-over-selected='true']  { opacity: 1.0; }
]]>
</style>
<script type="application/ecmascript"><![CDATA[
document.addEventListener('DOMContentLoaded', (event) => {
  highlightEdges();
  highlightAdjacentNodes();
});
]]></script>
</svg>
