<?xml version="1.0" encoding="UTF-8" standalone="no"?>
<!DOCTYPE svg PUBLIC "-//W3C//DTD SVG 1.1//EN"
 "http://www.w3.org/Graphics/SVG/1.1/DTD/svg11.dtd">
<!-- Generated by graphviz version 2.43.0 (0)
 -->
<!-- Title: I2S_Exported_Functions Pages: 1 -->
<svg width="376pt" height="134pt"
 viewBox="0.00 0.00 376.00 134.00" xmlns="http://www.w3.org/2000/svg" xmlns:xlink="http://www.w3.org/1999/xlink">
<g id="graph0" class="graph" transform="scale(1 1) rotate(0) translate(4 130)">
<title>I2S_Exported_Functions</title>
<!-- Node2 -->
<g id="Node000002" class="node">
<title>Node2</title>
<g id="a_Node000002"><a xlink:href="group__I2S.html" target="_top" xlink:title=" ">
<polygon fill="white" stroke="#666666" points="32,-72.5 0,-72.5 0,-53.5 32,-53.5 32,-72.5"/>
<text text-anchor="middle" x="16" y="-60.5" font-family="Helvetica,sans-Serif" font-size="10.00">I2S</text>
</a>
</g>
</g>
<!-- Node1 -->
<g id="Node000001" class="node">
<title>Node1</title>
<g id="a_Node000001"><a xlink:title=" ">
<polygon fill="#999999" stroke="#666666" points="200,-72.5 68,-72.5 68,-53.5 200,-53.5 200,-72.5"/>
<text text-anchor="middle" x="134" y="-60.5" font-family="Helvetica,sans-Serif" font-size="10.00">I2S_Exported_Functions</text>
</a>
</g>
</g>
<!-- Node2&#45;&gt;Node1 -->
<g id="edge1" class="edge">
<title>Node2&#45;&gt;Node1</title>
<path fill="none" stroke="black" d="M42.21,-63C49.93,-63 58.81,-63 67.92,-63"/>
<polygon fill="black" stroke="black" points="42.17,-59.5 32.16,-63 42.16,-66.5 42.17,-59.5"/>
</g>
<!-- Node3 -->
<g id="Node000003" class="node">
<title>Node3</title>
<g id="a_Node000003"><a xlink:href="group__I2S__Exported__Functions__Group1.html" target="_top" xlink:title=" ">
<polygon fill="white" stroke="#666666" points="368,-126 236,-126 236,-96 368,-96 368,-126"/>
<text text-anchor="start" x="244" y="-114" font-family="Helvetica,sans-Serif" font-size="10.00">I2S_Exported_Functions</text>
<text text-anchor="middle" x="302" y="-103" font-family="Helvetica,sans-Serif" font-size="10.00">_Group1</text>
</a>
</g>
</g>
<!-- Node1&#45;&gt;Node3 -->
<g id="edge2" class="edge">
<title>Node1&#45;&gt;Node3</title>
<path fill="none" stroke="black" d="M178.09,-75.46C199.73,-81.72 226.13,-89.35 248.91,-95.94"/>
<polygon fill="black" stroke="black" points="178.77,-72.01 168.19,-72.6 176.83,-78.74 178.77,-72.01"/>
</g>
<!-- Node4 -->
<g id="Node000004" class="node">
<title>Node4</title>
<g id="a_Node000004"><a xlink:href="group__I2S__Exported__Functions__Group2.html" target="_top" xlink:title=" ">
<polygon fill="white" stroke="#666666" points="368,-78 236,-78 236,-48 368,-48 368,-78"/>
<text text-anchor="start" x="244" y="-66" font-family="Helvetica,sans-Serif" font-size="10.00">I2S_Exported_Functions</text>
<text text-anchor="middle" x="302" y="-55" font-family="Helvetica,sans-Serif" font-size="10.00">_Group2</text>
</a>
</g>
</g>
<!-- Node1&#45;&gt;Node4 -->
<g id="edge3" class="edge">
<title>Node1&#45;&gt;Node4</title>
<path fill="none" stroke="black" d="M210.39,-63C218.87,-63 227.45,-63 235.78,-63"/>
<polygon fill="black" stroke="black" points="210.13,-59.5 200.13,-63 210.13,-66.5 210.13,-59.5"/>
</g>
<!-- Node5 -->
<g id="Node000005" class="node">
<title>Node5</title>
<g id="a_Node000005"><a xlink:href="group__I2S__Exported__Functions__Group3.html" target="_top" xlink:title=" ">
<polygon fill="white" stroke="#666666" points="368,-30 236,-30 236,0 368,0 368,-30"/>
<text text-anchor="start" x="244" y="-18" font-family="Helvetica,sans-Serif" font-size="10.00">I2S_Exported_Functions</text>
<text text-anchor="middle" x="302" y="-7" font-family="Helvetica,sans-Serif" font-size="10.00">_Group3</text>
</a>
</g>
</g>
<!-- Node1&#45;&gt;Node5 -->
<g id="edge4" class="edge">
<title>Node1&#45;&gt;Node5</title>
<path fill="none" stroke="black" d="M178.09,-50.54C199.73,-44.28 226.13,-36.65 248.91,-30.06"/>
<polygon fill="black" stroke="black" points="176.83,-47.26 168.19,-53.4 178.77,-53.99 176.83,-47.26"/>
</g>
</g>
</svg>
