<?xml version="1.0" encoding="UTF-8" standalone="no"?>
<!DOCTYPE svg PUBLIC "-//W3C//DTD SVG 1.1//EN"
 "http://www.w3.org/Graphics/SVG/1.1/DTD/svg11.dtd">
<!-- Generated by graphviz version 2.43.0 (0)
 -->
<!-- Title: FLASH Exported Constants Pages: 1 -->
<!--zoomable 723 -->

<svg id="main" version="1.1" xmlns="http://www.w3.org/2000/svg" xmlns:xlink="http://www.w3.org/1999/xlink" xml:space="preserve" onload="init(evt)">
<style type="text/css"><![CDATA[
.node, .edge {opacity: 0.7;}
.node.selected, .edge.selected {opacity: 1;}
.edge:hover path { stroke: red; }
.edge:hover polygon { stroke: red; fill: red; }
]]></style>

<defs>
  <circle id="rim" cx="0" cy="0" r="7"/>
  <circle id="rim2" cx="0" cy="0" r="3.5"/>
  <g id="zoomPlus">
    <use xlink:href="#rim" fill="#404040"><set attributeName="fill" to="#808080" begin="zoomplus.mouseover" end="zoomplus.mouseout"/></use>
    <path d="M-4,0h8M0,-4v8" fill="none" stroke="white" stroke-width="1.5" pointer-events="none"/>
  </g>
  <g id="zoomMin">
    <use xlink:href="#rim" fill="#404040"><set attributeName="fill" to="#808080" begin="zoomminus.mouseover" end="zoomminus.mouseout"/></use>
    <path d="M-4,0h8" fill="none" stroke="white" stroke-width="1.5" pointer-events="none"/>
  </g>
  <g id="arrowUp" transform="translate(30 24)">
    <use xlink:href="#rim"/>
    <path pointer-events="none" fill="none" stroke="white" stroke-width="1.5" d="M0,-3.0v7 M-2.5,-0.5L0,-3.0L2.5,-0.5"/>
  </g>
  <g id="arrowRight" transform="rotate(90) translate(36 -43)">
    <use xlink:href="#rim"/>
    <path pointer-events="none" fill="none" stroke="white" stroke-width="1.5" d="M0,-3.0v7 M-2.5,-0.5L0,-3.0L2.5,-0.5"/>
  </g>
  <g id="arrowDown" transform="rotate(180) translate(-30 -48)">
    <use xlink:href="#rim"/>
    <path pointer-events="none" fill="none" stroke="white" stroke-width="1.5" d="M0,-3.0v7 M-2.5,-0.5L0,-3.0L2.5,-0.5"/>
  </g>
  <g id="arrowLeft" transform="rotate(270) translate(-36 17)">
    <use xlink:href="#rim"/>
    <path pointer-events="none" fill="none" stroke="white" stroke-width="1.5" d="M0,-3.0v7 M-2.5,-0.5L0,-3.0L2.5,-0.5"/>
  </g>
  <g id="resetDef">
    <use xlink:href="#rim2" fill="#404040"><set attributeName="fill" to="#808080" begin="reset.mouseover" end="reset.mouseout"/></use>
  </g>
</defs>
<script type="application/ecmascript">
var viewWidth = 467;
var viewHeight = 723;
var sectionId = 'dynsection-0';
</script>
<script type="application/ecmascript" xlink:href="svg.min.js"/>
<svg id="graph" class="graph">
<g id="viewport">
<title>FLASH Exported Constants</title>
<!-- Node2 -->
<g id="Node000002" class="node">
<title>Node2</title>
<g id="a_Node000002"><a xlink:href="group__FLASHEx.html" target="_top" xlink:title="FLASH HAL Extension module driver.">
<polygon fill="white" stroke="#666666" points="61,-356 0,-356 0,-337 61,-337 61,-356"/>
<text text-anchor="middle" x="30.5" y="-344" font-family="Helvetica,sans-Serif" font-size="10.00">FLASHEx</text>
</a>
</g>
</g>
<!-- Node1 -->
<g id="Node000001" class="node">
<title>Node1</title>
<g id="a_Node000001"><a xlink:title=" ">
<polygon fill="#999999" stroke="#666666" points="244,-356 97,-356 97,-337 244,-337 244,-356"/>
<text text-anchor="middle" x="170.5" y="-344" font-family="Helvetica,sans-Serif" font-size="10.00">FLASH Exported Constants</text>
</a>
</g>
</g>
<!-- Node2&#45;&gt;Node1 -->
<g id="edge1" class="edge">
<title>Node2&#45;&gt;Node1</title>
<path fill="none" stroke="black" d="M71.28,-346.5C79.34,-346.5 88.05,-346.5 96.85,-346.5"/>
<polygon fill="black" stroke="black" points="71.1,-343 61.1,-346.5 71.1,-350 71.1,-343"/>
</g>
<!-- Node12 -->
<g id="Node000012" class="node">
<title>Node12</title>
<g id="a_Node000012"><a xlink:href="group__FLASHEx__Advanced__Option__Type.html" target="_top" xlink:title=" ">
<polygon fill="white" stroke="#666666" points="450,-715 289,-715 289,-696 450,-696 450,-715"/>
<text text-anchor="middle" x="369.5" y="-703" font-family="Helvetica,sans-Serif" font-size="10.00">FLASH Advanced Option Type</text>
</a>
</g>
</g>
<!-- Node11 -->
<g id="Node000011" class="node">
<title>Node11</title>
<g id="a_Node000011"><a xlink:href="group__FLASHEx__BOR__Reset__Level.html" target="_top" xlink:title=" ">
<polygon fill="white" stroke="#666666" points="436,-678 303,-678 303,-659 436,-659 436,-678"/>
<text text-anchor="middle" x="369.5" y="-666" font-family="Helvetica,sans-Serif" font-size="10.00">FLASH BOR Reset Level</text>
</a>
</g>
</g>
<!-- Node14 -->
<g id="Node000014" class="node">
<title>Node14</title>
<g id="a_Node000014"><a xlink:href="group__FLASHEx__Banks.html" target="_top" xlink:title=" ">
<polygon fill="white" stroke="#666666" points="410.5,-641 328.5,-641 328.5,-622 410.5,-622 410.5,-641"/>
<text text-anchor="middle" x="369.5" y="-629" font-family="Helvetica,sans-Serif" font-size="10.00">FLASH Banks</text>
</a>
</g>
</g>
<!-- Node19 -->
<g id="Node000019" class="node">
<title>Node19</title>
<g id="a_Node000019"><a xlink:href="group__FLASHEx__Dual__Boot.html" target="_top" xlink:title=" ">
<polygon fill="white" stroke="#666666" points="419.5,-604 319.5,-604 319.5,-585 419.5,-585 419.5,-604"/>
<text text-anchor="middle" x="369.5" y="-592" font-family="Helvetica,sans-Serif" font-size="10.00">FLASH Dual Boot</text>
</a>
</g>
</g>
<!-- Node1&#45;&gt;Node12 -->
<g id="edge11" class="edge">
<title>Node1&#45;&gt;Node12</title>
<path fill="none" stroke="black" d="M171.34,-366.34C172.01,-425.16 182.5,-599.94 280,-687.5 283.73,-690.85 287.92,-693.65 292.38,-695.97"/>
<polygon fill="black" stroke="black" points="174.84,-366.17 171.31,-356.18 167.84,-366.19 174.84,-366.17"/>
</g>
<!-- Node1&#45;&gt;Node11 -->
<g id="edge10" class="edge">
<title>Node1&#45;&gt;Node11</title>
<path fill="none" stroke="black" d="M172.22,-366.35C175.32,-420.9 191.85,-574.07 280,-650.5 286.63,-656.25 294.6,-660.35 303,-663.24"/>
<polygon fill="black" stroke="black" points="175.71,-366.09 171.74,-356.27 168.72,-366.43 175.71,-366.09"/>
</g>
<!-- Node1&#45;&gt;Node14 -->
<g id="edge13" class="edge">
<title>Node1&#45;&gt;Node14</title>
<path fill="none" stroke="black" d="M173.3,-366.25C178.97,-416.15 201.06,-547.98 280,-613.5 293.39,-624.61 311.81,-629.48 328.38,-631.42"/>
<polygon fill="black" stroke="black" points="176.77,-365.73 172.26,-356.15 169.81,-366.45 176.77,-365.73"/>
</g>
<!-- Node1&#45;&gt;Node19 -->
<g id="edge18" class="edge">
<title>Node1&#45;&gt;Node19</title>
<path fill="none" stroke="black" d="M174.71,-366.22C183.12,-411.21 210.2,-521.73 280,-576.5 291.1,-585.21 305.34,-590.02 319.13,-592.6"/>
<polygon fill="black" stroke="black" points="178.14,-365.51 172.96,-356.27 171.24,-366.73 178.14,-365.51"/>
</g>
<!-- Node15 -->
<g id="Node000015" class="node">
<title>Node15</title>
<g id="a_Node000015"><a xlink:href="group__FLASHEx__MassErase__bit.html" target="_top" xlink:title=" ">
<polygon fill="white" stroke="#666666" points="431,-567 308,-567 308,-548 431,-548 431,-567"/>
<text text-anchor="middle" x="369.5" y="-555" font-family="Helvetica,sans-Serif" font-size="10.00">FLASH Mass Erase bit</text>
</a>
</g>
</g>
<!-- Node1&#45;&gt;Node15 -->
<g id="edge14" class="edge">
<title>Node1&#45;&gt;Node15</title>
<path fill="none" stroke="black" d="M176.69,-366.11C188.18,-405.47 219.66,-494.14 280,-538.5 288.23,-544.55 297.99,-548.75 307.96,-551.66"/>
<polygon fill="black" stroke="black" points="180.04,-365.08 173.97,-356.39 173.3,-366.96 180.04,-365.08"/>
</g>
<!-- Node8 -->
<g id="Node000008" class="node">
<title>Node8</title>
<g id="a_Node000008"><a xlink:href="group__FLASHEx__Option__Bytes__IWatchdog.html" target="_top" xlink:title=" ">
<polygon fill="white" stroke="#666666" points="427,-529.5 312,-529.5 312,-499.5 427,-499.5 427,-529.5"/>
<text text-anchor="start" x="320" y="-517.5" font-family="Helvetica,sans-Serif" font-size="10.00">FLASH Option Bytes</text>
<text text-anchor="middle" x="369.5" y="-506.5" font-family="Helvetica,sans-Serif" font-size="10.00"> IWatchdog</text>
</a>
</g>
</g>
<!-- Node1&#45;&gt;Node8 -->
<g id="edge7" class="edge">
<title>Node1&#45;&gt;Node8</title>
<path fill="none" stroke="black" d="M180.59,-365.6C196.36,-396.65 231.79,-457.87 280,-490.5 289.49,-496.92 300.65,-501.63 311.78,-505.08"/>
<polygon fill="black" stroke="black" points="183.57,-363.73 176.01,-356.32 177.29,-366.83 183.57,-363.73"/>
</g>
<!-- Node18 -->
<g id="Node000018" class="node">
<title>Node18</title>
<g id="a_Node000018"><a xlink:href="group__FLASHEx__Option__Bytes__PC__ReadWrite__Protection.html" target="_top" xlink:title=" ">
<polygon fill="white" stroke="#666666" points="439,-481.5 300,-481.5 300,-451.5 439,-451.5 439,-481.5"/>
<text text-anchor="start" x="308" y="-469.5" font-family="Helvetica,sans-Serif" font-size="10.00">FLASH Option Bytes</text>
<text text-anchor="middle" x="369.5" y="-458.5" font-family="Helvetica,sans-Serif" font-size="10.00"> PC ReadWrite Protection</text>
</a>
</g>
</g>
<!-- Node1&#45;&gt;Node18 -->
<g id="edge17" class="edge">
<title>Node1&#45;&gt;Node18</title>
<path fill="none" stroke="black" d="M186.53,-364.04C205.97,-385.63 241.89,-421.95 280,-442.5 286.31,-445.9 293.13,-448.85 300.09,-451.39"/>
<polygon fill="black" stroke="black" points="188.93,-361.47 179.69,-356.29 183.69,-366.1 188.93,-361.47"/>
</g>
<!-- Node7 -->
<g id="Node000007" class="node">
<title>Node7</title>
<g id="a_Node000007"><a xlink:href="group__FLASHEx__Option__Bytes__Read__Protection.html" target="_top" xlink:title=" ">
<polygon fill="white" stroke="#666666" points="427,-433.5 312,-433.5 312,-403.5 427,-403.5 427,-433.5"/>
<text text-anchor="start" x="320" y="-421.5" font-family="Helvetica,sans-Serif" font-size="10.00">FLASH Option Bytes</text>
<text text-anchor="middle" x="369.5" y="-410.5" font-family="Helvetica,sans-Serif" font-size="10.00"> Read Protection</text>
</a>
</g>
</g>
<!-- Node1&#45;&gt;Node7 -->
<g id="edge6" class="edge">
<title>Node1&#45;&gt;Node7</title>
<path fill="none" stroke="black" d="M199.99,-360.53C221.6,-370.82 252.22,-384.65 280,-394.5 290.2,-398.12 301.23,-401.51 311.92,-404.53"/>
<polygon fill="black" stroke="black" points="201.27,-357.26 190.74,-356.08 198.23,-363.57 201.27,-357.26"/>
</g>
<!-- Node17 -->
<g id="Node000017" class="node">
<title>Node17</title>
<g id="a_Node000017"><a xlink:href="group__FLASHEx__Option__Bytes__Write__Protection.html" target="_top" xlink:title=" ">
<polygon fill="white" stroke="#666666" points="427,-385.5 312,-385.5 312,-355.5 427,-355.5 427,-385.5"/>
<text text-anchor="start" x="320" y="-373.5" font-family="Helvetica,sans-Serif" font-size="10.00">FLASH Option Bytes</text>
<text text-anchor="middle" x="369.5" y="-362.5" font-family="Helvetica,sans-Serif" font-size="10.00"> Write Protection</text>
</a>
</g>
</g>
<!-- Node1&#45;&gt;Node17 -->
<g id="edge16" class="edge">
<title>Node1&#45;&gt;Node17</title>
<path fill="none" stroke="black" d="M254.09,-356.56C273.54,-358.93 293.84,-361.4 311.85,-363.6"/>
<polygon fill="black" stroke="black" points="254.37,-353.07 244.02,-355.33 253.52,-360.02 254.37,-353.07"/>
</g>
<!-- Node10 -->
<g id="Node000010" class="node">
<title>Node10</title>
<g id="a_Node000010"><a xlink:href="group__FLASHEx__Option__Bytes__nRST__STDBY.html" target="_top" xlink:title=" ">
<polygon fill="white" stroke="#666666" points="427,-337.5 312,-337.5 312,-307.5 427,-307.5 427,-337.5"/>
<text text-anchor="start" x="320" y="-325.5" font-family="Helvetica,sans-Serif" font-size="10.00">FLASH Option Bytes</text>
<text text-anchor="middle" x="369.5" y="-314.5" font-family="Helvetica,sans-Serif" font-size="10.00"> nRST_STDBY</text>
</a>
</g>
</g>
<!-- Node1&#45;&gt;Node10 -->
<g id="edge9" class="edge">
<title>Node1&#45;&gt;Node10</title>
<path fill="none" stroke="black" d="M254.09,-336.44C273.54,-334.07 293.84,-331.6 311.85,-329.4"/>
<polygon fill="black" stroke="black" points="253.52,-332.98 244.02,-337.67 254.37,-339.93 253.52,-332.98"/>
</g>
<!-- Node9 -->
<g id="Node000009" class="node">
<title>Node9</title>
<g id="a_Node000009"><a xlink:href="group__FLASHEx__Option__Bytes__nRST__STOP.html" target="_top" xlink:title=" ">
<polygon fill="white" stroke="#666666" points="427,-289.5 312,-289.5 312,-259.5 427,-259.5 427,-289.5"/>
<text text-anchor="start" x="320" y="-277.5" font-family="Helvetica,sans-Serif" font-size="10.00">FLASH Option Bytes</text>
<text text-anchor="middle" x="369.5" y="-266.5" font-family="Helvetica,sans-Serif" font-size="10.00"> nRST_STOP</text>
</a>
</g>
</g>
<!-- Node1&#45;&gt;Node9 -->
<g id="edge8" class="edge">
<title>Node1&#45;&gt;Node9</title>
<path fill="none" stroke="black" d="M199.99,-332.47C221.6,-322.18 252.22,-308.35 280,-298.5 290.2,-294.88 301.23,-291.49 311.92,-288.47"/>
<polygon fill="black" stroke="black" points="198.23,-329.43 190.74,-336.92 201.27,-335.74 198.23,-329.43"/>
</g>
<!-- Node6 -->
<g id="Node000006" class="node">
<title>Node6</title>
<g id="a_Node000006"><a xlink:href="group__FLASHEx__Option__Type.html" target="_top" xlink:title=" ">
<polygon fill="white" stroke="#666666" points="424.5,-241 314.5,-241 314.5,-222 424.5,-222 424.5,-241"/>
<text text-anchor="middle" x="369.5" y="-229" font-family="Helvetica,sans-Serif" font-size="10.00">FLASH Option Type</text>
</a>
</g>
</g>
<!-- Node1&#45;&gt;Node6 -->
<g id="edge5" class="edge">
<title>Node1&#45;&gt;Node6</title>
<path fill="none" stroke="black" d="M186.06,-328.97C205.26,-307.08 241.16,-270.13 280,-250.5 290.52,-245.18 302.47,-241.35 314.11,-238.59"/>
<polygon fill="black" stroke="black" points="183.19,-326.95 179.34,-336.82 188.5,-331.5 183.19,-326.95"/>
</g>
<!-- Node16 -->
<g id="Node000016" class="node">
<title>Node16</title>
<g id="a_Node000016"><a xlink:href="group__FLASHEx__Sectors.html" target="_top" xlink:title=" ">
<polygon fill="white" stroke="#666666" points="413.5,-204 325.5,-204 325.5,-185 413.5,-185 413.5,-204"/>
<text text-anchor="middle" x="369.5" y="-192" font-family="Helvetica,sans-Serif" font-size="10.00">FLASH Sectors</text>
</a>
</g>
</g>
<!-- Node1&#45;&gt;Node16 -->
<g id="edge15" class="edge">
<title>Node1&#45;&gt;Node16</title>
<path fill="none" stroke="black" d="M181.25,-327.78C197.53,-298.47 233.16,-242.15 280,-213.5 293.54,-205.22 310.17,-200.51 325.35,-197.85"/>
<polygon fill="black" stroke="black" points="177.98,-326.46 176.31,-336.93 184.14,-329.79 177.98,-326.46"/>
</g>
<!-- Node20 -->
<g id="Node000020" class="node">
<title>Node20</title>
<g id="a_Node000020"><a xlink:href="group__FLASHEx__Selection__Protection__Mode.html" target="_top" xlink:title=" ">
<polygon fill="white" stroke="#666666" points="459,-167 280,-167 280,-148 459,-148 459,-167"/>
<text text-anchor="middle" x="369.5" y="-155" font-family="Helvetica,sans-Serif" font-size="10.00">FLASH Selection Protection Mode</text>
</a>
</g>
</g>
<!-- Node1&#45;&gt;Node20 -->
<g id="edge19" class="edge">
<title>Node1&#45;&gt;Node20</title>
<path fill="none" stroke="black" d="M178.08,-327.2C191.32,-291.4 224.75,-214.88 280,-176.5 285.55,-172.64 291.73,-169.55 298.18,-167.07"/>
<polygon fill="black" stroke="black" points="174.67,-326.32 174.61,-336.91 181.27,-328.67 174.67,-326.32"/>
</g>
<!-- Node3 -->
<g id="Node000003" class="node">
<title>Node3</title>
<g id="a_Node000003"><a xlink:href="group__FLASHEx__Type__Erase.html" target="_top" xlink:title=" ">
<polygon fill="white" stroke="#666666" points="421.5,-130 317.5,-130 317.5,-111 421.5,-111 421.5,-130"/>
<text text-anchor="middle" x="369.5" y="-118" font-family="Helvetica,sans-Serif" font-size="10.00">FLASH Type Erase</text>
</a>
</g>
</g>
<!-- Node1&#45;&gt;Node3 -->
<g id="edge2" class="edge">
<title>Node1&#45;&gt;Node3</title>
<path fill="none" stroke="black" d="M175.86,-326.83C186.15,-285.21 216.08,-188.07 280,-139.5 290.76,-131.32 304.28,-126.5 317.49,-123.69"/>
<polygon fill="black" stroke="black" points="172.39,-326.27 173.51,-336.8 179.21,-327.87 172.39,-326.27"/>
</g>
<!-- Node4 -->
<g id="Node000004" class="node">
<title>Node4</title>
<g id="a_Node000004"><a xlink:href="group__FLASHEx__Voltage__Range.html" target="_top" xlink:title=" ">
<polygon fill="white" stroke="#666666" points="430.5,-93 308.5,-93 308.5,-74 430.5,-74 430.5,-93"/>
<text text-anchor="middle" x="369.5" y="-81" font-family="Helvetica,sans-Serif" font-size="10.00">FLASH Voltage Range</text>
</a>
</g>
</g>
<!-- Node1&#45;&gt;Node4 -->
<g id="edge3" class="edge">
<title>Node1&#45;&gt;Node4</title>
<path fill="none" stroke="black" d="M174.15,-326.93C181.58,-280.23 207.01,-161.75 280,-102.5 288.17,-95.86 298.13,-91.4 308.38,-88.43"/>
<polygon fill="black" stroke="black" points="170.67,-326.54 172.67,-336.95 177.6,-327.57 170.67,-326.54"/>
</g>
<!-- Node5 -->
<g id="Node000005" class="node">
<title>Node5</title>
<g id="a_Node000005"><a xlink:href="group__FLASHEx__WRP__State.html" target="_top" xlink:title=" ">
<polygon fill="white" stroke="#666666" points="421,-56 318,-56 318,-37 421,-37 421,-56"/>
<text text-anchor="middle" x="369.5" y="-44" font-family="Helvetica,sans-Serif" font-size="10.00">FLASH WRP State</text>
</a>
</g>
</g>
<!-- Node1&#45;&gt;Node5 -->
<g id="edge4" class="edge">
<title>Node1&#45;&gt;Node5</title>
<path fill="none" stroke="black" d="M172.9,-326.83C177.67,-275.31 197.93,-135.6 280,-65.5 290.52,-56.52 304.26,-51.47 317.77,-48.7"/>
<polygon fill="black" stroke="black" points="169.4,-326.68 172.06,-336.94 176.37,-327.26 169.4,-326.68"/>
</g>
<!-- Node13 -->
<g id="Node000013" class="node">
<title>Node13</title>
<g id="a_Node000013"><a xlink:href="group__FLASH__Latency.html" target="_top" xlink:title=" ">
<polygon fill="white" stroke="#666666" points="414.5,-19 324.5,-19 324.5,0 414.5,0 414.5,-19"/>
<text text-anchor="middle" x="369.5" y="-7" font-family="Helvetica,sans-Serif" font-size="10.00">FLASH Latency</text>
</a>
</g>
</g>
<!-- Node1&#45;&gt;Node13 -->
<g id="edge12" class="edge">
<title>Node1&#45;&gt;Node13</title>
<path fill="none" stroke="black" d="M171.91,-326.57C174.21,-270.39 188.83,-109.55 280,-28.5 292.1,-17.75 308.79,-12.57 324.41,-10.22"/>
<polygon fill="black" stroke="black" points="168.4,-326.8 171.58,-336.91 175.4,-327.02 168.4,-326.8"/>
</g>
</g>
</svg>

<g id="navigator" transform="translate(0 0)" fill="#404254">
  <rect fill="#f2f5e9" fill-opacity="0.5" stroke="#606060" stroke-width=".5" x="0" y="0" width="60" height="60"/>
  <use id="zoomplus" xlink:href="#zoomPlus" x="17" y="9" onmousedown="handleZoom(evt,'in')"/>
  <use id="zoomminus" xlink:href="#zoomMin" x="42" y="9" onmousedown="handleZoom(evt,'out')"/>
  <use id="reset" xlink:href="#resetDef" x="30" y="36" onmousedown="handleReset()"/>
   <use id="arrowup" xlink:href="#arrowUp" x="0" y="0" onmousedown="handlePan(0,-1)"/>
  <use id="arrowright" xlink:href="#arrowRight" x="0" y="0" onmousedown="handlePan(1,0)"/>
  <use id="arrowdown" xlink:href="#arrowDown" x="0" y="0" onmousedown="handlePan(0,1)"/>
  <use id="arrowleft" xlink:href="#arrowLeft" x="0" y="0" onmousedown="handlePan(-1,0)"/>
</g>
<svg viewBox="0 0 15 15" width="100%" height="30px" preserveAspectRatio="xMaxYMin meet">
 <g id="arrow_out" transform="scale(0.3 0.3)">
  <a xlink:href="group__FLASHEx__Exported__Constants_org.svg" target="_base">
   <rect id="button" ry="5" rx="5" y="6" x="6" height="38" width="38"
        fill="#f2f5e9" fill-opacity="0.5" stroke="#606060" stroke-width="1.0"/>
   <path id="arrow"
     d="M 11.500037,31.436501 C 11.940474,20.09759 22.043105,11.32322 32.158766,21.979434 L 37.068811,17.246167 C 37.068811,17.246167 37.088388,32 37.088388,32 L 22.160133,31.978069 C 22.160133,31.978069 26.997745,27.140456 26.997745,27.140456 C 18.528582,18.264221 13.291696,25.230495 11.500037,31.436501 z"
     style="fill:#404040;"/>
  </a>
 </g>
</svg>

<style type='text/css'>
<![CDATA[
[data-mouse-over-selected='false'] { opacity: 0.7; }
[data-mouse-over-selected='true']  { opacity: 1.0; }
]]>
</style>
<script type="application/ecmascript"><![CDATA[
document.addEventListener('DOMContentLoaded', (event) => {
  highlightEdges();
  highlightAdjacentNodes();
});
]]></script>
</svg>
