<?xml version="1.0" encoding="UTF-8" standalone="no"?>
<!DOCTYPE svg PUBLIC "-//W3C//DTD SVG 1.1//EN"
 "http://www.w3.org/Graphics/SVG/1.1/DTD/svg11.dtd">
<!-- Generated by graphviz version 2.43.0 (0)
 -->
<!-- Title: WWDG Pages: 1 -->
<svg width="417pt" height="175pt"
 viewBox="0.00 0.00 417.00 175.00" xmlns="http://www.w3.org/2000/svg" xmlns:xlink="http://www.w3.org/1999/xlink">

<svg id="main" version="1.1" xmlns="http://www.w3.org/2000/svg" xmlns:xlink="http://www.w3.org/1999/xlink" xml:space="preserve">

<style type="text/css"><![CDATA[
.node, .edge {opacity: 0.7;}
.node.selected, .edge.selected {opacity: 1;}
.edge:hover path { stroke: red; }
.edge:hover polygon { stroke: red; fill: red; }
]]></style>
<script type="application/ecmascript" xlink:href="svg.min.js"/>
<svg id="graph" class="graph">
<g id="graph0" class="graph" transform="scale(1 1) rotate(0) translate(4 171)">
<title>WWDG</title>
<!-- Node2 -->
<g id="Node000002" class="node">
<title>Node2</title>
<g id="a_Node000002"><a xlink:href="group__STM32F4xx__HAL__Driver.html" target="_top" xlink:title=" ">
<polygon fill="white" stroke="#666666" points="134,-93 0,-93 0,-74 134,-74 134,-93"/>
<text text-anchor="middle" x="67" y="-81" font-family="Helvetica,sans-Serif" font-size="10.00">STM32F4xx_HAL_Driver</text>
</a>
</g>
</g>
<!-- Node1 -->
<g id="Node000001" class="node">
<title>Node1</title>
<g id="a_Node000001"><a xlink:title=" ">
<polygon fill="#999999" stroke="#666666" points="221,-93 170,-93 170,-74 221,-74 221,-93"/>
<text text-anchor="middle" x="195.5" y="-81" font-family="Helvetica,sans-Serif" font-size="10.00">WWDG</text>
</a>
</g>
</g>
<!-- Node2&#45;&gt;Node1 -->
<g id="edge1" class="edge">
<title>Node2&#45;&gt;Node1</title>
<path fill="none" stroke="black" d="M144.24,-83.5C153.38,-83.5 162.14,-83.5 169.72,-83.5"/>
<polygon fill="black" stroke="black" points="144.21,-80 134.21,-83.5 144.21,-87 144.21,-80"/>
</g>
<!-- Node4 -->
<g id="Node000004" class="node">
<title>Node4</title>
<g id="a_Node000004"><a xlink:href="group__WWDG__Exported__Constants.html" target="_top" xlink:title=" ">
<polygon fill="white" stroke="#666666" points="407.5,-167 258.5,-167 258.5,-148 407.5,-148 407.5,-167"/>
<text text-anchor="middle" x="333" y="-155" font-family="Helvetica,sans-Serif" font-size="10.00">WWDG Exported Constants</text>
</a>
</g>
</g>
<!-- Node1&#45;&gt;Node4 -->
<g id="edge3" class="edge">
<title>Node1&#45;&gt;Node4</title>
<path fill="none" stroke="black" d="M210.58,-100.6C221.87,-113.19 238.78,-129.75 257,-139.5 263.38,-142.91 270.4,-145.68 277.51,-147.94"/>
<polygon fill="black" stroke="black" points="213.21,-98.28 204.02,-93.01 207.92,-102.86 213.21,-98.28"/>
</g>
<!-- Node7 -->
<g id="Node000007" class="node">
<title>Node7</title>
<g id="a_Node000007"><a xlink:href="group__WWDG__Exported__Functions.html" target="_top" xlink:title=" ">
<polygon fill="white" stroke="#666666" points="409,-130 257,-130 257,-111 409,-111 409,-130"/>
<text text-anchor="middle" x="333" y="-118" font-family="Helvetica,sans-Serif" font-size="10.00">WWDG_Exported_Functions</text>
</a>
</g>
</g>
<!-- Node1&#45;&gt;Node7 -->
<g id="edge6" class="edge">
<title>Node1&#45;&gt;Node7</title>
<path fill="none" stroke="black" d="M230.77,-94.71C239.31,-97.38 248.46,-100.14 257,-102.5 267.58,-105.43 279.08,-108.33 289.82,-110.92"/>
<polygon fill="black" stroke="black" points="231.7,-91.34 221.11,-91.65 229.59,-98.01 231.7,-91.34"/>
</g>
<!-- Node6 -->
<g id="Node000006" class="node">
<title>Node6</title>
<g id="a_Node000006"><a xlink:href="group__WWDG__Exported__Macros.html" target="_top" xlink:title=" ">
<polygon fill="white" stroke="#666666" points="401,-93 265,-93 265,-74 401,-74 401,-93"/>
<text text-anchor="middle" x="333" y="-81" font-family="Helvetica,sans-Serif" font-size="10.00">WWDG Exported Macros</text>
</a>
</g>
</g>
<!-- Node1&#45;&gt;Node6 -->
<g id="edge5" class="edge">
<title>Node1&#45;&gt;Node6</title>
<path fill="none" stroke="black" d="M231.26,-83.5C241.59,-83.5 253.28,-83.5 264.94,-83.5"/>
<polygon fill="black" stroke="black" points="231.04,-80 221.04,-83.5 231.04,-87 231.04,-80"/>
</g>
<!-- Node3 -->
<g id="Node000003" class="node">
<title>Node3</title>
<g id="a_Node000003"><a xlink:href="group__WWDG__Exported__Types.html" target="_top" xlink:title=" ">
<polygon fill="white" stroke="#666666" points="397,-56 269,-56 269,-37 397,-37 397,-56"/>
<text text-anchor="middle" x="333" y="-44" font-family="Helvetica,sans-Serif" font-size="10.00">WWDG Exported Types</text>
</a>
</g>
</g>
<!-- Node1&#45;&gt;Node3 -->
<g id="edge2" class="edge">
<title>Node1&#45;&gt;Node3</title>
<path fill="none" stroke="black" d="M230.82,-73.02C239.36,-70.49 248.49,-67.84 257,-65.5 268.66,-62.29 281.39,-58.99 292.99,-56.06"/>
<polygon fill="black" stroke="black" points="229.74,-69.69 221.16,-75.91 231.74,-76.4 229.74,-69.69"/>
</g>
<!-- Node5 -->
<g id="Node000005" class="node">
<title>Node5</title>
<g id="a_Node000005"><a xlink:href="group__WWDG__Private__Macros.html" target="_top" xlink:title=" ">
<polygon fill="white" stroke="#666666" points="396.5,-19 269.5,-19 269.5,0 396.5,0 396.5,-19"/>
<text text-anchor="middle" x="333" y="-7" font-family="Helvetica,sans-Serif" font-size="10.00">WWDG Private Macros</text>
</a>
</g>
</g>
<!-- Node1&#45;&gt;Node5 -->
<g id="edge4" class="edge">
<title>Node1&#45;&gt;Node5</title>
<path fill="none" stroke="black" d="M211.39,-66.01C222.72,-53.78 239.32,-38 257,-28.5 264.22,-24.62 272.25,-21.51 280.31,-19.03"/>
<polygon fill="black" stroke="black" points="208.5,-63.99 204.45,-73.78 213.72,-68.66 208.5,-63.99"/>
</g>
</g>
</svg>
</svg>

<style type='text/css'>
<![CDATA[
[data-mouse-over-selected='false'] { opacity: 0.7; }
[data-mouse-over-selected='true']  { opacity: 1.0; }
]]>
</style>
<script type="application/ecmascript"><![CDATA[
document.addEventListener('DOMContentLoaded', (event) => {
  highlightEdges();
  highlightAdjacentNodes();
});
]]></script>
</svg>
