<?xml version="1.0" encoding="UTF-8" standalone="no"?>
<!DOCTYPE svg PUBLIC "-//W3C//DTD SVG 1.1//EN"
 "http://www.w3.org/Graphics/SVG/1.1/DTD/svg11.dtd">
<!-- Generated by graphviz version 2.43.0 (0)
 -->
<!-- Title: PWREx Pages: 1 -->
<svg width="414pt" height="138pt"
 viewBox="0.00 0.00 414.00 138.00" xmlns="http://www.w3.org/2000/svg" xmlns:xlink="http://www.w3.org/1999/xlink">

<svg id="main" version="1.1" xmlns="http://www.w3.org/2000/svg" xmlns:xlink="http://www.w3.org/1999/xlink" xml:space="preserve">

<style type="text/css"><![CDATA[
.node, .edge {opacity: 0.7;}
.node.selected, .edge.selected {opacity: 1;}
.edge:hover path { stroke: red; }
.edge:hover polygon { stroke: red; fill: red; }
]]></style>
<script type="application/ecmascript" xlink:href="svg.min.js"/>
<svg id="graph" class="graph">
<g id="graph0" class="graph" transform="scale(1 1) rotate(0) translate(4 134)">
<title>PWREx</title>
<!-- Node1 -->
<g id="Node000001" class="node">
<title>Node1</title>
<g id="a_Node000001"><a xlink:title="PWR HAL module driver.">
<polygon fill="#999999" stroke="#666666" points="221,-74 170,-74 170,-55 221,-55 221,-74"/>
<text text-anchor="middle" x="195.5" y="-62" font-family="Helvetica,sans-Serif" font-size="10.00">PWREx</text>
</a>
</g>
</g>
<!-- Node3 -->
<g id="Node000003" class="node">
<title>Node3</title>
<g id="a_Node000003"><a xlink:href="group__PWREx__Exported__Constants.html" target="_top" xlink:title=" ">
<polygon fill="white" stroke="#666666" points="406,-130 257,-130 257,-111 406,-111 406,-130"/>
<text text-anchor="middle" x="331.5" y="-118" font-family="Helvetica,sans-Serif" font-size="10.00">PWREx Exported Constants</text>
</a>
</g>
</g>
<!-- Node1&#45;&gt;Node3 -->
<g id="edge2" class="edge">
<title>Node1&#45;&gt;Node3</title>
<path fill="none" stroke="black" d="M217.56,-80.08C228.79,-87.76 243.12,-96.62 257,-102.5 264.86,-105.83 273.47,-108.63 281.94,-110.95"/>
<polygon fill="black" stroke="black" points="219.47,-77.15 209.28,-74.24 215.44,-82.87 219.47,-77.15"/>
</g>
<!-- Node6 -->
<g id="Node000006" class="node">
<title>Node6</title>
<g id="a_Node000006"><a xlink:href="group__PWREx__Exported__Functions.html" target="_top" xlink:title=" ">
<polygon fill="white" stroke="#666666" points="405,-93 258,-93 258,-74 405,-74 405,-93"/>
<text text-anchor="middle" x="331.5" y="-81" font-family="Helvetica,sans-Serif" font-size="10.00">PWREx Exported Functions</text>
</a>
</g>
</g>
<!-- Node1&#45;&gt;Node6 -->
<g id="edge5" class="edge">
<title>Node1&#45;&gt;Node6</title>
<path fill="none" stroke="black" d="M231.25,-69.43C241.12,-70.83 252.21,-72.4 263.31,-73.97"/>
<polygon fill="black" stroke="black" points="231.47,-65.92 221.08,-67.98 230.49,-72.85 231.47,-65.92"/>
</g>
<!-- Node4 -->
<g id="Node000004" class="node">
<title>Node4</title>
<g id="a_Node000004"><a xlink:href="group__PWREx__Private__Constants.html" target="_top" xlink:title=" ">
<polygon fill="white" stroke="#666666" points="401.5,-56 261.5,-56 261.5,-37 401.5,-37 401.5,-56"/>
<text text-anchor="middle" x="331.5" y="-44" font-family="Helvetica,sans-Serif" font-size="10.00">PWREx Private Constants</text>
</a>
</g>
</g>
<!-- Node1&#45;&gt;Node4 -->
<g id="edge3" class="edge">
<title>Node1&#45;&gt;Node4</title>
<path fill="none" stroke="black" d="M231.08,-59.86C240.4,-58.6 250.82,-57.2 261.32,-55.79"/>
<polygon fill="black" stroke="black" points="230.52,-56.4 221.08,-61.2 231.45,-63.34 230.52,-56.4"/>
</g>
<!-- Node5 -->
<g id="Node000005" class="node">
<title>Node5</title>
<g id="a_Node000005"><a xlink:href="group__PWREx__Private__Macros.html" target="_top" xlink:title=" ">
<polygon fill="white" stroke="#666666" points="395,-19 268,-19 268,0 395,0 395,-19"/>
<text text-anchor="middle" x="331.5" y="-7" font-family="Helvetica,sans-Serif" font-size="10.00">PWREx Private Macros</text>
</a>
</g>
</g>
<!-- Node1&#45;&gt;Node5 -->
<g id="edge4" class="edge">
<title>Node1&#45;&gt;Node5</title>
<path fill="none" stroke="black" d="M218.05,-49.06C229.23,-41.65 243.37,-33.18 257,-27.5 265,-24.17 273.77,-21.36 282.36,-19.02"/>
<polygon fill="black" stroke="black" points="216.08,-46.18 209.79,-54.7 220.02,-51.96 216.08,-46.18"/>
</g>
<!-- Node2 -->
<g id="Node000002" class="node">
<title>Node2</title>
<g id="a_Node000002"><a xlink:href="group__STM32F4xx__HAL__Driver.html" target="_top" xlink:title=" ">
<polygon fill="white" stroke="#666666" points="134,-74 0,-74 0,-55 134,-55 134,-74"/>
<text text-anchor="middle" x="67" y="-62" font-family="Helvetica,sans-Serif" font-size="10.00">STM32F4xx_HAL_Driver</text>
</a>
</g>
</g>
<!-- Node2&#45;&gt;Node1 -->
<g id="edge1" class="edge">
<title>Node2&#45;&gt;Node1</title>
<path fill="none" stroke="black" d="M144.24,-64.5C153.38,-64.5 162.14,-64.5 169.72,-64.5"/>
<polygon fill="black" stroke="black" points="144.21,-61 134.21,-64.5 144.21,-68 144.21,-61"/>
</g>
</g>
</svg>
</svg>

<style type='text/css'>
<![CDATA[
[data-mouse-over-selected='false'] { opacity: 0.7; }
[data-mouse-over-selected='true']  { opacity: 1.0; }
]]>
</style>
<script type="application/ecmascript"><![CDATA[
document.addEventListener('DOMContentLoaded', (event) => {
  highlightEdges();
  highlightAdjacentNodes();
});
]]></script>
</svg>
