<?xml version="1.0" encoding="UTF-8" standalone="no"?>
<!DOCTYPE svg PUBLIC "-//W3C//DTD SVG 1.1//EN"
 "http://www.w3.org/Graphics/SVG/1.1/DTD/svg11.dtd">
<!-- Generated by graphviz version 12.2.1 (20241206.2353)
 -->
<!-- Title: UART_Exported_Functions Pages: 1 -->
<svg width="394pt" height="184pt"
 viewBox="0.00 0.00 394.25 183.50" xmlns="http://www.w3.org/2000/svg" xmlns:xlink="http://www.w3.org/1999/xlink">
<g id="page0,1_graph0" class="graph" transform="scale(1 1) rotate(0) translate(4 179.5)">
<title>UART_Exported_Functions</title>
<!-- Node2 -->
<g id="Node000002" class="node">
<title>Node2</title>
<g id="a_Node000002"><a xlink:href="group__UART.html" target="_top" xlink:title="HAL UART module driver.">
<polygon fill="white" stroke="#666666" points="40.75,-101.12 0,-101.12 0,-80.38 40.75,-80.38 40.75,-101.12"/>
<text text-anchor="middle" x="20.38" y="-87.62" font-family="Helvetica,sans-Serif" font-size="10.00">UART</text>
</a>
</g>
</g>
<!-- Node1 -->
<g id="Node000001" class="node">
<title>Node1</title>
<g id="a_Node000001"><a xlink:title=" ">
<polygon fill="#999999" stroke="#666666" points="213.5,-101.12 76.75,-101.12 76.75,-80.38 213.5,-80.38 213.5,-101.12"/>
<text text-anchor="middle" x="145.12" y="-87.62" font-family="Helvetica,sans-Serif" font-size="10.00">UART_Exported_Functions</text>
</a>
</g>
</g>
<!-- Node2&#45;&gt;Node1 -->
<g id="edge1" class="edge">
<title>Node2&#45;&gt;Node1</title>
<path fill="none" stroke="black" d="M52.36,-90.75C59.78,-90.75 67.98,-90.75 76.35,-90.75"/>
<polygon fill="black" stroke="black" points="52.61,-87.25 42.61,-90.75 52.61,-94.25 52.61,-87.25"/>
</g>
<!-- Node3 -->
<g id="Node000003" class="node">
<title>Node3</title>
<g id="a_Node000003"><a xlink:href="group__UART__Exported__Functions__Group1.html" target="_top" xlink:title=" ">
<polygon fill="white" stroke="#666666" points="384.38,-175.5 251.38,-175.5 251.38,-142 384.38,-142 384.38,-175.5"/>
<text text-anchor="start" x="259.38" y="-162" font-family="Helvetica,sans-Serif" font-size="10.00">Initialization and</text>
<text text-anchor="middle" x="317.88" y="-149.25" font-family="Helvetica,sans-Serif" font-size="10.00"> de&#45;initialization functions</text>
</a>
</g>
</g>
<!-- Node1&#45;&gt;Node3 -->
<g id="edge2" class="edge">
<title>Node1&#45;&gt;Node3</title>
<path fill="none" stroke="black" d="M182.81,-105.84C202.54,-113.91 227.31,-123.96 249.5,-132.75 256.73,-135.61 264.41,-138.61 271.89,-141.52"/>
<polygon fill="black" stroke="black" points="184.4,-102.71 173.82,-102.15 181.74,-109.18 184.4,-102.71"/>
</g>
<!-- Node4 -->
<g id="Node000004" class="node">
<title>Node4</title>
<g id="a_Node000004"><a xlink:href="group__UART__Exported__Functions__Group2.html" target="_top" xlink:title=" ">
<polygon fill="white" stroke="#666666" points="376.5,-124.12 259.25,-124.12 259.25,-103.38 376.5,-103.38 376.5,-124.12"/>
<text text-anchor="middle" x="317.88" y="-110.62" font-family="Helvetica,sans-Serif" font-size="10.00">IO operation functions</text>
</a>
</g>
</g>
<!-- Node1&#45;&gt;Node4 -->
<g id="edge3" class="edge">
<title>Node1&#45;&gt;Node4</title>
<path fill="none" stroke="black" d="M224.98,-101.37C236.43,-102.91 248.04,-104.48 258.98,-105.95"/>
<polygon fill="black" stroke="black" points="225.49,-97.91 215.11,-100.04 224.55,-104.85 225.49,-97.91"/>
</g>
<!-- Node5 -->
<g id="Node000005" class="node">
<title>Node5</title>
<g id="a_Node000005"><a xlink:href="group__UART__Exported__Functions__Group3.html" target="_top" xlink:title=" ">
<polygon fill="white" stroke="#666666" points="386.25,-85.5 249.5,-85.5 249.5,-52 386.25,-52 386.25,-85.5"/>
<text text-anchor="start" x="257.5" y="-72" font-family="Helvetica,sans-Serif" font-size="10.00">UART_Exported_Functions</text>
<text text-anchor="middle" x="317.88" y="-59.25" font-family="Helvetica,sans-Serif" font-size="10.00">_Group3</text>
</a>
</g>
</g>
<!-- Node1&#45;&gt;Node5 -->
<g id="edge4" class="edge">
<title>Node1&#45;&gt;Node5</title>
<path fill="none" stroke="black" d="M224.92,-80.6C232.98,-79.56 241.12,-78.51 249.04,-77.49"/>
<polygon fill="black" stroke="black" points="224.58,-77.11 215.11,-81.86 225.48,-84.05 224.58,-77.11"/>
</g>
<!-- Node6 -->
<g id="Node000006" class="node">
<title>Node6</title>
<g id="a_Node000006"><a xlink:href="group__UART__Exported__Functions__Group4.html" target="_top" xlink:title=" ">
<polygon fill="white" stroke="#666666" points="386.25,-33.5 249.5,-33.5 249.5,0 386.25,0 386.25,-33.5"/>
<text text-anchor="start" x="257.5" y="-20" font-family="Helvetica,sans-Serif" font-size="10.00">UART_Exported_Functions</text>
<text text-anchor="middle" x="317.88" y="-7.25" font-family="Helvetica,sans-Serif" font-size="10.00">_Group4</text>
</a>
</g>
</g>
<!-- Node1&#45;&gt;Node6 -->
<g id="edge5" class="edge">
<title>Node1&#45;&gt;Node6</title>
<path fill="none" stroke="black" d="M178.36,-75.11C198.63,-65.44 225.42,-52.98 249.5,-42.75 256.42,-39.81 263.8,-36.82 271.05,-33.96"/>
<polygon fill="black" stroke="black" points="176.99,-71.89 169.48,-79.37 180.01,-78.2 176.99,-71.89"/>
</g>
</g>
</svg>
