<?xml version="1.0" encoding="UTF-8" standalone="no"?>
<!DOCTYPE svg PUBLIC "-//W3C//DTD SVG 1.1//EN"
 "http://www.w3.org/Graphics/SVG/1.1/DTD/svg11.dtd">
<!-- Generated by graphviz version 12.2.1 (20241206.2353)
 -->
<!-- Title: SMARTCARD_Exported_Functions Pages: 1 -->
<svg width="392pt" height="146pt"
 viewBox="0.00 0.00 392.00 145.50" xmlns="http://www.w3.org/2000/svg" xmlns:xlink="http://www.w3.org/1999/xlink">

<svg id="main" version="1.1" xmlns="http://www.w3.org/2000/svg" xmlns:xlink="http://www.w3.org/1999/xlink" xml:space="preserve">

<style type="text/css"><![CDATA[
.node, .edge {opacity: 0.7;}
.node.selected, .edge.selected {opacity: 1;}
.edge:hover path { stroke: red; }
.edge:hover polygon { stroke: red; fill: red; }
]]></style>
<script type="application/ecmascript" xlink:href="svg.min.js"/>
<svg id="graph" class="graph">
<g id="graph0" class="graph" transform="scale(1 1) rotate(0) translate(4 141.5)">
<title>SMARTCARD_Exported_Functions</title>
<!-- Node2 -->
<g id="Node000002" class="node">
<title>Node2</title>
<g id="a_Node000002"><a xlink:href="group__SMARTCARD.html" target="_top" xlink:title="HAL SMARTCARD module driver.">
<polygon fill="white" stroke="#666666" points="73,-79.12 0,-79.12 0,-58.38 73,-58.38 73,-79.12"/>
<text text-anchor="middle" x="36.5" y="-65.62" font-family="Helvetica,sans-Serif" font-size="10.00">SMARTCARD</text>
</a>
</g>
</g>
<!-- Node1 -->
<g id="Node000001" class="node">
<title>Node1</title>
<g id="a_Node000001"><a xlink:title=" ">
<polygon fill="#999999" stroke="#666666" points="228.5,-85.5 109,-85.5 109,-52 228.5,-52 228.5,-85.5"/>
<text text-anchor="start" x="117" y="-72" font-family="Helvetica,sans-Serif" font-size="10.00">SMARTCARD_Exported</text>
<text text-anchor="middle" x="168.75" y="-59.25" font-family="Helvetica,sans-Serif" font-size="10.00">_Functions</text>
</a>
</g>
</g>
<!-- Node2&#45;&gt;Node1 -->
<g id="edge1" class="edge">
<title>Node2&#45;&gt;Node1</title>
<path fill="none" stroke="black" d="M84.93,-68.75C92.72,-68.75 100.89,-68.75 108.92,-68.75"/>
<polygon fill="black" stroke="black" points="84.95,-65.25 74.95,-68.75 84.95,-72.25 84.95,-65.25"/>
</g>
<!-- Node3 -->
<g id="Node000003" class="node">
<title>Node3</title>
<g id="a_Node000003"><a xlink:href="group__SMARTCARD__Exported__Functions__Group1.html" target="_top" xlink:title=" ">
<polygon fill="white" stroke="#666666" points="384,-137.5 264.5,-137.5 264.5,-104 384,-104 384,-137.5"/>
<text text-anchor="start" x="272.5" y="-124" font-family="Helvetica,sans-Serif" font-size="10.00">SMARTCARD_Exported</text>
<text text-anchor="middle" x="324.25" y="-111.25" font-family="Helvetica,sans-Serif" font-size="10.00">_Functions_Group1</text>
</a>
</g>
</g>
<!-- Node1&#45;&gt;Node3 -->
<g id="edge2" class="edge">
<title>Node1&#45;&gt;Node3</title>
<path fill="none" stroke="black" d="M231.21,-89.57C244.86,-94.19 259.18,-99.05 272.35,-103.51"/>
<polygon fill="black" stroke="black" points="232.46,-86.3 221.87,-86.41 230.22,-92.93 232.46,-86.3"/>
</g>
<!-- Node4 -->
<g id="Node000004" class="node">
<title>Node4</title>
<g id="a_Node000004"><a xlink:href="group__SMARTCARD__Exported__Functions__Group2.html" target="_top" xlink:title=" ">
<polygon fill="white" stroke="#666666" points="384,-85.5 264.5,-85.5 264.5,-52 384,-52 384,-85.5"/>
<text text-anchor="start" x="272.5" y="-72" font-family="Helvetica,sans-Serif" font-size="10.00">SMARTCARD_Exported</text>
<text text-anchor="middle" x="324.25" y="-59.25" font-family="Helvetica,sans-Serif" font-size="10.00">_Functions_Group2</text>
</a>
</g>
</g>
<!-- Node1&#45;&gt;Node4 -->
<g id="edge3" class="edge">
<title>Node1&#45;&gt;Node4</title>
<path fill="none" stroke="black" d="M240.01,-68.75C248.11,-68.75 256.31,-68.75 264.25,-68.75"/>
<polygon fill="black" stroke="black" points="240.17,-65.25 230.17,-68.75 240.17,-72.25 240.17,-65.25"/>
</g>
<!-- Node5 -->
<g id="Node000005" class="node">
<title>Node5</title>
<g id="a_Node000005"><a xlink:href="group__SMARTCARD__Exported__Functions__Group3.html" target="_top" xlink:title=" ">
<polygon fill="white" stroke="#666666" points="384,-33.5 264.5,-33.5 264.5,0 384,0 384,-33.5"/>
<text text-anchor="start" x="272.5" y="-20" font-family="Helvetica,sans-Serif" font-size="10.00">SMARTCARD_Exported</text>
<text text-anchor="middle" x="324.25" y="-7.25" font-family="Helvetica,sans-Serif" font-size="10.00">_Functions_Group3</text>
</a>
</g>
</g>
<!-- Node1&#45;&gt;Node5 -->
<g id="edge4" class="edge">
<title>Node1&#45;&gt;Node5</title>
<path fill="none" stroke="black" d="M231.21,-47.93C244.86,-43.31 259.18,-38.45 272.35,-33.99"/>
<polygon fill="black" stroke="black" points="230.22,-44.57 221.87,-51.09 232.46,-51.2 230.22,-44.57"/>
</g>
</g>
</svg>
</svg>

<style type='text/css'>
<![CDATA[
[data-mouse-over-selected='false'] { opacity: 0.7; }
[data-mouse-over-selected='true']  { opacity: 1.0; }
]]>
</style>
<script type="application/ecmascript"><![CDATA[
document.addEventListener('DOMContentLoaded', (event) => {
  highlightEdges();
  highlightAdjacentNodes();
});
]]></script>
</svg>
