<?xml version="1.0" encoding="UTF-8" standalone="no"?>
<!DOCTYPE svg PUBLIC "-//W3C//DTD SVG 1.1//EN"
 "http://www.w3.org/Graphics/SVG/1.1/DTD/svg11.dtd">
<!-- Generated by graphviz version 12.2.1 (20241206.2353)
 -->
<!-- Title: I2S Exported Constants Pages: 1 -->
<svg width="367pt" height="419pt"
 viewBox="0.00 0.00 367.25 418.75" xmlns="http://www.w3.org/2000/svg" xmlns:xlink="http://www.w3.org/1999/xlink">

<svg id="main" version="1.1" xmlns="http://www.w3.org/2000/svg" xmlns:xlink="http://www.w3.org/1999/xlink" xml:space="preserve">

<style type="text/css"><![CDATA[
.node, .edge {opacity: 0.7;}
.node.selected, .edge.selected {opacity: 1;}
.edge:hover path { stroke: red; }
.edge:hover polygon { stroke: red; fill: red; }
]]></style>
<script type="application/ecmascript" xlink:href="svg.min.js"/>
<svg id="graph" class="graph">
<g id="graph0" class="graph" transform="scale(1 1) rotate(0) translate(4 414.75)">
<title>I2S Exported Constants</title>
<!-- Node2 -->
<g id="Node000002" class="node">
<title>Node2</title>
<g id="a_Node000002"><a xlink:href="group__I2S.html" target="_top" xlink:title=" ">
<polygon fill="white" stroke="#666666" points="29.5,-215.75 0,-215.75 0,-195 29.5,-195 29.5,-215.75"/>
<text text-anchor="middle" x="14.75" y="-202.25" font-family="Helvetica,sans-Serif" font-size="10.00">I2S</text>
</a>
</g>
</g>
<!-- Node1 -->
<g id="Node000001" class="node">
<title>Node1</title>
<g id="a_Node000001"><a xlink:title=" ">
<polygon fill="#999999" stroke="#666666" points="187.25,-215.75 65.5,-215.75 65.5,-195 187.25,-195 187.25,-215.75"/>
<text text-anchor="middle" x="126.38" y="-202.25" font-family="Helvetica,sans-Serif" font-size="10.00">I2S Exported Constants</text>
</a>
</g>
</g>
<!-- Node2&#45;&gt;Node1 -->
<g id="edge1" class="edge">
<title>Node2&#45;&gt;Node1</title>
<path fill="none" stroke="black" d="M40.97,-205.38C48.37,-205.38 56.81,-205.38 65.41,-205.38"/>
<polygon fill="black" stroke="black" points="41.15,-201.88 31.15,-205.38 41.15,-208.88 41.15,-201.88"/>
</g>
<!-- Node8 -->
<g id="Node000008" class="node">
<title>Node8</title>
<g id="a_Node000008"><a xlink:href="group__I2S__Audio__Frequency.html" target="_top" xlink:title=" ">
<polygon fill="white" stroke="#666666" points="344.25,-410.75 238.25,-410.75 238.25,-390 344.25,-390 344.25,-410.75"/>
<text text-anchor="middle" x="291.25" y="-397.25" font-family="Helvetica,sans-Serif" font-size="10.00">I2S Audio Frequency</text>
</a>
</g>
</g>
<!-- Node10 -->
<g id="Node000010" class="node">
<title>Node10</title>
<g id="a_Node000010"><a xlink:href="group__I2S__Clock__Polarity.html" target="_top" xlink:title=" ">
<polygon fill="white" stroke="#666666" points="338.25,-371.75 244.25,-371.75 244.25,-351 338.25,-351 338.25,-371.75"/>
<text text-anchor="middle" x="291.25" y="-358.25" font-family="Helvetica,sans-Serif" font-size="10.00">I2S Clock Polarity</text>
</a>
</g>
</g>
<!-- Node13 -->
<g id="Node000013" class="node">
<title>Node13</title>
<g id="a_Node000013"><a xlink:href="group__I2S__Clock__Source.html" target="_top" xlink:title=" ">
<polygon fill="white" stroke="#666666" points="359.25,-332.75 223.25,-332.75 223.25,-312 359.25,-312 359.25,-332.75"/>
<text text-anchor="middle" x="291.25" y="-319.25" font-family="Helvetica,sans-Serif" font-size="10.00">I2S Clock Source Definition</text>
</a>
</g>
</g>
<!-- Node6 -->
<g id="Node000006" class="node">
<title>Node6</title>
<g id="a_Node000006"><a xlink:href="group__I2S__Data__Format.html" target="_top" xlink:title=" ">
<polygon fill="white" stroke="#666666" points="335.62,-293.75 246.88,-293.75 246.88,-273 335.62,-273 335.62,-293.75"/>
<text text-anchor="middle" x="291.25" y="-280.25" font-family="Helvetica,sans-Serif" font-size="10.00">I2S Data Format</text>
</a>
</g>
</g>
<!-- Node3 -->
<g id="Node000003" class="node">
<title>Node3</title>
<g id="a_Node000003"><a xlink:href="group__I2S__Error.html" target="_top" xlink:title=" ">
<polygon fill="white" stroke="#666666" points="318.75,-254.75 263.75,-254.75 263.75,-234 318.75,-234 318.75,-254.75"/>
<text text-anchor="middle" x="291.25" y="-241.25" font-family="Helvetica,sans-Serif" font-size="10.00">I2S Error</text>
</a>
</g>
</g>
<!-- Node1&#45;&gt;Node8 -->
<g id="edge7" class="edge">
<title>Node1&#45;&gt;Node8</title>
<path fill="none" stroke="black" d="M133.23,-226.8C144.44,-263.71 172.42,-339.28 223.25,-380.38 227.88,-384.11 233.19,-387.16 238.75,-389.63"/>
<polygon fill="black" stroke="black" points="136.63,-225.95 130.49,-217.32 129.91,-227.9 136.63,-225.95"/>
</g>
<!-- Node1&#45;&gt;Node10 -->
<g id="edge9" class="edge">
<title>Node1&#45;&gt;Node10</title>
<path fill="none" stroke="black" d="M136.54,-226.19C150.78,-256.11 181.03,-311.02 223.25,-341.38 229.46,-345.84 236.67,-349.32 244.01,-352.03"/>
<polygon fill="black" stroke="black" points="139.87,-225.04 132.51,-217.42 133.51,-227.97 139.87,-225.04"/>
</g>
<!-- Node1&#45;&gt;Node13 -->
<g id="edge12" class="edge">
<title>Node1&#45;&gt;Node13</title>
<path fill="none" stroke="black" d="M141.94,-225.21C159.06,-247.15 189.45,-282.08 223.25,-302.38 229.39,-306.06 236.26,-309.11 243.19,-311.62"/>
<polygon fill="black" stroke="black" points="144.8,-223.19 135.96,-217.35 139.23,-227.43 144.8,-223.19"/>
</g>
<!-- Node1&#45;&gt;Node6 -->
<g id="edge5" class="edge">
<title>Node1&#45;&gt;Node6</title>
<path fill="none" stroke="black" d="M151.62,-222.42C170.47,-235.07 197.62,-252.02 223.25,-263.38 231.13,-266.87 239.79,-269.96 248.2,-272.61"/>
<polygon fill="black" stroke="black" points="153.81,-219.68 143.58,-216.93 149.86,-225.46 153.81,-219.68"/>
</g>
<!-- Node1&#45;&gt;Node3 -->
<g id="edge2" class="edge">
<title>Node1&#45;&gt;Node3</title>
<path fill="none" stroke="black" d="M183.65,-218.85C210.69,-225.32 241.82,-232.78 263.44,-237.95"/>
<polygon fill="black" stroke="black" points="184.76,-215.52 174.22,-216.59 183.13,-222.32 184.76,-215.52"/>
</g>
<!-- Node12 -->
<g id="Node000012" class="node">
<title>Node12</title>
<g id="a_Node000012"><a xlink:href="group__I2S__Flags__Definition.html" target="_top" xlink:title=" ">
<polygon fill="white" stroke="#666666" points="342.75,-215.75 239.75,-215.75 239.75,-195 342.75,-195 342.75,-215.75"/>
<text text-anchor="middle" x="291.25" y="-202.25" font-family="Helvetica,sans-Serif" font-size="10.00">I2S Flags Definition</text>
</a>
</g>
</g>
<!-- Node1&#45;&gt;Node12 -->
<g id="edge11" class="edge">
<title>Node1&#45;&gt;Node12</title>
<path fill="none" stroke="black" d="M198.9,-205.38C212.54,-205.38 226.56,-205.38 239.4,-205.38"/>
<polygon fill="black" stroke="black" points="199.07,-201.88 189.07,-205.38 199.07,-208.88 199.07,-201.88"/>
</g>
<!-- Node9 -->
<g id="Node000009" class="node">
<title>Node9</title>
<g id="a_Node000009"><a xlink:href="group__I2S__FullDuplex__Mode.html" target="_top" xlink:title=" ">
<polygon fill="white" stroke="#666666" points="345,-176.75 237.5,-176.75 237.5,-156 345,-156 345,-176.75"/>
<text text-anchor="middle" x="291.25" y="-163.25" font-family="Helvetica,sans-Serif" font-size="10.00">I2S FullDuplex Mode</text>
</a>
</g>
</g>
<!-- Node1&#45;&gt;Node9 -->
<g id="edge8" class="edge">
<title>Node1&#45;&gt;Node9</title>
<path fill="none" stroke="black" d="M183.87,-191.85C203.8,-187.07 225.94,-181.77 244.84,-177.25"/>
<polygon fill="black" stroke="black" points="183.13,-188.43 174.22,-194.16 184.76,-195.23 183.13,-188.43"/>
</g>
<!-- Node11 -->
<g id="Node000011" class="node">
<title>Node11</title>
<g id="a_Node000011"><a xlink:href="group__I2S__Interrupts__Definition.html" target="_top" xlink:title=" ">
<polygon fill="white" stroke="#666666" points="352.88,-137.75 229.62,-137.75 229.62,-117 352.88,-117 352.88,-137.75"/>
<text text-anchor="middle" x="291.25" y="-124.25" font-family="Helvetica,sans-Serif" font-size="10.00">I2S Interrupts Definition</text>
</a>
</g>
</g>
<!-- Node1&#45;&gt;Node11 -->
<g id="edge10" class="edge">
<title>Node1&#45;&gt;Node11</title>
<path fill="none" stroke="black" d="M151.62,-188.33C170.47,-175.68 197.62,-158.73 223.25,-147.38 231.13,-143.88 239.79,-140.79 248.2,-138.14"/>
<polygon fill="black" stroke="black" points="149.86,-185.29 143.58,-193.82 153.81,-191.07 149.86,-185.29"/>
</g>
<!-- Node7 -->
<g id="Node000007" class="node">
<title>Node7</title>
<g id="a_Node000007"><a xlink:href="group__I2S__MCLK__Output.html" target="_top" xlink:title=" ">
<polygon fill="white" stroke="#666666" points="337.12,-98.75 245.38,-98.75 245.38,-78 337.12,-78 337.12,-98.75"/>
<text text-anchor="middle" x="291.25" y="-85.25" font-family="Helvetica,sans-Serif" font-size="10.00">I2S MCLK Output</text>
</a>
</g>
</g>
<!-- Node1&#45;&gt;Node7 -->
<g id="edge6" class="edge">
<title>Node1&#45;&gt;Node7</title>
<path fill="none" stroke="black" d="M141.94,-185.54C159.06,-163.6 189.45,-128.67 223.25,-108.38 229.91,-104.38 237.43,-101.13 244.96,-98.5"/>
<polygon fill="black" stroke="black" points="139.23,-183.32 135.96,-193.4 144.8,-187.56 139.23,-183.32"/>
</g>
<!-- Node4 -->
<g id="Node000004" class="node">
<title>Node4</title>
<g id="a_Node000004"><a xlink:href="group__I2S__Mode.html" target="_top" xlink:title=" ">
<polygon fill="white" stroke="#666666" points="319.88,-59.75 262.62,-59.75 262.62,-39 319.88,-39 319.88,-59.75"/>
<text text-anchor="middle" x="291.25" y="-46.25" font-family="Helvetica,sans-Serif" font-size="10.00">I2S Mode</text>
</a>
</g>
</g>
<!-- Node1&#45;&gt;Node4 -->
<g id="edge3" class="edge">
<title>Node1&#45;&gt;Node4</title>
<path fill="none" stroke="black" d="M136.54,-184.56C150.78,-154.64 181.03,-99.73 223.25,-69.38 234.68,-61.15 249.51,-56.28 262.31,-53.4"/>
<polygon fill="black" stroke="black" points="133.51,-182.78 132.51,-193.33 139.87,-185.71 133.51,-182.78"/>
</g>
<!-- Node5 -->
<g id="Node000005" class="node">
<title>Node5</title>
<g id="a_Node000005"><a xlink:href="group__I2S__Standard.html" target="_top" xlink:title=" ">
<polygon fill="white" stroke="#666666" points="327.75,-20.75 254.75,-20.75 254.75,0 327.75,0 327.75,-20.75"/>
<text text-anchor="middle" x="291.25" y="-7.25" font-family="Helvetica,sans-Serif" font-size="10.00">I2S Standard</text>
</a>
</g>
</g>
<!-- Node1&#45;&gt;Node5 -->
<g id="edge4" class="edge">
<title>Node1&#45;&gt;Node5</title>
<path fill="none" stroke="black" d="M133.23,-183.95C144.44,-147.04 172.42,-71.47 223.25,-30.38 232.12,-23.2 243.51,-18.6 254.38,-15.65"/>
<polygon fill="black" stroke="black" points="129.91,-182.85 130.49,-193.43 136.63,-184.8 129.91,-182.85"/>
</g>
</g>
</svg>
</svg>

<style type='text/css'>
<![CDATA[
[data-mouse-over-selected='false'] { opacity: 0.7; }
[data-mouse-over-selected='true']  { opacity: 1.0; }
]]>
</style>
<script type="application/ecmascript"><![CDATA[
document.addEventListener('DOMContentLoaded', (event) => {
  highlightEdges();
  highlightAdjacentNodes();
});
]]></script>
</svg>
