<?xml version="1.0" encoding="UTF-8" standalone="no"?>
<!DOCTYPE svg PUBLIC "-//W3C//DTD SVG 1.1//EN"
 "http://www.w3.org/Graphics/SVG/1.1/DTD/svg11.dtd">
<!-- Generated by graphviz version 12.2.1 (20241206.2353)
 -->
<!-- Title: I2C Pages: 1 -->
<svg width="361pt" height="263pt"
 viewBox="0.00 0.00 360.50 262.75" xmlns="http://www.w3.org/2000/svg" xmlns:xlink="http://www.w3.org/1999/xlink">
<g id="page0,1_graph0" class="graph" transform="scale(1 1) rotate(0) translate(4 258.75)">
<title>I2C</title>
<!-- Node1 -->
<g id="Node000001" class="node">
<title>Node1</title>
<g id="a_Node000001"><a xlink:title="I2C HAL module driver.">
<polygon fill="#999999" stroke="#666666" points="189.5,-137.75 158.5,-137.75 158.5,-117 189.5,-117 189.5,-137.75"/>
<text text-anchor="middle" x="174" y="-124.25" font-family="Helvetica,sans-Serif" font-size="10.00">I2C</text>
</a>
</g>
</g>
<!-- Node4 -->
<g id="Node000004" class="node">
<title>Node4</title>
<g id="a_Node000004"><a xlink:href="group__I2C__Exported__Constants.html" target="_top" xlink:title=" ">
<polygon fill="white" stroke="#666666" points="350.62,-254.75 227.38,-254.75 227.38,-234 350.62,-234 350.62,-254.75"/>
<text text-anchor="middle" x="289" y="-241.25" font-family="Helvetica,sans-Serif" font-size="10.00">I2C Exported Constants</text>
</a>
</g>
</g>
<!-- Node1&#45;&gt;Node4 -->
<g id="edge3" class="edge">
<title>Node1&#45;&gt;Node4</title>
<path fill="none" stroke="black" d="M180.91,-148.99C188.01,-170.98 201.98,-204.55 225.5,-224.38 229.94,-228.12 235.1,-231.17 240.5,-233.64"/>
<polygon fill="black" stroke="black" points="184.32,-148.15 178.1,-139.58 177.61,-150.16 184.32,-148.15"/>
</g>
<!-- Node9 -->
<g id="Node000009" class="node">
<title>Node9</title>
<g id="a_Node000009"><a xlink:href="group__I2C__Exported__Functions.html" target="_top" xlink:title=" ">
<polygon fill="white" stroke="#666666" points="352.5,-215.75 225.5,-215.75 225.5,-195 352.5,-195 352.5,-215.75"/>
<text text-anchor="middle" x="289" y="-202.25" font-family="Helvetica,sans-Serif" font-size="10.00">I2C_Exported_Functions</text>
</a>
</g>
</g>
<!-- Node1&#45;&gt;Node9 -->
<g id="edge8" class="edge">
<title>Node1&#45;&gt;Node9</title>
<path fill="none" stroke="black" d="M187.94,-147.16C197.08,-159.71 210.36,-175.41 225.5,-185.38 231.02,-189.01 237.25,-192.02 243.58,-194.51"/>
<polygon fill="black" stroke="black" points="190.98,-145.4 182.41,-139.18 185.23,-149.39 190.98,-145.4"/>
</g>
<!-- Node5 -->
<g id="Node000005" class="node">
<title>Node5</title>
<g id="a_Node000005"><a xlink:href="group__I2C__Exported__Macros.html" target="_top" xlink:title=" ">
<polygon fill="white" stroke="#666666" points="343.5,-176.75 234.5,-176.75 234.5,-156 343.5,-156 343.5,-176.75"/>
<text text-anchor="middle" x="289" y="-163.25" font-family="Helvetica,sans-Serif" font-size="10.00">I2C Exported Macros</text>
</a>
</g>
</g>
<!-- Node1&#45;&gt;Node5 -->
<g id="edge4" class="edge">
<title>Node1&#45;&gt;Node5</title>
<path fill="none" stroke="black" d="M200.49,-137.25C208.47,-140.26 217.32,-143.53 225.5,-146.38 234.43,-149.48 244.14,-152.68 253.19,-155.58"/>
<polygon fill="black" stroke="black" points="201.96,-134.06 191.37,-133.77 199.46,-140.6 201.96,-134.06"/>
</g>
<!-- Node3 -->
<g id="Node000003" class="node">
<title>Node3</title>
<g id="a_Node000003"><a xlink:href="group__I2C__Exported__Types.html" target="_top" xlink:title=" ">
<polygon fill="white" stroke="#666666" points="340.5,-137.75 237.5,-137.75 237.5,-117 340.5,-117 340.5,-137.75"/>
<text text-anchor="middle" x="289" y="-124.25" font-family="Helvetica,sans-Serif" font-size="10.00">I2C Exported Types</text>
</a>
</g>
</g>
<!-- Node1&#45;&gt;Node3 -->
<g id="edge2" class="edge">
<title>Node1&#45;&gt;Node3</title>
<path fill="none" stroke="black" d="M201.25,-127.38C211.96,-127.38 224.72,-127.38 237.12,-127.38"/>
<polygon fill="black" stroke="black" points="201.29,-123.88 191.29,-127.38 201.29,-130.88 201.29,-123.88"/>
</g>
<!-- Node6 -->
<g id="Node000006" class="node">
<title>Node6</title>
<g id="a_Node000006"><a xlink:href="group__I2C__Private__Constants.html" target="_top" xlink:title=" ">
<polygon fill="white" stroke="#666666" points="345.38,-98.75 232.62,-98.75 232.62,-78 345.38,-78 345.38,-98.75"/>
<text text-anchor="middle" x="289" y="-85.25" font-family="Helvetica,sans-Serif" font-size="10.00">I2C Private Constants</text>
</a>
</g>
</g>
<!-- Node1&#45;&gt;Node6 -->
<g id="edge5" class="edge">
<title>Node1&#45;&gt;Node6</title>
<path fill="none" stroke="black" d="M200.49,-117.5C208.47,-114.49 217.32,-111.22 225.5,-108.38 234.43,-105.27 244.14,-102.07 253.19,-99.17"/>
<polygon fill="black" stroke="black" points="199.46,-114.15 191.37,-120.98 201.96,-120.69 199.46,-114.15"/>
</g>
<!-- Node8 -->
<g id="Node000008" class="node">
<title>Node8</title>
<g id="a_Node000008"><a xlink:href="group__I2C__Private__Functions.html" target="_top" xlink:title=" ">
<polygon fill="white" stroke="#666666" points="344.25,-59.75 233.75,-59.75 233.75,-39 344.25,-39 344.25,-59.75"/>
<text text-anchor="middle" x="289" y="-46.25" font-family="Helvetica,sans-Serif" font-size="10.00">I2C Private Functions</text>
</a>
</g>
</g>
<!-- Node1&#45;&gt;Node8 -->
<g id="edge7" class="edge">
<title>Node1&#45;&gt;Node8</title>
<path fill="none" stroke="black" d="M187.94,-107.59C197.08,-95.04 210.36,-79.34 225.5,-69.38 231.02,-65.74 237.25,-62.73 243.58,-60.24"/>
<polygon fill="black" stroke="black" points="185.23,-105.36 182.41,-115.57 190.98,-109.35 185.23,-105.36"/>
</g>
<!-- Node7 -->
<g id="Node000007" class="node">
<title>Node7</title>
<g id="a_Node000007"><a xlink:href="group__I2C__Private__Macros.html" target="_top" xlink:title=" ">
<polygon fill="white" stroke="#666666" points="338.25,-20.75 239.75,-20.75 239.75,0 338.25,0 338.25,-20.75"/>
<text text-anchor="middle" x="289" y="-7.25" font-family="Helvetica,sans-Serif" font-size="10.00">I2C Private Macros</text>
</a>
</g>
</g>
<!-- Node1&#45;&gt;Node7 -->
<g id="edge6" class="edge">
<title>Node1&#45;&gt;Node7</title>
<path fill="none" stroke="black" d="M180.91,-105.76C188.01,-83.77 201.98,-50.2 225.5,-30.38 229.94,-26.63 235.1,-23.58 240.5,-21.11"/>
<polygon fill="black" stroke="black" points="177.61,-104.59 178.1,-115.17 184.32,-106.6 177.61,-104.59"/>
</g>
<!-- Node2 -->
<g id="Node000002" class="node">
<title>Node2</title>
<g id="a_Node000002"><a xlink:href="group__STM32F4xx__HAL__Driver.html" target="_top" xlink:title=" ">
<polygon fill="white" stroke="#666666" points="122.5,-137.75 0,-137.75 0,-117 122.5,-117 122.5,-137.75"/>
<text text-anchor="middle" x="61.25" y="-124.25" font-family="Helvetica,sans-Serif" font-size="10.00">STM32F4xx_HAL_Driver</text>
</a>
</g>
</g>
<!-- Node2&#45;&gt;Node1 -->
<g id="edge1" class="edge">
<title>Node2&#45;&gt;Node1</title>
<path fill="none" stroke="black" d="M134.32,-127.38C143.2,-127.38 151.46,-127.38 158.03,-127.38"/>
<polygon fill="black" stroke="black" points="134.32,-123.88 124.32,-127.38 134.32,-130.88 134.32,-123.88"/>
</g>
</g>
</svg>
