<?xml version="1.0" encoding="UTF-8" standalone="no"?>
<!DOCTYPE svg PUBLIC "-//W3C//DTD SVG 1.1//EN"
 "http://www.w3.org/Graphics/SVG/1.1/DTD/svg11.dtd">
<!-- Generated by graphviz version 12.2.1 (20241206.2353)
 -->
<!-- Title: GPIO Pages: 1 -->
<svg width="379pt" height="263pt"
 viewBox="0.00 0.00 378.50 262.75" xmlns="http://www.w3.org/2000/svg" xmlns:xlink="http://www.w3.org/1999/xlink">

<svg id="main" version="1.1" xmlns="http://www.w3.org/2000/svg" xmlns:xlink="http://www.w3.org/1999/xlink" xml:space="preserve">

<style type="text/css"><![CDATA[
.node, .edge {opacity: 0.7;}
.node.selected, .edge.selected {opacity: 1;}
.edge:hover path { stroke: red; }
.edge:hover polygon { stroke: red; fill: red; }
]]></style>
<script type="application/ecmascript" xlink:href="svg.min.js"/>
<svg id="graph" class="graph">
<g id="graph0" class="graph" transform="scale(1 1) rotate(0) translate(4 258.75)">
<title>GPIO</title>
<!-- Node1 -->
<g id="Node000001" class="node">
<title>Node1</title>
<g id="a_Node000001"><a xlink:title="GPIO HAL module driver.">
<polygon fill="#999999" stroke="#666666" points="198.5,-137.75 158.5,-137.75 158.5,-117 198.5,-117 198.5,-137.75"/>
<text text-anchor="middle" x="178.5" y="-124.25" font-family="Helvetica,sans-Serif" font-size="10.00">GPIO</text>
</a>
</g>
</g>
<!-- Node4 -->
<g id="Node000004" class="node">
<title>Node4</title>
<g id="a_Node000004"><a xlink:href="group__GPIO__Exported__Constants.html" target="_top" xlink:title=" ">
<polygon fill="white" stroke="#666666" points="368.62,-254.75 236.38,-254.75 236.38,-234 368.62,-234 368.62,-254.75"/>
<text text-anchor="middle" x="302.5" y="-241.25" font-family="Helvetica,sans-Serif" font-size="10.00">GPIO Exported Constants</text>
</a>
</g>
</g>
<!-- Node1&#45;&gt;Node4 -->
<g id="edge3" class="edge">
<title>Node1&#45;&gt;Node4</title>
<path fill="none" stroke="black" d="M186.27,-148.8C194.32,-170.87 209.85,-204.75 234.5,-224.38 239.15,-228.08 244.48,-231.1 250.05,-233.56"/>
<polygon fill="black" stroke="black" points="189.68,-147.95 183.13,-139.62 183.05,-150.22 189.68,-147.95"/>
</g>
<!-- Node9 -->
<g id="Node000009" class="node">
<title>Node9</title>
<g id="a_Node000009"><a xlink:href="group__GPIO__Exported__Functions.html" target="_top" xlink:title=" ">
<polygon fill="white" stroke="#666666" points="370.5,-215.75 234.5,-215.75 234.5,-195 370.5,-195 370.5,-215.75"/>
<text text-anchor="middle" x="302.5" y="-202.25" font-family="Helvetica,sans-Serif" font-size="10.00">GPIO_Exported_Functions</text>
</a>
</g>
</g>
<!-- Node1&#45;&gt;Node9 -->
<g id="edge8" class="edge">
<title>Node1&#45;&gt;Node9</title>
<path fill="none" stroke="black" d="M193.59,-146.85C203.68,-159.5 218.29,-175.42 234.5,-185.38 240.5,-189.06 247.22,-192.1 254.02,-194.6"/>
<polygon fill="black" stroke="black" points="196.58,-145 187.73,-139.18 191.02,-149.25 196.58,-145"/>
</g>
<!-- Node5 -->
<g id="Node000005" class="node">
<title>Node5</title>
<g id="a_Node000005"><a xlink:href="group__GPIO__Exported__Macros.html" target="_top" xlink:title=" ">
<polygon fill="white" stroke="#666666" points="361.5,-176.75 243.5,-176.75 243.5,-156 361.5,-156 361.5,-176.75"/>
<text text-anchor="middle" x="302.5" y="-163.25" font-family="Helvetica,sans-Serif" font-size="10.00">GPIO Exported Macros</text>
</a>
</g>
</g>
<!-- Node1&#45;&gt;Node5 -->
<g id="edge4" class="edge">
<title>Node1&#45;&gt;Node5</title>
<path fill="none" stroke="black" d="M209.6,-138.03C217.67,-140.82 226.4,-143.77 234.5,-146.38 244.09,-149.46 254.51,-152.65 264.2,-155.55"/>
<polygon fill="black" stroke="black" points="210.8,-134.74 200.21,-134.76 208.5,-141.35 210.8,-134.74"/>
</g>
<!-- Node3 -->
<g id="Node000003" class="node">
<title>Node3</title>
<g id="a_Node000003"><a xlink:href="group__GPIO__Exported__Types.html" target="_top" xlink:title=" ">
<polygon fill="white" stroke="#666666" points="358.5,-137.75 246.5,-137.75 246.5,-117 358.5,-117 358.5,-137.75"/>
<text text-anchor="middle" x="302.5" y="-124.25" font-family="Helvetica,sans-Serif" font-size="10.00">GPIO Exported Types</text>
</a>
</g>
</g>
<!-- Node1&#45;&gt;Node3 -->
<g id="edge2" class="edge">
<title>Node1&#45;&gt;Node3</title>
<path fill="none" stroke="black" d="M210.31,-127.38C221.22,-127.38 233.85,-127.38 246.17,-127.38"/>
<polygon fill="black" stroke="black" points="210.34,-123.88 200.34,-127.38 210.34,-130.88 210.34,-123.88"/>
</g>
<!-- Node6 -->
<g id="Node000006" class="node">
<title>Node6</title>
<g id="a_Node000006"><a xlink:href="group__GPIO__Private__Constants.html" target="_top" xlink:title=" ">
<polygon fill="white" stroke="#666666" points="363.38,-98.75 241.62,-98.75 241.62,-78 363.38,-78 363.38,-98.75"/>
<text text-anchor="middle" x="302.5" y="-85.25" font-family="Helvetica,sans-Serif" font-size="10.00">GPIO Private Constants</text>
</a>
</g>
</g>
<!-- Node1&#45;&gt;Node6 -->
<g id="edge5" class="edge">
<title>Node1&#45;&gt;Node6</title>
<path fill="none" stroke="black" d="M209.6,-116.72C217.67,-113.93 226.4,-110.98 234.5,-108.38 244.09,-105.29 254.51,-102.1 264.2,-99.2"/>
<polygon fill="black" stroke="black" points="208.5,-113.4 200.21,-119.99 210.8,-120.01 208.5,-113.4"/>
</g>
<!-- Node8 -->
<g id="Node000008" class="node">
<title>Node8</title>
<g id="a_Node000008"><a xlink:href="group__GPIO__Private__Functions.html" target="_top" xlink:title=" ">
<polygon fill="white" stroke="#666666" points="362.25,-59.75 242.75,-59.75 242.75,-39 362.25,-39 362.25,-59.75"/>
<text text-anchor="middle" x="302.5" y="-46.25" font-family="Helvetica,sans-Serif" font-size="10.00">GPIO Private Functions</text>
</a>
</g>
</g>
<!-- Node1&#45;&gt;Node8 -->
<g id="edge7" class="edge">
<title>Node1&#45;&gt;Node8</title>
<path fill="none" stroke="black" d="M193.59,-107.9C203.68,-95.25 218.29,-79.33 234.5,-69.38 240.5,-65.69 247.22,-62.65 254.02,-60.15"/>
<polygon fill="black" stroke="black" points="191.02,-105.5 187.73,-115.57 196.58,-109.75 191.02,-105.5"/>
</g>
<!-- Node7 -->
<g id="Node000007" class="node">
<title>Node7</title>
<g id="a_Node000007"><a xlink:href="group__GPIO__Private__Macros.html" target="_top" xlink:title=" ">
<polygon fill="white" stroke="#666666" points="356.25,-20.75 248.75,-20.75 248.75,0 356.25,0 356.25,-20.75"/>
<text text-anchor="middle" x="302.5" y="-7.25" font-family="Helvetica,sans-Serif" font-size="10.00">GPIO Private Macros</text>
</a>
</g>
</g>
<!-- Node1&#45;&gt;Node7 -->
<g id="edge6" class="edge">
<title>Node1&#45;&gt;Node7</title>
<path fill="none" stroke="black" d="M186.27,-105.95C194.32,-83.88 209.85,-50 234.5,-30.38 239.15,-26.67 244.48,-23.65 250.05,-21.19"/>
<polygon fill="black" stroke="black" points="183.05,-104.53 183.13,-115.13 189.68,-106.8 183.05,-104.53"/>
</g>
<!-- Node2 -->
<g id="Node000002" class="node">
<title>Node2</title>
<g id="a_Node000002"><a xlink:href="group__STM32F4xx__HAL__Driver.html" target="_top" xlink:title=" ">
<polygon fill="white" stroke="#666666" points="122.5,-137.75 0,-137.75 0,-117 122.5,-117 122.5,-137.75"/>
<text text-anchor="middle" x="61.25" y="-124.25" font-family="Helvetica,sans-Serif" font-size="10.00">STM32F4xx_HAL_Driver</text>
</a>
</g>
</g>
<!-- Node2&#45;&gt;Node1 -->
<g id="edge1" class="edge">
<title>Node2&#45;&gt;Node1</title>
<path fill="none" stroke="black" d="M134.19,-127.38C142.95,-127.38 151.24,-127.38 158.17,-127.38"/>
<polygon fill="black" stroke="black" points="134.43,-123.88 124.43,-127.38 134.43,-130.88 134.43,-123.88"/>
</g>
</g>
</svg>
</svg>

<style type='text/css'>
<![CDATA[
[data-mouse-over-selected='false'] { opacity: 0.7; }
[data-mouse-over-selected='true']  { opacity: 1.0; }
]]>
</style>
<script type="application/ecmascript"><![CDATA[
document.addEventListener('DOMContentLoaded', (event) => {
  highlightEdges();
  highlightAdjacentNodes();
});
]]></script>
</svg>
