<?xml version="1.0" encoding="UTF-8" standalone="no"?>
<!DOCTYPE svg PUBLIC "-//W3C//DTD SVG 1.1//EN"
 "http://www.w3.org/Graphics/SVG/1.1/DTD/svg11.dtd">
<!-- Generated by graphviz version 12.2.1 (20241206.2353)
 -->
<!-- Title: RTCEx Exported Functions Pages: 1 -->
<svg width="402pt" height="198pt"
 viewBox="0.00 0.00 401.75 197.50" xmlns="http://www.w3.org/2000/svg" xmlns:xlink="http://www.w3.org/1999/xlink">

<svg id="main" version="1.1" xmlns="http://www.w3.org/2000/svg" xmlns:xlink="http://www.w3.org/1999/xlink" xml:space="preserve">

<style type="text/css"><![CDATA[
.node, .edge {opacity: 0.7;}
.node.selected, .edge.selected {opacity: 1;}
.edge:hover path { stroke: red; }
.edge:hover polygon { stroke: red; fill: red; }
]]></style>
<script type="application/ecmascript" xlink:href="svg.min.js"/>
<svg id="graph" class="graph">
<g id="graph0" class="graph" transform="scale(1 1) rotate(0) translate(4 193.5)">
<title>RTCEx Exported Functions</title>
<!-- Node2 -->
<g id="Node000002" class="node">
<title>Node2</title>
<g id="a_Node000002"><a xlink:href="group__RTCEx.html" target="_top" xlink:title="RTC Extended HAL module driver.">
<polygon fill="white" stroke="#666666" points="45.25,-105.12 0,-105.12 0,-84.38 45.25,-84.38 45.25,-105.12"/>
<text text-anchor="middle" x="22.62" y="-91.62" font-family="Helvetica,sans-Serif" font-size="10.00">RTCEx</text>
</a>
</g>
</g>
<!-- Node1 -->
<g id="Node000001" class="node">
<title>Node1</title>
<g id="a_Node000001"><a xlink:title=" ">
<polygon fill="#999999" stroke="#666666" points="216.5,-105.12 81.25,-105.12 81.25,-84.38 216.5,-84.38 216.5,-105.12"/>
<text text-anchor="middle" x="148.88" y="-91.62" font-family="Helvetica,sans-Serif" font-size="10.00">RTCEx Exported Functions</text>
</a>
</g>
</g>
<!-- Node2&#45;&gt;Node1 -->
<g id="edge1" class="edge">
<title>Node2&#45;&gt;Node1</title>
<path fill="none" stroke="black" d="M56.95,-94.75C64.4,-94.75 72.55,-94.75 80.83,-94.75"/>
<polygon fill="black" stroke="black" points="57.07,-91.25 47.07,-94.75 57.07,-98.25 57.07,-91.25"/>
</g>
<!-- Node3 -->
<g id="Node000003" class="node">
<title>Node3</title>
<g id="a_Node000003"><a xlink:href="group__RTCEx__Exported__Functions__Group1.html" target="_top" xlink:title=" ">
<polygon fill="white" stroke="#666666" points="393.75,-189.5 252.5,-189.5 252.5,-156 393.75,-156 393.75,-189.5"/>
<text text-anchor="start" x="260.5" y="-176" font-family="Helvetica,sans-Serif" font-size="10.00">RTCEx_Exported_Functions</text>
<text text-anchor="middle" x="323.12" y="-163.25" font-family="Helvetica,sans-Serif" font-size="10.00">_Group1</text>
</a>
</g>
</g>
<!-- Node1&#45;&gt;Node3 -->
<g id="edge2" class="edge">
<title>Node1&#45;&gt;Node3</title>
<path fill="none" stroke="black" d="M179.49,-110.87C199.77,-121.62 227.42,-135.75 252.5,-146.75 259.35,-149.75 266.68,-152.73 273.9,-155.54"/>
<polygon fill="black" stroke="black" points="181.42,-107.93 170.95,-106.3 178.12,-114.1 181.42,-107.93"/>
</g>
<!-- Node4 -->
<g id="Node000004" class="node">
<title>Node4</title>
<g id="a_Node000004"><a xlink:href="group__RTCEx__Exported__Functions__Group2.html" target="_top" xlink:title=" ">
<polygon fill="white" stroke="#666666" points="393.75,-137.5 252.5,-137.5 252.5,-104 393.75,-104 393.75,-137.5"/>
<text text-anchor="start" x="260.5" y="-124" font-family="Helvetica,sans-Serif" font-size="10.00">RTCEx_Exported_Functions</text>
<text text-anchor="middle" x="323.12" y="-111.25" font-family="Helvetica,sans-Serif" font-size="10.00">_Group2</text>
</a>
</g>
</g>
<!-- Node1&#45;&gt;Node4 -->
<g id="edge3" class="edge">
<title>Node1&#45;&gt;Node4</title>
<path fill="none" stroke="black" d="M228.16,-106.57C236.14,-107.77 244.21,-108.99 252.09,-110.18"/>
<polygon fill="black" stroke="black" points="228.87,-103.13 218.46,-105.1 227.83,-110.06 228.87,-103.13"/>
</g>
<!-- Node5 -->
<g id="Node000005" class="node">
<title>Node5</title>
<g id="a_Node000005"><a xlink:href="group__RTCEx__Exported__Functions__Group3.html" target="_top" xlink:title=" ">
<polygon fill="white" stroke="#666666" points="393.75,-85.5 252.5,-85.5 252.5,-52 393.75,-52 393.75,-85.5"/>
<text text-anchor="start" x="260.5" y="-72" font-family="Helvetica,sans-Serif" font-size="10.00">RTCEx_Exported_Functions</text>
<text text-anchor="middle" x="323.12" y="-59.25" font-family="Helvetica,sans-Serif" font-size="10.00">_Group3</text>
</a>
</g>
</g>
<!-- Node1&#45;&gt;Node5 -->
<g id="edge4" class="edge">
<title>Node1&#45;&gt;Node5</title>
<path fill="none" stroke="black" d="M228.16,-82.93C236.14,-81.73 244.21,-80.51 252.09,-79.32"/>
<polygon fill="black" stroke="black" points="227.83,-79.44 218.46,-84.4 228.87,-86.37 227.83,-79.44"/>
</g>
<!-- Node6 -->
<g id="Node000006" class="node">
<title>Node6</title>
<g id="a_Node000006"><a xlink:href="group__RTCEx__Exported__Functions__Group4.html" target="_top" xlink:title=" ">
<polygon fill="white" stroke="#666666" points="393.75,-33.5 252.5,-33.5 252.5,0 393.75,0 393.75,-33.5"/>
<text text-anchor="start" x="260.5" y="-20" font-family="Helvetica,sans-Serif" font-size="10.00">RTCEx_Exported_Functions</text>
<text text-anchor="middle" x="323.12" y="-7.25" font-family="Helvetica,sans-Serif" font-size="10.00">_Group4</text>
</a>
</g>
</g>
<!-- Node1&#45;&gt;Node6 -->
<g id="edge5" class="edge">
<title>Node1&#45;&gt;Node6</title>
<path fill="none" stroke="black" d="M179.49,-78.63C199.77,-67.88 227.42,-53.75 252.5,-42.75 259.35,-39.75 266.68,-36.77 273.9,-33.96"/>
<polygon fill="black" stroke="black" points="178.12,-75.4 170.95,-83.2 181.42,-81.57 178.12,-75.4"/>
</g>
</g>
</svg>
</svg>

<style type='text/css'>
<![CDATA[
[data-mouse-over-selected='false'] { opacity: 0.7; }
[data-mouse-over-selected='true']  { opacity: 1.0; }
]]>
</style>
<script type="application/ecmascript"><![CDATA[
document.addEventListener('DOMContentLoaded', (event) => {
  highlightEdges();
  highlightAdjacentNodes();
});
]]></script>
</svg>
