<?xml version="1.0" encoding="UTF-8" standalone="no"?>
<!DOCTYPE svg PUBLIC "-//W3C//DTD SVG 1.1//EN"
 "http://www.w3.org/Graphics/SVG/1.1/DTD/svg11.dtd">
<!-- Generated by graphviz version 2.43.0 (0)
 -->
<!-- Title: PWR Private Constants Pages: 1 -->
<svg width="378pt" height="172pt"
 viewBox="0.00 0.00 378.00 172.00" xmlns="http://www.w3.org/2000/svg" xmlns:xlink="http://www.w3.org/1999/xlink">

<svg id="main" version="1.1" xmlns="http://www.w3.org/2000/svg" xmlns:xlink="http://www.w3.org/1999/xlink" xml:space="preserve" onload="init(evt)">
<style type="text/css"><![CDATA[
.node, .edge {opacity: 0.7;}
.node.selected, .edge.selected {opacity: 1;}
.edge:hover path { stroke: red; }
.edge:hover polygon { stroke: red; fill: red; }
]]></style>
<script type="application/ecmascript" xlink:href="svg.min.js"/>
<svg id="graph" class="graph">
<g id="graph0" class="graph" transform="scale(1 1) rotate(0) translate(4 168)">
<title>PWR Private Constants</title>
<!-- Node2 -->
<g id="Node000002" class="node">
<title>Node2</title>
<g id="a_Node000002"><a xlink:href="group__PWR.html" target="_top" xlink:title="PWR HAL module driver.">
<polygon fill="white" stroke="#666666" points="39,-88.5 0,-88.5 0,-69.5 39,-69.5 39,-88.5"/>
<text text-anchor="middle" x="19.5" y="-76.5" font-family="Helvetica,sans-Serif" font-size="10.00">PWR</text>
</a>
</g>
</g>
<!-- Node1 -->
<g id="Node000001" class="node">
<title>Node1</title>
<g id="a_Node000001"><a xlink:title=" ">
<polygon fill="#999999" stroke="#666666" points="203,-88.5 75,-88.5 75,-69.5 203,-69.5 203,-88.5"/>
<text text-anchor="middle" x="139" y="-76.5" font-family="Helvetica,sans-Serif" font-size="10.00">PWR Private Constants</text>
</a>
</g>
</g>
<!-- Node2&#45;&gt;Node1 -->
<g id="edge1" class="edge">
<title>Node2&#45;&gt;Node1</title>
<path fill="none" stroke="black" d="M49.17,-79C57.06,-79 65.93,-79 74.93,-79"/>
<polygon fill="black" stroke="black" points="49.12,-75.5 39.12,-79 49.12,-82.5 49.12,-75.5"/>
</g>
<!-- Node5 -->
<g id="Node000005" class="node">
<title>Node5</title>
<g id="a_Node000005"><a xlink:href="group__PWR__CR__register__alias.html" target="_top" xlink:title=" ">
<polygon fill="white" stroke="#666666" points="367,-164 242,-164 242,-134 367,-134 367,-164"/>
<text text-anchor="start" x="250" y="-152" font-family="Helvetica,sans-Serif" font-size="10.00">PWR CR Register alias</text>
<text text-anchor="middle" x="304.5" y="-141" font-family="Helvetica,sans-Serif" font-size="10.00"> address</text>
</a>
</g>
</g>
<!-- Node6 -->
<g id="Node000006" class="node">
<title>Node6</title>
<g id="a_Node000006"><a xlink:href="group__PWR__CSR__register__alias.html" target="_top" xlink:title=" ">
<polygon fill="white" stroke="#666666" points="370,-116 239,-116 239,-86 370,-86 370,-116"/>
<text text-anchor="start" x="247" y="-104" font-family="Helvetica,sans-Serif" font-size="10.00">PWR CSR Register alias</text>
<text text-anchor="middle" x="304.5" y="-93" font-family="Helvetica,sans-Serif" font-size="10.00"> address</text>
</a>
</g>
</g>
<!-- Node3 -->
<g id="Node000003" class="node">
<title>Node3</title>
<g id="a_Node000003"><a xlink:href="group__PWR__PVD__EXTI__Line.html" target="_top" xlink:title=" ">
<polygon fill="white" stroke="#666666" points="359.5,-67.5 249.5,-67.5 249.5,-48.5 359.5,-48.5 359.5,-67.5"/>
<text text-anchor="middle" x="304.5" y="-55.5" font-family="Helvetica,sans-Serif" font-size="10.00">PWR PVD EXTI Line</text>
</a>
</g>
</g>
<!-- Node1&#45;&gt;Node5 -->
<g id="edge4" class="edge">
<title>Node1&#45;&gt;Node5</title>
<path fill="none" stroke="black" d="M168.54,-92.99C188.18,-102.43 214.95,-114.96 239,-125 246.28,-128.04 254.09,-131.11 261.68,-133.98"/>
<polygon fill="black" stroke="black" points="170.05,-89.83 159.52,-88.62 167,-96.13 170.05,-89.83"/>
</g>
<!-- Node1&#45;&gt;Node6 -->
<g id="edge5" class="edge">
<title>Node1&#45;&gt;Node6</title>
<path fill="none" stroke="black" d="M213.17,-88.85C221.73,-90 230.41,-91.16 238.83,-92.3"/>
<polygon fill="black" stroke="black" points="213.59,-85.37 203.21,-87.51 212.66,-92.31 213.59,-85.37"/>
</g>
<!-- Node1&#45;&gt;Node3 -->
<g id="edge2" class="edge">
<title>Node1&#45;&gt;Node3</title>
<path fill="none" stroke="black" d="M213.35,-69.58C225.51,-68.02 237.92,-66.42 249.49,-64.94"/>
<polygon fill="black" stroke="black" points="212.69,-66.14 203.21,-70.88 213.58,-73.08 212.69,-66.14"/>
</g>
<!-- Node4 -->
<g id="Node000004" class="node">
<title>Node4</title>
<g id="a_Node000004"><a xlink:href="group__PWR__register__alias__address.html" target="_top" xlink:title=" ">
<polygon fill="white" stroke="#666666" points="359,-30 250,-30 250,0 359,0 359,-30"/>
<text text-anchor="start" x="258" y="-18" font-family="Helvetica,sans-Serif" font-size="10.00">PWR Register alias</text>
<text text-anchor="middle" x="304.5" y="-7" font-family="Helvetica,sans-Serif" font-size="10.00"> address</text>
</a>
</g>
</g>
<!-- Node1&#45;&gt;Node4 -->
<g id="edge3" class="edge">
<title>Node1&#45;&gt;Node4</title>
<path fill="none" stroke="black" d="M173.87,-65.6C192.99,-58.06 217.31,-48.47 239,-40 247.28,-36.77 256.16,-33.31 264.6,-30.04"/>
<polygon fill="black" stroke="black" points="172.41,-62.42 164.4,-69.35 174.98,-68.93 172.41,-62.42"/>
</g>
</g>
</svg>
</svg>

<style type='text/css'>
<![CDATA[
[data-mouse-over-selected='false'] { opacity: 0.7; }
[data-mouse-over-selected='true']  { opacity: 1.0; }
]]>
</style>
<script type="application/ecmascript"><![CDATA[
document.addEventListener('DOMContentLoaded', (event) => {
  highlightEdges();
  highlightAdjacentNodes();
});
]]></script>
</svg>
