<?xml version="1.0" encoding="UTF-8" standalone="no"?>
<!DOCTYPE svg PUBLIC "-//W3C//DTD SVG 1.1//EN"
 "http://www.w3.org/Graphics/SVG/1.1/DTD/svg11.dtd">
<!-- Generated by graphviz version 2.43.0 (0)
 -->
<!-- Title: USART_Exported_Functions Pages: 1 -->
<svg width="430pt" height="134pt"
 viewBox="0.00 0.00 430.00 134.00" xmlns="http://www.w3.org/2000/svg" xmlns:xlink="http://www.w3.org/1999/xlink">
<g id="graph0" class="graph" transform="scale(1 1) rotate(0) translate(4 130)">
<title>USART_Exported_Functions</title>
<!-- Node2 -->
<g id="Node000002" class="node">
<title>Node2</title>
<g id="a_Node000002"><a xlink:href="group__USART.html" target="_top" xlink:title="HAL USART Synchronous module driver.">
<polygon fill="white" stroke="#666666" points="50,-72.5 0,-72.5 0,-53.5 50,-53.5 50,-72.5"/>
<text text-anchor="middle" x="25" y="-60.5" font-family="Helvetica,sans-Serif" font-size="10.00">USART</text>
</a>
</g>
</g>
<!-- Node1 -->
<g id="Node000001" class="node">
<title>Node1</title>
<g id="a_Node000001"><a xlink:title=" ">
<polygon fill="#999999" stroke="#666666" points="236,-72.5 86,-72.5 86,-53.5 236,-53.5 236,-72.5"/>
<text text-anchor="middle" x="161" y="-60.5" font-family="Helvetica,sans-Serif" font-size="10.00">USART_Exported_Functions</text>
</a>
</g>
</g>
<!-- Node2&#45;&gt;Node1 -->
<g id="edge1" class="edge">
<title>Node2&#45;&gt;Node1</title>
<path fill="none" stroke="black" d="M60.5,-63C68.4,-63 77.11,-63 85.98,-63"/>
<polygon fill="black" stroke="black" points="60.27,-59.5 50.27,-63 60.27,-66.5 60.27,-59.5"/>
</g>
<!-- Node3 -->
<g id="Node000003" class="node">
<title>Node3</title>
<g id="a_Node000003"><a xlink:href="group__USART__Exported__Functions__Group1.html" target="_top" xlink:title=" ">
<polygon fill="white" stroke="#666666" points="422,-126 272,-126 272,-96 422,-96 422,-126"/>
<text text-anchor="start" x="280" y="-114" font-family="Helvetica,sans-Serif" font-size="10.00">USART_Exported_Functions</text>
<text text-anchor="middle" x="347" y="-103" font-family="Helvetica,sans-Serif" font-size="10.00">_Group1</text>
</a>
</g>
</g>
<!-- Node1&#45;&gt;Node3 -->
<g id="edge2" class="edge">
<title>Node1&#45;&gt;Node3</title>
<path fill="none" stroke="black" d="M208.78,-75.2C232.96,-81.51 262.67,-89.26 288.26,-95.94"/>
<polygon fill="black" stroke="black" points="209.35,-71.74 198.79,-72.6 207.59,-78.51 209.35,-71.74"/>
</g>
<!-- Node4 -->
<g id="Node000004" class="node">
<title>Node4</title>
<g id="a_Node000004"><a xlink:href="group__USART__Exported__Functions__Group2.html" target="_top" xlink:title=" ">
<polygon fill="white" stroke="#666666" points="422,-78 272,-78 272,-48 422,-48 422,-78"/>
<text text-anchor="start" x="280" y="-66" font-family="Helvetica,sans-Serif" font-size="10.00">USART_Exported_Functions</text>
<text text-anchor="middle" x="347" y="-55" font-family="Helvetica,sans-Serif" font-size="10.00">_Group2</text>
</a>
</g>
</g>
<!-- Node1&#45;&gt;Node4 -->
<g id="edge3" class="edge">
<title>Node1&#45;&gt;Node4</title>
<path fill="none" stroke="black" d="M246.07,-63C254.65,-63 263.34,-63 271.81,-63"/>
<polygon fill="black" stroke="black" points="246.04,-59.5 236.04,-63 246.04,-66.5 246.04,-59.5"/>
</g>
<!-- Node5 -->
<g id="Node000005" class="node">
<title>Node5</title>
<g id="a_Node000005"><a xlink:href="group__USART__Exported__Functions__Group3.html" target="_top" xlink:title=" ">
<polygon fill="white" stroke="#666666" points="422,-30 272,-30 272,0 422,0 422,-30"/>
<text text-anchor="start" x="280" y="-18" font-family="Helvetica,sans-Serif" font-size="10.00">USART_Exported_Functions</text>
<text text-anchor="middle" x="347" y="-7" font-family="Helvetica,sans-Serif" font-size="10.00">_Group3</text>
</a>
</g>
</g>
<!-- Node1&#45;&gt;Node5 -->
<g id="edge4" class="edge">
<title>Node1&#45;&gt;Node5</title>
<path fill="none" stroke="black" d="M208.78,-50.8C232.96,-44.49 262.67,-36.74 288.26,-30.06"/>
<polygon fill="black" stroke="black" points="207.59,-47.49 198.79,-53.4 209.35,-54.26 207.59,-47.49"/>
</g>
</g>
</svg>
