<?xml version="1.0" encoding="UTF-8" standalone="no"?>
<!DOCTYPE svg PUBLIC "-//W3C//DTD SVG 1.1//EN"
 "http://www.w3.org/Graphics/SVG/1.1/DTD/svg11.dtd">
<!-- Generated by graphviz version 2.43.0 (0)
 -->
<!-- Title: CORTEX Pages: 1 -->
<svg width="426pt" height="138pt"
 viewBox="0.00 0.00 426.00 138.00" xmlns="http://www.w3.org/2000/svg" xmlns:xlink="http://www.w3.org/1999/xlink">

<svg id="main" version="1.1" xmlns="http://www.w3.org/2000/svg" xmlns:xlink="http://www.w3.org/1999/xlink" xml:space="preserve">

<style type="text/css"><![CDATA[
.node, .edge {opacity: 0.7;}
.node.selected, .edge.selected {opacity: 1;}
.edge:hover path { stroke: red; }
.edge:hover polygon { stroke: red; fill: red; }
]]></style>
<script type="application/ecmascript" xlink:href="svg.min.js"/>
<svg id="graph" class="graph">
<g id="graph0" class="graph" transform="scale(1 1) rotate(0) translate(4 134)">
<title>CORTEX</title>
<!-- Node1 -->
<g id="Node000001" class="node">
<title>Node1</title>
<g id="a_Node000001"><a xlink:title="CORTEX HAL module driver.">
<polygon fill="#999999" stroke="#666666" points="226,-74 170,-74 170,-55 226,-55 226,-74"/>
<text text-anchor="middle" x="198" y="-62" font-family="Helvetica,sans-Serif" font-size="10.00">CORTEX</text>
</a>
</g>
</g>
<!-- Node4 -->
<g id="Node000004" class="node">
<title>Node4</title>
<g id="a_Node000004"><a xlink:href="group__CORTEX__Exported__Constants.html" target="_top" xlink:title=" ">
<polygon fill="white" stroke="#666666" points="417,-130 263,-130 263,-111 417,-111 417,-130"/>
<text text-anchor="middle" x="340" y="-118" font-family="Helvetica,sans-Serif" font-size="10.00">CORTEX Exported Constants</text>
</a>
</g>
</g>
<!-- Node1&#45;&gt;Node4 -->
<g id="edge3" class="edge">
<title>Node1&#45;&gt;Node4</title>
<path fill="none" stroke="black" d="M220.64,-79.87C232.4,-87.62 247.48,-96.6 262,-102.5 270.14,-105.81 279.02,-108.59 287.77,-110.9"/>
<polygon fill="black" stroke="black" points="222.6,-76.97 212.36,-74.26 218.67,-82.77 222.6,-76.97"/>
</g>
<!-- Node6 -->
<g id="Node000006" class="node">
<title>Node6</title>
<g id="a_Node000006"><a xlink:href="group__CORTEX__Exported__Functions.html" target="_top" xlink:title=" ">
<polygon fill="white" stroke="#666666" points="418,-93 262,-93 262,-74 418,-74 418,-93"/>
<text text-anchor="middle" x="340" y="-81" font-family="Helvetica,sans-Serif" font-size="10.00">CORTEX_Exported_Functions</text>
</a>
</g>
</g>
<!-- Node1&#45;&gt;Node6 -->
<g id="edge5" class="edge">
<title>Node1&#45;&gt;Node6</title>
<path fill="none" stroke="black" d="M236.32,-69.56C246.36,-70.93 257.55,-72.45 268.75,-73.97"/>
<polygon fill="black" stroke="black" points="236.71,-66.09 226.33,-68.21 235.76,-73.02 236.71,-66.09"/>
</g>
<!-- Node3 -->
<g id="Node000003" class="node">
<title>Node3</title>
<g id="a_Node000003"><a xlink:href="group__CORTEX__Exported__Types.html" target="_top" xlink:title=" ">
<polygon fill="white" stroke="#666666" points="403,-56 277,-56 277,-37 403,-37 403,-56"/>
<text text-anchor="middle" x="340" y="-44" font-family="Helvetica,sans-Serif" font-size="10.00">Cortex Exported Types</text>
</a>
</g>
</g>
<!-- Node1&#45;&gt;Node3 -->
<g id="edge2" class="edge">
<title>Node1&#45;&gt;Node3</title>
<path fill="none" stroke="black" d="M236.35,-59.7C248.84,-58.09 263.11,-56.26 276.97,-54.48"/>
<polygon fill="black" stroke="black" points="235.8,-56.24 226.33,-60.99 236.69,-63.18 235.8,-56.24"/>
</g>
<!-- Node5 -->
<g id="Node000005" class="node">
<title>Node5</title>
<g id="a_Node000005"><a xlink:href="group__CORTEX__Private__Macros.html" target="_top" xlink:title=" ">
<polygon fill="white" stroke="#666666" points="405.5,-19 274.5,-19 274.5,0 405.5,0 405.5,-19"/>
<text text-anchor="middle" x="340" y="-7" font-family="Helvetica,sans-Serif" font-size="10.00">CORTEX Private Macros</text>
</a>
</g>
</g>
<!-- Node1&#45;&gt;Node5 -->
<g id="edge4" class="edge">
<title>Node1&#45;&gt;Node5</title>
<path fill="none" stroke="black" d="M221.5,-49.04C233.16,-41.62 247.87,-33.15 262,-27.5 270.29,-24.19 279.33,-21.4 288.21,-19.08"/>
<polygon fill="black" stroke="black" points="219.33,-46.28 212.88,-54.69 223.16,-52.14 219.33,-46.28"/>
</g>
<!-- Node2 -->
<g id="Node000002" class="node">
<title>Node2</title>
<g id="a_Node000002"><a xlink:href="group__STM32F4xx__HAL__Driver.html" target="_top" xlink:title=" ">
<polygon fill="white" stroke="#666666" points="134,-74 0,-74 0,-55 134,-55 134,-74"/>
<text text-anchor="middle" x="67" y="-62" font-family="Helvetica,sans-Serif" font-size="10.00">STM32F4xx_HAL_Driver</text>
</a>
</g>
</g>
<!-- Node2&#45;&gt;Node1 -->
<g id="edge1" class="edge">
<title>Node2&#45;&gt;Node1</title>
<path fill="none" stroke="black" d="M144.04,-64.5C153.19,-64.5 162.03,-64.5 169.77,-64.5"/>
<polygon fill="black" stroke="black" points="144.01,-61 134.01,-64.5 144.01,-68 144.01,-61"/>
</g>
</g>
</svg>
</svg>

<style type='text/css'>
<![CDATA[
[data-mouse-over-selected='false'] { opacity: 0.7; }
[data-mouse-over-selected='true']  { opacity: 1.0; }
]]>
</style>
<script type="application/ecmascript"><![CDATA[
document.addEventListener('DOMContentLoaded', (event) => {
  highlightEdges();
  highlightAdjacentNodes();
});
]]></script>
</svg>
