<?xml version="1.0" encoding="UTF-8" standalone="no"?>
<!DOCTYPE svg PUBLIC "-//W3C//DTD SVG 1.1//EN"
 "http://www.w3.org/Graphics/SVG/1.1/DTD/svg11.dtd">
<!-- Generated by graphviz version 12.2.1 (20241206.2353)
 -->
<!-- Title: I2C_Exported_Functions Pages: 1 -->
<svg width="378pt" height="184pt"
 viewBox="0.00 0.00 377.75 184.12" xmlns="http://www.w3.org/2000/svg" xmlns:xlink="http://www.w3.org/1999/xlink">

<svg id="main" version="1.1" xmlns="http://www.w3.org/2000/svg" xmlns:xlink="http://www.w3.org/1999/xlink" xml:space="preserve">

<style type="text/css"><![CDATA[
.node, .edge {opacity: 0.7;}
.node.selected, .edge.selected {opacity: 1;}
.edge:hover path { stroke: red; }
.edge:hover polygon { stroke: red; fill: red; }
]]></style>
<script type="application/ecmascript" xlink:href="svg.min.js"/>
<svg id="graph" class="graph">
<g id="graph0" class="graph" transform="scale(1 1) rotate(0) translate(4 180.12)">
<title>I2C_Exported_Functions</title>
<!-- Node2 -->
<g id="Node000002" class="node">
<title>Node2</title>
<g id="a_Node000002"><a xlink:href="group__I2C.html" target="_top" xlink:title="I2C HAL module driver.">
<polygon fill="white" stroke="#666666" points="31,-91.75 0,-91.75 0,-71 31,-71 31,-91.75"/>
<text text-anchor="middle" x="15.5" y="-78.25" font-family="Helvetica,sans-Serif" font-size="10.00">I2C</text>
</a>
</g>
</g>
<!-- Node1 -->
<g id="Node000001" class="node">
<title>Node1</title>
<g id="a_Node000001"><a xlink:title=" ">
<polygon fill="#999999" stroke="#666666" points="194,-91.75 67,-91.75 67,-71 194,-71 194,-91.75"/>
<text text-anchor="middle" x="130.5" y="-78.25" font-family="Helvetica,sans-Serif" font-size="10.00">I2C_Exported_Functions</text>
</a>
</g>
</g>
<!-- Node2&#45;&gt;Node1 -->
<g id="edge1" class="edge">
<title>Node2&#45;&gt;Node1</title>
<path fill="none" stroke="black" d="M42.53,-81.38C49.84,-81.38 58.13,-81.38 66.61,-81.38"/>
<polygon fill="black" stroke="black" points="42.79,-77.88 32.79,-81.38 42.79,-84.88 42.79,-77.88"/>
</g>
<!-- Node3 -->
<g id="Node000003" class="node">
<title>Node3</title>
<g id="a_Node000003"><a xlink:href="group__I2C__Exported__Functions__Group1.html" target="_top" xlink:title=" ">
<polygon fill="white" stroke="#666666" points="366.38,-176.12 233.38,-176.12 233.38,-142.62 366.38,-142.62 366.38,-176.12"/>
<text text-anchor="start" x="241.38" y="-162.62" font-family="Helvetica,sans-Serif" font-size="10.00">Initialization and</text>
<text text-anchor="middle" x="299.88" y="-149.88" font-family="Helvetica,sans-Serif" font-size="10.00"> de&#45;initialization functions</text>
</a>
</g>
</g>
<!-- Node1&#45;&gt;Node3 -->
<g id="edge2" class="edge">
<title>Node1&#45;&gt;Node3</title>
<path fill="none" stroke="black" d="M160.04,-97.66C179.46,-108.43 205.9,-122.52 230,-133.38 236.76,-136.42 243.99,-139.42 251.13,-142.24"/>
<polygon fill="black" stroke="black" points="161.79,-94.63 151.36,-92.79 158.37,-100.73 161.79,-94.63"/>
</g>
<!-- Node4 -->
<g id="Node000004" class="node">
<title>Node4</title>
<g id="a_Node000004"><a xlink:href="group__I2C__Exported__Functions__Group2.html" target="_top" xlink:title=" ">
<polygon fill="white" stroke="#666666" points="369.75,-124.12 230,-124.12 230,-90.62 369.75,-90.62 369.75,-124.12"/>
<text text-anchor="start" x="238" y="-110.62" font-family="Helvetica,sans-Serif" font-size="10.00">Input and Output operation</text>
<text text-anchor="middle" x="299.88" y="-97.88" font-family="Helvetica,sans-Serif" font-size="10.00"> functions</text>
</a>
</g>
</g>
<!-- Node1&#45;&gt;Node4 -->
<g id="edge3" class="edge">
<title>Node1&#45;&gt;Node4</title>
<path fill="none" stroke="black" d="M205.5,-92.87C213.49,-94.11 221.61,-95.37 229.55,-96.61"/>
<polygon fill="black" stroke="black" points="206.21,-89.44 195.8,-91.36 205.14,-96.36 206.21,-89.44"/>
</g>
<!-- Node6 -->
<g id="Node000006" class="node">
<title>Node6</title>
<g id="a_Node000006"><a xlink:href="group__I2C__Exported__Functions__Group3.html" target="_top" xlink:title=" ">
<polygon fill="white" stroke="#666666" points="358.88,-72.12 240.88,-72.12 240.88,-38.62 358.88,-38.62 358.88,-72.12"/>
<text text-anchor="start" x="248.88" y="-58.62" font-family="Helvetica,sans-Serif" font-size="10.00">Peripheral State, Mode</text>
<text text-anchor="middle" x="299.88" y="-45.88" font-family="Helvetica,sans-Serif" font-size="10.00"> and Error functions</text>
</a>
</g>
</g>
<!-- Node1&#45;&gt;Node6 -->
<g id="edge5" class="edge">
<title>Node1&#45;&gt;Node6</title>
<path fill="none" stroke="black" d="M205.43,-69.89C217.15,-68.07 229.12,-66.21 240.42,-64.45"/>
<polygon fill="black" stroke="black" points="205.14,-66.39 195.8,-71.39 206.21,-73.31 205.14,-66.39"/>
</g>
<!-- Node5 -->
<g id="Node000005" class="node">
<title>Node5</title>
<g id="a_Node000005"><a xlink:href="group__I2C__IRQ__Handler__and__Callbacks.html" target="_top" xlink:title=" ">
<polygon fill="white" stroke="#666666" points="368.25,-20.75 231.5,-20.75 231.5,0 368.25,0 368.25,-20.75"/>
<text text-anchor="middle" x="299.88" y="-7.25" font-family="Helvetica,sans-Serif" font-size="10.00">IRQ Handler and Callbacks</text>
</a>
</g>
</g>
<!-- Node1&#45;&gt;Node5 -->
<g id="edge4" class="edge">
<title>Node1&#45;&gt;Node5</title>
<path fill="none" stroke="black" d="M159.02,-64.78C178.36,-53.63 205.13,-39.24 230,-29.38 237.73,-26.31 246.13,-23.55 254.32,-21.14"/>
<polygon fill="black" stroke="black" points="157.27,-61.75 150.4,-69.82 160.8,-67.79 157.27,-61.75"/>
</g>
</g>
</svg>
</svg>

<style type='text/css'>
<![CDATA[
[data-mouse-over-selected='false'] { opacity: 0.7; }
[data-mouse-over-selected='true']  { opacity: 1.0; }
]]>
</style>
<script type="application/ecmascript"><![CDATA[
document.addEventListener('DOMContentLoaded', (event) => {
  highlightEdges();
  highlightAdjacentNodes();
});
]]></script>
</svg>
