<?xml version="1.0" encoding="UTF-8" standalone="no"?>
<!DOCTYPE svg PUBLIC "-//W3C//DTD SVG 1.1//EN"
 "http://www.w3.org/Graphics/SVG/1.1/DTD/svg11.dtd">
<!-- Generated by graphviz version 12.2.1 (20241206.2353)
 -->
<!-- Title: SMARTCARD Exported constants Pages: 1 -->
<!--zoomable 521 -->

<svg id="main" version="1.1" xmlns="http://www.w3.org/2000/svg" xmlns:xlink="http://www.w3.org/1999/xlink" xml:space="preserve" onload="init(evt)">

<style type="text/css"><![CDATA[
.node, .edge {opacity: 0.7;}
.node.selected, .edge.selected {opacity: 1;}
.edge:hover path { stroke: red; }
.edge:hover polygon { stroke: red; fill: red; }
]]></style>

<defs>
  <circle id="rim" cx="0" cy="0" r="7"/>
  <circle id="rim2" cx="0" cy="0" r="3.5"/>
  <g id="zoomPlus">
    <use xlink:href="#rim" fill="#404040"><set attributeName="fill" to="#808080" begin="zoomplus.mouseover" end="zoomplus.mouseout"/></use>
    <path d="M-4,0h8M0,-4v8" fill="none" stroke="white" stroke-width="1.5" pointer-events="none"/>
  </g>
  <g id="zoomMin">
    <use xlink:href="#rim" fill="#404040"><set attributeName="fill" to="#808080" begin="zoomminus.mouseover" end="zoomminus.mouseout"/></use>
    <path d="M-4,0h8" fill="none" stroke="white" stroke-width="1.5" pointer-events="none"/>
  </g>
  <g id="arrowUp" transform="translate(30 24)">
    <use xlink:href="#rim"/>
    <path pointer-events="none" fill="none" stroke="white" stroke-width="1.5" d="M0,-3.0v7 M-2.5,-0.5L0,-3.0L2.5,-0.5"/>
  </g>
  <g id="arrowRight" transform="rotate(90) translate(36 -43)">
    <use xlink:href="#rim"/>
    <path pointer-events="none" fill="none" stroke="white" stroke-width="1.5" d="M0,-3.0v7 M-2.5,-0.5L0,-3.0L2.5,-0.5"/>
  </g>
  <g id="arrowDown" transform="rotate(180) translate(-30 -48)">
    <use xlink:href="#rim"/>
    <path pointer-events="none" fill="none" stroke="white" stroke-width="1.5" d="M0,-3.0v7 M-2.5,-0.5L0,-3.0L2.5,-0.5"/>
  </g>
  <g id="arrowLeft" transform="rotate(270) translate(-36 17)">
    <use xlink:href="#rim"/>
    <path pointer-events="none" fill="none" stroke="white" stroke-width="1.5" d="M0,-3.0v7 M-2.5,-0.5L0,-3.0L2.5,-0.5"/>
  </g>
  <g id="resetDef">
    <use xlink:href="#rim2" fill="#404040"><set attributeName="fill" to="#808080" begin="reset.mouseover" end="reset.mouseout"/></use>
  </g>
</defs>
<script type="application/ecmascript">
var viewWidth = 407;
var viewHeight = 521;
var sectionId = 'dynsection-0';
</script>
<script type="application/ecmascript" xlink:href="svg.min.js"/>
<svg id="graph" class="graph">
<g id="viewport">
<title>SMARTCARD Exported constants</title>
<!-- Node2 -->
<g id="Node000002" class="node">
<title>Node2</title>
<g id="a_Node000002"><a xlink:href="group__SMARTCARD.html" target="_top" xlink:title="HAL SMARTCARD module driver.">
<polygon fill="white" stroke="#666666" points="73,-279.12 0,-279.12 0,-258.38 73,-258.38 73,-279.12"/>
<text text-anchor="middle" x="36.5" y="-265.62" font-family="Helvetica,sans-Serif" font-size="10.00">SMARTCARD</text>
</a>
</g>
</g>
<!-- Node1 -->
<g id="Node000001" class="node">
<title>Node1</title>
<g id="a_Node000001"><a xlink:title=" ">
<polygon fill="#999999" stroke="#666666" points="225.5,-285.5 109,-285.5 109,-252 225.5,-252 225.5,-285.5"/>
<text text-anchor="start" x="117" y="-272" font-family="Helvetica,sans-Serif" font-size="10.00">SMARTCARD Exported</text>
<text text-anchor="middle" x="167.25" y="-259.25" font-family="Helvetica,sans-Serif" font-size="10.00"> constants</text>
</a>
</g>
</g>
<!-- Node2&#45;&gt;Node1 -->
<g id="edge1" class="edge">
<title>Node2&#45;&gt;Node1</title>
<path fill="none" stroke="black" d="M84.87,-268.75C92.67,-268.75 100.84,-268.75 108.86,-268.75"/>
<polygon fill="black" stroke="black" points="84.88,-265.25 74.88,-268.75 84.88,-272.25 84.88,-265.25"/>
</g>
<!-- Node9 -->
<g id="Node000009" class="node">
<title>Node9</title>
<g id="a_Node000009"><a xlink:href="group__SMARTCARD__Clock__Phase.html" target="_top" xlink:title=" ">
<polygon fill="white" stroke="#666666" points="395.25,-513.12 265.25,-513.12 265.25,-492.38 395.25,-492.38 395.25,-513.12"/>
<text text-anchor="middle" x="330.25" y="-499.62" font-family="Helvetica,sans-Serif" font-size="10.00">SMARTCARD Clock Phase</text>
</a>
</g>
</g>
<!-- Node8 -->
<g id="Node000008" class="node">
<title>Node8</title>
<g id="a_Node000008"><a xlink:href="group__SMARTCARD__Clock__Polarity.html" target="_top" xlink:title=" ">
<polygon fill="white" stroke="#666666" points="399,-474.12 261.5,-474.12 261.5,-453.38 399,-453.38 399,-474.12"/>
<text text-anchor="middle" x="330.25" y="-460.62" font-family="Helvetica,sans-Serif" font-size="10.00">SMARTCARD Clock Polarity</text>
</a>
</g>
</g>
<!-- Node12 -->
<g id="Node000012" class="node">
<title>Node12</title>
<g id="a_Node000012"><a xlink:href="group__SMARTCARD__DMA__Requests.html" target="_top" xlink:title=" ">
<polygon fill="white" stroke="#666666" points="398.62,-435.12 261.88,-435.12 261.88,-414.38 398.62,-414.38 398.62,-435.12"/>
<text text-anchor="middle" x="330.25" y="-421.62" font-family="Helvetica,sans-Serif" font-size="10.00">SMARTCARD DMA requests</text>
</a>
</g>
</g>
<!-- Node3 -->
<g id="Node000003" class="node">
<title>Node3</title>
<g id="a_Node000003"><a xlink:href="group__SMARTCARD__Error__Code.html" target="_top" xlink:title=" ">
<polygon fill="white" stroke="#666666" points="392.62,-396.12 267.88,-396.12 267.88,-375.38 392.62,-375.38 392.62,-396.12"/>
<text text-anchor="middle" x="330.25" y="-382.62" font-family="Helvetica,sans-Serif" font-size="10.00">SMARTCARD Error Code</text>
</a>
</g>
</g>
<!-- Node1&#45;&gt;Node9 -->
<g id="edge8" class="edge">
<title>Node1&#45;&gt;Node9</title>
<path fill="none" stroke="black" d="M172.7,-296.89C181.4,-342.6 205.03,-432.88 261.5,-482.75 265.73,-486.48 270.62,-489.52 275.81,-491.99"/>
<polygon fill="black" stroke="black" points="176.18,-296.48 170.97,-287.25 169.29,-297.71 176.18,-296.48"/>
</g>
<!-- Node1&#45;&gt;Node8 -->
<g id="edge7" class="edge">
<title>Node1&#45;&gt;Node8</title>
<path fill="none" stroke="black" d="M175.7,-296.75C187.46,-335.48 213.99,-405.01 261.5,-443.75 266.06,-447.47 271.3,-450.5 276.79,-452.96"/>
<polygon fill="black" stroke="black" points="179.09,-295.87 172.95,-287.24 172.37,-297.82 179.09,-295.87"/>
</g>
<!-- Node1&#45;&gt;Node12 -->
<g id="edge11" class="edge">
<title>Node1&#45;&gt;Node12</title>
<path fill="none" stroke="black" d="M180.09,-296.2C194.78,-327.07 222.72,-376.57 261.5,-404.75 266.56,-408.43 272.29,-411.43 278.23,-413.89"/>
<polygon fill="black" stroke="black" points="183.27,-294.74 175.91,-287.12 176.91,-297.67 183.27,-294.74"/>
</g>
<!-- Node1&#45;&gt;Node3 -->
<g id="edge2" class="edge">
<title>Node1&#45;&gt;Node3</title>
<path fill="none" stroke="black" d="M187.04,-294.83C204.13,-316.74 231.24,-347.36 261.5,-365.75 267.58,-369.44 274.38,-372.49 281.27,-374.99"/>
<polygon fill="black" stroke="black" points="189.88,-292.79 181.05,-286.94 184.31,-297.02 189.88,-292.79"/>
</g>
<!-- Node10 -->
<g id="Node000010" class="node">
<title>Node10</title>
<g id="a_Node000010"><a xlink:href="group__SMARTCARD__Last__Bit.html" target="_top" xlink:title=" ">
<polygon fill="white" stroke="#666666" points="384.38,-357.12 276.12,-357.12 276.12,-336.38 384.38,-336.38 384.38,-357.12"/>
<text text-anchor="middle" x="330.25" y="-343.62" font-family="Helvetica,sans-Serif" font-size="10.00">SMARTCARD Last Bit</text>
</a>
</g>
</g>
<!-- Node1&#45;&gt;Node10 -->
<g id="edge9" class="edge">
<title>Node1&#45;&gt;Node10</title>
<path fill="none" stroke="black" d="M200.92,-292.1C218.29,-303.72 240.37,-317.27 261.5,-326.75 269.33,-330.26 277.95,-333.35 286.33,-335.98"/>
<polygon fill="black" stroke="black" points="203.28,-289.48 193.05,-286.74 199.34,-295.26 203.28,-289.48"/>
</g>
<!-- Node7 -->
<g id="Node000007" class="node">
<title>Node7</title>
<g id="a_Node000007"><a xlink:href="group__SMARTCARD__Mode.html" target="_top" xlink:title=" ">
<polygon fill="white" stroke="#666666" points="380.62,-318.12 279.88,-318.12 279.88,-297.38 380.62,-297.38 380.62,-318.12"/>
<text text-anchor="middle" x="330.25" y="-304.62" font-family="Helvetica,sans-Serif" font-size="10.00">SMARTCARD Mode</text>
</a>
</g>
</g>
<!-- Node1&#45;&gt;Node7 -->
<g id="edge6" class="edge">
<title>Node1&#45;&gt;Node7</title>
<path fill="none" stroke="black" d="M236.95,-285.39C253.08,-289.3 269.85,-293.36 284.61,-296.94"/>
<polygon fill="black" stroke="black" points="237.93,-282.03 227.39,-283.08 236.29,-288.83 237.93,-282.03"/>
</g>
<!-- Node11 -->
<g id="Node000011" class="node">
<title>Node11</title>
<g id="a_Node000011"><a xlink:href="group__SMARTCARD__NACK__State.html" target="_top" xlink:title=" ">
<polygon fill="white" stroke="#666666" points="393.75,-279.12 266.75,-279.12 266.75,-258.38 393.75,-258.38 393.75,-279.12"/>
<text text-anchor="middle" x="330.25" y="-265.62" font-family="Helvetica,sans-Serif" font-size="10.00">SMARTCARD NACK State</text>
</a>
</g>
</g>
<!-- Node1&#45;&gt;Node11 -->
<g id="edge10" class="edge">
<title>Node1&#45;&gt;Node11</title>
<path fill="none" stroke="black" d="M237.13,-268.75C246.8,-268.75 256.7,-268.75 266.25,-268.75"/>
<polygon fill="black" stroke="black" points="237.43,-265.25 227.43,-268.75 237.43,-272.25 237.43,-265.25"/>
</g>
<!-- Node6 -->
<g id="Node000006" class="node">
<title>Node6</title>
<g id="a_Node000006"><a xlink:href="group__SMARTCARD__Parity.html" target="_top" xlink:title=" ">
<polygon fill="white" stroke="#666666" points="380.62,-240.12 279.88,-240.12 279.88,-219.38 380.62,-219.38 380.62,-240.12"/>
<text text-anchor="middle" x="330.25" y="-226.62" font-family="Helvetica,sans-Serif" font-size="10.00">SMARTCARD Parity</text>
</a>
</g>
</g>
<!-- Node1&#45;&gt;Node6 -->
<g id="edge5" class="edge">
<title>Node1&#45;&gt;Node6</title>
<path fill="none" stroke="black" d="M236.95,-252.11C253.08,-248.2 269.85,-244.14 284.61,-240.56"/>
<polygon fill="black" stroke="black" points="236.29,-248.67 227.39,-254.42 237.93,-255.47 236.29,-248.67"/>
</g>
<!-- Node13 -->
<g id="Node000013" class="node">
<title>Node13</title>
<g id="a_Node000013"><a xlink:href="group__SMARTCARD__Prescaler.html" target="_top" xlink:title=" ">
<polygon fill="white" stroke="#666666" points="388.5,-201.12 272,-201.12 272,-180.38 388.5,-180.38 388.5,-201.12"/>
<text text-anchor="middle" x="330.25" y="-187.62" font-family="Helvetica,sans-Serif" font-size="10.00">SMARTCARD Prescaler</text>
</a>
</g>
</g>
<!-- Node1&#45;&gt;Node13 -->
<g id="edge12" class="edge">
<title>Node1&#45;&gt;Node13</title>
<path fill="none" stroke="black" d="M200.92,-245.4C218.29,-233.78 240.37,-220.23 261.5,-210.75 269.33,-207.24 277.95,-204.15 286.33,-201.52"/>
<polygon fill="black" stroke="black" points="199.34,-242.24 193.05,-250.76 203.28,-248.02 199.34,-242.24"/>
</g>
<!-- Node5 -->
<g id="Node000005" class="node">
<title>Node5</title>
<g id="a_Node000005"><a xlink:href="group__SMARTCARD__Stop__Bits.html" target="_top" xlink:title=" ">
<polygon fill="white" stroke="#666666" points="392.25,-162.5 268.25,-162.5 268.25,-129 392.25,-129 392.25,-162.5"/>
<text text-anchor="start" x="276.25" y="-149" font-family="Helvetica,sans-Serif" font-size="10.00">SMARTCARD Number of</text>
<text text-anchor="middle" x="330.25" y="-136.25" font-family="Helvetica,sans-Serif" font-size="10.00"> Stop Bits</text>
</a>
</g>
</g>
<!-- Node1&#45;&gt;Node5 -->
<g id="edge4" class="edge">
<title>Node1&#45;&gt;Node5</title>
<path fill="none" stroke="black" d="M187.71,-242.89C205.05,-221.37 232.17,-191.21 261.5,-171.75 266.43,-168.48 271.84,-165.53 277.38,-162.9"/>
<polygon fill="black" stroke="black" points="185.06,-240.61 181.62,-250.63 190.56,-244.94 185.06,-240.61"/>
</g>
<!-- Node4 -->
<g id="Node000004" class="node">
<title>Node4</title>
<g id="a_Node000004"><a xlink:href="group__SMARTCARD__Word__Length.html" target="_top" xlink:title=" ">
<polygon fill="white" stroke="#666666" points="397.88,-111.12 262.62,-111.12 262.62,-90.38 397.88,-90.38 397.88,-111.12"/>
<text text-anchor="middle" x="330.25" y="-97.62" font-family="Helvetica,sans-Serif" font-size="10.00">SMARTCARD Word Length</text>
</a>
</g>
</g>
<!-- Node1&#45;&gt;Node4 -->
<g id="edge3" class="edge">
<title>Node1&#45;&gt;Node4</title>
<path fill="none" stroke="black" d="M178.3,-241.08C191.96,-207.39 219.58,-151.13 261.5,-119.75 265.9,-116.46 270.85,-113.73 276.01,-111.48"/>
<polygon fill="black" stroke="black" points="175.13,-239.57 174.76,-250.16 181.66,-242.11 175.13,-239.57"/>
</g>
<!-- Node14 -->
<g id="Node000014" class="node">
<title>Node14</title>
<g id="a_Node000014"><a xlink:href="group__SmartCard__Flags.html" target="_top" xlink:title=" ">
<polygon fill="white" stroke="#666666" points="380.25,-72.12 280.25,-72.12 280.25,-51.38 380.25,-51.38 380.25,-72.12"/>
<text text-anchor="middle" x="330.25" y="-58.62" font-family="Helvetica,sans-Serif" font-size="10.00">SMARTCARD Flags</text>
</a>
</g>
</g>
<!-- Node1&#45;&gt;Node14 -->
<g id="edge13" class="edge">
<title>Node1&#45;&gt;Node14</title>
<path fill="none" stroke="black" d="M174.67,-240.64C185.49,-199.67 211.27,-123.85 261.5,-81.75 266.86,-77.26 273.19,-73.78 279.79,-71.08"/>
<polygon fill="black" stroke="black" points="171.31,-239.67 172.27,-250.22 178.1,-241.37 171.31,-239.67"/>
</g>
<!-- Node15 -->
<g id="Node000015" class="node">
<title>Node15</title>
<g id="a_Node000015"><a xlink:href="group__SmartCard__Interrupt__definition.html" target="_top" xlink:title=" ">
<polygon fill="white" stroke="#666666" points="390.38,-33.5 270.12,-33.5 270.12,0 390.38,0 390.38,-33.5"/>
<text text-anchor="start" x="278.12" y="-20" font-family="Helvetica,sans-Serif" font-size="10.00">SMARTCARD Interrupts</text>
<text text-anchor="middle" x="330.25" y="-7.25" font-family="Helvetica,sans-Serif" font-size="10.00"> Definition</text>
</a>
</g>
</g>
<!-- Node1&#45;&gt;Node15 -->
<g id="edge14" class="edge">
<title>Node1&#45;&gt;Node15</title>
<path fill="none" stroke="black" d="M172.51,-240.58C181.06,-193.42 204.62,-98.23 261.5,-42.75 264.93,-39.41 268.83,-36.48 272.99,-33.93"/>
<polygon fill="black" stroke="black" points="169.09,-239.81 170.86,-250.25 175.99,-240.98 169.09,-239.81"/>
</g>
</g>
</svg>

<g id="navigator" transform="translate(0 0)" fill="#404254">
  <rect fill="#f2f5e9" fill-opacity="0.5" stroke="#606060" stroke-width=".5" x="0" y="0" width="60" height="60"/>
  <use id="zoomplus" xlink:href="#zoomPlus" x="17" y="9" onmousedown="handleZoom(evt,'in')"/>
  <use id="zoomminus" xlink:href="#zoomMin" x="42" y="9" onmousedown="handleZoom(evt,'out')"/>
  <use id="reset" xlink:href="#resetDef" x="30" y="36" onmousedown="handleReset()"/>
   <use id="arrowup" xlink:href="#arrowUp" x="0" y="0" onmousedown="handlePan(0,-1)"/>
  <use id="arrowright" xlink:href="#arrowRight" x="0" y="0" onmousedown="handlePan(1,0)"/>
  <use id="arrowdown" xlink:href="#arrowDown" x="0" y="0" onmousedown="handlePan(0,1)"/>
  <use id="arrowleft" xlink:href="#arrowLeft" x="0" y="0" onmousedown="handlePan(-1,0)"/>
</g>
<svg viewBox="0 0 15 15" width="100%" height="30px" preserveAspectRatio="xMaxYMin meet">
 <g id="arrow_out" transform="scale(0.3 0.3)">
  <a xlink:href="group__SMARTCARD__Exported__Constants_org.svg" target="_base">
   <rect id="button" ry="5" rx="5" y="6" x="6" height="38" width="38"
        fill="#f2f5e9" fill-opacity="0.5" stroke="#606060" stroke-width="1.0"/>
   <path id="arrow"
     d="M 11.500037,31.436501 C 11.940474,20.09759 22.043105,11.32322 32.158766,21.979434 L 37.068811,17.246167 C 37.068811,17.246167 37.088388,32 37.088388,32 L 22.160133,31.978069 C 22.160133,31.978069 26.997745,27.140456 26.997745,27.140456 C 18.528582,18.264221 13.291696,25.230495 11.500037,31.436501 z"
     style="fill:#404040;"/>
  </a>
 </g>
</svg>

<style type='text/css'>
<![CDATA[
[data-mouse-over-selected='false'] { opacity: 0.7; }
[data-mouse-over-selected='true']  { opacity: 1.0; }
]]>
</style>
<script type="application/ecmascript"><![CDATA[
document.addEventListener('DOMContentLoaded', (event) => {
  highlightEdges();
  highlightAdjacentNodes();
});
]]></script>
</svg>
