<?xml version="1.0" encoding="UTF-8" standalone="no"?>
<!DOCTYPE svg PUBLIC "-//W3C//DTD SVG 1.1//EN"
 "http://www.w3.org/Graphics/SVG/1.1/DTD/svg11.dtd">
<!-- Generated by graphviz version 12.2.1 (20241206.2353)
 -->
<!-- Title: FMC_LL Pages: 1 -->
<svg width="383pt" height="132pt"
 viewBox="0.00 0.00 383.00 132.12" xmlns="http://www.w3.org/2000/svg" xmlns:xlink="http://www.w3.org/1999/xlink">
<g id="page0,1_graph0" class="graph" transform="scale(1 1) rotate(0) translate(4 128.12)">
<title>FMC_LL</title>
<!-- Node1 -->
<g id="Node000001" class="node">
<title>Node1</title>
<g id="a_Node000001"><a xlink:title=" ">
<polygon fill="#999999" stroke="#666666" points="211.25,-65.75 158.5,-65.75 158.5,-45 211.25,-45 211.25,-65.75"/>
<text text-anchor="middle" x="184.88" y="-52.25" font-family="Helvetica,sans-Serif" font-size="10.00">FMC_LL</text>
</a>
</g>
</g>
<!-- Node5 -->
<g id="Node000005" class="node">
<title>Node5</title>
<g id="a_Node000005"><a xlink:href="group__FMC__LL__Exported__Constants.html" target="_top" xlink:title=" ">
<polygon fill="white" stroke="#666666" points="375,-124.12 247.25,-124.12 247.25,-90.62 375,-90.62 375,-124.12"/>
<text text-anchor="start" x="255.25" y="-110.62" font-family="Helvetica,sans-Serif" font-size="10.00">FMC Low Layer Exported</text>
<text text-anchor="middle" x="311.12" y="-97.88" font-family="Helvetica,sans-Serif" font-size="10.00"> Constants</text>
</a>
</g>
</g>
<!-- Node1&#45;&gt;Node5 -->
<g id="edge4" class="edge">
<title>Node1&#45;&gt;Node5</title>
<path fill="none" stroke="black" d="M221.82,-70.66C230.16,-74.19 239.01,-77.93 247.25,-81.38 254.11,-84.25 261.41,-87.28 268.5,-90.22"/>
<polygon fill="black" stroke="black" points="223.2,-67.45 212.63,-66.77 220.47,-73.89 223.2,-67.45"/>
</g>
<!-- Node3 -->
<g id="Node000003" class="node">
<title>Node3</title>
<g id="a_Node000003"><a xlink:href="group__FMC__LL__Exported__typedef.html" target="_top" xlink:title=" ">
<polygon fill="white" stroke="#666666" points="375,-72.12 247.25,-72.12 247.25,-38.62 375,-38.62 375,-72.12"/>
<text text-anchor="start" x="255.25" y="-58.62" font-family="Helvetica,sans-Serif" font-size="10.00">FMC Low Layer Exported</text>
<text text-anchor="middle" x="311.12" y="-45.88" font-family="Helvetica,sans-Serif" font-size="10.00"> Types</text>
</a>
</g>
</g>
<!-- Node1&#45;&gt;Node3 -->
<g id="edge2" class="edge">
<title>Node1&#45;&gt;Node3</title>
<path fill="none" stroke="black" d="M222.98,-55.38C230.58,-55.38 238.77,-55.38 246.99,-55.38"/>
<polygon fill="black" stroke="black" points="223.13,-51.88 213.13,-55.38 223.13,-58.88 223.13,-51.88"/>
</g>
<!-- Node4 -->
<g id="Node000004" class="node">
<title>Node4</title>
<g id="a_Node000004"><a xlink:href="group__FMC__LL__Private__Macros.html" target="_top" xlink:title=" ">
<polygon fill="white" stroke="#666666" points="372.38,-20.75 249.88,-20.75 249.88,0 372.38,0 372.38,-20.75"/>
<text text-anchor="middle" x="311.12" y="-7.25" font-family="Helvetica,sans-Serif" font-size="10.00">FMC_LL &#160;Private Macros</text>
</a>
</g>
</g>
<!-- Node1&#45;&gt;Node4 -->
<g id="edge3" class="edge">
<title>Node1&#45;&gt;Node4</title>
<path fill="none" stroke="black" d="M220.39,-39.99C229.09,-36.32 238.45,-32.56 247.25,-29.38 255.19,-26.5 263.79,-23.71 272.01,-21.18"/>
<polygon fill="black" stroke="black" points="219.03,-36.76 211.22,-43.92 221.79,-43.2 219.03,-36.76"/>
</g>
<!-- Node2 -->
<g id="Node000002" class="node">
<title>Node2</title>
<g id="a_Node000002"><a xlink:href="group__STM32F4xx__HAL__Driver.html" target="_top" xlink:title=" ">
<polygon fill="white" stroke="#666666" points="122.5,-65.75 0,-65.75 0,-45 122.5,-45 122.5,-65.75"/>
<text text-anchor="middle" x="61.25" y="-52.25" font-family="Helvetica,sans-Serif" font-size="10.00">STM32F4xx_HAL_Driver</text>
</a>
</g>
</g>
<!-- Node2&#45;&gt;Node1 -->
<g id="edge1" class="edge">
<title>Node2&#45;&gt;Node1</title>
<path fill="none" stroke="black" d="M134.1,-55.38C142.67,-55.38 150.95,-55.38 158.2,-55.38"/>
<polygon fill="black" stroke="black" points="134.22,-51.88 124.22,-55.38 134.22,-58.88 134.22,-51.88"/>
</g>
</g>
</svg>
