<?xml version="1.0" encoding="UTF-8" standalone="no"?>
<!DOCTYPE svg PUBLIC "-//W3C//DTD SVG 1.1//EN"
 "http://www.w3.org/Graphics/SVG/1.1/DTD/svg11.dtd">
<!-- Generated by graphviz version 12.2.1 (20241206.2353)
 -->
<!-- Title: UTILS Pages: 1 -->
<svg width="371pt" height="224pt"
 viewBox="0.00 0.00 371.00 223.75" xmlns="http://www.w3.org/2000/svg" xmlns:xlink="http://www.w3.org/1999/xlink">

<svg id="main" version="1.1" xmlns="http://www.w3.org/2000/svg" xmlns:xlink="http://www.w3.org/1999/xlink" xml:space="preserve">

<style type="text/css"><![CDATA[
.node, .edge {opacity: 0.7;}
.node.selected, .edge.selected {opacity: 1;}
.edge:hover path { stroke: red; }
.edge:hover polygon { stroke: red; fill: red; }
]]></style>
<script type="application/ecmascript" xlink:href="svg.min.js"/>
<svg id="graph" class="graph">
<g id="graph0" class="graph" transform="scale(1 1) rotate(0) translate(4 219.75)">
<title>UTILS</title>
<!-- Node2 -->
<g id="Node000002" class="node">
<title>Node2</title>
<g id="a_Node000002"><a xlink:href="group__STM32F4xx__LL__Driver.html" target="_top" xlink:title=" ">
<polygon fill="white" stroke="#666666" points="114.25,-117.75 0,-117.75 0,-97 114.25,-97 114.25,-117.75"/>
<text text-anchor="middle" x="57.12" y="-104.25" font-family="Helvetica,sans-Serif" font-size="10.00">STM32F4xx_LL_Driver</text>
</a>
</g>
</g>
<!-- Node1 -->
<g id="Node000001" class="node">
<title>Node1</title>
<g id="a_Node000001"><a xlink:title=" ">
<polygon fill="#999999" stroke="#666666" points="192.5,-117.75 150.25,-117.75 150.25,-97 192.5,-97 192.5,-117.75"/>
<text text-anchor="middle" x="171.38" y="-104.25" font-family="Helvetica,sans-Serif" font-size="10.00">UTILS</text>
</a>
</g>
</g>
<!-- Node2&#45;&gt;Node1 -->
<g id="edge1" class="edge">
<title>Node2&#45;&gt;Node1</title>
<path fill="none" stroke="black" d="M126.08,-107.38C134.71,-107.38 142.95,-107.38 149.93,-107.38"/>
<polygon fill="black" stroke="black" points="126.09,-103.88 116.09,-107.38 126.09,-110.88 126.09,-103.88"/>
</g>
<!-- Node5 -->
<g id="Node000005" class="node">
<title>Node5</title>
<g id="a_Node000005"><a xlink:href="group__UTILS__LL__ES__INIT.html" target="_top" xlink:title=" ">
<polygon fill="white" stroke="#666666" points="361.88,-215.75 229.62,-215.75 229.62,-195 361.88,-195 361.88,-215.75"/>
<text text-anchor="middle" x="295.75" y="-202.25" font-family="Helvetica,sans-Serif" font-size="10.00">UTILS Exported structures</text>
</a>
</g>
</g>
<!-- Node1&#45;&gt;Node5 -->
<g id="edge4" class="edge">
<title>Node1&#45;&gt;Node5</title>
<path fill="none" stroke="black" d="M182.48,-128.36C192.02,-146.02 207.91,-170.67 228.5,-185.38 233.68,-189.08 239.56,-192.1 245.62,-194.57"/>
<polygon fill="black" stroke="black" points="185.63,-126.83 177.96,-119.53 179.41,-130.02 185.63,-126.83"/>
</g>
<!-- Node6 -->
<g id="Node000006" class="node">
<title>Node6</title>
<g id="a_Node000006"><a xlink:href="group__UTILS__LL__Exported__Constants.html" target="_top" xlink:title=" ">
<polygon fill="white" stroke="#666666" points="363,-176.75 228.5,-176.75 228.5,-156 363,-156 363,-176.75"/>
<text text-anchor="middle" x="295.75" y="-163.25" font-family="Helvetica,sans-Serif" font-size="10.00">UTILS Exported Constants</text>
</a>
</g>
</g>
<!-- Node1&#45;&gt;Node6 -->
<g id="edge5" class="edge">
<title>Node1&#45;&gt;Node6</title>
<path fill="none" stroke="black" d="M193.87,-124.69C203.93,-132.16 216.36,-140.51 228.5,-146.38 235.86,-149.93 243.98,-153.01 251.94,-155.61"/>
<polygon fill="black" stroke="black" points="196.3,-122.14 186.23,-118.83 192.04,-127.7 196.3,-122.14"/>
</g>
<!-- Node7 -->
<g id="Node000007" class="node">
<title>Node7</title>
<g id="a_Node000007"><a xlink:href="group__UTILS__LL__Exported__Functions.html" target="_top" xlink:title=" ">
<polygon fill="white" stroke="#666666" points="361.88,-137.75 229.62,-137.75 229.62,-117 361.88,-117 361.88,-137.75"/>
<text text-anchor="middle" x="295.75" y="-124.25" font-family="Helvetica,sans-Serif" font-size="10.00">UTILS Exported Functions</text>
</a>
</g>
</g>
<!-- Node1&#45;&gt;Node7 -->
<g id="edge6" class="edge">
<title>Node1&#45;&gt;Node7</title>
<path fill="none" stroke="black" d="M203.99,-112.54C211.81,-113.82 220.48,-115.24 229.28,-116.67"/>
<polygon fill="black" stroke="black" points="204.79,-109.13 194.35,-110.97 203.66,-116.03 204.79,-109.13"/>
</g>
<!-- Node3 -->
<g id="Node000003" class="node">
<title>Node3</title>
<g id="a_Node000003"><a xlink:href="group__UTILS__LL__Private__Constants.html" target="_top" xlink:title=" ">
<polygon fill="white" stroke="#666666" points="357.75,-98.75 233.75,-98.75 233.75,-78 357.75,-78 357.75,-98.75"/>
<text text-anchor="middle" x="295.75" y="-85.25" font-family="Helvetica,sans-Serif" font-size="10.00">UTILS Private Constants</text>
</a>
</g>
</g>
<!-- Node1&#45;&gt;Node3 -->
<g id="edge2" class="edge">
<title>Node1&#45;&gt;Node3</title>
<path fill="none" stroke="black" d="M203.96,-102.47C212.97,-101.07 223.1,-99.5 233.25,-97.92"/>
<polygon fill="black" stroke="black" points="203.7,-98.97 194.35,-103.96 204.77,-105.89 203.7,-98.97"/>
</g>
<!-- Node8 -->
<g id="Node000008" class="node">
<title>Node8</title>
<g id="a_Node000008"><a xlink:href="group__UTILS__LL__Private__Functions.html" target="_top" xlink:title=" ">
<polygon fill="white" stroke="#666666" points="355.5,-59.75 236,-59.75 236,-39 355.5,-39 355.5,-59.75"/>
<text text-anchor="middle" x="295.75" y="-46.25" font-family="Helvetica,sans-Serif" font-size="10.00">UTILS Private functions</text>
</a>
</g>
</g>
<!-- Node1&#45;&gt;Node8 -->
<g id="edge7" class="edge">
<title>Node1&#45;&gt;Node8</title>
<path fill="none" stroke="black" d="M194.64,-90.01C204.59,-82.88 216.71,-74.99 228.5,-69.38 235.88,-65.86 244.01,-62.81 251.98,-60.21"/>
<polygon fill="black" stroke="black" points="192.68,-87.12 186.73,-95.89 196.85,-92.74 192.68,-87.12"/>
</g>
<!-- Node4 -->
<g id="Node000004" class="node">
<title>Node4</title>
<g id="a_Node000004"><a xlink:href="group__UTILS__LL__Private__Macros.html" target="_top" xlink:title=" ">
<polygon fill="white" stroke="#666666" points="350.62,-20.75 240.88,-20.75 240.88,0 350.62,0 350.62,-20.75"/>
<text text-anchor="middle" x="295.75" y="-7.25" font-family="Helvetica,sans-Serif" font-size="10.00">UTILS Private Macros</text>
</a>
</g>
</g>
<!-- Node1&#45;&gt;Node4 -->
<g id="edge3" class="edge">
<title>Node1&#45;&gt;Node4</title>
<path fill="none" stroke="black" d="M182.41,-86.91C191.97,-69.46 207.94,-44.96 228.5,-30.38 233.69,-26.69 239.58,-23.67 245.64,-21.21"/>
<polygon fill="black" stroke="black" points="179.52,-84.88 178.01,-95.37 185.73,-88.12 179.52,-84.88"/>
</g>
</g>
</svg>
</svg>

<style type='text/css'>
<![CDATA[
[data-mouse-over-selected='false'] { opacity: 0.7; }
[data-mouse-over-selected='true']  { opacity: 1.0; }
]]>
</style>
<script type="application/ecmascript"><![CDATA[
document.addEventListener('DOMContentLoaded', (event) => {
  highlightEdges();
  highlightAdjacentNodes();
});
]]></script>
</svg>
