<?xml version="1.0" encoding="UTF-8" standalone="no"?>
<!DOCTYPE svg PUBLIC "-//W3C//DTD SVG 1.1//EN"
 "http://www.w3.org/Graphics/SVG/1.1/DTD/svg11.dtd">
<!-- Generated by graphviz version 2.43.0 (0)
 -->
<!-- Title: ADC_Exported_Functions Pages: 1 -->
<svg width="394pt" height="182pt"
 viewBox="0.00 0.00 394.00 182.00" xmlns="http://www.w3.org/2000/svg" xmlns:xlink="http://www.w3.org/1999/xlink">

<svg id="main" version="1.1" xmlns="http://www.w3.org/2000/svg" xmlns:xlink="http://www.w3.org/1999/xlink" xml:space="preserve" onload="init(evt)">
<style type="text/css"><![CDATA[
.node, .edge {opacity: 0.7;}
.node.selected, .edge.selected {opacity: 1;}
.edge:hover path { stroke: red; }
.edge:hover polygon { stroke: red; fill: red; }
]]></style>
<script type="application/ecmascript" xlink:href="svg.min.js"/>
<svg id="graph" class="graph">
<g id="graph0" class="graph" transform="scale(1 1) rotate(0) translate(4 178)">
<title>ADC_Exported_Functions</title>
<!-- Node2 -->
<g id="Node000002" class="node">
<title>Node2</title>
<g id="a_Node000002"><a xlink:href="group__ADC.html" target="_top" xlink:title="ADC driver modules.">
<polygon fill="white" stroke="#666666" points="38,-96.5 0,-96.5 0,-77.5 38,-77.5 38,-96.5"/>
<text text-anchor="middle" x="19" y="-84.5" font-family="Helvetica,sans-Serif" font-size="10.00">ADC</text>
</a>
</g>
</g>
<!-- Node1 -->
<g id="Node000001" class="node">
<title>Node1</title>
<g id="a_Node000001"><a xlink:title=" ">
<polygon fill="#999999" stroke="#666666" points="212,-96.5 74,-96.5 74,-77.5 212,-77.5 212,-96.5"/>
<text text-anchor="middle" x="143" y="-84.5" font-family="Helvetica,sans-Serif" font-size="10.00">ADC_Exported_Functions</text>
</a>
</g>
</g>
<!-- Node2&#45;&gt;Node1 -->
<g id="edge1" class="edge">
<title>Node2&#45;&gt;Node1</title>
<path fill="none" stroke="black" d="M48,-87C55.87,-87 64.79,-87 73.92,-87"/>
<polygon fill="black" stroke="black" points="48,-83.5 38,-87 48,-90.5 48,-83.5"/>
</g>
<!-- Node3 -->
<g id="Node000003" class="node">
<title>Node3</title>
<g id="a_Node000003"><a xlink:href="group__ADC__Exported__Functions__Group1.html" target="_top" xlink:title=" ">
<polygon fill="white" stroke="#666666" points="386,-174 248,-174 248,-144 386,-144 386,-174"/>
<text text-anchor="start" x="256" y="-162" font-family="Helvetica,sans-Serif" font-size="10.00">ADC_Exported_Functions</text>
<text text-anchor="middle" x="317" y="-151" font-family="Helvetica,sans-Serif" font-size="10.00">_Group1</text>
</a>
</g>
</g>
<!-- Node1&#45;&gt;Node3 -->
<g id="edge2" class="edge">
<title>Node1&#45;&gt;Node3</title>
<path fill="none" stroke="black" d="M172.5,-101.03C193.23,-111.01 222.07,-124.47 248,-135 255.54,-138.06 263.63,-141.12 271.52,-143.97"/>
<polygon fill="black" stroke="black" points="173.84,-97.79 163.31,-96.57 170.78,-104.08 173.84,-97.79"/>
</g>
<!-- Node4 -->
<g id="Node000004" class="node">
<title>Node4</title>
<g id="a_Node000004"><a xlink:href="group__ADC__Exported__Functions__Group2.html" target="_top" xlink:title=" ">
<polygon fill="white" stroke="#666666" points="386,-126 248,-126 248,-96 386,-96 386,-126"/>
<text text-anchor="start" x="256" y="-114" font-family="Helvetica,sans-Serif" font-size="10.00">ADC_Exported_Functions</text>
<text text-anchor="middle" x="317" y="-103" font-family="Helvetica,sans-Serif" font-size="10.00">_Group2</text>
</a>
</g>
</g>
<!-- Node1&#45;&gt;Node4 -->
<g id="edge3" class="edge">
<title>Node1&#45;&gt;Node4</title>
<path fill="none" stroke="black" d="M222.64,-97.97C231.03,-99.14 239.51,-100.33 247.76,-101.48"/>
<polygon fill="black" stroke="black" points="222.86,-94.47 212.47,-96.55 221.89,-101.4 222.86,-94.47"/>
</g>
<!-- Node5 -->
<g id="Node000005" class="node">
<title>Node5</title>
<g id="a_Node000005"><a xlink:href="group__ADC__Exported__Functions__Group3.html" target="_top" xlink:title=" ">
<polygon fill="white" stroke="#666666" points="386,-78 248,-78 248,-48 386,-48 386,-78"/>
<text text-anchor="start" x="256" y="-66" font-family="Helvetica,sans-Serif" font-size="10.00">ADC_Exported_Functions</text>
<text text-anchor="middle" x="317" y="-55" font-family="Helvetica,sans-Serif" font-size="10.00">_Group3</text>
</a>
</g>
</g>
<!-- Node1&#45;&gt;Node5 -->
<g id="edge4" class="edge">
<title>Node1&#45;&gt;Node5</title>
<path fill="none" stroke="black" d="M222.64,-76.03C231.03,-74.86 239.51,-73.67 247.76,-72.52"/>
<polygon fill="black" stroke="black" points="221.89,-72.6 212.47,-77.45 222.86,-79.53 221.89,-72.6"/>
</g>
<!-- Node6 -->
<g id="Node000006" class="node">
<title>Node6</title>
<g id="a_Node000006"><a xlink:href="group__ADC__Exported__Functions__Group4.html" target="_top" xlink:title=" ">
<polygon fill="white" stroke="#666666" points="386,-30 248,-30 248,0 386,0 386,-30"/>
<text text-anchor="start" x="256" y="-18" font-family="Helvetica,sans-Serif" font-size="10.00">ADC_Exported_Functions</text>
<text text-anchor="middle" x="317" y="-7" font-family="Helvetica,sans-Serif" font-size="10.00">_Group4</text>
</a>
</g>
</g>
<!-- Node1&#45;&gt;Node6 -->
<g id="edge5" class="edge">
<title>Node1&#45;&gt;Node6</title>
<path fill="none" stroke="black" d="M172.5,-72.97C193.23,-62.99 222.07,-49.53 248,-39 255.54,-35.94 263.63,-32.88 271.52,-30.03"/>
<polygon fill="black" stroke="black" points="170.78,-69.92 163.31,-77.43 173.84,-76.21 170.78,-69.92"/>
</g>
</g>
</svg>
</svg>

<style type='text/css'>
<![CDATA[
[data-mouse-over-selected='false'] { opacity: 0.7; }
[data-mouse-over-selected='true']  { opacity: 1.0; }
]]>
</style>
<script type="application/ecmascript"><![CDATA[
document.addEventListener('DOMContentLoaded', (event) => {
  highlightEdges();
  highlightAdjacentNodes();
});
]]></script>
</svg>
