<?xml version="1.0" encoding="UTF-8" standalone="no"?>
<!DOCTYPE svg PUBLIC "-//W3C//DTD SVG 1.1//EN"
 "http://www.w3.org/Graphics/SVG/1.1/DTD/svg11.dtd">
<!-- Generated by graphviz version 12.2.1 (20241206.2353)
 -->
<!-- Title: IRDA Pages: 1 -->
<svg width="374pt" height="263pt"
 viewBox="0.00 0.00 374.00 262.75" xmlns="http://www.w3.org/2000/svg" xmlns:xlink="http://www.w3.org/1999/xlink">

<svg id="main" version="1.1" xmlns="http://www.w3.org/2000/svg" xmlns:xlink="http://www.w3.org/1999/xlink" xml:space="preserve">

<style type="text/css"><![CDATA[
.node, .edge {opacity: 0.7;}
.node.selected, .edge.selected {opacity: 1;}
.edge:hover path { stroke: red; }
.edge:hover polygon { stroke: red; fill: red; }
]]></style>
<script type="application/ecmascript" xlink:href="svg.min.js"/>
<svg id="graph" class="graph">
<g id="graph0" class="graph" transform="scale(1 1) rotate(0) translate(4 258.75)">
<title>IRDA</title>
<!-- Node1 -->
<g id="Node000001" class="node">
<title>Node1</title>
<g id="a_Node000001"><a xlink:title="HAL IRDA module driver.">
<polygon fill="#999999" stroke="#666666" points="196.25,-137.75 158.5,-137.75 158.5,-117 196.25,-117 196.25,-137.75"/>
<text text-anchor="middle" x="177.38" y="-124.25" font-family="Helvetica,sans-Serif" font-size="10.00">IRDA</text>
</a>
</g>
</g>
<!-- Node4 -->
<g id="Node000004" class="node">
<title>Node4</title>
<g id="a_Node000004"><a xlink:href="group__IRDA__Exported__Constants.html" target="_top" xlink:title=" ">
<polygon fill="white" stroke="#666666" points="363,-254.75 235.25,-254.75 235.25,-234 363,-234 363,-254.75"/>
<text text-anchor="middle" x="299.12" y="-241.25" font-family="Helvetica,sans-Serif" font-size="10.00">IRDA Exported constants</text>
</a>
</g>
</g>
<!-- Node1&#45;&gt;Node4 -->
<g id="edge3" class="edge">
<title>Node1&#45;&gt;Node4</title>
<path fill="none" stroke="black" d="M185.01,-149.08C192.85,-171.13 207.97,-204.77 232.25,-224.38 236.81,-228.05 242.03,-231.06 247.5,-233.51"/>
<polygon fill="black" stroke="black" points="188.34,-148 181.87,-139.61 181.7,-150.2 188.34,-148"/>
</g>
<!-- Node9 -->
<g id="Node000009" class="node">
<title>Node9</title>
<g id="a_Node000009"><a xlink:href="group__IRDA__Exported__Functions.html" target="_top" xlink:title=" ">
<polygon fill="white" stroke="#666666" points="366,-215.75 232.25,-215.75 232.25,-195 366,-195 366,-215.75"/>
<text text-anchor="middle" x="299.12" y="-202.25" font-family="Helvetica,sans-Serif" font-size="10.00">IRDA_Exported_Functions</text>
</a>
</g>
</g>
<!-- Node1&#45;&gt;Node9 -->
<g id="edge8" class="edge">
<title>Node1&#45;&gt;Node9</title>
<path fill="none" stroke="black" d="M192.11,-146.84C201.96,-159.47 216.28,-175.39 232.25,-185.38 238.13,-189.05 244.73,-192.08 251.41,-194.58"/>
<polygon fill="black" stroke="black" points="195.18,-145.1 186.4,-139.18 189.57,-149.29 195.18,-145.1"/>
</g>
<!-- Node5 -->
<g id="Node000005" class="node">
<title>Node5</title>
<g id="a_Node000005"><a xlink:href="group__IRDA__Exported__Macros.html" target="_top" xlink:title=" ">
<polygon fill="white" stroke="#666666" points="357,-176.75 241.25,-176.75 241.25,-156 357,-156 357,-176.75"/>
<text text-anchor="middle" x="299.12" y="-163.25" font-family="Helvetica,sans-Serif" font-size="10.00">IRDA Exported Macros</text>
</a>
</g>
</g>
<!-- Node1&#45;&gt;Node5 -->
<g id="edge4" class="edge">
<title>Node1&#45;&gt;Node5</title>
<path fill="none" stroke="black" d="M207.09,-137.77C215.2,-140.63 224.05,-143.69 232.25,-146.38 241.68,-149.47 251.91,-152.66 261.45,-155.55"/>
<polygon fill="black" stroke="black" points="208.29,-134.48 197.69,-134.42 205.94,-141.07 208.29,-134.48"/>
</g>
<!-- Node3 -->
<g id="Node000003" class="node">
<title>Node3</title>
<g id="a_Node000003"><a xlink:href="group__IRDA__Exported__Types.html" target="_top" xlink:title=" ">
<polygon fill="white" stroke="#666666" points="354,-137.75 244.25,-137.75 244.25,-117 354,-117 354,-137.75"/>
<text text-anchor="middle" x="299.12" y="-124.25" font-family="Helvetica,sans-Serif" font-size="10.00">IRDA Exported Types</text>
</a>
</g>
</g>
<!-- Node1&#45;&gt;Node3 -->
<g id="edge2" class="edge">
<title>Node1&#45;&gt;Node3</title>
<path fill="none" stroke="black" d="M207.97,-127.38C218.86,-127.38 231.57,-127.38 243.95,-127.38"/>
<polygon fill="black" stroke="black" points="208.08,-123.88 198.08,-127.38 208.08,-130.88 208.08,-123.88"/>
</g>
<!-- Node6 -->
<g id="Node000006" class="node">
<title>Node6</title>
<g id="a_Node000006"><a xlink:href="group__IRDA__Private__Constants.html" target="_top" xlink:title=" ">
<polygon fill="white" stroke="#666666" points="358.88,-98.75 239.38,-98.75 239.38,-78 358.88,-78 358.88,-98.75"/>
<text text-anchor="middle" x="299.12" y="-85.25" font-family="Helvetica,sans-Serif" font-size="10.00">IRDA Private Constants</text>
</a>
</g>
</g>
<!-- Node1&#45;&gt;Node6 -->
<g id="edge5" class="edge">
<title>Node1&#45;&gt;Node6</title>
<path fill="none" stroke="black" d="M207.09,-116.98C215.2,-114.12 224.05,-111.06 232.25,-108.38 241.68,-105.28 251.91,-102.09 261.45,-99.2"/>
<polygon fill="black" stroke="black" points="205.94,-113.68 197.69,-120.33 208.29,-120.27 205.94,-113.68"/>
</g>
<!-- Node8 -->
<g id="Node000008" class="node">
<title>Node8</title>
<g id="a_Node000008"><a xlink:href="group__IRDA__Private__Functions.html" target="_top" xlink:title=" ">
<polygon fill="white" stroke="#666666" points="357.75,-59.75 240.5,-59.75 240.5,-39 357.75,-39 357.75,-59.75"/>
<text text-anchor="middle" x="299.12" y="-46.25" font-family="Helvetica,sans-Serif" font-size="10.00">IRDA Private Functions</text>
</a>
</g>
</g>
<!-- Node1&#45;&gt;Node8 -->
<g id="edge7" class="edge">
<title>Node1&#45;&gt;Node8</title>
<path fill="none" stroke="black" d="M192.11,-107.91C201.96,-95.28 216.28,-79.36 232.25,-69.38 238.13,-65.7 244.73,-62.67 251.41,-60.17"/>
<polygon fill="black" stroke="black" points="189.57,-105.46 186.4,-115.57 195.18,-109.65 189.57,-105.46"/>
</g>
<!-- Node7 -->
<g id="Node000007" class="node">
<title>Node7</title>
<g id="a_Node000007"><a xlink:href="group__IRDA__Private__Macros.html" target="_top" xlink:title=" ">
<polygon fill="white" stroke="#666666" points="351.75,-20.75 246.5,-20.75 246.5,0 351.75,0 351.75,-20.75"/>
<text text-anchor="middle" x="299.12" y="-7.25" font-family="Helvetica,sans-Serif" font-size="10.00">IRDA Private Macros</text>
</a>
</g>
</g>
<!-- Node1&#45;&gt;Node7 -->
<g id="edge6" class="edge">
<title>Node1&#45;&gt;Node7</title>
<path fill="none" stroke="black" d="M185.01,-105.67C192.85,-83.62 207.97,-49.98 232.25,-30.38 236.81,-26.7 242.03,-23.69 247.5,-21.24"/>
<polygon fill="black" stroke="black" points="181.7,-104.55 181.87,-115.14 188.34,-106.75 181.7,-104.55"/>
</g>
<!-- Node2 -->
<g id="Node000002" class="node">
<title>Node2</title>
<g id="a_Node000002"><a xlink:href="group__STM32F4xx__HAL__Driver.html" target="_top" xlink:title=" ">
<polygon fill="white" stroke="#666666" points="122.5,-137.75 0,-137.75 0,-117 122.5,-117 122.5,-137.75"/>
<text text-anchor="middle" x="61.25" y="-124.25" font-family="Helvetica,sans-Serif" font-size="10.00">STM32F4xx_HAL_Driver</text>
</a>
</g>
</g>
<!-- Node2&#45;&gt;Node1 -->
<g id="edge1" class="edge">
<title>Node2&#45;&gt;Node1</title>
<path fill="none" stroke="black" d="M134.42,-127.38C143.28,-127.38 151.61,-127.38 158.48,-127.38"/>
<polygon fill="black" stroke="black" points="134.5,-123.88 124.5,-127.38 134.5,-130.88 134.5,-123.88"/>
</g>
</g>
</svg>
</svg>

<style type='text/css'>
<![CDATA[
[data-mouse-over-selected='false'] { opacity: 0.7; }
[data-mouse-over-selected='true']  { opacity: 1.0; }
]]>
</style>
<script type="application/ecmascript"><![CDATA[
document.addEventListener('DOMContentLoaded', (event) => {
  highlightEdges();
  highlightAdjacentNodes();
});
]]></script>
</svg>
