<?xml version="1.0" encoding="UTF-8" standalone="no"?>
<!DOCTYPE svg PUBLIC "-//W3C//DTD SVG 1.1//EN"
 "http://www.w3.org/Graphics/SVG/1.1/DTD/svg11.dtd">
<!-- Generated by graphviz version 12.2.1 (20241206.2353)
 -->
<!-- Title: ADC Exported Constants Pages: 1 -->
<!--zoomable 624 -->

<svg id="main" version="1.1" xmlns="http://www.w3.org/2000/svg" xmlns:xlink="http://www.w3.org/1999/xlink" xml:space="preserve" onload="init(evt)">

<style type="text/css"><![CDATA[
.node, .edge {opacity: 0.7;}
.node.selected, .edge.selected {opacity: 1;}
.edge:hover path { stroke: red; }
.edge:hover polygon { stroke: red; fill: red; }
]]></style>

<defs>
  <circle id="rim" cx="0" cy="0" r="7"/>
  <circle id="rim2" cx="0" cy="0" r="3.5"/>
  <g id="zoomPlus">
    <use xlink:href="#rim" fill="#404040"><set attributeName="fill" to="#808080" begin="zoomplus.mouseover" end="zoomplus.mouseout"/></use>
    <path d="M-4,0h8M0,-4v8" fill="none" stroke="white" stroke-width="1.5" pointer-events="none"/>
  </g>
  <g id="zoomMin">
    <use xlink:href="#rim" fill="#404040"><set attributeName="fill" to="#808080" begin="zoomminus.mouseover" end="zoomminus.mouseout"/></use>
    <path d="M-4,0h8" fill="none" stroke="white" stroke-width="1.5" pointer-events="none"/>
  </g>
  <g id="arrowUp" transform="translate(30 24)">
    <use xlink:href="#rim"/>
    <path pointer-events="none" fill="none" stroke="white" stroke-width="1.5" d="M0,-3.0v7 M-2.5,-0.5L0,-3.0L2.5,-0.5"/>
  </g>
  <g id="arrowRight" transform="rotate(90) translate(36 -43)">
    <use xlink:href="#rim"/>
    <path pointer-events="none" fill="none" stroke="white" stroke-width="1.5" d="M0,-3.0v7 M-2.5,-0.5L0,-3.0L2.5,-0.5"/>
  </g>
  <g id="arrowDown" transform="rotate(180) translate(-30 -48)">
    <use xlink:href="#rim"/>
    <path pointer-events="none" fill="none" stroke="white" stroke-width="1.5" d="M0,-3.0v7 M-2.5,-0.5L0,-3.0L2.5,-0.5"/>
  </g>
  <g id="arrowLeft" transform="rotate(270) translate(-36 17)">
    <use xlink:href="#rim"/>
    <path pointer-events="none" fill="none" stroke="white" stroke-width="1.5" d="M0,-3.0v7 M-2.5,-0.5L0,-3.0L2.5,-0.5"/>
  </g>
  <g id="resetDef">
    <use xlink:href="#rim2" fill="#404040"><set attributeName="fill" to="#808080" begin="reset.mouseover" end="reset.mouseout"/></use>
  </g>
</defs>
<script type="application/ecmascript">
var viewWidth = 373;
var viewHeight = 624;
var sectionId = 'dynsection-0';
</script>
<script type="application/ecmascript" xlink:href="svg.min.js"/>
<svg id="graph" class="graph">
<g id="viewport">
<title>ADC Exported Constants</title>
<!-- Node2 -->
<g id="Node000002" class="node">
<title>Node2</title>
<g id="a_Node000002"><a xlink:href="group__ADC.html" target="_top" xlink:title="ADC driver modules.">
<polygon fill="white" stroke="#666666" points="35.5,-317.75 0,-317.75 0,-297 35.5,-297 35.5,-317.75"/>
<text text-anchor="middle" x="17.75" y="-304.25" font-family="Helvetica,sans-Serif" font-size="10.00">ADC</text>
</a>
</g>
</g>
<!-- Node1 -->
<g id="Node000001" class="node">
<title>Node1</title>
<g id="a_Node000001"><a xlink:title=" ">
<polygon fill="#999999" stroke="#666666" points="199.25,-317.75 71.5,-317.75 71.5,-297 199.25,-297 199.25,-317.75"/>
<text text-anchor="middle" x="135.38" y="-304.25" font-family="Helvetica,sans-Serif" font-size="10.00">ADC Exported Constants</text>
</a>
</g>
</g>
<!-- Node2&#45;&gt;Node1 -->
<g id="edge1" class="edge">
<title>Node2&#45;&gt;Node1</title>
<path fill="none" stroke="black" d="M47.23,-307.38C54.58,-307.38 62.78,-307.38 71.13,-307.38"/>
<polygon fill="black" stroke="black" points="47.32,-303.88 37.32,-307.38 47.32,-310.88 47.32,-303.88"/>
</g>
<!-- Node4 -->
<g id="Node000004" class="node">
<title>Node4</title>
<g id="a_Node000004"><a xlink:href="group__ADC__ClockPrescaler.html" target="_top" xlink:title=" ">
<polygon fill="white" stroke="#666666" points="353.25,-615.75 246.5,-615.75 246.5,-595 353.25,-595 353.25,-615.75"/>
<text text-anchor="middle" x="299.88" y="-602.25" font-family="Helvetica,sans-Serif" font-size="10.00">ADC Clock Prescaler</text>
</a>
</g>
</g>
<!-- Node9 -->
<g id="Node000009" class="node">
<title>Node9</title>
<g id="a_Node000009"><a xlink:href="group__ADC__Data__align.html" target="_top" xlink:title=" ">
<polygon fill="white" stroke="#666666" points="342,-576.75 257.75,-576.75 257.75,-556 342,-556 342,-576.75"/>
<text text-anchor="middle" x="299.88" y="-563.25" font-family="Helvetica,sans-Serif" font-size="10.00">ADC Data Align</text>
</a>
</g>
</g>
<!-- Node12 -->
<g id="Node000012" class="node">
<title>Node12</title>
<g id="a_Node000012"><a xlink:href="group__ADC__EOCSelection.html" target="_top" xlink:title=" ">
<polygon fill="white" stroke="#666666" points="350.62,-537.75 249.12,-537.75 249.12,-517 350.62,-517 350.62,-537.75"/>
<text text-anchor="middle" x="299.88" y="-524.25" font-family="Helvetica,sans-Serif" font-size="10.00">ADC EOC Selection</text>
</a>
</g>
</g>
<!-- Node3 -->
<g id="Node000003" class="node">
<title>Node3</title>
<g id="a_Node000003"><a xlink:href="group__ADC__Error__Code.html" target="_top" xlink:title=" ">
<polygon fill="white" stroke="#666666" points="343.5,-498.75 256.25,-498.75 256.25,-478 343.5,-478 343.5,-498.75"/>
<text text-anchor="middle" x="299.88" y="-485.25" font-family="Helvetica,sans-Serif" font-size="10.00">ADC Error Code</text>
</a>
</g>
</g>
<!-- Node13 -->
<g id="Node000013" class="node">
<title>Node13</title>
<g id="a_Node000013"><a xlink:href="group__ADC__Event__type.html" target="_top" xlink:title=" ">
<polygon fill="white" stroke="#666666" points="343.5,-459.75 256.25,-459.75 256.25,-439 343.5,-439 343.5,-459.75"/>
<text text-anchor="middle" x="299.88" y="-446.25" font-family="Helvetica,sans-Serif" font-size="10.00">ADC Event Type</text>
</a>
</g>
</g>
<!-- Node1&#45;&gt;Node4 -->
<g id="edge3" class="edge">
<title>Node1&#45;&gt;Node4</title>
<path fill="none" stroke="black" d="M137.75,-329.43C142.19,-381.58 160.62,-513.47 235.25,-585.38 239.09,-589.07 243.6,-592.08 248.42,-594.54"/>
<polygon fill="black" stroke="black" points="141.26,-329.46 137.02,-319.75 134.28,-329.98 141.26,-329.46"/>
</g>
<!-- Node1&#45;&gt;Node9 -->
<g id="edge8" class="edge">
<title>Node1&#45;&gt;Node9</title>
<path fill="none" stroke="black" d="M139.17,-329.15C146.32,-375.84 169.58,-486.23 235.25,-546.38 241.48,-552.08 249.34,-556.16 257.38,-559.08"/>
<polygon fill="black" stroke="black" points="142.67,-328.91 137.8,-319.5 135.74,-329.89 142.67,-328.91"/>
</g>
<!-- Node1&#45;&gt;Node12 -->
<g id="edge11" class="edge">
<title>Node1&#45;&gt;Node12</title>
<path fill="none" stroke="black" d="M141.07,-328.9C151.09,-369.74 178.46,-458.75 235.25,-507.38 239.56,-511.07 244.55,-514.08 249.8,-516.53"/>
<polygon fill="black" stroke="black" points="144.52,-328.29 138.85,-319.34 137.7,-329.87 144.52,-328.29"/>
</g>
<!-- Node1&#45;&gt;Node3 -->
<g id="edge2" class="edge">
<title>Node1&#45;&gt;Node3</title>
<path fill="none" stroke="black" d="M143.89,-328.95C157.02,-363.47 187.35,-431.02 235.25,-468.38 241.37,-473.15 248.64,-476.79 256.05,-479.57"/>
<polygon fill="black" stroke="black" points="147.21,-327.83 140.49,-319.64 140.64,-330.24 147.21,-327.83"/>
</g>
<!-- Node1&#45;&gt;Node13 -->
<g id="edge12" class="edge">
<title>Node1&#45;&gt;Node13</title>
<path fill="none" stroke="black" d="M147.43,-327.76C163.3,-355.11 195.11,-403.38 235.25,-430.38 241.47,-434.56 248.63,-437.84 255.86,-440.41"/>
<polygon fill="black" stroke="black" points="150.67,-326.38 142.71,-319.39 144.57,-329.82 150.67,-326.38"/>
</g>
<!-- Node8 -->
<g id="Node000008" class="node">
<title>Node8</title>
<g id="a_Node000008"><a xlink:href="group__ADC__External__trigger__Source__Regular.html" target="_top" xlink:title=" ">
<polygon fill="white" stroke="#666666" points="355.12,-421.12 244.62,-421.12 244.62,-387.62 355.12,-387.62 355.12,-421.12"/>
<text text-anchor="start" x="252.62" y="-407.62" font-family="Helvetica,sans-Serif" font-size="10.00">ADC External Trigger</text>
<text text-anchor="middle" x="299.88" y="-394.88" font-family="Helvetica,sans-Serif" font-size="10.00"> Source Regular</text>
</a>
</g>
</g>
<!-- Node1&#45;&gt;Node8 -->
<g id="edge7" class="edge">
<title>Node1&#45;&gt;Node8</title>
<path fill="none" stroke="black" d="M158.05,-325.23C177.45,-340.63 207.09,-362.8 235.25,-378.38 240.89,-381.49 246.98,-384.45 253.08,-387.18"/>
<polygon fill="black" stroke="black" points="160.31,-322.55 150.33,-319.01 155.92,-328.01 160.31,-322.55"/>
</g>
<!-- Node7 -->
<g id="Node000007" class="node">
<title>Node7</title>
<g id="a_Node000007"><a xlink:href="group__ADC__External__trigger__edge__Regular.html" target="_top" xlink:title=" ">
<polygon fill="white" stroke="#666666" points="355.12,-369.12 244.62,-369.12 244.62,-335.62 355.12,-335.62 355.12,-369.12"/>
<text text-anchor="start" x="252.62" y="-355.62" font-family="Helvetica,sans-Serif" font-size="10.00">ADC External Trigger</text>
<text text-anchor="middle" x="299.88" y="-342.88" font-family="Helvetica,sans-Serif" font-size="10.00"> Edge Regular</text>
</a>
</g>
</g>
<!-- Node1&#45;&gt;Node7 -->
<g id="edge6" class="edge">
<title>Node1&#45;&gt;Node7</title>
<path fill="none" stroke="black" d="M186.36,-321.22C204.7,-326.3 225.56,-332.07 244.3,-337.26"/>
<polygon fill="black" stroke="black" points="187.33,-317.85 176.76,-318.56 185.46,-324.6 187.33,-317.85"/>
</g>
<!-- Node6 -->
<g id="Node000006" class="node">
<title>Node6</title>
<g id="a_Node000006"><a xlink:href="group__ADC__Resolution.html" target="_top" xlink:title=" ">
<polygon fill="white" stroke="#666666" points="342.75,-317.75 257,-317.75 257,-297 342.75,-297 342.75,-317.75"/>
<text text-anchor="middle" x="299.88" y="-304.25" font-family="Helvetica,sans-Serif" font-size="10.00">ADC Resolution</text>
</a>
</g>
</g>
<!-- Node1&#45;&gt;Node6 -->
<g id="edge5" class="edge">
<title>Node1&#45;&gt;Node6</title>
<path fill="none" stroke="black" d="M210.97,-307.38C226.61,-307.38 242.59,-307.38 256.55,-307.38"/>
<polygon fill="black" stroke="black" points="211.18,-303.88 201.18,-307.38 211.18,-310.88 211.18,-303.88"/>
</g>
<!-- Node14 -->
<g id="Node000014" class="node">
<title>Node14</title>
<g id="a_Node000014"><a xlink:href="group__ADC__analog__watchdog__selection.html" target="_top" xlink:title=" ">
<polygon fill="white" stroke="#666666" points="359.62,-279.12 240.12,-279.12 240.12,-245.62 359.62,-245.62 359.62,-279.12"/>
<text text-anchor="start" x="248.12" y="-265.62" font-family="Helvetica,sans-Serif" font-size="10.00">ADC Analog Watchdog</text>
<text text-anchor="middle" x="299.88" y="-252.88" font-family="Helvetica,sans-Serif" font-size="10.00"> Selection</text>
</a>
</g>
</g>
<!-- Node1&#45;&gt;Node14 -->
<g id="edge13" class="edge">
<title>Node1&#45;&gt;Node14</title>
<path fill="none" stroke="black" d="M186.06,-293.62C202.97,-288.93 222.04,-283.65 239.63,-278.78"/>
<polygon fill="black" stroke="black" points="185.46,-290.15 176.76,-296.19 187.33,-296.9 185.46,-290.15"/>
</g>
<!-- Node10 -->
<g id="Node000010" class="node">
<title>Node10</title>
<g id="a_Node000010"><a xlink:href="group__ADC__channels.html" target="_top" xlink:title=" ">
<polygon fill="white" stroke="#666666" points="362.62,-227.75 237.12,-227.75 237.12,-207 362.62,-207 362.62,-227.75"/>
<text text-anchor="middle" x="299.88" y="-214.25" font-family="Helvetica,sans-Serif" font-size="10.00">ADC Common Channels</text>
</a>
</g>
</g>
<!-- Node1&#45;&gt;Node10 -->
<g id="edge9" class="edge">
<title>Node1&#45;&gt;Node10</title>
<path fill="none" stroke="black" d="M157.05,-289.37C176.2,-273.5 206.04,-250.72 235.25,-236.38 241.67,-233.22 248.71,-230.49 255.69,-228.14"/>
<polygon fill="black" stroke="black" points="154.85,-286.65 149.47,-295.77 159.37,-291.99 154.85,-286.65"/>
</g>
<!-- Node17 -->
<g id="Node000017" class="node">
<title>Node17</title>
<g id="a_Node000017"><a xlink:href="group__ADC__channels__type.html" target="_top" xlink:title=" ">
<polygon fill="white" stroke="#666666" points="352.12,-188.75 247.62,-188.75 247.62,-168 352.12,-168 352.12,-188.75"/>
<text text-anchor="middle" x="299.88" y="-175.25" font-family="Helvetica,sans-Serif" font-size="10.00">ADC Channels Type</text>
</a>
</g>
</g>
<!-- Node1&#45;&gt;Node17 -->
<g id="edge16" class="edge">
<title>Node1&#45;&gt;Node17</title>
<path fill="none" stroke="black" d="M149.52,-287.31C166.51,-262.89 198.34,-221.99 235.25,-198.38 241,-194.69 247.49,-191.64 254.05,-189.14"/>
<polygon fill="black" stroke="black" points="146.74,-285.17 144.02,-295.41 152.53,-289.1 146.74,-285.17"/>
</g>
<!-- Node5 -->
<g id="Node000005" class="node">
<title>Node5</title>
<g id="a_Node000005"><a xlink:href="group__ADC__delay__between__2__sampling__phases.html" target="_top" xlink:title=" ">
<polygon fill="white" stroke="#666666" points="355.5,-150.12 244.25,-150.12 244.25,-116.62 355.5,-116.62 355.5,-150.12"/>
<text text-anchor="start" x="252.25" y="-136.62" font-family="Helvetica,sans-Serif" font-size="10.00">ADC Delay Between 2</text>
<text text-anchor="middle" x="299.88" y="-123.88" font-family="Helvetica,sans-Serif" font-size="10.00"> Sampling Phases</text>
</a>
</g>
</g>
<!-- Node1&#45;&gt;Node5 -->
<g id="edge4" class="edge">
<title>Node1&#45;&gt;Node5</title>
<path fill="none" stroke="black" d="M145.33,-286.64C159.89,-255.13 191.55,-195.06 235.25,-159.38 239.32,-156.05 243.86,-153.11 248.61,-150.5"/>
<polygon fill="black" stroke="black" points="142.26,-284.93 141.36,-295.48 148.65,-287.79 142.26,-284.93"/>
</g>
<!-- Node16 -->
<g id="Node000016" class="node">
<title>Node16</title>
<g id="a_Node000016"><a xlink:href="group__ADC__flags__definition.html" target="_top" xlink:title=" ">
<polygon fill="white" stroke="#666666" points="354.38,-98.75 245.38,-98.75 245.38,-78 354.38,-78 354.38,-98.75"/>
<text text-anchor="middle" x="299.88" y="-85.25" font-family="Helvetica,sans-Serif" font-size="10.00">ADC Flags Definition</text>
</a>
</g>
</g>
<!-- Node1&#45;&gt;Node16 -->
<g id="edge15" class="edge">
<title>Node1&#45;&gt;Node16</title>
<path fill="none" stroke="black" d="M141.01,-285.78C150.92,-244.81 178.11,-155.59 235.25,-107.38 239.13,-104.1 243.55,-101.4 248.22,-99.15"/>
<polygon fill="black" stroke="black" points="137.63,-284.84 138.81,-295.37 144.45,-286.41 137.63,-284.84"/>
</g>
<!-- Node15 -->
<g id="Node000015" class="node">
<title>Node15</title>
<g id="a_Node000015"><a xlink:href="group__ADC__interrupts__definition.html" target="_top" xlink:title=" ">
<polygon fill="white" stroke="#666666" points="364.5,-59.75 235.25,-59.75 235.25,-39 364.5,-39 364.5,-59.75"/>
<text text-anchor="middle" x="299.88" y="-46.25" font-family="Helvetica,sans-Serif" font-size="10.00">ADC Interrupts Definition</text>
</a>
</g>
</g>
<!-- Node1&#45;&gt;Node15 -->
<g id="edge14" class="edge">
<title>Node1&#45;&gt;Node15</title>
<path fill="none" stroke="black" d="M139.25,-285.37C146.51,-238.68 169.92,-129.12 235.25,-69.38 239.35,-65.62 244.15,-62.58 249.24,-60.1"/>
<polygon fill="black" stroke="black" points="135.82,-284.64 137.86,-295.04 142.75,-285.64 135.82,-284.64"/>
</g>
<!-- Node11 -->
<g id="Node000011" class="node">
<title>Node11</title>
<g id="a_Node000011"><a xlink:href="group__ADC__sampling__times.html" target="_top" xlink:title=" ">
<polygon fill="white" stroke="#666666" points="354.75,-20.75 245,-20.75 245,0 354.75,0 354.75,-20.75"/>
<text text-anchor="middle" x="299.88" y="-7.25" font-family="Helvetica,sans-Serif" font-size="10.00">ADC Sampling Times</text>
</a>
</g>
</g>
<!-- Node1&#45;&gt;Node11 -->
<g id="edge10" class="edge">
<title>Node1&#45;&gt;Node11</title>
<path fill="none" stroke="black" d="M137.78,-285.39C142.28,-233.43 160.82,-102.01 235.25,-30.38 239.09,-26.68 243.6,-23.67 248.42,-21.21"/>
<polygon fill="black" stroke="black" points="134.31,-284.8 137.04,-295.04 141.29,-285.33 134.31,-284.8"/>
</g>
</g>
</svg>

<g id="navigator" transform="translate(0 0)" fill="#404254">
  <rect fill="#f2f5e9" fill-opacity="0.5" stroke="#606060" stroke-width=".5" x="0" y="0" width="60" height="60"/>
  <use id="zoomplus" xlink:href="#zoomPlus" x="17" y="9" onmousedown="handleZoom(evt,'in')"/>
  <use id="zoomminus" xlink:href="#zoomMin" x="42" y="9" onmousedown="handleZoom(evt,'out')"/>
  <use id="reset" xlink:href="#resetDef" x="30" y="36" onmousedown="handleReset()"/>
   <use id="arrowup" xlink:href="#arrowUp" x="0" y="0" onmousedown="handlePan(0,-1)"/>
  <use id="arrowright" xlink:href="#arrowRight" x="0" y="0" onmousedown="handlePan(1,0)"/>
  <use id="arrowdown" xlink:href="#arrowDown" x="0" y="0" onmousedown="handlePan(0,1)"/>
  <use id="arrowleft" xlink:href="#arrowLeft" x="0" y="0" onmousedown="handlePan(-1,0)"/>
</g>
<svg viewBox="0 0 15 15" width="100%" height="30px" preserveAspectRatio="xMaxYMin meet">
 <g id="arrow_out" transform="scale(0.3 0.3)">
  <a xlink:href="group__ADC__Exported__Constants_org.svg" target="_base">
   <rect id="button" ry="5" rx="5" y="6" x="6" height="38" width="38"
        fill="#f2f5e9" fill-opacity="0.5" stroke="#606060" stroke-width="1.0"/>
   <path id="arrow"
     d="M 11.500037,31.436501 C 11.940474,20.09759 22.043105,11.32322 32.158766,21.979434 L 37.068811,17.246167 C 37.068811,17.246167 37.088388,32 37.088388,32 L 22.160133,31.978069 C 22.160133,31.978069 26.997745,27.140456 26.997745,27.140456 C 18.528582,18.264221 13.291696,25.230495 11.500037,31.436501 z"
     style="fill:#404040;"/>
  </a>
 </g>
</svg>

<style type='text/css'>
<![CDATA[
[data-mouse-over-selected='false'] { opacity: 0.7; }
[data-mouse-over-selected='true']  { opacity: 1.0; }
]]>
</style>
<script type="application/ecmascript"><![CDATA[
document.addEventListener('DOMContentLoaded', (event) => {
  highlightEdges();
  highlightAdjacentNodes();
});
]]></script>
</svg>
