<?xml version="1.0" encoding="UTF-8" standalone="no"?>
<!DOCTYPE svg PUBLIC "-//W3C//DTD SVG 1.1//EN"
 "http://www.w3.org/Graphics/SVG/1.1/DTD/svg11.dtd">
<!-- Generated by graphviz version 12.2.1 (20241206.2353)
 -->
<!-- Title: FSMC_LL &#160;Private Macros Pages: 1 -->
<svg width="294pt" height="68pt"
 viewBox="0.00 0.00 294.25 67.75" xmlns="http://www.w3.org/2000/svg" xmlns:xlink="http://www.w3.org/1999/xlink">
<g id="page0,1_graph0" class="graph" transform="scale(1 1) rotate(0) translate(4 63.75)">
<title>FSMC_LL &#160;Private Macros</title>
<!-- Node3 -->
<g id="Node000003" class="node">
<title>Node3</title>
<g id="a_Node000003"><a xlink:href="group__FSMC__LL.html" target="_top" xlink:title=" ">
<polygon fill="white" stroke="#666666" points="90.25,-59.75 32.25,-59.75 32.25,-39 90.25,-39 90.25,-59.75"/>
<text text-anchor="middle" x="61.25" y="-46.25" font-family="Helvetica,sans-Serif" font-size="10.00">FSMC_LL</text>
</a>
</g>
</g>
<!-- Node1 -->
<g id="Node000001" class="node">
<title>Node1</title>
<g id="a_Node000001"><a xlink:title=" ">
<polygon fill="#999999" stroke="#666666" points="286.25,-39.75 158.5,-39.75 158.5,-19 286.25,-19 286.25,-39.75"/>
<text text-anchor="middle" x="222.38" y="-26.25" font-family="Helvetica,sans-Serif" font-size="10.00">FSMC_LL &#160;Private Macros</text>
</a>
</g>
</g>
<!-- Node3&#45;&gt;Node1 -->
<g id="edge2" class="edge">
<title>Node3&#45;&gt;Node1</title>
<path fill="none" stroke="black" d="M101.9,-44.39C118.91,-42.25 139.21,-39.7 158.21,-37.31"/>
<polygon fill="black" stroke="black" points="101.69,-40.89 92.2,-45.61 102.56,-47.84 101.69,-40.89"/>
</g>
<!-- Node2 -->
<g id="Node000002" class="node">
<title>Node2</title>
<g id="a_Node000002"><a xlink:href="group__STM32F4xx__HAL__Driver.html" target="_top" xlink:title=" ">
<polygon fill="white" stroke="#666666" points="122.5,-20.75 0,-20.75 0,0 122.5,0 122.5,-20.75"/>
<text text-anchor="middle" x="61.25" y="-7.25" font-family="Helvetica,sans-Serif" font-size="10.00">STM32F4xx_HAL_Driver</text>
</a>
</g>
</g>
<!-- Node2&#45;&gt;Node1 -->
<g id="edge1" class="edge">
<title>Node2&#45;&gt;Node1</title>
<path fill="none" stroke="black" d="M134.06,-18.95C142.05,-19.9 150.15,-20.87 158.02,-21.81"/>
<polygon fill="black" stroke="black" points="134.71,-15.5 124.37,-17.79 133.88,-22.45 134.71,-15.5"/>
</g>
</g>
</svg>
