<?xml version="1.0" encoding="UTF-8" standalone="no"?>
<!DOCTYPE svg PUBLIC "-//W3C//DTD SVG 1.1//EN"
 "http://www.w3.org/Graphics/SVG/1.1/DTD/svg11.dtd">
<!-- Generated by graphviz version 2.43.0 (0)
 -->
<!-- Title: I2S Exported Constants Pages: 1 -->
<svg width="390pt" height="397pt"
 viewBox="0.00 0.00 390.00 397.00" xmlns="http://www.w3.org/2000/svg" xmlns:xlink="http://www.w3.org/1999/xlink">

<svg id="main" version="1.1" xmlns="http://www.w3.org/2000/svg" xmlns:xlink="http://www.w3.org/1999/xlink" xml:space="preserve">

<style type="text/css"><![CDATA[
.node, .edge {opacity: 0.7;}
.node.selected, .edge.selected {opacity: 1;}
.edge:hover path { stroke: red; }
.edge:hover polygon { stroke: red; fill: red; }
]]></style>
<script type="application/ecmascript" xlink:href="svg.min.js"/>
<svg id="graph" class="graph">
<g id="graph0" class="graph" transform="scale(1 1) rotate(0) translate(4 393)">
<title>I2S Exported Constants</title>
<!-- Node2 -->
<g id="Node000002" class="node">
<title>Node2</title>
<g id="a_Node000002"><a xlink:href="group__I2S.html" target="_top" xlink:title=" ">
<polygon fill="white" stroke="#666666" points="32,-204 0,-204 0,-185 32,-185 32,-204"/>
<text text-anchor="middle" x="16" y="-192" font-family="Helvetica,sans-Serif" font-size="10.00">I2S</text>
</a>
</g>
</g>
<!-- Node1 -->
<g id="Node000001" class="node">
<title>Node1</title>
<g id="a_Node000001"><a xlink:title=" ">
<polygon fill="#999999" stroke="#666666" points="198,-204 68,-204 68,-185 198,-185 198,-204"/>
<text text-anchor="middle" x="133" y="-192" font-family="Helvetica,sans-Serif" font-size="10.00">I2S Exported Constants</text>
</a>
</g>
</g>
<!-- Node2&#45;&gt;Node1 -->
<g id="edge1" class="edge">
<title>Node2&#45;&gt;Node1</title>
<path fill="none" stroke="black" d="M42.14,-194.5C49.9,-194.5 58.84,-194.5 68,-194.5"/>
<polygon fill="black" stroke="black" points="42.03,-191 32.03,-194.5 42.03,-198 42.03,-191"/>
</g>
<!-- Node8 -->
<g id="Node000008" class="node">
<title>Node8</title>
<g id="a_Node000008"><a xlink:href="group__I2S__Audio__Frequency.html" target="_top" xlink:title=" ">
<polygon fill="white" stroke="#666666" points="366,-389 250,-389 250,-370 366,-370 366,-389"/>
<text text-anchor="middle" x="308" y="-377" font-family="Helvetica,sans-Serif" font-size="10.00">I2S Audio Frequency</text>
</a>
</g>
</g>
<!-- Node10 -->
<g id="Node000010" class="node">
<title>Node10</title>
<g id="a_Node000010"><a xlink:href="group__I2S__Clock__Polarity.html" target="_top" xlink:title=" ">
<polygon fill="white" stroke="#666666" points="359,-352 257,-352 257,-333 359,-333 359,-352"/>
<text text-anchor="middle" x="308" y="-340" font-family="Helvetica,sans-Serif" font-size="10.00">I2S Clock Polarity</text>
</a>
</g>
</g>
<!-- Node13 -->
<g id="Node000013" class="node">
<title>Node13</title>
<g id="a_Node000013"><a xlink:href="group__I2S__Clock__Source.html" target="_top" xlink:title=" ">
<polygon fill="white" stroke="#666666" points="382,-315 234,-315 234,-296 382,-296 382,-315"/>
<text text-anchor="middle" x="308" y="-303" font-family="Helvetica,sans-Serif" font-size="10.00">I2S Clock Source Definition</text>
</a>
</g>
</g>
<!-- Node6 -->
<g id="Node000006" class="node">
<title>Node6</title>
<g id="a_Node000006"><a xlink:href="group__I2S__Data__Format.html" target="_top" xlink:title=" ">
<polygon fill="white" stroke="#666666" points="355.5,-278 260.5,-278 260.5,-259 355.5,-259 355.5,-278"/>
<text text-anchor="middle" x="308" y="-266" font-family="Helvetica,sans-Serif" font-size="10.00">I2S Data Format</text>
</a>
</g>
</g>
<!-- Node3 -->
<g id="Node000003" class="node">
<title>Node3</title>
<g id="a_Node000003"><a xlink:href="group__I2S__Error.html" target="_top" xlink:title=" ">
<polygon fill="white" stroke="#666666" points="337,-241 279,-241 279,-222 337,-222 337,-241"/>
<text text-anchor="middle" x="308" y="-229" font-family="Helvetica,sans-Serif" font-size="10.00">I2S Error</text>
</a>
</g>
</g>
<!-- Node1&#45;&gt;Node8 -->
<g id="edge7" class="edge">
<title>Node1&#45;&gt;Node8</title>
<path fill="none" stroke="black" d="M139.99,-213.79C151.91,-248.89 182.03,-323.09 234,-361.5 238.83,-365.07 244.28,-367.94 249.97,-370.24"/>
<polygon fill="black" stroke="black" points="143.3,-212.66 136.87,-204.24 136.64,-214.83 143.3,-212.66"/>
</g>
<!-- Node1&#45;&gt;Node10 -->
<g id="edge9" class="edge">
<title>Node1&#45;&gt;Node10</title>
<path fill="none" stroke="black" d="M143.02,-213.06C157.88,-241.6 190.28,-295.95 234,-324.5 240.89,-329 248.8,-332.37 256.83,-334.9"/>
<polygon fill="black" stroke="black" points="146.14,-211.47 138.51,-204.12 139.89,-214.63 146.14,-211.47"/>
</g>
<!-- Node1&#45;&gt;Node13 -->
<g id="edge12" class="edge">
<title>Node1&#45;&gt;Node13</title>
<path fill="none" stroke="black" d="M147.84,-211.93C165.55,-233.05 198.25,-268.18 234,-287.5 240.32,-290.91 247.29,-293.69 254.34,-295.95"/>
<polygon fill="black" stroke="black" points="150.45,-209.6 141.4,-204.08 145.03,-214.03 150.45,-209.6"/>
</g>
<!-- Node1&#45;&gt;Node6 -->
<g id="edge5" class="edge">
<title>Node1&#45;&gt;Node6</title>
<path fill="none" stroke="black" d="M156.87,-209.66C176.6,-222.15 206.2,-239.52 234,-250.5 242.38,-253.81 251.54,-256.64 260.46,-259.01"/>
<polygon fill="black" stroke="black" points="158.6,-206.61 148.3,-204.14 154.81,-212.5 158.6,-206.61"/>
</g>
<!-- Node1&#45;&gt;Node3 -->
<g id="edge2" class="edge">
<title>Node1&#45;&gt;Node3</title>
<path fill="none" stroke="black" d="M188.47,-206.15C218.47,-212.57 254.46,-220.26 278.85,-225.48"/>
<polygon fill="black" stroke="black" points="189.06,-202.7 178.55,-204.03 187.6,-209.54 189.06,-202.7"/>
</g>
<!-- Node12 -->
<g id="Node000012" class="node">
<title>Node12</title>
<g id="a_Node000012"><a xlink:href="group__I2S__Flags__Definition.html" target="_top" xlink:title=" ">
<polygon fill="white" stroke="#666666" points="363.5,-204 252.5,-204 252.5,-185 363.5,-185 363.5,-204"/>
<text text-anchor="middle" x="308" y="-192" font-family="Helvetica,sans-Serif" font-size="10.00">I2S Flags Definition</text>
</a>
</g>
</g>
<!-- Node1&#45;&gt;Node12 -->
<g id="edge11" class="edge">
<title>Node1&#45;&gt;Node12</title>
<path fill="none" stroke="black" d="M208.53,-194.5C223.29,-194.5 238.51,-194.5 252.45,-194.5"/>
<polygon fill="black" stroke="black" points="208.42,-191 198.42,-194.5 208.42,-198 208.42,-191"/>
</g>
<!-- Node9 -->
<g id="Node000009" class="node">
<title>Node9</title>
<g id="a_Node000009"><a xlink:href="group__I2S__FullDuplex__Mode.html" target="_top" xlink:title=" ">
<polygon fill="white" stroke="#666666" points="366,-167 250,-167 250,-148 366,-148 366,-167"/>
<text text-anchor="middle" x="308" y="-155" font-family="Helvetica,sans-Serif" font-size="10.00">I2S FullDuplex Mode</text>
</a>
</g>
</g>
<!-- Node1&#45;&gt;Node9 -->
<g id="edge8" class="edge">
<title>Node1&#45;&gt;Node9</title>
<path fill="none" stroke="black" d="M188.48,-182.85C212.25,-177.77 239.76,-171.88 262.3,-167.06"/>
<polygon fill="black" stroke="black" points="187.6,-179.46 178.55,-184.97 189.06,-186.3 187.6,-179.46"/>
</g>
<!-- Node11 -->
<g id="Node000011" class="node">
<title>Node11</title>
<g id="a_Node000011"><a xlink:href="group__I2S__Interrupts__Definition.html" target="_top" xlink:title=" ">
<polygon fill="white" stroke="#666666" points="374,-130 242,-130 242,-111 374,-111 374,-130"/>
<text text-anchor="middle" x="308" y="-118" font-family="Helvetica,sans-Serif" font-size="10.00">I2S Interrupts Definition</text>
</a>
</g>
</g>
<!-- Node1&#45;&gt;Node11 -->
<g id="edge10" class="edge">
<title>Node1&#45;&gt;Node11</title>
<path fill="none" stroke="black" d="M157.29,-179.51C177.06,-167.34 206.51,-150.44 234,-139.5 243.25,-135.82 253.44,-132.65 263.2,-130.01"/>
<polygon fill="black" stroke="black" points="155.3,-176.63 148.68,-184.9 159.01,-182.57 155.3,-176.63"/>
</g>
<!-- Node7 -->
<g id="Node000007" class="node">
<title>Node7</title>
<g id="a_Node000007"><a xlink:href="group__I2S__MCLK__Output.html" target="_top" xlink:title=" ">
<polygon fill="white" stroke="#666666" points="357,-93 259,-93 259,-74 357,-74 357,-93"/>
<text text-anchor="middle" x="308" y="-81" font-family="Helvetica,sans-Serif" font-size="10.00">I2S MCLK Output</text>
</a>
</g>
</g>
<!-- Node1&#45;&gt;Node7 -->
<g id="edge6" class="edge">
<title>Node1&#45;&gt;Node7</title>
<path fill="none" stroke="black" d="M148.19,-177.01C166.05,-156.17 198.68,-121.76 234,-102.5 241.7,-98.3 250.37,-95 258.98,-92.41"/>
<polygon fill="black" stroke="black" points="145.43,-174.87 141.68,-184.78 150.79,-179.36 145.43,-174.87"/>
</g>
<!-- Node4 -->
<g id="Node000004" class="node">
<title>Node4</title>
<g id="a_Node000004"><a xlink:href="group__I2S__Mode.html" target="_top" xlink:title=" ">
<polygon fill="white" stroke="#666666" points="339,-56 277,-56 277,-37 339,-37 339,-56"/>
<text text-anchor="middle" x="308" y="-44" font-family="Helvetica,sans-Serif" font-size="10.00">I2S Mode</text>
</a>
</g>
</g>
<!-- Node1&#45;&gt;Node4 -->
<g id="edge3" class="edge">
<title>Node1&#45;&gt;Node4</title>
<path fill="none" stroke="black" d="M143.3,-175.78C158.36,-147.45 190.81,-93.98 234,-65.5 246.68,-57.14 262.86,-52.45 276.76,-49.83"/>
<polygon fill="black" stroke="black" points="140.03,-174.5 138.55,-184.99 146.25,-177.71 140.03,-174.5"/>
</g>
<!-- Node5 -->
<g id="Node000005" class="node">
<title>Node5</title>
<g id="a_Node000005"><a xlink:href="group__I2S__Standard.html" target="_top" xlink:title=" ">
<polygon fill="white" stroke="#666666" points="347,-19 269,-19 269,0 347,0 347,-19"/>
<text text-anchor="middle" x="308" y="-7" font-family="Helvetica,sans-Serif" font-size="10.00">I2S Standard</text>
</a>
</g>
</g>
<!-- Node1&#45;&gt;Node5 -->
<g id="edge4" class="edge">
<title>Node1&#45;&gt;Node5</title>
<path fill="none" stroke="black" d="M140.23,-174.94C152.38,-139.97 182.68,-66.84 234,-28.5 244.07,-20.98 256.86,-16.42 268.9,-13.67"/>
<polygon fill="black" stroke="black" points="136.76,-174.26 136.91,-184.85 143.4,-176.48 136.76,-174.26"/>
</g>
</g>
</svg>
</svg>

<style type='text/css'>
<![CDATA[
[data-mouse-over-selected='false'] { opacity: 0.7; }
[data-mouse-over-selected='true']  { opacity: 1.0; }
]]>
</style>
<script type="application/ecmascript"><![CDATA[
document.addEventListener('DOMContentLoaded', (event) => {
  highlightEdges();
  highlightAdjacentNodes();
});
]]></script>
</svg>
