<?xml version="1.0" encoding="UTF-8" standalone="no"?>
<!DOCTYPE svg PUBLIC "-//W3C//DTD SVG 1.1//EN"
 "http://www.w3.org/Graphics/SVG/1.1/DTD/svg11.dtd">
<!-- Generated by graphviz version 2.43.0 (0)
 -->
<!-- Title: UTILS Pages: 1 -->
<svg width="392pt" height="212pt"
 viewBox="0.00 0.00 392.00 212.00" xmlns="http://www.w3.org/2000/svg" xmlns:xlink="http://www.w3.org/1999/xlink">
<g id="graph0" class="graph" transform="scale(1 1) rotate(0) translate(4 208)">
<title>UTILS</title>
<!-- Node2 -->
<g id="Node000002" class="node">
<title>Node2</title>
<g id="a_Node000002"><a xlink:href="group__STM32F4xx__LL__Driver.html" target="_top" xlink:title=" ">
<polygon fill="white" stroke="#666666" points="125,-111 0,-111 0,-92 125,-92 125,-111"/>
<text text-anchor="middle" x="62.5" y="-99" font-family="Helvetica,sans-Serif" font-size="10.00">STM32F4xx_LL_Driver</text>
</a>
</g>
</g>
<!-- Node1 -->
<g id="Node000001" class="node">
<title>Node1</title>
<g id="a_Node000001"><a xlink:title=" ">
<polygon fill="#999999" stroke="#666666" points="205,-111 161,-111 161,-92 205,-92 205,-111"/>
<text text-anchor="middle" x="183" y="-99" font-family="Helvetica,sans-Serif" font-size="10.00">UTILS</text>
</a>
</g>
</g>
<!-- Node2&#45;&gt;Node1 -->
<g id="edge1" class="edge">
<title>Node2&#45;&gt;Node1</title>
<path fill="none" stroke="black" d="M135.32,-101.5C144.55,-101.5 153.36,-101.5 160.78,-101.5"/>
<polygon fill="black" stroke="black" points="135.18,-98 125.18,-101.5 135.18,-105 135.18,-98"/>
</g>
<!-- Node5 -->
<g id="Node000005" class="node">
<title>Node5</title>
<g id="a_Node000005"><a xlink:href="group__UTILS__LL__ES__INIT.html" target="_top" xlink:title=" ">
<polygon fill="white" stroke="#666666" points="384,-204 241,-204 241,-185 384,-185 384,-204"/>
<text text-anchor="middle" x="312.5" y="-192" font-family="Helvetica,sans-Serif" font-size="10.00">UTILS Exported structures</text>
</a>
</g>
</g>
<!-- Node1&#45;&gt;Node5 -->
<g id="edge4" class="edge">
<title>Node1&#45;&gt;Node5</title>
<path fill="none" stroke="black" d="M193.5,-120.33C203.15,-137.53 219.69,-162.37 241,-176.5 246.16,-179.92 251.93,-182.69 257.88,-184.93"/>
<polygon fill="black" stroke="black" points="196.44,-118.39 188.64,-111.23 190.26,-121.69 196.44,-118.39"/>
</g>
<!-- Node6 -->
<g id="Node000006" class="node">
<title>Node6</title>
<g id="a_Node000006"><a xlink:href="group__UTILS__LL__Exported__Constants.html" target="_top" xlink:title=" ">
<polygon fill="white" stroke="#666666" points="384,-167 241,-167 241,-148 384,-148 384,-167"/>
<text text-anchor="middle" x="312.5" y="-155" font-family="Helvetica,sans-Serif" font-size="10.00">UTILS Exported Constants</text>
</a>
</g>
</g>
<!-- Node1&#45;&gt;Node6 -->
<g id="edge5" class="edge">
<title>Node1&#45;&gt;Node6</title>
<path fill="none" stroke="black" d="M204.05,-117.3C214.55,-124.94 227.93,-133.68 241,-139.5 248.5,-142.84 256.74,-145.65 264.85,-147.97"/>
<polygon fill="black" stroke="black" points="206.07,-114.44 195.97,-111.24 201.87,-120.04 206.07,-114.44"/>
</g>
<!-- Node7 -->
<g id="Node000007" class="node">
<title>Node7</title>
<g id="a_Node000007"><a xlink:href="group__UTILS__LL__Exported__Functions.html" target="_top" xlink:title=" ">
<polygon fill="white" stroke="#666666" points="382.5,-130 242.5,-130 242.5,-111 382.5,-111 382.5,-130"/>
<text text-anchor="middle" x="312.5" y="-118" font-family="Helvetica,sans-Serif" font-size="10.00">UTILS Exported Functions</text>
</a>
</g>
</g>
<!-- Node1&#45;&gt;Node7 -->
<g id="edge6" class="edge">
<title>Node1&#45;&gt;Node7</title>
<path fill="none" stroke="black" d="M215.16,-106.14C225.06,-107.62 236.4,-109.31 247.73,-111"/>
<polygon fill="black" stroke="black" points="215.46,-102.65 205.05,-104.64 214.43,-109.57 215.46,-102.65"/>
</g>
<!-- Node3 -->
<g id="Node000003" class="node">
<title>Node3</title>
<g id="a_Node000003"><a xlink:href="group__UTILS__LL__Private__Constants.html" target="_top" xlink:title=" ">
<polygon fill="white" stroke="#666666" points="379.5,-93 245.5,-93 245.5,-74 379.5,-74 379.5,-93"/>
<text text-anchor="middle" x="312.5" y="-81" font-family="Helvetica,sans-Serif" font-size="10.00">UTILS Private Constants</text>
</a>
</g>
</g>
<!-- Node1&#45;&gt;Node3 -->
<g id="edge2" class="edge">
<title>Node1&#45;&gt;Node3</title>
<path fill="none" stroke="black" d="M215.18,-97.1C224.35,-95.8 234.75,-94.34 245.24,-92.86"/>
<polygon fill="black" stroke="black" points="214.47,-93.66 205.05,-98.53 215.45,-100.6 214.47,-93.66"/>
</g>
<!-- Node8 -->
<g id="Node000008" class="node">
<title>Node8</title>
<g id="a_Node000008"><a xlink:href="group__UTILS__LL__Private__Functions.html" target="_top" xlink:title=" ">
<polygon fill="white" stroke="#666666" points="377.5,-56 247.5,-56 247.5,-37 377.5,-37 377.5,-56"/>
<text text-anchor="middle" x="312.5" y="-44" font-family="Helvetica,sans-Serif" font-size="10.00">UTILS Private functions</text>
</a>
</g>
</g>
<!-- Node1&#45;&gt;Node8 -->
<g id="edge7" class="edge">
<title>Node1&#45;&gt;Node8</title>
<path fill="none" stroke="black" d="M205.34,-85.87C215.69,-78.86 228.56,-70.95 241,-65.5 249.47,-61.78 258.85,-58.64 267.92,-56.05"/>
<polygon fill="black" stroke="black" points="203.15,-83.13 196.95,-91.72 207.16,-88.87 203.15,-83.13"/>
</g>
<!-- Node4 -->
<g id="Node000004" class="node">
<title>Node4</title>
<g id="a_Node000004"><a xlink:href="group__UTILS__LL__Private__Macros.html" target="_top" xlink:title=" ">
<polygon fill="white" stroke="#666666" points="372.5,-19 252.5,-19 252.5,0 372.5,0 372.5,-19"/>
<text text-anchor="middle" x="312.5" y="-7" font-family="Helvetica,sans-Serif" font-size="10.00">UTILS Private Macros</text>
</a>
</g>
</g>
<!-- Node1&#45;&gt;Node4 -->
<g id="edge3" class="edge">
<title>Node1&#45;&gt;Node4</title>
<path fill="none" stroke="black" d="M193.83,-82.97C203.61,-66.28 220.16,-42.32 241,-28.5 246.81,-24.65 253.38,-21.57 260.11,-19.12"/>
<polygon fill="black" stroke="black" points="190.7,-81.38 188.86,-91.82 196.81,-84.81 190.7,-81.38"/>
</g>
</g>
</svg>
