<?xml version="1.0" encoding="UTF-8" standalone="no"?>
<!DOCTYPE svg PUBLIC "-//W3C//DTD SVG 1.1//EN"
 "http://www.w3.org/Graphics/SVG/1.1/DTD/svg11.dtd">
<!-- Generated by graphviz version 12.2.1 (20241206.2353)
 -->
<!-- Title: RCC Exported Constants Pages: 1 -->
<svg width="369pt" height="743pt"
 viewBox="0.00 0.00 368.75 742.75" xmlns="http://www.w3.org/2000/svg" xmlns:xlink="http://www.w3.org/1999/xlink">
<g id="page0,1_graph0" class="graph" transform="scale(1 1) rotate(0) translate(4 738.75)">
<title>RCC Exported Constants</title>
<!-- Node2 -->
<g id="Node000002" class="node">
<title>Node2</title>
<g id="a_Node000002"><a xlink:href="group__RCC.html" target="_top" xlink:title="RCC HAL module driver.">
<polygon fill="white" stroke="#666666" points="35.5,-383.75 0,-383.75 0,-363 35.5,-363 35.5,-383.75"/>
<text text-anchor="middle" x="17.75" y="-370.25" font-family="Helvetica,sans-Serif" font-size="10.00">RCC</text>
</a>
</g>
</g>
<!-- Node1 -->
<g id="Node000001" class="node">
<title>Node1</title>
<g id="a_Node000001"><a xlink:title=" ">
<polygon fill="#999999" stroke="#666666" points="199.25,-383.75 71.5,-383.75 71.5,-363 199.25,-363 199.25,-383.75"/>
<text text-anchor="middle" x="135.38" y="-370.25" font-family="Helvetica,sans-Serif" font-size="10.00">RCC Exported Constants</text>
</a>
</g>
</g>
<!-- Node2&#45;&gt;Node1 -->
<g id="edge1" class="edge">
<title>Node2&#45;&gt;Node1</title>
<path fill="none" stroke="black" d="M47.23,-373.38C54.58,-373.38 62.78,-373.38 71.13,-373.38"/>
<polygon fill="black" stroke="black" points="47.32,-369.88 37.32,-373.38 47.32,-376.88 47.32,-369.88"/>
</g>
<!-- Node14 -->
<g id="Node000014" class="node">
<title>Node14</title>
<g id="a_Node000014"><a xlink:href="group__RCC__AHB__Clock__Source.html" target="_top" xlink:title=" ">
<polygon fill="white" stroke="#666666" points="345.75,-734.75 250.25,-734.75 250.25,-714 345.75,-714 345.75,-734.75"/>
<text text-anchor="middle" x="298" y="-721.25" font-family="Helvetica,sans-Serif" font-size="10.00">AHB Clock Source</text>
</a>
</g>
</g>
<!-- Node15 -->
<g id="Node000015" class="node">
<title>Node15</title>
<g id="a_Node000015"><a xlink:href="group__RCC__APB1__APB2__Clock__Source.html" target="_top" xlink:title=" ">
<polygon fill="white" stroke="#666666" points="360.75,-695.75 235.25,-695.75 235.25,-675 360.75,-675 360.75,-695.75"/>
<text text-anchor="middle" x="298" y="-682.25" font-family="Helvetica,sans-Serif" font-size="10.00">APB1/APB2 Clock Source</text>
</a>
</g>
</g>
<!-- Node1&#45;&gt;Node14 -->
<g id="edge13" class="edge">
<title>Node1&#45;&gt;Node14</title>
<path fill="none" stroke="black" d="M136.32,-395.48C137.4,-454.2 148.54,-615.65 235.25,-704.38 239.42,-708.65 244.52,-712.01 249.97,-714.65"/>
<polygon fill="black" stroke="black" points="139.82,-395.48 136.23,-385.51 132.82,-395.54 139.82,-395.48"/>
</g>
<!-- Node1&#45;&gt;Node15 -->
<g id="edge14" class="edge">
<title>Node1&#45;&gt;Node15</title>
<path fill="none" stroke="black" d="M137.35,-395.39C140.95,-449.25 157.66,-588.81 235.25,-665.38 239.02,-669.1 243.49,-672.12 248.27,-674.59"/>
<polygon fill="black" stroke="black" points="140.86,-395.46 136.8,-385.68 133.88,-395.86 140.86,-395.46"/>
</g>
<!-- Node21 -->
<g id="Node000021" class="node">
<title>Node21</title>
<g id="a_Node000021"><a xlink:href="group__RCC__Flag.html" target="_top" xlink:title=" ">
<polygon fill="white" stroke="#666666" points="318.38,-656.75 277.62,-656.75 277.62,-636 318.38,-636 318.38,-656.75"/>
<text text-anchor="middle" x="298" y="-643.25" font-family="Helvetica,sans-Serif" font-size="10.00">Flags</text>
</a>
</g>
</g>
<!-- Node1&#45;&gt;Node21 -->
<g id="edge20" class="edge">
<title>Node1&#45;&gt;Node21</title>
<path fill="none" stroke="black" d="M138.68,-395.36C144.95,-444.06 166.73,-561.8 235.25,-626.38 246.65,-637.12 263.87,-642.09 277.24,-644.39"/>
<polygon fill="black" stroke="black" points="142.17,-395.07 137.52,-385.55 135.22,-395.89 142.17,-395.07"/>
</g>
<!-- Node4 -->
<g id="Node000004" class="node">
<title>Node4</title>
<g id="a_Node000004"><a xlink:href="group__RCC__HSE__Config.html" target="_top" xlink:title=" ">
<polygon fill="white" stroke="#666666" points="331.88,-617.75 264.12,-617.75 264.12,-597 331.88,-597 331.88,-617.75"/>
<text text-anchor="middle" x="298" y="-604.25" font-family="Helvetica,sans-Serif" font-size="10.00">HSE Config</text>
</a>
</g>
</g>
<!-- Node1&#45;&gt;Node4 -->
<g id="edge3" class="edge">
<title>Node1&#45;&gt;Node4</title>
<path fill="none" stroke="black" d="M140.4,-395.17C149.49,-438.19 175.62,-534.48 235.25,-587.38 243.17,-594.4 253.6,-598.97 263.63,-601.93"/>
<polygon fill="black" stroke="black" points="143.88,-394.68 138.49,-385.56 137.01,-396.05 143.88,-394.68"/>
</g>
<!-- Node6 -->
<g id="Node000006" class="node">
<title>Node6</title>
<g id="a_Node000006"><a xlink:href="group__RCC__HSI__Config.html" target="_top" xlink:title=" ">
<polygon fill="white" stroke="#666666" points="330.38,-578.75 265.62,-578.75 265.62,-558 330.38,-558 330.38,-578.75"/>
<text text-anchor="middle" x="298" y="-565.25" font-family="Helvetica,sans-Serif" font-size="10.00">HSI Config</text>
</a>
</g>
</g>
<!-- Node1&#45;&gt;Node6 -->
<g id="edge5" class="edge">
<title>Node1&#45;&gt;Node6</title>
<path fill="none" stroke="black" d="M142.89,-395.21C155,-432.13 184.5,-506.93 235.25,-548.38 243.8,-555.36 254.86,-559.93 265.24,-562.91"/>
<polygon fill="black" stroke="black" points="146.23,-394.17 139.89,-385.68 139.55,-396.27 146.23,-394.17"/>
</g>
<!-- Node20 -->
<g id="Node000020" class="node">
<title>Node20</title>
<g id="a_Node000020"><a xlink:href="group__RCC__Interrupt.html" target="_top" xlink:title=" ">
<polygon fill="white" stroke="#666666" points="328.5,-539.75 267.5,-539.75 267.5,-519 328.5,-519 328.5,-539.75"/>
<text text-anchor="middle" x="298" y="-526.25" font-family="Helvetica,sans-Serif" font-size="10.00">Interrupts</text>
</a>
</g>
</g>
<!-- Node1&#45;&gt;Node20 -->
<g id="edge19" class="edge">
<title>Node1&#45;&gt;Node20</title>
<path fill="none" stroke="black" d="M146.1,-394.06C161.11,-423.81 192.72,-478.52 235.25,-509.38 244.64,-516.19 256.48,-520.76 267.26,-523.79"/>
<polygon fill="black" stroke="black" points="149.37,-392.78 141.83,-385.33 143.08,-395.85 149.37,-392.78"/>
</g>
<!-- Node5 -->
<g id="Node000005" class="node">
<title>Node5</title>
<g id="a_Node000005"><a xlink:href="group__RCC__LSE__Config.html" target="_top" xlink:title=" ">
<polygon fill="white" stroke="#666666" points="330.75,-500.75 265.25,-500.75 265.25,-480 330.75,-480 330.75,-500.75"/>
<text text-anchor="middle" x="298" y="-487.25" font-family="Helvetica,sans-Serif" font-size="10.00">LSE Config</text>
</a>
</g>
</g>
<!-- Node1&#45;&gt;Node5 -->
<g id="edge4" class="edge">
<title>Node1&#45;&gt;Node5</title>
<path fill="none" stroke="black" d="M151.38,-392.75C169.19,-414.53 200.85,-449.54 235.25,-470.38 244.31,-475.86 255.04,-480.02 265,-483.08"/>
<polygon fill="black" stroke="black" points="154.34,-390.85 145.36,-385.23 148.88,-395.22 154.34,-390.85"/>
</g>
<!-- Node7 -->
<g id="Node000007" class="node">
<title>Node7</title>
<g id="a_Node000007"><a xlink:href="group__RCC__LSI__Config.html" target="_top" xlink:title=" ">
<polygon fill="white" stroke="#666666" points="329.25,-461.75 266.75,-461.75 266.75,-441 329.25,-441 329.25,-461.75"/>
<text text-anchor="middle" x="298" y="-448.25" font-family="Helvetica,sans-Serif" font-size="10.00">LSI Config</text>
</a>
</g>
</g>
<!-- Node1&#45;&gt;Node7 -->
<g id="edge6" class="edge">
<title>Node1&#45;&gt;Node7</title>
<path fill="none" stroke="black" d="M161.88,-390.42C181.38,-402.93 209.24,-419.7 235.25,-431.38 245.12,-435.8 256.27,-439.72 266.35,-442.89"/>
<polygon fill="black" stroke="black" points="163.8,-387.49 153.51,-384.97 159.98,-393.36 163.8,-387.49"/>
</g>
<!-- Node18 -->
<g id="Node000018" class="node">
<title>Node18</title>
<g id="a_Node000018"><a xlink:href="group__RCC__MCO1__Clock__Source.html" target="_top" xlink:title=" ">
<polygon fill="white" stroke="#666666" points="349.5,-422.75 246.5,-422.75 246.5,-402 349.5,-402 349.5,-422.75"/>
<text text-anchor="middle" x="298" y="-409.25" font-family="Helvetica,sans-Serif" font-size="10.00">MCO1 Clock Source</text>
</a>
</g>
</g>
<!-- Node1&#45;&gt;Node18 -->
<g id="edge17" class="edge">
<title>Node1&#45;&gt;Node18</title>
<path fill="none" stroke="black" d="M192.09,-386.9C211.75,-391.68 233.58,-396.98 252.22,-401.5"/>
<polygon fill="black" stroke="black" points="193.13,-383.55 182.59,-384.6 191.48,-390.36 193.13,-383.55"/>
</g>
<!-- Node17 -->
<g id="Node000017" class="node">
<title>Node17</title>
<g id="a_Node000017"><a xlink:href="group__RCC__MCO__Index.html" target="_top" xlink:title=" ">
<polygon fill="white" stroke="#666666" points="330.75,-383.75 265.25,-383.75 265.25,-363 330.75,-363 330.75,-383.75"/>
<text text-anchor="middle" x="298" y="-370.25" font-family="Helvetica,sans-Serif" font-size="10.00">MCO Index</text>
</a>
</g>
</g>
<!-- Node1&#45;&gt;Node17 -->
<g id="edge16" class="edge">
<title>Node1&#45;&gt;Node17</title>
<path fill="none" stroke="black" d="M210.86,-373.38C229.94,-373.38 249.45,-373.38 265.07,-373.38"/>
<polygon fill="black" stroke="black" points="210.91,-369.88 200.91,-373.38 210.91,-376.88 210.91,-369.88"/>
</g>
<!-- Node19 -->
<g id="Node000019" class="node">
<title>Node19</title>
<g id="a_Node000019"><a xlink:href="group__RCC__MCOx__Clock__Prescaler.html" target="_top" xlink:title=" ">
<polygon fill="white" stroke="#666666" points="355.12,-344.75 240.88,-344.75 240.88,-324 355.12,-324 355.12,-344.75"/>
<text text-anchor="middle" x="298" y="-331.25" font-family="Helvetica,sans-Serif" font-size="10.00">MCOx Clock Prescaler</text>
</a>
</g>
</g>
<!-- Node1&#45;&gt;Node19 -->
<g id="edge18" class="edge">
<title>Node1&#45;&gt;Node19</title>
<path fill="none" stroke="black" d="M192.09,-359.85C211.75,-355.07 233.58,-349.77 252.22,-345.25"/>
<polygon fill="black" stroke="black" points="191.48,-356.39 182.59,-362.15 193.13,-363.2 191.48,-356.39"/>
</g>
<!-- Node3 -->
<g id="Node000003" class="node">
<title>Node3</title>
<g id="a_Node000003"><a xlink:href="group__RCC__Oscillator__Type.html" target="_top" xlink:title=" ">
<polygon fill="white" stroke="#666666" points="339.75,-305.75 256.25,-305.75 256.25,-285 339.75,-285 339.75,-305.75"/>
<text text-anchor="middle" x="298" y="-292.25" font-family="Helvetica,sans-Serif" font-size="10.00">Oscillator Type</text>
</a>
</g>
</g>
<!-- Node1&#45;&gt;Node3 -->
<g id="edge2" class="edge">
<title>Node1&#45;&gt;Node3</title>
<path fill="none" stroke="black" d="M161.88,-356.33C181.38,-343.82 209.24,-327.05 235.25,-315.38 242.86,-311.96 251.23,-308.85 259.28,-306.15"/>
<polygon fill="black" stroke="black" points="159.98,-353.39 153.51,-361.78 163.8,-359.26 159.98,-353.39"/>
</g>
<!-- Node9 -->
<g id="Node000009" class="node">
<title>Node9</title>
<g id="a_Node000009"><a xlink:href="group__RCC__PLLP__Clock__Divider.html" target="_top" xlink:title=" ">
<polygon fill="white" stroke="#666666" points="347.62,-266.75 248.38,-266.75 248.38,-246 347.62,-246 347.62,-266.75"/>
<text text-anchor="middle" x="298" y="-253.25" font-family="Helvetica,sans-Serif" font-size="10.00">PLLP Clock Divider</text>
</a>
</g>
</g>
<!-- Node1&#45;&gt;Node9 -->
<g id="edge8" class="edge">
<title>Node1&#45;&gt;Node9</title>
<path fill="none" stroke="black" d="M151.38,-354C169.19,-332.22 200.85,-297.21 235.25,-276.38 241.23,-272.76 247.93,-269.72 254.66,-267.19"/>
<polygon fill="black" stroke="black" points="148.88,-351.53 145.36,-361.52 154.34,-355.9 148.88,-351.53"/>
</g>
<!-- Node10 -->
<g id="Node000010" class="node">
<title>Node10</title>
<g id="a_Node000010"><a xlink:href="group__RCC__PLL__Clock__Source.html" target="_top" xlink:title=" ">
<polygon fill="white" stroke="#666666" points="344.25,-227.75 251.75,-227.75 251.75,-207 344.25,-207 344.25,-227.75"/>
<text text-anchor="middle" x="298" y="-214.25" font-family="Helvetica,sans-Serif" font-size="10.00">PLL Clock Source</text>
</a>
</g>
</g>
<!-- Node1&#45;&gt;Node10 -->
<g id="edge9" class="edge">
<title>Node1&#45;&gt;Node10</title>
<path fill="none" stroke="black" d="M146.1,-352.69C161.11,-322.94 192.72,-268.23 235.25,-237.38 240.36,-233.67 246.19,-230.63 252.17,-228.14"/>
<polygon fill="black" stroke="black" points="143.08,-350.9 141.83,-361.42 149.37,-353.97 143.08,-350.9"/>
</g>
<!-- Node8 -->
<g id="Node000008" class="node">
<title>Node8</title>
<g id="a_Node000008"><a xlink:href="group__RCC__PLL__Config.html" target="_top" xlink:title=" ">
<polygon fill="white" stroke="#666666" points="330.75,-188.75 265.25,-188.75 265.25,-168 330.75,-168 330.75,-188.75"/>
<text text-anchor="middle" x="298" y="-175.25" font-family="Helvetica,sans-Serif" font-size="10.00">PLL Config</text>
</a>
</g>
</g>
<!-- Node1&#45;&gt;Node8 -->
<g id="edge7" class="edge">
<title>Node1&#45;&gt;Node8</title>
<path fill="none" stroke="black" d="M142.89,-351.54C155,-314.62 184.5,-239.82 235.25,-198.38 243.72,-191.46 254.63,-186.91 264.93,-183.93"/>
<polygon fill="black" stroke="black" points="139.55,-350.48 139.89,-361.07 146.23,-352.58 139.55,-350.48"/>
</g>
<!-- Node16 -->
<g id="Node000016" class="node">
<title>Node16</title>
<g id="a_Node000016"><a xlink:href="group__RCC__RTC__Clock__Source.html" target="_top" xlink:title=" ">
<polygon fill="white" stroke="#666666" points="345.38,-149.75 250.62,-149.75 250.62,-129 345.38,-129 345.38,-149.75"/>
<text text-anchor="middle" x="298" y="-136.25" font-family="Helvetica,sans-Serif" font-size="10.00">RTC Clock Source</text>
</a>
</g>
</g>
<!-- Node1&#45;&gt;Node16 -->
<g id="edge15" class="edge">
<title>Node1&#45;&gt;Node16</title>
<path fill="none" stroke="black" d="M140.4,-351.58C149.49,-308.56 175.62,-212.27 235.25,-159.38 239.63,-155.49 244.78,-152.35 250.21,-149.83"/>
<polygon fill="black" stroke="black" points="137.01,-350.7 138.49,-361.19 143.88,-352.07 137.01,-350.7"/>
</g>
<!-- Node12 -->
<g id="Node000012" class="node">
<title>Node12</title>
<g id="a_Node000012"><a xlink:href="group__RCC__System__Clock__Source.html" target="_top" xlink:title=" ">
<polygon fill="white" stroke="#666666" points="352.12,-110.75 243.88,-110.75 243.88,-90 352.12,-90 352.12,-110.75"/>
<text text-anchor="middle" x="298" y="-97.25" font-family="Helvetica,sans-Serif" font-size="10.00">System Clock Source</text>
</a>
</g>
</g>
<!-- Node1&#45;&gt;Node12 -->
<g id="edge11" class="edge">
<title>Node1&#45;&gt;Node12</title>
<path fill="none" stroke="black" d="M138.68,-351.39C144.95,-302.69 166.73,-184.95 235.25,-120.38 239.19,-116.67 243.82,-113.64 248.74,-111.18"/>
<polygon fill="black" stroke="black" points="135.22,-350.86 137.52,-361.2 142.17,-351.68 135.22,-350.86"/>
</g>
<!-- Node13 -->
<g id="Node000013" class="node">
<title>Node13</title>
<g id="a_Node000013"><a xlink:href="group__RCC__System__Clock__Source__Status.html" target="_top" xlink:title=" ">
<polygon fill="white" stroke="#666666" points="352.12,-72.12 243.88,-72.12 243.88,-38.62 352.12,-38.62 352.12,-72.12"/>
<text text-anchor="start" x="251.88" y="-58.62" font-family="Helvetica,sans-Serif" font-size="10.00">System Clock Source</text>
<text text-anchor="middle" x="298" y="-45.88" font-family="Helvetica,sans-Serif" font-size="10.00"> Status</text>
</a>
</g>
</g>
<!-- Node1&#45;&gt;Node13 -->
<g id="edge12" class="edge">
<title>Node1&#45;&gt;Node13</title>
<path fill="none" stroke="black" d="M137.83,-351.06C142.47,-297.62 161.32,-160.83 235.25,-81.38 238.34,-78.05 241.92,-75.14 245.77,-72.59"/>
<polygon fill="black" stroke="black" points="134.35,-350.76 137.07,-361 141.33,-351.29 134.35,-350.76"/>
</g>
<!-- Node11 -->
<g id="Node000011" class="node">
<title>Node11</title>
<g id="a_Node000011"><a xlink:href="group__RCC__System__Clock__Type.html" target="_top" xlink:title=" ">
<polygon fill="white" stroke="#666666" points="348,-20.75 248,-20.75 248,0 348,0 348,-20.75"/>
<text text-anchor="middle" x="298" y="-7.25" font-family="Helvetica,sans-Serif" font-size="10.00">System Clock Type</text>
</a>
</g>
</g>
<!-- Node1&#45;&gt;Node11 -->
<g id="edge10" class="edge">
<title>Node1&#45;&gt;Node11</title>
<path fill="none" stroke="black" d="M135.95,-351.14C136.05,-290.66 144.82,-121.51 235.25,-29.38 238.79,-25.77 242.99,-22.85 247.51,-20.48"/>
<polygon fill="black" stroke="black" points="132.45,-351.14 136.03,-361.12 139.45,-351.09 132.45,-351.14"/>
</g>
</g>
</svg>
