<?xml version="1.0" encoding="UTF-8" standalone="no"?>
<!DOCTYPE svg PUBLIC "-//W3C//DTD SVG 1.1//EN"
 "http://www.w3.org/Graphics/SVG/1.1/DTD/svg11.dtd">
<!-- Generated by graphviz version 12.2.1 (20241206.2353)
 -->
<!-- Title: LL_PLL_ConfigSystemClock_HSI Pages: 1 -->
<svg width="527pt" height="132pt"
 viewBox="0.00 0.00 527.00 131.75" xmlns="http://www.w3.org/2000/svg" xmlns:xlink="http://www.w3.org/1999/xlink">
<g id="page0,1_graph0" class="graph" transform="scale(1 1) rotate(0) translate(4 127.75)">
<title>LL_PLL_ConfigSystemClock_HSI</title>
<!-- Node1 -->
<g id="Node000001" class="node">
<title>Node1</title>
<g id="a_Node000001"><a xlink:title="This function configures system clock at maximum frequency with HSI as clock source of the PLL.">
<polygon fill="#999999" stroke="#666666" points="163,-59.75 0,-59.75 0,-39 163,-39 163,-59.75"/>
<text text-anchor="middle" x="81.5" y="-46.25" font-family="Helvetica,sans-Serif" font-size="10.00">LL_PLL_ConfigSystemClock_HSI</text>
</a>
</g>
</g>
<!-- Node2 -->
<g id="Node000002" class="node">
<title>Node2</title>
<g id="a_Node000002"><a xlink:href="group__UTILS__LL__Private__Functions.html#ga320bd51e9a0bfdf2fa1da4a24bb05fc0" target="_top" xlink:title="Function to enable PLL and switch system clock to PLL.">
<polygon fill="white" stroke="#666666" points="349.62,-111.12 206.88,-111.12 206.88,-77.62 349.62,-77.62 349.62,-111.12"/>
<text text-anchor="start" x="214.88" y="-97.62" font-family="Helvetica,sans-Serif" font-size="10.00">UTILS_EnablePLLAndSwitch</text>
<text text-anchor="middle" x="278.25" y="-84.88" font-family="Helvetica,sans-Serif" font-size="10.00">System</text>
</a>
</g>
</g>
<!-- Node1&#45;&gt;Node2 -->
<g id="edge1_Node000001_Node000002" class="edge">
<title>Node1&#45;&gt;Node2</title>
<g id="a_edge1_Node000001_Node000002"><a xlink:title=" ">
<path fill="none" stroke="#63b8ff" d="M129.15,-60.15C149.07,-64.76 172.92,-70.27 195.6,-75.51"/>
<polygon fill="#63b8ff" stroke="#63b8ff" points="194.61,-78.87 205.15,-77.71 196.19,-72.05 194.61,-78.87"/>
</a>
</g>
</g>
<!-- Node5 -->
<g id="Node000005" class="node">
<title>Node5</title>
<g id="a_Node000005"><a xlink:href="group__UTILS__LL__Private__Functions.html#gae40ed31572a8b64837e7f6d8eda0f4e2" target="_top" xlink:title="Function to check that PLL can be modified.">
<polygon fill="white" stroke="#666666" points="357.5,-59.75 199,-59.75 199,-39 357.5,-39 357.5,-59.75"/>
<text text-anchor="middle" x="278.25" y="-46.25" font-family="Helvetica,sans-Serif" font-size="10.00">UTILS_GetPLLOutputFrequency</text>
</a>
</g>
</g>
<!-- Node1&#45;&gt;Node5 -->
<g id="edge4_Node000001_Node000005" class="edge">
<title>Node1&#45;&gt;Node5</title>
<g id="a_edge4_Node000001_Node000005"><a xlink:title=" ">
<path fill="none" stroke="#63b8ff" d="M163.4,-49.38C171.36,-49.38 179.46,-49.38 187.5,-49.38"/>
<polygon fill="#63b8ff" stroke="#63b8ff" points="187.28,-52.88 197.28,-49.38 187.28,-45.88 187.28,-52.88"/>
</a>
</g>
</g>
<!-- Node6 -->
<g id="Node000006" class="node">
<title>Node6</title>
<g id="a_Node000006"><a xlink:href="group__UTILS__LL__Private__Functions.html#ga4242342336a76627fc39a7e145dbf3c7" target="_top" xlink:title="Function to check that PLL can be modified.">
<polygon fill="white" stroke="#666666" points="326.75,-20.75 229.75,-20.75 229.75,0 326.75,0 326.75,-20.75"/>
<text text-anchor="middle" x="278.25" y="-7.25" font-family="Helvetica,sans-Serif" font-size="10.00">UTILS_PLL_IsBusy</text>
</a>
</g>
</g>
<!-- Node1&#45;&gt;Node6 -->
<g id="edge5_Node000001_Node000006" class="edge">
<title>Node1&#45;&gt;Node6</title>
<g id="a_edge5_Node000001_Node000006"><a xlink:title=" ">
<path fill="none" stroke="#63b8ff" d="M136.75,-38.51C162.04,-33.45 192.2,-27.41 218.08,-22.22"/>
<polygon fill="#63b8ff" stroke="#63b8ff" points="218.66,-25.68 227.78,-20.28 217.29,-18.81 218.66,-25.68"/>
</a>
</g>
</g>
<!-- Node3 -->
<g id="Node000003" class="node">
<title>Node3</title>
<g id="a_Node000003"><a xlink:href="group__UTILS__EF__SYSTEM.html#ga74f71dc4b93a3b99e5f9e042e85e2ce5" target="_top" xlink:title="Update number of Flash wait states in line with new frequency and current voltage range.">
<polygon fill="white" stroke="#666666" points="508.88,-123.75 403.62,-123.75 403.62,-103 508.88,-103 508.88,-123.75"/>
<text text-anchor="middle" x="456.25" y="-110.25" font-family="Helvetica,sans-Serif" font-size="10.00">LL_SetFlashLatency</text>
</a>
</g>
</g>
<!-- Node2&#45;&gt;Node3 -->
<g id="edge2_Node000002_Node000003" class="edge">
<title>Node2&#45;&gt;Node3</title>
<g id="a_edge2_Node000002_Node000003"><a xlink:title=" ">
<path fill="none" stroke="#63b8ff" d="M350.08,-102.02C363.96,-103.52 378.43,-105.08 392.04,-106.55"/>
<polygon fill="#63b8ff" stroke="#63b8ff" points="391.42,-110 401.73,-107.6 392.17,-103.04 391.42,-110"/>
</a>
</g>
</g>
<!-- Node4 -->
<g id="Node000004" class="node">
<title>Node4</title>
<g id="a_Node000004"><a xlink:href="group__UTILS__EF__SYSTEM.html#ga5af902d59c4c2d9dc5e189df0bc71ecd" target="_top" xlink:title="This function sets directly SystemCoreClock CMSIS variable.">
<polygon fill="white" stroke="#666666" points="519,-84.75 393.5,-84.75 393.5,-64 519,-64 519,-84.75"/>
<text text-anchor="middle" x="456.25" y="-71.25" font-family="Helvetica,sans-Serif" font-size="10.00">LL_SetSystemCoreClock</text>
</a>
</g>
</g>
<!-- Node2&#45;&gt;Node4 -->
<g id="edge3_Node000002_Node000004" class="edge">
<title>Node2&#45;&gt;Node4</title>
<g id="a_edge3_Node000002_Node000004"><a xlink:title=" ">
<path fill="none" stroke="#63b8ff" d="M350.08,-86.33C360.53,-85.14 371.32,-83.91 381.82,-82.72"/>
<polygon fill="#63b8ff" stroke="#63b8ff" points="382.03,-86.22 391.57,-81.61 381.24,-79.26 382.03,-86.22"/>
</a>
</g>
</g>
</g>
</svg>
