<?xml version="1.0" encoding="UTF-8" standalone="no"?>
<!DOCTYPE svg PUBLIC "-//W3C//DTD SVG 1.1//EN"
 "http://www.w3.org/Graphics/SVG/1.1/DTD/svg11.dtd">
<!-- Generated by graphviz version 12.2.1 (20241206.2353)
 -->
<!-- Title: WWDG_Exported_Functions Pages: 1 -->
<svg width="421pt" height="94pt"
 viewBox="0.00 0.00 421.25 93.50" xmlns="http://www.w3.org/2000/svg" xmlns:xlink="http://www.w3.org/1999/xlink">

<svg id="main" version="1.1" xmlns="http://www.w3.org/2000/svg" xmlns:xlink="http://www.w3.org/1999/xlink" xml:space="preserve">

<style type="text/css"><![CDATA[
.node, .edge {opacity: 0.7;}
.node.selected, .edge.selected {opacity: 1;}
.edge:hover path { stroke: red; }
.edge:hover polygon { stroke: red; fill: red; }
]]></style>
<script type="application/ecmascript" xlink:href="svg.min.js"/>
<svg id="graph" class="graph">
<g id="graph0" class="graph" transform="scale(1 1) rotate(0) translate(4 89.5)">
<title>WWDG_Exported_Functions</title>
<!-- Node2 -->
<g id="Node000002" class="node">
<title>Node2</title>
<g id="a_Node000002"><a xlink:href="group__WWDG.html" target="_top" xlink:title=" ">
<polygon fill="white" stroke="#666666" points="49.75,-53.12 0,-53.12 0,-32.38 49.75,-32.38 49.75,-53.12"/>
<text text-anchor="middle" x="24.88" y="-39.62" font-family="Helvetica,sans-Serif" font-size="10.00">WWDG</text>
</a>
</g>
</g>
<!-- Node1 -->
<g id="Node000001" class="node">
<title>Node1</title>
<g id="a_Node000001"><a xlink:title=" ">
<polygon fill="#999999" stroke="#666666" points="231.5,-53.12 85.75,-53.12 85.75,-32.38 231.5,-32.38 231.5,-53.12"/>
<text text-anchor="middle" x="158.62" y="-39.62" font-family="Helvetica,sans-Serif" font-size="10.00">WWDG_Exported_Functions</text>
</a>
</g>
</g>
<!-- Node2&#45;&gt;Node1 -->
<g id="edge1" class="edge">
<title>Node2&#45;&gt;Node1</title>
<path fill="none" stroke="black" d="M61.53,-42.75C69,-42.75 77.13,-42.75 85.41,-42.75"/>
<polygon fill="black" stroke="black" points="61.55,-39.25 51.55,-42.75 61.55,-46.25 61.55,-39.25"/>
</g>
<!-- Node3 -->
<g id="Node000003" class="node">
<title>Node3</title>
<g id="a_Node000003"><a xlink:href="group__WWDG__Exported__Functions__Group1.html" target="_top" xlink:title=" ">
<polygon fill="white" stroke="#666666" points="413.25,-85.5 267.5,-85.5 267.5,-52 413.25,-52 413.25,-85.5"/>
<text text-anchor="start" x="275.5" y="-72" font-family="Helvetica,sans-Serif" font-size="10.00">WWDG_Exported_Functions</text>
<text text-anchor="middle" x="340.38" y="-59.25" font-family="Helvetica,sans-Serif" font-size="10.00">_Group1</text>
</a>
</g>
</g>
<!-- Node1&#45;&gt;Node3 -->
<g id="edge2" class="edge">
<title>Node1&#45;&gt;Node3</title>
<path fill="none" stroke="black" d="M243.21,-54.84C251.22,-56 259.3,-57.17 267.19,-58.31"/>
<polygon fill="black" stroke="black" points="243.86,-51.4 233.46,-53.43 242.85,-58.33 243.86,-51.4"/>
</g>
<!-- Node4 -->
<g id="Node000004" class="node">
<title>Node4</title>
<g id="a_Node000004"><a xlink:href="group__WWDG__Exported__Functions__Group2.html" target="_top" xlink:title=" ">
<polygon fill="white" stroke="#666666" points="413.25,-33.5 267.5,-33.5 267.5,0 413.25,0 413.25,-33.5"/>
<text text-anchor="start" x="275.5" y="-20" font-family="Helvetica,sans-Serif" font-size="10.00">WWDG_Exported_Functions</text>
<text text-anchor="middle" x="340.38" y="-7.25" font-family="Helvetica,sans-Serif" font-size="10.00">_Group2</text>
</a>
</g>
</g>
<!-- Node1&#45;&gt;Node4 -->
<g id="edge3" class="edge">
<title>Node1&#45;&gt;Node4</title>
<path fill="none" stroke="black" d="M243.21,-30.66C251.22,-29.5 259.3,-28.33 267.19,-27.19"/>
<polygon fill="black" stroke="black" points="242.85,-27.17 233.46,-32.07 243.86,-34.1 242.85,-27.17"/>
</g>
</g>
</svg>
</svg>

<style type='text/css'>
<![CDATA[
[data-mouse-over-selected='false'] { opacity: 0.7; }
[data-mouse-over-selected='true']  { opacity: 1.0; }
]]>
</style>
<script type="application/ecmascript"><![CDATA[
document.addEventListener('DOMContentLoaded', (event) => {
  highlightEdges();
  highlightAdjacentNodes();
});
]]></script>
</svg>
