<?xml version="1.0" encoding="UTF-8" standalone="no"?>
<!DOCTYPE svg PUBLIC "-//W3C//DTD SVG 1.1//EN"
 "http://www.w3.org/Graphics/SVG/1.1/DTD/svg11.dtd">
<!-- Generated by graphviz version 2.43.0 (0)
 -->
<!-- Title: UART_Exported_Functions Pages: 1 -->
<svg width="410pt" height="172pt"
 viewBox="0.00 0.00 410.00 172.00" xmlns="http://www.w3.org/2000/svg" xmlns:xlink="http://www.w3.org/1999/xlink">
<g id="graph0" class="graph" transform="scale(1 1) rotate(0) translate(4 168)">
<title>UART_Exported_Functions</title>
<!-- Node2 -->
<g id="Node000002" class="node">
<title>Node2</title>
<g id="a_Node000002"><a xlink:href="group__UART.html" target="_top" xlink:title="HAL UART module driver.">
<polygon fill="white" stroke="#666666" points="43,-93.5 0,-93.5 0,-74.5 43,-74.5 43,-93.5"/>
<text text-anchor="middle" x="21.5" y="-81.5" font-family="Helvetica,sans-Serif" font-size="10.00">UART</text>
</a>
</g>
</g>
<!-- Node1 -->
<g id="Node000001" class="node">
<title>Node1</title>
<g id="a_Node000001"><a xlink:title=" ">
<polygon fill="#999999" stroke="#666666" points="222,-93.5 79,-93.5 79,-74.5 222,-74.5 222,-93.5"/>
<text text-anchor="middle" x="150.5" y="-81.5" font-family="Helvetica,sans-Serif" font-size="10.00">UART_Exported_Functions</text>
</a>
</g>
</g>
<!-- Node2&#45;&gt;Node1 -->
<g id="edge1" class="edge">
<title>Node2&#45;&gt;Node1</title>
<path fill="none" stroke="black" d="M53.25,-84C61.1,-84 69.86,-84 78.82,-84"/>
<polygon fill="black" stroke="black" points="53.19,-80.5 43.19,-84 53.19,-87.5 53.19,-80.5"/>
</g>
<!-- Node3 -->
<g id="Node000003" class="node">
<title>Node3</title>
<g id="a_Node000003"><a xlink:href="group__UART__Exported__Functions__Group1.html" target="_top" xlink:title=" ">
<polygon fill="white" stroke="#666666" points="402,-164 258,-164 258,-134 402,-134 402,-164"/>
<text text-anchor="start" x="266" y="-152" font-family="Helvetica,sans-Serif" font-size="10.00">Initialization and</text>
<text text-anchor="middle" x="330" y="-141" font-family="Helvetica,sans-Serif" font-size="10.00"> de&#45;initialization functions</text>
</a>
</g>
</g>
<!-- Node1&#45;&gt;Node3 -->
<g id="edge2" class="edge">
<title>Node1&#45;&gt;Node3</title>
<path fill="none" stroke="black" d="M184.9,-97.27C205.82,-105.48 233.39,-116.11 258,-125 266.2,-127.96 274.97,-131.02 283.45,-133.92"/>
<polygon fill="black" stroke="black" points="186.09,-93.97 175.5,-93.57 183.53,-100.49 186.09,-93.97"/>
</g>
<!-- Node4 -->
<g id="Node000004" class="node">
<title>Node4</title>
<g id="a_Node000004"><a xlink:href="group__UART__Exported__Functions__Group2.html" target="_top" xlink:title=" ">
<polygon fill="white" stroke="#666666" points="392.5,-115.5 267.5,-115.5 267.5,-96.5 392.5,-96.5 392.5,-115.5"/>
<text text-anchor="middle" x="330" y="-103.5" font-family="Helvetica,sans-Serif" font-size="10.00">IO operation functions</text>
</a>
</g>
</g>
<!-- Node1&#45;&gt;Node4 -->
<g id="edge3" class="edge">
<title>Node1&#45;&gt;Node4</title>
<path fill="none" stroke="black" d="M232.44,-94.03C244.21,-95.49 256.16,-96.97 267.46,-98.37"/>
<polygon fill="black" stroke="black" points="232.52,-90.51 222.16,-92.76 231.66,-97.46 232.52,-90.51"/>
</g>
<!-- Node5 -->
<g id="Node000005" class="node">
<title>Node5</title>
<g id="a_Node000005"><a xlink:href="group__UART__Exported__Functions__Group3.html" target="_top" xlink:title=" ">
<polygon fill="white" stroke="#666666" points="401.5,-78 258.5,-78 258.5,-48 401.5,-48 401.5,-78"/>
<text text-anchor="start" x="266.5" y="-66" font-family="Helvetica,sans-Serif" font-size="10.00">UART_Exported_Functions</text>
<text text-anchor="middle" x="330" y="-55" font-family="Helvetica,sans-Serif" font-size="10.00">_Group3</text>
</a>
</g>
</g>
<!-- Node1&#45;&gt;Node5 -->
<g id="edge4" class="edge">
<title>Node1&#45;&gt;Node5</title>
<path fill="none" stroke="black" d="M232.28,-74.44C240.96,-73.42 249.74,-72.38 258.29,-71.37"/>
<polygon fill="black" stroke="black" points="231.68,-70.99 222.16,-75.64 232.5,-77.94 231.68,-70.99"/>
</g>
<!-- Node6 -->
<g id="Node000006" class="node">
<title>Node6</title>
<g id="a_Node000006"><a xlink:href="group__UART__Exported__Functions__Group4.html" target="_top" xlink:title=" ">
<polygon fill="white" stroke="#666666" points="401.5,-30 258.5,-30 258.5,0 401.5,0 401.5,-30"/>
<text text-anchor="start" x="266.5" y="-18" font-family="Helvetica,sans-Serif" font-size="10.00">UART_Exported_Functions</text>
<text text-anchor="middle" x="330" y="-7" font-family="Helvetica,sans-Serif" font-size="10.00">_Group4</text>
</a>
</g>
</g>
<!-- Node1&#45;&gt;Node6 -->
<g id="edge5" class="edge">
<title>Node1&#45;&gt;Node6</title>
<path fill="none" stroke="black" d="M182.36,-70.25C203.49,-61.01 232.24,-48.78 258,-39 265.91,-36 274.38,-32.97 282.61,-30.13"/>
<polygon fill="black" stroke="black" points="180.68,-67.16 172.93,-74.39 183.5,-73.57 180.68,-67.16"/>
</g>
</g>
</svg>
