<?xml version="1.0" encoding="UTF-8" standalone="no"?>
<!DOCTYPE svg PUBLIC "-//W3C//DTD SVG 1.1//EN"
 "http://www.w3.org/Graphics/SVG/1.1/DTD/svg11.dtd">
<!-- Generated by graphviz version 12.2.1 (20241206.2353)
 -->
<!-- Title: SPI Exported Constants Pages: 1 -->
<svg width="380pt" height="497pt"
 viewBox="0.00 0.00 380.00 496.75" xmlns="http://www.w3.org/2000/svg" xmlns:xlink="http://www.w3.org/1999/xlink">
<g id="page0,1_graph0" class="graph" transform="scale(1 1) rotate(0) translate(4 492.75)">
<title>SPI Exported Constants</title>
<!-- Node2 -->
<g id="Node000002" class="node">
<title>Node2</title>
<g id="a_Node000002"><a xlink:href="group__SPI.html" target="_top" xlink:title="SPI HAL module driver.">
<polygon fill="white" stroke="#666666" points="30.25,-254.75 0,-254.75 0,-234 30.25,-234 30.25,-254.75"/>
<text text-anchor="middle" x="15.12" y="-241.25" font-family="Helvetica,sans-Serif" font-size="10.00">SPI</text>
</a>
</g>
</g>
<!-- Node1 -->
<g id="Node000001" class="node">
<title>Node1</title>
<g id="a_Node000001"><a xlink:title=" ">
<polygon fill="#999999" stroke="#666666" points="188.75,-254.75 66.25,-254.75 66.25,-234 188.75,-234 188.75,-254.75"/>
<text text-anchor="middle" x="127.5" y="-241.25" font-family="Helvetica,sans-Serif" font-size="10.00">SPI Exported Constants</text>
</a>
</g>
</g>
<!-- Node2&#45;&gt;Node1 -->
<g id="edge1" class="edge">
<title>Node2&#45;&gt;Node1</title>
<path fill="none" stroke="black" d="M41.86,-244.38C49.21,-244.38 57.55,-244.38 66.06,-244.38"/>
<polygon fill="black" stroke="black" points="42.07,-240.88 32.07,-244.38 42.07,-247.88 42.07,-240.88"/>
</g>
<!-- Node10 -->
<g id="Node000010" class="node">
<title>Node10</title>
<g id="a_Node000010"><a xlink:href="group__SPI__BaudRate__Prescaler.html" target="_top" xlink:title=" ">
<polygon fill="white" stroke="#666666" points="357.75,-488.75 239,-488.75 239,-468 357.75,-468 357.75,-488.75"/>
<text text-anchor="middle" x="298.38" y="-475.25" font-family="Helvetica,sans-Serif" font-size="10.00">SPI BaudRate Prescaler</text>
</a>
</g>
</g>
<!-- Node13 -->
<g id="Node000013" class="node">
<title>Node13</title>
<g id="a_Node000013"><a xlink:href="group__SPI__CRC__Calculation.html" target="_top" xlink:title=" ">
<polygon fill="white" stroke="#666666" points="351,-449.75 245.75,-449.75 245.75,-429 351,-429 351,-449.75"/>
<text text-anchor="middle" x="298.38" y="-436.25" font-family="Helvetica,sans-Serif" font-size="10.00">SPI CRC Calculation</text>
</a>
</g>
</g>
<!-- Node8 -->
<g id="Node000008" class="node">
<title>Node8</title>
<g id="a_Node000008"><a xlink:href="group__SPI__Clock__Phase.html" target="_top" xlink:title=" ">
<polygon fill="white" stroke="#666666" points="342,-410.75 254.75,-410.75 254.75,-390 342,-390 342,-410.75"/>
<text text-anchor="middle" x="298.38" y="-397.25" font-family="Helvetica,sans-Serif" font-size="10.00">SPI Clock Phase</text>
</a>
</g>
</g>
<!-- Node7 -->
<g id="Node000007" class="node">
<title>Node7</title>
<g id="a_Node000007"><a xlink:href="group__SPI__Clock__Polarity.html" target="_top" xlink:title=" ">
<polygon fill="white" stroke="#666666" points="345.75,-371.75 251,-371.75 251,-351 345.75,-351 345.75,-371.75"/>
<text text-anchor="middle" x="298.38" y="-358.25" font-family="Helvetica,sans-Serif" font-size="10.00">SPI Clock Polarity</text>
</a>
</g>
</g>
<!-- Node6 -->
<g id="Node000006" class="node">
<title>Node6</title>
<g id="a_Node000006"><a xlink:href="group__SPI__Data__Size.html" target="_top" xlink:title=" ">
<polygon fill="white" stroke="#666666" points="334.88,-332.75 261.88,-332.75 261.88,-312 334.88,-312 334.88,-332.75"/>
<text text-anchor="middle" x="298.38" y="-319.25" font-family="Helvetica,sans-Serif" font-size="10.00">SPI Data Size</text>
</a>
</g>
</g>
<!-- Node5 -->
<g id="Node000005" class="node">
<title>Node5</title>
<g id="a_Node000005"><a xlink:href="group__SPI__Direction.html" target="_top" xlink:title=" ">
<polygon fill="white" stroke="#666666" points="348.75,-293.75 248,-293.75 248,-273 348.75,-273 348.75,-293.75"/>
<text text-anchor="middle" x="298.38" y="-280.25" font-family="Helvetica,sans-Serif" font-size="10.00">SPI Direction Mode</text>
</a>
</g>
</g>
<!-- Node3 -->
<g id="Node000003" class="node">
<title>Node3</title>
<g id="a_Node000003"><a xlink:href="group__SPI__Error__Code.html" target="_top" xlink:title=" ">
<polygon fill="white" stroke="#666666" points="339.38,-254.75 257.38,-254.75 257.38,-234 339.38,-234 339.38,-254.75"/>
<text text-anchor="middle" x="298.38" y="-241.25" font-family="Helvetica,sans-Serif" font-size="10.00">SPI Error Code</text>
</a>
</g>
</g>
<!-- Node1&#45;&gt;Node10 -->
<g id="edge9" class="edge">
<title>Node1&#45;&gt;Node10</title>
<path fill="none" stroke="black" d="M132.04,-266.38C140.21,-309.8 164.5,-406.75 224.75,-458.38 229.12,-462.12 234.13,-465.17 239.44,-467.65"/>
<polygon fill="black" stroke="black" points="135.52,-265.92 130.34,-256.68 128.62,-267.13 135.52,-265.92"/>
</g>
<!-- Node1&#45;&gt;Node13 -->
<g id="edge12" class="edge">
<title>Node1&#45;&gt;Node13</title>
<path fill="none" stroke="black" d="M134.32,-265.91C145.46,-303 173.4,-378.84 224.75,-419.38 230.81,-424.16 237.93,-427.8 245.3,-430.57"/>
<polygon fill="black" stroke="black" points="137.71,-265.03 131.59,-256.38 130.98,-266.96 137.71,-265.03"/>
</g>
<!-- Node1&#45;&gt;Node8 -->
<g id="edge7" class="edge">
<title>Node1&#45;&gt;Node8</title>
<path fill="none" stroke="black" d="M137.64,-265.31C151.86,-295.38 182.13,-350.47 224.75,-380.38 233.53,-386.53 244.13,-390.8 254.5,-393.75"/>
<polygon fill="black" stroke="black" points="140.95,-264.13 133.62,-256.49 134.58,-267.04 140.95,-264.13"/>
</g>
<!-- Node1&#45;&gt;Node7 -->
<g id="edge6" class="edge">
<title>Node1&#45;&gt;Node7</title>
<path fill="none" stroke="black" d="M143.06,-264.34C160.19,-286.4 190.65,-321.44 224.75,-341.38 232.65,-346 241.66,-349.58 250.59,-352.36"/>
<polygon fill="black" stroke="black" points="145.9,-262.29 137.08,-256.43 140.32,-266.52 145.9,-262.29"/>
</g>
<!-- Node1&#45;&gt;Node6 -->
<g id="edge5" class="edge">
<title>Node1&#45;&gt;Node6</title>
<path fill="none" stroke="black" d="M152.79,-261.57C171.67,-274.3 198.92,-291.28 224.75,-302.38 236.41,-307.38 249.66,-311.46 261.62,-314.6"/>
<polygon fill="black" stroke="black" points="154.94,-258.81 144.72,-256.04 150.98,-264.58 154.94,-258.81"/>
</g>
<!-- Node1&#45;&gt;Node5 -->
<g id="edge4" class="edge">
<title>Node1&#45;&gt;Node5</title>
<path fill="none" stroke="black" d="M186.5,-257.77C207.32,-262.58 230.52,-267.93 250.29,-272.5"/>
<polygon fill="black" stroke="black" points="187.55,-254.42 177.02,-255.58 185.97,-261.24 187.55,-254.42"/>
</g>
<!-- Node1&#45;&gt;Node3 -->
<g id="edge2" class="edge">
<title>Node1&#45;&gt;Node3</title>
<path fill="none" stroke="black" d="M200.29,-244.38C219.72,-244.38 240.07,-244.38 257.09,-244.38"/>
<polygon fill="black" stroke="black" points="200.5,-240.88 190.5,-244.38 200.5,-247.88 200.5,-240.88"/>
</g>
<!-- Node15 -->
<g id="Node000015" class="node">
<title>Node15</title>
<g id="a_Node000015"><a xlink:href="group__SPI__Flags__definition.html" target="_top" xlink:title=" ">
<polygon fill="white" stroke="#666666" points="350.25,-215.75 246.5,-215.75 246.5,-195 350.25,-195 350.25,-215.75"/>
<text text-anchor="middle" x="298.38" y="-202.25" font-family="Helvetica,sans-Serif" font-size="10.00">SPI Flags Definition</text>
</a>
</g>
</g>
<!-- Node1&#45;&gt;Node15 -->
<g id="edge14" class="edge">
<title>Node1&#45;&gt;Node15</title>
<path fill="none" stroke="black" d="M186.5,-230.98C207.32,-226.17 230.52,-220.82 250.29,-216.25"/>
<polygon fill="black" stroke="black" points="185.97,-227.51 177.02,-233.17 187.55,-234.33 185.97,-227.51"/>
</g>
<!-- Node14 -->
<g id="Node000014" class="node">
<title>Node14</title>
<g id="a_Node000014"><a xlink:href="group__SPI__Interrupt__definition.html" target="_top" xlink:title=" ">
<polygon fill="white" stroke="#666666" points="358.12,-176.75 238.62,-176.75 238.62,-156 358.12,-156 358.12,-176.75"/>
<text text-anchor="middle" x="298.38" y="-163.25" font-family="Helvetica,sans-Serif" font-size="10.00">SPI Interrupt Definition</text>
</a>
</g>
</g>
<!-- Node1&#45;&gt;Node14 -->
<g id="edge13" class="edge">
<title>Node1&#45;&gt;Node14</title>
<path fill="none" stroke="black" d="M152.79,-227.18C171.67,-214.45 198.92,-197.47 224.75,-186.38 232.92,-182.87 241.88,-179.81 250.62,-177.22"/>
<polygon fill="black" stroke="black" points="150.98,-224.17 144.72,-232.71 154.94,-229.94 150.98,-224.17"/>
</g>
<!-- Node11 -->
<g id="Node000011" class="node">
<title>Node11</title>
<g id="a_Node000011"><a xlink:href="group__SPI__MSB__LSB__transmission.html" target="_top" xlink:title=" ">
<polygon fill="white" stroke="#666666" points="364.88,-137.75 231.88,-137.75 231.88,-117 364.88,-117 364.88,-137.75"/>
<text text-anchor="middle" x="298.38" y="-124.25" font-family="Helvetica,sans-Serif" font-size="10.00">SPI MSB LSB Transmission</text>
</a>
</g>
</g>
<!-- Node1&#45;&gt;Node11 -->
<g id="edge10" class="edge">
<title>Node1&#45;&gt;Node11</title>
<path fill="none" stroke="black" d="M143.06,-224.41C160.19,-202.35 190.65,-167.31 224.75,-147.38 231.07,-143.68 238.1,-140.64 245.23,-138.15"/>
<polygon fill="black" stroke="black" points="140.32,-222.23 137.08,-232.32 145.9,-226.46 140.32,-222.23"/>
</g>
<!-- Node4 -->
<g id="Node000004" class="node">
<title>Node4</title>
<g id="a_Node000004"><a xlink:href="group__SPI__Mode.html" target="_top" xlink:title=" ">
<polygon fill="white" stroke="#666666" points="327.38,-98.75 269.38,-98.75 269.38,-78 327.38,-78 327.38,-98.75"/>
<text text-anchor="middle" x="298.38" y="-85.25" font-family="Helvetica,sans-Serif" font-size="10.00">SPI Mode</text>
</a>
</g>
</g>
<!-- Node1&#45;&gt;Node4 -->
<g id="edge3" class="edge">
<title>Node1&#45;&gt;Node4</title>
<path fill="none" stroke="black" d="M137.64,-223.44C151.86,-193.37 182.13,-138.28 224.75,-108.38 237.7,-99.29 254.64,-94.32 268.89,-91.61"/>
<polygon fill="black" stroke="black" points="134.58,-221.71 133.62,-232.26 140.95,-224.62 134.58,-221.71"/>
</g>
<!-- Node9 -->
<g id="Node000009" class="node">
<title>Node9</title>
<g id="a_Node000009"><a xlink:href="group__SPI__Slave__Select__management.html" target="_top" xlink:title=" ">
<polygon fill="white" stroke="#666666" points="372,-59.75 224.75,-59.75 224.75,-39 372,-39 372,-59.75"/>
<text text-anchor="middle" x="298.38" y="-46.25" font-family="Helvetica,sans-Serif" font-size="10.00">SPI Slave Select Management</text>
</a>
</g>
</g>
<!-- Node1&#45;&gt;Node9 -->
<g id="edge8" class="edge">
<title>Node1&#45;&gt;Node9</title>
<path fill="none" stroke="black" d="M134.32,-222.84C145.46,-185.75 173.4,-109.91 224.75,-69.38 229.47,-65.65 234.84,-62.61 240.47,-60.14"/>
<polygon fill="black" stroke="black" points="130.98,-221.79 131.59,-232.37 137.71,-223.72 130.98,-221.79"/>
</g>
<!-- Node12 -->
<g id="Node000012" class="node">
<title>Node12</title>
<g id="a_Node000012"><a xlink:href="group__SPI__TI__mode.html" target="_top" xlink:title=" ">
<polygon fill="white" stroke="#666666" points="333,-20.75 263.75,-20.75 263.75,0 333,0 333,-20.75"/>
<text text-anchor="middle" x="298.38" y="-7.25" font-family="Helvetica,sans-Serif" font-size="10.00">SPI TI Mode</text>
</a>
</g>
</g>
<!-- Node1&#45;&gt;Node12 -->
<g id="edge11" class="edge">
<title>Node1&#45;&gt;Node12</title>
<path fill="none" stroke="black" d="M132.04,-222.37C140.21,-178.95 164.5,-82 224.75,-30.38 235.48,-21.19 250.08,-16.19 263.38,-13.49"/>
<polygon fill="black" stroke="black" points="128.62,-221.62 130.34,-232.07 135.52,-222.83 128.62,-221.62"/>
</g>
</g>
</svg>
