<?xml version="1.0" encoding="UTF-8" standalone="no"?>
<!DOCTYPE svg PUBLIC "-//W3C//DTD SVG 1.1//EN"
 "http://www.w3.org/Graphics/SVG/1.1/DTD/svg11.dtd">
<!-- Generated by graphviz version 12.2.1 (20241206.2353)
 -->
<!-- Title: ADC_Exported_Functions Pages: 1 -->
<svg width="379pt" height="198pt"
 viewBox="0.00 0.00 378.50 197.50" xmlns="http://www.w3.org/2000/svg" xmlns:xlink="http://www.w3.org/1999/xlink">

<svg id="main" version="1.1" xmlns="http://www.w3.org/2000/svg" xmlns:xlink="http://www.w3.org/1999/xlink" xml:space="preserve">

<style type="text/css"><![CDATA[
.node, .edge {opacity: 0.7;}
.node.selected, .edge.selected {opacity: 1;}
.edge:hover path { stroke: red; }
.edge:hover polygon { stroke: red; fill: red; }
]]></style>
<script type="application/ecmascript" xlink:href="svg.min.js"/>
<svg id="graph" class="graph">
<g id="graph0" class="graph" transform="scale(1 1) rotate(0) translate(4 193.5)">
<title>ADC_Exported_Functions</title>
<!-- Node2 -->
<g id="Node000002" class="node">
<title>Node2</title>
<g id="a_Node000002"><a xlink:href="group__ADC.html" target="_top" xlink:title="ADC driver modules.">
<polygon fill="white" stroke="#666666" points="35.5,-105.12 0,-105.12 0,-84.38 35.5,-84.38 35.5,-105.12"/>
<text text-anchor="middle" x="17.75" y="-91.62" font-family="Helvetica,sans-Serif" font-size="10.00">ADC</text>
</a>
</g>
</g>
<!-- Node1 -->
<g id="Node000001" class="node">
<title>Node1</title>
<g id="a_Node000001"><a xlink:title=" ">
<polygon fill="#999999" stroke="#666666" points="203,-105.12 71.5,-105.12 71.5,-84.38 203,-84.38 203,-105.12"/>
<text text-anchor="middle" x="137.25" y="-91.62" font-family="Helvetica,sans-Serif" font-size="10.00">ADC_Exported_Functions</text>
</a>
</g>
</g>
<!-- Node2&#45;&gt;Node1 -->
<g id="edge1" class="edge">
<title>Node2&#45;&gt;Node1</title>
<path fill="none" stroke="black" d="M47.26,-94.75C54.61,-94.75 62.83,-94.75 71.22,-94.75"/>
<polygon fill="black" stroke="black" points="47.35,-91.25 37.35,-94.75 47.35,-98.25 47.35,-91.25"/>
</g>
<!-- Node3 -->
<g id="Node000003" class="node">
<title>Node3</title>
<g id="a_Node000003"><a xlink:href="group__ADC__Exported__Functions__Group1.html" target="_top" xlink:title=" ">
<polygon fill="white" stroke="#666666" points="370.5,-189.5 239,-189.5 239,-156 370.5,-156 370.5,-189.5"/>
<text text-anchor="start" x="247" y="-176" font-family="Helvetica,sans-Serif" font-size="10.00">ADC_Exported_Functions</text>
<text text-anchor="middle" x="304.75" y="-163.25" font-family="Helvetica,sans-Serif" font-size="10.00">_Group1</text>
</a>
</g>
</g>
<!-- Node1&#45;&gt;Node3 -->
<g id="edge2" class="edge">
<title>Node1&#45;&gt;Node3</title>
<path fill="none" stroke="black" d="M167.66,-110.86C187.56,-121.53 214.57,-135.57 239,-146.75 245.5,-149.72 252.44,-152.71 259.28,-155.54"/>
<polygon fill="black" stroke="black" points="169.46,-107.86 159,-106.19 166.14,-114.02 169.46,-107.86"/>
</g>
<!-- Node4 -->
<g id="Node000004" class="node">
<title>Node4</title>
<g id="a_Node000004"><a xlink:href="group__ADC__Exported__Functions__Group2.html" target="_top" xlink:title=" ">
<polygon fill="white" stroke="#666666" points="370.5,-137.5 239,-137.5 239,-104 370.5,-104 370.5,-137.5"/>
<text text-anchor="start" x="247" y="-124" font-family="Helvetica,sans-Serif" font-size="10.00">ADC_Exported_Functions</text>
<text text-anchor="middle" x="304.75" y="-111.25" font-family="Helvetica,sans-Serif" font-size="10.00">_Group2</text>
</a>
</g>
</g>
<!-- Node1&#45;&gt;Node4 -->
<g id="edge3" class="edge">
<title>Node1&#45;&gt;Node4</title>
<path fill="none" stroke="black" d="M214.53,-106.73C222.62,-108 230.79,-109.29 238.73,-110.54"/>
<polygon fill="black" stroke="black" points="215.1,-103.28 204.68,-105.19 214.02,-110.2 215.1,-103.28"/>
</g>
<!-- Node5 -->
<g id="Node000005" class="node">
<title>Node5</title>
<g id="a_Node000005"><a xlink:href="group__ADC__Exported__Functions__Group3.html" target="_top" xlink:title=" ">
<polygon fill="white" stroke="#666666" points="370.5,-85.5 239,-85.5 239,-52 370.5,-52 370.5,-85.5"/>
<text text-anchor="start" x="247" y="-72" font-family="Helvetica,sans-Serif" font-size="10.00">ADC_Exported_Functions</text>
<text text-anchor="middle" x="304.75" y="-59.25" font-family="Helvetica,sans-Serif" font-size="10.00">_Group3</text>
</a>
</g>
</g>
<!-- Node1&#45;&gt;Node5 -->
<g id="edge4" class="edge">
<title>Node1&#45;&gt;Node5</title>
<path fill="none" stroke="black" d="M214.53,-82.77C222.62,-81.5 230.79,-80.21 238.73,-78.96"/>
<polygon fill="black" stroke="black" points="214.02,-79.3 204.68,-84.31 215.1,-86.22 214.02,-79.3"/>
</g>
<!-- Node6 -->
<g id="Node000006" class="node">
<title>Node6</title>
<g id="a_Node000006"><a xlink:href="group__ADC__Exported__Functions__Group4.html" target="_top" xlink:title=" ">
<polygon fill="white" stroke="#666666" points="370.5,-33.5 239,-33.5 239,0 370.5,0 370.5,-33.5"/>
<text text-anchor="start" x="247" y="-20" font-family="Helvetica,sans-Serif" font-size="10.00">ADC_Exported_Functions</text>
<text text-anchor="middle" x="304.75" y="-7.25" font-family="Helvetica,sans-Serif" font-size="10.00">_Group4</text>
</a>
</g>
</g>
<!-- Node1&#45;&gt;Node6 -->
<g id="edge5" class="edge">
<title>Node1&#45;&gt;Node6</title>
<path fill="none" stroke="black" d="M167.66,-78.64C187.56,-67.97 214.57,-53.93 239,-42.75 245.5,-39.78 252.44,-36.79 259.28,-33.96"/>
<polygon fill="black" stroke="black" points="166.14,-75.48 159,-83.31 169.46,-81.64 166.14,-75.48"/>
</g>
</g>
</svg>
</svg>

<style type='text/css'>
<![CDATA[
[data-mouse-over-selected='false'] { opacity: 0.7; }
[data-mouse-over-selected='true']  { opacity: 1.0; }
]]>
</style>
<script type="application/ecmascript"><![CDATA[
document.addEventListener('DOMContentLoaded', (event) => {
  highlightEdges();
  highlightAdjacentNodes();
});
]]></script>
</svg>
