<?xml version="1.0" encoding="UTF-8" standalone="no"?>
<!DOCTYPE svg PUBLIC "-//W3C//DTD SVG 1.1//EN"
 "http://www.w3.org/Graphics/SVG/1.1/DTD/svg11.dtd">
<!-- Generated by graphviz version 2.43.0 (0)
 -->
<!-- Title: RCC Exported Constants Pages: 1 -->
<!--zoomable 705 -->

<svg id="main" version="1.1" xmlns="http://www.w3.org/2000/svg" xmlns:xlink="http://www.w3.org/1999/xlink" xml:space="preserve" onload="init(evt)">
<style type="text/css"><![CDATA[
.node, .edge {opacity: 0.7;}
.node.selected, .edge.selected {opacity: 1;}
.edge:hover path { stroke: red; }
.edge:hover polygon { stroke: red; fill: red; }
]]></style>

<defs>
  <circle id="rim" cx="0" cy="0" r="7"/>
  <circle id="rim2" cx="0" cy="0" r="3.5"/>
  <g id="zoomPlus">
    <use xlink:href="#rim" fill="#404040"><set attributeName="fill" to="#808080" begin="zoomplus.mouseover" end="zoomplus.mouseout"/></use>
    <path d="M-4,0h8M0,-4v8" fill="none" stroke="white" stroke-width="1.5" pointer-events="none"/>
  </g>
  <g id="zoomMin">
    <use xlink:href="#rim" fill="#404040"><set attributeName="fill" to="#808080" begin="zoomminus.mouseover" end="zoomminus.mouseout"/></use>
    <path d="M-4,0h8" fill="none" stroke="white" stroke-width="1.5" pointer-events="none"/>
  </g>
  <g id="arrowUp" transform="translate(30 24)">
    <use xlink:href="#rim"/>
    <path pointer-events="none" fill="none" stroke="white" stroke-width="1.5" d="M0,-3.0v7 M-2.5,-0.5L0,-3.0L2.5,-0.5"/>
  </g>
  <g id="arrowRight" transform="rotate(90) translate(36 -43)">
    <use xlink:href="#rim"/>
    <path pointer-events="none" fill="none" stroke="white" stroke-width="1.5" d="M0,-3.0v7 M-2.5,-0.5L0,-3.0L2.5,-0.5"/>
  </g>
  <g id="arrowDown" transform="rotate(180) translate(-30 -48)">
    <use xlink:href="#rim"/>
    <path pointer-events="none" fill="none" stroke="white" stroke-width="1.5" d="M0,-3.0v7 M-2.5,-0.5L0,-3.0L2.5,-0.5"/>
  </g>
  <g id="arrowLeft" transform="rotate(270) translate(-36 17)">
    <use xlink:href="#rim"/>
    <path pointer-events="none" fill="none" stroke="white" stroke-width="1.5" d="M0,-3.0v7 M-2.5,-0.5L0,-3.0L2.5,-0.5"/>
  </g>
  <g id="resetDef">
    <use xlink:href="#rim2" fill="#404040"><set attributeName="fill" to="#808080" begin="reset.mouseover" end="reset.mouseout"/></use>
  </g>
</defs>
<script type="application/ecmascript">
var viewWidth = 389;
var viewHeight = 705;
var sectionId = 'dynsection-0';
</script>
<script type="application/ecmascript" xlink:href="svg.min.js"/>
<svg id="graph" class="graph">
<g id="viewport">
<title>RCC Exported Constants</title>
<!-- Node2 -->
<g id="Node000002" class="node">
<title>Node2</title>
<g id="a_Node000002"><a xlink:href="group__RCC.html" target="_top" xlink:title="RCC HAL module driver.">
<polygon fill="white" stroke="#666666" points="37,-364 0,-364 0,-345 37,-345 37,-364"/>
<text text-anchor="middle" x="18.5" y="-352" font-family="Helvetica,sans-Serif" font-size="10.00">RCC</text>
</a>
</g>
</g>
<!-- Node1 -->
<g id="Node000001" class="node">
<title>Node1</title>
<g id="a_Node000001"><a xlink:title=" ">
<polygon fill="#999999" stroke="#666666" points="208,-364 73,-364 73,-345 208,-345 208,-364"/>
<text text-anchor="middle" x="140.5" y="-352" font-family="Helvetica,sans-Serif" font-size="10.00">RCC Exported Constants</text>
</a>
</g>
</g>
<!-- Node2&#45;&gt;Node1 -->
<g id="edge1" class="edge">
<title>Node2&#45;&gt;Node1</title>
<path fill="none" stroke="black" d="M47.38,-354.5C55.12,-354.5 63.86,-354.5 72.8,-354.5"/>
<polygon fill="black" stroke="black" points="47.21,-351 37.21,-354.5 47.21,-358 47.21,-351"/>
</g>
<!-- Node14 -->
<g id="Node000014" class="node">
<title>Node14</title>
<g id="a_Node000014"><a xlink:href="group__RCC__AHB__Clock__Source.html" target="_top" xlink:title=" ">
<polygon fill="white" stroke="#666666" points="364.5,-697 260.5,-697 260.5,-678 364.5,-678 364.5,-697"/>
<text text-anchor="middle" x="312.5" y="-685" font-family="Helvetica,sans-Serif" font-size="10.00">AHB Clock Source</text>
</a>
</g>
</g>
<!-- Node15 -->
<g id="Node000015" class="node">
<title>Node15</title>
<g id="a_Node000015"><a xlink:href="group__RCC__APB1__APB2__Clock__Source.html" target="_top" xlink:title=" ">
<polygon fill="white" stroke="#666666" points="381,-660 244,-660 244,-641 381,-641 381,-660"/>
<text text-anchor="middle" x="312.5" y="-648" font-family="Helvetica,sans-Serif" font-size="10.00">APB1/APB2 Clock Source</text>
</a>
</g>
</g>
<!-- Node1&#45;&gt;Node14 -->
<g id="edge13" class="edge">
<title>Node1&#45;&gt;Node14</title>
<path fill="none" stroke="black" d="M141.78,-374.37C143.69,-429.71 156.89,-586.97 244,-669.5 248.67,-673.92 254.29,-677.28 260.28,-679.83"/>
<polygon fill="black" stroke="black" points="145.28,-374.08 141.53,-364.17 138.28,-374.25 145.28,-374.08"/>
</g>
<!-- Node1&#45;&gt;Node15 -->
<g id="edge14" class="edge">
<title>Node1&#45;&gt;Node15</title>
<path fill="none" stroke="black" d="M142.77,-374.38C147.13,-425.28 165.87,-561.3 244,-632.5 247.76,-635.93 252.11,-638.72 256.75,-640.99"/>
<polygon fill="black" stroke="black" points="146.24,-373.81 141.99,-364.1 139.26,-374.34 146.24,-373.81"/>
</g>
<!-- Node21 -->
<g id="Node000021" class="node">
<title>Node21</title>
<g id="a_Node000021"><a xlink:href="group__RCC__Flag.html" target="_top" xlink:title=" ">
<polygon fill="white" stroke="#666666" points="334,-623 291,-623 291,-604 334,-604 334,-623"/>
<text text-anchor="middle" x="312.5" y="-611" font-family="Helvetica,sans-Serif" font-size="10.00">Flags</text>
</a>
</g>
</g>
<!-- Node1&#45;&gt;Node21 -->
<g id="edge20" class="edge">
<title>Node1&#45;&gt;Node21</title>
<path fill="none" stroke="black" d="M144.01,-374.19C150.94,-420.18 174.66,-535.34 244,-595.5 256.92,-606.71 276.08,-611.03 290.69,-612.65"/>
<polygon fill="black" stroke="black" points="147.44,-373.48 142.59,-364.06 140.51,-374.45 147.44,-373.48"/>
</g>
<!-- Node4 -->
<g id="Node000004" class="node">
<title>Node4</title>
<g id="a_Node000004"><a xlink:href="group__RCC__HSE__Config.html" target="_top" xlink:title=" ">
<polygon fill="white" stroke="#666666" points="347.5,-586 277.5,-586 277.5,-567 347.5,-567 347.5,-586"/>
<text text-anchor="middle" x="312.5" y="-574" font-family="Helvetica,sans-Serif" font-size="10.00">HSE Config</text>
</a>
</g>
</g>
<!-- Node1&#45;&gt;Node4 -->
<g id="edge3" class="edge">
<title>Node1&#45;&gt;Node4</title>
<path fill="none" stroke="black" d="M145.68,-374.2C155.4,-415.04 183.44,-509.24 244,-558.5 253.41,-566.15 265.77,-570.57 277.33,-573.12"/>
<polygon fill="black" stroke="black" points="149.08,-373.36 143.46,-364.38 142.25,-374.91 149.08,-373.36"/>
</g>
<!-- Node6 -->
<g id="Node000006" class="node">
<title>Node6</title>
<g id="a_Node000006"><a xlink:href="group__RCC__HSI__Config.html" target="_top" xlink:title=" ">
<polygon fill="white" stroke="#666666" points="346,-549 279,-549 279,-530 346,-530 346,-549"/>
<text text-anchor="middle" x="312.5" y="-537" font-family="Helvetica,sans-Serif" font-size="10.00">HSI Config</text>
</a>
</g>
</g>
<!-- Node1&#45;&gt;Node6 -->
<g id="edge5" class="edge">
<title>Node1&#45;&gt;Node6</title>
<path fill="none" stroke="black" d="M147.85,-373.7C160.41,-408.65 191.84,-482.63 244,-521.5 254.02,-528.96 266.9,-533.34 278.72,-535.9"/>
<polygon fill="black" stroke="black" points="151.13,-372.49 144.55,-364.19 144.52,-374.79 151.13,-372.49"/>
</g>
<!-- Node20 -->
<g id="Node000020" class="node">
<title>Node20</title>
<g id="a_Node000020"><a xlink:href="group__RCC__Interrupt.html" target="_top" xlink:title=" ">
<polygon fill="white" stroke="#666666" points="344.5,-512 280.5,-512 280.5,-493 344.5,-493 344.5,-512"/>
<text text-anchor="middle" x="312.5" y="-500" font-family="Helvetica,sans-Serif" font-size="10.00">Interrupts</text>
</a>
</g>
</g>
<!-- Node1&#45;&gt;Node20 -->
<g id="edge19" class="edge">
<title>Node1&#45;&gt;Node20</title>
<path fill="none" stroke="black" d="M150.94,-372.96C166.42,-401.36 199.97,-455.53 244,-484.5 254.74,-491.57 268.16,-495.87 280.2,-498.48"/>
<polygon fill="black" stroke="black" points="154,-371.26 146.22,-364.07 147.81,-374.54 154,-371.26"/>
</g>
<!-- Node5 -->
<g id="Node000005" class="node">
<title>Node5</title>
<g id="a_Node000005"><a xlink:href="group__RCC__LSE__Config.html" target="_top" xlink:title=" ">
<polygon fill="white" stroke="#666666" points="346.5,-475 278.5,-475 278.5,-456 346.5,-456 346.5,-475"/>
<text text-anchor="middle" x="312.5" y="-463" font-family="Helvetica,sans-Serif" font-size="10.00">LSE Config</text>
</a>
</g>
</g>
<!-- Node1&#45;&gt;Node5 -->
<g id="edge4" class="edge">
<title>Node1&#45;&gt;Node5</title>
<path fill="none" stroke="black" d="M155.84,-371.81C174.15,-392.8 207.83,-427.8 244,-447.5 254.54,-453.24 267.03,-457.24 278.37,-459.97"/>
<polygon fill="black" stroke="black" points="158.33,-369.34 149.18,-364.01 153.01,-373.88 158.33,-369.34"/>
</g>
<!-- Node7 -->
<g id="Node000007" class="node">
<title>Node7</title>
<g id="a_Node000007"><a xlink:href="group__RCC__LSI__Config.html" target="_top" xlink:title=" ">
<polygon fill="white" stroke="#666666" points="345,-438 280,-438 280,-419 345,-419 345,-438"/>
<text text-anchor="middle" x="312.5" y="-426" font-family="Helvetica,sans-Serif" font-size="10.00">LSI Config</text>
</a>
</g>
</g>
<!-- Node1&#45;&gt;Node7 -->
<g id="edge6" class="edge">
<title>Node1&#45;&gt;Node7</title>
<path fill="none" stroke="black" d="M164.78,-369.32C185.06,-381.72 215.59,-399.14 244,-410.5 255.37,-415.05 268.28,-418.81 279.74,-421.7"/>
<polygon fill="black" stroke="black" points="166.57,-366.32 156.23,-364.02 162.88,-372.27 166.57,-366.32"/>
</g>
<!-- Node18 -->
<g id="Node000018" class="node">
<title>Node18</title>
<g id="a_Node000018"><a xlink:href="group__RCC__MCO1__Clock__Source.html" target="_top" xlink:title=" ">
<polygon fill="white" stroke="#666666" points="368.5,-401 256.5,-401 256.5,-382 368.5,-382 368.5,-401"/>
<text text-anchor="middle" x="312.5" y="-389" font-family="Helvetica,sans-Serif" font-size="10.00">MCO1 Clock Source</text>
</a>
</g>
</g>
<!-- Node1&#45;&gt;Node18 -->
<g id="edge17" class="edge">
<title>Node1&#45;&gt;Node18</title>
<path fill="none" stroke="black" d="M195.35,-366.22C218.63,-371.29 245.53,-377.14 267.57,-381.94"/>
<polygon fill="black" stroke="black" points="195.79,-362.74 185.28,-364.03 194.31,-369.58 195.79,-362.74"/>
</g>
<!-- Node17 -->
<g id="Node000017" class="node">
<title>Node17</title>
<g id="a_Node000017"><a xlink:href="group__RCC__MCO__Index.html" target="_top" xlink:title=" ">
<polygon fill="white" stroke="#666666" points="347.5,-364 277.5,-364 277.5,-345 347.5,-345 347.5,-364"/>
<text text-anchor="middle" x="312.5" y="-352" font-family="Helvetica,sans-Serif" font-size="10.00">MCO Index</text>
</a>
</g>
</g>
<!-- Node1&#45;&gt;Node17 -->
<g id="edge16" class="edge">
<title>Node1&#45;&gt;Node17</title>
<path fill="none" stroke="black" d="M218.26,-354.5C238.92,-354.5 260.22,-354.5 277.24,-354.5"/>
<polygon fill="black" stroke="black" points="218.2,-351 208.2,-354.5 218.2,-358 218.2,-351"/>
</g>
<!-- Node19 -->
<g id="Node000019" class="node">
<title>Node19</title>
<g id="a_Node000019"><a xlink:href="group__RCC__MCOx__Clock__Prescaler.html" target="_top" xlink:title=" ">
<polygon fill="white" stroke="#666666" points="374.5,-327 250.5,-327 250.5,-308 374.5,-308 374.5,-327"/>
<text text-anchor="middle" x="312.5" y="-315" font-family="Helvetica,sans-Serif" font-size="10.00">MCOx Clock Prescaler</text>
</a>
</g>
</g>
<!-- Node1&#45;&gt;Node19 -->
<g id="edge18" class="edge">
<title>Node1&#45;&gt;Node19</title>
<path fill="none" stroke="black" d="M195.35,-342.78C218.63,-337.71 245.53,-331.86 267.57,-327.06"/>
<polygon fill="black" stroke="black" points="194.31,-339.42 185.28,-344.97 195.79,-346.26 194.31,-339.42"/>
</g>
<!-- Node3 -->
<g id="Node000003" class="node">
<title>Node3</title>
<g id="a_Node000003"><a xlink:href="group__RCC__Oscillator__Type.html" target="_top" xlink:title=" ">
<polygon fill="white" stroke="#666666" points="357,-290 268,-290 268,-271 357,-271 357,-290"/>
<text text-anchor="middle" x="312.5" y="-278" font-family="Helvetica,sans-Serif" font-size="10.00">Oscillator Type</text>
</a>
</g>
</g>
<!-- Node1&#45;&gt;Node3 -->
<g id="edge2" class="edge">
<title>Node1&#45;&gt;Node3</title>
<path fill="none" stroke="black" d="M165.56,-339.64C185.89,-327.58 216.07,-310.77 244,-299.5 252.92,-295.9 262.76,-292.72 272.11,-290.03"/>
<polygon fill="black" stroke="black" points="163.73,-336.66 156.96,-344.82 167.33,-342.66 163.73,-336.66"/>
</g>
<!-- Node9 -->
<g id="Node000009" class="node">
<title>Node9</title>
<g id="a_Node000009"><a xlink:href="group__RCC__PLLP__Clock__Divider.html" target="_top" xlink:title=" ">
<polygon fill="white" stroke="#666666" points="366,-253 259,-253 259,-234 366,-234 366,-253"/>
<text text-anchor="middle" x="312.5" y="-241" font-family="Helvetica,sans-Serif" font-size="10.00">PLLP Clock Divider</text>
</a>
</g>
</g>
<!-- Node1&#45;&gt;Node9 -->
<g id="edge8" class="edge">
<title>Node1&#45;&gt;Node9</title>
<path fill="none" stroke="black" d="M156.21,-337.15C174.67,-316.44 208.28,-282.15 244,-262.5 250.93,-258.69 258.7,-255.58 266.42,-253.08"/>
<polygon fill="black" stroke="black" points="153.41,-335.02 149.47,-344.86 158.69,-339.63 153.41,-335.02"/>
</g>
<!-- Node10 -->
<g id="Node000010" class="node">
<title>Node10</title>
<g id="a_Node000010"><a xlink:href="group__RCC__PLL__Clock__Source.html" target="_top" xlink:title=" ">
<polygon fill="white" stroke="#666666" points="362,-216 263,-216 263,-197 362,-197 362,-216"/>
<text text-anchor="middle" x="312.5" y="-204" font-family="Helvetica,sans-Serif" font-size="10.00">PLL Clock Source</text>
</a>
</g>
</g>
<!-- Node1&#45;&gt;Node10 -->
<g id="edge9" class="edge">
<title>Node1&#45;&gt;Node10</title>
<path fill="none" stroke="black" d="M151.25,-335.85C166.95,-307.65 200.53,-254.41 244,-225.5 249.78,-221.66 256.33,-218.58 263.02,-216.13"/>
<polygon fill="black" stroke="black" points="148.14,-334.24 146.45,-344.69 154.3,-337.57 148.14,-334.24"/>
</g>
<!-- Node8 -->
<g id="Node000008" class="node">
<title>Node8</title>
<g id="a_Node000008"><a xlink:href="group__RCC__PLL__Config.html" target="_top" xlink:title=" ">
<polygon fill="white" stroke="#666666" points="346,-179 279,-179 279,-160 346,-160 346,-179"/>
<text text-anchor="middle" x="312.5" y="-167" font-family="Helvetica,sans-Serif" font-size="10.00">PLL Config</text>
</a>
</g>
</g>
<!-- Node1&#45;&gt;Node8 -->
<g id="edge7" class="edge">
<title>Node1&#45;&gt;Node8</title>
<path fill="none" stroke="black" d="M148.1,-335.03C160.91,-300.22 192.51,-227.32 244,-188.5 254.01,-180.95 266.9,-176.4 278.72,-173.66"/>
<polygon fill="black" stroke="black" points="144.64,-334.31 144.6,-344.9 151.24,-336.65 144.64,-334.31"/>
</g>
<!-- Node16 -->
<g id="Node000016" class="node">
<title>Node16</title>
<g id="a_Node000016"><a xlink:href="group__RCC__RTC__Clock__Source.html" target="_top" xlink:title=" ">
<polygon fill="white" stroke="#666666" points="363,-142 262,-142 262,-123 363,-123 363,-142"/>
<text text-anchor="middle" x="312.5" y="-130" font-family="Helvetica,sans-Serif" font-size="10.00">RTC Clock Source</text>
</a>
</g>
</g>
<!-- Node1&#45;&gt;Node16 -->
<g id="edge15" class="edge">
<title>Node1&#45;&gt;Node16</title>
<path fill="none" stroke="black" d="M145.83,-334.71C155.76,-294.05 184.1,-200.82 244,-151.5 249.26,-147.17 255.45,-143.82 261.91,-141.24"/>
<polygon fill="black" stroke="black" points="142.36,-334.17 143.5,-344.7 149.18,-335.75 142.36,-334.17"/>
</g>
<!-- Node12 -->
<g id="Node000012" class="node">
<title>Node12</title>
<g id="a_Node000012"><a xlink:href="group__RCC__System__Clock__Source.html" target="_top" xlink:title=" ">
<polygon fill="white" stroke="#666666" points="372,-105 253,-105 253,-86 372,-86 372,-105"/>
<text text-anchor="middle" x="312.5" y="-93" font-family="Helvetica,sans-Serif" font-size="10.00">System Clock Source</text>
</a>
</g>
</g>
<!-- Node1&#45;&gt;Node12 -->
<g id="edge11" class="edge">
<title>Node1&#45;&gt;Node12</title>
<path fill="none" stroke="black" d="M144.19,-334.33C151.42,-288.24 175.59,-174.59 244,-114.5 248.39,-110.64 253.51,-107.57 258.92,-105.11"/>
<polygon fill="black" stroke="black" points="140.68,-334.11 142.7,-344.51 147.61,-335.13 140.68,-334.11"/>
</g>
<!-- Node13 -->
<g id="Node000013" class="node">
<title>Node13</title>
<g id="a_Node000013"><a xlink:href="group__RCC__System__Clock__Source__Status.html" target="_top" xlink:title=" ">
<polygon fill="white" stroke="#666666" points="372,-67.5 253,-67.5 253,-37.5 372,-37.5 372,-67.5"/>
<text text-anchor="start" x="261" y="-55.5" font-family="Helvetica,sans-Serif" font-size="10.00">System Clock Source</text>
<text text-anchor="middle" x="312.5" y="-44.5" font-family="Helvetica,sans-Serif" font-size="10.00"> Status</text>
</a>
</g>
</g>
<!-- Node1&#45;&gt;Node13 -->
<g id="edge12" class="edge">
<title>Node1&#45;&gt;Node13</title>
<path fill="none" stroke="black" d="M143.23,-334.77C148.65,-284.78 169.67,-151.85 244,-77.5 247.89,-73.61 252.43,-70.32 257.29,-67.54"/>
<polygon fill="black" stroke="black" points="139.73,-334.58 142.23,-344.88 146.7,-335.27 139.73,-334.58"/>
</g>
<!-- Node11 -->
<g id="Node000011" class="node">
<title>Node11</title>
<g id="a_Node000011"><a xlink:href="group__RCC__System__Clock__Type.html" target="_top" xlink:title=" ">
<polygon fill="white" stroke="#666666" points="367,-19 258,-19 258,0 367,0 367,-19"/>
<text text-anchor="middle" x="312.5" y="-7" font-family="Helvetica,sans-Serif" font-size="10.00">System Clock Type</text>
</a>
</g>
</g>
<!-- Node1&#45;&gt;Node11 -->
<g id="edge10" class="edge">
<title>Node1&#45;&gt;Node11</title>
<path fill="none" stroke="black" d="M141.59,-334.76C142.94,-278.37 154.77,-115.08 244,-28.5 248.02,-24.6 252.77,-21.49 257.87,-19.01"/>
<polygon fill="black" stroke="black" points="138.09,-334.78 141.43,-344.83 145.08,-334.88 138.09,-334.78"/>
</g>
</g>
</svg>

<g id="navigator" transform="translate(0 0)" fill="#404254">
  <rect fill="#f2f5e9" fill-opacity="0.5" stroke="#606060" stroke-width=".5" x="0" y="0" width="60" height="60"/>
  <use id="zoomplus" xlink:href="#zoomPlus" x="17" y="9" onmousedown="handleZoom(evt,'in')"/>
  <use id="zoomminus" xlink:href="#zoomMin" x="42" y="9" onmousedown="handleZoom(evt,'out')"/>
  <use id="reset" xlink:href="#resetDef" x="30" y="36" onmousedown="handleReset()"/>
   <use id="arrowup" xlink:href="#arrowUp" x="0" y="0" onmousedown="handlePan(0,-1)"/>
  <use id="arrowright" xlink:href="#arrowRight" x="0" y="0" onmousedown="handlePan(1,0)"/>
  <use id="arrowdown" xlink:href="#arrowDown" x="0" y="0" onmousedown="handlePan(0,1)"/>
  <use id="arrowleft" xlink:href="#arrowLeft" x="0" y="0" onmousedown="handlePan(-1,0)"/>
</g>
<svg viewBox="0 0 15 15" width="100%" height="30px" preserveAspectRatio="xMaxYMin meet">
 <g id="arrow_out" transform="scale(0.3 0.3)">
  <a xlink:href="group__RCC__Exported__Constants_org.svg" target="_base">
   <rect id="button" ry="5" rx="5" y="6" x="6" height="38" width="38"
        fill="#f2f5e9" fill-opacity="0.5" stroke="#606060" stroke-width="1.0"/>
   <path id="arrow"
     d="M 11.500037,31.436501 C 11.940474,20.09759 22.043105,11.32322 32.158766,21.979434 L 37.068811,17.246167 C 37.068811,17.246167 37.088388,32 37.088388,32 L 22.160133,31.978069 C 22.160133,31.978069 26.997745,27.140456 26.997745,27.140456 C 18.528582,18.264221 13.291696,25.230495 11.500037,31.436501 z"
     style="fill:#404040;"/>
  </a>
 </g>
</svg>

<style type='text/css'>
<![CDATA[
[data-mouse-over-selected='false'] { opacity: 0.7; }
[data-mouse-over-selected='true']  { opacity: 1.0; }
]]>
</style>
<script type="application/ecmascript"><![CDATA[
document.addEventListener('DOMContentLoaded', (event) => {
  highlightEdges();
  highlightAdjacentNodes();
});
]]></script>
</svg>
