<?xml version="1.0" encoding="UTF-8" standalone="no"?>
<!DOCTYPE svg PUBLIC "-//W3C//DTD SVG 1.1//EN"
 "http://www.w3.org/Graphics/SVG/1.1/DTD/svg11.dtd">
<!-- Generated by graphviz version 2.43.0 (0)
 -->
<!-- Title: IWDG Pages: 1 -->
<svg width="401pt" height="212pt"
 viewBox="0.00 0.00 401.00 212.00" xmlns="http://www.w3.org/2000/svg" xmlns:xlink="http://www.w3.org/1999/xlink">
<g id="graph0" class="graph" transform="scale(1 1) rotate(0) translate(4 208)">
<title>IWDG</title>
<!-- Node1 -->
<g id="Node000001" class="node">
<title>Node1</title>
<g id="a_Node000001"><a xlink:title=" ">
<polygon fill="#999999" stroke="#666666" points="214,-111 170,-111 170,-92 214,-92 214,-111"/>
<text text-anchor="middle" x="192" y="-99" font-family="Helvetica,sans-Serif" font-size="10.00">IWDG</text>
</a>
</g>
</g>
<!-- Node4 -->
<g id="Node000004" class="node">
<title>Node4</title>
<g id="a_Node000004"><a xlink:href="group__IWDG__Exported__Constants.html" target="_top" xlink:title=" ">
<polygon fill="white" stroke="#666666" points="393,-204 250,-204 250,-185 393,-185 393,-204"/>
<text text-anchor="middle" x="321.5" y="-192" font-family="Helvetica,sans-Serif" font-size="10.00">IWDG Exported Constants</text>
</a>
</g>
</g>
<!-- Node1&#45;&gt;Node4 -->
<g id="edge3" class="edge">
<title>Node1&#45;&gt;Node4</title>
<path fill="none" stroke="black" d="M202.5,-120.33C212.15,-137.53 228.69,-162.37 250,-176.5 255.16,-179.92 260.93,-182.69 266.88,-184.93"/>
<polygon fill="black" stroke="black" points="205.44,-118.39 197.64,-111.23 199.26,-121.69 205.44,-118.39"/>
</g>
<!-- Node6 -->
<g id="Node000006" class="node">
<title>Node6</title>
<g id="a_Node000006"><a xlink:href="group__IWDG__Exported__Functions.html" target="_top" xlink:title=" ">
<polygon fill="white" stroke="#666666" points="391.5,-167 251.5,-167 251.5,-148 391.5,-148 391.5,-167"/>
<text text-anchor="middle" x="321.5" y="-155" font-family="Helvetica,sans-Serif" font-size="10.00">IWDG Exported Functions</text>
</a>
</g>
</g>
<!-- Node1&#45;&gt;Node6 -->
<g id="edge5" class="edge">
<title>Node1&#45;&gt;Node6</title>
<path fill="none" stroke="black" d="M213.05,-117.3C223.55,-124.94 236.93,-133.68 250,-139.5 257.5,-142.84 265.74,-145.65 273.85,-147.97"/>
<polygon fill="black" stroke="black" points="215.07,-114.44 204.97,-111.24 210.87,-120.04 215.07,-114.44"/>
</g>
<!-- Node5 -->
<g id="Node000005" class="node">
<title>Node5</title>
<g id="a_Node000005"><a xlink:href="group__IWDG__Exported__Macros.html" target="_top" xlink:title=" ">
<polygon fill="white" stroke="#666666" points="386,-130 257,-130 257,-111 386,-111 386,-130"/>
<text text-anchor="middle" x="321.5" y="-118" font-family="Helvetica,sans-Serif" font-size="10.00">IWDG Exported Macros</text>
</a>
</g>
</g>
<!-- Node1&#45;&gt;Node5 -->
<g id="edge4" class="edge">
<title>Node1&#45;&gt;Node5</title>
<path fill="none" stroke="black" d="M224.16,-106.14C234.06,-107.62 245.4,-109.31 256.73,-111"/>
<polygon fill="black" stroke="black" points="224.46,-102.65 214.05,-104.64 223.43,-109.57 224.46,-102.65"/>
</g>
<!-- Node3 -->
<g id="Node000003" class="node">
<title>Node3</title>
<g id="a_Node000003"><a xlink:href="group__IWDG__Exported__Types.html" target="_top" xlink:title=" ">
<polygon fill="white" stroke="#666666" points="382.5,-93 260.5,-93 260.5,-74 382.5,-74 382.5,-93"/>
<text text-anchor="middle" x="321.5" y="-81" font-family="Helvetica,sans-Serif" font-size="10.00">IWDG Exported Types</text>
</a>
</g>
</g>
<!-- Node1&#45;&gt;Node3 -->
<g id="edge2" class="edge">
<title>Node1&#45;&gt;Node3</title>
<path fill="none" stroke="black" d="M223.98,-97.13C234.97,-95.57 247.74,-93.77 260.33,-91.99"/>
<polygon fill="black" stroke="black" points="223.47,-93.66 214.05,-98.53 224.45,-100.6 223.47,-93.66"/>
</g>
<!-- Node7 -->
<g id="Node000007" class="node">
<title>Node7</title>
<g id="a_Node000007"><a xlink:href="group__IWDG__Private__Constants.html" target="_top" xlink:title=" ">
<polygon fill="white" stroke="#666666" points="388.5,-56 254.5,-56 254.5,-37 388.5,-37 388.5,-56"/>
<text text-anchor="middle" x="321.5" y="-44" font-family="Helvetica,sans-Serif" font-size="10.00">IWDG Private Constants</text>
</a>
</g>
</g>
<!-- Node1&#45;&gt;Node7 -->
<g id="edge6" class="edge">
<title>Node1&#45;&gt;Node7</title>
<path fill="none" stroke="black" d="M213.83,-85.62C224.24,-78.32 237.3,-70.07 250,-64.5 257.52,-61.21 265.77,-58.42 273.89,-56.11"/>
<polygon fill="black" stroke="black" points="211.49,-83 205.45,-91.7 215.6,-88.67 211.49,-83"/>
</g>
<!-- Node8 -->
<g id="Node000008" class="node">
<title>Node8</title>
<g id="a_Node000008"><a xlink:href="group__IWDG__Private__Macros.html" target="_top" xlink:title=" ">
<polygon fill="white" stroke="#666666" points="381.5,-19 261.5,-19 261.5,0 381.5,0 381.5,-19"/>
<text text-anchor="middle" x="321.5" y="-7" font-family="Helvetica,sans-Serif" font-size="10.00">IWDG Private Macros</text>
</a>
</g>
</g>
<!-- Node1&#45;&gt;Node8 -->
<g id="edge7" class="edge">
<title>Node1&#45;&gt;Node8</title>
<path fill="none" stroke="black" d="M202.57,-82.92C212.26,-65.95 228.83,-41.44 250,-27.5 255.17,-24.1 260.94,-21.34 266.9,-19.1"/>
<polygon fill="black" stroke="black" points="199.38,-81.45 197.67,-91.9 205.53,-84.8 199.38,-81.45"/>
</g>
<!-- Node2 -->
<g id="Node000002" class="node">
<title>Node2</title>
<g id="a_Node000002"><a xlink:href="group__STM32F4xx__HAL__Driver.html" target="_top" xlink:title=" ">
<polygon fill="white" stroke="#666666" points="134,-111 0,-111 0,-92 134,-92 134,-111"/>
<text text-anchor="middle" x="67" y="-99" font-family="Helvetica,sans-Serif" font-size="10.00">STM32F4xx_HAL_Driver</text>
</a>
</g>
</g>
<!-- Node2&#45;&gt;Node1 -->
<g id="edge1" class="edge">
<title>Node2&#45;&gt;Node1</title>
<path fill="none" stroke="black" d="M144.41,-101.5C153.7,-101.5 162.51,-101.5 169.91,-101.5"/>
<polygon fill="black" stroke="black" points="144.18,-98 134.18,-101.5 144.18,-105 144.18,-98"/>
</g>
</g>
</svg>
