<?xml version="1.0" encoding="UTF-8" standalone="no"?>
<!DOCTYPE svg PUBLIC "-//W3C//DTD SVG 1.1//EN"
 "http://www.w3.org/Graphics/SVG/1.1/DTD/svg11.dtd">
<!-- Generated by graphviz version 2.43.0 (0)
 -->
<!-- Title: I2C_Exported_Functions Pages: 1 -->
<svg width="393pt" height="172pt"
 viewBox="0.00 0.00 393.00 171.50" xmlns="http://www.w3.org/2000/svg" xmlns:xlink="http://www.w3.org/1999/xlink">
<g id="graph0" class="graph" transform="scale(1 1) rotate(0) translate(4 167.5)">
<title>I2C_Exported_Functions</title>
<!-- Node2 -->
<g id="Node000002" class="node">
<title>Node2</title>
<g id="a_Node000002"><a xlink:href="group__I2C.html" target="_top" xlink:title="I2C HAL module driver.">
<polygon fill="white" stroke="#666666" points="32,-86 0,-86 0,-67 32,-67 32,-86"/>
<text text-anchor="middle" x="16" y="-74" font-family="Helvetica,sans-Serif" font-size="10.00">I2C</text>
</a>
</g>
</g>
<!-- Node1 -->
<g id="Node000001" class="node">
<title>Node1</title>
<g id="a_Node000001"><a xlink:title=" ">
<polygon fill="#999999" stroke="#666666" points="201,-86 68,-86 68,-67 201,-67 201,-86"/>
<text text-anchor="middle" x="134.5" y="-74" font-family="Helvetica,sans-Serif" font-size="10.00">I2C_Exported_Functions</text>
</a>
</g>
</g>
<!-- Node2&#45;&gt;Node1 -->
<g id="edge1" class="edge">
<title>Node2&#45;&gt;Node1</title>
<path fill="none" stroke="black" d="M42.25,-76.5C49.95,-76.5 58.79,-76.5 67.87,-76.5"/>
<polygon fill="black" stroke="black" points="42.23,-73 32.23,-76.5 42.23,-80 42.23,-73"/>
</g>
<!-- Node3 -->
<g id="Node000003" class="node">
<title>Node3</title>
<g id="a_Node000003"><a xlink:href="group__I2C__Exported__Functions__Group1.html" target="_top" xlink:title=" ">
<polygon fill="white" stroke="#666666" points="383,-163.5 239,-163.5 239,-133.5 383,-133.5 383,-163.5"/>
<text text-anchor="start" x="247" y="-151.5" font-family="Helvetica,sans-Serif" font-size="10.00">Initialization and</text>
<text text-anchor="middle" x="311" y="-140.5" font-family="Helvetica,sans-Serif" font-size="10.00"> de&#45;initialization functions</text>
</a>
</g>
</g>
<!-- Node1&#45;&gt;Node3 -->
<g id="edge2" class="edge">
<title>Node1&#45;&gt;Node3</title>
<path fill="none" stroke="black" d="M162.84,-90.57C183.04,-100.68 211.37,-114.27 237,-124.5 244.81,-127.62 253.19,-130.65 261.4,-133.46"/>
<polygon fill="black" stroke="black" points="164.4,-87.43 153.9,-86.05 161.25,-93.68 164.4,-87.43"/>
</g>
<!-- Node4 -->
<g id="Node000004" class="node">
<title>Node4</title>
<g id="a_Node000004"><a xlink:href="group__I2C__Exported__Functions__Group2.html" target="_top" xlink:title=" ">
<polygon fill="white" stroke="#666666" points="385,-115.5 237,-115.5 237,-85.5 385,-85.5 385,-115.5"/>
<text text-anchor="start" x="245" y="-103.5" font-family="Helvetica,sans-Serif" font-size="10.00">Input and Output operation</text>
<text text-anchor="middle" x="311" y="-92.5" font-family="Helvetica,sans-Serif" font-size="10.00"> functions</text>
</a>
</g>
</g>
<!-- Node1&#45;&gt;Node4 -->
<g id="edge3" class="edge">
<title>Node1&#45;&gt;Node4</title>
<path fill="none" stroke="black" d="M211.63,-86.97C220.03,-88.13 228.57,-89.3 236.93,-90.45"/>
<polygon fill="black" stroke="black" points="211.85,-83.47 201.47,-85.57 210.9,-90.4 211.85,-83.47"/>
</g>
<!-- Node6 -->
<g id="Node000006" class="node">
<title>Node6</title>
<g id="a_Node000006"><a xlink:href="group__I2C__Exported__Functions__Group3.html" target="_top" xlink:title=" ">
<polygon fill="white" stroke="#666666" points="375,-67.5 247,-67.5 247,-37.5 375,-37.5 375,-67.5"/>
<text text-anchor="start" x="255" y="-55.5" font-family="Helvetica,sans-Serif" font-size="10.00">Peripheral State, Mode</text>
<text text-anchor="middle" x="311" y="-44.5" font-family="Helvetica,sans-Serif" font-size="10.00"> and Error functions</text>
</a>
</g>
</g>
<!-- Node1&#45;&gt;Node6 -->
<g id="edge5" class="edge">
<title>Node1&#45;&gt;Node6</title>
<path fill="none" stroke="black" d="M211.69,-66.02C223.42,-64.41 235.42,-62.76 246.82,-61.19"/>
<polygon fill="black" stroke="black" points="210.9,-62.6 201.47,-67.43 211.85,-69.53 210.9,-62.6"/>
</g>
<!-- Node5 -->
<g id="Node000005" class="node">
<title>Node5</title>
<g id="a_Node000005"><a xlink:href="group__I2C__IRQ__Handler__and__Callbacks.html" target="_top" xlink:title=" ">
<polygon fill="white" stroke="#666666" points="384,-19 238,-19 238,0 384,0 384,-19"/>
<text text-anchor="middle" x="311" y="-7" font-family="Helvetica,sans-Serif" font-size="10.00">IRQ Handler and Callbacks</text>
</a>
</g>
</g>
<!-- Node1&#45;&gt;Node5 -->
<g id="edge4" class="edge">
<title>Node1&#45;&gt;Node5</title>
<path fill="none" stroke="black" d="M161.93,-62.32C182.08,-51.93 210.74,-38.03 237,-28.5 246.85,-24.93 257.67,-21.73 267.9,-19.02"/>
<polygon fill="black" stroke="black" points="160.28,-59.24 153.04,-66.97 163.52,-65.44 160.28,-59.24"/>
</g>
</g>
</svg>
