<?xml version="1.0" encoding="UTF-8" standalone="no"?>
<!DOCTYPE svg PUBLIC "-//W3C//DTD SVG 1.1//EN"
 "http://www.w3.org/Graphics/SVG/1.1/DTD/svg11.dtd">
<!-- Generated by graphviz version 12.2.1 (20241206.2353)
 -->
<!-- Title: GPIO Exported Constants Pages: 1 -->
<svg width="389pt" height="42pt"
 viewBox="0.00 0.00 389.00 41.50" xmlns="http://www.w3.org/2000/svg" xmlns:xlink="http://www.w3.org/1999/xlink">
<g id="graph0" class="graph" transform="scale(1 1) rotate(0) translate(4 37.5)">
<title>GPIO Exported Constants</title>
<!-- Node2 -->
<g id="Node000002" class="node">
<title>Node2</title>
<g id="a_Node000002"><a xlink:href="group__GPIOEx.html" target="_top" xlink:title=" ">
<polygon fill="white" stroke="#666666" points="50.5,-27.12 0,-27.12 0,-6.38 50.5,-6.38 50.5,-27.12"/>
<text text-anchor="middle" x="25.25" y="-13.62" font-family="Helvetica,sans-Serif" font-size="10.00">GPIOEx</text>
</a>
</g>
</g>
<!-- Node1 -->
<g id="Node000001" class="node">
<title>Node1</title>
<g id="a_Node000001"><a xlink:title=" ">
<polygon fill="#999999" stroke="#666666" points="218.75,-27.12 86.5,-27.12 86.5,-6.38 218.75,-6.38 218.75,-27.12"/>
<text text-anchor="middle" x="152.62" y="-13.62" font-family="Helvetica,sans-Serif" font-size="10.00">GPIO Exported Constants</text>
</a>
</g>
</g>
<!-- Node2&#45;&gt;Node1 -->
<g id="edge1" class="edge">
<title>Node2&#45;&gt;Node1</title>
<path fill="none" stroke="black" d="M62,-16.75C69.58,-16.75 77.79,-16.75 86.08,-16.75"/>
<polygon fill="black" stroke="black" points="62.23,-13.25 52.23,-16.75 62.23,-20.25 62.23,-13.25"/>
</g>
<!-- Node3 -->
<g id="Node000003" class="node">
<title>Node3</title>
<g id="a_Node000003"><a xlink:href="group__GPIO__Alternate__function__selection.html" target="_top" xlink:title=" ">
<polygon fill="white" stroke="#666666" points="381,-33.5 254.75,-33.5 254.75,0 381,0 381,-33.5"/>
<text text-anchor="start" x="262.75" y="-20" font-family="Helvetica,sans-Serif" font-size="10.00">GPIO Alternate Function</text>
<text text-anchor="middle" x="317.88" y="-7.25" font-family="Helvetica,sans-Serif" font-size="10.00"> Selection</text>
</a>
</g>
</g>
<!-- Node1&#45;&gt;Node3 -->
<g id="edge2" class="edge">
<title>Node1&#45;&gt;Node3</title>
<path fill="none" stroke="black" d="M230.36,-16.75C238.39,-16.75 246.48,-16.75 254.32,-16.75"/>
<polygon fill="black" stroke="black" points="230.6,-13.25 220.6,-16.75 230.6,-20.25 230.6,-13.25"/>
</g>
</g>
</svg>
