<?xml version="1.0" encoding="UTF-8" standalone="no"?>
<!DOCTYPE svg PUBLIC "-//W3C//DTD SVG 1.1//EN"
 "http://www.w3.org/Graphics/SVG/1.1/DTD/svg11.dtd">
<!-- Generated by graphviz version 12.2.1 (20241206.2353)
 -->
<!-- Title: PWREx Pages: 1 -->
<svg width="391pt" height="146pt"
 viewBox="0.00 0.00 391.25 145.75" xmlns="http://www.w3.org/2000/svg" xmlns:xlink="http://www.w3.org/1999/xlink">

<svg id="main" version="1.1" xmlns="http://www.w3.org/2000/svg" xmlns:xlink="http://www.w3.org/1999/xlink" xml:space="preserve">

<style type="text/css"><![CDATA[
.node, .edge {opacity: 0.7;}
.node.selected, .edge.selected {opacity: 1;}
.edge:hover path { stroke: red; }
.edge:hover polygon { stroke: red; fill: red; }
]]></style>
<script type="application/ecmascript" xlink:href="svg.min.js"/>
<svg id="graph" class="graph">
<g id="graph0" class="graph" transform="scale(1 1) rotate(0) translate(4 141.75)">
<title>PWREx</title>
<!-- Node1 -->
<g id="Node000001" class="node">
<title>Node1</title>
<g id="a_Node000001"><a xlink:title="PWR HAL module driver.">
<polygon fill="#999999" stroke="#666666" points="206.75,-78.75 158.5,-78.75 158.5,-58 206.75,-58 206.75,-78.75"/>
<text text-anchor="middle" x="182.62" y="-65.25" font-family="Helvetica,sans-Serif" font-size="10.00">PWREx</text>
</a>
</g>
</g>
<!-- Node3 -->
<g id="Node000003" class="node">
<title>Node3</title>
<g id="a_Node000003"><a xlink:href="group__PWREx__Exported__Constants.html" target="_top" xlink:title=" ">
<polygon fill="white" stroke="#666666" points="383.25,-137.75 242.75,-137.75 242.75,-117 383.25,-117 383.25,-137.75"/>
<text text-anchor="middle" x="313" y="-124.25" font-family="Helvetica,sans-Serif" font-size="10.00">PWREx Exported Constants</text>
</a>
</g>
</g>
<!-- Node1&#45;&gt;Node3 -->
<g id="edge2" class="edge">
<title>Node1&#45;&gt;Node3</title>
<path fill="none" stroke="black" d="M206.03,-85.48C216.71,-93 229.93,-101.46 242.75,-107.38 250.36,-110.89 258.74,-113.93 266.95,-116.51"/>
<polygon fill="black" stroke="black" points="208.4,-82.87 198.25,-79.81 204.28,-88.53 208.4,-82.87"/>
</g>
<!-- Node6 -->
<g id="Node000006" class="node">
<title>Node6</title>
<g id="a_Node000006"><a xlink:href="group__PWREx__Exported__Functions.html" target="_top" xlink:title=" ">
<polygon fill="white" stroke="#666666" points="382.12,-98.75 243.88,-98.75 243.88,-78 382.12,-78 382.12,-98.75"/>
<text text-anchor="middle" x="313" y="-85.25" font-family="Helvetica,sans-Serif" font-size="10.00">PWREx Exported Functions</text>
</a>
</g>
</g>
<!-- Node1&#45;&gt;Node6 -->
<g id="edge5" class="edge">
<title>Node1&#45;&gt;Node6</title>
<path fill="none" stroke="black" d="M218.42,-73.8C226.26,-75.02 234.84,-76.35 243.54,-77.71"/>
<polygon fill="black" stroke="black" points="219.09,-70.36 208.67,-72.28 218.01,-77.27 219.09,-70.36"/>
</g>
<!-- Node4 -->
<g id="Node000004" class="node">
<title>Node4</title>
<g id="a_Node000004"><a xlink:href="group__PWREx__Private__Constants.html" target="_top" xlink:title=" ">
<polygon fill="white" stroke="#666666" points="378,-59.75 248,-59.75 248,-39 378,-39 378,-59.75"/>
<text text-anchor="middle" x="313" y="-46.25" font-family="Helvetica,sans-Serif" font-size="10.00">PWREx Private Constants</text>
</a>
</g>
</g>
<!-- Node1&#45;&gt;Node4 -->
<g id="edge3" class="edge">
<title>Node1&#45;&gt;Node4</title>
<path fill="none" stroke="black" d="M218.43,-63.22C227.5,-61.88 237.56,-60.39 247.63,-58.9"/>
<polygon fill="black" stroke="black" points="218.05,-59.74 208.67,-64.67 219.07,-66.67 218.05,-59.74"/>
</g>
<!-- Node5 -->
<g id="Node000005" class="node">
<title>Node5</title>
<g id="a_Node000005"><a xlink:href="group__PWREx__Private__Macros.html" target="_top" xlink:title=" ">
<polygon fill="white" stroke="#666666" points="370.88,-20.75 255.12,-20.75 255.12,0 370.88,0 370.88,-20.75"/>
<text text-anchor="middle" x="313" y="-7.25" font-family="Helvetica,sans-Serif" font-size="10.00">PWREx Private Macros</text>
</a>
</g>
</g>
<!-- Node1&#45;&gt;Node5 -->
<g id="edge4" class="edge">
<title>Node1&#45;&gt;Node5</title>
<path fill="none" stroke="black" d="M206.85,-51.22C217.4,-44.03 230.29,-36.03 242.75,-30.38 250.5,-26.86 259.02,-23.8 267.35,-21.2"/>
<polygon fill="black" stroke="black" points="204.94,-48.29 198.77,-56.91 208.96,-54.01 204.94,-48.29"/>
</g>
<!-- Node2 -->
<g id="Node000002" class="node">
<title>Node2</title>
<g id="a_Node000002"><a xlink:href="group__STM32F4xx__HAL__Driver.html" target="_top" xlink:title=" ">
<polygon fill="white" stroke="#666666" points="122.5,-78.75 0,-78.75 0,-58 122.5,-58 122.5,-78.75"/>
<text text-anchor="middle" x="61.25" y="-65.25" font-family="Helvetica,sans-Serif" font-size="10.00">STM32F4xx_HAL_Driver</text>
</a>
</g>
</g>
<!-- Node2&#45;&gt;Node1 -->
<g id="edge1" class="edge">
<title>Node2&#45;&gt;Node1</title>
<path fill="none" stroke="black" d="M134.38,-68.38C142.94,-68.38 151.15,-68.38 158.25,-68.38"/>
<polygon fill="black" stroke="black" points="134.5,-64.88 124.5,-68.38 134.5,-71.88 134.5,-64.88"/>
</g>
</g>
</svg>
</svg>

<style type='text/css'>
<![CDATA[
[data-mouse-over-selected='false'] { opacity: 0.7; }
[data-mouse-over-selected='true']  { opacity: 1.0; }
]]>
</style>
<script type="application/ecmascript"><![CDATA[
document.addEventListener('DOMContentLoaded', (event) => {
  highlightEdges();
  highlightAdjacentNodes();
});
]]></script>
</svg>
