<?xml version="1.0" encoding="UTF-8" standalone="no"?>
<!DOCTYPE svg PUBLIC "-//W3C//DTD SVG 1.1//EN"
 "http://www.w3.org/Graphics/SVG/1.1/DTD/svg11.dtd">
<!-- Generated by graphviz version 12.2.1 (20241206.2353)
 -->
<!-- Title: DMAEx Exported Functions Pages: 1 -->
<svg width="407pt" height="29pt"
 viewBox="0.00 0.00 407.00 28.75" xmlns="http://www.w3.org/2000/svg" xmlns:xlink="http://www.w3.org/1999/xlink">
<g id="page0,1_graph0" class="graph" transform="scale(1 1) rotate(0) translate(4 24.75)">
<title>DMAEx Exported Functions</title>
<!-- Node2 -->
<g id="Node000002" class="node">
<title>Node2</title>
<g id="a_Node000002"><a xlink:href="group__DMAEx.html" target="_top" xlink:title="DMA Extended HAL module driver.">
<polygon fill="white" stroke="#666666" points="47.5,-20.75 0,-20.75 0,0 47.5,0 47.5,-20.75"/>
<text text-anchor="middle" x="23.75" y="-7.25" font-family="Helvetica,sans-Serif" font-size="10.00">DMAEx</text>
</a>
</g>
</g>
<!-- Node1 -->
<g id="Node000001" class="node">
<title>Node1</title>
<g id="a_Node000001"><a xlink:title="DMAEx Exported functions.">
<polygon fill="#999999" stroke="#666666" points="221,-20.75 83.5,-20.75 83.5,0 221,0 221,-20.75"/>
<text text-anchor="middle" x="152.25" y="-7.25" font-family="Helvetica,sans-Serif" font-size="10.00">DMAEx Exported Functions</text>
</a>
</g>
</g>
<!-- Node2&#45;&gt;Node1 -->
<g id="edge1" class="edge">
<title>Node2&#45;&gt;Node1</title>
<path fill="none" stroke="black" d="M59.41,-10.38C66.87,-10.38 75.01,-10.38 83.25,-10.38"/>
<polygon fill="black" stroke="black" points="59.47,-6.88 49.47,-10.38 59.47,-13.88 59.47,-6.88"/>
</g>
<!-- Node3 -->
<g id="Node000003" class="node">
<title>Node3</title>
<g id="a_Node000003"><a xlink:href="group__DMAEx__Exported__Functions__Group1.html" target="_top" xlink:title="Extended features functions.">
<polygon fill="white" stroke="#666666" points="399,-20.75 257,-20.75 257,0 399,0 399,-20.75"/>
<text text-anchor="middle" x="328" y="-7.25" font-family="Helvetica,sans-Serif" font-size="10.00">Extended features functions</text>
</a>
</g>
</g>
<!-- Node1&#45;&gt;Node3 -->
<g id="edge2" class="edge">
<title>Node1&#45;&gt;Node3</title>
<path fill="none" stroke="black" d="M232.68,-10.38C240.71,-10.38 248.82,-10.38 256.74,-10.38"/>
<polygon fill="black" stroke="black" points="232.94,-6.88 222.94,-10.38 232.94,-13.88 232.94,-6.88"/>
</g>
</g>
</svg>
