<?xml version="1.0" encoding="UTF-8" standalone="no"?>
<!DOCTYPE svg PUBLIC "-//W3C//DTD SVG 1.1//EN"
 "http://www.w3.org/Graphics/SVG/1.1/DTD/svg11.dtd">
<!-- Generated by graphviz version 12.2.1 (20241206.2353)
 -->
<!-- Title: RCCEx Exported Constants Pages: 1 -->
<svg width="403pt" height="146pt"
 viewBox="0.00 0.00 402.50 145.75" xmlns="http://www.w3.org/2000/svg" xmlns:xlink="http://www.w3.org/1999/xlink">
<g id="page0,1_graph0" class="graph" transform="scale(1 1) rotate(0) translate(4 141.75)">
<title>RCCEx Exported Constants</title>
<!-- Node2 -->
<g id="Node000002" class="node">
<title>Node2</title>
<g id="a_Node000002"><a xlink:href="group__RCCEx.html" target="_top" xlink:title="RCCEx HAL module driver.">
<polygon fill="white" stroke="#666666" points="46,-78.75 0,-78.75 0,-58 46,-58 46,-78.75"/>
<text text-anchor="middle" x="23" y="-65.25" font-family="Helvetica,sans-Serif" font-size="10.00">RCCEx</text>
</a>
</g>
</g>
<!-- Node1 -->
<g id="Node000001" class="node">
<title>Node1</title>
<g id="a_Node000001"><a xlink:title=" ">
<polygon fill="#999999" stroke="#666666" points="220.25,-78.75 82,-78.75 82,-58 220.25,-58 220.25,-78.75"/>
<text text-anchor="middle" x="151.12" y="-65.25" font-family="Helvetica,sans-Serif" font-size="10.00">RCCEx Exported Constants</text>
</a>
</g>
</g>
<!-- Node2&#45;&gt;Node1 -->
<g id="edge1" class="edge">
<title>Node2&#45;&gt;Node1</title>
<path fill="none" stroke="black" d="M57.65,-68.38C65.1,-68.38 73.25,-68.38 81.53,-68.38"/>
<polygon fill="black" stroke="black" points="57.77,-64.88 47.77,-68.38 57.77,-71.88 57.77,-64.88"/>
</g>
<!-- Node5 -->
<g id="Node000005" class="node">
<title>Node5</title>
<g id="a_Node000005"><a xlink:href="group__RCCEx__PLLI2SP__Clock__Divider.html" target="_top" xlink:title=" ">
<polygon fill="white" stroke="#666666" points="392.62,-137.75 258.12,-137.75 258.12,-117 392.62,-117 392.62,-137.75"/>
<text text-anchor="middle" x="325.38" y="-124.25" font-family="Helvetica,sans-Serif" font-size="10.00">RCC PLLI2SP Clock Divider</text>
</a>
</g>
</g>
<!-- Node1&#45;&gt;Node5 -->
<g id="edge4" class="edge">
<title>Node1&#45;&gt;Node5</title>
<path fill="none" stroke="black" d="M190,-83.32C209.64,-90.88 234.1,-99.99 256.25,-107.38 265.72,-110.53 276.02,-113.7 285.67,-116.54"/>
<polygon fill="black" stroke="black" points="191.34,-80.08 180.75,-79.73 188.81,-86.61 191.34,-80.08"/>
</g>
<!-- Node6 -->
<g id="Node000006" class="node">
<title>Node6</title>
<g id="a_Node000006"><a xlink:href="group__RCCEx__PLLSAIP__Clock__Divider.html" target="_top" xlink:title=" ">
<polygon fill="white" stroke="#666666" points="393,-98.75 257.75,-98.75 257.75,-78 393,-78 393,-98.75"/>
<text text-anchor="middle" x="325.38" y="-85.25" font-family="Helvetica,sans-Serif" font-size="10.00">RCC PLLSAIP Clock Divider</text>
</a>
</g>
</g>
<!-- Node1&#45;&gt;Node6 -->
<g id="edge5" class="edge">
<title>Node1&#45;&gt;Node6</title>
<path fill="none" stroke="black" d="M231.87,-77.63C240.42,-78.63 249.06,-79.63 257.44,-80.6"/>
<polygon fill="black" stroke="black" points="232.54,-74.19 222.2,-76.51 231.73,-81.14 232.54,-74.19"/>
</g>
<!-- Node4 -->
<g id="Node000004" class="node">
<title>Node4</title>
<g id="a_Node000004"><a xlink:href="group__RCCEx__PLLSAI__DIVR.html" target="_top" xlink:title=" ">
<polygon fill="white" stroke="#666666" points="371.62,-59.75 279.12,-59.75 279.12,-39 371.62,-39 371.62,-59.75"/>
<text text-anchor="middle" x="325.38" y="-46.25" font-family="Helvetica,sans-Serif" font-size="10.00">RCC PLLSAI DIVR</text>
</a>
</g>
</g>
<!-- Node1&#45;&gt;Node4 -->
<g id="edge3" class="edge">
<title>Node1&#45;&gt;Node4</title>
<path fill="none" stroke="black" d="M231.78,-59.59C247.9,-57.81 264.32,-56 278.77,-54.41"/>
<polygon fill="black" stroke="black" points="231.76,-56.07 222.2,-60.65 232.53,-63.03 231.76,-56.07"/>
</g>
<!-- Node3 -->
<g id="Node000003" class="node">
<title>Node3</title>
<g id="a_Node000003"><a xlink:href="group__RCCEx__Periph__Clock__Selection.html" target="_top" xlink:title=" ">
<polygon fill="white" stroke="#666666" points="394.5,-20.75 256.25,-20.75 256.25,0 394.5,0 394.5,-20.75"/>
<text text-anchor="middle" x="325.38" y="-7.25" font-family="Helvetica,sans-Serif" font-size="10.00">RCC Periph Clock Selection</text>
</a>
</g>
</g>
<!-- Node1&#45;&gt;Node3 -->
<g id="edge2" class="edge">
<title>Node1&#45;&gt;Node3</title>
<path fill="none" stroke="black" d="M190.85,-53.57C210.36,-46.28 234.45,-37.54 256.25,-30.38 265.85,-27.22 276.29,-24.03 286.05,-21.16"/>
<polygon fill="black" stroke="black" points="189.78,-50.23 181.65,-57.03 192.25,-56.78 189.78,-50.23"/>
</g>
</g>
</svg>
