<?xml version="1.0" encoding="UTF-8" standalone="no"?>
<!DOCTYPE svg PUBLIC "-//W3C//DTD SVG 1.1//EN"
 "http://www.w3.org/Graphics/SVG/1.1/DTD/svg11.dtd">
<!-- Generated by graphviz version 2.43.0 (0)
 -->
<!-- Title: IRDA Exported constants Pages: 1 -->
<svg width="399pt" height="249pt"
 viewBox="0.00 0.00 399.00 249.00" xmlns="http://www.w3.org/2000/svg" xmlns:xlink="http://www.w3.org/1999/xlink">
<g id="graph0" class="graph" transform="scale(1 1) rotate(0) translate(4 245)">
<title>IRDA Exported constants</title>
<!-- Node2 -->
<g id="Node000002" class="node">
<title>Node2</title>
<g id="a_Node000002"><a xlink:href="group__IRDA.html" target="_top" xlink:title="HAL IRDA module driver.">
<polygon fill="white" stroke="#666666" points="41,-130 0,-130 0,-111 41,-111 41,-130"/>
<text text-anchor="middle" x="20.5" y="-118" font-family="Helvetica,sans-Serif" font-size="10.00">IRDA</text>
</a>
</g>
</g>
<!-- Node1 -->
<g id="Node000001" class="node">
<title>Node1</title>
<g id="a_Node000001"><a xlink:title=" ">
<polygon fill="#999999" stroke="#666666" points="214,-130 77,-130 77,-111 214,-111 214,-130"/>
<text text-anchor="middle" x="145.5" y="-118" font-family="Helvetica,sans-Serif" font-size="10.00">IRDA Exported constants</text>
</a>
</g>
</g>
<!-- Node2&#45;&gt;Node1 -->
<g id="edge1" class="edge">
<title>Node2&#45;&gt;Node1</title>
<path fill="none" stroke="black" d="M51.29,-120.5C59.12,-120.5 67.9,-120.5 76.86,-120.5"/>
<polygon fill="black" stroke="black" points="51.26,-117 41.26,-120.5 51.26,-124 51.26,-117"/>
</g>
<!-- Node3 -->
<g id="Node000003" class="node">
<title>Node3</title>
<g id="a_Node000003"><a xlink:href="group__IRDA__Error__Code.html" target="_top" xlink:title=" ">
<polygon fill="white" stroke="#666666" points="368,-241 273,-241 273,-222 368,-222 368,-241"/>
<text text-anchor="middle" x="320.5" y="-229" font-family="Helvetica,sans-Serif" font-size="10.00">IRDA Error Code</text>
</a>
</g>
</g>
<!-- Node1&#45;&gt;Node3 -->
<g id="edge2" class="edge">
<title>Node1&#45;&gt;Node3</title>
<path fill="none" stroke="black" d="M160.99,-137.84C179.5,-158.87 213.52,-193.92 250,-213.5 257.03,-217.27 264.89,-220.28 272.72,-222.68"/>
<polygon fill="black" stroke="black" points="163.44,-135.32 154.26,-130.03 158.13,-139.89 163.44,-135.32"/>
</g>
<!-- Node8 -->
<g id="Node000008" class="node">
<title>Node8</title>
<g id="a_Node000008"><a xlink:href="group__IRDA__Flags.html" target="_top" xlink:title=" ">
<polygon fill="white" stroke="#666666" points="355.5,-204 285.5,-204 285.5,-185 355.5,-185 355.5,-204"/>
<text text-anchor="middle" x="320.5" y="-192" font-family="Helvetica,sans-Serif" font-size="10.00">IRDA Flags</text>
</a>
</g>
</g>
<!-- Node1&#45;&gt;Node8 -->
<g id="edge7" class="edge">
<title>Node1&#45;&gt;Node8</title>
<path fill="none" stroke="black" d="M170.01,-135.36C190.48,-147.78 221.31,-165.22 250,-176.5 261.25,-180.92 273.95,-184.58 285.39,-187.42"/>
<polygon fill="black" stroke="black" points="171.72,-132.31 161.37,-130.05 168.06,-138.27 171.72,-132.31"/>
</g>
<!-- Node9 -->
<g id="Node000009" class="node">
<title>Node9</title>
<g id="a_Node000009"><a xlink:href="group__IRDA__Interrupt__definition.html" target="_top" xlink:title=" ">
<polygon fill="white" stroke="#666666" points="391,-167 250,-167 250,-148 391,-148 391,-167"/>
<text text-anchor="middle" x="320.5" y="-155" font-family="Helvetica,sans-Serif" font-size="10.00">IRDA Interrupt Definitions</text>
</a>
</g>
</g>
<!-- Node1&#45;&gt;Node9 -->
<g id="edge8" class="edge">
<title>Node1&#45;&gt;Node9</title>
<path fill="none" stroke="black" d="M200.98,-132.15C224.75,-137.23 252.26,-143.12 274.8,-147.94"/>
<polygon fill="black" stroke="black" points="201.56,-128.7 191.05,-130.03 200.1,-135.54 201.56,-128.7"/>
</g>
<!-- Node7 -->
<g id="Node000007" class="node">
<title>Node7</title>
<g id="a_Node000007"><a xlink:href="group__IRDA__Low__Power.html" target="_top" xlink:title=" ">
<polygon fill="white" stroke="#666666" points="368.5,-130 272.5,-130 272.5,-111 368.5,-111 368.5,-130"/>
<text text-anchor="middle" x="320.5" y="-118" font-family="Helvetica,sans-Serif" font-size="10.00">IRDA Low Power</text>
</a>
</g>
</g>
<!-- Node1&#45;&gt;Node7 -->
<g id="edge6" class="edge">
<title>Node1&#45;&gt;Node7</title>
<path fill="none" stroke="black" d="M224.48,-120.5C240.82,-120.5 257.57,-120.5 272.37,-120.5"/>
<polygon fill="black" stroke="black" points="224.38,-117 214.38,-120.5 224.38,-124 224.38,-117"/>
</g>
<!-- Node6 -->
<g id="Node000006" class="node">
<title>Node6</title>
<g id="a_Node000006"><a xlink:href="group__IRDA__Mode.html" target="_top" xlink:title=" ">
<polygon fill="white" stroke="#666666" points="377,-93 264,-93 264,-74 377,-74 377,-93"/>
<text text-anchor="middle" x="320.5" y="-81" font-family="Helvetica,sans-Serif" font-size="10.00">IRDA Transfer Mode</text>
</a>
</g>
</g>
<!-- Node1&#45;&gt;Node6 -->
<g id="edge5" class="edge">
<title>Node1&#45;&gt;Node6</title>
<path fill="none" stroke="black" d="M200.98,-108.85C224.75,-103.77 252.26,-97.88 274.8,-93.06"/>
<polygon fill="black" stroke="black" points="200.1,-105.46 191.05,-110.97 201.56,-112.3 200.1,-105.46"/>
</g>
<!-- Node5 -->
<g id="Node000005" class="node">
<title>Node5</title>
<g id="a_Node000005"><a xlink:href="group__IRDA__Parity.html" target="_top" xlink:title=" ">
<polygon fill="white" stroke="#666666" points="356,-56 285,-56 285,-37 356,-37 356,-56"/>
<text text-anchor="middle" x="320.5" y="-44" font-family="Helvetica,sans-Serif" font-size="10.00">IRDA Parity</text>
</a>
</g>
</g>
<!-- Node1&#45;&gt;Node5 -->
<g id="edge4" class="edge">
<title>Node1&#45;&gt;Node5</title>
<path fill="none" stroke="black" d="M170.44,-105.81C190.96,-93.71 221.62,-76.76 250,-65.5 261.05,-61.12 273.46,-57.37 284.72,-54.39"/>
<polygon fill="black" stroke="black" points="168.55,-102.86 161.77,-111 172.14,-108.87 168.55,-102.86"/>
</g>
<!-- Node4 -->
<g id="Node000004" class="node">
<title>Node4</title>
<g id="a_Node000004"><a xlink:href="group__IRDA__Word__Length.html" target="_top" xlink:title=" ">
<polygon fill="white" stroke="#666666" points="372.5,-19 268.5,-19 268.5,0 372.5,0 372.5,-19"/>
<text text-anchor="middle" x="320.5" y="-7" font-family="Helvetica,sans-Serif" font-size="10.00">IRDA Word Length</text>
</a>
</g>
</g>
<!-- Node1&#45;&gt;Node4 -->
<g id="edge3" class="edge">
<title>Node1&#45;&gt;Node4</title>
<path fill="none" stroke="black" d="M161.36,-103.11C180.02,-82.36 213.96,-48.04 250,-28.5 257.04,-24.68 264.9,-21.59 272.74,-19.09"/>
<polygon fill="black" stroke="black" points="158.54,-101.02 154.56,-110.84 163.79,-105.64 158.54,-101.02"/>
</g>
</g>
</svg>
