<?xml version="1.0" encoding="UTF-8" standalone="no"?>
<!DOCTYPE svg PUBLIC "-//W3C//DTD SVG 1.1//EN"
 "http://www.w3.org/Graphics/SVG/1.1/DTD/svg11.dtd">
<!-- Generated by graphviz version 12.2.1 (20241206.2353)
 -->
<!-- Title: DMA Pages: 1 -->
<svg width="369pt" height="224pt"
 viewBox="0.00 0.00 368.75 223.75" xmlns="http://www.w3.org/2000/svg" xmlns:xlink="http://www.w3.org/1999/xlink">

<svg id="main" version="1.1" xmlns="http://www.w3.org/2000/svg" xmlns:xlink="http://www.w3.org/1999/xlink" xml:space="preserve">

<style type="text/css"><![CDATA[
.node, .edge {opacity: 0.7;}
.node.selected, .edge.selected {opacity: 1;}
.edge:hover path { stroke: red; }
.edge:hover polygon { stroke: red; fill: red; }
]]></style>
<script type="application/ecmascript" xlink:href="svg.min.js"/>
<svg id="graph" class="graph">
<g id="graph0" class="graph" transform="scale(1 1) rotate(0) translate(4 219.75)">
<title>DMA</title>
<!-- Node1 -->
<g id="Node000001" class="node">
<title>Node1</title>
<g id="a_Node000001"><a xlink:title="DMA HAL module driver.">
<polygon fill="#999999" stroke="#666666" points="195.5,-117.75 158.5,-117.75 158.5,-97 195.5,-97 195.5,-117.75"/>
<text text-anchor="middle" x="177" y="-104.25" font-family="Helvetica,sans-Serif" font-size="10.00">DMA</text>
</a>
</g>
</g>
<!-- Node4 -->
<g id="Node000004" class="node">
<title>Node4</title>
<g id="a_Node000004"><a xlink:href="group__DMA__Exported__Constants.html" target="_top" xlink:title="DMA Exported constants.">
<polygon fill="white" stroke="#666666" points="360.75,-215.75 231.5,-215.75 231.5,-195 360.75,-195 360.75,-215.75"/>
<text text-anchor="middle" x="296.12" y="-202.25" font-family="Helvetica,sans-Serif" font-size="10.00">DMA Exported Constants</text>
</a>
</g>
</g>
<!-- Node1&#45;&gt;Node4 -->
<g id="edge3" class="edge">
<title>Node1&#45;&gt;Node4</title>
<path fill="none" stroke="black" d="M187.44,-128.3C196.41,-145.93 211.48,-170.56 231.5,-185.38 236.53,-189.09 242.26,-192.13 248.19,-194.62"/>
<polygon fill="black" stroke="black" points="190.7,-127 183.21,-119.51 184.39,-130.04 190.7,-127"/>
</g>
<!-- Node5 -->
<g id="Node000005" class="node">
<title>Node5</title>
<g id="a_Node000005"><a xlink:href="group__DMA__Exported__Functions.html" target="_top" xlink:title="DMA Exported functions.">
<polygon fill="white" stroke="#666666" points="359.62,-176.75 232.62,-176.75 232.62,-156 359.62,-156 359.62,-176.75"/>
<text text-anchor="middle" x="296.12" y="-163.25" font-family="Helvetica,sans-Serif" font-size="10.00">DMA Exported Functions</text>
</a>
</g>
</g>
<!-- Node1&#45;&gt;Node5 -->
<g id="edge4" class="edge">
<title>Node1&#45;&gt;Node5</title>
<path fill="none" stroke="black" d="M198.7,-124.91C208.23,-132.31 219.96,-140.55 231.5,-146.38 238.53,-149.92 246.31,-152.99 253.96,-155.6"/>
<polygon fill="black" stroke="black" points="201.17,-122.4 191.18,-118.85 196.77,-127.85 201.17,-122.4"/>
</g>
<!-- Node3 -->
<g id="Node000003" class="node">
<title>Node3</title>
<g id="a_Node000003"><a xlink:href="group__DMA__Exported__Types.html" target="_top" xlink:title="DMA Exported Types.">
<polygon fill="white" stroke="#666666" points="350.62,-137.75 241.62,-137.75 241.62,-117 350.62,-117 350.62,-137.75"/>
<text text-anchor="middle" x="296.12" y="-124.25" font-family="Helvetica,sans-Serif" font-size="10.00">DMA Exported Types</text>
</a>
</g>
</g>
<!-- Node1&#45;&gt;Node3 -->
<g id="edge2" class="edge">
<title>Node1&#45;&gt;Node3</title>
<path fill="none" stroke="black" d="M207.1,-112.34C217.49,-114.12 229.56,-116.18 241.36,-118.19"/>
<polygon fill="black" stroke="black" points="207.73,-108.9 197.28,-110.67 206.55,-115.8 207.73,-108.9"/>
</g>
<!-- Node6 -->
<g id="Node000006" class="node">
<title>Node6</title>
<g id="a_Node000006"><a xlink:href="group__DMA__Private__Constants.html" target="_top" xlink:title="DMA private defines and constants.">
<polygon fill="white" stroke="#666666" points="355.5,-98.75 236.75,-98.75 236.75,-78 355.5,-78 355.5,-98.75"/>
<text text-anchor="middle" x="296.12" y="-85.25" font-family="Helvetica,sans-Serif" font-size="10.00">DMA Private Constants</text>
</a>
</g>
</g>
<!-- Node1&#45;&gt;Node6 -->
<g id="edge5" class="edge">
<title>Node1&#45;&gt;Node6</title>
<path fill="none" stroke="black" d="M207.11,-102.65C216.06,-101.2 226.25,-99.55 236.45,-97.89"/>
<polygon fill="black" stroke="black" points="206.59,-99.19 197.28,-104.25 207.71,-106.1 206.59,-99.19"/>
</g>
<!-- Node8 -->
<g id="Node000008" class="node">
<title>Node8</title>
<g id="a_Node000008"><a xlink:href="group__DMA__Private__Functions.html" target="_top" xlink:title="DMA private functions.">
<polygon fill="white" stroke="#666666" points="354.38,-59.75 237.88,-59.75 237.88,-39 354.38,-39 354.38,-59.75"/>
<text text-anchor="middle" x="296.12" y="-46.25" font-family="Helvetica,sans-Serif" font-size="10.00">DMA Private Functions</text>
</a>
</g>
</g>
<!-- Node1&#45;&gt;Node8 -->
<g id="edge7" class="edge">
<title>Node1&#45;&gt;Node8</title>
<path fill="none" stroke="black" d="M199.44,-89.8C208.85,-82.73 220.29,-74.94 231.5,-69.38 238.55,-65.87 246.35,-62.82 253.99,-60.22"/>
<polygon fill="black" stroke="black" points="197.4,-86.96 191.66,-95.87 201.7,-92.48 197.4,-86.96"/>
</g>
<!-- Node7 -->
<g id="Node000007" class="node">
<title>Node7</title>
<g id="a_Node000007"><a xlink:href="group__DMA__Private__Macros.html" target="_top" xlink:title="DMA private macros.">
<polygon fill="white" stroke="#666666" points="348.38,-20.75 243.88,-20.75 243.88,0 348.38,0 348.38,-20.75"/>
<text text-anchor="middle" x="296.12" y="-7.25" font-family="Helvetica,sans-Serif" font-size="10.00">DMA Private Macros</text>
</a>
</g>
</g>
<!-- Node1&#45;&gt;Node7 -->
<g id="edge6" class="edge">
<title>Node1&#45;&gt;Node7</title>
<path fill="none" stroke="black" d="M187.63,-86.47C196.65,-69.09 211.71,-44.93 231.5,-30.38 236.54,-26.67 242.28,-23.64 248.21,-21.16"/>
<polygon fill="black" stroke="black" points="184.52,-84.86 183.26,-95.38 190.81,-87.95 184.52,-84.86"/>
</g>
<!-- Node2 -->
<g id="Node000002" class="node">
<title>Node2</title>
<g id="a_Node000002"><a xlink:href="group__STM32F4xx__HAL__Driver.html" target="_top" xlink:title=" ">
<polygon fill="white" stroke="#666666" points="122.5,-117.75 0,-117.75 0,-97 122.5,-97 122.5,-117.75"/>
<text text-anchor="middle" x="61.25" y="-104.25" font-family="Helvetica,sans-Serif" font-size="10.00">STM32F4xx_HAL_Driver</text>
</a>
</g>
</g>
<!-- Node2&#45;&gt;Node1 -->
<g id="edge1" class="edge">
<title>Node2&#45;&gt;Node1</title>
<path fill="none" stroke="black" d="M134.18,-107.38C143.01,-107.38 151.32,-107.38 158.17,-107.38"/>
<polygon fill="black" stroke="black" points="134.3,-103.88 124.3,-107.38 134.3,-110.88 134.3,-103.88"/>
</g>
</g>
</svg>
</svg>

<style type='text/css'>
<![CDATA[
[data-mouse-over-selected='false'] { opacity: 0.7; }
[data-mouse-over-selected='true']  { opacity: 1.0; }
]]>
</style>
<script type="application/ecmascript"><![CDATA[
document.addEventListener('DOMContentLoaded', (event) => {
  highlightEdges();
  highlightAdjacentNodes();
});
]]></script>
</svg>
