<?xml version="1.0" encoding="UTF-8" standalone="no"?>
<!DOCTYPE svg PUBLIC "-//W3C//DTD SVG 1.1//EN"
 "http://www.w3.org/Graphics/SVG/1.1/DTD/svg11.dtd">
<!-- Generated by graphviz version 12.2.1 (20241206.2353)
 -->
<!-- Title: FLASHEx_Exported_Functions Pages: 1 -->
<svg width="442pt" height="42pt"
 viewBox="0.00 0.00 441.50 41.50" xmlns="http://www.w3.org/2000/svg" xmlns:xlink="http://www.w3.org/1999/xlink">
<g id="page0,1_graph0" class="graph" transform="scale(1 1) rotate(0) translate(4 37.5)">
<title>FLASHEx_Exported_Functions</title>
<!-- Node2 -->
<g id="Node000002" class="node">
<title>Node2</title>
<g id="a_Node000002"><a xlink:href="group__FLASHEx.html" target="_top" xlink:title="FLASH HAL Extension module driver.">
<polygon fill="white" stroke="#666666" points="56.5,-27.12 0,-27.12 0,-6.38 56.5,-6.38 56.5,-27.12"/>
<text text-anchor="middle" x="28.25" y="-13.62" font-family="Helvetica,sans-Serif" font-size="10.00">FLASHEx</text>
</a>
</g>
</g>
<!-- Node1 -->
<g id="Node000001" class="node">
<title>Node1</title>
<g id="a_Node000001"><a xlink:title=" ">
<polygon fill="#999999" stroke="#666666" points="245,-27.12 92.5,-27.12 92.5,-6.38 245,-6.38 245,-27.12"/>
<text text-anchor="middle" x="168.75" y="-13.62" font-family="Helvetica,sans-Serif" font-size="10.00">FLASHEx_Exported_Functions</text>
</a>
</g>
</g>
<!-- Node2&#45;&gt;Node1 -->
<g id="edge1" class="edge">
<title>Node2&#45;&gt;Node1</title>
<path fill="none" stroke="black" d="M68.24,-16.75C75.78,-16.75 83.91,-16.75 92.17,-16.75"/>
<polygon fill="black" stroke="black" points="68.46,-13.25 58.46,-16.75 68.46,-20.25 68.46,-13.25"/>
</g>
<!-- Node3 -->
<g id="Node000003" class="node">
<title>Node3</title>
<g id="a_Node000003"><a xlink:href="group__FLASHEx__Exported__Functions__Group1.html" target="_top" xlink:title=" ">
<polygon fill="white" stroke="#666666" points="433.5,-33.5 281,-33.5 281,0 433.5,0 433.5,-33.5"/>
<text text-anchor="start" x="289" y="-20" font-family="Helvetica,sans-Serif" font-size="10.00">FLASHEx_Exported_Functions</text>
<text text-anchor="middle" x="357.25" y="-7.25" font-family="Helvetica,sans-Serif" font-size="10.00">_Group1</text>
</a>
</g>
</g>
<!-- Node1&#45;&gt;Node3 -->
<g id="edge2" class="edge">
<title>Node1&#45;&gt;Node3</title>
<path fill="none" stroke="black" d="M256.59,-16.75C264.59,-16.75 272.66,-16.75 280.55,-16.75"/>
<polygon fill="black" stroke="black" points="256.85,-13.25 246.85,-16.75 256.85,-20.25 256.85,-13.25"/>
</g>
</g>
</svg>
