<?xml version="1.0" encoding="UTF-8" standalone="no"?>
<!DOCTYPE svg PUBLIC "-//W3C//DTD SVG 1.1//EN"
 "http://www.w3.org/Graphics/SVG/1.1/DTD/svg11.dtd">
<!-- Generated by graphviz version 2.43.0 (0)
 -->
<!-- Title: IWDG Exported Constants Pages: 1 -->
<svg width="359pt" height="27pt"
 viewBox="0.00 0.00 359.00 27.00" xmlns="http://www.w3.org/2000/svg" xmlns:xlink="http://www.w3.org/1999/xlink">

<svg id="main" version="1.1" xmlns="http://www.w3.org/2000/svg" xmlns:xlink="http://www.w3.org/1999/xlink" xml:space="preserve">

<style type="text/css"><![CDATA[
.node, .edge {opacity: 0.7;}
.node.selected, .edge.selected {opacity: 1;}
.edge:hover path { stroke: red; }
.edge:hover polygon { stroke: red; fill: red; }
]]></style>
<script type="application/ecmascript" xlink:href="svg.min.js"/>
<svg id="graph" class="graph">
<g id="graph0" class="graph" transform="scale(1 1) rotate(0) translate(4 23)">
<title>IWDG Exported Constants</title>
<!-- Node2 -->
<g id="Node000002" class="node">
<title>Node2</title>
<g id="a_Node000002"><a xlink:href="group__IWDG.html" target="_top" xlink:title=" ">
<polygon fill="white" stroke="#666666" points="44,-19 0,-19 0,0 44,0 44,-19"/>
<text text-anchor="middle" x="22" y="-7" font-family="Helvetica,sans-Serif" font-size="10.00">IWDG</text>
</a>
</g>
</g>
<!-- Node1 -->
<g id="Node000001" class="node">
<title>Node1</title>
<g id="a_Node000001"><a xlink:title=" ">
<polygon fill="#999999" stroke="#666666" points="223,-19 80,-19 80,0 223,0 223,-19"/>
<text text-anchor="middle" x="151.5" y="-7" font-family="Helvetica,sans-Serif" font-size="10.00">IWDG Exported Constants</text>
</a>
</g>
</g>
<!-- Node2&#45;&gt;Node1 -->
<g id="edge1" class="edge">
<title>Node2&#45;&gt;Node1</title>
<path fill="none" stroke="black" d="M54.17,-9.5C62.05,-9.5 70.84,-9.5 79.81,-9.5"/>
<polygon fill="black" stroke="black" points="54.05,-6 44.05,-9.5 54.05,-13 54.05,-6"/>
</g>
<!-- Node3 -->
<g id="Node000003" class="node">
<title>Node3</title>
<g id="a_Node000003"><a xlink:href="group__IWDG__Prescaler.html" target="_top" xlink:title=" ">
<polygon fill="white" stroke="#666666" points="351,-19 259,-19 259,0 351,0 351,-19"/>
<text text-anchor="middle" x="305" y="-7" font-family="Helvetica,sans-Serif" font-size="10.00">IWDG Prescaler</text>
</a>
</g>
</g>
<!-- Node1&#45;&gt;Node3 -->
<g id="edge2" class="edge">
<title>Node1&#45;&gt;Node3</title>
<path fill="none" stroke="black" d="M233.52,-9.5C242.15,-9.5 250.69,-9.5 258.69,-9.5"/>
<polygon fill="black" stroke="black" points="233.37,-6 223.37,-9.5 233.37,-13 233.37,-6"/>
</g>
</g>
</svg>
</svg>

<style type='text/css'>
<![CDATA[
[data-mouse-over-selected='false'] { opacity: 0.7; }
[data-mouse-over-selected='true']  { opacity: 1.0; }
]]>
</style>
<script type="application/ecmascript"><![CDATA[
document.addEventListener('DOMContentLoaded', (event) => {
  highlightEdges();
  highlightAdjacentNodes();
});
]]></script>
</svg>
