<?xml version="1.0" encoding="UTF-8" standalone="no"?>
<!DOCTYPE svg PUBLIC "-//W3C//DTD SVG 1.1//EN"
 "http://www.w3.org/Graphics/SVG/1.1/DTD/svg11.dtd">
<!-- Generated by graphviz version 12.2.1 (20241206.2353)
 -->
<!-- Title: HAL_InitTick Pages: 1 -->
<svg width="270pt" height="185pt"
 viewBox="0.00 0.00 270.25 184.75" xmlns="http://www.w3.org/2000/svg" xmlns:xlink="http://www.w3.org/1999/xlink">
<g id="page0,1_graph0" class="graph" transform="scale(1 1) rotate(0) translate(4 180.75)">
<title>HAL_InitTick</title>
<!-- Node1 -->
<g id="Node000001" class="node">
<title>Node1</title>
<g id="a_Node000001"><a xlink:title="This function configures the RTC_WKUP as a time base source. The time source is configured to have 1m...">
<polygon fill="#999999" stroke="#666666" points="73,-98.75 0,-98.75 0,-78 73,-78 73,-98.75"/>
<text text-anchor="middle" x="36.5" y="-85.25" font-family="Helvetica,sans-Serif" font-size="10.00">HAL_InitTick</text>
</a>
</g>
</g>
<!-- Node2 -->
<g id="Node000002" class="node">
<title>Node2</title>
<g id="a_Node000002"><a xlink:href="group__CORTEX__Exported__Functions__Group1.html#gaaad4492c1b25e006d69948a15790352a" target="_top" xlink:title=" ">
<polygon fill="white" stroke="#666666" points="243.88,-176.75 127.38,-176.75 127.38,-156 243.88,-156 243.88,-176.75"/>
<text text-anchor="middle" x="185.62" y="-163.25" font-family="Helvetica,sans-Serif" font-size="10.00">HAL_NVIC_EnableIRQ</text>
</a>
</g>
</g>
<!-- Node1&#45;&gt;Node2 -->
<g id="edge1_Node000001_Node000002" class="edge">
<title>Node1&#45;&gt;Node2</title>
<g id="a_edge1_Node000001_Node000002"><a xlink:title=" ">
<path fill="none" stroke="#63b8ff" d="M47.63,-98.99C60.64,-112.02 84.49,-133.92 109,-146.38 112.91,-148.36 117.03,-150.16 121.25,-151.8"/>
<polygon fill="#63b8ff" stroke="#63b8ff" points="119.87,-155.02 130.46,-155.02 122.18,-148.41 119.87,-155.02"/>
</a>
</g>
</g>
<!-- Node3 -->
<g id="Node000003" class="node">
<title>Node3</title>
<g id="a_Node000003"><a xlink:href="group__CORTEX__Exported__Functions__Group1.html#ga8581a82025a4780efd00876a66e3e91b" target="_top" xlink:title=" ">
<polygon fill="white" stroke="#666666" points="243.12,-137.75 128.12,-137.75 128.12,-117 243.12,-117 243.12,-137.75"/>
<text text-anchor="middle" x="185.62" y="-124.25" font-family="Helvetica,sans-Serif" font-size="10.00">HAL_NVIC_SetPriority</text>
</a>
</g>
</g>
<!-- Node1&#45;&gt;Node3 -->
<g id="edge2_Node000001_Node000003" class="edge">
<title>Node1&#45;&gt;Node3</title>
<g id="a_edge2_Node000001_Node000003"><a xlink:title=" ">
<path fill="none" stroke="#63b8ff" d="M73.14,-97.85C84.59,-100.9 97.33,-104.28 109,-107.38 116.67,-109.41 124.79,-111.56 132.74,-113.66"/>
<polygon fill="#63b8ff" stroke="#63b8ff" points="131.78,-117.03 142.34,-116.2 133.57,-110.26 131.78,-117.03"/>
</a>
</g>
</g>
<!-- Node4 -->
<g id="Node000004" class="node">
<title>Node4</title>
<g id="a_Node000004"><a xlink:href="group__RCC__Exported__Functions__Group1.html#gaaf070da42c717e9d2d79e858b647b782" target="_top" xlink:title=" ">
<polygon fill="white" stroke="#666666" points="241.62,-98.75 129.62,-98.75 129.62,-78 241.62,-78 241.62,-98.75"/>
<text text-anchor="middle" x="185.62" y="-85.25" font-family="Helvetica,sans-Serif" font-size="10.00">HAL_RCC_OscConfig</text>
</a>
</g>
</g>
<!-- Node1&#45;&gt;Node4 -->
<g id="edge3_Node000001_Node000004" class="edge">
<title>Node1&#45;&gt;Node4</title>
<g id="a_edge3_Node000001_Node000004"><a xlink:title=" ">
<path fill="none" stroke="#63b8ff" d="M73.49,-88.38C86.98,-88.38 102.76,-88.38 118.14,-88.38"/>
<polygon fill="#63b8ff" stroke="#63b8ff" points="117.71,-91.88 127.71,-88.38 117.71,-84.88 117.71,-91.88"/>
</a>
</g>
</g>
<!-- Node5 -->
<g id="Node000005" class="node">
<title>Node5</title>
<g id="a_Node000005"><a xlink:href="group__RCCEx__Exported__Functions__Group1.html#ga0c0f61a1e2f47cc81bc43d83ba3e0d95" target="_top" xlink:title=" ">
<polygon fill="white" stroke="#666666" points="262.25,-59.75 109,-59.75 109,-39 262.25,-39 262.25,-59.75"/>
<text text-anchor="middle" x="185.62" y="-46.25" font-family="Helvetica,sans-Serif" font-size="10.00">HAL_RCCEx_PeriphCLKConfig</text>
</a>
</g>
</g>
<!-- Node1&#45;&gt;Node5 -->
<g id="edge4_Node000001_Node000005" class="edge">
<title>Node1&#45;&gt;Node5</title>
<g id="a_edge4_Node000001_Node000005"><a xlink:title=" ">
<path fill="none" stroke="#63b8ff" d="M73.14,-78.9C84.59,-75.85 97.33,-72.47 109,-69.38 116.67,-67.34 124.79,-65.19 132.74,-63.09"/>
<polygon fill="#63b8ff" stroke="#63b8ff" points="133.57,-66.49 142.34,-60.55 131.78,-59.72 133.57,-66.49"/>
</a>
</g>
</g>
<!-- Node6 -->
<g id="Node000006" class="node">
<title>Node6</title>
<g id="a_Node000006"><a xlink:href="group__RTC__Exported__Functions__Group1.html#gaa6b53830aa3e2efaf210c0b1d3e5f4a4" target="_top" xlink:title=" ">
<polygon fill="white" stroke="#666666" points="225.12,-20.75 146.12,-20.75 146.12,0 225.12,0 225.12,-20.75"/>
<text text-anchor="middle" x="185.62" y="-7.25" font-family="Helvetica,sans-Serif" font-size="10.00">HAL_RTC_Init</text>
</a>
</g>
</g>
<!-- Node1&#45;&gt;Node6 -->
<g id="edge5_Node000001_Node000006" class="edge">
<title>Node1&#45;&gt;Node6</title>
<g id="a_edge5_Node000001_Node000006"><a xlink:title=" ">
<path fill="none" stroke="#63b8ff" d="M47.63,-77.76C60.64,-64.73 84.49,-42.83 109,-30.38 117,-26.31 125.91,-23.01 134.73,-20.35"/>
<polygon fill="#63b8ff" stroke="#63b8ff" points="135.6,-23.74 144.31,-17.72 133.74,-16.99 135.6,-23.74"/>
</a>
</g>
</g>
</g>
</svg>
