<?xml version="1.0" encoding="UTF-8" standalone="no"?>
<!DOCTYPE svg PUBLIC "-//W3C//DTD SVG 1.1//EN"
 "http://www.w3.org/Graphics/SVG/1.1/DTD/svg11.dtd">
<!-- Generated by graphviz version 2.43.0 (0)
 -->
<!-- Title: ADC Exported Constants Pages: 1 -->
<svg width="416pt" height="246pt"
 viewBox="0.00 0.00 416.00 246.00" xmlns="http://www.w3.org/2000/svg" xmlns:xlink="http://www.w3.org/1999/xlink">
<g id="graph0" class="graph" transform="scale(1 1) rotate(0) translate(4 242)">
<title>ADC Exported Constants</title>
<!-- Node2 -->
<g id="Node000002" class="node">
<title>Node2</title>
<g id="a_Node000002"><a xlink:href="group__ADCEx.html" target="_top" xlink:title="ADC Extended driver modules.">
<polygon fill="white" stroke="#666666" points="50,-123 0,-123 0,-104 50,-104 50,-123"/>
<text text-anchor="middle" x="25" y="-111" font-family="Helvetica,sans-Serif" font-size="10.00">ADCEx</text>
</a>
</g>
</g>
<!-- Node1 -->
<g id="Node000001" class="node">
<title>Node1</title>
<g id="a_Node000001"><a xlink:title=" ">
<polygon fill="#999999" stroke="#666666" points="222,-123 86,-123 86,-104 222,-104 222,-123"/>
<text text-anchor="middle" x="154" y="-111" font-family="Helvetica,sans-Serif" font-size="10.00">ADC Exported Constants</text>
</a>
</g>
</g>
<!-- Node2&#45;&gt;Node1 -->
<g id="edge1" class="edge">
<title>Node2&#45;&gt;Node1</title>
<path fill="none" stroke="black" d="M60.44,-113.5C68.35,-113.5 77.03,-113.5 85.8,-113.5"/>
<polygon fill="black" stroke="black" points="60.19,-110 50.19,-113.5 60.19,-117 60.19,-110"/>
</g>
<!-- Node3 -->
<g id="Node000003" class="node">
<title>Node3</title>
<g id="a_Node000003"><a xlink:href="group__ADCEx__Common__mode.html" target="_top" xlink:title=" ">
<polygon fill="white" stroke="#666666" points="390.5,-238 275.5,-238 275.5,-219 390.5,-219 390.5,-238"/>
<text text-anchor="middle" x="333" y="-226" font-family="Helvetica,sans-Serif" font-size="10.00">ADC Common Mode</text>
</a>
</g>
</g>
<!-- Node4 -->
<g id="Node000004" class="node">
<title>Node4</title>
<g id="a_Node000004"><a xlink:href="group__ADCEx__Direct__memory__access__mode__for__multi__mode.html" target="_top" xlink:title=" ">
<polygon fill="white" stroke="#666666" points="408,-200.5 258,-200.5 258,-170.5 408,-170.5 408,-200.5"/>
<text text-anchor="start" x="266" y="-188.5" font-family="Helvetica,sans-Serif" font-size="10.00">ADC Direct Memory Access</text>
<text text-anchor="middle" x="333" y="-177.5" font-family="Helvetica,sans-Serif" font-size="10.00"> Mode For Multi Mode</text>
</a>
</g>
</g>
<!-- Node1&#45;&gt;Node3 -->
<g id="edge2" class="edge">
<title>Node1&#45;&gt;Node3</title>
<path fill="none" stroke="black" d="M168.75,-130.82C186.89,-152.48 220.9,-189.19 258,-209.5 265.1,-213.38 273.01,-216.5 280.96,-218.98"/>
<polygon fill="black" stroke="black" points="171.44,-128.57 162.4,-123.06 166.03,-133.01 171.44,-128.57"/>
</g>
<!-- Node1&#45;&gt;Node4 -->
<g id="edge3" class="edge">
<title>Node1&#45;&gt;Node4</title>
<path fill="none" stroke="black" d="M182.76,-127.57C203.26,-137.68 232.01,-151.27 258,-161.5 265.92,-164.62 274.42,-167.65 282.74,-170.46"/>
<polygon fill="black" stroke="black" points="184.19,-124.37 173.68,-123.05 181.08,-130.64 184.19,-124.37"/>
</g>
<!-- Node6 -->
<g id="Node000006" class="node">
<title>Node6</title>
<g id="a_Node000006"><a xlink:href="group__ADCEx__External__trigger__Source__Injected.html" target="_top" xlink:title=" ">
<polygon fill="white" stroke="#666666" points="391.5,-152.5 274.5,-152.5 274.5,-122.5 391.5,-122.5 391.5,-152.5"/>
<text text-anchor="start" x="282.5" y="-140.5" font-family="Helvetica,sans-Serif" font-size="10.00">ADC External Trigger</text>
<text text-anchor="middle" x="333" y="-129.5" font-family="Helvetica,sans-Serif" font-size="10.00"> Source Injected</text>
</a>
</g>
</g>
<!-- Node1&#45;&gt;Node6 -->
<g id="edge5" class="edge">
<title>Node1&#45;&gt;Node6</title>
<path fill="none" stroke="black" d="M232.36,-123.99C246.49,-125.91 261,-127.87 274.42,-129.69"/>
<polygon fill="black" stroke="black" points="232.55,-120.48 222.17,-122.61 231.61,-127.42 232.55,-120.48"/>
</g>
<!-- Node5 -->
<g id="Node000005" class="node">
<title>Node5</title>
<g id="a_Node000005"><a xlink:href="group__ADCEx__External__trigger__edge__Injected.html" target="_top" xlink:title=" ">
<polygon fill="white" stroke="#666666" points="391.5,-104.5 274.5,-104.5 274.5,-74.5 391.5,-74.5 391.5,-104.5"/>
<text text-anchor="start" x="282.5" y="-92.5" font-family="Helvetica,sans-Serif" font-size="10.00">ADC External Trigger</text>
<text text-anchor="middle" x="333" y="-81.5" font-family="Helvetica,sans-Serif" font-size="10.00"> Edge Injected</text>
</a>
</g>
</g>
<!-- Node1&#45;&gt;Node5 -->
<g id="edge4" class="edge">
<title>Node1&#45;&gt;Node5</title>
<path fill="none" stroke="black" d="M232.36,-103.01C246.49,-101.09 261,-99.13 274.42,-97.31"/>
<polygon fill="black" stroke="black" points="231.61,-99.58 222.17,-104.39 232.55,-106.52 231.61,-99.58"/>
</g>
<!-- Node8 -->
<g id="Node000008" class="node">
<title>Node8</title>
<g id="a_Node000008"><a xlink:href="group__ADCEx__channels.html" target="_top" xlink:title=" ">
<polygon fill="white" stroke="#666666" points="396,-56 270,-56 270,-37 396,-37 396,-56"/>
<text text-anchor="middle" x="333" y="-44" font-family="Helvetica,sans-Serif" font-size="10.00">ADC Specific Channels</text>
</a>
</g>
</g>
<!-- Node1&#45;&gt;Node8 -->
<g id="edge7" class="edge">
<title>Node1&#45;&gt;Node8</title>
<path fill="none" stroke="black" d="M181.83,-99.32C202.29,-88.93 231.38,-75.03 258,-65.5 267.99,-61.92 278.96,-58.73 289.33,-56.02"/>
<polygon fill="black" stroke="black" points="180.1,-96.28 172.81,-103.97 183.3,-102.5 180.1,-96.28"/>
</g>
<!-- Node7 -->
<g id="Node000007" class="node">
<title>Node7</title>
<g id="a_Node000007"><a xlink:href="group__ADCEx__injected__rank.html" target="_top" xlink:title=" ">
<polygon fill="white" stroke="#666666" points="386.5,-19 279.5,-19 279.5,0 386.5,0 386.5,-19"/>
<text text-anchor="middle" x="333" y="-7" font-family="Helvetica,sans-Serif" font-size="10.00">ADC Injected Rank</text>
</a>
</g>
</g>
<!-- Node1&#45;&gt;Node7 -->
<g id="edge6" class="edge">
<title>Node1&#45;&gt;Node7</title>
<path fill="none" stroke="black" d="M170.88,-96.49C189.83,-77.2 223.31,-46.15 258,-28.5 265.57,-24.65 273.97,-21.54 282.33,-19.04"/>
<polygon fill="black" stroke="black" points="168.33,-94.1 163.92,-103.73 173.37,-98.95 168.33,-94.1"/>
</g>
</g>
</svg>
