<?xml version="1.0" encoding="UTF-8" standalone="no"?>
<!DOCTYPE svg PUBLIC "-//W3C//DTD SVG 1.1//EN"
 "http://www.w3.org/Graphics/SVG/1.1/DTD/svg11.dtd">
<!-- Generated by graphviz version 2.43.0 (0)
 -->
<!-- Title: RTC_Exported_Functions Pages: 1 -->
<svg width="385pt" height="230pt"
 viewBox="0.00 0.00 385.00 230.00" xmlns="http://www.w3.org/2000/svg" xmlns:xlink="http://www.w3.org/1999/xlink">

<svg id="main" version="1.1" xmlns="http://www.w3.org/2000/svg" xmlns:xlink="http://www.w3.org/1999/xlink" xml:space="preserve">

<style type="text/css"><![CDATA[
.node, .edge {opacity: 0.7;}
.node.selected, .edge.selected {opacity: 1;}
.edge:hover path { stroke: red; }
.edge:hover polygon { stroke: red; fill: red; }
]]></style>
<script type="application/ecmascript" xlink:href="svg.min.js"/>
<svg id="graph" class="graph">
<g id="graph0" class="graph" transform="scale(1 1) rotate(0) translate(4 226)">
<title>RTC_Exported_Functions</title>
<!-- Node2 -->
<g id="Node000002" class="node">
<title>Node2</title>
<g id="a_Node000002"><a xlink:href="group__RTC.html" target="_top" xlink:title="RTC HAL module driver.">
<polygon fill="white" stroke="#666666" points="35,-120.5 0,-120.5 0,-101.5 35,-101.5 35,-120.5"/>
<text text-anchor="middle" x="17.5" y="-108.5" font-family="Helvetica,sans-Serif" font-size="10.00">RTC</text>
</a>
</g>
</g>
<!-- Node1 -->
<g id="Node000001" class="node">
<title>Node1</title>
<g id="a_Node000001"><a xlink:title=" ">
<polygon fill="#999999" stroke="#666666" points="206,-120.5 71,-120.5 71,-101.5 206,-101.5 206,-120.5"/>
<text text-anchor="middle" x="138.5" y="-108.5" font-family="Helvetica,sans-Serif" font-size="10.00">RTC_Exported_Functions</text>
</a>
</g>
</g>
<!-- Node2&#45;&gt;Node1 -->
<g id="edge1" class="edge">
<title>Node2&#45;&gt;Node1</title>
<path fill="none" stroke="black" d="M45.22,-111C52.98,-111 61.83,-111 70.91,-111"/>
<polygon fill="black" stroke="black" points="45.05,-107.5 35.05,-111 45.05,-114.5 45.05,-107.5"/>
</g>
<!-- Node3 -->
<g id="Node000003" class="node">
<title>Node3</title>
<g id="a_Node000003"><a xlink:href="group__RTC__Exported__Functions__Group1.html" target="_top" xlink:title=" ">
<polygon fill="white" stroke="#666666" points="377,-222 242,-222 242,-192 377,-192 377,-222"/>
<text text-anchor="start" x="250" y="-210" font-family="Helvetica,sans-Serif" font-size="10.00">RTC_Exported_Functions</text>
<text text-anchor="middle" x="309.5" y="-199" font-family="Helvetica,sans-Serif" font-size="10.00">_Group1</text>
</a>
</g>
</g>
<!-- Node1&#45;&gt;Node3 -->
<g id="edge2" class="edge">
<title>Node1&#45;&gt;Node3</title>
<path fill="none" stroke="black" d="M158.8,-126.93C178.69,-142.75 211.07,-166.92 242,-183 248.21,-186.23 254.95,-189.21 261.68,-191.89"/>
<polygon fill="black" stroke="black" points="160.82,-124.06 150.84,-120.5 156.42,-129.51 160.82,-124.06"/>
</g>
<!-- Node4 -->
<g id="Node000004" class="node">
<title>Node4</title>
<g id="a_Node000004"><a xlink:href="group__RTC__Exported__Functions__Group2.html" target="_top" xlink:title=" ">
<polygon fill="white" stroke="#666666" points="377,-174 242,-174 242,-144 377,-144 377,-174"/>
<text text-anchor="start" x="250" y="-162" font-family="Helvetica,sans-Serif" font-size="10.00">RTC_Exported_Functions</text>
<text text-anchor="middle" x="309.5" y="-151" font-family="Helvetica,sans-Serif" font-size="10.00">_Group2</text>
</a>
</g>
</g>
<!-- Node1&#45;&gt;Node4 -->
<g id="edge3" class="edge">
<title>Node1&#45;&gt;Node4</title>
<path fill="none" stroke="black" d="M183.07,-123.37C205.16,-129.65 232.17,-137.32 255.47,-143.94"/>
<polygon fill="black" stroke="black" points="183.87,-119.96 173.29,-120.6 181.96,-126.7 183.87,-119.96"/>
</g>
<!-- Node5 -->
<g id="Node000005" class="node">
<title>Node5</title>
<g id="a_Node000005"><a xlink:href="group__RTC__Exported__Functions__Group3.html" target="_top" xlink:title=" ">
<polygon fill="white" stroke="#666666" points="377,-126 242,-126 242,-96 377,-96 377,-126"/>
<text text-anchor="start" x="250" y="-114" font-family="Helvetica,sans-Serif" font-size="10.00">RTC_Exported_Functions</text>
<text text-anchor="middle" x="309.5" y="-103" font-family="Helvetica,sans-Serif" font-size="10.00">_Group3</text>
</a>
</g>
</g>
<!-- Node1&#45;&gt;Node5 -->
<g id="edge4" class="edge">
<title>Node1&#45;&gt;Node5</title>
<path fill="none" stroke="black" d="M216.55,-111C225.02,-111 233.59,-111 241.92,-111"/>
<polygon fill="black" stroke="black" points="216.29,-107.5 206.29,-111 216.29,-114.5 216.29,-107.5"/>
</g>
<!-- Node6 -->
<g id="Node000006" class="node">
<title>Node6</title>
<g id="a_Node000006"><a xlink:href="group__RTC__Exported__Functions__Group4.html" target="_top" xlink:title=" ">
<polygon fill="white" stroke="#666666" points="377,-78 242,-78 242,-48 377,-48 377,-78"/>
<text text-anchor="start" x="250" y="-66" font-family="Helvetica,sans-Serif" font-size="10.00">RTC_Exported_Functions</text>
<text text-anchor="middle" x="309.5" y="-55" font-family="Helvetica,sans-Serif" font-size="10.00">_Group4</text>
</a>
</g>
</g>
<!-- Node1&#45;&gt;Node6 -->
<g id="edge5" class="edge">
<title>Node1&#45;&gt;Node6</title>
<path fill="none" stroke="black" d="M183.07,-98.63C205.16,-92.35 232.17,-84.68 255.47,-78.06"/>
<polygon fill="black" stroke="black" points="181.96,-95.3 173.29,-101.4 183.87,-102.04 181.96,-95.3"/>
</g>
<!-- Node7 -->
<g id="Node000007" class="node">
<title>Node7</title>
<g id="a_Node000007"><a xlink:href="group__RTC__Exported__Functions__Group5.html" target="_top" xlink:title=" ">
<polygon fill="white" stroke="#666666" points="377,-30 242,-30 242,0 377,0 377,-30"/>
<text text-anchor="start" x="250" y="-18" font-family="Helvetica,sans-Serif" font-size="10.00">RTC_Exported_Functions</text>
<text text-anchor="middle" x="309.5" y="-7" font-family="Helvetica,sans-Serif" font-size="10.00">_Group5</text>
</a>
</g>
</g>
<!-- Node1&#45;&gt;Node7 -->
<g id="edge6" class="edge">
<title>Node1&#45;&gt;Node7</title>
<path fill="none" stroke="black" d="M158.8,-95.07C178.69,-79.25 211.07,-55.08 242,-39 248.21,-35.77 254.95,-32.79 261.68,-30.11"/>
<polygon fill="black" stroke="black" points="156.42,-92.49 150.84,-101.5 160.82,-97.94 156.42,-92.49"/>
</g>
</g>
</svg>
</svg>

<style type='text/css'>
<![CDATA[
[data-mouse-over-selected='false'] { opacity: 0.7; }
[data-mouse-over-selected='true']  { opacity: 1.0; }
]]>
</style>
<script type="application/ecmascript"><![CDATA[
document.addEventListener('DOMContentLoaded', (event) => {
  highlightEdges();
  highlightAdjacentNodes();
});
]]></script>
</svg>
