<?xml version="1.0" encoding="UTF-8" standalone="no"?>
<!DOCTYPE svg PUBLIC "-//W3C//DTD SVG 1.1//EN"
 "http://www.w3.org/Graphics/SVG/1.1/DTD/svg11.dtd">
<!-- Generated by graphviz version 2.43.0 (0)
 -->
<!-- Title: FMC_LL Pages: 1 -->
<svg width="405pt" height="124pt"
 viewBox="0.00 0.00 405.00 123.50" xmlns="http://www.w3.org/2000/svg" xmlns:xlink="http://www.w3.org/1999/xlink">
<g id="graph0" class="graph" transform="scale(1 1) rotate(0) translate(4 119.5)">
<title>FMC_LL</title>
<!-- Node1 -->
<g id="Node000001" class="node">
<title>Node1</title>
<g id="a_Node000001"><a xlink:title=" ">
<polygon fill="#999999" stroke="#666666" points="224,-62 170,-62 170,-43 224,-43 224,-62"/>
<text text-anchor="middle" x="197" y="-50" font-family="Helvetica,sans-Serif" font-size="10.00">FMC_LL</text>
</a>
</g>
</g>
<!-- Node5 -->
<g id="Node000005" class="node">
<title>Node5</title>
<g id="a_Node000005"><a xlink:href="group__FMC__LL__Exported__Constants.html" target="_top" xlink:title=" ">
<polygon fill="white" stroke="#666666" points="397,-115.5 260,-115.5 260,-85.5 397,-85.5 397,-115.5"/>
<text text-anchor="start" x="268" y="-103.5" font-family="Helvetica,sans-Serif" font-size="10.00">FMC Low Layer Exported</text>
<text text-anchor="middle" x="328.5" y="-92.5" font-family="Helvetica,sans-Serif" font-size="10.00"> Constants</text>
</a>
</g>
</g>
<!-- Node1&#45;&gt;Node5 -->
<g id="edge4" class="edge">
<title>Node1&#45;&gt;Node5</title>
<path fill="none" stroke="black" d="M231.66,-65.73C240.83,-69.28 250.78,-73.08 260,-76.5 267.93,-79.44 276.41,-82.52 284.59,-85.44"/>
<polygon fill="black" stroke="black" points="232.67,-62.36 222.08,-62 230.14,-68.89 232.67,-62.36"/>
</g>
<!-- Node3 -->
<g id="Node000003" class="node">
<title>Node3</title>
<g id="a_Node000003"><a xlink:href="group__FMC__LL__Exported__typedef.html" target="_top" xlink:title=" ">
<polygon fill="white" stroke="#666666" points="397,-67.5 260,-67.5 260,-37.5 397,-37.5 397,-67.5"/>
<text text-anchor="start" x="268" y="-55.5" font-family="Helvetica,sans-Serif" font-size="10.00">FMC Low Layer Exported</text>
<text text-anchor="middle" x="328.5" y="-44.5" font-family="Helvetica,sans-Serif" font-size="10.00"> Types</text>
</a>
</g>
</g>
<!-- Node1&#45;&gt;Node3 -->
<g id="edge2" class="edge">
<title>Node1&#45;&gt;Node3</title>
<path fill="none" stroke="black" d="M234.26,-52.5C242.27,-52.5 251,-52.5 259.81,-52.5"/>
<polygon fill="black" stroke="black" points="234.21,-49 224.21,-52.5 234.21,-56 234.21,-49"/>
</g>
<!-- Node4 -->
<g id="Node000004" class="node">
<title>Node4</title>
<g id="a_Node000004"><a xlink:href="group__FMC__LL__Private__Macros.html" target="_top" xlink:title=" ">
<polygon fill="white" stroke="#666666" points="395,-19 262,-19 262,0 395,0 395,-19"/>
<text text-anchor="middle" x="328.5" y="-7" font-family="Helvetica,sans-Serif" font-size="10.00">FMC_LL &#160;Private Macros</text>
</a>
</g>
</g>
<!-- Node1&#45;&gt;Node4 -->
<g id="edge3" class="edge">
<title>Node1&#45;&gt;Node4</title>
<path fill="none" stroke="black" d="M230.51,-39.25C239.95,-35.58 250.33,-31.72 260,-28.5 270.05,-25.15 281.06,-21.88 291.23,-19.03"/>
<polygon fill="black" stroke="black" points="229.09,-36.05 221.07,-42.97 231.66,-42.56 229.09,-36.05"/>
</g>
<!-- Node2 -->
<g id="Node000002" class="node">
<title>Node2</title>
<g id="a_Node000002"><a xlink:href="group__STM32F4xx__HAL__Driver.html" target="_top" xlink:title=" ">
<polygon fill="white" stroke="#666666" points="134,-62 0,-62 0,-43 134,-43 134,-62"/>
<text text-anchor="middle" x="67" y="-50" font-family="Helvetica,sans-Serif" font-size="10.00">STM32F4xx_HAL_Driver</text>
</a>
</g>
</g>
<!-- Node2&#45;&gt;Node1 -->
<g id="edge1" class="edge">
<title>Node2&#45;&gt;Node1</title>
<path fill="none" stroke="black" d="M144.3,-52.5C153.47,-52.5 162.29,-52.5 169.96,-52.5"/>
<polygon fill="black" stroke="black" points="144.25,-49 134.25,-52.5 144.25,-56 144.25,-49"/>
</g>
</g>
</svg>
