<?xml version="1.0" encoding="UTF-8" standalone="no"?>
<!DOCTYPE svg PUBLIC "-//W3C//DTD SVG 1.1//EN"
 "http://www.w3.org/Graphics/SVG/1.1/DTD/svg11.dtd">
<!-- Generated by graphviz version 2.43.0 (0)
 -->
<!-- Title: FSMC_LL Pages: 1 -->
<svg width="416pt" height="124pt"
 viewBox="0.00 0.00 416.00 123.50" xmlns="http://www.w3.org/2000/svg" xmlns:xlink="http://www.w3.org/1999/xlink">

<svg id="main" version="1.1" xmlns="http://www.w3.org/2000/svg" xmlns:xlink="http://www.w3.org/1999/xlink" xml:space="preserve" onload="init(evt)">
<style type="text/css"><![CDATA[
.node, .edge {opacity: 0.7;}
.node.selected, .edge.selected {opacity: 1;}
.edge:hover path { stroke: red; }
.edge:hover polygon { stroke: red; fill: red; }
]]></style>
<script type="application/ecmascript" xlink:href="svg.min.js"/>
<svg id="graph" class="graph">
<g id="graph0" class="graph" transform="scale(1 1) rotate(0) translate(4 119.5)">
<title>FSMC_LL</title>
<!-- Node1 -->
<g id="Node000001" class="node">
<title>Node1</title>
<g id="a_Node000001"><a xlink:title=" ">
<polygon fill="#999999" stroke="#666666" points="229,-62 170,-62 170,-43 229,-43 229,-62"/>
<text text-anchor="middle" x="199.5" y="-50" font-family="Helvetica,sans-Serif" font-size="10.00">FSMC_LL</text>
</a>
</g>
</g>
<!-- Node5 -->
<g id="Node000005" class="node">
<title>Node5</title>
<g id="a_Node000005"><a xlink:href="group__FSMC__LL__Exported__Constants.html" target="_top" xlink:title=" ">
<polygon fill="white" stroke="#666666" points="408,-115.5 265,-115.5 265,-85.5 408,-85.5 408,-115.5"/>
<text text-anchor="start" x="273" y="-103.5" font-family="Helvetica,sans-Serif" font-size="10.00">FSMC Low Layer Exported</text>
<text text-anchor="middle" x="336.5" y="-92.5" font-family="Helvetica,sans-Serif" font-size="10.00"> Constants</text>
</a>
</g>
</g>
<!-- Node1&#45;&gt;Node5 -->
<g id="edge4" class="edge">
<title>Node1&#45;&gt;Node5</title>
<path fill="none" stroke="black" d="M235.22,-65.62C244.84,-69.2 255.31,-73.05 265,-76.5 273.28,-79.45 282.14,-82.53 290.68,-85.45"/>
<polygon fill="black" stroke="black" points="236.15,-62.23 225.56,-62.01 233.7,-68.79 236.15,-62.23"/>
</g>
<!-- Node3 -->
<g id="Node000003" class="node">
<title>Node3</title>
<g id="a_Node000003"><a xlink:href="group__FSMC__LL__Exported__typedef.html" target="_top" xlink:title=" ">
<polygon fill="white" stroke="#666666" points="408,-67.5 265,-67.5 265,-37.5 408,-37.5 408,-67.5"/>
<text text-anchor="start" x="273" y="-55.5" font-family="Helvetica,sans-Serif" font-size="10.00">FSMC Low Layer Exported</text>
<text text-anchor="middle" x="336.5" y="-44.5" font-family="Helvetica,sans-Serif" font-size="10.00"> Types</text>
</a>
</g>
</g>
<!-- Node1&#45;&gt;Node3 -->
<g id="edge2" class="edge">
<title>Node1&#45;&gt;Node3</title>
<path fill="none" stroke="black" d="M239.31,-52.5C247.39,-52.5 256.14,-52.5 264.97,-52.5"/>
<polygon fill="black" stroke="black" points="239.13,-49 229.13,-52.5 239.13,-56 239.13,-49"/>
</g>
<!-- Node4 -->
<g id="Node000004" class="node">
<title>Node4</title>
<g id="a_Node000004"><a xlink:href="group__FSMC__LL__Private__Macros.html" target="_top" xlink:title=" ">
<polygon fill="white" stroke="#666666" points="405.5,-19 267.5,-19 267.5,0 405.5,0 405.5,-19"/>
<text text-anchor="middle" x="336.5" y="-7" font-family="Helvetica,sans-Serif" font-size="10.00">FSMC_LL &#160;Private Macros</text>
</a>
</g>
</g>
<!-- Node1&#45;&gt;Node4 -->
<g id="edge3" class="edge">
<title>Node1&#45;&gt;Node4</title>
<path fill="none" stroke="black" d="M234.02,-39.35C243.93,-35.65 254.84,-31.75 265,-28.5 275.5,-25.14 287.01,-21.87 297.63,-19.01"/>
<polygon fill="black" stroke="black" points="232.62,-36.14 224.51,-42.96 235.1,-42.69 232.62,-36.14"/>
</g>
<!-- Node2 -->
<g id="Node000002" class="node">
<title>Node2</title>
<g id="a_Node000002"><a xlink:href="group__STM32F4xx__HAL__Driver.html" target="_top" xlink:title=" ">
<polygon fill="white" stroke="#666666" points="134,-62 0,-62 0,-43 134,-43 134,-62"/>
<text text-anchor="middle" x="67" y="-50" font-family="Helvetica,sans-Serif" font-size="10.00">STM32F4xx_HAL_Driver</text>
</a>
</g>
</g>
<!-- Node2&#45;&gt;Node1 -->
<g id="edge1" class="edge">
<title>Node2&#45;&gt;Node1</title>
<path fill="none" stroke="black" d="M144.05,-52.5C153.22,-52.5 162.1,-52.5 169.93,-52.5"/>
<polygon fill="black" stroke="black" points="144.01,-49 134.01,-52.5 144.01,-56 144.01,-49"/>
</g>
</g>
</svg>
</svg>

<style type='text/css'>
<![CDATA[
[data-mouse-over-selected='false'] { opacity: 0.7; }
[data-mouse-over-selected='true']  { opacity: 1.0; }
]]>
</style>
<script type="application/ecmascript"><![CDATA[
document.addEventListener('DOMContentLoaded', (event) => {
  highlightEdges();
  highlightAdjacentNodes();
});
]]></script>
</svg>
