<?xml version="1.0" encoding="UTF-8" standalone="no"?>
<!DOCTYPE svg PUBLIC "-//W3C//DTD SVG 1.1//EN"
 "http://www.w3.org/Graphics/SVG/1.1/DTD/svg11.dtd">
<!-- Generated by graphviz version 2.43.0 (0)
 -->
<!-- Title: SPI Pages: 1 -->
<svg width="378pt" height="175pt"
 viewBox="0.00 0.00 378.00 175.00" xmlns="http://www.w3.org/2000/svg" xmlns:xlink="http://www.w3.org/1999/xlink">
<g id="graph0" class="graph" transform="scale(1 1) rotate(0) translate(4 171)">
<title>SPI</title>
<!-- Node1 -->
<g id="Node000001" class="node">
<title>Node1</title>
<g id="a_Node000001"><a xlink:title="SPI HAL module driver.">
<polygon fill="#999999" stroke="#666666" points="202,-93 170,-93 170,-74 202,-74 202,-93"/>
<text text-anchor="middle" x="186" y="-81" font-family="Helvetica,sans-Serif" font-size="10.00">SPI</text>
</a>
</g>
</g>
<!-- Node4 -->
<g id="Node000004" class="node">
<title>Node4</title>
<g id="a_Node000004"><a xlink:href="group__SPI__Exported__Constants.html" target="_top" xlink:title=" ">
<polygon fill="white" stroke="#666666" points="369,-167 239,-167 239,-148 369,-148 369,-167"/>
<text text-anchor="middle" x="304" y="-155" font-family="Helvetica,sans-Serif" font-size="10.00">SPI Exported Constants</text>
</a>
</g>
</g>
<!-- Node1&#45;&gt;Node4 -->
<g id="edge3" class="edge">
<title>Node1&#45;&gt;Node4</title>
<path fill="none" stroke="black" d="M199.26,-101.63C208.53,-114.01 222.31,-129.86 238,-139.5 243.59,-142.93 249.84,-145.73 256.2,-147.99"/>
<polygon fill="black" stroke="black" points="202.01,-99.46 193.35,-93.37 196.32,-103.54 202.01,-99.46"/>
</g>
<!-- Node7 -->
<g id="Node000007" class="node">
<title>Node7</title>
<g id="a_Node000007"><a xlink:href="group__SPI__Exported__Functions.html" target="_top" xlink:title=" ">
<polygon fill="white" stroke="#666666" points="370,-130 238,-130 238,-111 370,-111 370,-130"/>
<text text-anchor="middle" x="304" y="-118" font-family="Helvetica,sans-Serif" font-size="10.00">SPI_Exported_Functions</text>
</a>
</g>
</g>
<!-- Node1&#45;&gt;Node7 -->
<g id="edge6" class="edge">
<title>Node1&#45;&gt;Node7</title>
<path fill="none" stroke="black" d="M211.57,-93.14C219.91,-96.28 229.31,-99.68 238,-102.5 247.13,-105.46 257.09,-108.37 266.39,-110.96"/>
<polygon fill="black" stroke="black" points="212.64,-89.81 202.05,-89.5 210.14,-96.34 212.64,-89.81"/>
</g>
<!-- Node5 -->
<g id="Node000005" class="node">
<title>Node5</title>
<g id="a_Node000005"><a xlink:href="group__SPI__Exported__Macros.html" target="_top" xlink:title=" ">
<polygon fill="white" stroke="#666666" points="362,-93 246,-93 246,-74 362,-74 362,-93"/>
<text text-anchor="middle" x="304" y="-81" font-family="Helvetica,sans-Serif" font-size="10.00">SPI Exported Macros</text>
</a>
</g>
</g>
<!-- Node1&#45;&gt;Node5 -->
<g id="edge4" class="edge">
<title>Node1&#45;&gt;Node5</title>
<path fill="none" stroke="black" d="M212.43,-83.5C222.32,-83.5 234.07,-83.5 245.79,-83.5"/>
<polygon fill="black" stroke="black" points="212.17,-80 202.16,-83.5 212.16,-87 212.17,-80"/>
</g>
<!-- Node3 -->
<g id="Node000003" class="node">
<title>Node3</title>
<g id="a_Node000003"><a xlink:href="group__SPI__Exported__Types.html" target="_top" xlink:title=" ">
<polygon fill="white" stroke="#666666" points="358.5,-56 249.5,-56 249.5,-37 358.5,-37 358.5,-56"/>
<text text-anchor="middle" x="304" y="-44" font-family="Helvetica,sans-Serif" font-size="10.00">SPI Exported Types</text>
</a>
</g>
</g>
<!-- Node1&#45;&gt;Node3 -->
<g id="edge2" class="edge">
<title>Node1&#45;&gt;Node3</title>
<path fill="none" stroke="black" d="M211.57,-73.86C219.91,-70.72 229.31,-67.32 238,-64.5 247.13,-61.54 257.09,-58.63 266.39,-56.04"/>
<polygon fill="black" stroke="black" points="210.14,-70.66 202.05,-77.5 212.64,-77.19 210.14,-70.66"/>
</g>
<!-- Node6 -->
<g id="Node000006" class="node">
<title>Node6</title>
<g id="a_Node000006"><a xlink:href="group__SPI__Private__Macros.html" target="_top" xlink:title=" ">
<polygon fill="white" stroke="#666666" points="357.5,-19 250.5,-19 250.5,0 357.5,0 357.5,-19"/>
<text text-anchor="middle" x="304" y="-7" font-family="Helvetica,sans-Serif" font-size="10.00">SPI Private Macros</text>
</a>
</g>
</g>
<!-- Node1&#45;&gt;Node6 -->
<g id="edge5" class="edge">
<title>Node1&#45;&gt;Node6</title>
<path fill="none" stroke="black" d="M199.26,-65.37C208.53,-52.99 222.31,-37.14 238,-27.5 243.59,-24.07 249.84,-21.27 256.2,-19.01"/>
<polygon fill="black" stroke="black" points="196.32,-63.46 193.35,-73.63 202.01,-67.54 196.32,-63.46"/>
</g>
<!-- Node2 -->
<g id="Node000002" class="node">
<title>Node2</title>
<g id="a_Node000002"><a xlink:href="group__STM32F4xx__HAL__Driver.html" target="_top" xlink:title=" ">
<polygon fill="white" stroke="#666666" points="134,-93 0,-93 0,-74 134,-74 134,-93"/>
<text text-anchor="middle" x="67" y="-81" font-family="Helvetica,sans-Serif" font-size="10.00">STM32F4xx_HAL_Driver</text>
</a>
</g>
</g>
<!-- Node2&#45;&gt;Node1 -->
<g id="edge1" class="edge">
<title>Node2&#45;&gt;Node1</title>
<path fill="none" stroke="black" d="M144.29,-83.5C153.94,-83.5 162.88,-83.5 169.9,-83.5"/>
<polygon fill="black" stroke="black" points="144.02,-80 134.02,-83.5 144.02,-87 144.02,-80"/>
</g>
</g>
</svg>
