<?xml version="1.0" encoding="UTF-8" standalone="no"?>
<!DOCTYPE svg PUBLIC "-//W3C//DTD SVG 1.1//EN"
 "http://www.w3.org/Graphics/SVG/1.1/DTD/svg11.dtd">
<!-- Generated by graphviz version 12.2.1 (20241206.2353)
 -->
<!-- Title: HAL Pages: 1 -->
<svg width="365pt" height="263pt"
 viewBox="0.00 0.00 365.00 262.75" xmlns="http://www.w3.org/2000/svg" xmlns:xlink="http://www.w3.org/1999/xlink">
<g id="page0,1_graph0" class="graph" transform="scale(1 1) rotate(0) translate(4 258.75)">
<title>HAL</title>
<!-- Node1 -->
<g id="Node000001" class="node">
<title>Node1</title>
<g id="a_Node000001"><a xlink:title="HAL module driver.">
<polygon fill="#999999" stroke="#666666" points="193.25,-137.75 158.5,-137.75 158.5,-117 193.25,-117 193.25,-137.75"/>
<text text-anchor="middle" x="175.88" y="-124.25" font-family="Helvetica,sans-Serif" font-size="10.00">HAL</text>
</a>
</g>
</g>
<!-- Node3 -->
<g id="Node000003" class="node">
<title>Node3</title>
<g id="a_Node000003"><a xlink:href="group__HAL__Exported__Constants.html" target="_top" xlink:title=" ">
<polygon fill="white" stroke="#666666" points="356.62,-254.75 229.62,-254.75 229.62,-234 356.62,-234 356.62,-254.75"/>
<text text-anchor="middle" x="293.12" y="-241.25" font-family="Helvetica,sans-Serif" font-size="10.00">HAL Exported Constants</text>
</a>
</g>
</g>
<!-- Node1&#45;&gt;Node3 -->
<g id="edge2" class="edge">
<title>Node1&#45;&gt;Node3</title>
<path fill="none" stroke="black" d="M183.22,-149C190.74,-171.01 205.37,-204.6 229.25,-224.38 233.75,-228.1 238.95,-231.14 244.4,-233.61"/>
<polygon fill="black" stroke="black" points="186.58,-148.04 180.21,-139.58 179.91,-150.17 186.58,-148.04"/>
</g>
<!-- Node8 -->
<g id="Node000008" class="node">
<title>Node8</title>
<g id="a_Node000008"><a xlink:href="group__HAL__Exported__Functions.html" target="_top" xlink:title=" ">
<polygon fill="white" stroke="#666666" points="355.5,-215.75 230.75,-215.75 230.75,-195 355.5,-195 355.5,-215.75"/>
<text text-anchor="middle" x="293.12" y="-202.25" font-family="Helvetica,sans-Serif" font-size="10.00">HAL Exported Functions</text>
</a>
</g>
</g>
<!-- Node1&#45;&gt;Node8 -->
<g id="edge7" class="edge">
<title>Node1&#45;&gt;Node8</title>
<path fill="none" stroke="black" d="M190.44,-147.15C199.98,-159.7 213.77,-175.41 229.25,-185.38 234.93,-189.03 241.33,-192.07 247.82,-194.57"/>
<polygon fill="black" stroke="black" points="193.35,-145.19 184.64,-139.15 187.68,-149.3 193.35,-145.19"/>
</g>
<!-- Node4 -->
<g id="Node000004" class="node">
<title>Node4</title>
<g id="a_Node000004"><a xlink:href="group__HAL__Exported__Macros.html" target="_top" xlink:title=" ">
<polygon fill="white" stroke="#666666" points="349.5,-176.75 236.75,-176.75 236.75,-156 349.5,-156 349.5,-176.75"/>
<text text-anchor="middle" x="293.12" y="-163.25" font-family="Helvetica,sans-Serif" font-size="10.00">HAL Exported Macros</text>
</a>
</g>
</g>
<!-- Node1&#45;&gt;Node4 -->
<g id="edge3" class="edge">
<title>Node1&#45;&gt;Node4</title>
<path fill="none" stroke="black" d="M204.06,-137.47C212.14,-140.41 221.03,-143.58 229.25,-146.38 238.25,-149.44 248.02,-152.62 257.12,-155.51"/>
<polygon fill="black" stroke="black" points="205.34,-134.21 194.75,-134.06 202.93,-140.79 205.34,-134.21"/>
</g>
<!-- Node9 -->
<g id="Node000009" class="node">
<title>Node9</title>
<g id="a_Node000009"><a xlink:href="group__HAL__Exported__Variables.html" target="_top" xlink:title=" ">
<polygon fill="white" stroke="#666666" points="357,-137.75 229.25,-137.75 229.25,-117 357,-117 357,-137.75"/>
<text text-anchor="middle" x="293.12" y="-124.25" font-family="Helvetica,sans-Serif" font-size="10.00">HAL_Exported_Variables</text>
</a>
</g>
</g>
<!-- Node1&#45;&gt;Node9 -->
<g id="edge8" class="edge">
<title>Node1&#45;&gt;Node9</title>
<path fill="none" stroke="black" d="M204.82,-127.38C212.19,-127.38 220.45,-127.38 228.87,-127.38"/>
<polygon fill="black" stroke="black" points="204.9,-123.88 194.9,-127.38 204.9,-130.88 204.9,-123.88"/>
</g>
<!-- Node7 -->
<g id="Node000007" class="node">
<title>Node7</title>
<g id="a_Node000007"><a xlink:href="group__HAL__Private__Constants.html" target="_top" xlink:title=" ">
<polygon fill="white" stroke="#666666" points="351.38,-98.75 234.88,-98.75 234.88,-78 351.38,-78 351.38,-98.75"/>
<text text-anchor="middle" x="293.12" y="-85.25" font-family="Helvetica,sans-Serif" font-size="10.00">HAL Private Constants</text>
</a>
</g>
</g>
<!-- Node1&#45;&gt;Node7 -->
<g id="edge6" class="edge">
<title>Node1&#45;&gt;Node7</title>
<path fill="none" stroke="black" d="M204.06,-117.28C212.14,-114.34 221.03,-111.17 229.25,-108.38 238.25,-105.31 248.02,-102.13 257.12,-99.24"/>
<polygon fill="black" stroke="black" points="202.93,-113.96 194.75,-120.69 205.34,-120.54 202.93,-113.96"/>
</g>
<!-- Node5 -->
<g id="Node000005" class="node">
<title>Node5</title>
<g id="a_Node000005"><a xlink:href="group__HAL__Private__Macros.html" target="_top" xlink:title=" ">
<polygon fill="white" stroke="#666666" points="344.25,-59.75 242,-59.75 242,-39 344.25,-39 344.25,-59.75"/>
<text text-anchor="middle" x="293.12" y="-46.25" font-family="Helvetica,sans-Serif" font-size="10.00">HAL Private Macros</text>
</a>
</g>
</g>
<!-- Node1&#45;&gt;Node5 -->
<g id="edge4" class="edge">
<title>Node1&#45;&gt;Node5</title>
<path fill="none" stroke="black" d="M190.44,-107.6C199.98,-95.05 213.77,-79.34 229.25,-69.38 234.93,-65.72 241.33,-62.68 247.82,-60.18"/>
<polygon fill="black" stroke="black" points="187.68,-105.45 184.64,-115.6 193.35,-109.56 187.68,-105.45"/>
</g>
<!-- Node6 -->
<g id="Node000006" class="node">
<title>Node6</title>
<g id="a_Node000006"><a xlink:href="group__HAL__Private__Variables.html" target="_top" xlink:title=" ">
<polygon fill="white" stroke="#666666" points="348.75,-20.75 237.5,-20.75 237.5,0 348.75,0 348.75,-20.75"/>
<text text-anchor="middle" x="293.12" y="-7.25" font-family="Helvetica,sans-Serif" font-size="10.00">HAL Private Variables</text>
</a>
</g>
</g>
<!-- Node1&#45;&gt;Node6 -->
<g id="edge5" class="edge">
<title>Node1&#45;&gt;Node6</title>
<path fill="none" stroke="black" d="M183.22,-105.75C190.74,-83.74 205.37,-50.15 229.25,-30.38 233.75,-26.65 238.95,-23.61 244.4,-21.14"/>
<polygon fill="black" stroke="black" points="179.91,-104.58 180.21,-115.17 186.58,-106.71 179.91,-104.58"/>
</g>
<!-- Node2 -->
<g id="Node000002" class="node">
<title>Node2</title>
<g id="a_Node000002"><a xlink:href="group__STM32F4xx__HAL__Driver.html" target="_top" xlink:title=" ">
<polygon fill="white" stroke="#666666" points="122.5,-137.75 0,-137.75 0,-117 122.5,-117 122.5,-137.75"/>
<text text-anchor="middle" x="61.25" y="-124.25" font-family="Helvetica,sans-Serif" font-size="10.00">STM32F4xx_HAL_Driver</text>
</a>
</g>
</g>
<!-- Node2&#45;&gt;Node1 -->
<g id="edge1" class="edge">
<title>Node2&#45;&gt;Node1</title>
<path fill="none" stroke="black" d="M134.08,-127.38C143.11,-127.38 151.56,-127.38 158.4,-127.38"/>
<polygon fill="black" stroke="black" points="134.36,-123.88 124.36,-127.38 134.36,-130.88 134.36,-123.88"/>
</g>
</g>
</svg>
