<?xml version="1.0" encoding="UTF-8" standalone="no"?>
<!DOCTYPE svg PUBLIC "-//W3C//DTD SVG 1.1//EN"
 "http://www.w3.org/Graphics/SVG/1.1/DTD/svg11.dtd">
<!-- Generated by graphviz version 12.2.1 (20241206.2353)
 -->
<!-- Title: GPIO_Exported_Functions Pages: 1 -->
<svg width="392pt" height="94pt"
 viewBox="0.00 0.00 392.00 93.50" xmlns="http://www.w3.org/2000/svg" xmlns:xlink="http://www.w3.org/1999/xlink">
<g id="page0,1_graph0" class="graph" transform="scale(1 1) rotate(0) translate(4 89.5)">
<title>GPIO_Exported_Functions</title>
<!-- Node2 -->
<g id="Node000002" class="node">
<title>Node2</title>
<g id="a_Node000002"><a xlink:href="group__GPIO.html" target="_top" xlink:title="GPIO HAL module driver.">
<polygon fill="white" stroke="#666666" points="40,-53.12 0,-53.12 0,-32.38 40,-32.38 40,-53.12"/>
<text text-anchor="middle" x="20" y="-39.62" font-family="Helvetica,sans-Serif" font-size="10.00">GPIO</text>
</a>
</g>
</g>
<!-- Node1 -->
<g id="Node000001" class="node">
<title>Node1</title>
<g id="a_Node000001"><a xlink:title=" ">
<polygon fill="#999999" stroke="#666666" points="212,-53.12 76,-53.12 76,-32.38 212,-32.38 212,-53.12"/>
<text text-anchor="middle" x="144" y="-39.62" font-family="Helvetica,sans-Serif" font-size="10.00">GPIO_Exported_Functions</text>
</a>
</g>
</g>
<!-- Node2&#45;&gt;Node1 -->
<g id="edge1" class="edge">
<title>Node2&#45;&gt;Node1</title>
<path fill="none" stroke="black" d="M51.6,-42.75C59.02,-42.75 67.26,-42.75 75.65,-42.75"/>
<polygon fill="black" stroke="black" points="51.84,-39.25 41.84,-42.75 51.84,-46.25 51.84,-39.25"/>
</g>
<!-- Node3 -->
<g id="Node000003" class="node">
<title>Node3</title>
<g id="a_Node000003"><a xlink:href="group__GPIO__Exported__Functions__Group1.html" target="_top" xlink:title=" ">
<polygon fill="white" stroke="#666666" points="384,-85.5 248,-85.5 248,-52 384,-52 384,-85.5"/>
<text text-anchor="start" x="256" y="-72" font-family="Helvetica,sans-Serif" font-size="10.00">GPIO_Exported_Functions</text>
<text text-anchor="middle" x="316" y="-59.25" font-family="Helvetica,sans-Serif" font-size="10.00">_Group1</text>
</a>
</g>
</g>
<!-- Node1&#45;&gt;Node3 -->
<g id="edge2" class="edge">
<title>Node1&#45;&gt;Node3</title>
<path fill="none" stroke="black" d="M223.54,-54.76C231.63,-56 239.79,-57.25 247.74,-58.46"/>
<polygon fill="black" stroke="black" points="224.1,-51.31 213.68,-53.25 223.04,-58.23 224.1,-51.31"/>
</g>
<!-- Node4 -->
<g id="Node000004" class="node">
<title>Node4</title>
<g id="a_Node000004"><a xlink:href="group__GPIO__Exported__Functions__Group2.html" target="_top" xlink:title=" ">
<polygon fill="white" stroke="#666666" points="384,-33.5 248,-33.5 248,0 384,0 384,-33.5"/>
<text text-anchor="start" x="256" y="-20" font-family="Helvetica,sans-Serif" font-size="10.00">GPIO_Exported_Functions</text>
<text text-anchor="middle" x="316" y="-7.25" font-family="Helvetica,sans-Serif" font-size="10.00">_Group2</text>
</a>
</g>
</g>
<!-- Node1&#45;&gt;Node4 -->
<g id="edge3" class="edge">
<title>Node1&#45;&gt;Node4</title>
<path fill="none" stroke="black" d="M223.54,-30.74C231.63,-29.5 239.79,-28.25 247.74,-27.04"/>
<polygon fill="black" stroke="black" points="223.04,-27.27 213.68,-32.25 224.1,-34.19 223.04,-27.27"/>
</g>
</g>
</svg>
