<?xml version="1.0" encoding="UTF-8" standalone="no"?>
<!DOCTYPE svg PUBLIC "-//W3C//DTD SVG 1.1//EN"
 "http://www.w3.org/Graphics/SVG/1.1/DTD/svg11.dtd">
<!-- Generated by graphviz version 2.43.0 (0)
 -->
<!-- Title: SMARTCARD Pages: 1 -->
<svg width="458pt" height="294pt"
 viewBox="0.00 0.00 458.00 293.50" xmlns="http://www.w3.org/2000/svg" xmlns:xlink="http://www.w3.org/1999/xlink">

<svg id="main" version="1.1" xmlns="http://www.w3.org/2000/svg" xmlns:xlink="http://www.w3.org/1999/xlink" xml:space="preserve">

<style type="text/css"><![CDATA[
.node, .edge {opacity: 0.7;}
.node.selected, .edge.selected {opacity: 1;}
.edge:hover path { stroke: red; }
.edge:hover polygon { stroke: red; fill: red; }
]]></style>
<script type="application/ecmascript" xlink:href="svg.min.js"/>
<svg id="graph" class="graph">
<g id="graph0" class="graph" transform="scale(1 1) rotate(0) translate(4 289.5)">
<title>SMARTCARD</title>
<!-- Node1 -->
<g id="Node000001" class="node">
<title>Node1</title>
<g id="a_Node000001"><a xlink:title="HAL SMARTCARD module driver.">
<polygon fill="#999999" stroke="#666666" points="247,-136 170,-136 170,-117 247,-117 247,-136"/>
<text text-anchor="middle" x="208.5" y="-124" font-family="Helvetica,sans-Serif" font-size="10.00">SMARTCARD</text>
</a>
</g>
</g>
<!-- Node4 -->
<g id="Node000004" class="node">
<title>Node4</title>
<g id="a_Node000004"><a xlink:href="group__SMARTCARD__Exported__Constants.html" target="_top" xlink:title=" ">
<polygon fill="white" stroke="#666666" points="428.5,-285.5 304.5,-285.5 304.5,-255.5 428.5,-255.5 428.5,-285.5"/>
<text text-anchor="start" x="312.5" y="-273.5" font-family="Helvetica,sans-Serif" font-size="10.00">SMARTCARD Exported</text>
<text text-anchor="middle" x="366.5" y="-262.5" font-family="Helvetica,sans-Serif" font-size="10.00"> constants</text>
</a>
</g>
</g>
<!-- Node1&#45;&gt;Node4 -->
<g id="edge3" class="edge">
<title>Node1&#45;&gt;Node4</title>
<path fill="none" stroke="black" d="M216.27,-145.99C226.52,-172.65 248.53,-220.18 283,-246.5 289.4,-251.39 296.77,-255.28 304.42,-258.38"/>
<polygon fill="black" stroke="black" points="219.43,-144.45 212.7,-136.27 212.86,-146.86 219.43,-144.45"/>
</g>
<!-- Node9 -->
<g id="Node000009" class="node">
<title>Node9</title>
<g id="a_Node000009"><a xlink:href="group__SMARTCARD__Exported__Functions.html" target="_top" xlink:title=" ">
<polygon fill="white" stroke="#666666" points="429.5,-237.5 303.5,-237.5 303.5,-207.5 429.5,-207.5 429.5,-237.5"/>
<text text-anchor="start" x="311.5" y="-225.5" font-family="Helvetica,sans-Serif" font-size="10.00">SMARTCARD_Exported</text>
<text text-anchor="middle" x="366.5" y="-214.5" font-family="Helvetica,sans-Serif" font-size="10.00">_Functions</text>
</a>
</g>
</g>
<!-- Node1&#45;&gt;Node9 -->
<g id="edge8" class="edge">
<title>Node1&#45;&gt;Node9</title>
<path fill="none" stroke="black" d="M223.57,-144.67C237.13,-161 259.06,-184.5 283,-198.5 289.31,-202.19 296.23,-205.35 303.29,-208.04"/>
<polygon fill="black" stroke="black" points="225.94,-142.04 216.94,-136.45 220.49,-146.43 225.94,-142.04"/>
</g>
<!-- Node5 -->
<g id="Node000005" class="node">
<title>Node5</title>
<g id="a_Node000005"><a xlink:href="group__SMARTCARD__Exported__Macros.html" target="_top" xlink:title=" ">
<polygon fill="white" stroke="#666666" points="428.5,-189.5 304.5,-189.5 304.5,-159.5 428.5,-159.5 428.5,-189.5"/>
<text text-anchor="start" x="312.5" y="-177.5" font-family="Helvetica,sans-Serif" font-size="10.00">SMARTCARD Exported</text>
<text text-anchor="middle" x="366.5" y="-166.5" font-family="Helvetica,sans-Serif" font-size="10.00"> Macros</text>
</a>
</g>
</g>
<!-- Node1&#45;&gt;Node5 -->
<g id="edge4" class="edge">
<title>Node1&#45;&gt;Node5</title>
<path fill="none" stroke="black" d="M247.68,-139.23C259.02,-142.94 271.49,-146.95 283,-150.5 292.55,-153.45 302.75,-156.5 312.61,-159.39"/>
<polygon fill="black" stroke="black" points="248.65,-135.86 238.05,-136.06 246.46,-142.51 248.65,-135.86"/>
</g>
<!-- Node3 -->
<g id="Node000003" class="node">
<title>Node3</title>
<g id="a_Node000003"><a xlink:href="group__SMARTCARD__Exported__Types.html" target="_top" xlink:title=" ">
<polygon fill="white" stroke="#666666" points="428.5,-141.5 304.5,-141.5 304.5,-111.5 428.5,-111.5 428.5,-141.5"/>
<text text-anchor="start" x="312.5" y="-129.5" font-family="Helvetica,sans-Serif" font-size="10.00">SMARTCARD Exported</text>
<text text-anchor="middle" x="366.5" y="-118.5" font-family="Helvetica,sans-Serif" font-size="10.00"> Types</text>
</a>
</g>
</g>
<!-- Node1&#45;&gt;Node3 -->
<g id="edge2" class="edge">
<title>Node1&#45;&gt;Node3</title>
<path fill="none" stroke="black" d="M257.67,-126.5C272.43,-126.5 288.86,-126.5 304.36,-126.5"/>
<polygon fill="black" stroke="black" points="257.26,-123 247.26,-126.5 257.26,-130 257.26,-123"/>
</g>
<!-- Node6 -->
<g id="Node000006" class="node">
<title>Node6</title>
<g id="a_Node000006"><a xlink:href="group__SMARTCARD__Private__Constants.html" target="_top" xlink:title=" ">
<polygon fill="white" stroke="#666666" points="450,-93 283,-93 283,-74 450,-74 450,-93"/>
<text text-anchor="middle" x="366.5" y="-81" font-family="Helvetica,sans-Serif" font-size="10.00">SMARTCARD Private Constants</text>
</a>
</g>
</g>
<!-- Node1&#45;&gt;Node6 -->
<g id="edge5" class="edge">
<title>Node1&#45;&gt;Node6</title>
<path fill="none" stroke="black" d="M246.68,-113.65C258.25,-109.84 271.1,-105.81 283,-102.5 295.18,-99.12 308.49,-95.86 320.79,-93.03"/>
<polygon fill="black" stroke="black" points="245.27,-110.43 236.9,-116.91 247.49,-117.07 245.27,-110.43"/>
</g>
<!-- Node8 -->
<g id="Node000008" class="node">
<title>Node8</title>
<g id="a_Node000008"><a xlink:href="group__SMARTCARD__Private__Functions.html" target="_top" xlink:title=" ">
<polygon fill="white" stroke="#666666" points="448.5,-56 284.5,-56 284.5,-37 448.5,-37 448.5,-56"/>
<text text-anchor="middle" x="366.5" y="-44" font-family="Helvetica,sans-Serif" font-size="10.00">SMARTCARD Private Functions</text>
</a>
</g>
</g>
<!-- Node1&#45;&gt;Node8 -->
<g id="edge7" class="edge">
<title>Node1&#45;&gt;Node8</title>
<path fill="none" stroke="black" d="M225.19,-109.24C239.03,-95.07 260.47,-75.6 283,-64.5 289.97,-61.07 297.59,-58.28 305.29,-56.03"/>
<polygon fill="black" stroke="black" points="222.3,-107.2 217.96,-116.86 227.38,-112.01 222.3,-107.2"/>
</g>
<!-- Node7 -->
<g id="Node000007" class="node">
<title>Node7</title>
<g id="a_Node000007"><a xlink:href="group__SMARTCARD__Private__Macros.html" target="_top" xlink:title=" ">
<polygon fill="white" stroke="#666666" points="443,-19 290,-19 290,0 443,0 443,-19"/>
<text text-anchor="middle" x="366.5" y="-7" font-family="Helvetica,sans-Serif" font-size="10.00">SMARTCARD Private Macros</text>
</a>
</g>
</g>
<!-- Node1&#45;&gt;Node7 -->
<g id="edge6" class="edge">
<title>Node1&#45;&gt;Node7</title>
<path fill="none" stroke="black" d="M218.29,-107.51C229.83,-84.79 252.28,-47.34 283,-27.5 288.3,-24.08 294.14,-21.3 300.2,-19.04"/>
<polygon fill="black" stroke="black" points="215,-106.27 213.77,-116.79 221.29,-109.34 215,-106.27"/>
</g>
<!-- Node2 -->
<g id="Node000002" class="node">
<title>Node2</title>
<g id="a_Node000002"><a xlink:href="group__STM32F4xx__HAL__Driver.html" target="_top" xlink:title=" ">
<polygon fill="white" stroke="#666666" points="134,-136 0,-136 0,-117 134,-117 134,-136"/>
<text text-anchor="middle" x="67" y="-124" font-family="Helvetica,sans-Serif" font-size="10.00">STM32F4xx_HAL_Driver</text>
</a>
</g>
</g>
<!-- Node2&#45;&gt;Node1 -->
<g id="edge1" class="edge">
<title>Node2&#45;&gt;Node1</title>
<path fill="none" stroke="black" d="M144.13,-126.5C153.01,-126.5 161.75,-126.5 169.77,-126.5"/>
<polygon fill="black" stroke="black" points="144.07,-123 134.07,-126.5 144.07,-130 144.07,-123"/>
</g>
</g>
</svg>
</svg>

<style type='text/css'>
<![CDATA[
[data-mouse-over-selected='false'] { opacity: 0.7; }
[data-mouse-over-selected='true']  { opacity: 1.0; }
]]>
</style>
<script type="application/ecmascript"><![CDATA[
document.addEventListener('DOMContentLoaded', (event) => {
  highlightEdges();
  highlightAdjacentNodes();
});
]]></script>
</svg>
