<?xml version="1.0" encoding="UTF-8" standalone="no"?>
<!DOCTYPE svg PUBLIC "-//W3C//DTD SVG 1.1//EN"
 "http://www.w3.org/Graphics/SVG/1.1/DTD/svg11.dtd">
<!-- Generated by graphviz version 12.2.1 (20241206.2353)
 -->
<!-- Title: TIMEx Pages: 1 -->
<svg width="368pt" height="302pt"
 viewBox="0.00 0.00 368.00 301.50" xmlns="http://www.w3.org/2000/svg" xmlns:xlink="http://www.w3.org/1999/xlink">

<svg id="main" version="1.1" xmlns="http://www.w3.org/2000/svg" xmlns:xlink="http://www.w3.org/1999/xlink" xml:space="preserve">

<style type="text/css"><![CDATA[
.node, .edge {opacity: 0.7;}
.node.selected, .edge.selected {opacity: 1;}
.edge:hover path { stroke: red; }
.edge:hover polygon { stroke: red; fill: red; }
]]></style>
<script type="application/ecmascript" xlink:href="svg.min.js"/>
<svg id="graph" class="graph">
<g id="graph0" class="graph" transform="scale(1 1) rotate(0) translate(4 297.5)">
<title>TIMEx</title>
<!-- Node2 -->
<g id="Node000002" class="node">
<title>Node2</title>
<g id="a_Node000002"><a xlink:href="group__STM32F4xx__HAL__Driver.html" target="_top" xlink:title=" ">
<polygon fill="white" stroke="#666666" points="122.5,-157.12 0,-157.12 0,-136.38 122.5,-136.38 122.5,-157.12"/>
<text text-anchor="middle" x="61.25" y="-143.62" font-family="Helvetica,sans-Serif" font-size="10.00">STM32F4xx_HAL_Driver</text>
</a>
</g>
</g>
<!-- Node1 -->
<g id="Node000001" class="node">
<title>Node1</title>
<g id="a_Node000001"><a xlink:title="TIM Extended HAL module driver.">
<polygon fill="#999999" stroke="#666666" points="202.25,-157.12 158.5,-157.12 158.5,-136.38 202.25,-136.38 202.25,-157.12"/>
<text text-anchor="middle" x="180.38" y="-143.62" font-family="Helvetica,sans-Serif" font-size="10.00">TIMEx</text>
</a>
</g>
</g>
<!-- Node2&#45;&gt;Node1 -->
<g id="edge1" class="edge">
<title>Node2&#45;&gt;Node1</title>
<path fill="none" stroke="black" d="M134.11,-146.75C142.85,-146.75 151.18,-146.75 158.25,-146.75"/>
<polygon fill="black" stroke="black" points="134.38,-143.25 124.38,-146.75 134.38,-150.25 134.38,-143.25"/>
</g>
<!-- Node4 -->
<g id="Node000004" class="node">
<title>Node4</title>
<g id="a_Node000004"><a xlink:href="group__TIMEx__Exported__Constants.html" target="_top" xlink:title=" ">
<polygon fill="white" stroke="#666666" points="360,-293.5 238.25,-293.5 238.25,-260 360,-260 360,-293.5"/>
<text text-anchor="start" x="246.25" y="-280" font-family="Helvetica,sans-Serif" font-size="10.00">TIM Extended Exported</text>
<text text-anchor="middle" x="299.12" y="-267.25" font-family="Helvetica,sans-Serif" font-size="10.00"> Constants</text>
</a>
</g>
</g>
<!-- Node1&#45;&gt;Node4 -->
<g id="edge3" class="edge">
<title>Node1&#45;&gt;Node4</title>
<path fill="none" stroke="black" d="M188.29,-168.07C196.76,-191.18 213.14,-227.83 238.25,-250.75 241.85,-254.04 245.93,-256.95 250.22,-259.53"/>
<polygon fill="black" stroke="black" points="191.66,-167.09 185.07,-158.79 185.04,-169.38 191.66,-167.09"/>
</g>
<!-- Node7 -->
<g id="Node000007" class="node">
<title>Node7</title>
<g id="a_Node000007"><a xlink:href="group__TIMEx__Exported__Functions.html" target="_top" xlink:title=" ">
<polygon fill="white" stroke="#666666" points="360,-241.5 238.25,-241.5 238.25,-208 360,-208 360,-241.5"/>
<text text-anchor="start" x="246.25" y="-228" font-family="Helvetica,sans-Serif" font-size="10.00">TIM Extended Exported</text>
<text text-anchor="middle" x="299.12" y="-215.25" font-family="Helvetica,sans-Serif" font-size="10.00"> Functions</text>
</a>
</g>
</g>
<!-- Node1&#45;&gt;Node7 -->
<g id="edge6" class="edge">
<title>Node1&#45;&gt;Node7</title>
<path fill="none" stroke="black" d="M198.69,-165.41C209.35,-176.15 223.72,-189.33 238.25,-198.75 243.19,-201.96 248.6,-204.93 254.08,-207.64"/>
<polygon fill="black" stroke="black" points="201.51,-163.3 192.05,-158.54 196.47,-168.16 201.51,-163.3"/>
</g>
<!-- Node5 -->
<g id="Node000005" class="node">
<title>Node5</title>
<g id="a_Node000005"><a xlink:href="group__TIMEx__Exported__Macros.html" target="_top" xlink:title=" ">
<polygon fill="white" stroke="#666666" points="360,-189.5 238.25,-189.5 238.25,-156 360,-156 360,-189.5"/>
<text text-anchor="start" x="246.25" y="-176" font-family="Helvetica,sans-Serif" font-size="10.00">TIM Extended Exported</text>
<text text-anchor="middle" x="299.12" y="-163.25" font-family="Helvetica,sans-Serif" font-size="10.00"> Macros</text>
</a>
</g>
</g>
<!-- Node1&#45;&gt;Node5 -->
<g id="edge4" class="edge">
<title>Node1&#45;&gt;Node5</title>
<path fill="none" stroke="black" d="M213.49,-153.9C221.17,-155.61 229.61,-157.49 238.11,-159.38"/>
<polygon fill="black" stroke="black" points="214.52,-150.54 203.99,-151.79 212.99,-157.38 214.52,-150.54"/>
</g>
<!-- Node3 -->
<g id="Node000003" class="node">
<title>Node3</title>
<g id="a_Node000003"><a xlink:href="group__TIMEx__Exported__Types.html" target="_top" xlink:title=" ">
<polygon fill="white" stroke="#666666" points="360,-137.5 238.25,-137.5 238.25,-104 360,-104 360,-137.5"/>
<text text-anchor="start" x="246.25" y="-124" font-family="Helvetica,sans-Serif" font-size="10.00">TIM Extended Exported</text>
<text text-anchor="middle" x="299.12" y="-111.25" font-family="Helvetica,sans-Serif" font-size="10.00"> Types</text>
</a>
</g>
</g>
<!-- Node1&#45;&gt;Node3 -->
<g id="edge2" class="edge">
<title>Node1&#45;&gt;Node3</title>
<path fill="none" stroke="black" d="M213.49,-139.6C221.17,-137.89 229.61,-136.01 238.11,-134.12"/>
<polygon fill="black" stroke="black" points="212.99,-136.12 203.99,-141.71 214.52,-142.96 212.99,-136.12"/>
</g>
<!-- Node8 -->
<g id="Node000008" class="node">
<title>Node8</title>
<g id="a_Node000008"><a xlink:href="group__TIMEx__Private__Functions.html" target="_top" xlink:title=" ">
<polygon fill="white" stroke="#666666" points="354.75,-85.5 243.5,-85.5 243.5,-52 354.75,-52 354.75,-85.5"/>
<text text-anchor="start" x="251.5" y="-72" font-family="Helvetica,sans-Serif" font-size="10.00">TIM Extended Private</text>
<text text-anchor="middle" x="299.12" y="-59.25" font-family="Helvetica,sans-Serif" font-size="10.00"> Functions</text>
</a>
</g>
</g>
<!-- Node1&#45;&gt;Node8 -->
<g id="edge7" class="edge">
<title>Node1&#45;&gt;Node8</title>
<path fill="none" stroke="black" d="M198.69,-128.09C209.35,-117.35 223.72,-104.17 238.25,-94.75 243.19,-91.54 248.6,-88.57 254.08,-85.86"/>
<polygon fill="black" stroke="black" points="196.47,-125.34 192.05,-134.96 201.51,-130.2 196.47,-125.34"/>
</g>
<!-- Node6 -->
<g id="Node000006" class="node">
<title>Node6</title>
<g id="a_Node000006"><a xlink:href="group__TIMEx__Private__Macros.html" target="_top" xlink:title=" ">
<polygon fill="white" stroke="#666666" points="354.75,-33.5 243.5,-33.5 243.5,0 354.75,0 354.75,-33.5"/>
<text text-anchor="start" x="251.5" y="-20" font-family="Helvetica,sans-Serif" font-size="10.00">TIM Extended Private</text>
<text text-anchor="middle" x="299.12" y="-7.25" font-family="Helvetica,sans-Serif" font-size="10.00"> Macros</text>
</a>
</g>
</g>
<!-- Node1&#45;&gt;Node6 -->
<g id="edge5" class="edge">
<title>Node1&#45;&gt;Node6</title>
<path fill="none" stroke="black" d="M188.29,-125.43C196.76,-102.32 213.14,-65.67 238.25,-42.75 241.85,-39.46 245.93,-36.55 250.22,-33.97"/>
<polygon fill="black" stroke="black" points="185.04,-124.12 185.07,-134.71 191.66,-126.41 185.04,-124.12"/>
</g>
</g>
</svg>
</svg>

<style type='text/css'>
<![CDATA[
[data-mouse-over-selected='false'] { opacity: 0.7; }
[data-mouse-over-selected='true']  { opacity: 1.0; }
]]>
</style>
<script type="application/ecmascript"><![CDATA[
document.addEventListener('DOMContentLoaded', (event) => {
  highlightEdges();
  highlightAdjacentNodes();
});
]]></script>
</svg>
