<?xml version="1.0" encoding="UTF-8" standalone="no"?>
<!DOCTYPE svg PUBLIC "-//W3C//DTD SVG 1.1//EN"
 "http://www.w3.org/Graphics/SVG/1.1/DTD/svg11.dtd">
<!-- Generated by graphviz version 12.2.1 (20241206.2353)
 -->
<!-- Title: UTILS Exported Functions Pages: 1 -->
<svg width="424pt" height="107pt"
 viewBox="0.00 0.00 424.25 106.75" xmlns="http://www.w3.org/2000/svg" xmlns:xlink="http://www.w3.org/1999/xlink">
<g id="page0,1_graph0" class="graph" transform="scale(1 1) rotate(0) translate(4 102.75)">
<title>UTILS Exported Functions</title>
<!-- Node3 -->
<g id="Node000003" class="node">
<title>Node3</title>
<g id="a_Node000003"><a xlink:href="group__UTILS__EF__DEVICE__ELECTRONIC__SIGNATURE.html" target="_top" xlink:title=" ">
<polygon fill="white" stroke="#666666" points="416.25,-98.75 246.5,-98.75 246.5,-78 416.25,-78 416.25,-98.75"/>
<text text-anchor="middle" x="331.38" y="-85.25" font-family="Helvetica,sans-Serif" font-size="10.00">DEVICE ELECTRONIC SIGNATURE</text>
</a>
</g>
</g>
<!-- Node5 -->
<g id="Node000005" class="node">
<title>Node5</title>
<g id="a_Node000005"><a xlink:href="group__UTILS__EF__SYSTEM.html" target="_top" xlink:title="System Configuration functions.">
<polygon fill="white" stroke="#666666" points="357.75,-59.75 305,-59.75 305,-39 357.75,-39 357.75,-59.75"/>
<text text-anchor="middle" x="331.38" y="-46.25" font-family="Helvetica,sans-Serif" font-size="10.00">SYSTEM</text>
</a>
</g>
</g>
<!-- Node2 -->
<g id="Node000002" class="node">
<title>Node2</title>
<g id="a_Node000002"><a xlink:href="group__UTILS__LL.html" target="_top" xlink:title=" ">
<polygon fill="white" stroke="#666666" points="42.25,-59.75 0,-59.75 0,-39 42.25,-39 42.25,-59.75"/>
<text text-anchor="middle" x="21.12" y="-46.25" font-family="Helvetica,sans-Serif" font-size="10.00">UTILS</text>
</a>
</g>
</g>
<!-- Node1 -->
<g id="Node000001" class="node">
<title>Node1</title>
<g id="a_Node000001"><a xlink:title=" ">
<polygon fill="#999999" stroke="#666666" points="210.5,-59.75 78.25,-59.75 78.25,-39 210.5,-39 210.5,-59.75"/>
<text text-anchor="middle" x="144.38" y="-46.25" font-family="Helvetica,sans-Serif" font-size="10.00">UTILS Exported Functions</text>
</a>
</g>
</g>
<!-- Node2&#45;&gt;Node1 -->
<g id="edge1" class="edge">
<title>Node2&#45;&gt;Node1</title>
<path fill="none" stroke="black" d="M54.03,-49.38C61.47,-49.38 69.66,-49.38 77.97,-49.38"/>
<polygon fill="black" stroke="black" points="54.21,-45.88 44.21,-49.38 54.21,-52.88 54.21,-45.88"/>
</g>
<!-- Node4 -->
<g id="Node000004" class="node">
<title>Node4</title>
<g id="a_Node000004"><a xlink:href="group__UTILS__LL__EF__DELAY.html" target="_top" xlink:title=" ">
<polygon fill="white" stroke="#666666" points="354.38,-20.75 308.38,-20.75 308.38,0 354.38,0 354.38,-20.75"/>
<text text-anchor="middle" x="331.38" y="-7.25" font-family="Helvetica,sans-Serif" font-size="10.00">DELAY</text>
</a>
</g>
</g>
<!-- Node1&#45;&gt;Node3 -->
<g id="edge2" class="edge">
<title>Node1&#45;&gt;Node3</title>
<path fill="none" stroke="black" d="M207.97,-62.57C231.01,-67.43 256.83,-72.87 278.8,-77.5"/>
<polygon fill="black" stroke="black" points="208.9,-59.19 198.39,-60.55 207.45,-66.04 208.9,-59.19"/>
</g>
<!-- Node1&#45;&gt;Node5 -->
<g id="edge4" class="edge">
<title>Node1&#45;&gt;Node5</title>
<path fill="none" stroke="black" d="M222.04,-49.38C251.57,-49.38 283.32,-49.38 304.76,-49.38"/>
<polygon fill="black" stroke="black" points="222.37,-45.88 212.37,-49.38 222.37,-52.88 222.37,-45.88"/>
</g>
<!-- Node1&#45;&gt;Node4 -->
<g id="edge3" class="edge">
<title>Node1&#45;&gt;Node4</title>
<path fill="none" stroke="black" d="M207.9,-36.19C242.51,-28.9 283.41,-20.28 308.1,-15.07"/>
<polygon fill="black" stroke="black" points="207.45,-32.71 198.39,-38.2 208.9,-39.56 207.45,-32.71"/>
</g>
</g>
</svg>
