<?xml version="1.0" encoding="UTF-8" standalone="no"?>
<!DOCTYPE svg PUBLIC "-//W3C//DTD SVG 1.1//EN"
 "http://www.w3.org/Graphics/SVG/1.1/DTD/svg11.dtd">
<!-- Generated by graphviz version 12.2.1 (20241206.2353)
 -->
<!-- Title: WWDG Pages: 1 -->
<svg width="398pt" height="185pt"
 viewBox="0.00 0.00 398.00 184.75" xmlns="http://www.w3.org/2000/svg" xmlns:xlink="http://www.w3.org/1999/xlink">

<svg id="main" version="1.1" xmlns="http://www.w3.org/2000/svg" xmlns:xlink="http://www.w3.org/1999/xlink" xml:space="preserve">

<style type="text/css"><![CDATA[
.node, .edge {opacity: 0.7;}
.node.selected, .edge.selected {opacity: 1;}
.edge:hover path { stroke: red; }
.edge:hover polygon { stroke: red; fill: red; }
]]></style>
<script type="application/ecmascript" xlink:href="svg.min.js"/>
<svg id="graph" class="graph">
<g id="graph0" class="graph" transform="scale(1 1) rotate(0) translate(4 180.75)">
<title>WWDG</title>
<!-- Node2 -->
<g id="Node000002" class="node">
<title>Node2</title>
<g id="a_Node000002"><a xlink:href="group__STM32F4xx__HAL__Driver.html" target="_top" xlink:title=" ">
<polygon fill="white" stroke="#666666" points="122.5,-98.75 0,-98.75 0,-78 122.5,-78 122.5,-98.75"/>
<text text-anchor="middle" x="61.25" y="-85.25" font-family="Helvetica,sans-Serif" font-size="10.00">STM32F4xx_HAL_Driver</text>
</a>
</g>
</g>
<!-- Node1 -->
<g id="Node000001" class="node">
<title>Node1</title>
<g id="a_Node000001"><a xlink:title=" ">
<polygon fill="#999999" stroke="#666666" points="208.25,-98.75 158.5,-98.75 158.5,-78 208.25,-78 208.25,-98.75"/>
<text text-anchor="middle" x="183.38" y="-85.25" font-family="Helvetica,sans-Serif" font-size="10.00">WWDG</text>
</a>
</g>
</g>
<!-- Node2&#45;&gt;Node1 -->
<g id="edge1" class="edge">
<title>Node2&#45;&gt;Node1</title>
<path fill="none" stroke="black" d="M134.13,-88.38C142.75,-88.38 151.04,-88.38 158.23,-88.38"/>
<polygon fill="black" stroke="black" points="134.18,-84.88 124.18,-88.38 134.18,-91.88 134.18,-84.88"/>
</g>
<!-- Node4 -->
<g id="Node000004" class="node">
<title>Node4</title>
<g id="a_Node000004"><a xlink:href="group__WWDG__Exported__Constants.html" target="_top" xlink:title=" ">
<polygon fill="white" stroke="#666666" points="388.12,-176.75 246.12,-176.75 246.12,-156 388.12,-156 388.12,-176.75"/>
<text text-anchor="middle" x="317.12" y="-163.25" font-family="Helvetica,sans-Serif" font-size="10.00">WWDG Exported Constants</text>
</a>
</g>
</g>
<!-- Node1&#45;&gt;Node4 -->
<g id="edge3" class="edge">
<title>Node1&#45;&gt;Node4</title>
<path fill="none" stroke="black" d="M199.67,-107.54C210.78,-120.27 226.87,-136.41 244.25,-146.38 250.66,-150.05 257.77,-153.07 264.96,-155.56"/>
<polygon fill="black" stroke="black" points="202.59,-105.58 193.48,-100.17 197.23,-110.08 202.59,-105.58"/>
</g>
<!-- Node7 -->
<g id="Node000007" class="node">
<title>Node7</title>
<g id="a_Node000007"><a xlink:href="group__WWDG__Exported__Functions.html" target="_top" xlink:title=" ">
<polygon fill="white" stroke="#666666" points="390,-137.75 244.25,-137.75 244.25,-117 390,-117 390,-137.75"/>
<text text-anchor="middle" x="317.12" y="-124.25" font-family="Helvetica,sans-Serif" font-size="10.00">WWDG_Exported_Functions</text>
</a>
</g>
</g>
<!-- Node1&#45;&gt;Node7 -->
<g id="edge6" class="edge">
<title>Node1&#45;&gt;Node7</title>
<path fill="none" stroke="black" d="M219.24,-99.67C227.42,-102.26 236.13,-104.96 244.25,-107.38 254.55,-110.44 265.73,-113.62 276.13,-116.52"/>
<polygon fill="black" stroke="black" points="220.53,-96.41 209.94,-96.71 218.4,-103.08 220.53,-96.41"/>
</g>
<!-- Node6 -->
<g id="Node000006" class="node">
<title>Node6</title>
<g id="a_Node000006"><a xlink:href="group__WWDG__Exported__Macros.html" target="_top" xlink:title=" ">
<polygon fill="white" stroke="#666666" points="381,-98.75 253.25,-98.75 253.25,-78 381,-78 381,-98.75"/>
<text text-anchor="middle" x="317.12" y="-85.25" font-family="Helvetica,sans-Serif" font-size="10.00">WWDG Exported Macros</text>
</a>
</g>
</g>
<!-- Node1&#45;&gt;Node6 -->
<g id="edge5" class="edge">
<title>Node1&#45;&gt;Node6</title>
<path fill="none" stroke="black" d="M219.87,-88.38C230.07,-88.38 241.52,-88.38 252.87,-88.38"/>
<polygon fill="black" stroke="black" points="220.05,-84.88 210.05,-88.38 220.05,-91.88 220.05,-84.88"/>
</g>
<!-- Node3 -->
<g id="Node000003" class="node">
<title>Node3</title>
<g id="a_Node000003"><a xlink:href="group__WWDG__Exported__Types.html" target="_top" xlink:title=" ">
<polygon fill="white" stroke="#666666" points="378,-59.75 256.25,-59.75 256.25,-39 378,-39 378,-59.75"/>
<text text-anchor="middle" x="317.12" y="-46.25" font-family="Helvetica,sans-Serif" font-size="10.00">WWDG Exported Types</text>
</a>
</g>
</g>
<!-- Node1&#45;&gt;Node3 -->
<g id="edge2" class="edge">
<title>Node1&#45;&gt;Node3</title>
<path fill="none" stroke="black" d="M219.24,-77.08C227.42,-74.49 236.13,-71.79 244.25,-69.38 254.55,-66.31 265.73,-63.13 276.13,-60.23"/>
<polygon fill="black" stroke="black" points="218.4,-73.67 209.94,-80.04 220.53,-80.34 218.4,-73.67"/>
</g>
<!-- Node5 -->
<g id="Node000005" class="node">
<title>Node5</title>
<g id="a_Node000005"><a xlink:href="group__WWDG__Private__Macros.html" target="_top" xlink:title=" ">
<polygon fill="white" stroke="#666666" points="375.75,-20.75 258.5,-20.75 258.5,0 375.75,0 375.75,-20.75"/>
<text text-anchor="middle" x="317.12" y="-7.25" font-family="Helvetica,sans-Serif" font-size="10.00">WWDG Private Macros</text>
</a>
</g>
</g>
<!-- Node1&#45;&gt;Node5 -->
<g id="edge4" class="edge">
<title>Node1&#45;&gt;Node5</title>
<path fill="none" stroke="black" d="M199.67,-69.21C210.78,-56.48 226.87,-40.34 244.25,-30.38 250.66,-26.7 257.77,-23.68 264.96,-21.19"/>
<polygon fill="black" stroke="black" points="197.23,-66.67 193.48,-76.58 202.59,-71.17 197.23,-66.67"/>
</g>
</g>
</svg>
</svg>

<style type='text/css'>
<![CDATA[
[data-mouse-over-selected='false'] { opacity: 0.7; }
[data-mouse-over-selected='true']  { opacity: 1.0; }
]]>
</style>
<script type="application/ecmascript"><![CDATA[
document.addEventListener('DOMContentLoaded', (event) => {
  highlightEdges();
  highlightAdjacentNodes();
});
]]></script>
</svg>
