<?xml version="1.0" encoding="UTF-8" standalone="no"?>
<!DOCTYPE svg PUBLIC "-//W3C//DTD SVG 1.1//EN"
 "http://www.w3.org/Graphics/SVG/1.1/DTD/svg11.dtd">
<!-- Generated by graphviz version 2.43.0 (0)
 -->
<!-- Title: DMA Exported Constants Pages: 1 -->
<!--zoomable 569 -->

<svg id="main" version="1.1" xmlns="http://www.w3.org/2000/svg" xmlns:xlink="http://www.w3.org/1999/xlink" xml:space="preserve" onload="init(evt)">

<style type="text/css"><![CDATA[
.node, .edge {opacity: 0.7;}
.node.selected, .edge.selected {opacity: 1;}
.edge:hover path { stroke: red; }
.edge:hover polygon { stroke: red; fill: red; }
]]></style>

<defs>
  <circle id="rim" cx="0" cy="0" r="7"/>
  <circle id="rim2" cx="0" cy="0" r="3.5"/>
  <g id="zoomPlus">
    <use xlink:href="#rim" fill="#404040"><set attributeName="fill" to="#808080" begin="zoomplus.mouseover" end="zoomplus.mouseout"/></use>
    <path d="M-4,0h8M0,-4v8" fill="none" stroke="white" stroke-width="1.5" pointer-events="none"/>
  </g>
  <g id="zoomMin">
    <use xlink:href="#rim" fill="#404040"><set attributeName="fill" to="#808080" begin="zoomminus.mouseover" end="zoomminus.mouseout"/></use>
    <path d="M-4,0h8" fill="none" stroke="white" stroke-width="1.5" pointer-events="none"/>
  </g>
  <g id="arrowUp" transform="translate(30 24)">
    <use xlink:href="#rim"/>
    <path pointer-events="none" fill="none" stroke="white" stroke-width="1.5" d="M0,-3.0v7 M-2.5,-0.5L0,-3.0L2.5,-0.5"/>
  </g>
  <g id="arrowRight" transform="rotate(90) translate(36 -43)">
    <use xlink:href="#rim"/>
    <path pointer-events="none" fill="none" stroke="white" stroke-width="1.5" d="M0,-3.0v7 M-2.5,-0.5L0,-3.0L2.5,-0.5"/>
  </g>
  <g id="arrowDown" transform="rotate(180) translate(-30 -48)">
    <use xlink:href="#rim"/>
    <path pointer-events="none" fill="none" stroke="white" stroke-width="1.5" d="M0,-3.0v7 M-2.5,-0.5L0,-3.0L2.5,-0.5"/>
  </g>
  <g id="arrowLeft" transform="rotate(270) translate(-36 17)">
    <use xlink:href="#rim"/>
    <path pointer-events="none" fill="none" stroke="white" stroke-width="1.5" d="M0,-3.0v7 M-2.5,-0.5L0,-3.0L2.5,-0.5"/>
  </g>
  <g id="resetDef">
    <use xlink:href="#rim2" fill="#404040"><set attributeName="fill" to="#808080" begin="reset.mouseover" end="reset.mouseout"/></use>
  </g>
</defs>
<script type="application/ecmascript">
var viewWidth = 446;
var viewHeight = 569;
var sectionId = 'dynsection-0';
</script>
<script type="application/ecmascript" xlink:href="svg.min.js"/>
<svg id="graph" class="graph">
<g id="viewport">
<title>DMA Exported Constants</title>
<!-- Node2 -->
<g id="Node000002" class="node">
<title>Node2</title>
<g id="a_Node000002"><a xlink:href="group__DMA.html" target="_top" xlink:title="DMA HAL module driver.">
<polygon fill="white" stroke="#666666" points="40,-290 0,-290 0,-271 40,-271 40,-290"/>
<text text-anchor="middle" x="20" y="-278" font-family="Helvetica,sans-Serif" font-size="10.00">DMA</text>
</a>
</g>
</g>
<!-- Node1 -->
<g id="Node000001" class="node">
<title>Node1</title>
<g id="a_Node000001"><a xlink:title="DMA Exported constants.">
<polygon fill="#999999" stroke="#666666" points="214,-290 76,-290 76,-271 214,-271 214,-290"/>
<text text-anchor="middle" x="145" y="-278" font-family="Helvetica,sans-Serif" font-size="10.00">DMA Exported Constants</text>
</a>
</g>
</g>
<!-- Node2&#45;&gt;Node1 -->
<g id="edge1" class="edge">
<title>Node2&#45;&gt;Node1</title>
<path fill="none" stroke="black" d="M50.48,-280.5C58.25,-280.5 66.95,-280.5 75.85,-280.5"/>
<polygon fill="black" stroke="black" points="50.22,-277 40.22,-280.5 50.22,-284 50.22,-277"/>
</g>
<!-- Node4 -->
<g id="Node000004" class="node">
<title>Node4</title>
<g id="a_Node000004"><a xlink:href="group__DMA__Channel__selection.html" target="_top" xlink:title="DMA channel selection.">
<polygon fill="white" stroke="#666666" points="409,-561 279,-561 279,-542 409,-542 409,-561"/>
<text text-anchor="middle" x="344" y="-549" font-family="Helvetica,sans-Serif" font-size="10.00">DMA Channel selection</text>
</a>
</g>
</g>
<!-- Node5 -->
<g id="Node000005" class="node">
<title>Node5</title>
<g id="a_Node000005"><a xlink:href="group__DMA__Data__transfer__direction.html" target="_top" xlink:title="DMA data transfer direction.">
<polygon fill="white" stroke="#666666" points="420.5,-524 267.5,-524 267.5,-505 420.5,-505 420.5,-524"/>
<text text-anchor="middle" x="344" y="-512" font-family="Helvetica,sans-Serif" font-size="10.00">DMA Data transfer direction</text>
</a>
</g>
</g>
<!-- Node3 -->
<g id="Node000003" class="node">
<title>Node3</title>
<g id="a_Node000003"><a xlink:href="group__DMA__Error__Code.html" target="_top" xlink:title="DMA Error Code.">
<polygon fill="white" stroke="#666666" points="391,-487 297,-487 297,-468 391,-468 391,-487"/>
<text text-anchor="middle" x="344" y="-475" font-family="Helvetica,sans-Serif" font-size="10.00">DMA Error Code</text>
</a>
</g>
</g>
<!-- Node1&#45;&gt;Node4 -->
<g id="edge3" class="edge">
<title>Node1&#45;&gt;Node4</title>
<path fill="none" stroke="black" d="M147.88,-300.21C153.57,-348.31 175.16,-472.23 250,-533.5 258.27,-540.27 268.34,-544.76 278.76,-547.7"/>
<polygon fill="black" stroke="black" points="151.35,-299.74 146.8,-290.18 144.39,-300.49 151.35,-299.74"/>
</g>
<!-- Node1&#45;&gt;Node5 -->
<g id="edge4" class="edge">
<title>Node1&#45;&gt;Node5</title>
<path fill="none" stroke="black" d="M149.39,-300.21C157.89,-343.26 184.33,-445.89 250,-496.5 255.21,-500.52 261.06,-503.72 267.23,-506.26"/>
<polygon fill="black" stroke="black" points="152.79,-299.37 147.52,-290.17 145.91,-300.64 152.79,-299.37"/>
</g>
<!-- Node1&#45;&gt;Node3 -->
<g id="edge2" class="edge">
<title>Node1&#45;&gt;Node3</title>
<path fill="none" stroke="black" d="M151.37,-299.88C162.79,-337.26 193.2,-419.14 250,-459.5 263.54,-469.12 280.87,-473.95 296.9,-476.28"/>
<polygon fill="black" stroke="black" points="154.7,-298.82 148.54,-290.2 147.98,-300.78 154.7,-298.82"/>
</g>
<!-- Node12 -->
<g id="Node000012" class="node">
<title>Node12</title>
<g id="a_Node000012"><a xlink:href="group__DMA__FIFO__direct__mode.html" target="_top" xlink:title="DMA FIFO direct mode.">
<polygon fill="white" stroke="#666666" points="407.5,-450 280.5,-450 280.5,-431 407.5,-431 407.5,-450"/>
<text text-anchor="middle" x="344" y="-438" font-family="Helvetica,sans-Serif" font-size="10.00">DMA FIFO direct mode</text>
</a>
</g>
</g>
<!-- Node1&#45;&gt;Node12 -->
<g id="edge11" class="edge">
<title>Node1&#45;&gt;Node12</title>
<path fill="none" stroke="black" d="M154.39,-299.54C169.03,-330.43 202.33,-391.05 250,-421.5 259.03,-427.27 269.47,-431.33 280.02,-434.18"/>
<polygon fill="black" stroke="black" points="157.49,-297.92 150.14,-290.29 151.13,-300.84 157.49,-297.92"/>
</g>
<!-- Node13 -->
<g id="Node000013" class="node">
<title>Node13</title>
<g id="a_Node000013"><a xlink:href="group__DMA__FIFO__threshold__level.html" target="_top" xlink:title="DMA FIFO level.">
<polygon fill="white" stroke="#666666" points="401,-412.5 287,-412.5 287,-382.5 401,-382.5 401,-412.5"/>
<text text-anchor="start" x="295" y="-400.5" font-family="Helvetica,sans-Serif" font-size="10.00">DMA FIFO threshold</text>
<text text-anchor="middle" x="344" y="-389.5" font-family="Helvetica,sans-Serif" font-size="10.00"> level</text>
</a>
</g>
</g>
<!-- Node1&#45;&gt;Node13 -->
<g id="edge12" class="edge">
<title>Node1&#45;&gt;Node13</title>
<path fill="none" stroke="black" d="M160.58,-297.85C179.19,-318.88 213.39,-353.92 250,-373.5 261.32,-379.55 274.25,-384.14 286.79,-387.59"/>
<polygon fill="black" stroke="black" points="163,-295.3 153.81,-290.03 157.71,-299.88 163,-295.3"/>
</g>
<!-- Node14 -->
<g id="Node000014" class="node">
<title>Node14</title>
<g id="a_Node000014"><a xlink:href="group__DMA__Memory__burst.html" target="_top" xlink:title="DMA memory burst.">
<polygon fill="white" stroke="#666666" points="399.5,-364 288.5,-364 288.5,-345 399.5,-345 399.5,-364"/>
<text text-anchor="middle" x="344" y="-352" font-family="Helvetica,sans-Serif" font-size="10.00">DMA Memory burst</text>
</a>
</g>
</g>
<!-- Node1&#45;&gt;Node14 -->
<g id="edge13" class="edge">
<title>Node1&#45;&gt;Node14</title>
<path fill="none" stroke="black" d="M169.11,-295.59C189.58,-308.31 220.69,-326.05 250,-336.5 262.08,-340.81 275.44,-344.16 288.16,-346.74"/>
<polygon fill="black" stroke="black" points="170.82,-292.53 160.49,-290.15 167.08,-298.45 170.82,-292.53"/>
</g>
<!-- Node9 -->
<g id="Node000009" class="node">
<title>Node9</title>
<g id="a_Node000009"><a xlink:href="group__DMA__Memory__data__size.html" target="_top" xlink:title="DMA memory data size.">
<polygon fill="white" stroke="#666666" points="409.5,-327 278.5,-327 278.5,-308 409.5,-308 409.5,-327"/>
<text text-anchor="middle" x="344" y="-315" font-family="Helvetica,sans-Serif" font-size="10.00">DMA Memory data size</text>
</a>
</g>
</g>
<!-- Node1&#45;&gt;Node9 -->
<g id="edge8" class="edge">
<title>Node1&#45;&gt;Node9</title>
<path fill="none" stroke="black" d="M206.59,-291.88C233.98,-297.02 265.98,-303.03 292.1,-307.94"/>
<polygon fill="black" stroke="black" points="207.21,-288.43 196.73,-290.03 205.91,-295.31 207.21,-288.43"/>
</g>
<!-- Node7 -->
<g id="Node000007" class="node">
<title>Node7</title>
<g id="a_Node000007"><a xlink:href="group__DMA__Memory__incremented__mode.html" target="_top" xlink:title="DMA memory incremented mode.">
<polygon fill="white" stroke="#666666" points="433.5,-290 254.5,-290 254.5,-271 433.5,-271 433.5,-290"/>
<text text-anchor="middle" x="344" y="-278" font-family="Helvetica,sans-Serif" font-size="10.00">DMA Memory incremented mode</text>
</a>
</g>
</g>
<!-- Node1&#45;&gt;Node7 -->
<g id="edge6" class="edge">
<title>Node1&#45;&gt;Node7</title>
<path fill="none" stroke="black" d="M224.28,-280.5C234.18,-280.5 244.37,-280.5 254.43,-280.5"/>
<polygon fill="black" stroke="black" points="224.07,-277 214.07,-280.5 224.07,-284 224.07,-277"/>
</g>
<!-- Node15 -->
<g id="Node000015" class="node">
<title>Node15</title>
<g id="a_Node000015"><a xlink:href="group__DMA__Peripheral__burst.html" target="_top" xlink:title="DMA peripheral burst.">
<polygon fill="white" stroke="#666666" points="404,-253 284,-253 284,-234 404,-234 404,-253"/>
<text text-anchor="middle" x="344" y="-241" font-family="Helvetica,sans-Serif" font-size="10.00">DMA Peripheral burst</text>
</a>
</g>
</g>
<!-- Node1&#45;&gt;Node15 -->
<g id="edge14" class="edge">
<title>Node1&#45;&gt;Node15</title>
<path fill="none" stroke="black" d="M206.59,-269.12C233.98,-263.98 265.98,-257.97 292.1,-253.06"/>
<polygon fill="black" stroke="black" points="205.91,-265.69 196.73,-270.97 207.21,-272.57 205.91,-265.69"/>
</g>
<!-- Node8 -->
<g id="Node000008" class="node">
<title>Node8</title>
<g id="a_Node000008"><a xlink:href="group__DMA__Peripheral__data__size.html" target="_top" xlink:title="DMA peripheral data size.">
<polygon fill="white" stroke="#666666" points="414,-216 274,-216 274,-197 414,-197 414,-216"/>
<text text-anchor="middle" x="344" y="-204" font-family="Helvetica,sans-Serif" font-size="10.00">DMA Peripheral data size</text>
</a>
</g>
</g>
<!-- Node1&#45;&gt;Node8 -->
<g id="edge7" class="edge">
<title>Node1&#45;&gt;Node8</title>
<path fill="none" stroke="black" d="M169.53,-265.55C190.04,-253.14 220.99,-235.89 250,-225.5 260.55,-221.72 272.06,-218.61 283.27,-216.08"/>
<polygon fill="black" stroke="black" points="167.56,-262.65 160.88,-270.88 171.23,-268.62 167.56,-262.65"/>
</g>
<!-- Node6 -->
<g id="Node000006" class="node">
<title>Node6</title>
<g id="a_Node000006"><a xlink:href="group__DMA__Peripheral__incremented__mode.html" target="_top" xlink:title="DMA peripheral incremented mode.">
<polygon fill="white" stroke="#666666" points="438,-179 250,-179 250,-160 438,-160 438,-179"/>
<text text-anchor="middle" x="344" y="-167" font-family="Helvetica,sans-Serif" font-size="10.00">DMA Peripheral incremented mode</text>
</a>
</g>
</g>
<!-- Node1&#45;&gt;Node6 -->
<g id="edge5" class="edge">
<title>Node1&#45;&gt;Node6</title>
<path fill="none" stroke="black" d="M160.46,-263.04C178.95,-241.93 213.03,-206.95 250,-188.5 257.81,-184.6 266.38,-181.5 275.05,-179.04"/>
<polygon fill="black" stroke="black" points="157.58,-261.02 153.74,-270.89 162.9,-265.57 157.58,-261.02"/>
</g>
<!-- Node11 -->
<g id="Node000011" class="node">
<title>Node11</title>
<g id="a_Node000011"><a xlink:href="group__DMA__Priority__level.html" target="_top" xlink:title="DMA priority levels.">
<polygon fill="white" stroke="#666666" points="396.5,-142 291.5,-142 291.5,-123 396.5,-123 396.5,-142"/>
<text text-anchor="middle" x="344" y="-130" font-family="Helvetica,sans-Serif" font-size="10.00">DMA Priority level</text>
</a>
</g>
</g>
<!-- Node1&#45;&gt;Node11 -->
<g id="edge10" class="edge">
<title>Node1&#45;&gt;Node11</title>
<path fill="none" stroke="black" d="M155.48,-261.87C171.07,-233.26 204.94,-178.93 250,-151.5 262.39,-143.96 277.25,-139.36 291.42,-136.56"/>
<polygon fill="black" stroke="black" points="152.32,-260.36 150.74,-270.83 158.51,-263.63 152.32,-260.36"/>
</g>
<!-- Node17 -->
<g id="Node000017" class="node">
<title>Node17</title>
<g id="a_Node000017"><a xlink:href="group__DMA__flag__definitions.html" target="_top" xlink:title="DMA flag definitions.">
<polygon fill="white" stroke="#666666" points="401.5,-105 286.5,-105 286.5,-86 401.5,-86 401.5,-105"/>
<text text-anchor="middle" x="344" y="-93" font-family="Helvetica,sans-Serif" font-size="10.00">DMA flag definitions</text>
</a>
</g>
</g>
<!-- Node1&#45;&gt;Node17 -->
<g id="edge16" class="edge">
<title>Node1&#45;&gt;Node17</title>
<path fill="none" stroke="black" d="M152.34,-261.11C164.93,-225.87 196.56,-151.56 250,-114.5 260.7,-107.08 273.65,-102.43 286.45,-99.55"/>
<polygon fill="black" stroke="black" points="148.98,-260.11 149.04,-270.71 155.6,-262.39 148.98,-260.11"/>
</g>
<!-- Node16 -->
<g id="Node000016" class="node">
<title>Node16</title>
<g id="a_Node000016"><a xlink:href="group__DMA__interrupt__enable__definitions.html" target="_top" xlink:title="DMA interrupts definition.">
<polygon fill="white" stroke="#666666" points="404.5,-67.5 283.5,-67.5 283.5,-37.5 404.5,-37.5 404.5,-67.5"/>
<text text-anchor="start" x="291.5" y="-55.5" font-family="Helvetica,sans-Serif" font-size="10.00">DMA interrupt enable</text>
<text text-anchor="middle" x="344" y="-44.5" font-family="Helvetica,sans-Serif" font-size="10.00"> definitions</text>
</a>
</g>
</g>
<!-- Node1&#45;&gt;Node16 -->
<g id="edge15" class="edge">
<title>Node1&#45;&gt;Node16</title>
<path fill="none" stroke="black" d="M150.37,-260.9C160.47,-220.27 189.36,-126.54 250,-77.5 259.62,-69.72 271.45,-64.35 283.41,-60.65"/>
<polygon fill="black" stroke="black" points="146.96,-260.13 148.05,-270.67 153.77,-261.74 146.96,-260.13"/>
</g>
<!-- Node10 -->
<g id="Node000010" class="node">
<title>Node10</title>
<g id="a_Node000010"><a xlink:href="group__DMA__mode.html" target="_top" xlink:title="DMA mode.">
<polygon fill="white" stroke="#666666" points="379.5,-19 308.5,-19 308.5,0 379.5,0 379.5,-19"/>
<text text-anchor="middle" x="344" y="-7" font-family="Helvetica,sans-Serif" font-size="10.00">DMA mode</text>
</a>
</g>
</g>
<!-- Node1&#45;&gt;Node10 -->
<g id="edge9" class="edge">
<title>Node1&#45;&gt;Node10</title>
<path fill="none" stroke="black" d="M147.94,-260.91C153.79,-213.11 175.68,-89.89 250,-28.5 266.14,-15.17 289.15,-10.39 308.25,-8.96"/>
<polygon fill="black" stroke="black" points="144.46,-260.56 146.83,-270.89 151.42,-261.34 144.46,-260.56"/>
</g>
</g>
</svg>

<g id="navigator" transform="translate(0 0)" fill="#404254">
  <rect fill="#f2f5e9" fill-opacity="0.5" stroke="#606060" stroke-width=".5" x="0" y="0" width="60" height="60"/>
  <use id="zoomplus" xlink:href="#zoomPlus" x="17" y="9" onmousedown="handleZoom(evt,'in')"/>
  <use id="zoomminus" xlink:href="#zoomMin" x="42" y="9" onmousedown="handleZoom(evt,'out')"/>
  <use id="reset" xlink:href="#resetDef" x="30" y="36" onmousedown="handleReset()"/>
   <use id="arrowup" xlink:href="#arrowUp" x="0" y="0" onmousedown="handlePan(0,-1)"/>
  <use id="arrowright" xlink:href="#arrowRight" x="0" y="0" onmousedown="handlePan(1,0)"/>
  <use id="arrowdown" xlink:href="#arrowDown" x="0" y="0" onmousedown="handlePan(0,1)"/>
  <use id="arrowleft" xlink:href="#arrowLeft" x="0" y="0" onmousedown="handlePan(-1,0)"/>
</g>
<svg viewBox="0 0 15 15" width="100%" height="30px" preserveAspectRatio="xMaxYMin meet">
 <g id="arrow_out" transform="scale(0.3 0.3)">
  <a xlink:href="group__DMA__Exported__Constants_org.svg" target="_base">
   <rect id="button" ry="5" rx="5" y="6" x="6" height="38" width="38"
        fill="#f2f5e9" fill-opacity="0.5" stroke="#606060" stroke-width="1.0"/>
   <path id="arrow"
     d="M 11.500037,31.436501 C 11.940474,20.09759 22.043105,11.32322 32.158766,21.979434 L 37.068811,17.246167 C 37.068811,17.246167 37.088388,32 37.088388,32 L 22.160133,31.978069 C 22.160133,31.978069 26.997745,27.140456 26.997745,27.140456 C 18.528582,18.264221 13.291696,25.230495 11.500037,31.436501 z"
     style="fill:#404040;"/>
  </a>
 </g>
</svg>

<style type='text/css'>
<![CDATA[
[data-mouse-over-selected='false'] { opacity: 0.7; }
[data-mouse-over-selected='true']  { opacity: 1.0; }
]]>
</style>
<script type="application/ecmascript"><![CDATA[
document.addEventListener('DOMContentLoaded', (event) => {
  highlightEdges();
  highlightAdjacentNodes();
});
]]></script>
</svg>
