<?xml version="1.0" encoding="UTF-8" standalone="no"?>
<!DOCTYPE svg PUBLIC "-//W3C//DTD SVG 1.1//EN"
 "http://www.w3.org/Graphics/SVG/1.1/DTD/svg11.dtd">
<!-- Generated by graphviz version 12.2.1 (20241206.2353)
 -->
<!-- Title: TIM Exported Functions Pages: 1 -->
<svg width="389pt" height="417pt"
 viewBox="0.00 0.00 389.00 416.75" xmlns="http://www.w3.org/2000/svg" xmlns:xlink="http://www.w3.org/1999/xlink">
<g id="page0,1_graph0" class="graph" transform="scale(1 1) rotate(0) translate(4 412.75)">
<title>TIM Exported Functions</title>
<!-- Node2 -->
<g id="Node000002" class="node">
<title>Node2</title>
<g id="a_Node000002"><a xlink:href="group__TIM.html" target="_top" xlink:title="TIM HAL module driver.">
<polygon fill="white" stroke="#666666" points="33.25,-207.75 0,-207.75 0,-187 33.25,-187 33.25,-207.75"/>
<text text-anchor="middle" x="16.62" y="-194.25" font-family="Helvetica,sans-Serif" font-size="10.00">TIM</text>
</a>
</g>
</g>
<!-- Node1 -->
<g id="Node000001" class="node">
<title>Node1</title>
<g id="a_Node000001"><a xlink:title=" ">
<polygon fill="#999999" stroke="#666666" points="192.5,-207.75 69.25,-207.75 69.25,-187 192.5,-187 192.5,-207.75"/>
<text text-anchor="middle" x="130.88" y="-194.25" font-family="Helvetica,sans-Serif" font-size="10.00">TIM Exported Functions</text>
</a>
</g>
</g>
<!-- Node2&#45;&gt;Node1 -->
<g id="edge1" class="edge">
<title>Node2&#45;&gt;Node1</title>
<path fill="none" stroke="black" d="M45,-197.38C52.28,-197.38 60.45,-197.38 68.77,-197.38"/>
<polygon fill="black" stroke="black" points="45.22,-193.88 35.22,-197.38 45.22,-200.88 45.22,-193.88"/>
</g>
<!-- Node6 -->
<g id="Node000006" class="node">
<title>Node6</title>
<g id="a_Node000006"><a xlink:href="group__TIM__Exported__Functions__Group1.html" target="_top" xlink:title="Time Base functions.">
<polygon fill="white" stroke="#666666" points="367.5,-408.75 242,-408.75 242,-388 367.5,-388 367.5,-408.75"/>
<text text-anchor="middle" x="304.75" y="-395.25" font-family="Helvetica,sans-Serif" font-size="10.00">TIM Time Base functions</text>
</a>
</g>
</g>
<!-- Node1&#45;&gt;Node6 -->
<g id="edge5" class="edge">
<title>Node1&#45;&gt;Node6</title>
<path fill="none" stroke="black" d="M137.17,-219.08C147.7,-257.51 175.02,-337.44 228.5,-379.38 232.64,-382.62 237.26,-385.31 242.12,-387.55"/>
<polygon fill="black" stroke="black" points="140.56,-218.21 134.66,-209.42 133.79,-219.97 140.56,-218.21"/>
</g>
<!-- Node5 -->
<g id="Node000005" class="node">
<title>Node5</title>
<g id="a_Node000005"><a xlink:href="group__TIM__Exported__Functions__Group10.html" target="_top" xlink:title="Peripheral State functions.">
<polygon fill="white" stroke="#666666" points="358.5,-370.12 251,-370.12 251,-336.62 358.5,-336.62 358.5,-370.12"/>
<text text-anchor="start" x="259" y="-356.62" font-family="Helvetica,sans-Serif" font-size="10.00">TIM Peripheral State</text>
<text text-anchor="middle" x="304.75" y="-343.88" font-family="Helvetica,sans-Serif" font-size="10.00"> functions</text>
</a>
</g>
</g>
<!-- Node1&#45;&gt;Node5 -->
<g id="edge4" class="edge">
<title>Node1&#45;&gt;Node5</title>
<path fill="none" stroke="black" d="M142.21,-218.26C157.37,-246.82 188.24,-297.89 228.5,-327.38 235.19,-332.28 242.88,-336.31 250.73,-339.61"/>
<polygon fill="black" stroke="black" points="145.41,-216.81 137.72,-209.52 139.18,-220.01 145.41,-216.81"/>
</g>
<!-- Node7 -->
<g id="Node000007" class="node">
<title>Node7</title>
<g id="a_Node000007"><a xlink:href="group__TIM__Exported__Functions__Group2.html" target="_top" xlink:title="TIM Output Compare functions.">
<polygon fill="white" stroke="#666666" points="360.38,-318.12 249.12,-318.12 249.12,-284.62 360.38,-284.62 360.38,-318.12"/>
<text text-anchor="start" x="257.12" y="-304.62" font-family="Helvetica,sans-Serif" font-size="10.00">TIM Output Compare</text>
<text text-anchor="middle" x="304.75" y="-291.88" font-family="Helvetica,sans-Serif" font-size="10.00"> functions</text>
</a>
</g>
</g>
<!-- Node1&#45;&gt;Node7 -->
<g id="edge6" class="edge">
<title>Node1&#45;&gt;Node7</title>
<path fill="none" stroke="black" d="M150.67,-215.9C169.16,-233.27 198.84,-258.94 228.5,-275.38 234.91,-278.93 241.89,-282.12 248.93,-284.95"/>
<polygon fill="black" stroke="black" points="153.28,-213.56 143.64,-209.17 148.44,-218.61 153.28,-213.56"/>
</g>
<!-- Node8 -->
<g id="Node000008" class="node">
<title>Node8</title>
<g id="a_Node000008"><a xlink:href="group__TIM__Exported__Functions__Group3.html" target="_top" xlink:title="TIM PWM functions.">
<polygon fill="white" stroke="#666666" points="356.62,-266.75 252.88,-266.75 252.88,-246 356.62,-246 356.62,-266.75"/>
<text text-anchor="middle" x="304.75" y="-253.25" font-family="Helvetica,sans-Serif" font-size="10.00">TIM PWM functions</text>
</a>
</g>
</g>
<!-- Node1&#45;&gt;Node8 -->
<g id="edge7" class="edge">
<title>Node1&#45;&gt;Node8</title>
<path fill="none" stroke="black" d="M166.61,-212.61C184.83,-220.29 207.65,-229.43 228.5,-236.38 238.37,-239.67 249.12,-242.79 259.31,-245.54"/>
<polygon fill="black" stroke="black" points="168.15,-209.46 157.58,-208.76 165.4,-215.9 168.15,-209.46"/>
</g>
<!-- Node9 -->
<g id="Node000009" class="node">
<title>Node9</title>
<g id="a_Node000009"><a xlink:href="group__TIM__Exported__Functions__Group4.html" target="_top" xlink:title="TIM Input Capture functions.">
<polygon fill="white" stroke="#666666" points="375.75,-227.75 233.75,-227.75 233.75,-207 375.75,-207 375.75,-227.75"/>
<text text-anchor="middle" x="304.75" y="-214.25" font-family="Helvetica,sans-Serif" font-size="10.00">TIM Input Capture functions</text>
</a>
</g>
</g>
<!-- Node1&#45;&gt;Node9 -->
<g id="edge8" class="edge">
<title>Node1&#45;&gt;Node9</title>
<path fill="none" stroke="black" d="M204.2,-205.79C213.89,-206.92 223.83,-208.07 233.49,-209.2"/>
<polygon fill="black" stroke="black" points="204.8,-202.34 194.46,-204.66 203.99,-209.29 204.8,-202.34"/>
</g>
<!-- Node10 -->
<g id="Node000010" class="node">
<title>Node10</title>
<g id="a_Node000010"><a xlink:href="group__TIM__Exported__Functions__Group5.html" target="_top" xlink:title="TIM One Pulse functions.">
<polygon fill="white" stroke="#666666" points="367.12,-188.75 242.38,-188.75 242.38,-168 367.12,-168 367.12,-188.75"/>
<text text-anchor="middle" x="304.75" y="-175.25" font-family="Helvetica,sans-Serif" font-size="10.00">TIM One Pulse functions</text>
</a>
</g>
</g>
<!-- Node1&#45;&gt;Node10 -->
<g id="edge9" class="edge">
<title>Node1&#45;&gt;Node10</title>
<path fill="none" stroke="black" d="M204.32,-189.37C216.86,-187.98 229.78,-186.55 242,-185.2"/>
<polygon fill="black" stroke="black" points="204.01,-185.88 194.46,-190.46 204.78,-192.84 204.01,-185.88"/>
</g>
<!-- Node11 -->
<g id="Node000011" class="node">
<title>Node11</title>
<g id="a_Node000011"><a xlink:href="group__TIM__Exported__Functions__Group6.html" target="_top" xlink:title="TIM Encoder functions.">
<polygon fill="white" stroke="#666666" points="363.38,-149.75 246.12,-149.75 246.12,-129 363.38,-129 363.38,-149.75"/>
<text text-anchor="middle" x="304.75" y="-136.25" font-family="Helvetica,sans-Serif" font-size="10.00">TIM Encoder functions</text>
</a>
</g>
</g>
<!-- Node1&#45;&gt;Node11 -->
<g id="edge10" class="edge">
<title>Node1&#45;&gt;Node11</title>
<path fill="none" stroke="black" d="M167.65,-182.17C185.71,-174.78 208.08,-166.08 228.5,-159.38 238.52,-156.09 249.42,-152.94 259.73,-150.17"/>
<polygon fill="black" stroke="black" points="166.32,-178.93 158.41,-185.99 168.99,-185.4 166.32,-178.93"/>
</g>
<!-- Node12 -->
<g id="Node000012" class="node">
<title>Node12</title>
<g id="a_Node000012"><a xlink:href="group__TIM__Exported__Functions__Group7.html" target="_top" xlink:title="IRQ handler management.">
<polygon fill="white" stroke="#666666" points="381,-110.75 228.5,-110.75 228.5,-90 381,-90 381,-110.75"/>
<text text-anchor="middle" x="304.75" y="-97.25" font-family="Helvetica,sans-Serif" font-size="10.00">TIM IRQ handler management</text>
</a>
</g>
</g>
<!-- Node1&#45;&gt;Node12 -->
<g id="edge11" class="edge">
<title>Node1&#45;&gt;Node12</title>
<path fill="none" stroke="black" d="M150.16,-178.9C168.47,-161.41 198.2,-135.62 228.5,-120.38 235.74,-116.73 243.73,-113.69 251.7,-111.18"/>
<polygon fill="black" stroke="black" points="147.93,-176.19 143.22,-185.68 152.82,-181.2 147.93,-176.19"/>
</g>
<!-- Node3 -->
<g id="Node000003" class="node">
<title>Node3</title>
<g id="a_Node000003"><a xlink:href="group__TIM__Exported__Functions__Group8.html" target="_top" xlink:title="Peripheral Control functions.">
<polygon fill="white" stroke="#666666" points="364.5,-72.12 245,-72.12 245,-38.62 364.5,-38.62 364.5,-72.12"/>
<text text-anchor="start" x="253" y="-58.62" font-family="Helvetica,sans-Serif" font-size="10.00">TIM Peripheral Control</text>
<text text-anchor="middle" x="304.75" y="-45.88" font-family="Helvetica,sans-Serif" font-size="10.00"> functions</text>
</a>
</g>
</g>
<!-- Node1&#45;&gt;Node3 -->
<g id="edge2" class="edge">
<title>Node1&#45;&gt;Node3</title>
<path fill="none" stroke="black" d="M143.92,-176.94C160.09,-151.19 191.14,-107.18 228.5,-81.38 233.5,-77.92 239.01,-74.88 244.7,-72.22"/>
<polygon fill="black" stroke="black" points="140.95,-175.1 138.72,-185.46 146.92,-178.75 140.95,-175.1"/>
</g>
<!-- Node4 -->
<g id="Node000004" class="node">
<title>Node4</title>
<g id="a_Node000004"><a xlink:href="group__TIM__Exported__Functions__Group9.html" target="_top" xlink:title="TIM Callbacks functions.">
<polygon fill="white" stroke="#666666" points="366.38,-20.75 243.12,-20.75 243.12,0 366.38,0 366.38,-20.75"/>
<text text-anchor="middle" x="304.75" y="-7.25" font-family="Helvetica,sans-Serif" font-size="10.00">TIM Callbacks functions</text>
</a>
</g>
</g>
<!-- Node1&#45;&gt;Node4 -->
<g id="edge3" class="edge">
<title>Node1&#45;&gt;Node4</title>
<path fill="none" stroke="black" d="M138.07,-176.06C149.67,-140.09 178.13,-67.51 228.5,-29.38 232.9,-26.04 237.83,-23.29 242.99,-21.01"/>
<polygon fill="black" stroke="black" points="134.82,-174.72 135.23,-185.31 141.51,-176.78 134.82,-174.72"/>
</g>
</g>
</svg>
