<?xml version="1.0" encoding="UTF-8" standalone="no"?>
<!DOCTYPE svg PUBLIC "-//W3C//DTD SVG 1.1//EN"
 "http://www.w3.org/Graphics/SVG/1.1/DTD/svg11.dtd">
<!-- Generated by graphviz version 12.2.1 (20241206.2353)
 -->
<!-- Title: TIM Extended Exported Functions Pages: 1 -->
<svg width="409pt" height="354pt"
 viewBox="0.00 0.00 408.50 353.50" xmlns="http://www.w3.org/2000/svg" xmlns:xlink="http://www.w3.org/1999/xlink">
<g id="page0,1_graph0" class="graph" transform="scale(1 1) rotate(0) translate(4 349.5)">
<title>TIM Extended Exported Functions</title>
<!-- Node2 -->
<g id="Node000002" class="node">
<title>Node2</title>
<g id="a_Node000002"><a xlink:href="group__TIMEx.html" target="_top" xlink:title="TIM Extended HAL module driver.">
<polygon fill="white" stroke="#666666" points="43.75,-183.12 0,-183.12 0,-162.38 43.75,-162.38 43.75,-183.12"/>
<text text-anchor="middle" x="21.88" y="-169.62" font-family="Helvetica,sans-Serif" font-size="10.00">TIMEx</text>
</a>
</g>
</g>
<!-- Node1 -->
<g id="Node000001" class="node">
<title>Node1</title>
<g id="a_Node000001"><a xlink:title=" ">
<polygon fill="#999999" stroke="#666666" points="201.5,-189.5 79.75,-189.5 79.75,-156 201.5,-156 201.5,-189.5"/>
<text text-anchor="start" x="87.75" y="-176" font-family="Helvetica,sans-Serif" font-size="10.00">TIM Extended Exported</text>
<text text-anchor="middle" x="140.62" y="-163.25" font-family="Helvetica,sans-Serif" font-size="10.00"> Functions</text>
</a>
</g>
</g>
<!-- Node2&#45;&gt;Node1 -->
<g id="edge1" class="edge">
<title>Node2&#45;&gt;Node1</title>
<path fill="none" stroke="black" d="M55.26,-172.75C62.87,-172.75 71.21,-172.75 79.61,-172.75"/>
<polygon fill="black" stroke="black" points="55.53,-169.25 45.53,-172.75 55.53,-176.25 55.53,-169.25"/>
</g>
<!-- Node3 -->
<g id="Node000003" class="node">
<title>Node3</title>
<g id="a_Node000003"><a xlink:href="group__TIMEx__Exported__Functions__Group1.html" target="_top" xlink:title="Timer Hall Sensor functions.">
<polygon fill="white" stroke="#666666" points="373.12,-345.5 264.88,-345.5 264.88,-312 373.12,-312 373.12,-345.5"/>
<text text-anchor="start" x="272.88" y="-332" font-family="Helvetica,sans-Serif" font-size="10.00">Extended Timer Hall</text>
<text text-anchor="middle" x="319" y="-319.25" font-family="Helvetica,sans-Serif" font-size="10.00"> Sensor functions</text>
</a>
</g>
</g>
<!-- Node1&#45;&gt;Node3 -->
<g id="edge2" class="edge">
<title>Node1&#45;&gt;Node3</title>
<path fill="none" stroke="black" d="M154.93,-199.75C170.74,-229.16 199.8,-275.61 237.5,-302.75 245.61,-308.58 255.08,-313.15 264.64,-316.72"/>
<polygon fill="black" stroke="black" points="158.14,-198.35 150.41,-191.1 151.94,-201.59 158.14,-198.35"/>
</g>
<!-- Node4 -->
<g id="Node000004" class="node">
<title>Node4</title>
<g id="a_Node000004"><a xlink:href="group__TIMEx__Exported__Functions__Group2.html" target="_top" xlink:title="Timer Complementary Output Compare functions.">
<polygon fill="white" stroke="#666666" points="400.5,-293.5 237.5,-293.5 237.5,-260 400.5,-260 400.5,-293.5"/>
<text text-anchor="start" x="245.5" y="-280" font-family="Helvetica,sans-Serif" font-size="10.00">Extended Timer Complementary</text>
<text text-anchor="middle" x="319" y="-267.25" font-family="Helvetica,sans-Serif" font-size="10.00"> Output Compare functions</text>
</a>
</g>
</g>
<!-- Node1&#45;&gt;Node4 -->
<g id="edge3" class="edge">
<title>Node1&#45;&gt;Node4</title>
<path fill="none" stroke="black" d="M166.89,-197.73C185.2,-214.67 211.25,-236.49 237.5,-250.75 243.57,-254.05 250.12,-257.01 256.77,-259.65"/>
<polygon fill="black" stroke="black" points="169.33,-195.22 159.66,-190.9 164.52,-200.31 169.33,-195.22"/>
</g>
<!-- Node5 -->
<g id="Node000005" class="node">
<title>Node5</title>
<g id="a_Node000005"><a xlink:href="group__TIMEx__Exported__Functions__Group3.html" target="_top" xlink:title="Timer Complementary PWM functions.">
<polygon fill="white" stroke="#666666" points="400.5,-241.5 237.5,-241.5 237.5,-208 400.5,-208 400.5,-241.5"/>
<text text-anchor="start" x="245.5" y="-228" font-family="Helvetica,sans-Serif" font-size="10.00">Extended Timer Complementary</text>
<text text-anchor="middle" x="319" y="-215.25" font-family="Helvetica,sans-Serif" font-size="10.00"> PWM functions</text>
</a>
</g>
</g>
<!-- Node1&#45;&gt;Node5 -->
<g id="edge4" class="edge">
<title>Node1&#45;&gt;Node5</title>
<path fill="none" stroke="black" d="M210.84,-193.16C226.95,-197.9 243.93,-202.91 259.52,-207.51"/>
<polygon fill="black" stroke="black" points="211.9,-189.82 201.32,-190.35 209.92,-196.53 211.9,-189.82"/>
</g>
<!-- Node6 -->
<g id="Node000006" class="node">
<title>Node6</title>
<g id="a_Node000006"><a xlink:href="group__TIMEx__Exported__Functions__Group4.html" target="_top" xlink:title="Timer Complementary One Pulse functions.">
<polygon fill="white" stroke="#666666" points="400.5,-189.5 237.5,-189.5 237.5,-156 400.5,-156 400.5,-189.5"/>
<text text-anchor="start" x="245.5" y="-176" font-family="Helvetica,sans-Serif" font-size="10.00">Extended Timer Complementary</text>
<text text-anchor="middle" x="319" y="-163.25" font-family="Helvetica,sans-Serif" font-size="10.00"> One Pulse functions</text>
</a>
</g>
</g>
<!-- Node1&#45;&gt;Node6 -->
<g id="edge5" class="edge">
<title>Node1&#45;&gt;Node6</title>
<path fill="none" stroke="black" d="M213.22,-172.75C221.11,-172.75 229.18,-172.75 237.17,-172.75"/>
<polygon fill="black" stroke="black" points="213.34,-169.25 203.34,-172.75 213.34,-176.25 213.34,-169.25"/>
</g>
<!-- Node7 -->
<g id="Node000007" class="node">
<title>Node7</title>
<g id="a_Node000007"><a xlink:href="group__TIMEx__Exported__Functions__Group5.html" target="_top" xlink:title="Peripheral Control functions.">
<polygon fill="white" stroke="#666666" points="372.75,-137.5 265.25,-137.5 265.25,-104 372.75,-104 372.75,-137.5"/>
<text text-anchor="start" x="273.25" y="-124" font-family="Helvetica,sans-Serif" font-size="10.00">Extended Peripheral</text>
<text text-anchor="middle" x="319" y="-111.25" font-family="Helvetica,sans-Serif" font-size="10.00"> Control functions</text>
</a>
</g>
</g>
<!-- Node1&#45;&gt;Node7 -->
<g id="edge6" class="edge">
<title>Node1&#45;&gt;Node7</title>
<path fill="none" stroke="black" d="M210.88,-152.33C228.84,-147.04 247.9,-141.42 264.88,-136.41"/>
<polygon fill="black" stroke="black" points="209.92,-148.97 201.32,-155.15 211.9,-155.68 209.92,-148.97"/>
</g>
<!-- Node8 -->
<g id="Node000008" class="node">
<title>Node8</title>
<g id="a_Node000008"><a xlink:href="group__TIMEx__Exported__Functions__Group6.html" target="_top" xlink:title="Extended Callbacks functions.">
<polygon fill="white" stroke="#666666" points="371.25,-85.5 266.75,-85.5 266.75,-52 371.25,-52 371.25,-85.5"/>
<text text-anchor="start" x="274.75" y="-72" font-family="Helvetica,sans-Serif" font-size="10.00">Extended Callbacks</text>
<text text-anchor="middle" x="319" y="-59.25" font-family="Helvetica,sans-Serif" font-size="10.00"> functions</text>
</a>
</g>
</g>
<!-- Node1&#45;&gt;Node8 -->
<g id="edge7" class="edge">
<title>Node1&#45;&gt;Node8</title>
<path fill="none" stroke="black" d="M166.89,-147.77C185.2,-130.83 211.25,-109.01 237.5,-94.75 246.53,-89.84 256.65,-85.67 266.57,-82.21"/>
<polygon fill="black" stroke="black" points="164.52,-145.19 159.66,-154.6 169.33,-150.28 164.52,-145.19"/>
</g>
<!-- Node9 -->
<g id="Node000009" class="node">
<title>Node9</title>
<g id="a_Node000009"><a xlink:href="group__TIMEx__Exported__Functions__Group7.html" target="_top" xlink:title="Extended Peripheral State functions.">
<polygon fill="white" stroke="#666666" points="372.75,-33.5 265.25,-33.5 265.25,0 372.75,0 372.75,-33.5"/>
<text text-anchor="start" x="273.25" y="-20" font-family="Helvetica,sans-Serif" font-size="10.00">Extended Peripheral</text>
<text text-anchor="middle" x="319" y="-7.25" font-family="Helvetica,sans-Serif" font-size="10.00"> State functions</text>
</a>
</g>
</g>
<!-- Node1&#45;&gt;Node9 -->
<g id="edge8" class="edge">
<title>Node1&#45;&gt;Node9</title>
<path fill="none" stroke="black" d="M154.93,-145.75C170.74,-116.34 199.8,-69.89 237.5,-42.75 245.72,-36.83 255.36,-32.21 265.06,-28.63"/>
<polygon fill="black" stroke="black" points="151.94,-143.91 150.41,-154.4 158.14,-147.15 151.94,-143.91"/>
</g>
</g>
</svg>
