<?xml version="1.0" encoding="UTF-8" standalone="no"?>
<!DOCTYPE svg PUBLIC "-//W3C//DTD SVG 1.1//EN"
 "http://www.w3.org/Graphics/SVG/1.1/DTD/svg11.dtd">
<!-- Generated by graphviz version 2.43.0 (0)
 -->
<!-- Title: FLASHEx Pages: 1 -->
<svg width="436pt" height="212pt"
 viewBox="0.00 0.00 436.00 212.00" xmlns="http://www.w3.org/2000/svg" xmlns:xlink="http://www.w3.org/1999/xlink">
<g id="graph0" class="graph" transform="scale(1 1) rotate(0) translate(4 208)">
<title>FLASHEx</title>
<!-- Node1 -->
<g id="Node000001" class="node">
<title>Node1</title>
<g id="a_Node000001"><a xlink:title="FLASH HAL Extension module driver.">
<polygon fill="#999999" stroke="#666666" points="231,-111 170,-111 170,-92 231,-92 231,-111"/>
<text text-anchor="middle" x="200.5" y="-99" font-family="Helvetica,sans-Serif" font-size="10.00">FLASHEx</text>
</a>
</g>
</g>
<!-- Node4 -->
<g id="Node000004" class="node">
<title>Node4</title>
<g id="a_Node000004"><a xlink:href="group__FLASHEx__Exported__Constants.html" target="_top" xlink:title=" ">
<polygon fill="white" stroke="#666666" points="421,-204 274,-204 274,-185 421,-185 421,-204"/>
<text text-anchor="middle" x="347.5" y="-192" font-family="Helvetica,sans-Serif" font-size="10.00">FLASH Exported Constants</text>
</a>
</g>
</g>
<!-- Node1&#45;&gt;Node4 -->
<g id="edge3" class="edge">
<title>Node1&#45;&gt;Node4</title>
<path fill="none" stroke="black" d="M212.5,-119.7C223.94,-137.02 243.45,-162.45 267,-176.5 272.71,-179.91 279.01,-182.67 285.48,-184.91"/>
<polygon fill="black" stroke="black" points="215.31,-117.61 207,-111.04 209.4,-121.36 215.31,-117.61"/>
</g>
<!-- Node8 -->
<g id="Node000008" class="node">
<title>Node8</title>
<g id="a_Node000008"><a xlink:href="group__FLASHEx__Exported__Functions.html" target="_top" xlink:title=" ">
<polygon fill="white" stroke="#666666" points="428,-167 267,-167 267,-148 428,-148 428,-167"/>
<text text-anchor="middle" x="347.5" y="-155" font-family="Helvetica,sans-Serif" font-size="10.00">FLASHEx_Exported_Functions</text>
</a>
</g>
</g>
<!-- Node1&#45;&gt;Node8 -->
<g id="edge7" class="edge">
<title>Node1&#45;&gt;Node8</title>
<path fill="none" stroke="black" d="M224.06,-116.88C236.31,-124.63 251.98,-133.6 267,-139.5 275.43,-142.81 284.61,-145.59 293.65,-147.9"/>
<polygon fill="black" stroke="black" points="225.72,-113.78 215.43,-111.27 221.91,-119.65 225.72,-113.78"/>
</g>
<!-- Node3 -->
<g id="Node000003" class="node">
<title>Node3</title>
<g id="a_Node000003"><a xlink:href="group__FLASHEx__Exported__Types.html" target="_top" xlink:title=" ">
<polygon fill="white" stroke="#666666" points="410.5,-130 284.5,-130 284.5,-111 410.5,-111 410.5,-130"/>
<text text-anchor="middle" x="347.5" y="-118" font-family="Helvetica,sans-Serif" font-size="10.00">FLASH Exported Types</text>
</a>
</g>
</g>
<!-- Node1&#45;&gt;Node3 -->
<g id="edge2" class="edge">
<title>Node1&#45;&gt;Node3</title>
<path fill="none" stroke="black" d="M241.38,-106.73C254.63,-108.46 269.71,-110.44 284.23,-112.34"/>
<polygon fill="black" stroke="black" points="241.56,-103.22 231.19,-105.39 240.65,-110.16 241.56,-103.22"/>
</g>
<!-- Node5 -->
<g id="Node000005" class="node">
<title>Node5</title>
<g id="a_Node000005"><a xlink:href="group__FLASHEx__Private__Constants.html" target="_top" xlink:title=" ">
<polygon fill="white" stroke="#666666" points="416.5,-93 278.5,-93 278.5,-74 416.5,-74 416.5,-93"/>
<text text-anchor="middle" x="347.5" y="-81" font-family="Helvetica,sans-Serif" font-size="10.00">FLASH Private Constants</text>
</a>
</g>
</g>
<!-- Node1&#45;&gt;Node5 -->
<g id="edge4" class="edge">
<title>Node1&#45;&gt;Node5</title>
<path fill="none" stroke="black" d="M241.28,-96.56C252.74,-95.14 265.58,-93.55 278.24,-91.97"/>
<polygon fill="black" stroke="black" points="240.69,-93.11 231.19,-97.81 241.55,-100.06 240.69,-93.11"/>
</g>
<!-- Node7 -->
<g id="Node000007" class="node">
<title>Node7</title>
<g id="a_Node000007"><a xlink:href="group__FLASHEx__Private__Functions.html" target="_top" xlink:title=" ">
<polygon fill="white" stroke="#666666" points="415.5,-56 279.5,-56 279.5,-37 415.5,-37 415.5,-56"/>
<text text-anchor="middle" x="347.5" y="-44" font-family="Helvetica,sans-Serif" font-size="10.00">FLASH Private Functions</text>
</a>
</g>
</g>
<!-- Node1&#45;&gt;Node7 -->
<g id="edge6" class="edge">
<title>Node1&#45;&gt;Node7</title>
<path fill="none" stroke="black" d="M224.6,-86.26C236.79,-78.79 252.24,-70.2 267,-64.5 275.58,-61.19 284.93,-58.4 294.1,-56.08"/>
<polygon fill="black" stroke="black" points="222.58,-83.39 215.98,-91.68 226.3,-89.32 222.58,-83.39"/>
</g>
<!-- Node6 -->
<g id="Node000006" class="node">
<title>Node6</title>
<g id="a_Node000006"><a xlink:href="group__FLASHEx__Private__Macros.html" target="_top" xlink:title=" ">
<polygon fill="white" stroke="#666666" points="410,-19 285,-19 285,0 410,0 410,-19"/>
<text text-anchor="middle" x="347.5" y="-7" font-family="Helvetica,sans-Serif" font-size="10.00">FLASH Private Macros</text>
</a>
</g>
</g>
<!-- Node1&#45;&gt;Node6 -->
<g id="edge5" class="edge">
<title>Node1&#45;&gt;Node6</title>
<path fill="none" stroke="black" d="M212.74,-83.27C224.24,-66.19 243.7,-41.29 267,-27.5 272.72,-24.11 279.03,-21.36 285.5,-19.13"/>
<polygon fill="black" stroke="black" points="209.69,-81.54 207.19,-91.83 215.57,-85.34 209.69,-81.54"/>
</g>
<!-- Node2 -->
<g id="Node000002" class="node">
<title>Node2</title>
<g id="a_Node000002"><a xlink:href="group__STM32F4xx__HAL__Driver.html" target="_top" xlink:title=" ">
<polygon fill="white" stroke="#666666" points="134,-111 0,-111 0,-92 134,-92 134,-111"/>
<text text-anchor="middle" x="67" y="-99" font-family="Helvetica,sans-Serif" font-size="10.00">STM32F4xx_HAL_Driver</text>
</a>
</g>
</g>
<!-- Node2&#45;&gt;Node1 -->
<g id="edge1" class="edge">
<title>Node2&#45;&gt;Node1</title>
<path fill="none" stroke="black" d="M144.38,-101.5C153.38,-101.5 162.11,-101.5 169.86,-101.5"/>
<polygon fill="black" stroke="black" points="144.14,-98 134.14,-101.5 144.14,-105 144.14,-98"/>
</g>
</g>
</svg>
