<?xml version="1.0" encoding="UTF-8" standalone="no"?>
<!DOCTYPE svg PUBLIC "-//W3C//DTD SVG 1.1//EN"
 "http://www.w3.org/Graphics/SVG/1.1/DTD/svg11.dtd">
<!-- Generated by graphviz version 2.43.0 (0)
 -->
<!-- Title: PWR Pages: 1 -->
<svg width="390pt" height="212pt"
 viewBox="0.00 0.00 390.00 212.00" xmlns="http://www.w3.org/2000/svg" xmlns:xlink="http://www.w3.org/1999/xlink">
<g id="graph0" class="graph" transform="scale(1 1) rotate(0) translate(4 208)">
<title>PWR</title>
<!-- Node1 -->
<g id="Node000001" class="node">
<title>Node1</title>
<g id="a_Node000001"><a xlink:title="PWR HAL module driver.">
<polygon fill="#999999" stroke="#666666" points="209,-111 170,-111 170,-92 209,-92 209,-111"/>
<text text-anchor="middle" x="189.5" y="-99" font-family="Helvetica,sans-Serif" font-size="10.00">PWR</text>
</a>
</g>
</g>
<!-- Node4 -->
<g id="Node000004" class="node">
<title>Node4</title>
<g id="a_Node000004"><a xlink:href="group__PWR__Exported__Constants.html" target="_top" xlink:title=" ">
<polygon fill="white" stroke="#666666" points="382,-204 245,-204 245,-185 382,-185 382,-204"/>
<text text-anchor="middle" x="313.5" y="-192" font-family="Helvetica,sans-Serif" font-size="10.00">PWR Exported Constants</text>
</a>
</g>
</g>
<!-- Node1&#45;&gt;Node4 -->
<g id="edge3" class="edge">
<title>Node1&#45;&gt;Node4</title>
<path fill="none" stroke="black" d="M199.42,-120.28C208.52,-137.45 224.26,-162.26 245,-176.5 250,-179.93 255.62,-182.71 261.43,-184.96"/>
<polygon fill="black" stroke="black" points="202.46,-118.55 194.84,-111.2 196.21,-121.7 202.46,-118.55"/>
</g>
<!-- Node8 -->
<g id="Node000008" class="node">
<title>Node8</title>
<g id="a_Node000008"><a xlink:href="group__PWR__Exported__Functions.html" target="_top" xlink:title=" ">
<polygon fill="white" stroke="#666666" points="381,-167 246,-167 246,-148 381,-148 381,-167"/>
<text text-anchor="middle" x="313.5" y="-155" font-family="Helvetica,sans-Serif" font-size="10.00">PWR Exported Functions</text>
</a>
</g>
</g>
<!-- Node1&#45;&gt;Node8 -->
<g id="edge7" class="edge">
<title>Node1&#45;&gt;Node8</title>
<path fill="none" stroke="black" d="M209.9,-117.51C219.88,-125.09 232.54,-133.71 245,-139.5 252.15,-142.82 260.02,-145.61 267.79,-147.94"/>
<polygon fill="black" stroke="black" points="211.92,-114.65 201.89,-111.23 207.59,-120.16 211.92,-114.65"/>
</g>
<!-- Node5 -->
<g id="Node000005" class="node">
<title>Node5</title>
<g id="a_Node000005"><a xlink:href="group__PWR__Exported__Macro.html" target="_top" xlink:title=" ">
<polygon fill="white" stroke="#666666" points="373,-130 254,-130 254,-111 373,-111 373,-130"/>
<text text-anchor="middle" x="313.5" y="-118" font-family="Helvetica,sans-Serif" font-size="10.00">PWR Exported Macro</text>
</a>
</g>
</g>
<!-- Node1&#45;&gt;Node5 -->
<g id="edge4" class="edge">
<title>Node1&#45;&gt;Node5</title>
<path fill="none" stroke="black" d="M219.16,-105.96C229.57,-107.58 241.75,-109.48 253.81,-111.36"/>
<polygon fill="black" stroke="black" points="219.45,-102.47 209.03,-104.39 218.37,-109.38 219.45,-102.47"/>
</g>
<!-- Node3 -->
<g id="Node000003" class="node">
<title>Node3</title>
<g id="a_Node000003"><a xlink:href="group__PWR__Exported__Types.html" target="_top" xlink:title=" ">
<polygon fill="white" stroke="#666666" points="371.5,-93 255.5,-93 255.5,-74 371.5,-74 371.5,-93"/>
<text text-anchor="middle" x="313.5" y="-81" font-family="Helvetica,sans-Serif" font-size="10.00">PWR Exported Types</text>
</a>
</g>
</g>
<!-- Node1&#45;&gt;Node3 -->
<g id="edge2" class="edge">
<title>Node1&#45;&gt;Node3</title>
<path fill="none" stroke="black" d="M219.18,-97.27C230.05,-95.66 242.85,-93.78 255.42,-91.92"/>
<polygon fill="black" stroke="black" points="218.41,-93.84 209.03,-98.77 219.43,-100.77 218.41,-93.84"/>
</g>
<!-- Node6 -->
<g id="Node000006" class="node">
<title>Node6</title>
<g id="a_Node000006"><a xlink:href="group__PWR__Private__Constants.html" target="_top" xlink:title=" ">
<polygon fill="white" stroke="#666666" points="377.5,-56 249.5,-56 249.5,-37 377.5,-37 377.5,-56"/>
<text text-anchor="middle" x="313.5" y="-44" font-family="Helvetica,sans-Serif" font-size="10.00">PWR Private Constants</text>
</a>
</g>
</g>
<!-- Node1&#45;&gt;Node6 -->
<g id="edge5" class="edge">
<title>Node1&#45;&gt;Node6</title>
<path fill="none" stroke="black" d="M210.35,-85.64C220.28,-78.35 232.77,-70.09 245,-64.5 252.28,-61.17 260.29,-58.37 268.18,-56.03"/>
<polygon fill="black" stroke="black" points="208.19,-82.88 202.35,-91.72 212.43,-88.46 208.19,-82.88"/>
</g>
<!-- Node7 -->
<g id="Node000007" class="node">
<title>Node7</title>
<g id="a_Node000007"><a xlink:href="group__PWR__Private__Macros.html" target="_top" xlink:title=" ">
<polygon fill="white" stroke="#666666" points="371,-19 256,-19 256,0 371,0 371,-19"/>
<text text-anchor="middle" x="313.5" y="-7" font-family="Helvetica,sans-Serif" font-size="10.00">PWR Private Macros</text>
</a>
</g>
</g>
<!-- Node1&#45;&gt;Node7 -->
<g id="edge6" class="edge">
<title>Node1&#45;&gt;Node7</title>
<path fill="none" stroke="black" d="M199.48,-82.97C208.63,-66.03 224.39,-41.55 245,-27.5 250.01,-24.08 255.64,-21.32 261.45,-19.07"/>
<polygon fill="black" stroke="black" points="196.33,-81.44 194.87,-91.93 202.56,-84.64 196.33,-81.44"/>
</g>
<!-- Node2 -->
<g id="Node000002" class="node">
<title>Node2</title>
<g id="a_Node000002"><a xlink:href="group__STM32F4xx__HAL__Driver.html" target="_top" xlink:title=" ">
<polygon fill="white" stroke="#666666" points="134,-111 0,-111 0,-92 134,-92 134,-111"/>
<text text-anchor="middle" x="67" y="-99" font-family="Helvetica,sans-Serif" font-size="10.00">STM32F4xx_HAL_Driver</text>
</a>
</g>
</g>
<!-- Node2&#45;&gt;Node1 -->
<g id="edge1" class="edge">
<title>Node2&#45;&gt;Node1</title>
<path fill="none" stroke="black" d="M144.27,-101.5C153.74,-101.5 162.65,-101.5 169.94,-101.5"/>
<polygon fill="black" stroke="black" points="144.24,-98 134.24,-101.5 144.24,-105 144.24,-98"/>
</g>
</g>
</svg>
