<?xml version="1.0" encoding="UTF-8" standalone="no"?>
<!DOCTYPE svg PUBLIC "-//W3C//DTD SVG 1.1//EN"
 "http://www.w3.org/Graphics/SVG/1.1/DTD/svg11.dtd">
<!-- Generated by graphviz version 12.2.1 (20241206.2353)
 -->
<!-- Title: SPI Exported Constants Pages: 1 -->
<!--zoomable 497 -->

<svg id="main" version="1.1" xmlns="http://www.w3.org/2000/svg" xmlns:xlink="http://www.w3.org/1999/xlink" xml:space="preserve" onload="init(evt)">

<style type="text/css"><![CDATA[
.node, .edge {opacity: 0.7;}
.node.selected, .edge.selected {opacity: 1;}
.edge:hover path { stroke: red; }
.edge:hover polygon { stroke: red; fill: red; }
]]></style>

<defs>
  <circle id="rim" cx="0" cy="0" r="7"/>
  <circle id="rim2" cx="0" cy="0" r="3.5"/>
  <g id="zoomPlus">
    <use xlink:href="#rim" fill="#404040"><set attributeName="fill" to="#808080" begin="zoomplus.mouseover" end="zoomplus.mouseout"/></use>
    <path d="M-4,0h8M0,-4v8" fill="none" stroke="white" stroke-width="1.5" pointer-events="none"/>
  </g>
  <g id="zoomMin">
    <use xlink:href="#rim" fill="#404040"><set attributeName="fill" to="#808080" begin="zoomminus.mouseover" end="zoomminus.mouseout"/></use>
    <path d="M-4,0h8" fill="none" stroke="white" stroke-width="1.5" pointer-events="none"/>
  </g>
  <g id="arrowUp" transform="translate(30 24)">
    <use xlink:href="#rim"/>
    <path pointer-events="none" fill="none" stroke="white" stroke-width="1.5" d="M0,-3.0v7 M-2.5,-0.5L0,-3.0L2.5,-0.5"/>
  </g>
  <g id="arrowRight" transform="rotate(90) translate(36 -43)">
    <use xlink:href="#rim"/>
    <path pointer-events="none" fill="none" stroke="white" stroke-width="1.5" d="M0,-3.0v7 M-2.5,-0.5L0,-3.0L2.5,-0.5"/>
  </g>
  <g id="arrowDown" transform="rotate(180) translate(-30 -48)">
    <use xlink:href="#rim"/>
    <path pointer-events="none" fill="none" stroke="white" stroke-width="1.5" d="M0,-3.0v7 M-2.5,-0.5L0,-3.0L2.5,-0.5"/>
  </g>
  <g id="arrowLeft" transform="rotate(270) translate(-36 17)">
    <use xlink:href="#rim"/>
    <path pointer-events="none" fill="none" stroke="white" stroke-width="1.5" d="M0,-3.0v7 M-2.5,-0.5L0,-3.0L2.5,-0.5"/>
  </g>
  <g id="resetDef">
    <use xlink:href="#rim2" fill="#404040"><set attributeName="fill" to="#808080" begin="reset.mouseover" end="reset.mouseout"/></use>
  </g>
</defs>
<script type="application/ecmascript">
var viewWidth = 380;
var viewHeight = 497;
var sectionId = 'dynsection-0';
</script>
<script type="application/ecmascript" xlink:href="svg.min.js"/>
<svg id="graph" class="graph">
<g id="viewport">
<title>SPI Exported Constants</title>
<!-- Node2 -->
<g id="Node000002" class="node">
<title>Node2</title>
<g id="a_Node000002"><a xlink:href="group__SPI.html" target="_top" xlink:title="SPI HAL module driver.">
<polygon fill="white" stroke="#666666" points="30.25,-254.75 0,-254.75 0,-234 30.25,-234 30.25,-254.75"/>
<text text-anchor="middle" x="15.12" y="-241.25" font-family="Helvetica,sans-Serif" font-size="10.00">SPI</text>
</a>
</g>
</g>
<!-- Node1 -->
<g id="Node000001" class="node">
<title>Node1</title>
<g id="a_Node000001"><a xlink:title=" ">
<polygon fill="#999999" stroke="#666666" points="188.75,-254.75 66.25,-254.75 66.25,-234 188.75,-234 188.75,-254.75"/>
<text text-anchor="middle" x="127.5" y="-241.25" font-family="Helvetica,sans-Serif" font-size="10.00">SPI Exported Constants</text>
</a>
</g>
</g>
<!-- Node2&#45;&gt;Node1 -->
<g id="edge1" class="edge">
<title>Node2&#45;&gt;Node1</title>
<path fill="none" stroke="black" d="M41.86,-244.38C49.21,-244.38 57.55,-244.38 66.06,-244.38"/>
<polygon fill="black" stroke="black" points="42.07,-240.88 32.07,-244.38 42.07,-247.88 42.07,-240.88"/>
</g>
<!-- Node10 -->
<g id="Node000010" class="node">
<title>Node10</title>
<g id="a_Node000010"><a xlink:href="group__SPI__BaudRate__Prescaler.html" target="_top" xlink:title=" ">
<polygon fill="white" stroke="#666666" points="357.75,-488.75 239,-488.75 239,-468 357.75,-468 357.75,-488.75"/>
<text text-anchor="middle" x="298.38" y="-475.25" font-family="Helvetica,sans-Serif" font-size="10.00">SPI BaudRate Prescaler</text>
</a>
</g>
</g>
<!-- Node13 -->
<g id="Node000013" class="node">
<title>Node13</title>
<g id="a_Node000013"><a xlink:href="group__SPI__CRC__Calculation.html" target="_top" xlink:title=" ">
<polygon fill="white" stroke="#666666" points="351,-449.75 245.75,-449.75 245.75,-429 351,-429 351,-449.75"/>
<text text-anchor="middle" x="298.38" y="-436.25" font-family="Helvetica,sans-Serif" font-size="10.00">SPI CRC Calculation</text>
</a>
</g>
</g>
<!-- Node8 -->
<g id="Node000008" class="node">
<title>Node8</title>
<g id="a_Node000008"><a xlink:href="group__SPI__Clock__Phase.html" target="_top" xlink:title=" ">
<polygon fill="white" stroke="#666666" points="342,-410.75 254.75,-410.75 254.75,-390 342,-390 342,-410.75"/>
<text text-anchor="middle" x="298.38" y="-397.25" font-family="Helvetica,sans-Serif" font-size="10.00">SPI Clock Phase</text>
</a>
</g>
</g>
<!-- Node7 -->
<g id="Node000007" class="node">
<title>Node7</title>
<g id="a_Node000007"><a xlink:href="group__SPI__Clock__Polarity.html" target="_top" xlink:title=" ">
<polygon fill="white" stroke="#666666" points="345.75,-371.75 251,-371.75 251,-351 345.75,-351 345.75,-371.75"/>
<text text-anchor="middle" x="298.38" y="-358.25" font-family="Helvetica,sans-Serif" font-size="10.00">SPI Clock Polarity</text>
</a>
</g>
</g>
<!-- Node6 -->
<g id="Node000006" class="node">
<title>Node6</title>
<g id="a_Node000006"><a xlink:href="group__SPI__Data__Size.html" target="_top" xlink:title=" ">
<polygon fill="white" stroke="#666666" points="334.88,-332.75 261.88,-332.75 261.88,-312 334.88,-312 334.88,-332.75"/>
<text text-anchor="middle" x="298.38" y="-319.25" font-family="Helvetica,sans-Serif" font-size="10.00">SPI Data Size</text>
</a>
</g>
</g>
<!-- Node5 -->
<g id="Node000005" class="node">
<title>Node5</title>
<g id="a_Node000005"><a xlink:href="group__SPI__Direction.html" target="_top" xlink:title=" ">
<polygon fill="white" stroke="#666666" points="348.75,-293.75 248,-293.75 248,-273 348.75,-273 348.75,-293.75"/>
<text text-anchor="middle" x="298.38" y="-280.25" font-family="Helvetica,sans-Serif" font-size="10.00">SPI Direction Mode</text>
</a>
</g>
</g>
<!-- Node3 -->
<g id="Node000003" class="node">
<title>Node3</title>
<g id="a_Node000003"><a xlink:href="group__SPI__Error__Code.html" target="_top" xlink:title=" ">
<polygon fill="white" stroke="#666666" points="339.38,-254.75 257.38,-254.75 257.38,-234 339.38,-234 339.38,-254.75"/>
<text text-anchor="middle" x="298.38" y="-241.25" font-family="Helvetica,sans-Serif" font-size="10.00">SPI Error Code</text>
</a>
</g>
</g>
<!-- Node1&#45;&gt;Node10 -->
<g id="edge9" class="edge">
<title>Node1&#45;&gt;Node10</title>
<path fill="none" stroke="black" d="M132.04,-266.38C140.21,-309.8 164.5,-406.75 224.75,-458.38 229.12,-462.12 234.13,-465.17 239.44,-467.65"/>
<polygon fill="black" stroke="black" points="135.52,-265.92 130.34,-256.68 128.62,-267.13 135.52,-265.92"/>
</g>
<!-- Node1&#45;&gt;Node13 -->
<g id="edge12" class="edge">
<title>Node1&#45;&gt;Node13</title>
<path fill="none" stroke="black" d="M134.32,-265.91C145.46,-303 173.4,-378.84 224.75,-419.38 230.81,-424.16 237.93,-427.8 245.3,-430.57"/>
<polygon fill="black" stroke="black" points="137.71,-265.03 131.59,-256.38 130.98,-266.96 137.71,-265.03"/>
</g>
<!-- Node1&#45;&gt;Node8 -->
<g id="edge7" class="edge">
<title>Node1&#45;&gt;Node8</title>
<path fill="none" stroke="black" d="M137.64,-265.31C151.86,-295.38 182.13,-350.47 224.75,-380.38 233.53,-386.53 244.13,-390.8 254.5,-393.75"/>
<polygon fill="black" stroke="black" points="140.95,-264.13 133.62,-256.49 134.58,-267.04 140.95,-264.13"/>
</g>
<!-- Node1&#45;&gt;Node7 -->
<g id="edge6" class="edge">
<title>Node1&#45;&gt;Node7</title>
<path fill="none" stroke="black" d="M143.06,-264.34C160.19,-286.4 190.65,-321.44 224.75,-341.38 232.65,-346 241.66,-349.58 250.59,-352.36"/>
<polygon fill="black" stroke="black" points="145.9,-262.29 137.08,-256.43 140.32,-266.52 145.9,-262.29"/>
</g>
<!-- Node1&#45;&gt;Node6 -->
<g id="edge5" class="edge">
<title>Node1&#45;&gt;Node6</title>
<path fill="none" stroke="black" d="M152.79,-261.57C171.67,-274.3 198.92,-291.28 224.75,-302.38 236.41,-307.38 249.66,-311.46 261.62,-314.6"/>
<polygon fill="black" stroke="black" points="154.94,-258.81 144.72,-256.04 150.98,-264.58 154.94,-258.81"/>
</g>
<!-- Node1&#45;&gt;Node5 -->
<g id="edge4" class="edge">
<title>Node1&#45;&gt;Node5</title>
<path fill="none" stroke="black" d="M186.5,-257.77C207.32,-262.58 230.52,-267.93 250.29,-272.5"/>
<polygon fill="black" stroke="black" points="187.55,-254.42 177.02,-255.58 185.97,-261.24 187.55,-254.42"/>
</g>
<!-- Node1&#45;&gt;Node3 -->
<g id="edge2" class="edge">
<title>Node1&#45;&gt;Node3</title>
<path fill="none" stroke="black" d="M200.29,-244.38C219.72,-244.38 240.07,-244.38 257.09,-244.38"/>
<polygon fill="black" stroke="black" points="200.5,-240.88 190.5,-244.38 200.5,-247.88 200.5,-240.88"/>
</g>
<!-- Node15 -->
<g id="Node000015" class="node">
<title>Node15</title>
<g id="a_Node000015"><a xlink:href="group__SPI__Flags__definition.html" target="_top" xlink:title=" ">
<polygon fill="white" stroke="#666666" points="350.25,-215.75 246.5,-215.75 246.5,-195 350.25,-195 350.25,-215.75"/>
<text text-anchor="middle" x="298.38" y="-202.25" font-family="Helvetica,sans-Serif" font-size="10.00">SPI Flags Definition</text>
</a>
</g>
</g>
<!-- Node1&#45;&gt;Node15 -->
<g id="edge14" class="edge">
<title>Node1&#45;&gt;Node15</title>
<path fill="none" stroke="black" d="M186.5,-230.98C207.32,-226.17 230.52,-220.82 250.29,-216.25"/>
<polygon fill="black" stroke="black" points="185.97,-227.51 177.02,-233.17 187.55,-234.33 185.97,-227.51"/>
</g>
<!-- Node14 -->
<g id="Node000014" class="node">
<title>Node14</title>
<g id="a_Node000014"><a xlink:href="group__SPI__Interrupt__definition.html" target="_top" xlink:title=" ">
<polygon fill="white" stroke="#666666" points="358.12,-176.75 238.62,-176.75 238.62,-156 358.12,-156 358.12,-176.75"/>
<text text-anchor="middle" x="298.38" y="-163.25" font-family="Helvetica,sans-Serif" font-size="10.00">SPI Interrupt Definition</text>
</a>
</g>
</g>
<!-- Node1&#45;&gt;Node14 -->
<g id="edge13" class="edge">
<title>Node1&#45;&gt;Node14</title>
<path fill="none" stroke="black" d="M152.79,-227.18C171.67,-214.45 198.92,-197.47 224.75,-186.38 232.92,-182.87 241.88,-179.81 250.62,-177.22"/>
<polygon fill="black" stroke="black" points="150.98,-224.17 144.72,-232.71 154.94,-229.94 150.98,-224.17"/>
</g>
<!-- Node11 -->
<g id="Node000011" class="node">
<title>Node11</title>
<g id="a_Node000011"><a xlink:href="group__SPI__MSB__LSB__transmission.html" target="_top" xlink:title=" ">
<polygon fill="white" stroke="#666666" points="364.88,-137.75 231.88,-137.75 231.88,-117 364.88,-117 364.88,-137.75"/>
<text text-anchor="middle" x="298.38" y="-124.25" font-family="Helvetica,sans-Serif" font-size="10.00">SPI MSB LSB Transmission</text>
</a>
</g>
</g>
<!-- Node1&#45;&gt;Node11 -->
<g id="edge10" class="edge">
<title>Node1&#45;&gt;Node11</title>
<path fill="none" stroke="black" d="M143.06,-224.41C160.19,-202.35 190.65,-167.31 224.75,-147.38 231.07,-143.68 238.1,-140.64 245.23,-138.15"/>
<polygon fill="black" stroke="black" points="140.32,-222.23 137.08,-232.32 145.9,-226.46 140.32,-222.23"/>
</g>
<!-- Node4 -->
<g id="Node000004" class="node">
<title>Node4</title>
<g id="a_Node000004"><a xlink:href="group__SPI__Mode.html" target="_top" xlink:title=" ">
<polygon fill="white" stroke="#666666" points="327.38,-98.75 269.38,-98.75 269.38,-78 327.38,-78 327.38,-98.75"/>
<text text-anchor="middle" x="298.38" y="-85.25" font-family="Helvetica,sans-Serif" font-size="10.00">SPI Mode</text>
</a>
</g>
</g>
<!-- Node1&#45;&gt;Node4 -->
<g id="edge3" class="edge">
<title>Node1&#45;&gt;Node4</title>
<path fill="none" stroke="black" d="M137.64,-223.44C151.86,-193.37 182.13,-138.28 224.75,-108.38 237.7,-99.29 254.64,-94.32 268.89,-91.61"/>
<polygon fill="black" stroke="black" points="134.58,-221.71 133.62,-232.26 140.95,-224.62 134.58,-221.71"/>
</g>
<!-- Node9 -->
<g id="Node000009" class="node">
<title>Node9</title>
<g id="a_Node000009"><a xlink:href="group__SPI__Slave__Select__management.html" target="_top" xlink:title=" ">
<polygon fill="white" stroke="#666666" points="372,-59.75 224.75,-59.75 224.75,-39 372,-39 372,-59.75"/>
<text text-anchor="middle" x="298.38" y="-46.25" font-family="Helvetica,sans-Serif" font-size="10.00">SPI Slave Select Management</text>
</a>
</g>
</g>
<!-- Node1&#45;&gt;Node9 -->
<g id="edge8" class="edge">
<title>Node1&#45;&gt;Node9</title>
<path fill="none" stroke="black" d="M134.32,-222.84C145.46,-185.75 173.4,-109.91 224.75,-69.38 229.47,-65.65 234.84,-62.61 240.47,-60.14"/>
<polygon fill="black" stroke="black" points="130.98,-221.79 131.59,-232.37 137.71,-223.72 130.98,-221.79"/>
</g>
<!-- Node12 -->
<g id="Node000012" class="node">
<title>Node12</title>
<g id="a_Node000012"><a xlink:href="group__SPI__TI__mode.html" target="_top" xlink:title=" ">
<polygon fill="white" stroke="#666666" points="333,-20.75 263.75,-20.75 263.75,0 333,0 333,-20.75"/>
<text text-anchor="middle" x="298.38" y="-7.25" font-family="Helvetica,sans-Serif" font-size="10.00">SPI TI Mode</text>
</a>
</g>
</g>
<!-- Node1&#45;&gt;Node12 -->
<g id="edge11" class="edge">
<title>Node1&#45;&gt;Node12</title>
<path fill="none" stroke="black" d="M132.04,-222.37C140.21,-178.95 164.5,-82 224.75,-30.38 235.48,-21.19 250.08,-16.19 263.38,-13.49"/>
<polygon fill="black" stroke="black" points="128.62,-221.62 130.34,-232.07 135.52,-222.83 128.62,-221.62"/>
</g>
</g>
</svg>

<g id="navigator" transform="translate(0 0)" fill="#404254">
  <rect fill="#f2f5e9" fill-opacity="0.5" stroke="#606060" stroke-width=".5" x="0" y="0" width="60" height="60"/>
  <use id="zoomplus" xlink:href="#zoomPlus" x="17" y="9" onmousedown="handleZoom(evt,'in')"/>
  <use id="zoomminus" xlink:href="#zoomMin" x="42" y="9" onmousedown="handleZoom(evt,'out')"/>
  <use id="reset" xlink:href="#resetDef" x="30" y="36" onmousedown="handleReset()"/>
   <use id="arrowup" xlink:href="#arrowUp" x="0" y="0" onmousedown="handlePan(0,-1)"/>
  <use id="arrowright" xlink:href="#arrowRight" x="0" y="0" onmousedown="handlePan(1,0)"/>
  <use id="arrowdown" xlink:href="#arrowDown" x="0" y="0" onmousedown="handlePan(0,1)"/>
  <use id="arrowleft" xlink:href="#arrowLeft" x="0" y="0" onmousedown="handlePan(-1,0)"/>
</g>
<svg viewBox="0 0 15 15" width="100%" height="30px" preserveAspectRatio="xMaxYMin meet">
 <g id="arrow_out" transform="scale(0.3 0.3)">
  <a xlink:href="group__SPI__Exported__Constants_org.svg" target="_base">
   <rect id="button" ry="5" rx="5" y="6" x="6" height="38" width="38"
        fill="#f2f5e9" fill-opacity="0.5" stroke="#606060" stroke-width="1.0"/>
   <path id="arrow"
     d="M 11.500037,31.436501 C 11.940474,20.09759 22.043105,11.32322 32.158766,21.979434 L 37.068811,17.246167 C 37.068811,17.246167 37.088388,32 37.088388,32 L 22.160133,31.978069 C 22.160133,31.978069 26.997745,27.140456 26.997745,27.140456 C 18.528582,18.264221 13.291696,25.230495 11.500037,31.436501 z"
     style="fill:#404040;"/>
  </a>
 </g>
</svg>

<style type='text/css'>
<![CDATA[
[data-mouse-over-selected='false'] { opacity: 0.7; }
[data-mouse-over-selected='true']  { opacity: 1.0; }
]]>
</style>
<script type="application/ecmascript"><![CDATA[
document.addEventListener('DOMContentLoaded', (event) => {
  highlightEdges();
  highlightAdjacentNodes();
});
]]></script>
</svg>
