<?xml version="1.0" encoding="UTF-8" standalone="no"?>
<!DOCTYPE svg PUBLIC "-//W3C//DTD SVG 1.1//EN"
 "http://www.w3.org/Graphics/SVG/1.1/DTD/svg11.dtd">
<!-- Generated by graphviz version 2.43.0 (0)
 -->
<!-- Title: GPIO Private Macros Pages: 1 -->
<svg width="371pt" height="76pt"
 viewBox="0.00 0.00 371.00 75.50" xmlns="http://www.w3.org/2000/svg" xmlns:xlink="http://www.w3.org/1999/xlink">

<svg id="main" version="1.1" xmlns="http://www.w3.org/2000/svg" xmlns:xlink="http://www.w3.org/1999/xlink" xml:space="preserve">

<style type="text/css"><![CDATA[
.node, .edge {opacity: 0.7;}
.node.selected, .edge.selected {opacity: 1;}
.edge:hover path { stroke: red; }
.edge:hover polygon { stroke: red; fill: red; }
]]></style>
<script type="application/ecmascript" xlink:href="svg.min.js"/>
<svg id="graph" class="graph">
<g id="graph0" class="graph" transform="scale(1 1) rotate(0) translate(4 71.5)">
<title>GPIO Private Macros</title>
<!-- Node2 -->
<g id="Node000002" class="node">
<title>Node2</title>
<g id="a_Node000002"><a xlink:href="group__GPIOEx.html" target="_top" xlink:title=" ">
<polygon fill="white" stroke="#666666" points="53,-45.5 0,-45.5 0,-26.5 53,-26.5 53,-45.5"/>
<text text-anchor="middle" x="26.5" y="-33.5" font-family="Helvetica,sans-Serif" font-size="10.00">GPIOEx</text>
</a>
</g>
</g>
<!-- Node1 -->
<g id="Node000001" class="node">
<title>Node1</title>
<g id="a_Node000001"><a xlink:title=" ">
<polygon fill="#999999" stroke="#666666" points="205,-45.5 89,-45.5 89,-26.5 205,-26.5 205,-45.5"/>
<text text-anchor="middle" x="147" y="-33.5" font-family="Helvetica,sans-Serif" font-size="10.00">GPIO Private Macros</text>
</a>
</g>
</g>
<!-- Node2&#45;&gt;Node1 -->
<g id="edge1" class="edge">
<title>Node2&#45;&gt;Node1</title>
<path fill="none" stroke="black" d="M63.31,-36C71.35,-36 80.06,-36 88.72,-36"/>
<polygon fill="black" stroke="black" points="63.21,-32.5 53.21,-36 63.21,-39.5 63.21,-32.5"/>
</g>
<!-- Node3 -->
<g id="Node000003" class="node">
<title>Node3</title>
<g id="a_Node000003"><a xlink:href="group__GPIOEx__Get__Port__Index.html" target="_top" xlink:title=" ">
<polygon fill="white" stroke="#666666" points="358.5,-67.5 245.5,-67.5 245.5,-48.5 358.5,-48.5 358.5,-67.5"/>
<text text-anchor="middle" x="302" y="-55.5" font-family="Helvetica,sans-Serif" font-size="10.00">GPIO Get Port Index</text>
</a>
</g>
</g>
<!-- Node4 -->
<g id="Node000004" class="node">
<title>Node4</title>
<g id="a_Node000004"><a xlink:href="group__GPIOEx__IS__Alternat__function__selection.html" target="_top" xlink:title=" ">
<polygon fill="white" stroke="#666666" points="363,-30 241,-30 241,0 363,0 363,-30"/>
<text text-anchor="start" x="249" y="-18" font-family="Helvetica,sans-Serif" font-size="10.00">GPIO Check Alternate</text>
<text text-anchor="middle" x="302" y="-7" font-family="Helvetica,sans-Serif" font-size="10.00"> Function</text>
</a>
</g>
</g>
<!-- Node1&#45;&gt;Node3 -->
<g id="edge2" class="edge">
<title>Node1&#45;&gt;Node3</title>
<path fill="none" stroke="black" d="M215.32,-45.68C225.34,-47.12 235.56,-48.59 245.3,-49.99"/>
<polygon fill="black" stroke="black" points="215.8,-42.21 205.41,-44.25 214.81,-49.14 215.8,-42.21"/>
</g>
<!-- Node1&#45;&gt;Node4 -->
<g id="edge3" class="edge">
<title>Node1&#45;&gt;Node4</title>
<path fill="none" stroke="black" d="M215.33,-26.76C223.87,-25.59 232.56,-24.39 240.97,-23.24"/>
<polygon fill="black" stroke="black" points="214.84,-23.29 205.41,-28.12 215.79,-30.23 214.84,-23.29"/>
</g>
</g>
</svg>
</svg>

<style type='text/css'>
<![CDATA[
[data-mouse-over-selected='false'] { opacity: 0.7; }
[data-mouse-over-selected='true']  { opacity: 1.0; }
]]>
</style>
<script type="application/ecmascript"><![CDATA[
document.addEventListener('DOMContentLoaded', (event) => {
  highlightEdges();
  highlightAdjacentNodes();
});
]]></script>
</svg>
