<?xml version="1.0" encoding="UTF-8" standalone="no"?>
<!DOCTYPE svg PUBLIC "-//W3C//DTD SVG 1.1//EN"
 "http://www.w3.org/Graphics/SVG/1.1/DTD/svg11.dtd">
<!-- Generated by graphviz version 12.2.1 (20241206.2353)
 -->
<!-- Title: LL_PLL_ConfigSystemClock_HSI Pages: 1 -->
<!--zoomable 132 -->

<svg id="main" version="1.1" xmlns="http://www.w3.org/2000/svg" xmlns:xlink="http://www.w3.org/1999/xlink" xml:space="preserve" onload="init(evt)">

<style type="text/css"><![CDATA[
.node, .edge {opacity: 0.7;}
.node.selected, .edge.selected {opacity: 1;}
.edge:hover path { stroke: red; }
.edge:hover polygon { stroke: red; fill: red; }
]]></style>

<defs>
  <circle id="rim" cx="0" cy="0" r="7"/>
  <circle id="rim2" cx="0" cy="0" r="3.5"/>
  <g id="zoomPlus">
    <use xlink:href="#rim" fill="#404040"><set attributeName="fill" to="#808080" begin="zoomplus.mouseover" end="zoomplus.mouseout"/></use>
    <path d="M-4,0h8M0,-4v8" fill="none" stroke="white" stroke-width="1.5" pointer-events="none"/>
  </g>
  <g id="zoomMin">
    <use xlink:href="#rim" fill="#404040"><set attributeName="fill" to="#808080" begin="zoomminus.mouseover" end="zoomminus.mouseout"/></use>
    <path d="M-4,0h8" fill="none" stroke="white" stroke-width="1.5" pointer-events="none"/>
  </g>
  <g id="arrowUp" transform="translate(30 24)">
    <use xlink:href="#rim"/>
    <path pointer-events="none" fill="none" stroke="white" stroke-width="1.5" d="M0,-3.0v7 M-2.5,-0.5L0,-3.0L2.5,-0.5"/>
  </g>
  <g id="arrowRight" transform="rotate(90) translate(36 -43)">
    <use xlink:href="#rim"/>
    <path pointer-events="none" fill="none" stroke="white" stroke-width="1.5" d="M0,-3.0v7 M-2.5,-0.5L0,-3.0L2.5,-0.5"/>
  </g>
  <g id="arrowDown" transform="rotate(180) translate(-30 -48)">
    <use xlink:href="#rim"/>
    <path pointer-events="none" fill="none" stroke="white" stroke-width="1.5" d="M0,-3.0v7 M-2.5,-0.5L0,-3.0L2.5,-0.5"/>
  </g>
  <g id="arrowLeft" transform="rotate(270) translate(-36 17)">
    <use xlink:href="#rim"/>
    <path pointer-events="none" fill="none" stroke="white" stroke-width="1.5" d="M0,-3.0v7 M-2.5,-0.5L0,-3.0L2.5,-0.5"/>
  </g>
  <g id="resetDef">
    <use xlink:href="#rim2" fill="#404040"><set attributeName="fill" to="#808080" begin="reset.mouseover" end="reset.mouseout"/></use>
  </g>
</defs>
<script type="application/ecmascript">
var viewWidth = 527;
var viewHeight = 132;
var sectionId = 'dynsection-2';
</script>
<script type="application/ecmascript" xlink:href="svg.min.js"/>
<svg id="graph" class="graph">
<g id="viewport">
<title>LL_PLL_ConfigSystemClock_HSI</title>
<!-- Node1 -->
<g id="Node000001" class="node">
<title>Node1</title>
<g id="a_Node000001"><a xlink:title="This function configures system clock at maximum frequency with HSI as clock source of the PLL.">
<polygon fill="#999999" stroke="#666666" points="163,-59.75 0,-59.75 0,-39 163,-39 163,-59.75"/>
<text text-anchor="middle" x="81.5" y="-46.25" font-family="Helvetica,sans-Serif" font-size="10.00">LL_PLL_ConfigSystemClock_HSI</text>
</a>
</g>
</g>
<!-- Node2 -->
<g id="Node000002" class="node">
<title>Node2</title>
<g id="a_Node000002"><a xlink:href="group__UTILS__LL__Private__Functions.html#ga320bd51e9a0bfdf2fa1da4a24bb05fc0" target="_top" xlink:title="Function to enable PLL and switch system clock to PLL.">
<polygon fill="white" stroke="#666666" points="349.62,-111.12 206.88,-111.12 206.88,-77.62 349.62,-77.62 349.62,-111.12"/>
<text text-anchor="start" x="214.88" y="-97.62" font-family="Helvetica,sans-Serif" font-size="10.00">UTILS_EnablePLLAndSwitch</text>
<text text-anchor="middle" x="278.25" y="-84.88" font-family="Helvetica,sans-Serif" font-size="10.00">System</text>
</a>
</g>
</g>
<!-- Node1&#45;&gt;Node2 -->
<g id="edge1_Node000001_Node000002" class="edge">
<title>Node1&#45;&gt;Node2</title>
<g id="a_edge1_Node000001_Node000002"><a xlink:title=" ">
<path fill="none" stroke="#63b8ff" d="M129.15,-60.15C149.07,-64.76 172.92,-70.27 195.6,-75.51"/>
<polygon fill="#63b8ff" stroke="#63b8ff" points="194.61,-78.87 205.15,-77.71 196.19,-72.05 194.61,-78.87"/>
</a>
</g>
</g>
<!-- Node5 -->
<g id="Node000005" class="node">
<title>Node5</title>
<g id="a_Node000005"><a xlink:href="group__UTILS__LL__Private__Functions.html#gae40ed31572a8b64837e7f6d8eda0f4e2" target="_top" xlink:title="Function to check that PLL can be modified.">
<polygon fill="white" stroke="#666666" points="357.5,-59.75 199,-59.75 199,-39 357.5,-39 357.5,-59.75"/>
<text text-anchor="middle" x="278.25" y="-46.25" font-family="Helvetica,sans-Serif" font-size="10.00">UTILS_GetPLLOutputFrequency</text>
</a>
</g>
</g>
<!-- Node1&#45;&gt;Node5 -->
<g id="edge4_Node000001_Node000005" class="edge">
<title>Node1&#45;&gt;Node5</title>
<g id="a_edge4_Node000001_Node000005"><a xlink:title=" ">
<path fill="none" stroke="#63b8ff" d="M163.4,-49.38C171.36,-49.38 179.46,-49.38 187.5,-49.38"/>
<polygon fill="#63b8ff" stroke="#63b8ff" points="187.28,-52.88 197.28,-49.38 187.28,-45.88 187.28,-52.88"/>
</a>
</g>
</g>
<!-- Node6 -->
<g id="Node000006" class="node">
<title>Node6</title>
<g id="a_Node000006"><a xlink:href="group__UTILS__LL__Private__Functions.html#ga4242342336a76627fc39a7e145dbf3c7" target="_top" xlink:title="Function to check that PLL can be modified.">
<polygon fill="white" stroke="#666666" points="326.75,-20.75 229.75,-20.75 229.75,0 326.75,0 326.75,-20.75"/>
<text text-anchor="middle" x="278.25" y="-7.25" font-family="Helvetica,sans-Serif" font-size="10.00">UTILS_PLL_IsBusy</text>
</a>
</g>
</g>
<!-- Node1&#45;&gt;Node6 -->
<g id="edge5_Node000001_Node000006" class="edge">
<title>Node1&#45;&gt;Node6</title>
<g id="a_edge5_Node000001_Node000006"><a xlink:title=" ">
<path fill="none" stroke="#63b8ff" d="M136.75,-38.51C162.04,-33.45 192.2,-27.41 218.08,-22.22"/>
<polygon fill="#63b8ff" stroke="#63b8ff" points="218.66,-25.68 227.78,-20.28 217.29,-18.81 218.66,-25.68"/>
</a>
</g>
</g>
<!-- Node3 -->
<g id="Node000003" class="node">
<title>Node3</title>
<g id="a_Node000003"><a xlink:href="group__UTILS__EF__SYSTEM.html#ga74f71dc4b93a3b99e5f9e042e85e2ce5" target="_top" xlink:title="Update number of Flash wait states in line with new frequency and current voltage range.">
<polygon fill="white" stroke="#666666" points="508.88,-123.75 403.62,-123.75 403.62,-103 508.88,-103 508.88,-123.75"/>
<text text-anchor="middle" x="456.25" y="-110.25" font-family="Helvetica,sans-Serif" font-size="10.00">LL_SetFlashLatency</text>
</a>
</g>
</g>
<!-- Node2&#45;&gt;Node3 -->
<g id="edge2_Node000002_Node000003" class="edge">
<title>Node2&#45;&gt;Node3</title>
<g id="a_edge2_Node000002_Node000003"><a xlink:title=" ">
<path fill="none" stroke="#63b8ff" d="M350.08,-102.02C363.96,-103.52 378.43,-105.08 392.04,-106.55"/>
<polygon fill="#63b8ff" stroke="#63b8ff" points="391.42,-110 401.73,-107.6 392.17,-103.04 391.42,-110"/>
</a>
</g>
</g>
<!-- Node4 -->
<g id="Node000004" class="node">
<title>Node4</title>
<g id="a_Node000004"><a xlink:href="group__UTILS__EF__SYSTEM.html#ga5af902d59c4c2d9dc5e189df0bc71ecd" target="_top" xlink:title="This function sets directly SystemCoreClock CMSIS variable.">
<polygon fill="white" stroke="#666666" points="519,-84.75 393.5,-84.75 393.5,-64 519,-64 519,-84.75"/>
<text text-anchor="middle" x="456.25" y="-71.25" font-family="Helvetica,sans-Serif" font-size="10.00">LL_SetSystemCoreClock</text>
</a>
</g>
</g>
<!-- Node2&#45;&gt;Node4 -->
<g id="edge3_Node000002_Node000004" class="edge">
<title>Node2&#45;&gt;Node4</title>
<g id="a_edge3_Node000002_Node000004"><a xlink:title=" ">
<path fill="none" stroke="#63b8ff" d="M350.08,-86.33C360.53,-85.14 371.32,-83.91 381.82,-82.72"/>
<polygon fill="#63b8ff" stroke="#63b8ff" points="382.03,-86.22 391.57,-81.61 381.24,-79.26 382.03,-86.22"/>
</a>
</g>
</g>
</g>
</svg>

<g id="navigator" transform="translate(0 0)" fill="#404254">
  <rect fill="#f2f5e9" fill-opacity="0.5" stroke="#606060" stroke-width=".5" x="0" y="0" width="60" height="60"/>
  <use id="zoomplus" xlink:href="#zoomPlus" x="17" y="9" onmousedown="handleZoom(evt,'in')"/>
  <use id="zoomminus" xlink:href="#zoomMin" x="42" y="9" onmousedown="handleZoom(evt,'out')"/>
  <use id="reset" xlink:href="#resetDef" x="30" y="36" onmousedown="handleReset()"/>
   <use id="arrowup" xlink:href="#arrowUp" x="0" y="0" onmousedown="handlePan(0,-1)"/>
  <use id="arrowright" xlink:href="#arrowRight" x="0" y="0" onmousedown="handlePan(1,0)"/>
  <use id="arrowdown" xlink:href="#arrowDown" x="0" y="0" onmousedown="handlePan(0,1)"/>
  <use id="arrowleft" xlink:href="#arrowLeft" x="0" y="0" onmousedown="handlePan(-1,0)"/>
</g>
<svg viewBox="0 0 15 15" width="100%" height="30px" preserveAspectRatio="xMaxYMin meet">
 <g id="arrow_out" transform="scale(0.3 0.3)">
  <a xlink:href="group__UTILS__EF__SYSTEM_ga7ada5e4210f6ef80ef9f55bf9dd048c6_cgraph_org.svg" target="_base">
   <rect id="button" ry="5" rx="5" y="6" x="6" height="38" width="38"
        fill="#f2f5e9" fill-opacity="0.5" stroke="#606060" stroke-width="1.0"/>
   <path id="arrow"
     d="M 11.500037,31.436501 C 11.940474,20.09759 22.043105,11.32322 32.158766,21.979434 L 37.068811,17.246167 C 37.068811,17.246167 37.088388,32 37.088388,32 L 22.160133,31.978069 C 22.160133,31.978069 26.997745,27.140456 26.997745,27.140456 C 18.528582,18.264221 13.291696,25.230495 11.500037,31.436501 z"
     style="fill:#404040;"/>
  </a>
 </g>
</svg>

<style type='text/css'>
<![CDATA[
[data-mouse-over-selected='false'] { opacity: 0.7; }
[data-mouse-over-selected='true']  { opacity: 1.0; }
]]>
</style>
<script type="application/ecmascript"><![CDATA[
document.addEventListener('DOMContentLoaded', (event) => {
  highlightEdges();
  highlightAdjacentNodes();
});
]]></script>
</svg>
