<?xml version="1.0" encoding="UTF-8" standalone="no"?>
<!DOCTYPE svg PUBLIC "-//W3C//DTD SVG 1.1//EN"
 "http://www.w3.org/Graphics/SVG/1.1/DTD/svg11.dtd">
<!-- Generated by graphviz version 2.43.0 (0)
 -->
<!-- Title: /tmp/hal&#45;driver/Inc/stm32f4xx_ll_fsmc.h Pages: 1 -->
<svg width="328pt" height="148pt"
 viewBox="0.00 0.00 328.00 148.00" xmlns="http://www.w3.org/2000/svg" xmlns:xlink="http://www.w3.org/1999/xlink">
<g id="graph0" class="graph" transform="scale(1 1) rotate(0) translate(4 144)">
<title>/tmp/hal&#45;driver/Inc/stm32f4xx_ll_fsmc.h</title>
<!-- Node1 -->
<g id="Node000001" class="node">
<title>Node1</title>
<g id="a_Node000001"><a xlink:title="Header file of FSMC HAL module.">
<polygon fill="#999999" stroke="#666666" points="232,-140 110,-140 110,-110 232,-110 232,-140"/>
<text text-anchor="start" x="118" y="-128" font-family="Helvetica,sans-Serif" font-size="10.00">/tmp/hal&#45;driver/Inc</text>
<text text-anchor="middle" x="171" y="-117" font-family="Helvetica,sans-Serif" font-size="10.00">/stm32f4xx_ll_fsmc.h</text>
</a>
</g>
</g>
<!-- Node2 -->
<g id="Node000002" class="node">
<title>Node2</title>
<g id="a_Node000002"><a xlink:href="stm32f4xx__hal__def_8h.html" target="_top" xlink:title="This file contains HAL common defines, enumeration, macros and structures definitions.">
<polygon fill="white" stroke="#666666" points="230.5,-74 111.5,-74 111.5,-55 230.5,-55 230.5,-74"/>
<text text-anchor="middle" x="171" y="-62" font-family="Helvetica,sans-Serif" font-size="10.00">stm32f4xx_hal_def.h</text>
</a>
</g>
</g>
<!-- Node1&#45;&gt;Node2 -->
<g id="edge1_Node000001_Node000002" class="edge">
<title>Node1&#45;&gt;Node2</title>
<g id="a_edge1_Node000001_Node000002"><a xlink:title=" ">
<path fill="none" stroke="#63b8ff" d="M171,-109.84C171,-102.21 171,-92.7 171,-84.45"/>
<polygon fill="#63b8ff" stroke="#63b8ff" points="174.5,-84.27 171,-74.27 167.5,-84.27 174.5,-84.27"/>
</a>
</g>
</g>
<!-- Node3 -->
<g id="Node000003" class="node">
<title>Node3</title>
<g id="a_Node000003"><a xlink:title=" ">
<polygon fill="#e0e0e0" stroke="#999999" points="78,-19 0,-19 0,0 78,0 78,-19"/>
<text text-anchor="middle" x="39" y="-7" font-family="Helvetica,sans-Serif" font-size="10.00">stm32f4xx.h</text>
</a>
</g>
</g>
<!-- Node2&#45;&gt;Node3 -->
<g id="edge2_Node000002_Node000003" class="edge">
<title>Node2&#45;&gt;Node3</title>
<g id="a_edge2_Node000002_Node000003"><a xlink:title=" ">
<path fill="none" stroke="#63b8ff" d="M149.79,-54.98C128.27,-46.34 94.72,-32.87 70.17,-23.02"/>
<polygon fill="#63b8ff" stroke="#63b8ff" points="71.18,-19.65 60.59,-19.17 68.57,-26.14 71.18,-19.65"/>
</a>
</g>
</g>
<!-- Node4 -->
<g id="Node000004" class="node">
<title>Node4</title>
<g id="a_Node000004"><a xlink:title=" ">
<polygon fill="#e0e0e0" stroke="#999999" points="246,-19 96,-19 96,0 246,0 246,-19"/>
<text text-anchor="middle" x="171" y="-7" font-family="Helvetica,sans-Serif" font-size="10.00">Legacy/stm32_hal_legacy.h</text>
</a>
</g>
</g>
<!-- Node2&#45;&gt;Node4 -->
<g id="edge3_Node000002_Node000004" class="edge">
<title>Node2&#45;&gt;Node4</title>
<g id="a_edge3_Node000002_Node000004"><a xlink:title=" ">
<path fill="none" stroke="#63b8ff" d="M171,-54.75C171,-47.8 171,-37.85 171,-29.13"/>
<polygon fill="#63b8ff" stroke="#63b8ff" points="174.5,-29.09 171,-19.09 167.5,-29.09 174.5,-29.09"/>
</a>
</g>
</g>
<!-- Node5 -->
<g id="Node000005" class="node">
<title>Node5</title>
<g id="a_Node000005"><a xlink:title=" ">
<polygon fill="#e0e0e0" stroke="#999999" points="320,-19 264,-19 264,0 320,0 320,-19"/>
<text text-anchor="middle" x="292" y="-7" font-family="Helvetica,sans-Serif" font-size="10.00">stddef.h</text>
</a>
</g>
</g>
<!-- Node2&#45;&gt;Node5 -->
<g id="edge4_Node000002_Node000005" class="edge">
<title>Node2&#45;&gt;Node5</title>
<g id="a_edge4_Node000002_Node000005"><a xlink:title=" ">
<path fill="none" stroke="#63b8ff" d="M190.44,-54.98C209.99,-46.42 240.38,-33.11 262.82,-23.28"/>
<polygon fill="#63b8ff" stroke="#63b8ff" points="264.45,-26.39 272.21,-19.17 261.64,-19.98 264.45,-26.39"/>
</a>
</g>
</g>
</g>
</svg>
