<?xml version="1.0" encoding="UTF-8" standalone="no"?>
<!DOCTYPE svg PUBLIC "-//W3C//DTD SVG 1.1//EN"
 "http://www.w3.org/Graphics/SVG/1.1/DTD/svg11.dtd">
<!-- Generated by graphviz version 12.2.1 (20241206.2353)
 -->
<!-- Title: hal&#45;driver/Src/stm32f4xx_hal_timebase_tim_template.c Pages: 1 -->
<svg width="164pt" height="155pt"
 viewBox="0.00 0.00 163.50 155.00" xmlns="http://www.w3.org/2000/svg" xmlns:xlink="http://www.w3.org/1999/xlink">
<g id="page0,1_graph0" class="graph" transform="scale(1 1) rotate(0) translate(4 151)">
<title>hal&#45;driver/Src/stm32f4xx_hal_timebase_tim_template.c</title>
<!-- Node1 -->
<g id="Node000001" class="node">
<title>Node1</title>
<g id="a_Node000001"><a xlink:title="HAL time base based on the hardware TIM Template.">
<polygon fill="#999999" stroke="#666666" points="155.5,-147 0,-147 0,-113.5 155.5,-113.5 155.5,-147"/>
<text text-anchor="start" x="8" y="-133.5" font-family="Helvetica,sans-Serif" font-size="10.00">hal&#45;driver/Src/stm32f4xx</text>
<text text-anchor="middle" x="77.75" y="-120.75" font-family="Helvetica,sans-Serif" font-size="10.00">_hal_timebase_tim_template.c</text>
</a>
</g>
</g>
<!-- Node2 -->
<g id="Node000002" class="node">
<title>Node2</title>
<g id="a_Node000002"><a xlink:href="stm32f4xx__hal_8h.html" target="_top" xlink:title="This file contains all the functions prototypes for the HAL module driver.">
<polygon fill="white" stroke="#666666" points="122.88,-77.5 32.62,-77.5 32.62,-56.75 122.88,-56.75 122.88,-77.5"/>
<text text-anchor="middle" x="77.75" y="-64" font-family="Helvetica,sans-Serif" font-size="10.00">stm32f4xx_hal.h</text>
</a>
</g>
</g>
<!-- Node1&#45;&gt;Node2 -->
<g id="edge1_Node000001_Node000002" class="edge">
<title>Node1&#45;&gt;Node2</title>
<g id="a_edge1_Node000001_Node000002"><a xlink:title=" ">
<path fill="none" stroke="#63b8ff" d="M77.75,-113.19C77.75,-105.85 77.75,-97.07 77.75,-89.21"/>
<polygon fill="#63b8ff" stroke="#63b8ff" points="81.25,-89.48 77.75,-79.48 74.25,-89.48 81.25,-89.48"/>
</a>
</g>
</g>
<!-- Node3 -->
<g id="Node000003" class="node">
<title>Node3</title>
<g id="a_Node000003"><a xlink:title=" ">
<polygon fill="#e0e0e0" stroke="#999999" points="135.62,-20.75 19.88,-20.75 19.88,0 135.62,0 135.62,-20.75"/>
<text text-anchor="middle" x="77.75" y="-7.25" font-family="Helvetica,sans-Serif" font-size="10.00">stm32f4xx_hal_conf.h</text>
</a>
</g>
</g>
<!-- Node2&#45;&gt;Node3 -->
<g id="edge2_Node000002_Node000003" class="edge">
<title>Node2&#45;&gt;Node3</title>
<g id="a_edge2_Node000002_Node000003"><a xlink:title=" ">
<path fill="none" stroke="#63b8ff" d="M77.75,-56.34C77.75,-49.72 77.75,-40.72 77.75,-32.52"/>
<polygon fill="#63b8ff" stroke="#63b8ff" points="81.25,-32.59 77.75,-22.59 74.25,-32.59 81.25,-32.59"/>
</a>
</g>
</g>
</g>
</svg>
