<?xml version="1.0" encoding="UTF-8" standalone="no"?>
<!DOCTYPE svg PUBLIC "-//W3C//DTD SVG 1.1//EN"
 "http://www.w3.org/Graphics/SVG/1.1/DTD/svg11.dtd">
<!-- Generated by graphviz version 2.43.0 (0)
 -->
<!-- Title: /tmp/hal&#45;driver/Inc/stm32f4xx_hal_rcc_ex.h Pages: 1 -->
<svg width="146pt" height="181pt"
 viewBox="0.00 0.00 146.00 181.00" xmlns="http://www.w3.org/2000/svg" xmlns:xlink="http://www.w3.org/1999/xlink">
<g id="graph0" class="graph" transform="scale(1 1) rotate(0) translate(4 177)">
<title>/tmp/hal&#45;driver/Inc/stm32f4xx_hal_rcc_ex.h</title>
<!-- Node1 -->
<g id="Node000001" class="node">
<title>Node1</title>
<g id="a_Node000001"><a xlink:title="Header file of RCC HAL Extension module.">
<polygon fill="#999999" stroke="#666666" points="138,-173 0,-173 0,-143 138,-143 138,-173"/>
<text text-anchor="start" x="8" y="-161" font-family="Helvetica,sans-Serif" font-size="10.00">/tmp/hal&#45;driver/Inc</text>
<text text-anchor="middle" x="69" y="-150" font-family="Helvetica,sans-Serif" font-size="10.00">/stm32f4xx_hal_rcc_ex.h</text>
</a>
</g>
</g>
<!-- Node2 -->
<g id="Node000002" class="node">
<title>Node2</title>
<g id="a_Node000002"><a xlink:href="stm32f4xx__hal__rcc_8h.html" target="_top" xlink:title="Header file of RCC HAL module.">
<polygon fill="white" stroke="#666666" points="129.5,-107 8.5,-107 8.5,-77 129.5,-77 129.5,-107"/>
<text text-anchor="start" x="16.5" y="-95" font-family="Helvetica,sans-Serif" font-size="10.00">/tmp/hal&#45;driver/Inc</text>
<text text-anchor="middle" x="69" y="-84" font-family="Helvetica,sans-Serif" font-size="10.00">/stm32f4xx_hal_rcc.h</text>
</a>
</g>
</g>
<!-- Node1&#45;&gt;Node2 -->
<g id="edge1_Node000001_Node000002" class="edge">
<title>Node1&#45;&gt;Node2</title>
<g id="a_edge1_Node000001_Node000002"><a xlink:title=" ">
<path fill="none" stroke="#63b8ff" d="M69,-132.54C69,-123.96 69,-114.61 69,-107.16"/>
<polygon fill="#63b8ff" stroke="#63b8ff" points="65.5,-132.8 69,-142.8 72.5,-132.8 65.5,-132.8"/>
</a>
</g>
</g>
<!-- Node3 -->
<g id="Node000003" class="node">
<title>Node3</title>
<g id="a_Node000003"><a xlink:href="stm32f4xx__hal__conf__template_8h.html" target="_top" xlink:title="HAL configuration template file. This file should be copied to the application folder and renamed to ...">
<polygon fill="white" stroke="#666666" points="128.5,-41 9.5,-41 9.5,0 128.5,0 128.5,-41"/>
<text text-anchor="start" x="17.5" y="-29" font-family="Helvetica,sans-Serif" font-size="10.00">/tmp/hal&#45;driver/Inc</text>
<text text-anchor="start" x="17.5" y="-18" font-family="Helvetica,sans-Serif" font-size="10.00">/stm32f4xx_hal_conf</text>
<text text-anchor="middle" x="69" y="-7" font-family="Helvetica,sans-Serif" font-size="10.00">_template.h</text>
</a>
</g>
</g>
<!-- Node2&#45;&gt;Node3 -->
<g id="edge2_Node000002_Node000003" class="edge">
<title>Node2&#45;&gt;Node3</title>
<g id="a_edge2_Node000002_Node000003"><a xlink:title=" ">
<path fill="none" stroke="#63b8ff" d="M69,-66.91C69,-58.47 69,-49.1 69,-41.07"/>
<polygon fill="#63b8ff" stroke="#63b8ff" points="65.5,-66.94 69,-76.94 72.5,-66.94 65.5,-66.94"/>
</a>
</g>
</g>
</g>
</svg>
