<?xml version="1.0" encoding="UTF-8" standalone="no"?>
<!DOCTYPE svg PUBLIC "-//W3C//DTD SVG 1.1//EN"
 "http://www.w3.org/Graphics/SVG/1.1/DTD/svg11.dtd">
<!-- Generated by graphviz version 2.43.0 (0)
 -->
<!-- Title: /tmp/hal&#45;driver/Src/stm32f4xx_hal_flash_ramfunc.c Pages: 1 -->
<svg width="132pt" height="159pt"
 viewBox="0.00 0.00 132.00 159.00" xmlns="http://www.w3.org/2000/svg" xmlns:xlink="http://www.w3.org/1999/xlink">
<g id="graph0" class="graph" transform="scale(1 1) rotate(0) translate(4 155)">
<title>/tmp/hal&#45;driver/Src/stm32f4xx_hal_flash_ramfunc.c</title>
<!-- Node1 -->
<g id="Node000001" class="node">
<title>Node1</title>
<g id="a_Node000001"><a xlink:title="FLASH RAMFUNC module driver. This file provides a FLASH firmware functions which should be executed f...">
<polygon fill="#999999" stroke="#666666" points="122.5,-151 1.5,-151 1.5,-110 122.5,-110 122.5,-151"/>
<text text-anchor="start" x="9.5" y="-139" font-family="Helvetica,sans-Serif" font-size="10.00">/tmp/hal&#45;driver/Src</text>
<text text-anchor="start" x="9.5" y="-128" font-family="Helvetica,sans-Serif" font-size="10.00">/stm32f4xx_hal_flash</text>
<text text-anchor="middle" x="62" y="-117" font-family="Helvetica,sans-Serif" font-size="10.00">_ramfunc.c</text>
</a>
</g>
</g>
<!-- Node2 -->
<g id="Node000002" class="node">
<title>Node2</title>
<g id="a_Node000002"><a xlink:href="stm32f4xx__hal_8h.html" target="_top" xlink:title="This file contains all the functions prototypes for the HAL module driver.">
<polygon fill="white" stroke="#666666" points="111,-74 13,-74 13,-55 111,-55 111,-74"/>
<text text-anchor="middle" x="62" y="-62" font-family="Helvetica,sans-Serif" font-size="10.00">stm32f4xx_hal.h</text>
</a>
</g>
</g>
<!-- Node1&#45;&gt;Node2 -->
<g id="edge1_Node000001_Node000002" class="edge">
<title>Node1&#45;&gt;Node2</title>
<g id="a_edge1_Node000001_Node000002"><a xlink:title=" ">
<path fill="none" stroke="#63b8ff" d="M62,-109.95C62,-101.85 62,-92.5 62,-84.47"/>
<polygon fill="#63b8ff" stroke="#63b8ff" points="65.5,-84.26 62,-74.26 58.5,-84.26 65.5,-84.26"/>
</a>
</g>
</g>
<!-- Node3 -->
<g id="Node000003" class="node">
<title>Node3</title>
<g id="a_Node000003"><a xlink:title=" ">
<polygon fill="#e0e0e0" stroke="#999999" points="124,-19 0,-19 0,0 124,0 124,-19"/>
<text text-anchor="middle" x="62" y="-7" font-family="Helvetica,sans-Serif" font-size="10.00">stm32f4xx_hal_conf.h</text>
</a>
</g>
</g>
<!-- Node2&#45;&gt;Node3 -->
<g id="edge2_Node000002_Node000003" class="edge">
<title>Node2&#45;&gt;Node3</title>
<g id="a_edge2_Node000002_Node000003"><a xlink:title=" ">
<path fill="none" stroke="#63b8ff" d="M62,-54.75C62,-47.8 62,-37.85 62,-29.13"/>
<polygon fill="#63b8ff" stroke="#63b8ff" points="65.5,-29.09 62,-19.09 58.5,-29.09 65.5,-29.09"/>
</a>
</g>
</g>
</g>
</svg>
