<?xml version="1.0" encoding="UTF-8" standalone="no"?>
<!DOCTYPE svg PUBLIC "-//W3C//DTD SVG 1.1//EN"
 "http://www.w3.org/Graphics/SVG/1.1/DTD/svg11.dtd">
<!-- Generated by graphviz version 2.43.0 (0)
 -->
<!-- Title: hal&#45;driver/Src/stm32f4xx_ll_utils.c Pages: 1 -->
<svg width="531pt" height="148pt"
 viewBox="0.00 0.00 531.00 148.00" xmlns="http://www.w3.org/2000/svg" xmlns:xlink="http://www.w3.org/1999/xlink">
<g id="graph0" class="graph" transform="scale(1 1) rotate(0) translate(4 144)">
<title>hal&#45;driver/Src/stm32f4xx_ll_utils.c</title>
<!-- Node1 -->
<g id="Node000001" class="node">
<title>Node1</title>
<g id="a_Node000001"><a xlink:title="UTILS LL module driver.">
<polygon fill="#999999" stroke="#666666" points="326.5,-140 189.5,-140 189.5,-110 326.5,-110 326.5,-140"/>
<text text-anchor="start" x="197.5" y="-128" font-family="Helvetica,sans-Serif" font-size="10.00">hal&#45;driver/Src/stm32f4xx</text>
<text text-anchor="middle" x="258" y="-117" font-family="Helvetica,sans-Serif" font-size="10.00">_ll_utils.c</text>
</a>
</g>
</g>
<!-- Node2 -->
<g id="Node000002" class="node">
<title>Node2</title>
<g id="a_Node000002"><a xlink:href="stm32f4xx__ll__utils_8h.html" target="_top" xlink:title="Header file of UTILS LL module.">
<polygon fill="white" stroke="#666666" points="116,-74 0,-74 0,-55 116,-55 116,-74"/>
<text text-anchor="middle" x="58" y="-62" font-family="Helvetica,sans-Serif" font-size="10.00">stm32f4xx_ll_utils.h</text>
</a>
</g>
</g>
<!-- Node1&#45;&gt;Node2 -->
<g id="edge1_Node000001_Node000002" class="edge">
<title>Node1&#45;&gt;Node2</title>
<g id="a_edge1_Node000001_Node000002"><a xlink:title=" ">
<path fill="none" stroke="#63b8ff" d="M210.1,-109.99C175.58,-99.89 129.58,-86.44 97.23,-76.98"/>
<polygon fill="#63b8ff" stroke="#63b8ff" points="97.82,-73.5 87.24,-74.05 95.86,-80.22 97.82,-73.5"/>
</a>
</g>
</g>
<!-- Node4 -->
<g id="Node000004" class="node">
<title>Node4</title>
<g id="a_Node000004"><a xlink:href="stm32f4xx__ll__rcc_8h.html" target="_top" xlink:title="Header file of RCC LL module.">
<polygon fill="white" stroke="#666666" points="243.5,-74 134.5,-74 134.5,-55 243.5,-55 243.5,-74"/>
<text text-anchor="middle" x="189" y="-62" font-family="Helvetica,sans-Serif" font-size="10.00">stm32f4xx_ll_rcc.h</text>
</a>
</g>
</g>
<!-- Node1&#45;&gt;Node4 -->
<g id="edge3_Node000001_Node000004" class="edge">
<title>Node1&#45;&gt;Node4</title>
<g id="a_edge3_Node000001_Node000004"><a xlink:title=" ">
<path fill="none" stroke="#63b8ff" d="M241.3,-109.84C230.97,-101.09 217.72,-89.85 207.14,-80.88"/>
<polygon fill="#63b8ff" stroke="#63b8ff" points="209.23,-78.06 199.34,-74.27 204.7,-83.4 209.23,-78.06"/>
</a>
</g>
</g>
<!-- Node5 -->
<g id="Node000005" class="node">
<title>Node5</title>
<g id="a_Node000005"><a xlink:href="stm32f4xx__ll__system_8h.html" target="_top" xlink:title="Header file of SYSTEM LL module.">
<polygon fill="white" stroke="#666666" points="392.5,-74 261.5,-74 261.5,-55 392.5,-55 392.5,-74"/>
<text text-anchor="middle" x="327" y="-62" font-family="Helvetica,sans-Serif" font-size="10.00">stm32f4xx_ll_system.h</text>
</a>
</g>
</g>
<!-- Node1&#45;&gt;Node5 -->
<g id="edge5_Node000001_Node000005" class="edge">
<title>Node1&#45;&gt;Node5</title>
<g id="a_edge5_Node000001_Node000005"><a xlink:title=" ">
<path fill="none" stroke="#63b8ff" d="M274.7,-109.84C285.03,-101.09 298.28,-89.85 308.86,-80.88"/>
<polygon fill="#63b8ff" stroke="#63b8ff" points="311.3,-83.4 316.66,-74.27 306.77,-78.06 311.3,-83.4"/>
</a>
</g>
</g>
<!-- Node6 -->
<g id="Node000006" class="node">
<title>Node6</title>
<g id="a_Node000006"><a xlink:href="stm32f4xx__ll__pwr_8h.html" target="_top" xlink:title="Header file of PWR LL module.">
<polygon fill="white" stroke="#666666" points="523,-74 411,-74 411,-55 523,-55 523,-74"/>
<text text-anchor="middle" x="467" y="-62" font-family="Helvetica,sans-Serif" font-size="10.00">stm32f4xx_ll_pwr.h</text>
</a>
</g>
</g>
<!-- Node1&#45;&gt;Node6 -->
<g id="edge7_Node000001_Node000006" class="edge">
<title>Node1&#45;&gt;Node6</title>
<g id="a_edge7_Node000001_Node000006"><a xlink:title=" ">
<path fill="none" stroke="#63b8ff" d="M308.06,-109.99C344.29,-99.85 392.62,-86.32 426.44,-76.85"/>
<polygon fill="#63b8ff" stroke="#63b8ff" points="427.75,-80.12 436.44,-74.05 425.87,-73.38 427.75,-80.12"/>
</a>
</g>
</g>
<!-- Node3 -->
<g id="Node000003" class="node">
<title>Node3</title>
<g id="a_Node000003"><a xlink:title=" ">
<polygon fill="#e0e0e0" stroke="#999999" points="297,-19 219,-19 219,0 297,0 297,-19"/>
<text text-anchor="middle" x="258" y="-7" font-family="Helvetica,sans-Serif" font-size="10.00">stm32f4xx.h</text>
</a>
</g>
</g>
<!-- Node2&#45;&gt;Node3 -->
<g id="edge2_Node000002_Node000003" class="edge">
<title>Node2&#45;&gt;Node3</title>
<g id="a_edge2_Node000002_Node000003"><a xlink:title=" ">
<path fill="none" stroke="#63b8ff" d="M90.13,-54.98C124.15,-45.97 178,-31.7 215.5,-21.76"/>
<polygon fill="#63b8ff" stroke="#63b8ff" points="216.84,-25.03 225.61,-19.08 215.05,-18.26 216.84,-25.03"/>
</a>
</g>
</g>
<!-- Node4&#45;&gt;Node3 -->
<g id="edge4_Node000004_Node000003" class="edge">
<title>Node4&#45;&gt;Node3</title>
<g id="a_edge4_Node000004_Node000003"><a xlink:title=" ">
<path fill="none" stroke="#63b8ff" d="M200.09,-54.98C210.49,-47 226.26,-34.88 238.72,-25.31"/>
<polygon fill="#63b8ff" stroke="#63b8ff" points="240.91,-28.04 246.71,-19.17 236.65,-22.49 240.91,-28.04"/>
</a>
</g>
</g>
<!-- Node5&#45;&gt;Node3 -->
<g id="edge6_Node000005_Node000003" class="edge">
<title>Node5&#45;&gt;Node3</title>
<g id="a_edge6_Node000005_Node000003"><a xlink:title=" ">
<path fill="none" stroke="#63b8ff" d="M315.91,-54.98C305.51,-47 289.74,-34.88 277.28,-25.31"/>
<polygon fill="#63b8ff" stroke="#63b8ff" points="279.35,-22.49 269.29,-19.17 275.09,-28.04 279.35,-22.49"/>
</a>
</g>
</g>
<!-- Node6&#45;&gt;Node3 -->
<g id="edge8_Node000006_Node000003" class="edge">
<title>Node6&#45;&gt;Node3</title>
<g id="a_edge8_Node000006_Node000003"><a xlink:title=" ">
<path fill="none" stroke="#63b8ff" d="M433.42,-54.98C397.65,-45.91 340.88,-31.52 301.66,-21.57"/>
<polygon fill="#63b8ff" stroke="#63b8ff" points="302.4,-18.15 291.84,-19.08 300.68,-24.93 302.4,-18.15"/>
</a>
</g>
</g>
</g>
</svg>
