<?xml version="1.0" encoding="UTF-8" standalone="no"?>
<!DOCTYPE svg PUBLIC "-//W3C//DTD SVG 1.1//EN"
 "http://www.w3.org/Graphics/SVG/1.1/DTD/svg11.dtd">
<!-- Generated by graphviz version 2.43.0 (0)
 -->
<!-- Title: /tmp/hal&#45;driver/Inc/stm32f4xx_hal_adc.h Pages: 1 -->
<svg width="381pt" height="203pt"
 viewBox="0.00 0.00 381.00 203.00" xmlns="http://www.w3.org/2000/svg" xmlns:xlink="http://www.w3.org/1999/xlink">
<g id="graph0" class="graph" transform="scale(1 1) rotate(0) translate(4 199)">
<title>/tmp/hal&#45;driver/Inc/stm32f4xx_hal_adc.h</title>
<!-- Node1 -->
<g id="Node000001" class="node">
<title>Node1</title>
<g id="a_Node000001"><a xlink:title="Header file containing functions prototypes of ADC HAL library.">
<polygon fill="#999999" stroke="#666666" points="282,-195 158,-195 158,-165 282,-165 282,-195"/>
<text text-anchor="start" x="166" y="-183" font-family="Helvetica,sans-Serif" font-size="10.00">/tmp/hal&#45;driver/Inc</text>
<text text-anchor="middle" x="220" y="-172" font-family="Helvetica,sans-Serif" font-size="10.00">/stm32f4xx_hal_adc.h</text>
</a>
</g>
</g>
<!-- Node2 -->
<g id="Node000002" class="node">
<title>Node2</title>
<g id="a_Node000002"><a xlink:href="stm32f4xx__hal__def_8h.html" target="_top" xlink:title="This file contains HAL common defines, enumeration, macros and structures definitions.">
<polygon fill="white" stroke="#666666" points="242.5,-74 123.5,-74 123.5,-55 242.5,-55 242.5,-74"/>
<text text-anchor="middle" x="183" y="-62" font-family="Helvetica,sans-Serif" font-size="10.00">stm32f4xx_hal_def.h</text>
</a>
</g>
</g>
<!-- Node1&#45;&gt;Node2 -->
<g id="edge1_Node000001_Node000002" class="edge">
<title>Node1&#45;&gt;Node2</title>
<g id="a_edge1_Node000001_Node000002"><a xlink:title=" ">
<path fill="none" stroke="#63b8ff" d="M183.16,-164.98C167.52,-156.97 150.87,-145.23 142,-129 132.6,-111.8 148.12,-93.06 162.68,-80.43"/>
<polygon fill="#63b8ff" stroke="#63b8ff" points="164.95,-83.1 170.51,-74.09 160.54,-77.66 164.95,-83.1"/>
</a>
</g>
</g>
<!-- Node6 -->
<g id="Node000006" class="node">
<title>Node6</title>
<g id="a_Node000006"><a xlink:href="stm32f4xx__ll__adc_8h.html" target="_top" xlink:title="Header file of ADC LL module.">
<polygon fill="white" stroke="#666666" points="373,-74 261,-74 261,-55 373,-55 373,-74"/>
<text text-anchor="middle" x="317" y="-62" font-family="Helvetica,sans-Serif" font-size="10.00">stm32f4xx_ll_adc.h</text>
</a>
</g>
</g>
<!-- Node1&#45;&gt;Node6 -->
<g id="edge5_Node000001_Node000006" class="edge">
<title>Node1&#45;&gt;Node6</title>
<g id="a_edge5_Node000001_Node000006"><a xlink:title=" ">
<path fill="none" stroke="#63b8ff" d="M252.42,-164.92C268.22,-156.56 286.29,-144.54 298,-129 307.85,-115.93 312.62,-97.79 314.91,-84.24"/>
<polygon fill="#63b8ff" stroke="#63b8ff" points="318.4,-84.54 316.31,-74.16 311.47,-83.58 318.4,-84.54"/>
</a>
</g>
</g>
<!-- Node7 -->
<g id="Node000007" class="node">
<title>Node7</title>
<g id="a_Node000007"><a xlink:href="stm32f4xx__hal__adc__ex_8h.html" target="_top" xlink:title="Header file of ADC HAL module.">
<polygon fill="white" stroke="#666666" points="289,-129 151,-129 151,-110 289,-110 289,-129"/>
<text text-anchor="middle" x="220" y="-117" font-family="Helvetica,sans-Serif" font-size="10.00">stm32f4xx_hal_adc_ex.h</text>
</a>
</g>
</g>
<!-- Node1&#45;&gt;Node7 -->
<g id="edge7_Node000001_Node000007" class="edge">
<title>Node1&#45;&gt;Node7</title>
<g id="a_edge7_Node000001_Node000007"><a xlink:title=" ">
<path fill="none" stroke="#63b8ff" d="M220,-164.84C220,-157.21 220,-147.7 220,-139.45"/>
<polygon fill="#63b8ff" stroke="#63b8ff" points="223.5,-139.27 220,-129.27 216.5,-139.27 223.5,-139.27"/>
</a>
</g>
</g>
<!-- Node3 -->
<g id="Node000003" class="node">
<title>Node3</title>
<g id="a_Node000003"><a xlink:title=" ">
<polygon fill="#e0e0e0" stroke="#999999" points="344,-19 266,-19 266,0 344,0 344,-19"/>
<text text-anchor="middle" x="305" y="-7" font-family="Helvetica,sans-Serif" font-size="10.00">stm32f4xx.h</text>
</a>
</g>
</g>
<!-- Node2&#45;&gt;Node3 -->
<g id="edge2_Node000002_Node000003" class="edge">
<title>Node2&#45;&gt;Node3</title>
<g id="a_edge2_Node000002_Node000003"><a xlink:title=" ">
<path fill="none" stroke="#63b8ff" d="M202.6,-54.98C222.32,-46.42 252.95,-33.11 275.58,-23.28"/>
<polygon fill="#63b8ff" stroke="#63b8ff" points="277.26,-26.37 285.04,-19.17 274.48,-19.94 277.26,-26.37"/>
</a>
</g>
</g>
<!-- Node4 -->
<g id="Node000004" class="node">
<title>Node4</title>
<g id="a_Node000004"><a xlink:title=" ">
<polygon fill="#e0e0e0" stroke="#999999" points="150,-19 0,-19 0,0 150,0 150,-19"/>
<text text-anchor="middle" x="75" y="-7" font-family="Helvetica,sans-Serif" font-size="10.00">Legacy/stm32_hal_legacy.h</text>
</a>
</g>
</g>
<!-- Node2&#45;&gt;Node4 -->
<g id="edge3_Node000002_Node000004" class="edge">
<title>Node2&#45;&gt;Node4</title>
<g id="a_edge3_Node000002_Node000004"><a xlink:title=" ">
<path fill="none" stroke="#63b8ff" d="M165.65,-54.98C148.43,-46.54 121.8,-33.47 101.85,-23.68"/>
<polygon fill="#63b8ff" stroke="#63b8ff" points="103.19,-20.43 92.67,-19.17 100.1,-26.72 103.19,-20.43"/>
</a>
</g>
</g>
<!-- Node5 -->
<g id="Node000005" class="node">
<title>Node5</title>
<g id="a_Node000005"><a xlink:title=" ">
<polygon fill="#e0e0e0" stroke="#999999" points="224,-19 168,-19 168,0 224,0 224,-19"/>
<text text-anchor="middle" x="196" y="-7" font-family="Helvetica,sans-Serif" font-size="10.00">stddef.h</text>
</a>
</g>
</g>
<!-- Node2&#45;&gt;Node5 -->
<g id="edge4_Node000002_Node000005" class="edge">
<title>Node2&#45;&gt;Node5</title>
<g id="a_edge4_Node000002_Node000005"><a xlink:title=" ">
<path fill="none" stroke="#63b8ff" d="M185.15,-54.75C186.87,-47.72 189.35,-37.62 191.5,-28.84"/>
<polygon fill="#63b8ff" stroke="#63b8ff" points="194.91,-29.63 193.89,-19.09 188.11,-27.97 194.91,-29.63"/>
</a>
</g>
</g>
<!-- Node6&#45;&gt;Node3 -->
<g id="edge6_Node000006_Node000003" class="edge">
<title>Node6&#45;&gt;Node3</title>
<g id="a_edge6_Node000006_Node000003"><a xlink:title=" ">
<path fill="none" stroke="#63b8ff" d="M315.02,-54.75C313.43,-47.72 311.14,-37.62 309.15,-28.84"/>
<polygon fill="#63b8ff" stroke="#63b8ff" points="312.57,-28.07 306.94,-19.09 305.74,-29.62 312.57,-28.07"/>
</a>
</g>
</g>
<!-- Node7&#45;&gt;Node2 -->
<g id="edge8_Node000007_Node000002" class="edge">
<title>Node7&#45;&gt;Node2</title>
<g id="a_edge8_Node000007_Node000002"><a xlink:title=" ">
<path fill="none" stroke="#63b8ff" d="M213.89,-109.75C208.72,-102.34 201.15,-91.5 194.81,-82.41"/>
<polygon fill="#63b8ff" stroke="#63b8ff" points="197.59,-80.29 189,-74.09 191.85,-84.29 197.59,-80.29"/>
</a>
</g>
</g>
</g>
</svg>
