<?xml version="1.0" encoding="UTF-8" standalone="no"?>
<!DOCTYPE svg PUBLIC "-//W3C//DTD SVG 1.1//EN"
 "http://www.w3.org/Graphics/SVG/1.1/DTD/svg11.dtd">
<!-- Generated by graphviz version 12.2.1 (20241206.2353)
 -->
<!-- Title: hal&#45;driver/Inc/stm32f4xx_hal_adc.h Pages: 1 -->
<svg width="357pt" height="212pt"
 viewBox="0.00 0.00 357.38 211.75" xmlns="http://www.w3.org/2000/svg" xmlns:xlink="http://www.w3.org/1999/xlink">

<svg id="main" version="1.1" xmlns="http://www.w3.org/2000/svg" xmlns:xlink="http://www.w3.org/1999/xlink" xml:space="preserve">

<style type="text/css"><![CDATA[
.node, .edge {opacity: 0.7;}
.node.selected, .edge.selected {opacity: 1;}
.edge:hover path { stroke: red; }
.edge:hover polygon { stroke: red; fill: red; }
]]></style>
<script type="application/ecmascript" xlink:href="svg.min.js"/>
<svg id="graph" class="graph">
<g id="graph0" class="graph" transform="scale(1 1) rotate(0) translate(4 207.75)">
<title>hal&#45;driver/Inc/stm32f4xx_hal_adc.h</title>
<!-- Node1 -->
<g id="Node000001" class="node">
<title>Node1</title>
<g id="a_Node000001"><a xlink:title="Header file containing functions prototypes of ADC HAL library.">
<polygon fill="#999999" stroke="#666666" points="270.75,-203.75 143,-203.75 143,-170.25 270.75,-170.25 270.75,-203.75"/>
<text text-anchor="start" x="151" y="-190.25" font-family="Helvetica,sans-Serif" font-size="10.00">hal&#45;driver/Inc/stm32f4xx</text>
<text text-anchor="middle" x="206.88" y="-177.5" font-family="Helvetica,sans-Serif" font-size="10.00">_hal_adc.h</text>
</a>
</g>
</g>
<!-- Node2 -->
<g id="Node000002" class="node">
<title>Node2</title>
<g id="a_Node000002"><a xlink:href="stm32f4xx__hal__def_8h.html" target="_top" xlink:title="This file contains HAL common defines, enumeration, macros and structures definitions.">
<polygon fill="white" stroke="#666666" points="228.12,-77.5 117.62,-77.5 117.62,-56.75 228.12,-56.75 228.12,-77.5"/>
<text text-anchor="middle" x="172.88" y="-64" font-family="Helvetica,sans-Serif" font-size="10.00">stm32f4xx_hal_def.h</text>
</a>
</g>
</g>
<!-- Node1&#45;&gt;Node2 -->
<g id="edge1_Node000001_Node000002" class="edge">
<title>Node1&#45;&gt;Node2</title>
<g id="a_edge1_Node000001_Node000002"><a xlink:title=" ">
<path fill="none" stroke="#63b8ff" d="M171.63,-169.86C157.51,-161.41 142.74,-149.59 134.88,-134.25 126.25,-117.43 139.06,-98.81 152.08,-85.63"/>
<polygon fill="#63b8ff" stroke="#63b8ff" points="154.41,-88.24 159.33,-78.85 149.64,-83.12 154.41,-88.24"/>
</a>
</g>
</g>
<!-- Node6 -->
<g id="Node000006" class="node">
<title>Node6</title>
<g id="a_Node000006"><a xlink:href="stm32f4xx__ll__adc_8h.html" target="_top" xlink:title="Header file of ADC LL module.">
<polygon fill="white" stroke="#666666" points="349.38,-77.5 246.38,-77.5 246.38,-56.75 349.38,-56.75 349.38,-77.5"/>
<text text-anchor="middle" x="297.88" y="-64" font-family="Helvetica,sans-Serif" font-size="10.00">stm32f4xx_ll_adc.h</text>
</a>
</g>
</g>
<!-- Node1&#45;&gt;Node6 -->
<g id="edge5_Node000001_Node000006" class="edge">
<title>Node1&#45;&gt;Node6</title>
<g id="a_edge5_Node000001_Node000006"><a xlink:title=" ">
<path fill="none" stroke="#63b8ff" d="M238.33,-169.82C252.57,-161.05 268.5,-148.97 278.88,-134.25 288.25,-120.94 293.03,-103.06 295.45,-89.25"/>
<polygon fill="#63b8ff" stroke="#63b8ff" points="298.9,-89.85 296.85,-79.46 291.97,-88.86 298.9,-89.85"/>
</a>
</g>
</g>
<!-- Node7 -->
<g id="Node000007" class="node">
<title>Node7</title>
<g id="a_Node000007"><a xlink:href="stm32f4xx__hal__adc__ex_8h.html" target="_top" xlink:title="Header file of ADC HAL module.">
<polygon fill="white" stroke="#666666" points="270,-134.25 143.75,-134.25 143.75,-113.5 270,-113.5 270,-134.25"/>
<text text-anchor="middle" x="206.88" y="-120.75" font-family="Helvetica,sans-Serif" font-size="10.00">stm32f4xx_hal_adc_ex.h</text>
</a>
</g>
</g>
<!-- Node1&#45;&gt;Node7 -->
<g id="edge7_Node000001_Node000007" class="edge">
<title>Node1&#45;&gt;Node7</title>
<g id="a_edge7_Node000001_Node000007"><a xlink:title=" ">
<path fill="none" stroke="#63b8ff" d="M206.88,-169.94C206.88,-162.6 206.88,-153.82 206.88,-145.96"/>
<polygon fill="#63b8ff" stroke="#63b8ff" points="210.38,-146.23 206.88,-136.23 203.38,-146.23 210.38,-146.23"/>
</a>
</g>
</g>
<!-- Node3 -->
<g id="Node000003" class="node">
<title>Node3</title>
<g id="a_Node000003"><a xlink:title=" ">
<polygon fill="#e0e0e0" stroke="#999999" points="322.25,-20.75 251.5,-20.75 251.5,0 322.25,0 322.25,-20.75"/>
<text text-anchor="middle" x="286.88" y="-7.25" font-family="Helvetica,sans-Serif" font-size="10.00">stm32f4xx.h</text>
</a>
</g>
</g>
<!-- Node2&#45;&gt;Node3 -->
<g id="edge2_Node000002_Node000003" class="edge">
<title>Node2&#45;&gt;Node3</title>
<g id="a_edge2_Node000002_Node000003"><a xlink:title=" ">
<path fill="none" stroke="#63b8ff" d="M193.26,-56.34C210.84,-47.89 236.5,-35.57 256.51,-25.96"/>
<polygon fill="#63b8ff" stroke="#63b8ff" points="257.81,-29.22 265.31,-21.73 254.78,-22.91 257.81,-29.22"/>
</a>
</g>
</g>
<!-- Node4 -->
<g id="Node000004" class="node">
<title>Node4</title>
<g id="a_Node000004"><a xlink:title=" ">
<polygon fill="#e0e0e0" stroke="#999999" points="139.75,-20.75 0,-20.75 0,0 139.75,0 139.75,-20.75"/>
<text text-anchor="middle" x="69.88" y="-7.25" font-family="Helvetica,sans-Serif" font-size="10.00">Legacy/stm32_hal_legacy.h</text>
</a>
</g>
</g>
<!-- Node2&#45;&gt;Node4 -->
<g id="edge3_Node000002_Node000004" class="edge">
<title>Node2&#45;&gt;Node4</title>
<g id="a_edge3_Node000002_Node000004"><a xlink:title=" ">
<path fill="none" stroke="#63b8ff" d="M154.46,-56.34C138.79,-48.01 116.03,-35.91 98.06,-26.36"/>
<polygon fill="#63b8ff" stroke="#63b8ff" points="99.94,-23.39 89.47,-21.79 96.65,-29.57 99.94,-23.39"/>
</a>
</g>
</g>
<!-- Node5 -->
<g id="Node000005" class="node">
<title>Node5</title>
<g id="a_Node000005"><a xlink:title=" ">
<polygon fill="#e0e0e0" stroke="#999999" points="211.62,-20.75 158.12,-20.75 158.12,0 211.62,0 211.62,-20.75"/>
<text text-anchor="middle" x="184.88" y="-7.25" font-family="Helvetica,sans-Serif" font-size="10.00">stddef.h</text>
</a>
</g>
</g>
<!-- Node2&#45;&gt;Node5 -->
<g id="edge4_Node000002_Node000005" class="edge">
<title>Node2&#45;&gt;Node5</title>
<g id="a_edge4_Node000002_Node000005"><a xlink:title=" ">
<path fill="none" stroke="#63b8ff" d="M175.02,-56.34C176.49,-49.64 178.49,-40.51 180.3,-32.23"/>
<polygon fill="#63b8ff" stroke="#63b8ff" points="183.7,-33.07 182.42,-22.56 176.86,-31.58 183.7,-33.07"/>
</a>
</g>
</g>
<!-- Node6&#45;&gt;Node3 -->
<g id="edge6_Node000006_Node000003" class="edge">
<title>Node6&#45;&gt;Node3</title>
<g id="a_edge6_Node000006_Node000003"><a xlink:title=" ">
<path fill="none" stroke="#63b8ff" d="M295.91,-56.34C294.56,-49.64 292.73,-40.51 291.06,-32.23"/>
<polygon fill="#63b8ff" stroke="#63b8ff" points="294.52,-31.68 289.12,-22.56 287.66,-33.06 294.52,-31.68"/>
</a>
</g>
</g>
<!-- Node7&#45;&gt;Node2 -->
<g id="edge8_Node000007_Node000002" class="edge">
<title>Node7&#45;&gt;Node2</title>
<g id="a_edge8_Node000007_Node000002"><a xlink:title=" ">
<path fill="none" stroke="#63b8ff" d="M200.8,-113.09C196.4,-106 190.3,-96.19 184.93,-87.54"/>
<polygon fill="#63b8ff" stroke="#63b8ff" points="187.95,-85.76 179.7,-79.11 182,-89.46 187.95,-85.76"/>
</a>
</g>
</g>
</g>
</svg>
</svg>

<style type='text/css'>
<![CDATA[
[data-mouse-over-selected='false'] { opacity: 0.7; }
[data-mouse-over-selected='true']  { opacity: 1.0; }
]]>
</style>
<script type="application/ecmascript"><![CDATA[
document.addEventListener('DOMContentLoaded', (event) => {
  highlightEdges();
  highlightAdjacentNodes();
});
]]></script>
</svg>
