<?xml version="1.0" encoding="UTF-8" standalone="no"?>
<!DOCTYPE svg PUBLIC "-//W3C//DTD SVG 1.1//EN"
 "http://www.w3.org/Graphics/SVG/1.1/DTD/svg11.dtd">
<!-- Generated by graphviz version 12.2.1 (20241206.2353)
 -->
<!-- Title: hal&#45;driver/Inc/stm32f4xx_hal_def.h Pages: 1 -->
<svg width="308pt" height="98pt"
 viewBox="0.00 0.00 308.12 98.25" xmlns="http://www.w3.org/2000/svg" xmlns:xlink="http://www.w3.org/1999/xlink">
<g id="page0,1_graph0" class="graph" transform="scale(1 1) rotate(0) translate(4 94.25)">
<title>hal&#45;driver/Inc/stm32f4xx_hal_def.h</title>
<!-- Node1 -->
<g id="Node000001" class="node">
<title>Node1</title>
<g id="a_Node000001"><a xlink:title="This file contains HAL common defines, enumeration, macros and structures definitions.">
<polygon fill="#999999" stroke="#666666" points="222.25,-90.25 94.5,-90.25 94.5,-56.75 222.25,-56.75 222.25,-90.25"/>
<text text-anchor="start" x="102.5" y="-76.75" font-family="Helvetica,sans-Serif" font-size="10.00">hal&#45;driver/Inc/stm32f4xx</text>
<text text-anchor="middle" x="158.38" y="-64" font-family="Helvetica,sans-Serif" font-size="10.00">_hal_def.h</text>
</a>
</g>
</g>
<!-- Node2 -->
<g id="Node000002" class="node">
<title>Node2</title>
<g id="a_Node000002"><a xlink:title=" ">
<polygon fill="#e0e0e0" stroke="#999999" points="70.75,-20.75 0,-20.75 0,0 70.75,0 70.75,-20.75"/>
<text text-anchor="middle" x="35.38" y="-7.25" font-family="Helvetica,sans-Serif" font-size="10.00">stm32f4xx.h</text>
</a>
</g>
</g>
<!-- Node1&#45;&gt;Node2 -->
<g id="edge1_Node000001_Node000002" class="edge">
<title>Node1&#45;&gt;Node2</title>
<g id="a_edge1_Node000001_Node000002"><a xlink:title=" ">
<path fill="none" stroke="#63b8ff" d="M125.74,-56.28C106.94,-46.94 83.48,-35.28 65.18,-26.19"/>
<polygon fill="#63b8ff" stroke="#63b8ff" points="66.94,-23.15 56.43,-21.84 63.83,-29.42 66.94,-23.15"/>
</a>
</g>
</g>
<!-- Node3 -->
<g id="Node000003" class="node">
<title>Node3</title>
<g id="a_Node000003"><a xlink:title=" ">
<polygon fill="#e0e0e0" stroke="#999999" points="228.25,-20.75 88.5,-20.75 88.5,0 228.25,0 228.25,-20.75"/>
<text text-anchor="middle" x="158.38" y="-7.25" font-family="Helvetica,sans-Serif" font-size="10.00">Legacy/stm32_hal_legacy.h</text>
</a>
</g>
</g>
<!-- Node1&#45;&gt;Node3 -->
<g id="edge2_Node000001_Node000003" class="edge">
<title>Node1&#45;&gt;Node3</title>
<g id="a_edge2_Node000001_Node000003"><a xlink:title=" ">
<path fill="none" stroke="#63b8ff" d="M158.38,-56.44C158.38,-49.1 158.38,-40.32 158.38,-32.46"/>
<polygon fill="#63b8ff" stroke="#63b8ff" points="161.88,-32.73 158.38,-22.73 154.88,-32.73 161.88,-32.73"/>
</a>
</g>
</g>
<!-- Node4 -->
<g id="Node000004" class="node">
<title>Node4</title>
<g id="a_Node000004"><a xlink:title=" ">
<polygon fill="#e0e0e0" stroke="#999999" points="300.12,-20.75 246.62,-20.75 246.62,0 300.12,0 300.12,-20.75"/>
<text text-anchor="middle" x="273.38" y="-7.25" font-family="Helvetica,sans-Serif" font-size="10.00">stddef.h</text>
</a>
</g>
</g>
<!-- Node1&#45;&gt;Node4 -->
<g id="edge3_Node000001_Node000004" class="edge">
<title>Node1&#45;&gt;Node4</title>
<g id="a_edge3_Node000001_Node000004"><a xlink:title=" ">
<path fill="none" stroke="#63b8ff" d="M188.89,-56.28C206.3,-47.02 227.99,-35.5 245.03,-26.44"/>
<polygon fill="#63b8ff" stroke="#63b8ff" points="246.43,-29.66 253.62,-21.88 243.15,-23.48 246.43,-29.66"/>
</a>
</g>
</g>
</g>
</svg>
