<?xml version="1.0" encoding="UTF-8" standalone="no"?>
<!DOCTYPE svg PUBLIC "-//W3C//DTD SVG 1.1//EN"
 "http://www.w3.org/Graphics/SVG/1.1/DTD/svg11.dtd">
<!-- Generated by graphviz version 12.2.1 (20241206.2353)
 -->
<!-- Title: hal&#45;driver/Inc/stm32f4xx_hal_hcd.h Pages: 1 -->
<svg width="308pt" height="212pt"
 viewBox="0.00 0.00 308.12 211.75" xmlns="http://www.w3.org/2000/svg" xmlns:xlink="http://www.w3.org/1999/xlink">

<svg id="main" version="1.1" xmlns="http://www.w3.org/2000/svg" xmlns:xlink="http://www.w3.org/1999/xlink" xml:space="preserve">

<style type="text/css"><![CDATA[
.node, .edge {opacity: 0.7;}
.node.selected, .edge.selected {opacity: 1;}
.edge:hover path { stroke: red; }
.edge:hover polygon { stroke: red; fill: red; }
]]></style>
<script type="application/ecmascript" xlink:href="svg.min.js"/>
<svg id="graph" class="graph">
<g id="graph0" class="graph" transform="scale(1 1) rotate(0) translate(4 207.75)">
<title>hal&#45;driver/Inc/stm32f4xx_hal_hcd.h</title>
<!-- Node1 -->
<g id="Node000001" class="node">
<title>Node1</title>
<g id="a_Node000001"><a xlink:title="Header file of HCD HAL module.">
<polygon fill="#999999" stroke="#666666" points="222.25,-203.75 94.5,-203.75 94.5,-170.25 222.25,-170.25 222.25,-203.75"/>
<text text-anchor="start" x="102.5" y="-190.25" font-family="Helvetica,sans-Serif" font-size="10.00">hal&#45;driver/Inc/stm32f4xx</text>
<text text-anchor="middle" x="158.38" y="-177.5" font-family="Helvetica,sans-Serif" font-size="10.00">_hal_hcd.h</text>
</a>
</g>
</g>
<!-- Node2 -->
<g id="Node000002" class="node">
<title>Node2</title>
<g id="a_Node000002"><a xlink:href="stm32f4xx__ll__usb_8h.html" target="_top" xlink:title="Header file of USB Low Layer HAL module.">
<polygon fill="white" stroke="#666666" points="209.88,-134.25 106.88,-134.25 106.88,-113.5 209.88,-113.5 209.88,-134.25"/>
<text text-anchor="middle" x="158.38" y="-120.75" font-family="Helvetica,sans-Serif" font-size="10.00">stm32f4xx_ll_usb.h</text>
</a>
</g>
</g>
<!-- Node1&#45;&gt;Node2 -->
<g id="edge1_Node000001_Node000002" class="edge">
<title>Node1&#45;&gt;Node2</title>
<g id="a_edge1_Node000001_Node000002"><a xlink:title=" ">
<path fill="none" stroke="#63b8ff" d="M158.38,-169.94C158.38,-162.6 158.38,-153.82 158.38,-145.96"/>
<polygon fill="#63b8ff" stroke="#63b8ff" points="161.88,-146.23 158.38,-136.23 154.88,-146.23 161.88,-146.23"/>
</a>
</g>
</g>
<!-- Node3 -->
<g id="Node000003" class="node">
<title>Node3</title>
<g id="a_Node000003"><a xlink:href="stm32f4xx__hal__def_8h.html" target="_top" xlink:title="This file contains HAL common defines, enumeration, macros and structures definitions.">
<polygon fill="white" stroke="#666666" points="213.62,-77.5 103.12,-77.5 103.12,-56.75 213.62,-56.75 213.62,-77.5"/>
<text text-anchor="middle" x="158.38" y="-64" font-family="Helvetica,sans-Serif" font-size="10.00">stm32f4xx_hal_def.h</text>
</a>
</g>
</g>
<!-- Node2&#45;&gt;Node3 -->
<g id="edge2_Node000002_Node000003" class="edge">
<title>Node2&#45;&gt;Node3</title>
<g id="a_edge2_Node000002_Node000003"><a xlink:title=" ">
<path fill="none" stroke="#63b8ff" d="M158.38,-113.09C158.38,-106.47 158.38,-97.47 158.38,-89.27"/>
<polygon fill="#63b8ff" stroke="#63b8ff" points="161.88,-89.34 158.38,-79.34 154.88,-89.34 161.88,-89.34"/>
</a>
</g>
</g>
<!-- Node4 -->
<g id="Node000004" class="node">
<title>Node4</title>
<g id="a_Node000004"><a xlink:title=" ">
<polygon fill="#e0e0e0" stroke="#999999" points="70.75,-20.75 0,-20.75 0,0 70.75,0 70.75,-20.75"/>
<text text-anchor="middle" x="35.38" y="-7.25" font-family="Helvetica,sans-Serif" font-size="10.00">stm32f4xx.h</text>
</a>
</g>
</g>
<!-- Node3&#45;&gt;Node4 -->
<g id="edge3_Node000003_Node000004" class="edge">
<title>Node3&#45;&gt;Node4</title>
<g id="a_edge3_Node000003_Node000004"><a xlink:title=" ">
<path fill="none" stroke="#63b8ff" d="M136.39,-56.34C117.23,-47.81 89.21,-35.34 67.54,-25.69"/>
<polygon fill="#63b8ff" stroke="#63b8ff" points="69.12,-22.56 58.56,-21.69 66.27,-28.96 69.12,-22.56"/>
</a>
</g>
</g>
<!-- Node5 -->
<g id="Node000005" class="node">
<title>Node5</title>
<g id="a_Node000005"><a xlink:title=" ">
<polygon fill="#e0e0e0" stroke="#999999" points="228.25,-20.75 88.5,-20.75 88.5,0 228.25,0 228.25,-20.75"/>
<text text-anchor="middle" x="158.38" y="-7.25" font-family="Helvetica,sans-Serif" font-size="10.00">Legacy/stm32_hal_legacy.h</text>
</a>
</g>
</g>
<!-- Node3&#45;&gt;Node5 -->
<g id="edge4_Node000003_Node000005" class="edge">
<title>Node3&#45;&gt;Node5</title>
<g id="a_edge4_Node000003_Node000005"><a xlink:title=" ">
<path fill="none" stroke="#63b8ff" d="M158.38,-56.34C158.38,-49.72 158.38,-40.72 158.38,-32.52"/>
<polygon fill="#63b8ff" stroke="#63b8ff" points="161.88,-32.59 158.38,-22.59 154.88,-32.59 161.88,-32.59"/>
</a>
</g>
</g>
<!-- Node6 -->
<g id="Node000006" class="node">
<title>Node6</title>
<g id="a_Node000006"><a xlink:title=" ">
<polygon fill="#e0e0e0" stroke="#999999" points="300.12,-20.75 246.62,-20.75 246.62,0 300.12,0 300.12,-20.75"/>
<text text-anchor="middle" x="273.38" y="-7.25" font-family="Helvetica,sans-Serif" font-size="10.00">stddef.h</text>
</a>
</g>
</g>
<!-- Node3&#45;&gt;Node6 -->
<g id="edge5_Node000003_Node000006" class="edge">
<title>Node3&#45;&gt;Node6</title>
<g id="a_edge5_Node000003_Node000006"><a xlink:title=" ">
<path fill="none" stroke="#63b8ff" d="M178.93,-56.34C196.68,-47.89 222.56,-35.57 242.74,-25.96"/>
<polygon fill="#63b8ff" stroke="#63b8ff" points="244.1,-29.19 251.63,-21.73 241.09,-22.87 244.1,-29.19"/>
</a>
</g>
</g>
</g>
</svg>
</svg>

<style type='text/css'>
<![CDATA[
[data-mouse-over-selected='false'] { opacity: 0.7; }
[data-mouse-over-selected='true']  { opacity: 1.0; }
]]>
</style>
<script type="application/ecmascript"><![CDATA[
document.addEventListener('DOMContentLoaded', (event) => {
  highlightEdges();
  highlightAdjacentNodes();
});
]]></script>
</svg>
