<?xml version="1.0" encoding="UTF-8" standalone="no"?>
<!DOCTYPE svg PUBLIC "-//W3C//DTD SVG 1.1//EN"
 "http://www.w3.org/Graphics/SVG/1.1/DTD/svg11.dtd">
<!-- Generated by graphviz version 2.43.0 (0)
 -->
<!-- Title: /tmp/hal&#45;driver/Src/stm32f4xx_hal_fmpsmbus.c Pages: 1 -->
<svg width="166pt" height="148pt"
 viewBox="0.00 0.00 166.00 148.00" xmlns="http://www.w3.org/2000/svg" xmlns:xlink="http://www.w3.org/1999/xlink">
<g id="graph0" class="graph" transform="scale(1 1) rotate(0) translate(4 144)">
<title>/tmp/hal&#45;driver/Src/stm32f4xx_hal_fmpsmbus.c</title>
<!-- Node1 -->
<g id="Node000001" class="node">
<title>Node1</title>
<g id="a_Node000001"><a xlink:title="FMPSMBUS HAL module driver. This file provides firmware functions to manage the following functionali...">
<polygon fill="#999999" stroke="#666666" points="158,-140 0,-140 0,-110 158,-110 158,-140"/>
<text text-anchor="start" x="8" y="-128" font-family="Helvetica,sans-Serif" font-size="10.00">/tmp/hal&#45;driver/Src</text>
<text text-anchor="middle" x="79" y="-117" font-family="Helvetica,sans-Serif" font-size="10.00">/stm32f4xx_hal_fmpsmbus.c</text>
</a>
</g>
</g>
<!-- Node2 -->
<g id="Node000002" class="node">
<title>Node2</title>
<g id="a_Node000002"><a xlink:href="stm32f4xx__hal_8h.html" target="_top" xlink:title="This file contains all the functions prototypes for the HAL module driver.">
<polygon fill="white" stroke="#666666" points="128,-74 30,-74 30,-55 128,-55 128,-74"/>
<text text-anchor="middle" x="79" y="-62" font-family="Helvetica,sans-Serif" font-size="10.00">stm32f4xx_hal.h</text>
</a>
</g>
</g>
<!-- Node1&#45;&gt;Node2 -->
<g id="edge1_Node000001_Node000002" class="edge">
<title>Node1&#45;&gt;Node2</title>
<g id="a_edge1_Node000001_Node000002"><a xlink:title=" ">
<path fill="none" stroke="#63b8ff" d="M79,-109.84C79,-102.21 79,-92.7 79,-84.45"/>
<polygon fill="#63b8ff" stroke="#63b8ff" points="82.5,-84.27 79,-74.27 75.5,-84.27 82.5,-84.27"/>
</a>
</g>
</g>
<!-- Node3 -->
<g id="Node000003" class="node">
<title>Node3</title>
<g id="a_Node000003"><a xlink:title=" ">
<polygon fill="#e0e0e0" stroke="#999999" points="141,-19 17,-19 17,0 141,0 141,-19"/>
<text text-anchor="middle" x="79" y="-7" font-family="Helvetica,sans-Serif" font-size="10.00">stm32f4xx_hal_conf.h</text>
</a>
</g>
</g>
<!-- Node2&#45;&gt;Node3 -->
<g id="edge2_Node000002_Node000003" class="edge">
<title>Node2&#45;&gt;Node3</title>
<g id="a_edge2_Node000002_Node000003"><a xlink:title=" ">
<path fill="none" stroke="#63b8ff" d="M79,-54.75C79,-47.8 79,-37.85 79,-29.13"/>
<polygon fill="#63b8ff" stroke="#63b8ff" points="82.5,-29.09 79,-19.09 75.5,-29.09 82.5,-29.09"/>
</a>
</g>
</g>
</g>
</svg>
