<?xml version="1.0" encoding="UTF-8" standalone="no"?>
<!DOCTYPE svg PUBLIC "-//W3C//DTD SVG 1.1//EN"
 "http://www.w3.org/Graphics/SVG/1.1/DTD/svg11.dtd">
<!-- Generated by graphviz version 2.43.0 (0)
 -->
<!-- Title: hal&#45;driver/Inc/stm32f4xx_hal_flash.h Pages: 1 -->
<svg width="437pt" height="214pt"
 viewBox="0.00 0.00 437.00 214.00" xmlns="http://www.w3.org/2000/svg" xmlns:xlink="http://www.w3.org/1999/xlink">

<svg id="main" version="1.1" xmlns="http://www.w3.org/2000/svg" xmlns:xlink="http://www.w3.org/1999/xlink" xml:space="preserve">

<style type="text/css"><![CDATA[
.node, .edge {opacity: 0.7;}
.node.selected, .edge.selected {opacity: 1;}
.edge:hover path { stroke: red; }
.edge:hover polygon { stroke: red; fill: red; }
]]></style>
<script type="application/ecmascript" xlink:href="svg.min.js"/>
<svg id="graph" class="graph">
<g id="graph0" class="graph" transform="scale(1 1) rotate(0) translate(4 210)">
<title>hal&#45;driver/Inc/stm32f4xx_hal_flash.h</title>
<!-- Node1 -->
<g id="Node000001" class="node">
<title>Node1</title>
<g id="a_Node000001"><a xlink:title="Header file of FLASH HAL module.">
<polygon fill="#999999" stroke="#666666" points="289.5,-206 152.5,-206 152.5,-176 289.5,-176 289.5,-206"/>
<text text-anchor="start" x="160.5" y="-194" font-family="Helvetica,sans-Serif" font-size="10.00">hal&#45;driver/Inc/stm32f4xx</text>
<text text-anchor="middle" x="221" y="-183" font-family="Helvetica,sans-Serif" font-size="10.00">_hal_flash.h</text>
</a>
</g>
</g>
<!-- Node2 -->
<g id="Node000002" class="node">
<title>Node2</title>
<g id="a_Node000002"><a xlink:href="stm32f4xx__hal__def_8h.html" target="_top" xlink:title="This file contains HAL common defines, enumeration, macros and structures definitions.">
<polygon fill="white" stroke="#666666" points="230.5,-74 111.5,-74 111.5,-55 230.5,-55 230.5,-74"/>
<text text-anchor="middle" x="171" y="-62" font-family="Helvetica,sans-Serif" font-size="10.00">stm32f4xx_hal_def.h</text>
</a>
</g>
</g>
<!-- Node1&#45;&gt;Node2 -->
<g id="edge1_Node000001_Node000002" class="edge">
<title>Node1&#45;&gt;Node2</title>
<g id="a_edge1_Node000001_Node000002"><a xlink:title=" ">
<path fill="none" stroke="#63b8ff" d="M181.93,-175.89C165.95,-167.96 149.1,-156.31 140,-140 129.29,-120.8 143.36,-97.14 155.85,-81.71"/>
<polygon fill="#63b8ff" stroke="#63b8ff" points="158.57,-83.91 162.47,-74.06 153.28,-79.34 158.57,-83.91"/>
</a>
</g>
</g>
<!-- Node6 -->
<g id="Node000006" class="node">
<title>Node6</title>
<g id="a_Node000006"><a xlink:href="stm32f4xx__hal__flash__ex_8h.html" target="_top" xlink:title="Header file of FLASH HAL Extension module.">
<polygon fill="white" stroke="#666666" points="293,-134.5 149,-134.5 149,-115.5 293,-115.5 293,-134.5"/>
<text text-anchor="middle" x="221" y="-122.5" font-family="Helvetica,sans-Serif" font-size="10.00">stm32f4xx_hal_flash_ex.h</text>
</a>
</g>
</g>
<!-- Node1&#45;&gt;Node6 -->
<g id="edge5_Node000001_Node000006" class="edge">
<title>Node1&#45;&gt;Node6</title>
<g id="a_edge5_Node000001_Node000006"><a xlink:title=" ">
<path fill="none" stroke="#63b8ff" d="M221,-175.8C221,-166.7 221,-154.79 221,-144.9"/>
<polygon fill="#63b8ff" stroke="#63b8ff" points="224.5,-144.84 221,-134.84 217.5,-144.84 224.5,-144.84"/>
</a>
</g>
</g>
<!-- Node7 -->
<g id="Node000007" class="node">
<title>Node7</title>
<g id="a_Node000007"><a xlink:href="stm32f4xx__hal__flash__ramfunc_8h.html" target="_top" xlink:title="Header file of FLASH RAMFUNC driver.">
<polygon fill="white" stroke="#666666" points="429,-140 311,-140 311,-110 429,-110 429,-140"/>
<text text-anchor="start" x="319" y="-128" font-family="Helvetica,sans-Serif" font-size="10.00">stm32f4xx_hal_flash</text>
<text text-anchor="middle" x="370" y="-117" font-family="Helvetica,sans-Serif" font-size="10.00">_ramfunc.h</text>
</a>
</g>
</g>
<!-- Node1&#45;&gt;Node7 -->
<g id="edge7_Node000001_Node000007" class="edge">
<title>Node1&#45;&gt;Node7</title>
<g id="a_edge7_Node000001_Node000007"><a xlink:title=" ">
<path fill="none" stroke="#63b8ff" d="M253.7,-175.95C275.53,-166.58 304.45,-154.16 327.99,-144.05"/>
<polygon fill="#63b8ff" stroke="#63b8ff" points="329.57,-147.17 337.38,-140.01 326.81,-140.74 329.57,-147.17"/>
</a>
</g>
</g>
<!-- Node3 -->
<g id="Node000003" class="node">
<title>Node3</title>
<g id="a_Node000003"><a xlink:title=" ">
<polygon fill="#e0e0e0" stroke="#999999" points="78,-19 0,-19 0,0 78,0 78,-19"/>
<text text-anchor="middle" x="39" y="-7" font-family="Helvetica,sans-Serif" font-size="10.00">stm32f4xx.h</text>
</a>
</g>
</g>
<!-- Node2&#45;&gt;Node3 -->
<g id="edge2_Node000002_Node000003" class="edge">
<title>Node2&#45;&gt;Node3</title>
<g id="a_edge2_Node000002_Node000003"><a xlink:title=" ">
<path fill="none" stroke="#63b8ff" d="M149.79,-54.98C128.27,-46.34 94.72,-32.87 70.17,-23.02"/>
<polygon fill="#63b8ff" stroke="#63b8ff" points="71.18,-19.65 60.59,-19.17 68.57,-26.14 71.18,-19.65"/>
</a>
</g>
</g>
<!-- Node4 -->
<g id="Node000004" class="node">
<title>Node4</title>
<g id="a_Node000004"><a xlink:title=" ">
<polygon fill="#e0e0e0" stroke="#999999" points="246,-19 96,-19 96,0 246,0 246,-19"/>
<text text-anchor="middle" x="171" y="-7" font-family="Helvetica,sans-Serif" font-size="10.00">Legacy/stm32_hal_legacy.h</text>
</a>
</g>
</g>
<!-- Node2&#45;&gt;Node4 -->
<g id="edge3_Node000002_Node000004" class="edge">
<title>Node2&#45;&gt;Node4</title>
<g id="a_edge3_Node000002_Node000004"><a xlink:title=" ">
<path fill="none" stroke="#63b8ff" d="M171,-54.75C171,-47.8 171,-37.85 171,-29.13"/>
<polygon fill="#63b8ff" stroke="#63b8ff" points="174.5,-29.09 171,-19.09 167.5,-29.09 174.5,-29.09"/>
</a>
</g>
</g>
<!-- Node5 -->
<g id="Node000005" class="node">
<title>Node5</title>
<g id="a_Node000005"><a xlink:title=" ">
<polygon fill="#e0e0e0" stroke="#999999" points="320,-19 264,-19 264,0 320,0 320,-19"/>
<text text-anchor="middle" x="292" y="-7" font-family="Helvetica,sans-Serif" font-size="10.00">stddef.h</text>
</a>
</g>
</g>
<!-- Node2&#45;&gt;Node5 -->
<g id="edge4_Node000002_Node000005" class="edge">
<title>Node2&#45;&gt;Node5</title>
<g id="a_edge4_Node000002_Node000005"><a xlink:title=" ">
<path fill="none" stroke="#63b8ff" d="M190.44,-54.98C209.99,-46.42 240.38,-33.11 262.82,-23.28"/>
<polygon fill="#63b8ff" stroke="#63b8ff" points="264.45,-26.39 272.21,-19.17 261.64,-19.98 264.45,-26.39"/>
</a>
</g>
</g>
<!-- Node6&#45;&gt;Node2 -->
<g id="edge6_Node000006_Node000002" class="edge">
<title>Node6&#45;&gt;Node2</title>
<g id="a_edge6_Node000006_Node000002"><a xlink:title=" ">
<path fill="none" stroke="#63b8ff" d="M213.62,-115.37C206.09,-106.55 194.21,-92.66 184.91,-81.77"/>
<polygon fill="#63b8ff" stroke="#63b8ff" points="187.57,-79.5 178.41,-74.17 182.24,-84.04 187.57,-79.5"/>
</a>
</g>
</g>
</g>
</svg>
</svg>

<style type='text/css'>
<![CDATA[
[data-mouse-over-selected='false'] { opacity: 0.7; }
[data-mouse-over-selected='true']  { opacity: 1.0; }
]]>
</style>
<script type="application/ecmascript"><![CDATA[
document.addEventListener('DOMContentLoaded', (event) => {
  highlightEdges();
  highlightAdjacentNodes();
});
]]></script>
</svg>
