<?xml version="1.0" encoding="UTF-8" standalone="no"?>
<!DOCTYPE svg PUBLIC "-//W3C//DTD SVG 1.1//EN"
 "http://www.w3.org/Graphics/SVG/1.1/DTD/svg11.dtd">
<!-- Generated by graphviz version 12.2.1 (20241206.2353)
 -->
<!-- Title: hal&#45;driver/Inc/stm32f4xx_hal_dma.h Pages: 1 -->
<svg width="308pt" height="212pt"
 viewBox="0.00 0.00 308.12 211.75" xmlns="http://www.w3.org/2000/svg" xmlns:xlink="http://www.w3.org/1999/xlink">
<g id="page0,1_graph0" class="graph" transform="scale(1 1) rotate(0) translate(4 207.75)">
<title>hal&#45;driver/Inc/stm32f4xx_hal_dma.h</title>
<!-- Node1 -->
<g id="Node000001" class="node">
<title>Node1</title>
<g id="a_Node000001"><a xlink:title="Header file of DMA HAL module.">
<polygon fill="#999999" stroke="#666666" points="222.25,-203.75 94.5,-203.75 94.5,-170.25 222.25,-170.25 222.25,-203.75"/>
<text text-anchor="start" x="102.5" y="-190.25" font-family="Helvetica,sans-Serif" font-size="10.00">hal&#45;driver/Inc/stm32f4xx</text>
<text text-anchor="middle" x="158.38" y="-177.5" font-family="Helvetica,sans-Serif" font-size="10.00">_hal_dma.h</text>
</a>
</g>
</g>
<!-- Node2 -->
<g id="Node000002" class="node">
<title>Node2</title>
<g id="a_Node000002"><a xlink:href="stm32f4xx__hal__def_8h.html" target="_top" xlink:title="This file contains HAL common defines, enumeration, macros and structures definitions.">
<polygon fill="white" stroke="#666666" points="213.62,-77.5 103.12,-77.5 103.12,-56.75 213.62,-56.75 213.62,-77.5"/>
<text text-anchor="middle" x="158.38" y="-64" font-family="Helvetica,sans-Serif" font-size="10.00">stm32f4xx_hal_def.h</text>
</a>
</g>
</g>
<!-- Node1&#45;&gt;Node2 -->
<g id="edge1_Node000001_Node000002" class="edge">
<title>Node1&#45;&gt;Node2</title>
<g id="a_edge1_Node000001_Node000002"><a xlink:title=" ">
<path fill="none" stroke="#63b8ff" d="M146.13,-169.86C136.63,-155.34 125.93,-133.31 131.38,-113.5 133.92,-104.26 138.88,-95.01 143.87,-87.29"/>
<polygon fill="#63b8ff" stroke="#63b8ff" points="146.73,-89.3 149.59,-79.1 140.99,-85.29 146.73,-89.3"/>
</a>
</g>
</g>
<!-- Node6 -->
<g id="Node000006" class="node">
<title>Node6</title>
<g id="a_Node000006"><a xlink:href="stm32f4xx__hal__dma__ex_8h.html" target="_top" xlink:title="Header file of DMA HAL extension module.">
<polygon fill="white" stroke="#666666" points="270.75,-134.25 140,-134.25 140,-113.5 270.75,-113.5 270.75,-134.25"/>
<text text-anchor="middle" x="205.38" y="-120.75" font-family="Helvetica,sans-Serif" font-size="10.00">stm32f4xx_hal_dma_ex.h</text>
</a>
</g>
</g>
<!-- Node1&#45;&gt;Node6 -->
<g id="edge5_Node000001_Node000006" class="edge">
<title>Node1&#45;&gt;Node6</title>
<g id="a_edge5_Node000001_Node000006"><a xlink:title=" ">
<path fill="none" stroke="#63b8ff" d="M170.72,-169.94C176.9,-161.91 184.42,-152.13 190.87,-143.74"/>
<polygon fill="#63b8ff" stroke="#63b8ff" points="193.56,-145.98 196.88,-135.92 188.01,-141.71 193.56,-145.98"/>
</a>
</g>
</g>
<!-- Node3 -->
<g id="Node000003" class="node">
<title>Node3</title>
<g id="a_Node000003"><a xlink:title=" ">
<polygon fill="#e0e0e0" stroke="#999999" points="70.75,-20.75 0,-20.75 0,0 70.75,0 70.75,-20.75"/>
<text text-anchor="middle" x="35.38" y="-7.25" font-family="Helvetica,sans-Serif" font-size="10.00">stm32f4xx.h</text>
</a>
</g>
</g>
<!-- Node2&#45;&gt;Node3 -->
<g id="edge2_Node000002_Node000003" class="edge">
<title>Node2&#45;&gt;Node3</title>
<g id="a_edge2_Node000002_Node000003"><a xlink:title=" ">
<path fill="none" stroke="#63b8ff" d="M136.39,-56.34C117.23,-47.81 89.21,-35.34 67.54,-25.69"/>
<polygon fill="#63b8ff" stroke="#63b8ff" points="69.12,-22.56 58.56,-21.69 66.27,-28.96 69.12,-22.56"/>
</a>
</g>
</g>
<!-- Node4 -->
<g id="Node000004" class="node">
<title>Node4</title>
<g id="a_Node000004"><a xlink:title=" ">
<polygon fill="#e0e0e0" stroke="#999999" points="228.25,-20.75 88.5,-20.75 88.5,0 228.25,0 228.25,-20.75"/>
<text text-anchor="middle" x="158.38" y="-7.25" font-family="Helvetica,sans-Serif" font-size="10.00">Legacy/stm32_hal_legacy.h</text>
</a>
</g>
</g>
<!-- Node2&#45;&gt;Node4 -->
<g id="edge3_Node000002_Node000004" class="edge">
<title>Node2&#45;&gt;Node4</title>
<g id="a_edge3_Node000002_Node000004"><a xlink:title=" ">
<path fill="none" stroke="#63b8ff" d="M158.38,-56.34C158.38,-49.72 158.38,-40.72 158.38,-32.52"/>
<polygon fill="#63b8ff" stroke="#63b8ff" points="161.88,-32.59 158.38,-22.59 154.88,-32.59 161.88,-32.59"/>
</a>
</g>
</g>
<!-- Node5 -->
<g id="Node000005" class="node">
<title>Node5</title>
<g id="a_Node000005"><a xlink:title=" ">
<polygon fill="#e0e0e0" stroke="#999999" points="300.12,-20.75 246.62,-20.75 246.62,0 300.12,0 300.12,-20.75"/>
<text text-anchor="middle" x="273.38" y="-7.25" font-family="Helvetica,sans-Serif" font-size="10.00">stddef.h</text>
</a>
</g>
</g>
<!-- Node2&#45;&gt;Node5 -->
<g id="edge4_Node000002_Node000005" class="edge">
<title>Node2&#45;&gt;Node5</title>
<g id="a_edge4_Node000002_Node000005"><a xlink:title=" ">
<path fill="none" stroke="#63b8ff" d="M178.93,-56.34C196.68,-47.89 222.56,-35.57 242.74,-25.96"/>
<polygon fill="#63b8ff" stroke="#63b8ff" points="244.1,-29.19 251.63,-21.73 241.09,-22.87 244.1,-29.19"/>
</a>
</g>
</g>
<!-- Node6&#45;&gt;Node2 -->
<g id="edge6_Node000006_Node000002" class="edge">
<title>Node6&#45;&gt;Node2</title>
<g id="a_edge6_Node000006_Node000002"><a xlink:title=" ">
<path fill="none" stroke="#63b8ff" d="M196.97,-113.09C190.62,-105.69 181.72,-95.32 174.07,-86.41"/>
<polygon fill="#63b8ff" stroke="#63b8ff" points="176.86,-84.28 167.69,-78.98 171.55,-88.84 176.86,-84.28"/>
</a>
</g>
</g>
</g>
</svg>
