<?xml version="1.0" encoding="UTF-8" standalone="no"?>
<!DOCTYPE svg PUBLIC "-//W3C//DTD SVG 1.1//EN"
 "http://www.w3.org/Graphics/SVG/1.1/DTD/svg11.dtd">
<!-- Generated by graphviz version 2.43.0 (0)
 -->
<!-- Title: /tmp/hal&#45;driver/Src/stm32f4xx_hal_lptim.c Pages: 1 -->
<svg width="139pt" height="148pt"
 viewBox="0.00 0.00 139.00 148.00" xmlns="http://www.w3.org/2000/svg" xmlns:xlink="http://www.w3.org/1999/xlink">
<g id="graph0" class="graph" transform="scale(1 1) rotate(0) translate(4 144)">
<title>/tmp/hal&#45;driver/Src/stm32f4xx_hal_lptim.c</title>
<!-- Node1 -->
<g id="Node000001" class="node">
<title>Node1</title>
<g id="a_Node000001"><a xlink:title="LPTIM HAL module driver. This file provides firmware functions to manage the following functionalitie...">
<polygon fill="#999999" stroke="#666666" points="131,-140 0,-140 0,-110 131,-110 131,-140"/>
<text text-anchor="start" x="8" y="-128" font-family="Helvetica,sans-Serif" font-size="10.00">/tmp/hal&#45;driver/Src</text>
<text text-anchor="middle" x="65.5" y="-117" font-family="Helvetica,sans-Serif" font-size="10.00">/stm32f4xx_hal_lptim.c</text>
</a>
</g>
</g>
<!-- Node2 -->
<g id="Node000002" class="node">
<title>Node2</title>
<g id="a_Node000002"><a xlink:href="stm32f4xx__hal_8h.html" target="_top" xlink:title="This file contains all the functions prototypes for the HAL module driver.">
<polygon fill="white" stroke="#666666" points="114.5,-74 16.5,-74 16.5,-55 114.5,-55 114.5,-74"/>
<text text-anchor="middle" x="65.5" y="-62" font-family="Helvetica,sans-Serif" font-size="10.00">stm32f4xx_hal.h</text>
</a>
</g>
</g>
<!-- Node1&#45;&gt;Node2 -->
<g id="edge1_Node000001_Node000002" class="edge">
<title>Node1&#45;&gt;Node2</title>
<g id="a_edge1_Node000001_Node000002"><a xlink:title=" ">
<path fill="none" stroke="#63b8ff" d="M65.5,-109.84C65.5,-102.21 65.5,-92.7 65.5,-84.45"/>
<polygon fill="#63b8ff" stroke="#63b8ff" points="69,-84.27 65.5,-74.27 62,-84.27 69,-84.27"/>
</a>
</g>
</g>
<!-- Node3 -->
<g id="Node000003" class="node">
<title>Node3</title>
<g id="a_Node000003"><a xlink:title=" ">
<polygon fill="#e0e0e0" stroke="#999999" points="127.5,-19 3.5,-19 3.5,0 127.5,0 127.5,-19"/>
<text text-anchor="middle" x="65.5" y="-7" font-family="Helvetica,sans-Serif" font-size="10.00">stm32f4xx_hal_conf.h</text>
</a>
</g>
</g>
<!-- Node2&#45;&gt;Node3 -->
<g id="edge2_Node000002_Node000003" class="edge">
<title>Node2&#45;&gt;Node3</title>
<g id="a_edge2_Node000002_Node000003"><a xlink:title=" ">
<path fill="none" stroke="#63b8ff" d="M65.5,-54.75C65.5,-47.8 65.5,-37.85 65.5,-29.13"/>
<polygon fill="#63b8ff" stroke="#63b8ff" points="69,-29.09 65.5,-19.09 62,-29.09 69,-29.09"/>
</a>
</g>
</g>
</g>
</svg>
