<?xml version="1.0" encoding="UTF-8" standalone="no"?>
<!DOCTYPE svg PUBLIC "-//W3C//DTD SVG 1.1//EN"
 "http://www.w3.org/Graphics/SVG/1.1/DTD/svg11.dtd">
<!-- Generated by graphviz version 2.43.0 (0)
 -->
<!-- Title: /tmp/hal&#45;driver/Inc/stm32f4xx_ll_adc.h Pages: 1 -->
<svg width="132pt" height="181pt"
 viewBox="0.00 0.00 132.00 181.00" xmlns="http://www.w3.org/2000/svg" xmlns:xlink="http://www.w3.org/1999/xlink">
<g id="graph0" class="graph" transform="scale(1 1) rotate(0) translate(4 177)">
<title>/tmp/hal&#45;driver/Inc/stm32f4xx_ll_adc.h</title>
<!-- Node1 -->
<g id="Node000001" class="node">
<title>Node1</title>
<g id="a_Node000001"><a xlink:title="Header file of ADC LL module.">
<polygon fill="#999999" stroke="#666666" points="119.5,-173 4.5,-173 4.5,-143 119.5,-143 119.5,-173"/>
<text text-anchor="start" x="12.5" y="-161" font-family="Helvetica,sans-Serif" font-size="10.00">/tmp/hal&#45;driver/Inc</text>
<text text-anchor="middle" x="62" y="-150" font-family="Helvetica,sans-Serif" font-size="10.00">/stm32f4xx_ll_adc.h</text>
</a>
</g>
</g>
<!-- Node2 -->
<g id="Node000002" class="node">
<title>Node2</title>
<g id="a_Node000002"><a xlink:href="stm32f4xx__hal__adc_8h.html" target="_top" xlink:title="Header file containing functions prototypes of ADC HAL library.">
<polygon fill="white" stroke="#666666" points="124,-107 0,-107 0,-77 124,-77 124,-107"/>
<text text-anchor="start" x="8" y="-95" font-family="Helvetica,sans-Serif" font-size="10.00">/tmp/hal&#45;driver/Inc</text>
<text text-anchor="middle" x="62" y="-84" font-family="Helvetica,sans-Serif" font-size="10.00">/stm32f4xx_hal_adc.h</text>
</a>
</g>
</g>
<!-- Node1&#45;&gt;Node2 -->
<g id="edge1_Node000001_Node000002" class="edge">
<title>Node1&#45;&gt;Node2</title>
<g id="a_edge1_Node000001_Node000002"><a xlink:title=" ">
<path fill="none" stroke="#63b8ff" d="M62,-132.54C62,-123.96 62,-114.61 62,-107.16"/>
<polygon fill="#63b8ff" stroke="#63b8ff" points="58.5,-132.8 62,-142.8 65.5,-132.8 58.5,-132.8"/>
</a>
</g>
</g>
<!-- Node3 -->
<g id="Node000003" class="node">
<title>Node3</title>
<g id="a_Node000003"><a xlink:href="stm32f4xx__hal__conf__template_8h.html" target="_top" xlink:title="HAL configuration template file. This file should be copied to the application folder and renamed to ...">
<polygon fill="white" stroke="#666666" points="121.5,-41 2.5,-41 2.5,0 121.5,0 121.5,-41"/>
<text text-anchor="start" x="10.5" y="-29" font-family="Helvetica,sans-Serif" font-size="10.00">/tmp/hal&#45;driver/Inc</text>
<text text-anchor="start" x="10.5" y="-18" font-family="Helvetica,sans-Serif" font-size="10.00">/stm32f4xx_hal_conf</text>
<text text-anchor="middle" x="62" y="-7" font-family="Helvetica,sans-Serif" font-size="10.00">_template.h</text>
</a>
</g>
</g>
<!-- Node2&#45;&gt;Node3 -->
<g id="edge2_Node000002_Node000003" class="edge">
<title>Node2&#45;&gt;Node3</title>
<g id="a_edge2_Node000002_Node000003"><a xlink:title=" ">
<path fill="none" stroke="#63b8ff" d="M62,-66.91C62,-58.47 62,-49.1 62,-41.07"/>
<polygon fill="#63b8ff" stroke="#63b8ff" points="58.5,-66.94 62,-76.94 65.5,-66.94 58.5,-66.94"/>
</a>
</g>
</g>
</g>
</svg>
