<?xml version="1.0" encoding="UTF-8" standalone="no"?>
<!DOCTYPE svg PUBLIC "-//W3C//DTD SVG 1.1//EN"
 "http://www.w3.org/Graphics/SVG/1.1/DTD/svg11.dtd">
<!-- Generated by graphviz version 12.2.1 (20241206.2353)
 -->
<!-- Title: hal&#45;driver/Src/stm32f4xx_ll_utils.c Pages: 1 -->
<svg width="491pt" height="155pt"
 viewBox="0.00 0.00 491.25 155.00" xmlns="http://www.w3.org/2000/svg" xmlns:xlink="http://www.w3.org/1999/xlink">

<svg id="main" version="1.1" xmlns="http://www.w3.org/2000/svg" xmlns:xlink="http://www.w3.org/1999/xlink" xml:space="preserve">

<style type="text/css"><![CDATA[
.node, .edge {opacity: 0.7;}
.node.selected, .edge.selected {opacity: 1;}
.edge:hover path { stroke: red; }
.edge:hover polygon { stroke: red; fill: red; }
]]></style>
<script type="application/ecmascript" xlink:href="svg.min.js"/>
<svg id="graph" class="graph">
<g id="graph0" class="graph" transform="scale(1 1) rotate(0) translate(4 151)">
<title>hal&#45;driver/Src/stm32f4xx_ll_utils.c</title>
<!-- Node1 -->
<g id="Node000001" class="node">
<title>Node1</title>
<g id="a_Node000001"><a xlink:title="UTILS LL module driver.">
<polygon fill="#999999" stroke="#666666" points="300.88,-147 173.12,-147 173.12,-113.5 300.88,-113.5 300.88,-147"/>
<text text-anchor="start" x="181.12" y="-133.5" font-family="Helvetica,sans-Serif" font-size="10.00">hal&#45;driver/Src/stm32f4xx</text>
<text text-anchor="middle" x="237" y="-120.75" font-family="Helvetica,sans-Serif" font-size="10.00">_ll_utils.c</text>
</a>
</g>
</g>
<!-- Node2 -->
<g id="Node000002" class="node">
<title>Node2</title>
<g id="a_Node000002"><a xlink:href="stm32f4xx__ll__utils_8h.html" target="_top" xlink:title="Header file of UTILS LL module.">
<polygon fill="white" stroke="#666666" points="106,-77.5 0,-77.5 0,-56.75 106,-56.75 106,-77.5"/>
<text text-anchor="middle" x="53" y="-64" font-family="Helvetica,sans-Serif" font-size="10.00">stm32f4xx_ll_utils.h</text>
</a>
</g>
</g>
<!-- Node1&#45;&gt;Node2 -->
<g id="edge1_Node000001_Node000002" class="edge">
<title>Node1&#45;&gt;Node2</title>
<g id="a_edge1_Node000001_Node000002"><a xlink:title=" ">
<path fill="none" stroke="#63b8ff" d="M188.17,-113.03C158.47,-103.16 121.01,-90.72 93.06,-81.43"/>
<polygon fill="#63b8ff" stroke="#63b8ff" points="94.5,-78.22 83.91,-78.39 92.29,-84.87 94.5,-78.22"/>
</a>
</g>
</g>
<!-- Node4 -->
<g id="Node000004" class="node">
<title>Node4</title>
<g id="a_Node000004"><a xlink:href="stm32f4xx__ll__rcc_8h.html" target="_top" xlink:title="Header file of RCC LL module.">
<polygon fill="white" stroke="#666666" points="224,-77.5 124,-77.5 124,-56.75 224,-56.75 224,-77.5"/>
<text text-anchor="middle" x="174" y="-64" font-family="Helvetica,sans-Serif" font-size="10.00">stm32f4xx_ll_rcc.h</text>
</a>
</g>
</g>
<!-- Node1&#45;&gt;Node4 -->
<g id="edge3_Node000001_Node000004" class="edge">
<title>Node1&#45;&gt;Node4</title>
<g id="a_edge3_Node000001_Node000004"><a xlink:title=" ">
<path fill="none" stroke="#63b8ff" d="M220.45,-113.19C211.81,-104.81 201.21,-94.53 192.33,-85.91"/>
<polygon fill="#63b8ff" stroke="#63b8ff" points="194.84,-83.47 185.23,-79.02 189.97,-88.5 194.84,-83.47"/>
</a>
</g>
</g>
<!-- Node5 -->
<g id="Node000005" class="node">
<title>Node5</title>
<g id="a_Node000005"><a xlink:href="stm32f4xx__ll__system_8h.html" target="_top" xlink:title="Header file of SYSTEM LL module.">
<polygon fill="white" stroke="#666666" points="360.38,-77.5 241.62,-77.5 241.62,-56.75 360.38,-56.75 360.38,-77.5"/>
<text text-anchor="middle" x="301" y="-64" font-family="Helvetica,sans-Serif" font-size="10.00">stm32f4xx_ll_system.h</text>
</a>
</g>
</g>
<!-- Node1&#45;&gt;Node5 -->
<g id="edge5_Node000001_Node000005" class="edge">
<title>Node1&#45;&gt;Node5</title>
<g id="a_edge5_Node000001_Node000005"><a xlink:title=" ">
<path fill="none" stroke="#63b8ff" d="M253.82,-113.19C262.59,-104.81 273.35,-94.53 282.38,-85.91"/>
<polygon fill="#63b8ff" stroke="#63b8ff" points="284.79,-88.45 289.6,-79.01 279.95,-83.39 284.79,-88.45"/>
</a>
</g>
</g>
<!-- Node6 -->
<g id="Node000006" class="node">
<title>Node6</title>
<g id="a_Node000006"><a xlink:href="stm32f4xx__ll__pwr_8h.html" target="_top" xlink:title="Header file of PWR LL module.">
<polygon fill="white" stroke="#666666" points="483.25,-77.5 378.75,-77.5 378.75,-56.75 483.25,-56.75 483.25,-77.5"/>
<text text-anchor="middle" x="431" y="-64" font-family="Helvetica,sans-Serif" font-size="10.00">stm32f4xx_ll_pwr.h</text>
</a>
</g>
</g>
<!-- Node1&#45;&gt;Node6 -->
<g id="edge7_Node000001_Node000006" class="edge">
<title>Node1&#45;&gt;Node6</title>
<g id="a_edge7_Node000001_Node000006"><a xlink:title=" ">
<path fill="none" stroke="#63b8ff" d="M288.48,-113.03C319.93,-103.12 359.64,-90.61 389.16,-81.31"/>
<polygon fill="#63b8ff" stroke="#63b8ff" points="390,-84.71 398.48,-78.37 387.89,-78.04 390,-84.71"/>
</a>
</g>
</g>
<!-- Node3 -->
<g id="Node000003" class="node">
<title>Node3</title>
<g id="a_Node000003"><a xlink:title=" ">
<polygon fill="#e0e0e0" stroke="#999999" points="272.38,-20.75 201.62,-20.75 201.62,0 272.38,0 272.38,-20.75"/>
<text text-anchor="middle" x="237" y="-7.25" font-family="Helvetica,sans-Serif" font-size="10.00">stm32f4xx.h</text>
</a>
</g>
</g>
<!-- Node2&#45;&gt;Node3 -->
<g id="edge2_Node000002_Node000003" class="edge">
<title>Node2&#45;&gt;Node3</title>
<g id="a_edge2_Node000002_Node000003"><a xlink:title=" ">
<path fill="none" stroke="#63b8ff" d="M85.9,-56.34C115.89,-47.41 160.43,-34.16 193.38,-24.35"/>
<polygon fill="#63b8ff" stroke="#63b8ff" points="194.04,-27.81 202.63,-21.6 192.05,-21.1 194.04,-27.81"/>
</a>
</g>
</g>
<!-- Node4&#45;&gt;Node3 -->
<g id="edge4_Node000004_Node000003" class="edge">
<title>Node4&#45;&gt;Node3</title>
<g id="a_edge4_Node000004_Node000003"><a xlink:title=" ">
<path fill="none" stroke="#63b8ff" d="M185.26,-56.34C194.13,-48.63 206.71,-37.7 217.25,-28.54"/>
<polygon fill="#63b8ff" stroke="#63b8ff" points="219.44,-31.27 224.69,-22.07 214.85,-25.99 219.44,-31.27"/>
</a>
</g>
</g>
<!-- Node5&#45;&gt;Node3 -->
<g id="edge6_Node000005_Node000003" class="edge">
<title>Node5&#45;&gt;Node3</title>
<g id="a_edge6_Node000005_Node000003"><a xlink:title=" ">
<path fill="none" stroke="#63b8ff" d="M289.56,-56.34C280.55,-48.63 267.77,-37.7 257.07,-28.54"/>
<polygon fill="#63b8ff" stroke="#63b8ff" points="259.37,-25.9 249.49,-22.06 254.82,-31.22 259.37,-25.9"/>
</a>
</g>
</g>
<!-- Node6&#45;&gt;Node3 -->
<g id="edge8_Node000006_Node000003" class="edge">
<title>Node6&#45;&gt;Node3</title>
<g id="a_edge8_Node000006_Node000003"><a xlink:title=" ">
<path fill="none" stroke="#63b8ff" d="M396.32,-56.34C364.55,-47.37 317.33,-34.04 282.53,-24.23"/>
<polygon fill="#63b8ff" stroke="#63b8ff" points="283.74,-20.93 273.17,-21.58 281.84,-27.67 283.74,-20.93"/>
</a>
</g>
</g>
</g>
</svg>
</svg>

<style type='text/css'>
<![CDATA[
[data-mouse-over-selected='false'] { opacity: 0.7; }
[data-mouse-over-selected='true']  { opacity: 1.0; }
]]>
</style>
<script type="application/ecmascript"><![CDATA[
document.addEventListener('DOMContentLoaded', (event) => {
  highlightEdges();
  highlightAdjacentNodes();
});
]]></script>
</svg>
