<?xml version="1.0" encoding="UTF-8" standalone="no"?>
<!DOCTYPE svg PUBLIC "-//W3C//DTD SVG 1.1//EN"
 "http://www.w3.org/Graphics/SVG/1.1/DTD/svg11.dtd">
<!-- Generated by graphviz version 12.2.1 (20241206.2353)
 -->
<!-- Title: hal&#45;driver/Inc/stm32f4xx_ll_usb.h Pages: 1 -->
<svg width="282pt" height="181pt"
 viewBox="0.00 0.00 281.75 180.50" xmlns="http://www.w3.org/2000/svg" xmlns:xlink="http://www.w3.org/1999/xlink">
<g id="page0,1_graph0" class="graph" transform="scale(1 1) rotate(0) translate(4 176.5)">
<title>hal&#45;driver/Inc/stm32f4xx_ll_usb.h</title>
<!-- Node1 -->
<g id="Node000001" class="node">
<title>Node1</title>
<g id="a_Node000001"><a xlink:title="Header file of USB Low Layer HAL module.">
<polygon fill="#999999" stroke="#666666" points="200.75,-172.5 73,-172.5 73,-139 200.75,-139 200.75,-172.5"/>
<text text-anchor="start" x="81" y="-159" font-family="Helvetica,sans-Serif" font-size="10.00">hal&#45;driver/Inc/stm32f4xx</text>
<text text-anchor="middle" x="136.88" y="-146.25" font-family="Helvetica,sans-Serif" font-size="10.00">_ll_usb.h</text>
</a>
</g>
</g>
<!-- Node2 -->
<g id="Node000002" class="node">
<title>Node2</title>
<g id="a_Node000002"><a xlink:href="stm32f4xx__hal__hcd_8h.html" target="_top" xlink:title="Header file of HCD HAL module.">
<polygon fill="white" stroke="#666666" points="127.75,-103 0,-103 0,-69.5 127.75,-69.5 127.75,-103"/>
<text text-anchor="start" x="8" y="-89.5" font-family="Helvetica,sans-Serif" font-size="10.00">hal&#45;driver/Inc/stm32f4xx</text>
<text text-anchor="middle" x="63.88" y="-76.75" font-family="Helvetica,sans-Serif" font-size="10.00">_hal_hcd.h</text>
</a>
</g>
</g>
<!-- Node1&#45;&gt;Node2 -->
<g id="edge1_Node000001_Node000002" class="edge">
<title>Node1&#45;&gt;Node2</title>
<g id="a_edge1_Node000001_Node000002"><a xlink:title=" ">
<path fill="none" stroke="#63b8ff" d="M111.25,-131.06C101.35,-121.9 90.26,-111.65 81.3,-103.37"/>
<polygon fill="#63b8ff" stroke="#63b8ff" points="108.75,-133.51 118.46,-137.73 113.5,-128.37 108.75,-133.51"/>
</a>
</g>
</g>
<!-- Node4 -->
<g id="Node000004" class="node">
<title>Node4</title>
<g id="a_Node000004"><a xlink:href="stm32f4xx__hal__pcd_8h.html" target="_top" xlink:title="Header file of PCD HAL module.">
<polygon fill="white" stroke="#666666" points="273.75,-103 146,-103 146,-69.5 273.75,-69.5 273.75,-103"/>
<text text-anchor="start" x="154" y="-89.5" font-family="Helvetica,sans-Serif" font-size="10.00">hal&#45;driver/Inc/stm32f4xx</text>
<text text-anchor="middle" x="209.88" y="-76.75" font-family="Helvetica,sans-Serif" font-size="10.00">_hal_pcd.h</text>
</a>
</g>
</g>
<!-- Node1&#45;&gt;Node4 -->
<g id="edge3_Node000001_Node000004" class="edge">
<title>Node1&#45;&gt;Node4</title>
<g id="a_edge3_Node000001_Node000004"><a xlink:title=" ">
<path fill="none" stroke="#63b8ff" d="M162.5,-131.06C172.4,-121.9 183.49,-111.65 192.45,-103.37"/>
<polygon fill="#63b8ff" stroke="#63b8ff" points="160.25,-128.37 155.29,-137.73 165,-133.51 160.25,-128.37"/>
</a>
</g>
</g>
<!-- Node3 -->
<g id="Node000003" class="node">
<title>Node3</title>
<g id="a_Node000003"><a xlink:href="stm32f4xx__hal__conf__template_8h.html" target="_top" xlink:title="HAL configuration template file. This file should be copied to the application folder and renamed to ...">
<polygon fill="white" stroke="#666666" points="200.75,-33.5 73,-33.5 73,0 200.75,0 200.75,-33.5"/>
<text text-anchor="start" x="81" y="-20" font-family="Helvetica,sans-Serif" font-size="10.00">hal&#45;driver/Inc/stm32f4xx</text>
<text text-anchor="middle" x="136.88" y="-7.25" font-family="Helvetica,sans-Serif" font-size="10.00">_hal_conf_template.h</text>
</a>
</g>
</g>
<!-- Node2&#45;&gt;Node3 -->
<g id="edge2_Node000002_Node000003" class="edge">
<title>Node2&#45;&gt;Node3</title>
<g id="a_edge2_Node000002_Node000003"><a xlink:title=" ">
<path fill="none" stroke="#63b8ff" d="M89.5,-61.56C99.4,-52.4 110.49,-42.15 119.45,-33.87"/>
<polygon fill="#63b8ff" stroke="#63b8ff" points="87.25,-58.87 82.29,-68.23 92,-64.01 87.25,-58.87"/>
</a>
</g>
</g>
<!-- Node4&#45;&gt;Node3 -->
<g id="edge4_Node000004_Node000003" class="edge">
<title>Node4&#45;&gt;Node3</title>
<g id="a_edge4_Node000004_Node000003"><a xlink:title=" ">
<path fill="none" stroke="#63b8ff" d="M184.25,-61.56C174.35,-52.4 163.26,-42.15 154.3,-33.87"/>
<polygon fill="#63b8ff" stroke="#63b8ff" points="181.75,-64.01 191.46,-68.23 186.5,-58.87 181.75,-64.01"/>
</a>
</g>
</g>
</g>
</svg>
