<?xml version="1.0" encoding="UTF-8" standalone="no"?>
<!DOCTYPE svg PUBLIC "-//W3C//DTD SVG 1.1//EN"
 "http://www.w3.org/Graphics/SVG/1.1/DTD/svg11.dtd">
<!-- Generated by graphviz version 2.43.0 (0)
 -->
<!-- Title: __UART_HandleTypeDef Pages: 1 -->
<svg width="260pt" height="186pt"
 viewBox="0.00 0.00 260.00 186.00" xmlns="http://www.w3.org/2000/svg" xmlns:xlink="http://www.w3.org/1999/xlink">
<g id="graph0" class="graph" transform="scale(1 1) rotate(0) translate(4 182)">
<title>__UART_HandleTypeDef</title>
<!-- Node1 -->
<g id="Node000001" class="node">
<title>Node1</title>
<g id="a_Node000001"><a xlink:title="UART handle Structure definition.">
<polygon fill="#999999" stroke="#666666" points="163.5,-19 30.5,-19 30.5,0 163.5,0 163.5,-19"/>
<text text-anchor="middle" x="97" y="-7" font-family="Helvetica,sans-Serif" font-size="10.00">__UART_HandleTypeDef</text>
</a>
</g>
</g>
<!-- Node2 -->
<g id="Node000002" class="node">
<title>Node2</title>
<g id="a_Node000002"><a xlink:href="structUART__InitTypeDef.html" target="_top" xlink:title="UART Init Structure definition.">
<polygon fill="white" stroke="#666666" points="104,-106 0,-106 0,-87 104,-87 104,-106"/>
<text text-anchor="middle" x="52" y="-94" font-family="Helvetica,sans-Serif" font-size="10.00">UART_InitTypeDef</text>
</a>
</g>
</g>
<!-- Node2&#45;&gt;Node1 -->
<g id="edge1_Node000001_Node000002" class="edge">
<title>Node2&#45;&gt;Node1</title>
<g id="a_edge1_Node000001_Node000002"><a xlink:title=" ">
<path fill="none" stroke="#9a32cd" stroke-dasharray="5,2" d="M61.33,-77.88C70.78,-60.03 85.01,-33.15 92.31,-19.36"/>
<polygon fill="#9a32cd" stroke="#9a32cd" points="58.23,-76.25 56.65,-86.72 64.42,-79.52 58.23,-76.25"/>
</a>
</g>
<text text-anchor="start" x="85" y="-50" font-family="Helvetica,sans-Serif" font-size="10.00" fill="grey">Init</text>
</g>
<!-- Node3 -->
<g id="Node000003" class="node">
<title>Node3</title>
<g id="a_Node000003"><a xlink:href="struct____DMA__HandleTypeDef.html" target="_top" xlink:title="DMA handle Structure definition.">
<polygon fill="white" stroke="#666666" points="252,-106 122,-106 122,-87 252,-87 252,-106"/>
<text text-anchor="middle" x="187" y="-94" font-family="Helvetica,sans-Serif" font-size="10.00">__DMA_HandleTypeDef</text>
</a>
</g>
</g>
<!-- Node3&#45;&gt;Node1 -->
<g id="edge2_Node000001_Node000003" class="edge">
<title>Node3&#45;&gt;Node1</title>
<g id="a_edge2_Node000001_Node000003"><a xlink:title=" ">
<path fill="none" stroke="#9a32cd" stroke-dasharray="5,2" d="M170.36,-79.78C151.41,-61.89 121.15,-33.31 106.11,-19.1"/>
<polygon fill="#9a32cd" stroke="#9a32cd" points="168.03,-82.4 177.71,-86.72 172.84,-77.31 168.03,-82.4"/>
</a>
</g>
<text text-anchor="start" x="160" y="-58" font-family="Helvetica,sans-Serif" font-size="10.00" fill="grey">hdmarx</text>
<text text-anchor="start" x="160" y="-43" font-family="Helvetica,sans-Serif" font-size="10.00" fill="grey">hdmatx</text>
</g>
<!-- Node4 -->
<g id="Node000004" class="node">
<title>Node4</title>
<g id="a_Node000004"><a xlink:href="structDMA__InitTypeDef.html" target="_top" xlink:title="DMA Configuration Structure definition.">
<polygon fill="white" stroke="#666666" points="237.5,-178 136.5,-178 136.5,-159 237.5,-159 237.5,-178"/>
<text text-anchor="middle" x="187" y="-166" font-family="Helvetica,sans-Serif" font-size="10.00">DMA_InitTypeDef</text>
</a>
</g>
</g>
<!-- Node4&#45;&gt;Node3 -->
<g id="edge3_Node000003_Node000004" class="edge">
<title>Node4&#45;&gt;Node3</title>
<g id="a_edge3_Node000003_Node000004"><a xlink:title=" ">
<path fill="none" stroke="#9a32cd" stroke-dasharray="5,2" d="M187,-148.58C187,-134.76 187,-116.68 187,-106.15"/>
<polygon fill="#9a32cd" stroke="#9a32cd" points="183.5,-148.92 187,-158.92 190.5,-148.92 183.5,-148.92"/>
</a>
</g>
<text text-anchor="start" x="190" y="-129.5" font-family="Helvetica,sans-Serif" font-size="10.00" fill="grey">Init</text>
</g>
</g>
</svg>
