<?xml version="1.0" encoding="UTF-8" standalone="no"?>
<!DOCTYPE svg PUBLIC "-//W3C//DTD SVG 1.1//EN"
 "http://www.w3.org/Graphics/SVG/1.1/DTD/svg11.dtd">
<!-- Generated by graphviz version 2.43.0 (0)
 -->
<!-- Title: I2C_HandleTypeDef Pages: 1 -->
<svg width="250pt" height="186pt"
 viewBox="0.00 0.00 249.50 186.00" xmlns="http://www.w3.org/2000/svg" xmlns:xlink="http://www.w3.org/1999/xlink">
<g id="graph0" class="graph" transform="scale(1 1) rotate(0) translate(4 182)">
<title>I2C_HandleTypeDef</title>
<!-- Node1 -->
<g id="Node000001" class="node">
<title>Node1</title>
<g id="a_Node000001"><a xlink:title=" ">
<polygon fill="#999999" stroke="#666666" points="124.5,-19 12.5,-19 12.5,0 124.5,0 124.5,-19"/>
<text text-anchor="middle" x="68.5" y="-7" font-family="Helvetica,sans-Serif" font-size="10.00">I2C_HandleTypeDef</text>
</a>
</g>
</g>
<!-- Node2 -->
<g id="Node000002" class="node">
<title>Node2</title>
<g id="a_Node000002"><a xlink:href="structI2C__InitTypeDef.html" target="_top" xlink:title=" ">
<polygon fill="white" stroke="#666666" points="93,-106 0,-106 0,-87 93,-87 93,-106"/>
<text text-anchor="middle" x="46.5" y="-94" font-family="Helvetica,sans-Serif" font-size="10.00">I2C_InitTypeDef</text>
</a>
</g>
</g>
<!-- Node2&#45;&gt;Node1 -->
<g id="edge1_Node000001_Node000002" class="edge">
<title>Node2&#45;&gt;Node1</title>
<g id="a_edge1_Node000001_Node000002"><a xlink:title=" ">
<path fill="none" stroke="#9a32cd" stroke-dasharray="5,2" d="M51.32,-76.88C55.94,-59.04 62.7,-32.89 66.21,-19.36"/>
<polygon fill="#9a32cd" stroke="#9a32cd" points="47.89,-76.17 48.77,-86.72 54.67,-77.92 47.89,-76.17"/>
</a>
</g>
<text text-anchor="start" x="64.5" y="-50" font-family="Helvetica,sans-Serif" font-size="10.00" fill="grey">Init</text>
</g>
<!-- Node3 -->
<g id="Node000003" class="node">
<title>Node3</title>
<g id="a_Node000003"><a xlink:href="struct____DMA__HandleTypeDef.html" target="_top" xlink:title="DMA handle Structure definition.">
<polygon fill="white" stroke="#666666" points="241.5,-106 111.5,-106 111.5,-87 241.5,-87 241.5,-106"/>
<text text-anchor="middle" x="176.5" y="-94" font-family="Helvetica,sans-Serif" font-size="10.00">__DMA_HandleTypeDef</text>
</a>
</g>
</g>
<!-- Node3&#45;&gt;Node1 -->
<g id="edge2_Node000001_Node000003" class="edge">
<title>Node3&#45;&gt;Node1</title>
<g id="a_edge2_Node000001_Node000003"><a xlink:title=" ">
<path fill="none" stroke="#9a32cd" stroke-dasharray="5,2" d="M157.44,-80.5C134.77,-62.66 97.73,-33.5 79.43,-19.1"/>
<polygon fill="#9a32cd" stroke="#9a32cd" points="155.33,-83.29 165.35,-86.72 159.66,-77.79 155.33,-83.29"/>
</a>
</g>
<text text-anchor="start" x="144.5" y="-58" font-family="Helvetica,sans-Serif" font-size="10.00" fill="grey">hdmarx</text>
<text text-anchor="start" x="144.5" y="-43" font-family="Helvetica,sans-Serif" font-size="10.00" fill="grey">hdmatx</text>
</g>
<!-- Node4 -->
<g id="Node000004" class="node">
<title>Node4</title>
<g id="a_Node000004"><a xlink:href="structDMA__InitTypeDef.html" target="_top" xlink:title="DMA Configuration Structure definition.">
<polygon fill="white" stroke="#666666" points="227,-178 126,-178 126,-159 227,-159 227,-178"/>
<text text-anchor="middle" x="176.5" y="-166" font-family="Helvetica,sans-Serif" font-size="10.00">DMA_InitTypeDef</text>
</a>
</g>
</g>
<!-- Node4&#45;&gt;Node3 -->
<g id="edge3_Node000003_Node000004" class="edge">
<title>Node4&#45;&gt;Node3</title>
<g id="a_edge3_Node000003_Node000004"><a xlink:title=" ">
<path fill="none" stroke="#9a32cd" stroke-dasharray="5,2" d="M176.5,-148.58C176.5,-134.76 176.5,-116.68 176.5,-106.15"/>
<polygon fill="#9a32cd" stroke="#9a32cd" points="173,-148.92 176.5,-158.92 180,-148.92 173,-148.92"/>
</a>
</g>
<text text-anchor="start" x="179.5" y="-129.5" font-family="Helvetica,sans-Serif" font-size="10.00" fill="grey">Init</text>
</g>
</g>
</svg>
