<?xml version="1.0" encoding="UTF-8" standalone="no"?>
<!DOCTYPE svg PUBLIC "-//W3C//DTD SVG 1.1//EN"
 "http://www.w3.org/Graphics/SVG/1.1/DTD/svg11.dtd">
<!-- Generated by graphviz version 2.43.0 (0)
 -->
<!-- Title: __USART_HandleTypeDef Pages: 1 -->
<svg width="266pt" height="186pt"
 viewBox="0.00 0.00 266.00 186.00" xmlns="http://www.w3.org/2000/svg" xmlns:xlink="http://www.w3.org/1999/xlink">
<g id="graph0" class="graph" transform="scale(1 1) rotate(0) translate(4 182)">
<title>__USART_HandleTypeDef</title>
<!-- Node1 -->
<g id="Node000001" class="node">
<title>Node1</title>
<g id="a_Node000001"><a xlink:title="USART handle Structure definition.">
<polygon fill="#999999" stroke="#666666" points="170,-19 30,-19 30,0 170,0 170,-19"/>
<text text-anchor="middle" x="100" y="-7" font-family="Helvetica,sans-Serif" font-size="10.00">__USART_HandleTypeDef</text>
</a>
</g>
</g>
<!-- Node2 -->
<g id="Node000002" class="node">
<title>Node2</title>
<g id="a_Node000002"><a xlink:href="structUSART__InitTypeDef.html" target="_top" xlink:title="USART Init Structure definition.">
<polygon fill="white" stroke="#666666" points="110,-106 0,-106 0,-87 110,-87 110,-106"/>
<text text-anchor="middle" x="55" y="-94" font-family="Helvetica,sans-Serif" font-size="10.00">USART_InitTypeDef</text>
</a>
</g>
</g>
<!-- Node2&#45;&gt;Node1 -->
<g id="edge1_Node000001_Node000002" class="edge">
<title>Node2&#45;&gt;Node1</title>
<g id="a_edge1_Node000001_Node000002"><a xlink:title=" ">
<path fill="none" stroke="#9a32cd" stroke-dasharray="5,2" d="M64.33,-77.88C73.78,-60.03 88.01,-33.15 95.31,-19.36"/>
<polygon fill="#9a32cd" stroke="#9a32cd" points="61.23,-76.25 59.65,-86.72 67.42,-79.52 61.23,-76.25"/>
</a>
</g>
<text text-anchor="start" x="88" y="-50" font-family="Helvetica,sans-Serif" font-size="10.00" fill="grey">Init</text>
</g>
<!-- Node3 -->
<g id="Node000003" class="node">
<title>Node3</title>
<g id="a_Node000003"><a xlink:href="struct____DMA__HandleTypeDef.html" target="_top" xlink:title="DMA handle Structure definition.">
<polygon fill="white" stroke="#666666" points="258,-106 128,-106 128,-87 258,-87 258,-106"/>
<text text-anchor="middle" x="193" y="-94" font-family="Helvetica,sans-Serif" font-size="10.00">__DMA_HandleTypeDef</text>
</a>
</g>
</g>
<!-- Node3&#45;&gt;Node1 -->
<g id="edge2_Node000001_Node000003" class="edge">
<title>Node3&#45;&gt;Node1</title>
<g id="a_edge2_Node000001_Node000003"><a xlink:title=" ">
<path fill="none" stroke="#9a32cd" stroke-dasharray="5,2" d="M175.8,-79.78C156.23,-61.89 124.96,-33.31 109.41,-19.1"/>
<polygon fill="#9a32cd" stroke="#9a32cd" points="173.65,-82.56 183.4,-86.72 178.38,-77.39 173.65,-82.56"/>
</a>
</g>
<text text-anchor="start" x="165" y="-58" font-family="Helvetica,sans-Serif" font-size="10.00" fill="grey">hdmarx</text>
<text text-anchor="start" x="165" y="-43" font-family="Helvetica,sans-Serif" font-size="10.00" fill="grey">hdmatx</text>
</g>
<!-- Node4 -->
<g id="Node000004" class="node">
<title>Node4</title>
<g id="a_Node000004"><a xlink:href="structDMA__InitTypeDef.html" target="_top" xlink:title="DMA Configuration Structure definition.">
<polygon fill="white" stroke="#666666" points="243.5,-178 142.5,-178 142.5,-159 243.5,-159 243.5,-178"/>
<text text-anchor="middle" x="193" y="-166" font-family="Helvetica,sans-Serif" font-size="10.00">DMA_InitTypeDef</text>
</a>
</g>
</g>
<!-- Node4&#45;&gt;Node3 -->
<g id="edge3_Node000003_Node000004" class="edge">
<title>Node4&#45;&gt;Node3</title>
<g id="a_edge3_Node000003_Node000004"><a xlink:title=" ">
<path fill="none" stroke="#9a32cd" stroke-dasharray="5,2" d="M193,-148.58C193,-134.76 193,-116.68 193,-106.15"/>
<polygon fill="#9a32cd" stroke="#9a32cd" points="189.5,-148.92 193,-158.92 196.5,-148.92 189.5,-148.92"/>
</a>
</g>
<text text-anchor="start" x="196" y="-129.5" font-family="Helvetica,sans-Serif" font-size="10.00" fill="grey">Init</text>
</g>
</g>
</svg>
