<?xml version="1.0" encoding="UTF-8" standalone="no"?>
<!DOCTYPE svg PUBLIC "-//W3C//DTD SVG 1.1//EN"
 "http://www.w3.org/Graphics/SVG/1.1/DTD/svg11.dtd">
<!-- Generated by graphviz version 12.2.1 (20241206.2353)
 -->
<!-- Title: __USART_HandleTypeDef Pages: 1 -->
<svg width="254pt" height="197pt"
 viewBox="0.00 0.00 253.50 196.50" xmlns="http://www.w3.org/2000/svg" xmlns:xlink="http://www.w3.org/1999/xlink">
<g id="page0,1_graph0" class="graph" transform="scale(1 1) rotate(0) translate(4 192.5)">
<title>__USART_HandleTypeDef</title>
<!-- Node1 -->
<g id="Node000001" class="node">
<title>Node1</title>
<g id="a_Node000001"><a xlink:title="USART handle Structure definition.">
<polygon fill="#999999" stroke="#666666" points="140,-20.75 7.75,-20.75 7.75,0 140,0 140,-20.75"/>
<text text-anchor="middle" x="73.88" y="-7.25" font-family="Helvetica,sans-Serif" font-size="10.00">__USART_HandleTypeDef</text>
</a>
</g>
</g>
<!-- Node2 -->
<g id="Node000002" class="node">
<title>Node2</title>
<g id="a_Node000002"><a xlink:href="structUSART__InitTypeDef.html" target="_top" xlink:title="USART Init Structure definition.">
<polygon fill="white" stroke="#666666" points="103.75,-113 0,-113 0,-92.25 103.75,-92.25 103.75,-113"/>
<text text-anchor="middle" x="51.88" y="-99.5" font-family="Helvetica,sans-Serif" font-size="10.00">USART_InitTypeDef</text>
</a>
</g>
</g>
<!-- Node2&#45;&gt;Node1 -->
<g id="edge1_Node000001_Node000002" class="edge">
<title>Node2&#45;&gt;Node1</title>
<g id="a_edge1_Node000001_Node000002"><a xlink:title=" ">
<path fill="none" stroke="#9a32cd" stroke-dasharray="5,2" d="M56.96,-80.79C61.51,-62.09 68,-35.46 71.47,-21.24"/>
<polygon fill="#9a32cd" stroke="#9a32cd" points="53.56,-79.95 54.59,-90.5 60.36,-81.61 53.56,-79.95"/>
</a>
</g>
<text text-anchor="start" x="69.76" y="-53.38" font-family="Helvetica,sans-Serif" font-size="10.00" fill="grey">Init</text>
</g>
<!-- Node3 -->
<g id="Node000003" class="node">
<title>Node3</title>
<g id="a_Node000003"><a xlink:href="struct____DMA__HandleTypeDef.html" target="_top" xlink:title="DMA handle Structure definition.">
<polygon fill="white" stroke="#666666" points="245.5,-113 122.25,-113 122.25,-92.25 245.5,-92.25 245.5,-113"/>
<text text-anchor="middle" x="183.88" y="-99.5" font-family="Helvetica,sans-Serif" font-size="10.00">__DMA_HandleTypeDef</text>
</a>
</g>
</g>
<!-- Node3&#45;&gt;Node1 -->
<g id="edge2_Node000001_Node000003" class="edge">
<title>Node3&#45;&gt;Node1</title>
<g id="a_edge2_Node000001_Node000003"><a xlink:title=" ">
<path fill="none" stroke="#9a32cd" stroke-dasharray="5,2" d="M163.22,-84.68C140.42,-65.97 104.48,-36.49 85.9,-21.24"/>
<polygon fill="#9a32cd" stroke="#9a32cd" points="160.98,-87.37 170.93,-91.01 165.42,-81.96 160.98,-87.37"/>
</a>
</g>
<text text-anchor="start" x="151.29" y="-61.75" font-family="Helvetica,sans-Serif" font-size="10.00" fill="grey">hdmarx</text>
<text text-anchor="start" x="151.29" y="-45" font-family="Helvetica,sans-Serif" font-size="10.00" fill="grey">hdmatx</text>
</g>
<!-- Node4 -->
<g id="Node000004" class="node">
<title>Node4</title>
<g id="a_Node000004"><a xlink:href="structDMA__InitTypeDef.html" target="_top" xlink:title="DMA Configuration Structure definition.">
<polygon fill="white" stroke="#666666" points="231.25,-188.5 136.5,-188.5 136.5,-167.75 231.25,-167.75 231.25,-188.5"/>
<text text-anchor="middle" x="183.88" y="-175" font-family="Helvetica,sans-Serif" font-size="10.00">DMA_InitTypeDef</text>
</a>
</g>
</g>
<!-- Node4&#45;&gt;Node3 -->
<g id="edge3_Node000003_Node000004" class="edge">
<title>Node4&#45;&gt;Node3</title>
<g id="a_edge3_Node000003_Node000004"><a xlink:title=" ">
<path fill="none" stroke="#9a32cd" stroke-dasharray="5,2" d="M183.88,-156.01C183.88,-142.01 183.88,-124.3 183.88,-113.47"/>
<polygon fill="#9a32cd" stroke="#9a32cd" points="180.38,-156 183.88,-166 187.38,-156 180.38,-156"/>
</a>
</g>
<text text-anchor="start" x="186.88" y="-137.25" font-family="Helvetica,sans-Serif" font-size="10.00" fill="grey">Init</text>
</g>
</g>
</svg>
