<?xml version="1.0" encoding="UTF-8" standalone="no"?>
<!DOCTYPE svg PUBLIC "-//W3C//DTD SVG 1.1//EN"
 "http://www.w3.org/Graphics/SVG/1.1/DTD/svg11.dtd">
<!-- Generated by graphviz version 2.43.0 (0)
 -->
<!-- Title: __USART_HandleTypeDef Pages: 1 -->
<svg width="266pt" height="170pt"
 viewBox="0.00 0.00 266.00 170.00" xmlns="http://www.w3.org/2000/svg" xmlns:xlink="http://www.w3.org/1999/xlink">
<g id="graph0" class="graph" transform="scale(1 1) rotate(0) translate(4 166)">
<title>__USART_HandleTypeDef</title>
<!-- Node1 -->
<g id="Node000001" class="node">
<title>Node1</title>
<g id="a_Node000001"><a xlink:title="USART handle Structure definition.">
<polygon fill="#999999" stroke="#666666" points="170,-19 30,-19 30,0 170,0 170,-19"/>
<text text-anchor="middle" x="100" y="-7" font-family="Helvetica,sans-Serif" font-size="10.00">__USART_HandleTypeDef</text>
</a>
</g>
</g>
<!-- Node2 -->
<g id="Node000002" class="node">
<title>Node2</title>
<g id="a_Node000002"><a xlink:href="structUSART__InitTypeDef.html" target="_top" xlink:title="USART Init Structure definition.">
<polygon fill="white" stroke="#666666" points="110,-96 0,-96 0,-77 110,-77 110,-96"/>
<text text-anchor="middle" x="55" y="-84" font-family="Helvetica,sans-Serif" font-size="10.00">USART_InitTypeDef</text>
</a>
</g>
</g>
<!-- Node2&#45;&gt;Node1 -->
<g id="edge1_Node000001_Node000002" class="edge">
<title>Node2&#45;&gt;Node1</title>
<g id="a_edge1_Node000001_Node000002"><a xlink:title=" ">
<path fill="none" stroke="#9a32cd" stroke-dasharray="5,2" d="M65.32,-68.29C74.57,-52.88 87.74,-30.93 94.9,-19"/>
<polygon fill="#9a32cd" stroke="#9a32cd" points="62.31,-66.52 60.16,-76.9 68.31,-70.12 62.31,-66.52"/>
</a>
</g>
<text text-anchor="middle" x="91.5" y="-45.5" font-family="Helvetica,sans-Serif" font-size="10.00" fill="grey"> Init</text>
</g>
<!-- Node3 -->
<g id="Node000003" class="node">
<title>Node3</title>
<g id="a_Node000003"><a xlink:href="struct____DMA__HandleTypeDef.html" target="_top" xlink:title="DMA handle Structure definition.">
<polygon fill="white" stroke="#666666" points="258,-96 128,-96 128,-77 258,-77 258,-96"/>
<text text-anchor="middle" x="193" y="-84" font-family="Helvetica,sans-Serif" font-size="10.00">__DMA_HandleTypeDef</text>
</a>
</g>
</g>
<!-- Node3&#45;&gt;Node1 -->
<g id="edge2_Node000001_Node000003" class="edge">
<title>Node3&#45;&gt;Node1</title>
<g id="a_edge2_Node000001_Node000003"><a xlink:title=" ">
<path fill="none" stroke="#9a32cd" stroke-dasharray="5,2" d="M174.31,-70.43C155.15,-54.98 126.03,-31.49 110.54,-19"/>
<polygon fill="#9a32cd" stroke="#9a32cd" points="172.35,-73.34 182.33,-76.9 176.74,-67.89 172.35,-73.34"/>
</a>
</g>
<text text-anchor="middle" x="177.5" y="-51" font-family="Helvetica,sans-Serif" font-size="10.00" fill="grey"> hdmarx</text>
<text text-anchor="middle" x="177.5" y="-40" font-family="Helvetica,sans-Serif" font-size="10.00" fill="grey">hdmatx</text>
</g>
<!-- Node4 -->
<g id="Node000004" class="node">
<title>Node4</title>
<g id="a_Node000004"><a xlink:href="structDMA__InitTypeDef.html" target="_top" xlink:title="DMA Configuration Structure definition.">
<polygon fill="white" stroke="#666666" points="243.5,-162 142.5,-162 142.5,-143 243.5,-143 243.5,-162"/>
<text text-anchor="middle" x="193" y="-150" font-family="Helvetica,sans-Serif" font-size="10.00">DMA_InitTypeDef</text>
</a>
</g>
</g>
<!-- Node4&#45;&gt;Node3 -->
<g id="edge3_Node000003_Node000004" class="edge">
<title>Node4&#45;&gt;Node3</title>
<g id="a_edge3_Node000003_Node000004"><a xlink:title=" ">
<path fill="none" stroke="#9a32cd" stroke-dasharray="5,2" d="M193,-132.58C193,-120.63 193,-105.72 193,-96.41"/>
<polygon fill="#9a32cd" stroke="#9a32cd" points="189.5,-132.87 193,-142.87 196.5,-132.87 189.5,-132.87"/>
</a>
</g>
<text text-anchor="middle" x="202.5" y="-117" font-family="Helvetica,sans-Serif" font-size="10.00" fill="grey"> Init</text>
</g>
</g>
</svg>
