<?xml version="1.0" encoding="UTF-8" standalone="no"?>
<!DOCTYPE svg PUBLIC "-//W3C//DTD SVG 1.1//EN"
 "http://www.w3.org/Graphics/SVG/1.1/DTD/svg11.dtd">
<!-- Generated by graphviz version 2.43.0 (0)
 -->
<!-- Title: I2C_HandleTypeDef Pages: 1 -->
<svg width="250pt" height="170pt"
 viewBox="0.00 0.00 249.50 170.00" xmlns="http://www.w3.org/2000/svg" xmlns:xlink="http://www.w3.org/1999/xlink">
<g id="graph0" class="graph" transform="scale(1 1) rotate(0) translate(4 166)">
<title>I2C_HandleTypeDef</title>
<!-- Node1 -->
<g id="Node000001" class="node">
<title>Node1</title>
<g id="a_Node000001"><a xlink:title=" ">
<polygon fill="#999999" stroke="#666666" points="123.5,-19 11.5,-19 11.5,0 123.5,0 123.5,-19"/>
<text text-anchor="middle" x="67.5" y="-7" font-family="Helvetica,sans-Serif" font-size="10.00">I2C_HandleTypeDef</text>
</a>
</g>
</g>
<!-- Node2 -->
<g id="Node000002" class="node">
<title>Node2</title>
<g id="a_Node000002"><a xlink:href="structI2C__InitTypeDef.html" target="_top" xlink:title=" ">
<polygon fill="white" stroke="#666666" points="93,-96 0,-96 0,-77 93,-77 93,-96"/>
<text text-anchor="middle" x="46.5" y="-84" font-family="Helvetica,sans-Serif" font-size="10.00">I2C_InitTypeDef</text>
</a>
</g>
</g>
<!-- Node2&#45;&gt;Node1 -->
<g id="edge1_Node000001_Node000002" class="edge">
<title>Node2&#45;&gt;Node1</title>
<g id="a_edge1_Node000001_Node000002"><a xlink:title=" ">
<path fill="none" stroke="#9a32cd" stroke-dasharray="5,2" d="M51.69,-66.97C55.98,-51.65 61.87,-30.59 65.12,-19"/>
<polygon fill="#9a32cd" stroke="#9a32cd" points="48.23,-66.32 48.91,-76.9 54.98,-68.21 48.23,-66.32"/>
</a>
</g>
<text text-anchor="middle" x="69" y="-45.5" font-family="Helvetica,sans-Serif" font-size="10.00" fill="grey"> Init</text>
</g>
<!-- Node3 -->
<g id="Node000003" class="node">
<title>Node3</title>
<g id="a_Node000003"><a xlink:href="struct____DMA__HandleTypeDef.html" target="_top" xlink:title="DMA handle Structure definition.">
<polygon fill="white" stroke="#666666" points="241.5,-96 111.5,-96 111.5,-77 241.5,-77 241.5,-96"/>
<text text-anchor="middle" x="176.5" y="-84" font-family="Helvetica,sans-Serif" font-size="10.00">__DMA_HandleTypeDef</text>
</a>
</g>
</g>
<!-- Node3&#45;&gt;Node1 -->
<g id="edge2_Node000001_Node000003" class="edge">
<title>Node3&#45;&gt;Node1</title>
<g id="a_edge2_Node000001_Node000003"><a xlink:title=" ">
<path fill="none" stroke="#9a32cd" stroke-dasharray="5,2" d="M155.5,-71.05C133.07,-55.61 98.25,-31.66 79.86,-19"/>
<polygon fill="#9a32cd" stroke="#9a32cd" points="153.77,-74.11 164,-76.9 157.74,-68.34 153.77,-74.11"/>
</a>
</g>
<text text-anchor="middle" x="155" y="-51" font-family="Helvetica,sans-Serif" font-size="10.00" fill="grey"> hdmarx</text>
<text text-anchor="middle" x="155" y="-40" font-family="Helvetica,sans-Serif" font-size="10.00" fill="grey">hdmatx</text>
</g>
<!-- Node4 -->
<g id="Node000004" class="node">
<title>Node4</title>
<g id="a_Node000004"><a xlink:href="structDMA__InitTypeDef.html" target="_top" xlink:title="DMA Configuration Structure definition.">
<polygon fill="white" stroke="#666666" points="227,-162 126,-162 126,-143 227,-143 227,-162"/>
<text text-anchor="middle" x="176.5" y="-150" font-family="Helvetica,sans-Serif" font-size="10.00">DMA_InitTypeDef</text>
</a>
</g>
</g>
<!-- Node4&#45;&gt;Node3 -->
<g id="edge3_Node000003_Node000004" class="edge">
<title>Node4&#45;&gt;Node3</title>
<g id="a_edge3_Node000003_Node000004"><a xlink:title=" ">
<path fill="none" stroke="#9a32cd" stroke-dasharray="5,2" d="M176.5,-132.58C176.5,-120.63 176.5,-105.72 176.5,-96.41"/>
<polygon fill="#9a32cd" stroke="#9a32cd" points="173,-132.87 176.5,-142.87 180,-132.87 173,-132.87"/>
</a>
</g>
<text text-anchor="middle" x="186" y="-117" font-family="Helvetica,sans-Serif" font-size="10.00" fill="grey"> Init</text>
</g>
</g>
</svg>
