<?xml version="1.0" encoding="UTF-8" standalone="no"?>
<!DOCTYPE svg PUBLIC "-//W3C//DTD SVG 1.1//EN"
 "http://www.w3.org/Graphics/SVG/1.1/DTD/svg11.dtd">
<!-- Generated by graphviz version 2.43.0 (0)
 -->
<!-- Title: IRDA_HandleTypeDef Pages: 1 -->
<svg width="258pt" height="170pt"
 viewBox="0.00 0.00 257.50 170.00" xmlns="http://www.w3.org/2000/svg" xmlns:xlink="http://www.w3.org/1999/xlink">
<g id="graph0" class="graph" transform="scale(1 1) rotate(0) translate(4 166)">
<title>IRDA_HandleTypeDef</title>
<!-- Node1 -->
<g id="Node000001" class="node">
<title>Node1</title>
<g id="a_Node000001"><a xlink:title="IRDA handle Structure definition.">
<polygon fill="#999999" stroke="#666666" points="131.5,-19 11.5,-19 11.5,0 131.5,0 131.5,-19"/>
<text text-anchor="middle" x="71.5" y="-7" font-family="Helvetica,sans-Serif" font-size="10.00">IRDA_HandleTypeDef</text>
</a>
</g>
</g>
<!-- Node2 -->
<g id="Node000002" class="node">
<title>Node2</title>
<g id="a_Node000002"><a xlink:href="structIRDA__InitTypeDef.html" target="_top" xlink:title="IRDA Init Structure definition.">
<polygon fill="white" stroke="#666666" points="101,-96 0,-96 0,-77 101,-77 101,-96"/>
<text text-anchor="middle" x="50.5" y="-84" font-family="Helvetica,sans-Serif" font-size="10.00">IRDA_InitTypeDef</text>
</a>
</g>
</g>
<!-- Node2&#45;&gt;Node1 -->
<g id="edge1_Node000001_Node000002" class="edge">
<title>Node2&#45;&gt;Node1</title>
<g id="a_edge1_Node000001_Node000002"><a xlink:title=" ">
<path fill="none" stroke="#9a32cd" stroke-dasharray="5,2" d="M55.69,-66.97C59.98,-51.65 65.87,-30.59 69.12,-19"/>
<polygon fill="#9a32cd" stroke="#9a32cd" points="52.23,-66.32 52.91,-76.9 58.98,-68.21 52.23,-66.32"/>
</a>
</g>
<text text-anchor="middle" x="73" y="-45.5" font-family="Helvetica,sans-Serif" font-size="10.00" fill="grey"> Init</text>
</g>
<!-- Node3 -->
<g id="Node000003" class="node">
<title>Node3</title>
<g id="a_Node000003"><a xlink:href="struct____DMA__HandleTypeDef.html" target="_top" xlink:title="DMA handle Structure definition.">
<polygon fill="white" stroke="#666666" points="249.5,-96 119.5,-96 119.5,-77 249.5,-77 249.5,-96"/>
<text text-anchor="middle" x="184.5" y="-84" font-family="Helvetica,sans-Serif" font-size="10.00">__DMA_HandleTypeDef</text>
</a>
</g>
</g>
<!-- Node3&#45;&gt;Node1 -->
<g id="edge2_Node000001_Node000003" class="edge">
<title>Node3&#45;&gt;Node1</title>
<g id="a_edge2_Node000001_Node000003"><a xlink:title=" ">
<path fill="none" stroke="#9a32cd" stroke-dasharray="5,2" d="M163.04,-71.26C139.79,-55.83 103.46,-31.72 84.31,-19"/>
<polygon fill="#9a32cd" stroke="#9a32cd" points="161.27,-74.28 171.54,-76.9 165.14,-68.45 161.27,-74.28"/>
</a>
</g>
<text text-anchor="middle" x="161" y="-51" font-family="Helvetica,sans-Serif" font-size="10.00" fill="grey"> hdmarx</text>
<text text-anchor="middle" x="161" y="-40" font-family="Helvetica,sans-Serif" font-size="10.00" fill="grey">hdmatx</text>
</g>
<!-- Node4 -->
<g id="Node000004" class="node">
<title>Node4</title>
<g id="a_Node000004"><a xlink:href="structDMA__InitTypeDef.html" target="_top" xlink:title="DMA Configuration Structure definition.">
<polygon fill="white" stroke="#666666" points="235,-162 134,-162 134,-143 235,-143 235,-162"/>
<text text-anchor="middle" x="184.5" y="-150" font-family="Helvetica,sans-Serif" font-size="10.00">DMA_InitTypeDef</text>
</a>
</g>
</g>
<!-- Node4&#45;&gt;Node3 -->
<g id="edge3_Node000003_Node000004" class="edge">
<title>Node4&#45;&gt;Node3</title>
<g id="a_edge3_Node000003_Node000004"><a xlink:title=" ">
<path fill="none" stroke="#9a32cd" stroke-dasharray="5,2" d="M184.5,-132.58C184.5,-120.63 184.5,-105.72 184.5,-96.41"/>
<polygon fill="#9a32cd" stroke="#9a32cd" points="181,-132.87 184.5,-142.87 188,-132.87 181,-132.87"/>
</a>
</g>
<text text-anchor="middle" x="194" y="-117" font-family="Helvetica,sans-Serif" font-size="10.00" fill="grey"> Init</text>
</g>
</g>
</svg>
