<?xml version="1.0" encoding="UTF-8" standalone="no"?>
<!DOCTYPE svg PUBLIC "-//W3C//DTD SVG 1.1//EN"
 "http://www.w3.org/Graphics/SVG/1.1/DTD/svg11.dtd">
<!-- Generated by graphviz version 2.43.0 (0)
 -->
<!-- Title: ADC_HandleTypeDef Pages: 1 -->
<svg width="254pt" height="159pt"
 viewBox="0.00 0.00 254.00 159.00" xmlns="http://www.w3.org/2000/svg" xmlns:xlink="http://www.w3.org/1999/xlink">
<g id="graph0" class="graph" transform="scale(1 1) rotate(0) translate(4 155)">
<title>ADC_HandleTypeDef</title>
<!-- Node1 -->
<g id="Node000001" class="node">
<title>Node1</title>
<g id="a_Node000001"><a xlink:title="ADC handle Structure definition.">
<polygon fill="#999999" stroke="#666666" points="150.5,-19 33.5,-19 33.5,0 150.5,0 150.5,-19"/>
<text text-anchor="middle" x="92" y="-7" font-family="Helvetica,sans-Serif" font-size="10.00">ADC_HandleTypeDef</text>
</a>
</g>
</g>
<!-- Node2 -->
<g id="Node000002" class="node">
<title>Node2</title>
<g id="a_Node000002"><a xlink:href="structADC__InitTypeDef.html" target="_top" xlink:title="Structure definition of ADC and regular group initialization.">
<polygon fill="white" stroke="#666666" points="98,-85 0,-85 0,-66 98,-66 98,-85"/>
<text text-anchor="middle" x="49" y="-73" font-family="Helvetica,sans-Serif" font-size="10.00">ADC_InitTypeDef</text>
</a>
</g>
</g>
<!-- Node2&#45;&gt;Node1 -->
<g id="edge1_Node000001_Node000002" class="edge">
<title>Node2&#45;&gt;Node1</title>
<g id="a_edge1_Node000001_Node000002"><a xlink:title=" ">
<path fill="none" stroke="#9a32cd" stroke-dasharray="5,2" d="M60.48,-57.41C68.7,-45.18 79.44,-29.2 86.02,-19.41"/>
<polygon fill="#9a32cd" stroke="#9a32cd" points="57.47,-55.62 54.8,-65.87 63.28,-59.52 57.47,-55.62"/>
</a>
</g>
<text text-anchor="middle" x="82.5" y="-40" font-family="Helvetica,sans-Serif" font-size="10.00" fill="grey"> Init</text>
</g>
<!-- Node3 -->
<g id="Node000003" class="node">
<title>Node3</title>
<g id="a_Node000003"><a xlink:href="struct____DMA__HandleTypeDef.html" target="_top" xlink:title="DMA handle Structure definition.">
<polygon fill="white" stroke="#666666" points="246,-85 116,-85 116,-66 246,-66 246,-85"/>
<text text-anchor="middle" x="181" y="-73" font-family="Helvetica,sans-Serif" font-size="10.00">__DMA_HandleTypeDef</text>
</a>
</g>
</g>
<!-- Node3&#45;&gt;Node1 -->
<g id="edge2_Node000001_Node000003" class="edge">
<title>Node3&#45;&gt;Node1</title>
<g id="a_edge2_Node000001_Node000003"><a xlink:title=" ">
<path fill="none" stroke="#9a32cd" stroke-dasharray="5,2" d="M160.61,-59.83C143.15,-47.28 118.61,-29.63 104.1,-19.2"/>
<polygon fill="#9a32cd" stroke="#9a32cd" points="158.83,-62.87 169,-65.87 162.92,-57.19 158.83,-62.87"/>
</a>
</g>
<text text-anchor="middle" x="174.5" y="-40" font-family="Helvetica,sans-Serif" font-size="10.00" fill="grey"> DMA_Handle</text>
</g>
<!-- Node4 -->
<g id="Node000004" class="node">
<title>Node4</title>
<g id="a_Node000004"><a xlink:href="structDMA__InitTypeDef.html" target="_top" xlink:title="DMA Configuration Structure definition.">
<polygon fill="white" stroke="#666666" points="231.5,-151 130.5,-151 130.5,-132 231.5,-132 231.5,-151"/>
<text text-anchor="middle" x="181" y="-139" font-family="Helvetica,sans-Serif" font-size="10.00">DMA_InitTypeDef</text>
</a>
</g>
</g>
<!-- Node4&#45;&gt;Node3 -->
<g id="edge3_Node000003_Node000004" class="edge">
<title>Node4&#45;&gt;Node3</title>
<g id="a_edge3_Node000003_Node000004"><a xlink:title=" ">
<path fill="none" stroke="#9a32cd" stroke-dasharray="5,2" d="M181,-121.58C181,-109.63 181,-94.72 181,-85.41"/>
<polygon fill="#9a32cd" stroke="#9a32cd" points="177.5,-121.87 181,-131.87 184.5,-121.87 177.5,-121.87"/>
</a>
</g>
<text text-anchor="middle" x="190.5" y="-106" font-family="Helvetica,sans-Serif" font-size="10.00" fill="grey"> Init</text>
</g>
</g>
</svg>
