<?xml version="1.0" encoding="UTF-8" standalone="no"?>
<!DOCTYPE svg PUBLIC "-//W3C//DTD SVG 1.1//EN"
 "http://www.w3.org/Graphics/SVG/1.1/DTD/svg11.dtd">
<!-- Generated by graphviz version 12.2.1 (20241206.2353)
 -->
<!-- Title: __SPI_HandleTypeDef Pages: 1 -->
<svg width="238pt" height="197pt"
 viewBox="0.00 0.00 237.62 196.50" xmlns="http://www.w3.org/2000/svg" xmlns:xlink="http://www.w3.org/1999/xlink">
<g id="page0,1_graph0" class="graph" transform="scale(1 1) rotate(0) translate(4 192.5)">
<title>__SPI_HandleTypeDef</title>
<!-- Node1 -->
<g id="Node000001" class="node">
<title>Node1</title>
<g id="a_Node000001"><a xlink:title="SPI handle Structure definition.">
<polygon fill="#999999" stroke="#666666" points="124.25,-20.75 7.75,-20.75 7.75,0 124.25,0 124.25,-20.75"/>
<text text-anchor="middle" x="66" y="-7.25" font-family="Helvetica,sans-Serif" font-size="10.00">__SPI_HandleTypeDef</text>
</a>
</g>
</g>
<!-- Node2 -->
<g id="Node000002" class="node">
<title>Node2</title>
<g id="a_Node000002"><a xlink:href="structSPI__InitTypeDef.html" target="_top" xlink:title="SPI Configuration Structure definition.">
<polygon fill="white" stroke="#666666" points="88,-113 0,-113 0,-92.25 88,-92.25 88,-113"/>
<text text-anchor="middle" x="44" y="-99.5" font-family="Helvetica,sans-Serif" font-size="10.00">SPI_InitTypeDef</text>
</a>
</g>
</g>
<!-- Node2&#45;&gt;Node1 -->
<g id="edge1_Node000001_Node000002" class="edge">
<title>Node2&#45;&gt;Node1</title>
<g id="a_edge1_Node000001_Node000002"><a xlink:title=" ">
<path fill="none" stroke="#9a32cd" stroke-dasharray="5,2" d="M49.08,-80.79C53.64,-62.09 60.13,-35.46 63.6,-21.24"/>
<polygon fill="#9a32cd" stroke="#9a32cd" points="45.68,-79.95 46.71,-90.5 52.48,-81.61 45.68,-79.95"/>
</a>
</g>
<text text-anchor="start" x="61.88" y="-53.38" font-family="Helvetica,sans-Serif" font-size="10.00" fill="grey">Init</text>
</g>
<!-- Node3 -->
<g id="Node000003" class="node">
<title>Node3</title>
<g id="a_Node000003"><a xlink:href="struct____DMA__HandleTypeDef.html" target="_top" xlink:title="DMA handle Structure definition.">
<polygon fill="white" stroke="#666666" points="229.62,-113 106.38,-113 106.38,-92.25 229.62,-92.25 229.62,-113"/>
<text text-anchor="middle" x="168" y="-99.5" font-family="Helvetica,sans-Serif" font-size="10.00">__DMA_HandleTypeDef</text>
</a>
</g>
</g>
<!-- Node3&#45;&gt;Node1 -->
<g id="edge2_Node000001_Node000003" class="edge">
<title>Node3&#45;&gt;Node1</title>
<g id="a_edge2_Node000001_Node000003"><a xlink:title=" ">
<path fill="none" stroke="#9a32cd" stroke-dasharray="5,2" d="M148.57,-84.43C127.41,-65.71 94.3,-36.42 77.15,-21.24"/>
<polygon fill="#9a32cd" stroke="#9a32cd" points="146.14,-86.96 155.95,-90.96 150.78,-81.72 146.14,-86.96"/>
</a>
</g>
<text text-anchor="start" x="138.01" y="-61.75" font-family="Helvetica,sans-Serif" font-size="10.00" fill="grey">hdmarx</text>
<text text-anchor="start" x="138.01" y="-45" font-family="Helvetica,sans-Serif" font-size="10.00" fill="grey">hdmatx</text>
</g>
<!-- Node4 -->
<g id="Node000004" class="node">
<title>Node4</title>
<g id="a_Node000004"><a xlink:href="structDMA__InitTypeDef.html" target="_top" xlink:title="DMA Configuration Structure definition.">
<polygon fill="white" stroke="#666666" points="215.38,-188.5 120.62,-188.5 120.62,-167.75 215.38,-167.75 215.38,-188.5"/>
<text text-anchor="middle" x="168" y="-175" font-family="Helvetica,sans-Serif" font-size="10.00">DMA_InitTypeDef</text>
</a>
</g>
</g>
<!-- Node4&#45;&gt;Node3 -->
<g id="edge3_Node000003_Node000004" class="edge">
<title>Node4&#45;&gt;Node3</title>
<g id="a_edge3_Node000003_Node000004"><a xlink:title=" ">
<path fill="none" stroke="#9a32cd" stroke-dasharray="5,2" d="M168,-156.01C168,-142.01 168,-124.3 168,-113.47"/>
<polygon fill="#9a32cd" stroke="#9a32cd" points="164.5,-156 168,-166 171.5,-156 164.5,-156"/>
</a>
</g>
<text text-anchor="start" x="171" y="-137.25" font-family="Helvetica,sans-Serif" font-size="10.00" fill="grey">Init</text>
</g>
</g>
</svg>
